%TF.GenerationSoftware,KiCad,Pcbnew,(6.0.10)*%
%TF.CreationDate,2023-02-22T22:59:34-05:00*%
%TF.ProjectId,System Management Board,53797374-656d-4204-9d61-6e6167656d65,rev?*%
%TF.SameCoordinates,Original*%
%TF.FileFunction,Legend,Top*%
%TF.FilePolarity,Positive*%
%FSLAX46Y46*%
G04 Gerber Fmt 4.6, Leading zero omitted, Abs format (unit mm)*
G04 Created by KiCad (PCBNEW (6.0.10)) date 2023-02-22 22:59:34*
%MOMM*%
%LPD*%
G01*
G04 APERTURE LIST*
%ADD10C,0.400000*%
%ADD11C,0.150000*%
%ADD12C,0.098425*%
%ADD13C,0.127000*%
%ADD14C,0.200000*%
%ADD15C,0.120000*%
%ADD16C,0.100000*%
%ADD17C,0.406400*%
%ADD18C,0.254000*%
G04 APERTURE END LIST*
D10*
X154305666Y-100917333D02*
X155258047Y-100917333D01*
X154115190Y-101488761D02*
X154781857Y-99488761D01*
X155448523Y-101488761D01*
X156115190Y-99488761D02*
X156115190Y-101107809D01*
X156210428Y-101298285D01*
X156305666Y-101393523D01*
X156496142Y-101488761D01*
X156877095Y-101488761D01*
X157067571Y-101393523D01*
X157162809Y-101298285D01*
X157258047Y-101107809D01*
X157258047Y-99488761D01*
X158019952Y-99488761D02*
X159353285Y-101488761D01*
X159353285Y-99488761D02*
X158019952Y-101488761D01*
X161543761Y-101393523D02*
X161829476Y-101488761D01*
X162305666Y-101488761D01*
X162496142Y-101393523D01*
X162591380Y-101298285D01*
X162686619Y-101107809D01*
X162686619Y-100917333D01*
X162591380Y-100726857D01*
X162496142Y-100631619D01*
X162305666Y-100536380D01*
X161924714Y-100441142D01*
X161734238Y-100345904D01*
X161639000Y-100250666D01*
X161543761Y-100060190D01*
X161543761Y-99869714D01*
X161639000Y-99679238D01*
X161734238Y-99584000D01*
X161924714Y-99488761D01*
X162400904Y-99488761D01*
X162686619Y-99584000D01*
X163353285Y-99488761D02*
X163829476Y-101488761D01*
X164210428Y-100060190D01*
X164591380Y-101488761D01*
X165067571Y-99488761D01*
X186579238Y-67706761D02*
X185912571Y-66754380D01*
X185436380Y-67706761D02*
X185436380Y-65706761D01*
X186198285Y-65706761D01*
X186388761Y-65802000D01*
X186484000Y-65897238D01*
X186579238Y-66087714D01*
X186579238Y-66373428D01*
X186484000Y-66563904D01*
X186388761Y-66659142D01*
X186198285Y-66754380D01*
X185436380Y-66754380D01*
X187436380Y-66659142D02*
X188103047Y-66659142D01*
X188388761Y-67706761D02*
X187436380Y-67706761D01*
X187436380Y-65706761D01*
X188388761Y-65706761D01*
X189150666Y-67611523D02*
X189436380Y-67706761D01*
X189912571Y-67706761D01*
X190103047Y-67611523D01*
X190198285Y-67516285D01*
X190293523Y-67325809D01*
X190293523Y-67135333D01*
X190198285Y-66944857D01*
X190103047Y-66849619D01*
X189912571Y-66754380D01*
X189531619Y-66659142D01*
X189341142Y-66563904D01*
X189245904Y-66468666D01*
X189150666Y-66278190D01*
X189150666Y-66087714D01*
X189245904Y-65897238D01*
X189341142Y-65802000D01*
X189531619Y-65706761D01*
X190007809Y-65706761D01*
X190293523Y-65802000D01*
X191150666Y-66659142D02*
X191817333Y-66659142D01*
X192103047Y-67706761D02*
X191150666Y-67706761D01*
X191150666Y-65706761D01*
X192103047Y-65706761D01*
X192674476Y-65706761D02*
X193817333Y-65706761D01*
X193245904Y-67706761D02*
X193245904Y-65706761D01*
D11*
%TO.C,SW1*%
X180481333Y-66572666D02*
X180681333Y-66639333D01*
X181014666Y-66639333D01*
X181148000Y-66572666D01*
X181214666Y-66506000D01*
X181281333Y-66372666D01*
X181281333Y-66239333D01*
X181214666Y-66106000D01*
X181148000Y-66039333D01*
X181014666Y-65972666D01*
X180748000Y-65906000D01*
X180614666Y-65839333D01*
X180548000Y-65772666D01*
X180481333Y-65639333D01*
X180481333Y-65506000D01*
X180548000Y-65372666D01*
X180614666Y-65306000D01*
X180748000Y-65239333D01*
X181081333Y-65239333D01*
X181281333Y-65306000D01*
X181748000Y-65239333D02*
X182081333Y-66639333D01*
X182348000Y-65639333D01*
X182614666Y-66639333D01*
X182948000Y-65239333D01*
X184214666Y-66639333D02*
X183414666Y-66639333D01*
X183814666Y-66639333D02*
X183814666Y-65239333D01*
X183681333Y-65439333D01*
X183548000Y-65572666D01*
X183414666Y-65639333D01*
%TO.C,SW2*%
X150331666Y-98144166D02*
X150398333Y-97944166D01*
X150398333Y-97610833D01*
X150331666Y-97477500D01*
X150265000Y-97410833D01*
X150131666Y-97344166D01*
X149998333Y-97344166D01*
X149865000Y-97410833D01*
X149798333Y-97477500D01*
X149731666Y-97610833D01*
X149665000Y-97877500D01*
X149598333Y-98010833D01*
X149531666Y-98077500D01*
X149398333Y-98144166D01*
X149265000Y-98144166D01*
X149131666Y-98077500D01*
X149065000Y-98010833D01*
X148998333Y-97877500D01*
X148998333Y-97544166D01*
X149065000Y-97344166D01*
X148998333Y-96877500D02*
X150398333Y-96544166D01*
X149398333Y-96277500D01*
X150398333Y-96010833D01*
X148998333Y-95677500D01*
X149131666Y-95210833D02*
X149065000Y-95144166D01*
X148998333Y-95010833D01*
X148998333Y-94677500D01*
X149065000Y-94544166D01*
X149131666Y-94477500D01*
X149265000Y-94410833D01*
X149398333Y-94410833D01*
X149598333Y-94477500D01*
X150398333Y-95277500D01*
X150398333Y-94410833D01*
%TO.C,J9*%
X187329366Y-120401679D02*
X187329366Y-121115965D01*
X187281747Y-121258822D01*
X187186509Y-121354060D01*
X187043652Y-121401679D01*
X186948414Y-121401679D01*
X187853176Y-121401679D02*
X188043652Y-121401679D01*
X188138890Y-121354060D01*
X188186509Y-121306441D01*
X188281747Y-121163584D01*
X188329366Y-120973108D01*
X188329366Y-120592156D01*
X188281747Y-120496918D01*
X188234128Y-120449299D01*
X188138890Y-120401679D01*
X187948414Y-120401679D01*
X187853176Y-120449299D01*
X187805557Y-120496918D01*
X187757938Y-120592156D01*
X187757938Y-120830251D01*
X187805557Y-120925489D01*
X187853176Y-120973108D01*
X187948414Y-121020727D01*
X188138890Y-121020727D01*
X188234128Y-120973108D01*
X188281747Y-120925489D01*
X188329366Y-120830251D01*
%TO.C,F10*%
X206327476Y-66930571D02*
X205994142Y-66930571D01*
X205994142Y-67454380D02*
X205994142Y-66454380D01*
X206470333Y-66454380D01*
X207375095Y-67454380D02*
X206803666Y-67454380D01*
X207089380Y-67454380D02*
X207089380Y-66454380D01*
X206994142Y-66597238D01*
X206898904Y-66692476D01*
X206803666Y-66740095D01*
X207994142Y-66454380D02*
X208089380Y-66454380D01*
X208184619Y-66502000D01*
X208232238Y-66549619D01*
X208279857Y-66644857D01*
X208327476Y-66835333D01*
X208327476Y-67073428D01*
X208279857Y-67263904D01*
X208232238Y-67359142D01*
X208184619Y-67406761D01*
X208089380Y-67454380D01*
X207994142Y-67454380D01*
X207898904Y-67406761D01*
X207851285Y-67359142D01*
X207803666Y-67263904D01*
X207756047Y-67073428D01*
X207756047Y-66835333D01*
X207803666Y-66644857D01*
X207851285Y-66549619D01*
X207898904Y-66502000D01*
X207994142Y-66454380D01*
%TO.C,F9*%
X157665666Y-134979371D02*
X157332333Y-134979371D01*
X157332333Y-135503180D02*
X157332333Y-134503180D01*
X157808523Y-134503180D01*
X158237095Y-135503180D02*
X158427571Y-135503180D01*
X158522809Y-135455561D01*
X158570428Y-135407942D01*
X158665666Y-135265085D01*
X158713285Y-135074609D01*
X158713285Y-134693657D01*
X158665666Y-134598419D01*
X158618047Y-134550800D01*
X158522809Y-134503180D01*
X158332333Y-134503180D01*
X158237095Y-134550800D01*
X158189476Y-134598419D01*
X158141857Y-134693657D01*
X158141857Y-134931752D01*
X158189476Y-135026990D01*
X158237095Y-135074609D01*
X158332333Y-135122228D01*
X158522809Y-135122228D01*
X158618047Y-135074609D01*
X158665666Y-135026990D01*
X158713285Y-134931752D01*
X154792666Y-136154180D02*
X155411714Y-136154180D01*
X155078380Y-136535133D01*
X155221238Y-136535133D01*
X155316476Y-136582752D01*
X155364095Y-136630371D01*
X155411714Y-136725609D01*
X155411714Y-136963704D01*
X155364095Y-137058942D01*
X155316476Y-137106561D01*
X155221238Y-137154180D01*
X154935523Y-137154180D01*
X154840285Y-137106561D01*
X154792666Y-137058942D01*
X156316476Y-136154180D02*
X155840285Y-136154180D01*
X155792666Y-136630371D01*
X155840285Y-136582752D01*
X155935523Y-136535133D01*
X156173619Y-136535133D01*
X156268857Y-136582752D01*
X156316476Y-136630371D01*
X156364095Y-136725609D01*
X156364095Y-136963704D01*
X156316476Y-137058942D01*
X156268857Y-137106561D01*
X156173619Y-137154180D01*
X155935523Y-137154180D01*
X155840285Y-137106561D01*
X155792666Y-137058942D01*
X157268857Y-136154180D02*
X156792666Y-136154180D01*
X156745047Y-136630371D01*
X156792666Y-136582752D01*
X156887904Y-136535133D01*
X157126000Y-136535133D01*
X157221238Y-136582752D01*
X157268857Y-136630371D01*
X157316476Y-136725609D01*
X157316476Y-136963704D01*
X157268857Y-137058942D01*
X157221238Y-137106561D01*
X157126000Y-137154180D01*
X156887904Y-137154180D01*
X156792666Y-137106561D01*
X156745047Y-137058942D01*
X157649809Y-136154180D02*
X158316476Y-136154180D01*
X157887904Y-137154180D01*
X158697428Y-136773228D02*
X159459333Y-136773228D01*
X160459333Y-137154180D02*
X159887904Y-137154180D01*
X160173619Y-137154180D02*
X160173619Y-136154180D01*
X160078380Y-136297038D01*
X159983142Y-136392276D01*
X159887904Y-136439895D01*
X161078380Y-136154180D02*
X161173619Y-136154180D01*
X161268857Y-136201800D01*
X161316476Y-136249419D01*
X161364095Y-136344657D01*
X161411714Y-136535133D01*
X161411714Y-136773228D01*
X161364095Y-136963704D01*
X161316476Y-137058942D01*
X161268857Y-137106561D01*
X161173619Y-137154180D01*
X161078380Y-137154180D01*
X160983142Y-137106561D01*
X160935523Y-137058942D01*
X160887904Y-136963704D01*
X160840285Y-136773228D01*
X160840285Y-136535133D01*
X160887904Y-136344657D01*
X160935523Y-136249419D01*
X160983142Y-136201800D01*
X161078380Y-136154180D01*
X151395000Y-134452380D02*
X151395000Y-134690476D01*
X151156904Y-134595238D02*
X151395000Y-134690476D01*
X151633095Y-134595238D01*
X151252142Y-134880952D02*
X151395000Y-134690476D01*
X151537857Y-134880952D01*
%TO.C,R18*%
X207984742Y-64103980D02*
X207651409Y-63627790D01*
X207413314Y-64103980D02*
X207413314Y-63103980D01*
X207794266Y-63103980D01*
X207889504Y-63151600D01*
X207937123Y-63199219D01*
X207984742Y-63294457D01*
X207984742Y-63437314D01*
X207937123Y-63532552D01*
X207889504Y-63580171D01*
X207794266Y-63627790D01*
X207413314Y-63627790D01*
X208937123Y-64103980D02*
X208365695Y-64103980D01*
X208651409Y-64103980D02*
X208651409Y-63103980D01*
X208556171Y-63246838D01*
X208460933Y-63342076D01*
X208365695Y-63389695D01*
X209508552Y-63532552D02*
X209413314Y-63484933D01*
X209365695Y-63437314D01*
X209318076Y-63342076D01*
X209318076Y-63294457D01*
X209365695Y-63199219D01*
X209413314Y-63151600D01*
X209508552Y-63103980D01*
X209699028Y-63103980D01*
X209794266Y-63151600D01*
X209841885Y-63199219D01*
X209889504Y-63294457D01*
X209889504Y-63342076D01*
X209841885Y-63437314D01*
X209794266Y-63484933D01*
X209699028Y-63532552D01*
X209508552Y-63532552D01*
X209413314Y-63580171D01*
X209365695Y-63627790D01*
X209318076Y-63723028D01*
X209318076Y-63913504D01*
X209365695Y-64008742D01*
X209413314Y-64056361D01*
X209508552Y-64103980D01*
X209699028Y-64103980D01*
X209794266Y-64056361D01*
X209841885Y-64008742D01*
X209889504Y-63913504D01*
X209889504Y-63723028D01*
X209841885Y-63627790D01*
X209794266Y-63580171D01*
X209699028Y-63532552D01*
%TO.C,F3*%
X94792666Y-98531370D02*
X94459333Y-98531370D01*
X94459333Y-99055179D02*
X94459333Y-98055179D01*
X94935523Y-98055179D01*
X95221238Y-98055179D02*
X95840285Y-98055179D01*
X95506952Y-98436132D01*
X95649809Y-98436132D01*
X95745047Y-98483751D01*
X95792666Y-98531370D01*
X95840285Y-98626608D01*
X95840285Y-98864703D01*
X95792666Y-98959941D01*
X95745047Y-99007560D01*
X95649809Y-99055179D01*
X95364095Y-99055179D01*
X95268857Y-99007560D01*
X95221238Y-98959941D01*
X91792666Y-99579179D02*
X92411714Y-99579179D01*
X92078380Y-99960132D01*
X92221238Y-99960132D01*
X92316476Y-100007751D01*
X92364095Y-100055370D01*
X92411714Y-100150608D01*
X92411714Y-100388703D01*
X92364095Y-100483941D01*
X92316476Y-100531560D01*
X92221238Y-100579179D01*
X91935523Y-100579179D01*
X91840285Y-100531560D01*
X91792666Y-100483941D01*
X93316476Y-99579179D02*
X92840285Y-99579179D01*
X92792666Y-100055370D01*
X92840285Y-100007751D01*
X92935523Y-99960132D01*
X93173619Y-99960132D01*
X93268857Y-100007751D01*
X93316476Y-100055370D01*
X93364095Y-100150608D01*
X93364095Y-100388703D01*
X93316476Y-100483941D01*
X93268857Y-100531560D01*
X93173619Y-100579179D01*
X92935523Y-100579179D01*
X92840285Y-100531560D01*
X92792666Y-100483941D01*
X94268857Y-99579179D02*
X93792666Y-99579179D01*
X93745047Y-100055370D01*
X93792666Y-100007751D01*
X93887904Y-99960132D01*
X94126000Y-99960132D01*
X94221238Y-100007751D01*
X94268857Y-100055370D01*
X94316476Y-100150608D01*
X94316476Y-100388703D01*
X94268857Y-100483941D01*
X94221238Y-100531560D01*
X94126000Y-100579179D01*
X93887904Y-100579179D01*
X93792666Y-100531560D01*
X93745047Y-100483941D01*
X94649809Y-99579179D02*
X95316476Y-99579179D01*
X94887904Y-100579179D01*
X95697428Y-100198227D02*
X96459333Y-100198227D01*
X97459333Y-100579179D02*
X96887904Y-100579179D01*
X97173619Y-100579179D02*
X97173619Y-99579179D01*
X97078380Y-99722037D01*
X96983142Y-99817275D01*
X96887904Y-99864894D01*
X98078380Y-99579179D02*
X98173619Y-99579179D01*
X98268857Y-99626799D01*
X98316476Y-99674418D01*
X98364095Y-99769656D01*
X98411714Y-99960132D01*
X98411714Y-100198227D01*
X98364095Y-100388703D01*
X98316476Y-100483941D01*
X98268857Y-100531560D01*
X98173619Y-100579179D01*
X98078380Y-100579179D01*
X97983142Y-100531560D01*
X97935523Y-100483941D01*
X97887904Y-100388703D01*
X97840285Y-100198227D01*
X97840285Y-99960132D01*
X97887904Y-99769656D01*
X97935523Y-99674418D01*
X97983142Y-99626799D01*
X98078380Y-99579179D01*
X88395000Y-97877379D02*
X88395000Y-98115475D01*
X88156904Y-98020237D02*
X88395000Y-98115475D01*
X88633095Y-98020237D01*
X88252142Y-98305951D02*
X88395000Y-98115475D01*
X88537857Y-98305951D01*
%TO.C,R14*%
X189318342Y-75430380D02*
X188985009Y-74954190D01*
X188746914Y-75430380D02*
X188746914Y-74430380D01*
X189127866Y-74430380D01*
X189223104Y-74478000D01*
X189270723Y-74525619D01*
X189318342Y-74620857D01*
X189318342Y-74763714D01*
X189270723Y-74858952D01*
X189223104Y-74906571D01*
X189127866Y-74954190D01*
X188746914Y-74954190D01*
X190270723Y-75430380D02*
X189699295Y-75430380D01*
X189985009Y-75430380D02*
X189985009Y-74430380D01*
X189889771Y-74573238D01*
X189794533Y-74668476D01*
X189699295Y-74716095D01*
X191127866Y-74763714D02*
X191127866Y-75430380D01*
X190889771Y-74382761D02*
X190651676Y-75097047D01*
X191270723Y-75097047D01*
%TO.C,U6*%
X143030095Y-103571380D02*
X143030095Y-104380904D01*
X143077714Y-104476142D01*
X143125333Y-104523761D01*
X143220571Y-104571380D01*
X143411047Y-104571380D01*
X143506285Y-104523761D01*
X143553904Y-104476142D01*
X143601523Y-104380904D01*
X143601523Y-103571380D01*
X144506285Y-103571380D02*
X144315809Y-103571380D01*
X144220571Y-103619000D01*
X144172952Y-103666619D01*
X144077714Y-103809476D01*
X144030095Y-103999952D01*
X144030095Y-104380904D01*
X144077714Y-104476142D01*
X144125333Y-104523761D01*
X144220571Y-104571380D01*
X144411047Y-104571380D01*
X144506285Y-104523761D01*
X144553904Y-104476142D01*
X144601523Y-104380904D01*
X144601523Y-104142809D01*
X144553904Y-104047571D01*
X144506285Y-103999952D01*
X144411047Y-103952333D01*
X144220571Y-103952333D01*
X144125333Y-103999952D01*
X144077714Y-104047571D01*
X144030095Y-104142809D01*
%TO.C,C21*%
X194113142Y-123815142D02*
X194065523Y-123862761D01*
X193922666Y-123910380D01*
X193827428Y-123910380D01*
X193684571Y-123862761D01*
X193589333Y-123767523D01*
X193541714Y-123672285D01*
X193494095Y-123481809D01*
X193494095Y-123338952D01*
X193541714Y-123148476D01*
X193589333Y-123053238D01*
X193684571Y-122958000D01*
X193827428Y-122910380D01*
X193922666Y-122910380D01*
X194065523Y-122958000D01*
X194113142Y-123005619D01*
X194494095Y-123005619D02*
X194541714Y-122958000D01*
X194636952Y-122910380D01*
X194875047Y-122910380D01*
X194970285Y-122958000D01*
X195017904Y-123005619D01*
X195065523Y-123100857D01*
X195065523Y-123196095D01*
X195017904Y-123338952D01*
X194446476Y-123910380D01*
X195065523Y-123910380D01*
X196017904Y-123910380D02*
X195446476Y-123910380D01*
X195732190Y-123910380D02*
X195732190Y-122910380D01*
X195636952Y-123053238D01*
X195541714Y-123148476D01*
X195446476Y-123196095D01*
%TO.C,C15*%
X140607142Y-66432142D02*
X140559523Y-66479761D01*
X140416666Y-66527380D01*
X140321428Y-66527380D01*
X140178571Y-66479761D01*
X140083333Y-66384523D01*
X140035714Y-66289285D01*
X139988095Y-66098809D01*
X139988095Y-65955952D01*
X140035714Y-65765476D01*
X140083333Y-65670238D01*
X140178571Y-65575000D01*
X140321428Y-65527380D01*
X140416666Y-65527380D01*
X140559523Y-65575000D01*
X140607142Y-65622619D01*
X141559523Y-66527380D02*
X140988095Y-66527380D01*
X141273809Y-66527380D02*
X141273809Y-65527380D01*
X141178571Y-65670238D01*
X141083333Y-65765476D01*
X140988095Y-65813095D01*
X142464285Y-65527380D02*
X141988095Y-65527380D01*
X141940476Y-66003571D01*
X141988095Y-65955952D01*
X142083333Y-65908333D01*
X142321428Y-65908333D01*
X142416666Y-65955952D01*
X142464285Y-66003571D01*
X142511904Y-66098809D01*
X142511904Y-66336904D01*
X142464285Y-66432142D01*
X142416666Y-66479761D01*
X142321428Y-66527380D01*
X142083333Y-66527380D01*
X141988095Y-66479761D01*
X141940476Y-66432142D01*
%TO.C,R23*%
X186755142Y-86382380D02*
X186421809Y-85906190D01*
X186183714Y-86382380D02*
X186183714Y-85382380D01*
X186564666Y-85382380D01*
X186659904Y-85430000D01*
X186707523Y-85477619D01*
X186755142Y-85572857D01*
X186755142Y-85715714D01*
X186707523Y-85810952D01*
X186659904Y-85858571D01*
X186564666Y-85906190D01*
X186183714Y-85906190D01*
X187136095Y-85477619D02*
X187183714Y-85430000D01*
X187278952Y-85382380D01*
X187517047Y-85382380D01*
X187612285Y-85430000D01*
X187659904Y-85477619D01*
X187707523Y-85572857D01*
X187707523Y-85668095D01*
X187659904Y-85810952D01*
X187088476Y-86382380D01*
X187707523Y-86382380D01*
X188040857Y-85382380D02*
X188659904Y-85382380D01*
X188326571Y-85763333D01*
X188469428Y-85763333D01*
X188564666Y-85810952D01*
X188612285Y-85858571D01*
X188659904Y-85953809D01*
X188659904Y-86191904D01*
X188612285Y-86287142D01*
X188564666Y-86334761D01*
X188469428Y-86382380D01*
X188183714Y-86382380D01*
X188088476Y-86334761D01*
X188040857Y-86287142D01*
%TO.C,U4*%
X189469095Y-122983380D02*
X189469095Y-123792904D01*
X189516714Y-123888142D01*
X189564333Y-123935761D01*
X189659571Y-123983380D01*
X189850047Y-123983380D01*
X189945285Y-123935761D01*
X189992904Y-123888142D01*
X190040523Y-123792904D01*
X190040523Y-122983380D01*
X190945285Y-123316714D02*
X190945285Y-123983380D01*
X190707190Y-122935761D02*
X190469095Y-123650047D01*
X191088142Y-123650047D01*
%TO.C,D13*%
X181028714Y-110326380D02*
X181028714Y-109326380D01*
X181266809Y-109326380D01*
X181409666Y-109374000D01*
X181504904Y-109469238D01*
X181552523Y-109564476D01*
X181600142Y-109754952D01*
X181600142Y-109897809D01*
X181552523Y-110088285D01*
X181504904Y-110183523D01*
X181409666Y-110278761D01*
X181266809Y-110326380D01*
X181028714Y-110326380D01*
X182552523Y-110326380D02*
X181981095Y-110326380D01*
X182266809Y-110326380D02*
X182266809Y-109326380D01*
X182171571Y-109469238D01*
X182076333Y-109564476D01*
X181981095Y-109612095D01*
X182885857Y-109326380D02*
X183504904Y-109326380D01*
X183171571Y-109707333D01*
X183314428Y-109707333D01*
X183409666Y-109754952D01*
X183457285Y-109802571D01*
X183504904Y-109897809D01*
X183504904Y-110135904D01*
X183457285Y-110231142D01*
X183409666Y-110278761D01*
X183314428Y-110326380D01*
X183028714Y-110326380D01*
X182933476Y-110278761D01*
X182885857Y-110231142D01*
%TO.C,J11*%
X202928776Y-82318381D02*
X202928776Y-83032667D01*
X202881157Y-83175524D01*
X202785919Y-83270762D01*
X202643061Y-83318381D01*
X202547823Y-83318381D01*
X203928776Y-83318381D02*
X203357347Y-83318381D01*
X203643061Y-83318381D02*
X203643061Y-82318381D01*
X203547823Y-82461239D01*
X203452585Y-82556477D01*
X203357347Y-82604096D01*
X204881157Y-83318381D02*
X204309728Y-83318381D01*
X204595442Y-83318381D02*
X204595442Y-82318381D01*
X204500204Y-82461239D01*
X204404966Y-82556477D01*
X204309728Y-82604096D01*
%TO.C,C20*%
X185031142Y-123787142D02*
X184983523Y-123834761D01*
X184840666Y-123882380D01*
X184745428Y-123882380D01*
X184602571Y-123834761D01*
X184507333Y-123739523D01*
X184459714Y-123644285D01*
X184412095Y-123453809D01*
X184412095Y-123310952D01*
X184459714Y-123120476D01*
X184507333Y-123025238D01*
X184602571Y-122930000D01*
X184745428Y-122882380D01*
X184840666Y-122882380D01*
X184983523Y-122930000D01*
X185031142Y-122977619D01*
X185412095Y-122977619D02*
X185459714Y-122930000D01*
X185554952Y-122882380D01*
X185793047Y-122882380D01*
X185888285Y-122930000D01*
X185935904Y-122977619D01*
X185983523Y-123072857D01*
X185983523Y-123168095D01*
X185935904Y-123310952D01*
X185364476Y-123882380D01*
X185983523Y-123882380D01*
X186602571Y-122882380D02*
X186697809Y-122882380D01*
X186793047Y-122930000D01*
X186840666Y-122977619D01*
X186888285Y-123072857D01*
X186935904Y-123263333D01*
X186935904Y-123501428D01*
X186888285Y-123691904D01*
X186840666Y-123787142D01*
X186793047Y-123834761D01*
X186697809Y-123882380D01*
X186602571Y-123882380D01*
X186507333Y-123834761D01*
X186459714Y-123787142D01*
X186412095Y-123691904D01*
X186364476Y-123501428D01*
X186364476Y-123263333D01*
X186412095Y-123072857D01*
X186459714Y-122977619D01*
X186507333Y-122930000D01*
X186602571Y-122882380D01*
%TO.C,D9*%
X179195504Y-52065180D02*
X179195504Y-51065180D01*
X179433600Y-51065180D01*
X179576457Y-51112800D01*
X179671695Y-51208038D01*
X179719314Y-51303276D01*
X179766933Y-51493752D01*
X179766933Y-51636609D01*
X179719314Y-51827085D01*
X179671695Y-51922323D01*
X179576457Y-52017561D01*
X179433600Y-52065180D01*
X179195504Y-52065180D01*
X180243123Y-52065180D02*
X180433600Y-52065180D01*
X180528838Y-52017561D01*
X180576457Y-51969942D01*
X180671695Y-51827085D01*
X180719314Y-51636609D01*
X180719314Y-51255657D01*
X180671695Y-51160419D01*
X180624076Y-51112800D01*
X180528838Y-51065180D01*
X180338361Y-51065180D01*
X180243123Y-51112800D01*
X180195504Y-51160419D01*
X180147885Y-51255657D01*
X180147885Y-51493752D01*
X180195504Y-51588990D01*
X180243123Y-51636609D01*
X180338361Y-51684228D01*
X180528838Y-51684228D01*
X180624076Y-51636609D01*
X180671695Y-51588990D01*
X180719314Y-51493752D01*
%TO.C,C1*%
X127008333Y-90657142D02*
X126960714Y-90704761D01*
X126817857Y-90752380D01*
X126722619Y-90752380D01*
X126579761Y-90704761D01*
X126484523Y-90609523D01*
X126436904Y-90514285D01*
X126389285Y-90323809D01*
X126389285Y-90180952D01*
X126436904Y-89990476D01*
X126484523Y-89895238D01*
X126579761Y-89800000D01*
X126722619Y-89752380D01*
X126817857Y-89752380D01*
X126960714Y-89800000D01*
X127008333Y-89847619D01*
X127960714Y-90752380D02*
X127389285Y-90752380D01*
X127675000Y-90752380D02*
X127675000Y-89752380D01*
X127579761Y-89895238D01*
X127484523Y-89990476D01*
X127389285Y-90038095D01*
%TO.C,J10*%
X190626476Y-53221380D02*
X190626476Y-53935666D01*
X190578857Y-54078523D01*
X190483619Y-54173761D01*
X190340761Y-54221380D01*
X190245523Y-54221380D01*
X191626476Y-54221380D02*
X191055047Y-54221380D01*
X191340761Y-54221380D02*
X191340761Y-53221380D01*
X191245523Y-53364238D01*
X191150285Y-53459476D01*
X191055047Y-53507095D01*
X192245523Y-53221380D02*
X192340761Y-53221380D01*
X192436000Y-53269000D01*
X192483619Y-53316619D01*
X192531238Y-53411857D01*
X192578857Y-53602333D01*
X192578857Y-53840428D01*
X192531238Y-54030904D01*
X192483619Y-54126142D01*
X192436000Y-54173761D01*
X192340761Y-54221380D01*
X192245523Y-54221380D01*
X192150285Y-54173761D01*
X192102666Y-54126142D01*
X192055047Y-54030904D01*
X192007428Y-53840428D01*
X192007428Y-53602333D01*
X192055047Y-53411857D01*
X192102666Y-53316619D01*
X192150285Y-53269000D01*
X192245523Y-53221380D01*
%TO.C,R38*%
X185457142Y-60925380D02*
X185123809Y-60449190D01*
X184885714Y-60925380D02*
X184885714Y-59925380D01*
X185266666Y-59925380D01*
X185361904Y-59973000D01*
X185409523Y-60020619D01*
X185457142Y-60115857D01*
X185457142Y-60258714D01*
X185409523Y-60353952D01*
X185361904Y-60401571D01*
X185266666Y-60449190D01*
X184885714Y-60449190D01*
X185790476Y-59925380D02*
X186409523Y-59925380D01*
X186076190Y-60306333D01*
X186219047Y-60306333D01*
X186314285Y-60353952D01*
X186361904Y-60401571D01*
X186409523Y-60496809D01*
X186409523Y-60734904D01*
X186361904Y-60830142D01*
X186314285Y-60877761D01*
X186219047Y-60925380D01*
X185933333Y-60925380D01*
X185838095Y-60877761D01*
X185790476Y-60830142D01*
X186980952Y-60353952D02*
X186885714Y-60306333D01*
X186838095Y-60258714D01*
X186790476Y-60163476D01*
X186790476Y-60115857D01*
X186838095Y-60020619D01*
X186885714Y-59973000D01*
X186980952Y-59925380D01*
X187171428Y-59925380D01*
X187266666Y-59973000D01*
X187314285Y-60020619D01*
X187361904Y-60115857D01*
X187361904Y-60163476D01*
X187314285Y-60258714D01*
X187266666Y-60306333D01*
X187171428Y-60353952D01*
X186980952Y-60353952D01*
X186885714Y-60401571D01*
X186838095Y-60449190D01*
X186790476Y-60544428D01*
X186790476Y-60734904D01*
X186838095Y-60830142D01*
X186885714Y-60877761D01*
X186980952Y-60925380D01*
X187171428Y-60925380D01*
X187266666Y-60877761D01*
X187314285Y-60830142D01*
X187361904Y-60734904D01*
X187361904Y-60544428D01*
X187314285Y-60449190D01*
X187266666Y-60401571D01*
X187171428Y-60353952D01*
%TO.C,F8*%
X157665666Y-114709371D02*
X157332333Y-114709371D01*
X157332333Y-115233180D02*
X157332333Y-114233180D01*
X157808523Y-114233180D01*
X158332333Y-114661752D02*
X158237095Y-114614133D01*
X158189476Y-114566514D01*
X158141857Y-114471276D01*
X158141857Y-114423657D01*
X158189476Y-114328419D01*
X158237095Y-114280800D01*
X158332333Y-114233180D01*
X158522809Y-114233180D01*
X158618047Y-114280800D01*
X158665666Y-114328419D01*
X158713285Y-114423657D01*
X158713285Y-114471276D01*
X158665666Y-114566514D01*
X158618047Y-114614133D01*
X158522809Y-114661752D01*
X158332333Y-114661752D01*
X158237095Y-114709371D01*
X158189476Y-114756990D01*
X158141857Y-114852228D01*
X158141857Y-115042704D01*
X158189476Y-115137942D01*
X158237095Y-115185561D01*
X158332333Y-115233180D01*
X158522809Y-115233180D01*
X158618047Y-115185561D01*
X158665666Y-115137942D01*
X158713285Y-115042704D01*
X158713285Y-114852228D01*
X158665666Y-114756990D01*
X158618047Y-114709371D01*
X158522809Y-114661752D01*
X154792666Y-115884180D02*
X155411714Y-115884180D01*
X155078380Y-116265133D01*
X155221238Y-116265133D01*
X155316476Y-116312752D01*
X155364095Y-116360371D01*
X155411714Y-116455609D01*
X155411714Y-116693704D01*
X155364095Y-116788942D01*
X155316476Y-116836561D01*
X155221238Y-116884180D01*
X154935523Y-116884180D01*
X154840285Y-116836561D01*
X154792666Y-116788942D01*
X156316476Y-115884180D02*
X155840285Y-115884180D01*
X155792666Y-116360371D01*
X155840285Y-116312752D01*
X155935523Y-116265133D01*
X156173619Y-116265133D01*
X156268857Y-116312752D01*
X156316476Y-116360371D01*
X156364095Y-116455609D01*
X156364095Y-116693704D01*
X156316476Y-116788942D01*
X156268857Y-116836561D01*
X156173619Y-116884180D01*
X155935523Y-116884180D01*
X155840285Y-116836561D01*
X155792666Y-116788942D01*
X157268857Y-115884180D02*
X156792666Y-115884180D01*
X156745047Y-116360371D01*
X156792666Y-116312752D01*
X156887904Y-116265133D01*
X157126000Y-116265133D01*
X157221238Y-116312752D01*
X157268857Y-116360371D01*
X157316476Y-116455609D01*
X157316476Y-116693704D01*
X157268857Y-116788942D01*
X157221238Y-116836561D01*
X157126000Y-116884180D01*
X156887904Y-116884180D01*
X156792666Y-116836561D01*
X156745047Y-116788942D01*
X157649809Y-115884180D02*
X158316476Y-115884180D01*
X157887904Y-116884180D01*
X158697428Y-116503228D02*
X159459333Y-116503228D01*
X160459333Y-116884180D02*
X159887904Y-116884180D01*
X160173619Y-116884180D02*
X160173619Y-115884180D01*
X160078380Y-116027038D01*
X159983142Y-116122276D01*
X159887904Y-116169895D01*
X161078380Y-115884180D02*
X161173619Y-115884180D01*
X161268857Y-115931800D01*
X161316476Y-115979419D01*
X161364095Y-116074657D01*
X161411714Y-116265133D01*
X161411714Y-116503228D01*
X161364095Y-116693704D01*
X161316476Y-116788942D01*
X161268857Y-116836561D01*
X161173619Y-116884180D01*
X161078380Y-116884180D01*
X160983142Y-116836561D01*
X160935523Y-116788942D01*
X160887904Y-116693704D01*
X160840285Y-116503228D01*
X160840285Y-116265133D01*
X160887904Y-116074657D01*
X160935523Y-115979419D01*
X160983142Y-115931800D01*
X161078380Y-115884180D01*
X151395000Y-114182380D02*
X151395000Y-114420476D01*
X151156904Y-114325238D02*
X151395000Y-114420476D01*
X151633095Y-114325238D01*
X151252142Y-114610952D02*
X151395000Y-114420476D01*
X151537857Y-114610952D01*
%TO.C,R21*%
X186755142Y-81240380D02*
X186421809Y-80764190D01*
X186183714Y-81240380D02*
X186183714Y-80240380D01*
X186564666Y-80240380D01*
X186659904Y-80288000D01*
X186707523Y-80335619D01*
X186755142Y-80430857D01*
X186755142Y-80573714D01*
X186707523Y-80668952D01*
X186659904Y-80716571D01*
X186564666Y-80764190D01*
X186183714Y-80764190D01*
X187136095Y-80335619D02*
X187183714Y-80288000D01*
X187278952Y-80240380D01*
X187517047Y-80240380D01*
X187612285Y-80288000D01*
X187659904Y-80335619D01*
X187707523Y-80430857D01*
X187707523Y-80526095D01*
X187659904Y-80668952D01*
X187088476Y-81240380D01*
X187707523Y-81240380D01*
X188659904Y-81240380D02*
X188088476Y-81240380D01*
X188374190Y-81240380D02*
X188374190Y-80240380D01*
X188278952Y-80383238D01*
X188183714Y-80478476D01*
X188088476Y-80526095D01*
%TO.C,D5*%
X80261304Y-90952580D02*
X80261304Y-89952580D01*
X80499400Y-89952580D01*
X80642257Y-90000200D01*
X80737495Y-90095438D01*
X80785114Y-90190676D01*
X80832733Y-90381152D01*
X80832733Y-90524009D01*
X80785114Y-90714485D01*
X80737495Y-90809723D01*
X80642257Y-90904961D01*
X80499400Y-90952580D01*
X80261304Y-90952580D01*
X81737495Y-89952580D02*
X81261304Y-89952580D01*
X81213685Y-90428771D01*
X81261304Y-90381152D01*
X81356542Y-90333533D01*
X81594638Y-90333533D01*
X81689876Y-90381152D01*
X81737495Y-90428771D01*
X81785114Y-90524009D01*
X81785114Y-90762104D01*
X81737495Y-90857342D01*
X81689876Y-90904961D01*
X81594638Y-90952580D01*
X81356542Y-90952580D01*
X81261304Y-90904961D01*
X81213685Y-90857342D01*
%TO.C,R24*%
X199079142Y-86298380D02*
X198745809Y-85822190D01*
X198507714Y-86298380D02*
X198507714Y-85298380D01*
X198888666Y-85298380D01*
X198983904Y-85346000D01*
X199031523Y-85393619D01*
X199079142Y-85488857D01*
X199079142Y-85631714D01*
X199031523Y-85726952D01*
X198983904Y-85774571D01*
X198888666Y-85822190D01*
X198507714Y-85822190D01*
X199460095Y-85393619D02*
X199507714Y-85346000D01*
X199602952Y-85298380D01*
X199841047Y-85298380D01*
X199936285Y-85346000D01*
X199983904Y-85393619D01*
X200031523Y-85488857D01*
X200031523Y-85584095D01*
X199983904Y-85726952D01*
X199412476Y-86298380D01*
X200031523Y-86298380D01*
X200888666Y-85631714D02*
X200888666Y-86298380D01*
X200650571Y-85250761D02*
X200412476Y-85965047D01*
X201031523Y-85965047D01*
%TO.C,C11*%
X126557142Y-78782142D02*
X126509523Y-78829761D01*
X126366666Y-78877380D01*
X126271428Y-78877380D01*
X126128571Y-78829761D01*
X126033333Y-78734523D01*
X125985714Y-78639285D01*
X125938095Y-78448809D01*
X125938095Y-78305952D01*
X125985714Y-78115476D01*
X126033333Y-78020238D01*
X126128571Y-77925000D01*
X126271428Y-77877380D01*
X126366666Y-77877380D01*
X126509523Y-77925000D01*
X126557142Y-77972619D01*
X127509523Y-78877380D02*
X126938095Y-78877380D01*
X127223809Y-78877380D02*
X127223809Y-77877380D01*
X127128571Y-78020238D01*
X127033333Y-78115476D01*
X126938095Y-78163095D01*
X128461904Y-78877380D02*
X127890476Y-78877380D01*
X128176190Y-78877380D02*
X128176190Y-77877380D01*
X128080952Y-78020238D01*
X127985714Y-78115476D01*
X127890476Y-78163095D01*
%TO.C,J5*%
X175433166Y-110567979D02*
X175433166Y-111282265D01*
X175385547Y-111425122D01*
X175290309Y-111520360D01*
X175147452Y-111567979D01*
X175052214Y-111567979D01*
X176385547Y-110567979D02*
X175909357Y-110567979D01*
X175861738Y-111044170D01*
X175909357Y-110996551D01*
X176004595Y-110948932D01*
X176242690Y-110948932D01*
X176337928Y-110996551D01*
X176385547Y-111044170D01*
X176433166Y-111139408D01*
X176433166Y-111377503D01*
X176385547Y-111472741D01*
X176337928Y-111520360D01*
X176242690Y-111567979D01*
X176004595Y-111567979D01*
X175909357Y-111520360D01*
X175861738Y-111472741D01*
%TO.C,R13*%
X189318342Y-73030380D02*
X188985009Y-72554190D01*
X188746914Y-73030380D02*
X188746914Y-72030380D01*
X189127866Y-72030380D01*
X189223104Y-72078000D01*
X189270723Y-72125619D01*
X189318342Y-72220857D01*
X189318342Y-72363714D01*
X189270723Y-72458952D01*
X189223104Y-72506571D01*
X189127866Y-72554190D01*
X188746914Y-72554190D01*
X190270723Y-73030380D02*
X189699295Y-73030380D01*
X189985009Y-73030380D02*
X189985009Y-72030380D01*
X189889771Y-72173238D01*
X189794533Y-72268476D01*
X189699295Y-72316095D01*
X190604057Y-72030380D02*
X191223104Y-72030380D01*
X190889771Y-72411333D01*
X191032628Y-72411333D01*
X191127866Y-72458952D01*
X191175485Y-72506571D01*
X191223104Y-72601809D01*
X191223104Y-72839904D01*
X191175485Y-72935142D01*
X191127866Y-72982761D01*
X191032628Y-73030380D01*
X190746914Y-73030380D01*
X190651676Y-72982761D01*
X190604057Y-72935142D01*
%TO.C,D14*%
X180966714Y-123637380D02*
X180966714Y-122637380D01*
X181204809Y-122637380D01*
X181347666Y-122685000D01*
X181442904Y-122780238D01*
X181490523Y-122875476D01*
X181538142Y-123065952D01*
X181538142Y-123208809D01*
X181490523Y-123399285D01*
X181442904Y-123494523D01*
X181347666Y-123589761D01*
X181204809Y-123637380D01*
X180966714Y-123637380D01*
X182490523Y-123637380D02*
X181919095Y-123637380D01*
X182204809Y-123637380D02*
X182204809Y-122637380D01*
X182109571Y-122780238D01*
X182014333Y-122875476D01*
X181919095Y-122923095D01*
X183347666Y-122970714D02*
X183347666Y-123637380D01*
X183109571Y-122589761D02*
X182871476Y-123304047D01*
X183490523Y-123304047D01*
%TO.C,R19*%
X207959342Y-69097647D02*
X207626009Y-68621457D01*
X207387914Y-69097647D02*
X207387914Y-68097647D01*
X207768866Y-68097647D01*
X207864104Y-68145267D01*
X207911723Y-68192886D01*
X207959342Y-68288124D01*
X207959342Y-68430981D01*
X207911723Y-68526219D01*
X207864104Y-68573838D01*
X207768866Y-68621457D01*
X207387914Y-68621457D01*
X208911723Y-69097647D02*
X208340295Y-69097647D01*
X208626009Y-69097647D02*
X208626009Y-68097647D01*
X208530771Y-68240505D01*
X208435533Y-68335743D01*
X208340295Y-68383362D01*
X209387914Y-69097647D02*
X209578390Y-69097647D01*
X209673628Y-69050028D01*
X209721247Y-69002409D01*
X209816485Y-68859552D01*
X209864104Y-68669076D01*
X209864104Y-68288124D01*
X209816485Y-68192886D01*
X209768866Y-68145267D01*
X209673628Y-68097647D01*
X209483152Y-68097647D01*
X209387914Y-68145267D01*
X209340295Y-68192886D01*
X209292676Y-68288124D01*
X209292676Y-68526219D01*
X209340295Y-68621457D01*
X209387914Y-68669076D01*
X209483152Y-68716695D01*
X209673628Y-68716695D01*
X209768866Y-68669076D01*
X209816485Y-68621457D01*
X209864104Y-68526219D01*
%TO.C,D12*%
X90872714Y-53297380D02*
X90872714Y-52297380D01*
X91110809Y-52297380D01*
X91253666Y-52345000D01*
X91348904Y-52440238D01*
X91396523Y-52535476D01*
X91444142Y-52725952D01*
X91444142Y-52868809D01*
X91396523Y-53059285D01*
X91348904Y-53154523D01*
X91253666Y-53249761D01*
X91110809Y-53297380D01*
X90872714Y-53297380D01*
X92396523Y-53297380D02*
X91825095Y-53297380D01*
X92110809Y-53297380D02*
X92110809Y-52297380D01*
X92015571Y-52440238D01*
X91920333Y-52535476D01*
X91825095Y-52583095D01*
X92777476Y-52392619D02*
X92825095Y-52345000D01*
X92920333Y-52297380D01*
X93158428Y-52297380D01*
X93253666Y-52345000D01*
X93301285Y-52392619D01*
X93348904Y-52487857D01*
X93348904Y-52583095D01*
X93301285Y-52725952D01*
X92729857Y-53297380D01*
X93348904Y-53297380D01*
%TO.C,R10*%
X145495742Y-52195116D02*
X145162409Y-51718926D01*
X144924314Y-52195116D02*
X144924314Y-51195116D01*
X145305266Y-51195116D01*
X145400504Y-51242736D01*
X145448123Y-51290355D01*
X145495742Y-51385593D01*
X145495742Y-51528450D01*
X145448123Y-51623688D01*
X145400504Y-51671307D01*
X145305266Y-51718926D01*
X144924314Y-51718926D01*
X146448123Y-52195116D02*
X145876695Y-52195116D01*
X146162409Y-52195116D02*
X146162409Y-51195116D01*
X146067171Y-51337974D01*
X145971933Y-51433212D01*
X145876695Y-51480831D01*
X147067171Y-51195116D02*
X147162409Y-51195116D01*
X147257647Y-51242736D01*
X147305266Y-51290355D01*
X147352885Y-51385593D01*
X147400504Y-51576069D01*
X147400504Y-51814164D01*
X147352885Y-52004640D01*
X147305266Y-52099878D01*
X147257647Y-52147497D01*
X147162409Y-52195116D01*
X147067171Y-52195116D01*
X146971933Y-52147497D01*
X146924314Y-52099878D01*
X146876695Y-52004640D01*
X146829076Y-51814164D01*
X146829076Y-51576069D01*
X146876695Y-51385593D01*
X146924314Y-51290355D01*
X146971933Y-51242736D01*
X147067171Y-51195116D01*
%TO.C,R3*%
X111687380Y-78411666D02*
X111211190Y-78745000D01*
X111687380Y-78983095D02*
X110687380Y-78983095D01*
X110687380Y-78602142D01*
X110735000Y-78506904D01*
X110782619Y-78459285D01*
X110877857Y-78411666D01*
X111020714Y-78411666D01*
X111115952Y-78459285D01*
X111163571Y-78506904D01*
X111211190Y-78602142D01*
X111211190Y-78983095D01*
X110687380Y-78078333D02*
X110687380Y-77459285D01*
X111068333Y-77792619D01*
X111068333Y-77649761D01*
X111115952Y-77554523D01*
X111163571Y-77506904D01*
X111258809Y-77459285D01*
X111496904Y-77459285D01*
X111592142Y-77506904D01*
X111639761Y-77554523D01*
X111687380Y-77649761D01*
X111687380Y-77935476D01*
X111639761Y-78030714D01*
X111592142Y-78078333D01*
%TO.C,JP2*%
X211050466Y-57272480D02*
X211050466Y-57986766D01*
X211002847Y-58129623D01*
X210907609Y-58224861D01*
X210764752Y-58272480D01*
X210669514Y-58272480D01*
X211526657Y-58272480D02*
X211526657Y-57272480D01*
X211907609Y-57272480D01*
X212002847Y-57320100D01*
X212050466Y-57367719D01*
X212098085Y-57462957D01*
X212098085Y-57605814D01*
X212050466Y-57701052D01*
X212002847Y-57748671D01*
X211907609Y-57796290D01*
X211526657Y-57796290D01*
X212479038Y-57367719D02*
X212526657Y-57320100D01*
X212621895Y-57272480D01*
X212859990Y-57272480D01*
X212955228Y-57320100D01*
X213002847Y-57367719D01*
X213050466Y-57462957D01*
X213050466Y-57558195D01*
X213002847Y-57701052D01*
X212431419Y-58272480D01*
X213050466Y-58272480D01*
%TO.C,R25*%
X186755142Y-83938380D02*
X186421809Y-83462190D01*
X186183714Y-83938380D02*
X186183714Y-82938380D01*
X186564666Y-82938380D01*
X186659904Y-82986000D01*
X186707523Y-83033619D01*
X186755142Y-83128857D01*
X186755142Y-83271714D01*
X186707523Y-83366952D01*
X186659904Y-83414571D01*
X186564666Y-83462190D01*
X186183714Y-83462190D01*
X187136095Y-83033619D02*
X187183714Y-82986000D01*
X187278952Y-82938380D01*
X187517047Y-82938380D01*
X187612285Y-82986000D01*
X187659904Y-83033619D01*
X187707523Y-83128857D01*
X187707523Y-83224095D01*
X187659904Y-83366952D01*
X187088476Y-83938380D01*
X187707523Y-83938380D01*
X188612285Y-82938380D02*
X188136095Y-82938380D01*
X188088476Y-83414571D01*
X188136095Y-83366952D01*
X188231333Y-83319333D01*
X188469428Y-83319333D01*
X188564666Y-83366952D01*
X188612285Y-83414571D01*
X188659904Y-83509809D01*
X188659904Y-83747904D01*
X188612285Y-83843142D01*
X188564666Y-83890761D01*
X188469428Y-83938380D01*
X188231333Y-83938380D01*
X188136095Y-83890761D01*
X188088476Y-83843142D01*
%TO.C,C16*%
X111182142Y-133782142D02*
X111134523Y-133829761D01*
X110991666Y-133877380D01*
X110896428Y-133877380D01*
X110753571Y-133829761D01*
X110658333Y-133734523D01*
X110610714Y-133639285D01*
X110563095Y-133448809D01*
X110563095Y-133305952D01*
X110610714Y-133115476D01*
X110658333Y-133020238D01*
X110753571Y-132925000D01*
X110896428Y-132877380D01*
X110991666Y-132877380D01*
X111134523Y-132925000D01*
X111182142Y-132972619D01*
X112134523Y-133877380D02*
X111563095Y-133877380D01*
X111848809Y-133877380D02*
X111848809Y-132877380D01*
X111753571Y-133020238D01*
X111658333Y-133115476D01*
X111563095Y-133163095D01*
X112991666Y-132877380D02*
X112801190Y-132877380D01*
X112705952Y-132925000D01*
X112658333Y-132972619D01*
X112563095Y-133115476D01*
X112515476Y-133305952D01*
X112515476Y-133686904D01*
X112563095Y-133782142D01*
X112610714Y-133829761D01*
X112705952Y-133877380D01*
X112896428Y-133877380D01*
X112991666Y-133829761D01*
X113039285Y-133782142D01*
X113086904Y-133686904D01*
X113086904Y-133448809D01*
X113039285Y-133353571D01*
X112991666Y-133305952D01*
X112896428Y-133258333D01*
X112705952Y-133258333D01*
X112610714Y-133305952D01*
X112563095Y-133353571D01*
X112515476Y-133448809D01*
%TO.C,J4*%
X202134007Y-54022692D02*
X202134007Y-54737641D01*
X202086343Y-54880631D01*
X201991017Y-54975957D01*
X201848027Y-55023621D01*
X201752700Y-55023621D01*
X203039609Y-54356335D02*
X203039609Y-55023621D01*
X202801293Y-53975028D02*
X202562976Y-54689978D01*
X203182599Y-54689978D01*
%TO.C,D1*%
X139723904Y-141128380D02*
X139723904Y-140128380D01*
X139962000Y-140128380D01*
X140104857Y-140176000D01*
X140200095Y-140271238D01*
X140247714Y-140366476D01*
X140295333Y-140556952D01*
X140295333Y-140699809D01*
X140247714Y-140890285D01*
X140200095Y-140985523D01*
X140104857Y-141080761D01*
X139962000Y-141128380D01*
X139723904Y-141128380D01*
X141247714Y-141128380D02*
X140676285Y-141128380D01*
X140962000Y-141128380D02*
X140962000Y-140128380D01*
X140866761Y-140271238D01*
X140771523Y-140366476D01*
X140676285Y-140414095D01*
%TO.C,F5*%
X157792666Y-124844371D02*
X157459333Y-124844371D01*
X157459333Y-125368180D02*
X157459333Y-124368180D01*
X157935523Y-124368180D01*
X158792666Y-124368180D02*
X158316476Y-124368180D01*
X158268857Y-124844371D01*
X158316476Y-124796752D01*
X158411714Y-124749133D01*
X158649809Y-124749133D01*
X158745047Y-124796752D01*
X158792666Y-124844371D01*
X158840285Y-124939609D01*
X158840285Y-125177704D01*
X158792666Y-125272942D01*
X158745047Y-125320561D01*
X158649809Y-125368180D01*
X158411714Y-125368180D01*
X158316476Y-125320561D01*
X158268857Y-125272942D01*
X154792666Y-126019180D02*
X155411714Y-126019180D01*
X155078380Y-126400133D01*
X155221238Y-126400133D01*
X155316476Y-126447752D01*
X155364095Y-126495371D01*
X155411714Y-126590609D01*
X155411714Y-126828704D01*
X155364095Y-126923942D01*
X155316476Y-126971561D01*
X155221238Y-127019180D01*
X154935523Y-127019180D01*
X154840285Y-126971561D01*
X154792666Y-126923942D01*
X156316476Y-126019180D02*
X155840285Y-126019180D01*
X155792666Y-126495371D01*
X155840285Y-126447752D01*
X155935523Y-126400133D01*
X156173619Y-126400133D01*
X156268857Y-126447752D01*
X156316476Y-126495371D01*
X156364095Y-126590609D01*
X156364095Y-126828704D01*
X156316476Y-126923942D01*
X156268857Y-126971561D01*
X156173619Y-127019180D01*
X155935523Y-127019180D01*
X155840285Y-126971561D01*
X155792666Y-126923942D01*
X157268857Y-126019180D02*
X156792666Y-126019180D01*
X156745047Y-126495371D01*
X156792666Y-126447752D01*
X156887904Y-126400133D01*
X157126000Y-126400133D01*
X157221238Y-126447752D01*
X157268857Y-126495371D01*
X157316476Y-126590609D01*
X157316476Y-126828704D01*
X157268857Y-126923942D01*
X157221238Y-126971561D01*
X157126000Y-127019180D01*
X156887904Y-127019180D01*
X156792666Y-126971561D01*
X156745047Y-126923942D01*
X157649809Y-126019180D02*
X158316476Y-126019180D01*
X157887904Y-127019180D01*
X158697428Y-126638228D02*
X159459333Y-126638228D01*
X160459333Y-127019180D02*
X159887904Y-127019180D01*
X160173619Y-127019180D02*
X160173619Y-126019180D01*
X160078380Y-126162038D01*
X159983142Y-126257276D01*
X159887904Y-126304895D01*
X161078380Y-126019180D02*
X161173619Y-126019180D01*
X161268857Y-126066800D01*
X161316476Y-126114419D01*
X161364095Y-126209657D01*
X161411714Y-126400133D01*
X161411714Y-126638228D01*
X161364095Y-126828704D01*
X161316476Y-126923942D01*
X161268857Y-126971561D01*
X161173619Y-127019180D01*
X161078380Y-127019180D01*
X160983142Y-126971561D01*
X160935523Y-126923942D01*
X160887904Y-126828704D01*
X160840285Y-126638228D01*
X160840285Y-126400133D01*
X160887904Y-126209657D01*
X160935523Y-126114419D01*
X160983142Y-126066800D01*
X161078380Y-126019180D01*
X151395000Y-124317380D02*
X151395000Y-124555476D01*
X151156904Y-124460238D02*
X151395000Y-124555476D01*
X151633095Y-124460238D01*
X151252142Y-124745952D02*
X151395000Y-124555476D01*
X151537857Y-124745952D01*
%TO.C,R7*%
X125932599Y-52210780D02*
X125599266Y-51734590D01*
X125361170Y-52210780D02*
X125361170Y-51210780D01*
X125742123Y-51210780D01*
X125837361Y-51258400D01*
X125884980Y-51306019D01*
X125932599Y-51401257D01*
X125932599Y-51544114D01*
X125884980Y-51639352D01*
X125837361Y-51686971D01*
X125742123Y-51734590D01*
X125361170Y-51734590D01*
X126265932Y-51210780D02*
X126932599Y-51210780D01*
X126504027Y-52210780D01*
%TO.C,R8*%
X119301933Y-52222780D02*
X118968600Y-51746590D01*
X118730504Y-52222780D02*
X118730504Y-51222780D01*
X119111457Y-51222780D01*
X119206695Y-51270400D01*
X119254314Y-51318019D01*
X119301933Y-51413257D01*
X119301933Y-51556114D01*
X119254314Y-51651352D01*
X119206695Y-51698971D01*
X119111457Y-51746590D01*
X118730504Y-51746590D01*
X119873361Y-51651352D02*
X119778123Y-51603733D01*
X119730504Y-51556114D01*
X119682885Y-51460876D01*
X119682885Y-51413257D01*
X119730504Y-51318019D01*
X119778123Y-51270400D01*
X119873361Y-51222780D01*
X120063838Y-51222780D01*
X120159076Y-51270400D01*
X120206695Y-51318019D01*
X120254314Y-51413257D01*
X120254314Y-51460876D01*
X120206695Y-51556114D01*
X120159076Y-51603733D01*
X120063838Y-51651352D01*
X119873361Y-51651352D01*
X119778123Y-51698971D01*
X119730504Y-51746590D01*
X119682885Y-51841828D01*
X119682885Y-52032304D01*
X119730504Y-52127542D01*
X119778123Y-52175161D01*
X119873361Y-52222780D01*
X120063838Y-52222780D01*
X120159076Y-52175161D01*
X120206695Y-52127542D01*
X120254314Y-52032304D01*
X120254314Y-51841828D01*
X120206695Y-51746590D01*
X120159076Y-51698971D01*
X120063838Y-51651352D01*
%TO.C,R32*%
X125321142Y-57308380D02*
X124987809Y-56832190D01*
X124749714Y-57308380D02*
X124749714Y-56308380D01*
X125130666Y-56308380D01*
X125225904Y-56356000D01*
X125273523Y-56403619D01*
X125321142Y-56498857D01*
X125321142Y-56641714D01*
X125273523Y-56736952D01*
X125225904Y-56784571D01*
X125130666Y-56832190D01*
X124749714Y-56832190D01*
X125654476Y-56308380D02*
X126273523Y-56308380D01*
X125940190Y-56689333D01*
X126083047Y-56689333D01*
X126178285Y-56736952D01*
X126225904Y-56784571D01*
X126273523Y-56879809D01*
X126273523Y-57117904D01*
X126225904Y-57213142D01*
X126178285Y-57260761D01*
X126083047Y-57308380D01*
X125797333Y-57308380D01*
X125702095Y-57260761D01*
X125654476Y-57213142D01*
X126654476Y-56403619D02*
X126702095Y-56356000D01*
X126797333Y-56308380D01*
X127035428Y-56308380D01*
X127130666Y-56356000D01*
X127178285Y-56403619D01*
X127225904Y-56498857D01*
X127225904Y-56594095D01*
X127178285Y-56736952D01*
X126606857Y-57308380D01*
X127225904Y-57308380D01*
%TO.C,C9*%
X142583333Y-54632142D02*
X142535714Y-54679761D01*
X142392857Y-54727380D01*
X142297619Y-54727380D01*
X142154761Y-54679761D01*
X142059523Y-54584523D01*
X142011904Y-54489285D01*
X141964285Y-54298809D01*
X141964285Y-54155952D01*
X142011904Y-53965476D01*
X142059523Y-53870238D01*
X142154761Y-53775000D01*
X142297619Y-53727380D01*
X142392857Y-53727380D01*
X142535714Y-53775000D01*
X142583333Y-53822619D01*
X143059523Y-54727380D02*
X143250000Y-54727380D01*
X143345238Y-54679761D01*
X143392857Y-54632142D01*
X143488095Y-54489285D01*
X143535714Y-54298809D01*
X143535714Y-53917857D01*
X143488095Y-53822619D01*
X143440476Y-53775000D01*
X143345238Y-53727380D01*
X143154761Y-53727380D01*
X143059523Y-53775000D01*
X143011904Y-53822619D01*
X142964285Y-53917857D01*
X142964285Y-54155952D01*
X143011904Y-54251190D01*
X143059523Y-54298809D01*
X143154761Y-54346428D01*
X143345238Y-54346428D01*
X143440476Y-54298809D01*
X143488095Y-54251190D01*
X143535714Y-54155952D01*
%TO.C,J7*%
X216208466Y-82404180D02*
X216208466Y-83118466D01*
X216160847Y-83261323D01*
X216065609Y-83356561D01*
X215922752Y-83404180D01*
X215827514Y-83404180D01*
X216589419Y-82404180D02*
X217256085Y-82404180D01*
X216827514Y-83404180D01*
%TO.C,K1*%
X76067380Y-127211495D02*
X75067380Y-127211495D01*
X76067380Y-126640066D02*
X75495952Y-127068638D01*
X75067380Y-126640066D02*
X75638809Y-127211495D01*
X76067380Y-125687685D02*
X76067380Y-126259114D01*
X76067380Y-125973400D02*
X75067380Y-125973400D01*
X75210238Y-126068638D01*
X75305476Y-126163876D01*
X75353095Y-126259114D01*
%TO.C,R31*%
X111315142Y-90771380D02*
X110981809Y-90295190D01*
X110743714Y-90771380D02*
X110743714Y-89771380D01*
X111124666Y-89771380D01*
X111219904Y-89819000D01*
X111267523Y-89866619D01*
X111315142Y-89961857D01*
X111315142Y-90104714D01*
X111267523Y-90199952D01*
X111219904Y-90247571D01*
X111124666Y-90295190D01*
X110743714Y-90295190D01*
X111648476Y-89771380D02*
X112267523Y-89771380D01*
X111934190Y-90152333D01*
X112077047Y-90152333D01*
X112172285Y-90199952D01*
X112219904Y-90247571D01*
X112267523Y-90342809D01*
X112267523Y-90580904D01*
X112219904Y-90676142D01*
X112172285Y-90723761D01*
X112077047Y-90771380D01*
X111791333Y-90771380D01*
X111696095Y-90723761D01*
X111648476Y-90676142D01*
X113219904Y-90771380D02*
X112648476Y-90771380D01*
X112934190Y-90771380D02*
X112934190Y-89771380D01*
X112838952Y-89914238D01*
X112743714Y-90009476D01*
X112648476Y-90057095D01*
%TO.C,C6*%
X110002333Y-107996142D02*
X109954714Y-108043761D01*
X109811857Y-108091380D01*
X109716619Y-108091380D01*
X109573761Y-108043761D01*
X109478523Y-107948523D01*
X109430904Y-107853285D01*
X109383285Y-107662809D01*
X109383285Y-107519952D01*
X109430904Y-107329476D01*
X109478523Y-107234238D01*
X109573761Y-107139000D01*
X109716619Y-107091380D01*
X109811857Y-107091380D01*
X109954714Y-107139000D01*
X110002333Y-107186619D01*
X110859476Y-107091380D02*
X110669000Y-107091380D01*
X110573761Y-107139000D01*
X110526142Y-107186619D01*
X110430904Y-107329476D01*
X110383285Y-107519952D01*
X110383285Y-107900904D01*
X110430904Y-107996142D01*
X110478523Y-108043761D01*
X110573761Y-108091380D01*
X110764238Y-108091380D01*
X110859476Y-108043761D01*
X110907095Y-107996142D01*
X110954714Y-107900904D01*
X110954714Y-107662809D01*
X110907095Y-107567571D01*
X110859476Y-107519952D01*
X110764238Y-107472333D01*
X110573761Y-107472333D01*
X110478523Y-107519952D01*
X110430904Y-107567571D01*
X110383285Y-107662809D01*
%TO.C,R1*%
X122678333Y-59637380D02*
X122345000Y-59161190D01*
X122106904Y-59637380D02*
X122106904Y-58637380D01*
X122487857Y-58637380D01*
X122583095Y-58685000D01*
X122630714Y-58732619D01*
X122678333Y-58827857D01*
X122678333Y-58970714D01*
X122630714Y-59065952D01*
X122583095Y-59113571D01*
X122487857Y-59161190D01*
X122106904Y-59161190D01*
X123630714Y-59637380D02*
X123059285Y-59637380D01*
X123345000Y-59637380D02*
X123345000Y-58637380D01*
X123249761Y-58780238D01*
X123154523Y-58875476D01*
X123059285Y-58923095D01*
%TO.C,R30*%
X199079142Y-88742380D02*
X198745809Y-88266190D01*
X198507714Y-88742380D02*
X198507714Y-87742380D01*
X198888666Y-87742380D01*
X198983904Y-87790000D01*
X199031523Y-87837619D01*
X199079142Y-87932857D01*
X199079142Y-88075714D01*
X199031523Y-88170952D01*
X198983904Y-88218571D01*
X198888666Y-88266190D01*
X198507714Y-88266190D01*
X199412476Y-87742380D02*
X200031523Y-87742380D01*
X199698190Y-88123333D01*
X199841047Y-88123333D01*
X199936285Y-88170952D01*
X199983904Y-88218571D01*
X200031523Y-88313809D01*
X200031523Y-88551904D01*
X199983904Y-88647142D01*
X199936285Y-88694761D01*
X199841047Y-88742380D01*
X199555333Y-88742380D01*
X199460095Y-88694761D01*
X199412476Y-88647142D01*
X200650571Y-87742380D02*
X200745809Y-87742380D01*
X200841047Y-87790000D01*
X200888666Y-87837619D01*
X200936285Y-87932857D01*
X200983904Y-88123333D01*
X200983904Y-88361428D01*
X200936285Y-88551904D01*
X200888666Y-88647142D01*
X200841047Y-88694761D01*
X200745809Y-88742380D01*
X200650571Y-88742380D01*
X200555333Y-88694761D01*
X200507714Y-88647142D01*
X200460095Y-88551904D01*
X200412476Y-88361428D01*
X200412476Y-88123333D01*
X200460095Y-87932857D01*
X200507714Y-87837619D01*
X200555333Y-87790000D01*
X200650571Y-87742380D01*
%TO.C,D7*%
X195430904Y-112964380D02*
X195430904Y-111964380D01*
X195669000Y-111964380D01*
X195811857Y-112012000D01*
X195907095Y-112107238D01*
X195954714Y-112202476D01*
X196002333Y-112392952D01*
X196002333Y-112535809D01*
X195954714Y-112726285D01*
X195907095Y-112821523D01*
X195811857Y-112916761D01*
X195669000Y-112964380D01*
X195430904Y-112964380D01*
X196335666Y-111964380D02*
X197002333Y-111964380D01*
X196573761Y-112964380D01*
%TO.C,R27*%
X186755142Y-91270380D02*
X186421809Y-90794190D01*
X186183714Y-91270380D02*
X186183714Y-90270380D01*
X186564666Y-90270380D01*
X186659904Y-90318000D01*
X186707523Y-90365619D01*
X186755142Y-90460857D01*
X186755142Y-90603714D01*
X186707523Y-90698952D01*
X186659904Y-90746571D01*
X186564666Y-90794190D01*
X186183714Y-90794190D01*
X187136095Y-90365619D02*
X187183714Y-90318000D01*
X187278952Y-90270380D01*
X187517047Y-90270380D01*
X187612285Y-90318000D01*
X187659904Y-90365619D01*
X187707523Y-90460857D01*
X187707523Y-90556095D01*
X187659904Y-90698952D01*
X187088476Y-91270380D01*
X187707523Y-91270380D01*
X188040857Y-90270380D02*
X188707523Y-90270380D01*
X188278952Y-91270380D01*
%TO.C,R39*%
X196291142Y-65676380D02*
X195957809Y-65200190D01*
X195719714Y-65676380D02*
X195719714Y-64676380D01*
X196100666Y-64676380D01*
X196195904Y-64724000D01*
X196243523Y-64771619D01*
X196291142Y-64866857D01*
X196291142Y-65009714D01*
X196243523Y-65104952D01*
X196195904Y-65152571D01*
X196100666Y-65200190D01*
X195719714Y-65200190D01*
X196624476Y-64676380D02*
X197243523Y-64676380D01*
X196910190Y-65057333D01*
X197053047Y-65057333D01*
X197148285Y-65104952D01*
X197195904Y-65152571D01*
X197243523Y-65247809D01*
X197243523Y-65485904D01*
X197195904Y-65581142D01*
X197148285Y-65628761D01*
X197053047Y-65676380D01*
X196767333Y-65676380D01*
X196672095Y-65628761D01*
X196624476Y-65581142D01*
X197719714Y-65676380D02*
X197910190Y-65676380D01*
X198005428Y-65628761D01*
X198053047Y-65581142D01*
X198148285Y-65438285D01*
X198195904Y-65247809D01*
X198195904Y-64866857D01*
X198148285Y-64771619D01*
X198100666Y-64724000D01*
X198005428Y-64676380D01*
X197814952Y-64676380D01*
X197719714Y-64724000D01*
X197672095Y-64771619D01*
X197624476Y-64866857D01*
X197624476Y-65104952D01*
X197672095Y-65200190D01*
X197719714Y-65247809D01*
X197814952Y-65295428D01*
X198005428Y-65295428D01*
X198100666Y-65247809D01*
X198148285Y-65200190D01*
X198195904Y-65104952D01*
%TO.C,R11*%
X195721142Y-101768380D02*
X195387809Y-101292190D01*
X195149714Y-101768380D02*
X195149714Y-100768380D01*
X195530666Y-100768380D01*
X195625904Y-100816000D01*
X195673523Y-100863619D01*
X195721142Y-100958857D01*
X195721142Y-101101714D01*
X195673523Y-101196952D01*
X195625904Y-101244571D01*
X195530666Y-101292190D01*
X195149714Y-101292190D01*
X196673523Y-101768380D02*
X196102095Y-101768380D01*
X196387809Y-101768380D02*
X196387809Y-100768380D01*
X196292571Y-100911238D01*
X196197333Y-101006476D01*
X196102095Y-101054095D01*
X197625904Y-101768380D02*
X197054476Y-101768380D01*
X197340190Y-101768380D02*
X197340190Y-100768380D01*
X197244952Y-100911238D01*
X197149714Y-101006476D01*
X197054476Y-101054095D01*
%TO.C,K3*%
X90196904Y-57057380D02*
X90196904Y-56057380D01*
X90768333Y-57057380D02*
X90339761Y-56485952D01*
X90768333Y-56057380D02*
X90196904Y-56628809D01*
X91101666Y-56057380D02*
X91720714Y-56057380D01*
X91387380Y-56438333D01*
X91530238Y-56438333D01*
X91625476Y-56485952D01*
X91673095Y-56533571D01*
X91720714Y-56628809D01*
X91720714Y-56866904D01*
X91673095Y-56962142D01*
X91625476Y-57009761D01*
X91530238Y-57057380D01*
X91244523Y-57057380D01*
X91149285Y-57009761D01*
X91101666Y-56962142D01*
%TO.C,U1*%
X165025095Y-67994380D02*
X165025095Y-68803904D01*
X165072714Y-68899142D01*
X165120333Y-68946761D01*
X165215571Y-68994380D01*
X165406047Y-68994380D01*
X165501285Y-68946761D01*
X165548904Y-68899142D01*
X165596523Y-68803904D01*
X165596523Y-67994380D01*
X166596523Y-68994380D02*
X166025095Y-68994380D01*
X166310809Y-68994380D02*
X166310809Y-67994380D01*
X166215571Y-68137238D01*
X166120333Y-68232476D01*
X166025095Y-68280095D01*
%TO.C,D6*%
X80185104Y-53830780D02*
X80185104Y-52830780D01*
X80423200Y-52830780D01*
X80566057Y-52878400D01*
X80661295Y-52973638D01*
X80708914Y-53068876D01*
X80756533Y-53259352D01*
X80756533Y-53402209D01*
X80708914Y-53592685D01*
X80661295Y-53687923D01*
X80566057Y-53783161D01*
X80423200Y-53830780D01*
X80185104Y-53830780D01*
X81613676Y-52830780D02*
X81423200Y-52830780D01*
X81327961Y-52878400D01*
X81280342Y-52926019D01*
X81185104Y-53068876D01*
X81137485Y-53259352D01*
X81137485Y-53640304D01*
X81185104Y-53735542D01*
X81232723Y-53783161D01*
X81327961Y-53830780D01*
X81518438Y-53830780D01*
X81613676Y-53783161D01*
X81661295Y-53735542D01*
X81708914Y-53640304D01*
X81708914Y-53402209D01*
X81661295Y-53306971D01*
X81613676Y-53259352D01*
X81518438Y-53211733D01*
X81327961Y-53211733D01*
X81232723Y-53259352D01*
X81185104Y-53306971D01*
X81137485Y-53402209D01*
%TO.C,R33*%
X90080142Y-47524380D02*
X89746809Y-47048190D01*
X89508714Y-47524380D02*
X89508714Y-46524380D01*
X89889666Y-46524380D01*
X89984904Y-46572000D01*
X90032523Y-46619619D01*
X90080142Y-46714857D01*
X90080142Y-46857714D01*
X90032523Y-46952952D01*
X89984904Y-47000571D01*
X89889666Y-47048190D01*
X89508714Y-47048190D01*
X90413476Y-46524380D02*
X91032523Y-46524380D01*
X90699190Y-46905333D01*
X90842047Y-46905333D01*
X90937285Y-46952952D01*
X90984904Y-47000571D01*
X91032523Y-47095809D01*
X91032523Y-47333904D01*
X90984904Y-47429142D01*
X90937285Y-47476761D01*
X90842047Y-47524380D01*
X90556333Y-47524380D01*
X90461095Y-47476761D01*
X90413476Y-47429142D01*
X91365857Y-46524380D02*
X91984904Y-46524380D01*
X91651571Y-46905333D01*
X91794428Y-46905333D01*
X91889666Y-46952952D01*
X91937285Y-47000571D01*
X91984904Y-47095809D01*
X91984904Y-47333904D01*
X91937285Y-47429142D01*
X91889666Y-47476761D01*
X91794428Y-47524380D01*
X91508714Y-47524380D01*
X91413476Y-47476761D01*
X91365857Y-47429142D01*
%TO.C,D3*%
X197198904Y-131201380D02*
X197198904Y-130201380D01*
X197437000Y-130201380D01*
X197579857Y-130249000D01*
X197675095Y-130344238D01*
X197722714Y-130439476D01*
X197770333Y-130629952D01*
X197770333Y-130772809D01*
X197722714Y-130963285D01*
X197675095Y-131058523D01*
X197579857Y-131153761D01*
X197437000Y-131201380D01*
X197198904Y-131201380D01*
X198103666Y-130201380D02*
X198722714Y-130201380D01*
X198389380Y-130582333D01*
X198532238Y-130582333D01*
X198627476Y-130629952D01*
X198675095Y-130677571D01*
X198722714Y-130772809D01*
X198722714Y-131010904D01*
X198675095Y-131106142D01*
X198627476Y-131153761D01*
X198532238Y-131201380D01*
X198246523Y-131201380D01*
X198151285Y-131153761D01*
X198103666Y-131106142D01*
%TO.C,D17*%
X186932380Y-55177185D02*
X185932380Y-55177185D01*
X185932380Y-54939090D01*
X185980000Y-54796233D01*
X186075238Y-54700995D01*
X186170476Y-54653376D01*
X186360952Y-54605757D01*
X186503809Y-54605757D01*
X186694285Y-54653376D01*
X186789523Y-54700995D01*
X186884761Y-54796233D01*
X186932380Y-54939090D01*
X186932380Y-55177185D01*
X186932380Y-53653376D02*
X186932380Y-54224804D01*
X186932380Y-53939090D02*
X185932380Y-53939090D01*
X186075238Y-54034328D01*
X186170476Y-54129566D01*
X186218095Y-54224804D01*
X185932380Y-53320042D02*
X185932380Y-52653376D01*
X186932380Y-53081947D01*
%TO.C,R28*%
X199079142Y-91186380D02*
X198745809Y-90710190D01*
X198507714Y-91186380D02*
X198507714Y-90186380D01*
X198888666Y-90186380D01*
X198983904Y-90234000D01*
X199031523Y-90281619D01*
X199079142Y-90376857D01*
X199079142Y-90519714D01*
X199031523Y-90614952D01*
X198983904Y-90662571D01*
X198888666Y-90710190D01*
X198507714Y-90710190D01*
X199460095Y-90281619D02*
X199507714Y-90234000D01*
X199602952Y-90186380D01*
X199841047Y-90186380D01*
X199936285Y-90234000D01*
X199983904Y-90281619D01*
X200031523Y-90376857D01*
X200031523Y-90472095D01*
X199983904Y-90614952D01*
X199412476Y-91186380D01*
X200031523Y-91186380D01*
X200602952Y-90614952D02*
X200507714Y-90567333D01*
X200460095Y-90519714D01*
X200412476Y-90424476D01*
X200412476Y-90376857D01*
X200460095Y-90281619D01*
X200507714Y-90234000D01*
X200602952Y-90186380D01*
X200793428Y-90186380D01*
X200888666Y-90234000D01*
X200936285Y-90281619D01*
X200983904Y-90376857D01*
X200983904Y-90424476D01*
X200936285Y-90519714D01*
X200888666Y-90567333D01*
X200793428Y-90614952D01*
X200602952Y-90614952D01*
X200507714Y-90662571D01*
X200460095Y-90710190D01*
X200412476Y-90805428D01*
X200412476Y-90995904D01*
X200460095Y-91091142D01*
X200507714Y-91138761D01*
X200602952Y-91186380D01*
X200793428Y-91186380D01*
X200888666Y-91138761D01*
X200936285Y-91091142D01*
X200983904Y-90995904D01*
X200983904Y-90805428D01*
X200936285Y-90710190D01*
X200888666Y-90662571D01*
X200793428Y-90614952D01*
%TO.C,IC3*%
X124511313Y-48308790D02*
X123511313Y-48308790D01*
X124416075Y-47261171D02*
X124463694Y-47308790D01*
X124511313Y-47451647D01*
X124511313Y-47546885D01*
X124463694Y-47689742D01*
X124368456Y-47784980D01*
X124273218Y-47832600D01*
X124082742Y-47880219D01*
X123939885Y-47880219D01*
X123749409Y-47832600D01*
X123654171Y-47784980D01*
X123558933Y-47689742D01*
X123511313Y-47546885D01*
X123511313Y-47451647D01*
X123558933Y-47308790D01*
X123606552Y-47261171D01*
X123511313Y-46927838D02*
X123511313Y-46308790D01*
X123892266Y-46642123D01*
X123892266Y-46499266D01*
X123939885Y-46404028D01*
X123987504Y-46356409D01*
X124082742Y-46308790D01*
X124320837Y-46308790D01*
X124416075Y-46356409D01*
X124463694Y-46404028D01*
X124511313Y-46499266D01*
X124511313Y-46784980D01*
X124463694Y-46880219D01*
X124416075Y-46927838D01*
%TO.C,K2*%
X90076904Y-72002380D02*
X90076904Y-71002380D01*
X90648333Y-72002380D02*
X90219761Y-71430952D01*
X90648333Y-71002380D02*
X90076904Y-71573809D01*
X91029285Y-71097619D02*
X91076904Y-71050000D01*
X91172142Y-71002380D01*
X91410238Y-71002380D01*
X91505476Y-71050000D01*
X91553095Y-71097619D01*
X91600714Y-71192857D01*
X91600714Y-71288095D01*
X91553095Y-71430952D01*
X90981666Y-72002380D01*
X91600714Y-72002380D01*
%TO.C,C13*%
X117782142Y-78887857D02*
X117829761Y-78935476D01*
X117877380Y-79078333D01*
X117877380Y-79173571D01*
X117829761Y-79316428D01*
X117734523Y-79411666D01*
X117639285Y-79459285D01*
X117448809Y-79506904D01*
X117305952Y-79506904D01*
X117115476Y-79459285D01*
X117020238Y-79411666D01*
X116925000Y-79316428D01*
X116877380Y-79173571D01*
X116877380Y-79078333D01*
X116925000Y-78935476D01*
X116972619Y-78887857D01*
X117877380Y-77935476D02*
X117877380Y-78506904D01*
X117877380Y-78221190D02*
X116877380Y-78221190D01*
X117020238Y-78316428D01*
X117115476Y-78411666D01*
X117163095Y-78506904D01*
X116877380Y-77602142D02*
X116877380Y-76983095D01*
X117258333Y-77316428D01*
X117258333Y-77173571D01*
X117305952Y-77078333D01*
X117353571Y-77030714D01*
X117448809Y-76983095D01*
X117686904Y-76983095D01*
X117782142Y-77030714D01*
X117829761Y-77078333D01*
X117877380Y-77173571D01*
X117877380Y-77459285D01*
X117829761Y-77554523D01*
X117782142Y-77602142D01*
%TO.C,F4*%
X157792666Y-104701371D02*
X157459333Y-104701371D01*
X157459333Y-105225180D02*
X157459333Y-104225180D01*
X157935523Y-104225180D01*
X158745047Y-104558514D02*
X158745047Y-105225180D01*
X158506952Y-104177561D02*
X158268857Y-104891847D01*
X158887904Y-104891847D01*
X154792666Y-105749180D02*
X155411714Y-105749180D01*
X155078380Y-106130133D01*
X155221238Y-106130133D01*
X155316476Y-106177752D01*
X155364095Y-106225371D01*
X155411714Y-106320609D01*
X155411714Y-106558704D01*
X155364095Y-106653942D01*
X155316476Y-106701561D01*
X155221238Y-106749180D01*
X154935523Y-106749180D01*
X154840285Y-106701561D01*
X154792666Y-106653942D01*
X156316476Y-105749180D02*
X155840285Y-105749180D01*
X155792666Y-106225371D01*
X155840285Y-106177752D01*
X155935523Y-106130133D01*
X156173619Y-106130133D01*
X156268857Y-106177752D01*
X156316476Y-106225371D01*
X156364095Y-106320609D01*
X156364095Y-106558704D01*
X156316476Y-106653942D01*
X156268857Y-106701561D01*
X156173619Y-106749180D01*
X155935523Y-106749180D01*
X155840285Y-106701561D01*
X155792666Y-106653942D01*
X157268857Y-105749180D02*
X156792666Y-105749180D01*
X156745047Y-106225371D01*
X156792666Y-106177752D01*
X156887904Y-106130133D01*
X157126000Y-106130133D01*
X157221238Y-106177752D01*
X157268857Y-106225371D01*
X157316476Y-106320609D01*
X157316476Y-106558704D01*
X157268857Y-106653942D01*
X157221238Y-106701561D01*
X157126000Y-106749180D01*
X156887904Y-106749180D01*
X156792666Y-106701561D01*
X156745047Y-106653942D01*
X157649809Y-105749180D02*
X158316476Y-105749180D01*
X157887904Y-106749180D01*
X158697428Y-106368228D02*
X159459333Y-106368228D01*
X160459333Y-106749180D02*
X159887904Y-106749180D01*
X160173619Y-106749180D02*
X160173619Y-105749180D01*
X160078380Y-105892038D01*
X159983142Y-105987276D01*
X159887904Y-106034895D01*
X161078380Y-105749180D02*
X161173619Y-105749180D01*
X161268857Y-105796800D01*
X161316476Y-105844419D01*
X161364095Y-105939657D01*
X161411714Y-106130133D01*
X161411714Y-106368228D01*
X161364095Y-106558704D01*
X161316476Y-106653942D01*
X161268857Y-106701561D01*
X161173619Y-106749180D01*
X161078380Y-106749180D01*
X160983142Y-106701561D01*
X160935523Y-106653942D01*
X160887904Y-106558704D01*
X160840285Y-106368228D01*
X160840285Y-106130133D01*
X160887904Y-105939657D01*
X160935523Y-105844419D01*
X160983142Y-105796800D01*
X161078380Y-105749180D01*
X151395000Y-104047380D02*
X151395000Y-104285476D01*
X151156904Y-104190238D02*
X151395000Y-104285476D01*
X151633095Y-104190238D01*
X151252142Y-104475952D02*
X151395000Y-104285476D01*
X151537857Y-104475952D01*
%TO.C,R35*%
X173472142Y-120857380D02*
X173138809Y-120381190D01*
X172900714Y-120857380D02*
X172900714Y-119857380D01*
X173281666Y-119857380D01*
X173376904Y-119905000D01*
X173424523Y-119952619D01*
X173472142Y-120047857D01*
X173472142Y-120190714D01*
X173424523Y-120285952D01*
X173376904Y-120333571D01*
X173281666Y-120381190D01*
X172900714Y-120381190D01*
X173805476Y-119857380D02*
X174424523Y-119857380D01*
X174091190Y-120238333D01*
X174234047Y-120238333D01*
X174329285Y-120285952D01*
X174376904Y-120333571D01*
X174424523Y-120428809D01*
X174424523Y-120666904D01*
X174376904Y-120762142D01*
X174329285Y-120809761D01*
X174234047Y-120857380D01*
X173948333Y-120857380D01*
X173853095Y-120809761D01*
X173805476Y-120762142D01*
X175329285Y-119857380D02*
X174853095Y-119857380D01*
X174805476Y-120333571D01*
X174853095Y-120285952D01*
X174948333Y-120238333D01*
X175186428Y-120238333D01*
X175281666Y-120285952D01*
X175329285Y-120333571D01*
X175376904Y-120428809D01*
X175376904Y-120666904D01*
X175329285Y-120762142D01*
X175281666Y-120809761D01*
X175186428Y-120857380D01*
X174948333Y-120857380D01*
X174853095Y-120809761D01*
X174805476Y-120762142D01*
%TO.C,R34*%
X173541142Y-101245380D02*
X173207809Y-100769190D01*
X172969714Y-101245380D02*
X172969714Y-100245380D01*
X173350666Y-100245380D01*
X173445904Y-100293000D01*
X173493523Y-100340619D01*
X173541142Y-100435857D01*
X173541142Y-100578714D01*
X173493523Y-100673952D01*
X173445904Y-100721571D01*
X173350666Y-100769190D01*
X172969714Y-100769190D01*
X173874476Y-100245380D02*
X174493523Y-100245380D01*
X174160190Y-100626333D01*
X174303047Y-100626333D01*
X174398285Y-100673952D01*
X174445904Y-100721571D01*
X174493523Y-100816809D01*
X174493523Y-101054904D01*
X174445904Y-101150142D01*
X174398285Y-101197761D01*
X174303047Y-101245380D01*
X174017333Y-101245380D01*
X173922095Y-101197761D01*
X173874476Y-101150142D01*
X175350666Y-100578714D02*
X175350666Y-101245380D01*
X175112571Y-100197761D02*
X174874476Y-100912047D01*
X175493523Y-100912047D01*
%TO.C,C12*%
X109932142Y-145532142D02*
X109884523Y-145579761D01*
X109741666Y-145627380D01*
X109646428Y-145627380D01*
X109503571Y-145579761D01*
X109408333Y-145484523D01*
X109360714Y-145389285D01*
X109313095Y-145198809D01*
X109313095Y-145055952D01*
X109360714Y-144865476D01*
X109408333Y-144770238D01*
X109503571Y-144675000D01*
X109646428Y-144627380D01*
X109741666Y-144627380D01*
X109884523Y-144675000D01*
X109932142Y-144722619D01*
X110884523Y-145627380D02*
X110313095Y-145627380D01*
X110598809Y-145627380D02*
X110598809Y-144627380D01*
X110503571Y-144770238D01*
X110408333Y-144865476D01*
X110313095Y-144913095D01*
X111265476Y-144722619D02*
X111313095Y-144675000D01*
X111408333Y-144627380D01*
X111646428Y-144627380D01*
X111741666Y-144675000D01*
X111789285Y-144722619D01*
X111836904Y-144817857D01*
X111836904Y-144913095D01*
X111789285Y-145055952D01*
X111217857Y-145627380D01*
X111836904Y-145627380D01*
%TO.C,JP1*%
X210085466Y-46065180D02*
X210085466Y-46779466D01*
X210037847Y-46922323D01*
X209942609Y-47017561D01*
X209799752Y-47065180D01*
X209704514Y-47065180D01*
X210561657Y-47065180D02*
X210561657Y-46065180D01*
X210942609Y-46065180D01*
X211037847Y-46112800D01*
X211085466Y-46160419D01*
X211133085Y-46255657D01*
X211133085Y-46398514D01*
X211085466Y-46493752D01*
X211037847Y-46541371D01*
X210942609Y-46588990D01*
X210561657Y-46588990D01*
X212085466Y-47065180D02*
X211514038Y-47065180D01*
X211799752Y-47065180D02*
X211799752Y-46065180D01*
X211704514Y-46208038D01*
X211609276Y-46303276D01*
X211514038Y-46350895D01*
%TO.C,U2*%
X179569095Y-147052380D02*
X179569095Y-147861904D01*
X179616714Y-147957142D01*
X179664333Y-148004761D01*
X179759571Y-148052380D01*
X179950047Y-148052380D01*
X180045285Y-148004761D01*
X180092904Y-147957142D01*
X180140523Y-147861904D01*
X180140523Y-147052380D01*
X180569095Y-147147619D02*
X180616714Y-147100000D01*
X180711952Y-147052380D01*
X180950047Y-147052380D01*
X181045285Y-147100000D01*
X181092904Y-147147619D01*
X181140523Y-147242857D01*
X181140523Y-147338095D01*
X181092904Y-147480952D01*
X180521476Y-148052380D01*
X181140523Y-148052380D01*
X179569000Y-150087380D02*
X179569000Y-150325476D01*
X179330904Y-150230238D02*
X179569000Y-150325476D01*
X179807095Y-150230238D01*
X179426142Y-150515952D02*
X179569000Y-150325476D01*
X179711857Y-150515952D01*
X179569000Y-150087380D02*
X179569000Y-150325476D01*
X179330904Y-150230238D02*
X179569000Y-150325476D01*
X179807095Y-150230238D01*
X179426142Y-150515952D02*
X179569000Y-150325476D01*
X179711857Y-150515952D01*
%TO.C,IC4*%
X144439311Y-48181790D02*
X143439311Y-48181790D01*
X144344073Y-47134171D02*
X144391692Y-47181790D01*
X144439311Y-47324647D01*
X144439311Y-47419885D01*
X144391692Y-47562742D01*
X144296454Y-47657980D01*
X144201216Y-47705600D01*
X144010740Y-47753219D01*
X143867883Y-47753219D01*
X143677407Y-47705600D01*
X143582169Y-47657980D01*
X143486931Y-47562742D01*
X143439311Y-47419885D01*
X143439311Y-47324647D01*
X143486931Y-47181790D01*
X143534550Y-47134171D01*
X143772645Y-46277028D02*
X144439311Y-46277028D01*
X143391692Y-46515123D02*
X144105978Y-46753219D01*
X144105978Y-46134171D01*
%TO.C,C18*%
X122382142Y-137432142D02*
X122334523Y-137479761D01*
X122191666Y-137527380D01*
X122096428Y-137527380D01*
X121953571Y-137479761D01*
X121858333Y-137384523D01*
X121810714Y-137289285D01*
X121763095Y-137098809D01*
X121763095Y-136955952D01*
X121810714Y-136765476D01*
X121858333Y-136670238D01*
X121953571Y-136575000D01*
X122096428Y-136527380D01*
X122191666Y-136527380D01*
X122334523Y-136575000D01*
X122382142Y-136622619D01*
X123334523Y-137527380D02*
X122763095Y-137527380D01*
X123048809Y-137527380D02*
X123048809Y-136527380D01*
X122953571Y-136670238D01*
X122858333Y-136765476D01*
X122763095Y-136813095D01*
X123905952Y-136955952D02*
X123810714Y-136908333D01*
X123763095Y-136860714D01*
X123715476Y-136765476D01*
X123715476Y-136717857D01*
X123763095Y-136622619D01*
X123810714Y-136575000D01*
X123905952Y-136527380D01*
X124096428Y-136527380D01*
X124191666Y-136575000D01*
X124239285Y-136622619D01*
X124286904Y-136717857D01*
X124286904Y-136765476D01*
X124239285Y-136860714D01*
X124191666Y-136908333D01*
X124096428Y-136955952D01*
X123905952Y-136955952D01*
X123810714Y-137003571D01*
X123763095Y-137051190D01*
X123715476Y-137146428D01*
X123715476Y-137336904D01*
X123763095Y-137432142D01*
X123810714Y-137479761D01*
X123905952Y-137527380D01*
X124096428Y-137527380D01*
X124191666Y-137479761D01*
X124239285Y-137432142D01*
X124286904Y-137336904D01*
X124286904Y-137146428D01*
X124239285Y-137051190D01*
X124191666Y-137003571D01*
X124096428Y-136955952D01*
%TO.C,R22*%
X199079142Y-81537380D02*
X198745809Y-81061190D01*
X198507714Y-81537380D02*
X198507714Y-80537380D01*
X198888666Y-80537380D01*
X198983904Y-80585000D01*
X199031523Y-80632619D01*
X199079142Y-80727857D01*
X199079142Y-80870714D01*
X199031523Y-80965952D01*
X198983904Y-81013571D01*
X198888666Y-81061190D01*
X198507714Y-81061190D01*
X199460095Y-80632619D02*
X199507714Y-80585000D01*
X199602952Y-80537380D01*
X199841047Y-80537380D01*
X199936285Y-80585000D01*
X199983904Y-80632619D01*
X200031523Y-80727857D01*
X200031523Y-80823095D01*
X199983904Y-80965952D01*
X199412476Y-81537380D01*
X200031523Y-81537380D01*
X200412476Y-80632619D02*
X200460095Y-80585000D01*
X200555333Y-80537380D01*
X200793428Y-80537380D01*
X200888666Y-80585000D01*
X200936285Y-80632619D01*
X200983904Y-80727857D01*
X200983904Y-80823095D01*
X200936285Y-80965952D01*
X200364857Y-81537380D01*
X200983904Y-81537380D01*
%TO.C,C10*%
X125432142Y-121432142D02*
X125384523Y-121479761D01*
X125241666Y-121527380D01*
X125146428Y-121527380D01*
X125003571Y-121479761D01*
X124908333Y-121384523D01*
X124860714Y-121289285D01*
X124813095Y-121098809D01*
X124813095Y-120955952D01*
X124860714Y-120765476D01*
X124908333Y-120670238D01*
X125003571Y-120575000D01*
X125146428Y-120527380D01*
X125241666Y-120527380D01*
X125384523Y-120575000D01*
X125432142Y-120622619D01*
X126384523Y-121527380D02*
X125813095Y-121527380D01*
X126098809Y-121527380D02*
X126098809Y-120527380D01*
X126003571Y-120670238D01*
X125908333Y-120765476D01*
X125813095Y-120813095D01*
X127003571Y-120527380D02*
X127098809Y-120527380D01*
X127194047Y-120575000D01*
X127241666Y-120622619D01*
X127289285Y-120717857D01*
X127336904Y-120908333D01*
X127336904Y-121146428D01*
X127289285Y-121336904D01*
X127241666Y-121432142D01*
X127194047Y-121479761D01*
X127098809Y-121527380D01*
X127003571Y-121527380D01*
X126908333Y-121479761D01*
X126860714Y-121432142D01*
X126813095Y-121336904D01*
X126765476Y-121146428D01*
X126765476Y-120908333D01*
X126813095Y-120717857D01*
X126860714Y-120622619D01*
X126908333Y-120575000D01*
X127003571Y-120527380D01*
%TO.C,R29*%
X186755142Y-88826380D02*
X186421809Y-88350190D01*
X186183714Y-88826380D02*
X186183714Y-87826380D01*
X186564666Y-87826380D01*
X186659904Y-87874000D01*
X186707523Y-87921619D01*
X186755142Y-88016857D01*
X186755142Y-88159714D01*
X186707523Y-88254952D01*
X186659904Y-88302571D01*
X186564666Y-88350190D01*
X186183714Y-88350190D01*
X187136095Y-87921619D02*
X187183714Y-87874000D01*
X187278952Y-87826380D01*
X187517047Y-87826380D01*
X187612285Y-87874000D01*
X187659904Y-87921619D01*
X187707523Y-88016857D01*
X187707523Y-88112095D01*
X187659904Y-88254952D01*
X187088476Y-88826380D01*
X187707523Y-88826380D01*
X188183714Y-88826380D02*
X188374190Y-88826380D01*
X188469428Y-88778761D01*
X188517047Y-88731142D01*
X188612285Y-88588285D01*
X188659904Y-88397809D01*
X188659904Y-88016857D01*
X188612285Y-87921619D01*
X188564666Y-87874000D01*
X188469428Y-87826380D01*
X188278952Y-87826380D01*
X188183714Y-87874000D01*
X188136095Y-87921619D01*
X188088476Y-88016857D01*
X188088476Y-88254952D01*
X188136095Y-88350190D01*
X188183714Y-88397809D01*
X188278952Y-88445428D01*
X188469428Y-88445428D01*
X188564666Y-88397809D01*
X188612285Y-88350190D01*
X188659904Y-88254952D01*
%TO.C,D4*%
X100943304Y-130208580D02*
X100943304Y-129208580D01*
X101181400Y-129208580D01*
X101324257Y-129256200D01*
X101419495Y-129351438D01*
X101467114Y-129446676D01*
X101514733Y-129637152D01*
X101514733Y-129780009D01*
X101467114Y-129970485D01*
X101419495Y-130065723D01*
X101324257Y-130160961D01*
X101181400Y-130208580D01*
X100943304Y-130208580D01*
X102371876Y-129541914D02*
X102371876Y-130208580D01*
X102133780Y-129160961D02*
X101895685Y-129875247D01*
X102514733Y-129875247D01*
%TO.C,R16*%
X189191342Y-70503380D02*
X188858009Y-70027190D01*
X188619914Y-70503380D02*
X188619914Y-69503380D01*
X189000866Y-69503380D01*
X189096104Y-69551000D01*
X189143723Y-69598619D01*
X189191342Y-69693857D01*
X189191342Y-69836714D01*
X189143723Y-69931952D01*
X189096104Y-69979571D01*
X189000866Y-70027190D01*
X188619914Y-70027190D01*
X190143723Y-70503380D02*
X189572295Y-70503380D01*
X189858009Y-70503380D02*
X189858009Y-69503380D01*
X189762771Y-69646238D01*
X189667533Y-69741476D01*
X189572295Y-69789095D01*
X191000866Y-69503380D02*
X190810390Y-69503380D01*
X190715152Y-69551000D01*
X190667533Y-69598619D01*
X190572295Y-69741476D01*
X190524676Y-69931952D01*
X190524676Y-70312904D01*
X190572295Y-70408142D01*
X190619914Y-70455761D01*
X190715152Y-70503380D01*
X190905628Y-70503380D01*
X191000866Y-70455761D01*
X191048485Y-70408142D01*
X191096104Y-70312904D01*
X191096104Y-70074809D01*
X191048485Y-69979571D01*
X191000866Y-69931952D01*
X190905628Y-69884333D01*
X190715152Y-69884333D01*
X190619914Y-69931952D01*
X190572295Y-69979571D01*
X190524676Y-70074809D01*
%TO.C,C14*%
X135982142Y-122267857D02*
X136029761Y-122315476D01*
X136077380Y-122458333D01*
X136077380Y-122553571D01*
X136029761Y-122696428D01*
X135934523Y-122791666D01*
X135839285Y-122839285D01*
X135648809Y-122886904D01*
X135505952Y-122886904D01*
X135315476Y-122839285D01*
X135220238Y-122791666D01*
X135125000Y-122696428D01*
X135077380Y-122553571D01*
X135077380Y-122458333D01*
X135125000Y-122315476D01*
X135172619Y-122267857D01*
X136077380Y-121315476D02*
X136077380Y-121886904D01*
X136077380Y-121601190D02*
X135077380Y-121601190D01*
X135220238Y-121696428D01*
X135315476Y-121791666D01*
X135363095Y-121886904D01*
X135410714Y-120458333D02*
X136077380Y-120458333D01*
X135029761Y-120696428D02*
X135744047Y-120934523D01*
X135744047Y-120315476D01*
%TO.C,J3*%
X175052166Y-130540179D02*
X175052166Y-131254465D01*
X175004547Y-131397322D01*
X174909309Y-131492560D01*
X174766452Y-131540179D01*
X174671214Y-131540179D01*
X175433119Y-130540179D02*
X176052166Y-130540179D01*
X175718833Y-130921132D01*
X175861690Y-130921132D01*
X175956928Y-130968751D01*
X176004547Y-131016370D01*
X176052166Y-131111608D01*
X176052166Y-131349703D01*
X176004547Y-131444941D01*
X175956928Y-131492560D01*
X175861690Y-131540179D01*
X175575976Y-131540179D01*
X175480738Y-131492560D01*
X175433119Y-131444941D01*
%TO.C,IC5*%
X151208980Y-48054790D02*
X150208980Y-48054790D01*
X151113742Y-47007171D02*
X151161361Y-47054790D01*
X151208980Y-47197647D01*
X151208980Y-47292885D01*
X151161361Y-47435742D01*
X151066123Y-47530980D01*
X150970885Y-47578600D01*
X150780409Y-47626219D01*
X150637552Y-47626219D01*
X150447076Y-47578600D01*
X150351838Y-47530980D01*
X150256600Y-47435742D01*
X150208980Y-47292885D01*
X150208980Y-47197647D01*
X150256600Y-47054790D01*
X150304219Y-47007171D01*
X150208980Y-46102409D02*
X150208980Y-46578600D01*
X150685171Y-46626219D01*
X150637552Y-46578600D01*
X150589933Y-46483361D01*
X150589933Y-46245266D01*
X150637552Y-46150028D01*
X150685171Y-46102409D01*
X150780409Y-46054790D01*
X151018504Y-46054790D01*
X151113742Y-46102409D01*
X151161361Y-46150028D01*
X151208980Y-46245266D01*
X151208980Y-46483361D01*
X151161361Y-46578600D01*
X151113742Y-46626219D01*
%TO.C,H2*%
X215963095Y-47002380D02*
X215963095Y-46002380D01*
X215963095Y-46478571D02*
X216534523Y-46478571D01*
X216534523Y-47002380D02*
X216534523Y-46002380D01*
X216963095Y-46097619D02*
X217010714Y-46050000D01*
X217105952Y-46002380D01*
X217344047Y-46002380D01*
X217439285Y-46050000D01*
X217486904Y-46097619D01*
X217534523Y-46192857D01*
X217534523Y-46288095D01*
X217486904Y-46430952D01*
X216915476Y-47002380D01*
X217534523Y-47002380D01*
%TO.C,U3*%
X148786095Y-147420380D02*
X148786095Y-148229904D01*
X148833714Y-148325142D01*
X148881333Y-148372761D01*
X148976571Y-148420380D01*
X149167047Y-148420380D01*
X149262285Y-148372761D01*
X149309904Y-148325142D01*
X149357523Y-148229904D01*
X149357523Y-147420380D01*
X149738476Y-147420380D02*
X150357523Y-147420380D01*
X150024190Y-147801333D01*
X150167047Y-147801333D01*
X150262285Y-147848952D01*
X150309904Y-147896571D01*
X150357523Y-147991809D01*
X150357523Y-148229904D01*
X150309904Y-148325142D01*
X150262285Y-148372761D01*
X150167047Y-148420380D01*
X149881333Y-148420380D01*
X149786095Y-148372761D01*
X149738476Y-148325142D01*
X165169000Y-150087380D02*
X165169000Y-150325476D01*
X164930904Y-150230238D02*
X165169000Y-150325476D01*
X165407095Y-150230238D01*
X165026142Y-150515952D02*
X165169000Y-150325476D01*
X165311857Y-150515952D01*
X165169000Y-150087380D02*
X165169000Y-150325476D01*
X164930904Y-150230238D02*
X165169000Y-150325476D01*
X165407095Y-150230238D01*
X165026142Y-150515952D02*
X165169000Y-150325476D01*
X165311857Y-150515952D01*
%TO.C,IC1*%
X137796645Y-48308790D02*
X136796645Y-48308790D01*
X137701407Y-47261171D02*
X137749026Y-47308790D01*
X137796645Y-47451647D01*
X137796645Y-47546885D01*
X137749026Y-47689742D01*
X137653788Y-47784980D01*
X137558550Y-47832600D01*
X137368074Y-47880219D01*
X137225217Y-47880219D01*
X137034741Y-47832600D01*
X136939503Y-47784980D01*
X136844265Y-47689742D01*
X136796645Y-47546885D01*
X136796645Y-47451647D01*
X136844265Y-47308790D01*
X136891884Y-47261171D01*
X137796645Y-46308790D02*
X137796645Y-46880219D01*
X137796645Y-46594504D02*
X136796645Y-46594504D01*
X136939503Y-46689742D01*
X137034741Y-46784980D01*
X137082360Y-46880219D01*
%TO.C,J8*%
X186872166Y-140577081D02*
X186872166Y-141291367D01*
X186824547Y-141434224D01*
X186729309Y-141529462D01*
X186586452Y-141577081D01*
X186491214Y-141577081D01*
X187491214Y-141005653D02*
X187395976Y-140958034D01*
X187348357Y-140910415D01*
X187300738Y-140815177D01*
X187300738Y-140767558D01*
X187348357Y-140672320D01*
X187395976Y-140624701D01*
X187491214Y-140577081D01*
X187681690Y-140577081D01*
X187776928Y-140624701D01*
X187824547Y-140672320D01*
X187872166Y-140767558D01*
X187872166Y-140815177D01*
X187824547Y-140910415D01*
X187776928Y-140958034D01*
X187681690Y-141005653D01*
X187491214Y-141005653D01*
X187395976Y-141053272D01*
X187348357Y-141100891D01*
X187300738Y-141196129D01*
X187300738Y-141386605D01*
X187348357Y-141481843D01*
X187395976Y-141529462D01*
X187491214Y-141577081D01*
X187681690Y-141577081D01*
X187776928Y-141529462D01*
X187824547Y-141481843D01*
X187872166Y-141386605D01*
X187872166Y-141196129D01*
X187824547Y-141100891D01*
X187776928Y-141053272D01*
X187681690Y-141005653D01*
%TO.C,D2*%
X193503904Y-97212380D02*
X193503904Y-96212380D01*
X193742000Y-96212380D01*
X193884857Y-96260000D01*
X193980095Y-96355238D01*
X194027714Y-96450476D01*
X194075333Y-96640952D01*
X194075333Y-96783809D01*
X194027714Y-96974285D01*
X193980095Y-97069523D01*
X193884857Y-97164761D01*
X193742000Y-97212380D01*
X193503904Y-97212380D01*
X194456285Y-96307619D02*
X194503904Y-96260000D01*
X194599142Y-96212380D01*
X194837238Y-96212380D01*
X194932476Y-96260000D01*
X194980095Y-96307619D01*
X195027714Y-96402857D01*
X195027714Y-96498095D01*
X194980095Y-96640952D01*
X194408666Y-97212380D01*
X195027714Y-97212380D01*
%TO.C,D16*%
X179595714Y-78971380D02*
X179595714Y-77971380D01*
X179833809Y-77971380D01*
X179976666Y-78019000D01*
X180071904Y-78114238D01*
X180119523Y-78209476D01*
X180167142Y-78399952D01*
X180167142Y-78542809D01*
X180119523Y-78733285D01*
X180071904Y-78828523D01*
X179976666Y-78923761D01*
X179833809Y-78971380D01*
X179595714Y-78971380D01*
X181119523Y-78971380D02*
X180548095Y-78971380D01*
X180833809Y-78971380D02*
X180833809Y-77971380D01*
X180738571Y-78114238D01*
X180643333Y-78209476D01*
X180548095Y-78257095D01*
X181976666Y-77971380D02*
X181786190Y-77971380D01*
X181690952Y-78019000D01*
X181643333Y-78066619D01*
X181548095Y-78209476D01*
X181500476Y-78399952D01*
X181500476Y-78780904D01*
X181548095Y-78876142D01*
X181595714Y-78923761D01*
X181690952Y-78971380D01*
X181881428Y-78971380D01*
X181976666Y-78923761D01*
X182024285Y-78876142D01*
X182071904Y-78780904D01*
X182071904Y-78542809D01*
X182024285Y-78447571D01*
X181976666Y-78399952D01*
X181881428Y-78352333D01*
X181690952Y-78352333D01*
X181595714Y-78399952D01*
X181548095Y-78447571D01*
X181500476Y-78542809D01*
%TO.C,IC6*%
X189824380Y-63725190D02*
X188824380Y-63725190D01*
X189729142Y-62677571D02*
X189776761Y-62725190D01*
X189824380Y-62868047D01*
X189824380Y-62963285D01*
X189776761Y-63106142D01*
X189681523Y-63201380D01*
X189586285Y-63249000D01*
X189395809Y-63296619D01*
X189252952Y-63296619D01*
X189062476Y-63249000D01*
X188967238Y-63201380D01*
X188872000Y-63106142D01*
X188824380Y-62963285D01*
X188824380Y-62868047D01*
X188872000Y-62725190D01*
X188919619Y-62677571D01*
X188824380Y-61820428D02*
X188824380Y-62010904D01*
X188872000Y-62106142D01*
X188919619Y-62153761D01*
X189062476Y-62249000D01*
X189252952Y-62296619D01*
X189633904Y-62296619D01*
X189729142Y-62249000D01*
X189776761Y-62201380D01*
X189824380Y-62106142D01*
X189824380Y-61915666D01*
X189776761Y-61820428D01*
X189729142Y-61772809D01*
X189633904Y-61725190D01*
X189395809Y-61725190D01*
X189300571Y-61772809D01*
X189252952Y-61820428D01*
X189205333Y-61915666D01*
X189205333Y-62106142D01*
X189252952Y-62201380D01*
X189300571Y-62249000D01*
X189395809Y-62296619D01*
%TO.C,R9*%
X139240933Y-52233782D02*
X138907600Y-51757592D01*
X138669504Y-52233782D02*
X138669504Y-51233782D01*
X139050457Y-51233782D01*
X139145695Y-51281402D01*
X139193314Y-51329021D01*
X139240933Y-51424259D01*
X139240933Y-51567116D01*
X139193314Y-51662354D01*
X139145695Y-51709973D01*
X139050457Y-51757592D01*
X138669504Y-51757592D01*
X139717123Y-52233782D02*
X139907600Y-52233782D01*
X140002838Y-52186163D01*
X140050457Y-52138544D01*
X140145695Y-51995687D01*
X140193314Y-51805211D01*
X140193314Y-51424259D01*
X140145695Y-51329021D01*
X140098076Y-51281402D01*
X140002838Y-51233782D01*
X139812361Y-51233782D01*
X139717123Y-51281402D01*
X139669504Y-51329021D01*
X139621885Y-51424259D01*
X139621885Y-51662354D01*
X139669504Y-51757592D01*
X139717123Y-51805211D01*
X139812361Y-51852830D01*
X140002838Y-51852830D01*
X140098076Y-51805211D01*
X140145695Y-51757592D01*
X140193314Y-51662354D01*
%TO.C,D15*%
X179595714Y-75071380D02*
X179595714Y-74071380D01*
X179833809Y-74071380D01*
X179976666Y-74119000D01*
X180071904Y-74214238D01*
X180119523Y-74309476D01*
X180167142Y-74499952D01*
X180167142Y-74642809D01*
X180119523Y-74833285D01*
X180071904Y-74928523D01*
X179976666Y-75023761D01*
X179833809Y-75071380D01*
X179595714Y-75071380D01*
X181119523Y-75071380D02*
X180548095Y-75071380D01*
X180833809Y-75071380D02*
X180833809Y-74071380D01*
X180738571Y-74214238D01*
X180643333Y-74309476D01*
X180548095Y-74357095D01*
X182024285Y-74071380D02*
X181548095Y-74071380D01*
X181500476Y-74547571D01*
X181548095Y-74499952D01*
X181643333Y-74452333D01*
X181881428Y-74452333D01*
X181976666Y-74499952D01*
X182024285Y-74547571D01*
X182071904Y-74642809D01*
X182071904Y-74880904D01*
X182024285Y-74976142D01*
X181976666Y-75023761D01*
X181881428Y-75071380D01*
X181643333Y-75071380D01*
X181548095Y-75023761D01*
X181500476Y-74976142D01*
%TO.C,C19*%
X195699142Y-109124142D02*
X195651523Y-109171761D01*
X195508666Y-109219380D01*
X195413428Y-109219380D01*
X195270571Y-109171761D01*
X195175333Y-109076523D01*
X195127714Y-108981285D01*
X195080095Y-108790809D01*
X195080095Y-108647952D01*
X195127714Y-108457476D01*
X195175333Y-108362238D01*
X195270571Y-108267000D01*
X195413428Y-108219380D01*
X195508666Y-108219380D01*
X195651523Y-108267000D01*
X195699142Y-108314619D01*
X196651523Y-109219380D02*
X196080095Y-109219380D01*
X196365809Y-109219380D02*
X196365809Y-108219380D01*
X196270571Y-108362238D01*
X196175333Y-108457476D01*
X196080095Y-108505095D01*
X197127714Y-109219380D02*
X197318190Y-109219380D01*
X197413428Y-109171761D01*
X197461047Y-109124142D01*
X197556285Y-108981285D01*
X197603904Y-108790809D01*
X197603904Y-108409857D01*
X197556285Y-108314619D01*
X197508666Y-108267000D01*
X197413428Y-108219380D01*
X197222952Y-108219380D01*
X197127714Y-108267000D01*
X197080095Y-108314619D01*
X197032476Y-108409857D01*
X197032476Y-108647952D01*
X197080095Y-108743190D01*
X197127714Y-108790809D01*
X197222952Y-108838428D01*
X197413428Y-108838428D01*
X197508666Y-108790809D01*
X197556285Y-108743190D01*
X197603904Y-108647952D01*
D12*
%TO.C,F6*%
X109023766Y-95136878D02*
X108892532Y-95136878D01*
X108892532Y-95343102D02*
X108892532Y-94949401D01*
X109080009Y-94949401D01*
X109398719Y-94949401D02*
X109323729Y-94949401D01*
X109286233Y-94968149D01*
X109267486Y-94986897D01*
X109229990Y-95043140D01*
X109211243Y-95118130D01*
X109211243Y-95268112D01*
X109229990Y-95305607D01*
X109248738Y-95324355D01*
X109286233Y-95343102D01*
X109361224Y-95343102D01*
X109398719Y-95324355D01*
X109417467Y-95305607D01*
X109436215Y-95268112D01*
X109436215Y-95174373D01*
X109417467Y-95136878D01*
X109398719Y-95118130D01*
X109361224Y-95099383D01*
X109286233Y-95099383D01*
X109248738Y-95118130D01*
X109229990Y-95136878D01*
X109211243Y-95174373D01*
D11*
%TO.C,R37*%
X185435142Y-78971380D02*
X185101809Y-78495190D01*
X184863714Y-78971380D02*
X184863714Y-77971380D01*
X185244666Y-77971380D01*
X185339904Y-78019000D01*
X185387523Y-78066619D01*
X185435142Y-78161857D01*
X185435142Y-78304714D01*
X185387523Y-78399952D01*
X185339904Y-78447571D01*
X185244666Y-78495190D01*
X184863714Y-78495190D01*
X185768476Y-77971380D02*
X186387523Y-77971380D01*
X186054190Y-78352333D01*
X186197047Y-78352333D01*
X186292285Y-78399952D01*
X186339904Y-78447571D01*
X186387523Y-78542809D01*
X186387523Y-78780904D01*
X186339904Y-78876142D01*
X186292285Y-78923761D01*
X186197047Y-78971380D01*
X185911333Y-78971380D01*
X185816095Y-78923761D01*
X185768476Y-78876142D01*
X186720857Y-77971380D02*
X187387523Y-77971380D01*
X186958952Y-78971380D01*
%TO.C,R36*%
X185327142Y-75071380D02*
X184993809Y-74595190D01*
X184755714Y-75071380D02*
X184755714Y-74071380D01*
X185136666Y-74071380D01*
X185231904Y-74119000D01*
X185279523Y-74166619D01*
X185327142Y-74261857D01*
X185327142Y-74404714D01*
X185279523Y-74499952D01*
X185231904Y-74547571D01*
X185136666Y-74595190D01*
X184755714Y-74595190D01*
X185660476Y-74071380D02*
X186279523Y-74071380D01*
X185946190Y-74452333D01*
X186089047Y-74452333D01*
X186184285Y-74499952D01*
X186231904Y-74547571D01*
X186279523Y-74642809D01*
X186279523Y-74880904D01*
X186231904Y-74976142D01*
X186184285Y-75023761D01*
X186089047Y-75071380D01*
X185803333Y-75071380D01*
X185708095Y-75023761D01*
X185660476Y-74976142D01*
X187136666Y-74071380D02*
X186946190Y-74071380D01*
X186850952Y-74119000D01*
X186803333Y-74166619D01*
X186708095Y-74309476D01*
X186660476Y-74499952D01*
X186660476Y-74880904D01*
X186708095Y-74976142D01*
X186755714Y-75023761D01*
X186850952Y-75071380D01*
X187041428Y-75071380D01*
X187136666Y-75023761D01*
X187184285Y-74976142D01*
X187231904Y-74880904D01*
X187231904Y-74642809D01*
X187184285Y-74547571D01*
X187136666Y-74499952D01*
X187041428Y-74452333D01*
X186850952Y-74452333D01*
X186755714Y-74499952D01*
X186708095Y-74547571D01*
X186660476Y-74642809D01*
%TO.C,C5*%
X139208333Y-94282142D02*
X139160714Y-94329761D01*
X139017857Y-94377380D01*
X138922619Y-94377380D01*
X138779761Y-94329761D01*
X138684523Y-94234523D01*
X138636904Y-94139285D01*
X138589285Y-93948809D01*
X138589285Y-93805952D01*
X138636904Y-93615476D01*
X138684523Y-93520238D01*
X138779761Y-93425000D01*
X138922619Y-93377380D01*
X139017857Y-93377380D01*
X139160714Y-93425000D01*
X139208333Y-93472619D01*
X140113095Y-93377380D02*
X139636904Y-93377380D01*
X139589285Y-93853571D01*
X139636904Y-93805952D01*
X139732142Y-93758333D01*
X139970238Y-93758333D01*
X140065476Y-93805952D01*
X140113095Y-93853571D01*
X140160714Y-93948809D01*
X140160714Y-94186904D01*
X140113095Y-94282142D01*
X140065476Y-94329761D01*
X139970238Y-94377380D01*
X139732142Y-94377380D01*
X139636904Y-94329761D01*
X139589285Y-94282142D01*
%TO.C,C8*%
X125208333Y-101067142D02*
X125160714Y-101114761D01*
X125017857Y-101162380D01*
X124922619Y-101162380D01*
X124779761Y-101114761D01*
X124684523Y-101019523D01*
X124636904Y-100924285D01*
X124589285Y-100733809D01*
X124589285Y-100590952D01*
X124636904Y-100400476D01*
X124684523Y-100305238D01*
X124779761Y-100210000D01*
X124922619Y-100162380D01*
X125017857Y-100162380D01*
X125160714Y-100210000D01*
X125208333Y-100257619D01*
X125779761Y-100590952D02*
X125684523Y-100543333D01*
X125636904Y-100495714D01*
X125589285Y-100400476D01*
X125589285Y-100352857D01*
X125636904Y-100257619D01*
X125684523Y-100210000D01*
X125779761Y-100162380D01*
X125970238Y-100162380D01*
X126065476Y-100210000D01*
X126113095Y-100257619D01*
X126160714Y-100352857D01*
X126160714Y-100400476D01*
X126113095Y-100495714D01*
X126065476Y-100543333D01*
X125970238Y-100590952D01*
X125779761Y-100590952D01*
X125684523Y-100638571D01*
X125636904Y-100686190D01*
X125589285Y-100781428D01*
X125589285Y-100971904D01*
X125636904Y-101067142D01*
X125684523Y-101114761D01*
X125779761Y-101162380D01*
X125970238Y-101162380D01*
X126065476Y-101114761D01*
X126113095Y-101067142D01*
X126160714Y-100971904D01*
X126160714Y-100781428D01*
X126113095Y-100686190D01*
X126065476Y-100638571D01*
X125970238Y-100590952D01*
%TO.C,R17*%
X208010142Y-71429380D02*
X207676809Y-70953190D01*
X207438714Y-71429380D02*
X207438714Y-70429380D01*
X207819666Y-70429380D01*
X207914904Y-70477000D01*
X207962523Y-70524619D01*
X208010142Y-70619857D01*
X208010142Y-70762714D01*
X207962523Y-70857952D01*
X207914904Y-70905571D01*
X207819666Y-70953190D01*
X207438714Y-70953190D01*
X208962523Y-71429380D02*
X208391095Y-71429380D01*
X208676809Y-71429380D02*
X208676809Y-70429380D01*
X208581571Y-70572238D01*
X208486333Y-70667476D01*
X208391095Y-70715095D01*
X209295857Y-70429380D02*
X209962523Y-70429380D01*
X209533952Y-71429380D01*
%TO.C,R15*%
X189318342Y-77830380D02*
X188985009Y-77354190D01*
X188746914Y-77830380D02*
X188746914Y-76830380D01*
X189127866Y-76830380D01*
X189223104Y-76878000D01*
X189270723Y-76925619D01*
X189318342Y-77020857D01*
X189318342Y-77163714D01*
X189270723Y-77258952D01*
X189223104Y-77306571D01*
X189127866Y-77354190D01*
X188746914Y-77354190D01*
X190270723Y-77830380D02*
X189699295Y-77830380D01*
X189985009Y-77830380D02*
X189985009Y-76830380D01*
X189889771Y-76973238D01*
X189794533Y-77068476D01*
X189699295Y-77116095D01*
X191175485Y-76830380D02*
X190699295Y-76830380D01*
X190651676Y-77306571D01*
X190699295Y-77258952D01*
X190794533Y-77211333D01*
X191032628Y-77211333D01*
X191127866Y-77258952D01*
X191175485Y-77306571D01*
X191223104Y-77401809D01*
X191223104Y-77639904D01*
X191175485Y-77735142D01*
X191127866Y-77782761D01*
X191032628Y-77830380D01*
X190794533Y-77830380D01*
X190699295Y-77782761D01*
X190651676Y-77735142D01*
%TO.C,J1*%
X120681333Y-148108333D02*
X120681333Y-149108333D01*
X120614666Y-149308333D01*
X120481333Y-149441666D01*
X120281333Y-149508333D01*
X120148000Y-149508333D01*
X122081333Y-149508333D02*
X121281333Y-149508333D01*
X121681333Y-149508333D02*
X121681333Y-148108333D01*
X121548000Y-148308333D01*
X121414666Y-148441666D01*
X121281333Y-148508333D01*
%TO.C,C2*%
X111608333Y-122282142D02*
X111560714Y-122329761D01*
X111417857Y-122377380D01*
X111322619Y-122377380D01*
X111179761Y-122329761D01*
X111084523Y-122234523D01*
X111036904Y-122139285D01*
X110989285Y-121948809D01*
X110989285Y-121805952D01*
X111036904Y-121615476D01*
X111084523Y-121520238D01*
X111179761Y-121425000D01*
X111322619Y-121377380D01*
X111417857Y-121377380D01*
X111560714Y-121425000D01*
X111608333Y-121472619D01*
X111989285Y-121472619D02*
X112036904Y-121425000D01*
X112132142Y-121377380D01*
X112370238Y-121377380D01*
X112465476Y-121425000D01*
X112513095Y-121472619D01*
X112560714Y-121567857D01*
X112560714Y-121663095D01*
X112513095Y-121805952D01*
X111941666Y-122377380D01*
X112560714Y-122377380D01*
%TO.C,J6*%
X218672466Y-71078380D02*
X218672466Y-71792666D01*
X218624847Y-71935523D01*
X218529609Y-72030761D01*
X218386752Y-72078380D01*
X218291514Y-72078380D01*
X219577228Y-71078380D02*
X219386752Y-71078380D01*
X219291514Y-71126000D01*
X219243895Y-71173619D01*
X219148657Y-71316476D01*
X219101038Y-71506952D01*
X219101038Y-71887904D01*
X219148657Y-71983142D01*
X219196276Y-72030761D01*
X219291514Y-72078380D01*
X219481990Y-72078380D01*
X219577228Y-72030761D01*
X219624847Y-71983142D01*
X219672466Y-71887904D01*
X219672466Y-71649809D01*
X219624847Y-71554571D01*
X219577228Y-71506952D01*
X219481990Y-71459333D01*
X219291514Y-71459333D01*
X219196276Y-71506952D01*
X219148657Y-71554571D01*
X219101038Y-71649809D01*
%TO.C,C4*%
X125908333Y-109832142D02*
X125860714Y-109879761D01*
X125717857Y-109927380D01*
X125622619Y-109927380D01*
X125479761Y-109879761D01*
X125384523Y-109784523D01*
X125336904Y-109689285D01*
X125289285Y-109498809D01*
X125289285Y-109355952D01*
X125336904Y-109165476D01*
X125384523Y-109070238D01*
X125479761Y-108975000D01*
X125622619Y-108927380D01*
X125717857Y-108927380D01*
X125860714Y-108975000D01*
X125908333Y-109022619D01*
X126765476Y-109260714D02*
X126765476Y-109927380D01*
X126527380Y-108879761D02*
X126289285Y-109594047D01*
X126908333Y-109594047D01*
%TO.C,H4*%
X215963095Y-147002380D02*
X215963095Y-146002380D01*
X215963095Y-146478571D02*
X216534523Y-146478571D01*
X216534523Y-147002380D02*
X216534523Y-146002380D01*
X217439285Y-146335714D02*
X217439285Y-147002380D01*
X217201190Y-145954761D02*
X216963095Y-146669047D01*
X217582142Y-146669047D01*
%TO.C,H1*%
X85963095Y-47002380D02*
X85963095Y-46002380D01*
X85963095Y-46478571D02*
X86534523Y-46478571D01*
X86534523Y-47002380D02*
X86534523Y-46002380D01*
X87534523Y-47002380D02*
X86963095Y-47002380D01*
X87248809Y-47002380D02*
X87248809Y-46002380D01*
X87153571Y-46145238D01*
X87058333Y-46240476D01*
X86963095Y-46288095D01*
%TO.C,R20*%
X208035542Y-65775314D02*
X207702209Y-65299124D01*
X207464114Y-65775314D02*
X207464114Y-64775314D01*
X207845066Y-64775314D01*
X207940304Y-64822934D01*
X207987923Y-64870553D01*
X208035542Y-64965791D01*
X208035542Y-65108648D01*
X207987923Y-65203886D01*
X207940304Y-65251505D01*
X207845066Y-65299124D01*
X207464114Y-65299124D01*
X208416495Y-64870553D02*
X208464114Y-64822934D01*
X208559352Y-64775314D01*
X208797447Y-64775314D01*
X208892685Y-64822934D01*
X208940304Y-64870553D01*
X208987923Y-64965791D01*
X208987923Y-65061029D01*
X208940304Y-65203886D01*
X208368876Y-65775314D01*
X208987923Y-65775314D01*
X209606971Y-64775314D02*
X209702209Y-64775314D01*
X209797447Y-64822934D01*
X209845066Y-64870553D01*
X209892685Y-64965791D01*
X209940304Y-65156267D01*
X209940304Y-65394362D01*
X209892685Y-65584838D01*
X209845066Y-65680076D01*
X209797447Y-65727695D01*
X209702209Y-65775314D01*
X209606971Y-65775314D01*
X209511733Y-65727695D01*
X209464114Y-65680076D01*
X209416495Y-65584838D01*
X209368876Y-65394362D01*
X209368876Y-65156267D01*
X209416495Y-64965791D01*
X209464114Y-64870553D01*
X209511733Y-64822934D01*
X209606971Y-64775314D01*
%TO.C,R26*%
X199079142Y-83854380D02*
X198745809Y-83378190D01*
X198507714Y-83854380D02*
X198507714Y-82854380D01*
X198888666Y-82854380D01*
X198983904Y-82902000D01*
X199031523Y-82949619D01*
X199079142Y-83044857D01*
X199079142Y-83187714D01*
X199031523Y-83282952D01*
X198983904Y-83330571D01*
X198888666Y-83378190D01*
X198507714Y-83378190D01*
X199460095Y-82949619D02*
X199507714Y-82902000D01*
X199602952Y-82854380D01*
X199841047Y-82854380D01*
X199936285Y-82902000D01*
X199983904Y-82949619D01*
X200031523Y-83044857D01*
X200031523Y-83140095D01*
X199983904Y-83282952D01*
X199412476Y-83854380D01*
X200031523Y-83854380D01*
X200888666Y-82854380D02*
X200698190Y-82854380D01*
X200602952Y-82902000D01*
X200555333Y-82949619D01*
X200460095Y-83092476D01*
X200412476Y-83282952D01*
X200412476Y-83663904D01*
X200460095Y-83759142D01*
X200507714Y-83806761D01*
X200602952Y-83854380D01*
X200793428Y-83854380D01*
X200888666Y-83806761D01*
X200936285Y-83759142D01*
X200983904Y-83663904D01*
X200983904Y-83425809D01*
X200936285Y-83330571D01*
X200888666Y-83282952D01*
X200793428Y-83235333D01*
X200602952Y-83235333D01*
X200507714Y-83282952D01*
X200460095Y-83330571D01*
X200412476Y-83425809D01*
%TO.C,D11*%
X119905714Y-57138380D02*
X119905714Y-56138380D01*
X120143809Y-56138380D01*
X120286666Y-56186000D01*
X120381904Y-56281238D01*
X120429523Y-56376476D01*
X120477142Y-56566952D01*
X120477142Y-56709809D01*
X120429523Y-56900285D01*
X120381904Y-56995523D01*
X120286666Y-57090761D01*
X120143809Y-57138380D01*
X119905714Y-57138380D01*
X121429523Y-57138380D02*
X120858095Y-57138380D01*
X121143809Y-57138380D02*
X121143809Y-56138380D01*
X121048571Y-56281238D01*
X120953333Y-56376476D01*
X120858095Y-56424095D01*
X122381904Y-57138380D02*
X121810476Y-57138380D01*
X122096190Y-57138380D02*
X122096190Y-56138380D01*
X122000952Y-56281238D01*
X121905714Y-56376476D01*
X121810476Y-56424095D01*
%TO.C,R6*%
X132643865Y-52214380D02*
X132310532Y-51738190D01*
X132072436Y-52214380D02*
X132072436Y-51214380D01*
X132453389Y-51214380D01*
X132548627Y-51262000D01*
X132596246Y-51309619D01*
X132643865Y-51404857D01*
X132643865Y-51547714D01*
X132596246Y-51642952D01*
X132548627Y-51690571D01*
X132453389Y-51738190D01*
X132072436Y-51738190D01*
X133501008Y-51214380D02*
X133310532Y-51214380D01*
X133215293Y-51262000D01*
X133167674Y-51309619D01*
X133072436Y-51452476D01*
X133024817Y-51642952D01*
X133024817Y-52023904D01*
X133072436Y-52119142D01*
X133120055Y-52166761D01*
X133215293Y-52214380D01*
X133405770Y-52214380D01*
X133501008Y-52166761D01*
X133548627Y-52119142D01*
X133596246Y-52023904D01*
X133596246Y-51785809D01*
X133548627Y-51690571D01*
X133501008Y-51642952D01*
X133405770Y-51595333D01*
X133215293Y-51595333D01*
X133120055Y-51642952D01*
X133072436Y-51690571D01*
X133024817Y-51785809D01*
%TO.C,H3*%
X85963095Y-147002380D02*
X85963095Y-146002380D01*
X85963095Y-146478571D02*
X86534523Y-146478571D01*
X86534523Y-147002380D02*
X86534523Y-146002380D01*
X86915476Y-146002380D02*
X87534523Y-146002380D01*
X87201190Y-146383333D01*
X87344047Y-146383333D01*
X87439285Y-146430952D01*
X87486904Y-146478571D01*
X87534523Y-146573809D01*
X87534523Y-146811904D01*
X87486904Y-146907142D01*
X87439285Y-146954761D01*
X87344047Y-147002380D01*
X87058333Y-147002380D01*
X86963095Y-146954761D01*
X86915476Y-146907142D01*
%TO.C,IC2*%
X131280979Y-48308790D02*
X130280979Y-48308790D01*
X131185741Y-47261171D02*
X131233360Y-47308790D01*
X131280979Y-47451647D01*
X131280979Y-47546885D01*
X131233360Y-47689742D01*
X131138122Y-47784980D01*
X131042884Y-47832600D01*
X130852408Y-47880219D01*
X130709551Y-47880219D01*
X130519075Y-47832600D01*
X130423837Y-47784980D01*
X130328599Y-47689742D01*
X130280979Y-47546885D01*
X130280979Y-47451647D01*
X130328599Y-47308790D01*
X130376218Y-47261171D01*
X130376218Y-46880219D02*
X130328599Y-46832600D01*
X130280979Y-46737361D01*
X130280979Y-46499266D01*
X130328599Y-46404028D01*
X130376218Y-46356409D01*
X130471456Y-46308790D01*
X130566694Y-46308790D01*
X130709551Y-46356409D01*
X131280979Y-46927838D01*
X131280979Y-46308790D01*
%TO.C,C17*%
X133217142Y-59934142D02*
X133169523Y-59981761D01*
X133026666Y-60029380D01*
X132931428Y-60029380D01*
X132788571Y-59981761D01*
X132693333Y-59886523D01*
X132645714Y-59791285D01*
X132598095Y-59600809D01*
X132598095Y-59457952D01*
X132645714Y-59267476D01*
X132693333Y-59172238D01*
X132788571Y-59077000D01*
X132931428Y-59029380D01*
X133026666Y-59029380D01*
X133169523Y-59077000D01*
X133217142Y-59124619D01*
X134169523Y-60029380D02*
X133598095Y-60029380D01*
X133883809Y-60029380D02*
X133883809Y-59029380D01*
X133788571Y-59172238D01*
X133693333Y-59267476D01*
X133598095Y-59315095D01*
X134502857Y-59029380D02*
X135169523Y-59029380D01*
X134740952Y-60029380D01*
%TO.C,D10*%
X110739714Y-93397380D02*
X110739714Y-92397380D01*
X110977809Y-92397380D01*
X111120666Y-92445000D01*
X111215904Y-92540238D01*
X111263523Y-92635476D01*
X111311142Y-92825952D01*
X111311142Y-92968809D01*
X111263523Y-93159285D01*
X111215904Y-93254523D01*
X111120666Y-93349761D01*
X110977809Y-93397380D01*
X110739714Y-93397380D01*
X112263523Y-93397380D02*
X111692095Y-93397380D01*
X111977809Y-93397380D02*
X111977809Y-92397380D01*
X111882571Y-92540238D01*
X111787333Y-92635476D01*
X111692095Y-92683095D01*
X112882571Y-92397380D02*
X112977809Y-92397380D01*
X113073047Y-92445000D01*
X113120666Y-92492619D01*
X113168285Y-92587857D01*
X113215904Y-92778333D01*
X113215904Y-93016428D01*
X113168285Y-93206904D01*
X113120666Y-93302142D01*
X113073047Y-93349761D01*
X112977809Y-93397380D01*
X112882571Y-93397380D01*
X112787333Y-93349761D01*
X112739714Y-93302142D01*
X112692095Y-93206904D01*
X112644476Y-93016428D01*
X112644476Y-92778333D01*
X112692095Y-92587857D01*
X112739714Y-92492619D01*
X112787333Y-92445000D01*
X112882571Y-92397380D01*
%TO.C,C7*%
X139208333Y-90357142D02*
X139160714Y-90404761D01*
X139017857Y-90452380D01*
X138922619Y-90452380D01*
X138779761Y-90404761D01*
X138684523Y-90309523D01*
X138636904Y-90214285D01*
X138589285Y-90023809D01*
X138589285Y-89880952D01*
X138636904Y-89690476D01*
X138684523Y-89595238D01*
X138779761Y-89500000D01*
X138922619Y-89452380D01*
X139017857Y-89452380D01*
X139160714Y-89500000D01*
X139208333Y-89547619D01*
X139541666Y-89452380D02*
X140208333Y-89452380D01*
X139779761Y-90452380D01*
%TO.C,F2*%
X94849666Y-90151371D02*
X94516333Y-90151371D01*
X94516333Y-90675180D02*
X94516333Y-89675180D01*
X94992523Y-89675180D01*
X95325857Y-89770419D02*
X95373476Y-89722800D01*
X95468714Y-89675180D01*
X95706809Y-89675180D01*
X95802047Y-89722800D01*
X95849666Y-89770419D01*
X95897285Y-89865657D01*
X95897285Y-89960895D01*
X95849666Y-90103752D01*
X95278238Y-90675180D01*
X95897285Y-90675180D01*
X91722666Y-91199180D02*
X92341714Y-91199180D01*
X92008380Y-91580133D01*
X92151238Y-91580133D01*
X92246476Y-91627752D01*
X92294095Y-91675371D01*
X92341714Y-91770609D01*
X92341714Y-92008704D01*
X92294095Y-92103942D01*
X92246476Y-92151561D01*
X92151238Y-92199180D01*
X91865523Y-92199180D01*
X91770285Y-92151561D01*
X91722666Y-92103942D01*
X93246476Y-91199180D02*
X92770285Y-91199180D01*
X92722666Y-91675371D01*
X92770285Y-91627752D01*
X92865523Y-91580133D01*
X93103619Y-91580133D01*
X93198857Y-91627752D01*
X93246476Y-91675371D01*
X93294095Y-91770609D01*
X93294095Y-92008704D01*
X93246476Y-92103942D01*
X93198857Y-92151561D01*
X93103619Y-92199180D01*
X92865523Y-92199180D01*
X92770285Y-92151561D01*
X92722666Y-92103942D01*
X94198857Y-91199180D02*
X93722666Y-91199180D01*
X93675047Y-91675371D01*
X93722666Y-91627752D01*
X93817904Y-91580133D01*
X94056000Y-91580133D01*
X94151238Y-91627752D01*
X94198857Y-91675371D01*
X94246476Y-91770609D01*
X94246476Y-92008704D01*
X94198857Y-92103942D01*
X94151238Y-92151561D01*
X94056000Y-92199180D01*
X93817904Y-92199180D01*
X93722666Y-92151561D01*
X93675047Y-92103942D01*
X94579809Y-91199180D02*
X95246476Y-91199180D01*
X94817904Y-92199180D01*
X95627428Y-91818228D02*
X96389333Y-91818228D01*
X97389333Y-92199180D02*
X96817904Y-92199180D01*
X97103619Y-92199180D02*
X97103619Y-91199180D01*
X97008380Y-91342038D01*
X96913142Y-91437276D01*
X96817904Y-91484895D01*
X98008380Y-91199180D02*
X98103619Y-91199180D01*
X98198857Y-91246800D01*
X98246476Y-91294419D01*
X98294095Y-91389657D01*
X98341714Y-91580133D01*
X98341714Y-91818228D01*
X98294095Y-92008704D01*
X98246476Y-92103942D01*
X98198857Y-92151561D01*
X98103619Y-92199180D01*
X98008380Y-92199180D01*
X97913142Y-92151561D01*
X97865523Y-92103942D01*
X97817904Y-92008704D01*
X97770285Y-91818228D01*
X97770285Y-91580133D01*
X97817904Y-91389657D01*
X97865523Y-91294419D01*
X97913142Y-91246800D01*
X98008380Y-91199180D01*
X88325000Y-89497380D02*
X88325000Y-89735476D01*
X88086904Y-89640238D02*
X88325000Y-89735476D01*
X88563095Y-89640238D01*
X88182142Y-89925952D02*
X88325000Y-89735476D01*
X88467857Y-89925952D01*
%TO.C,R12*%
X195458142Y-120432580D02*
X195124809Y-119956390D01*
X194886714Y-120432580D02*
X194886714Y-119432580D01*
X195267666Y-119432580D01*
X195362904Y-119480200D01*
X195410523Y-119527819D01*
X195458142Y-119623057D01*
X195458142Y-119765914D01*
X195410523Y-119861152D01*
X195362904Y-119908771D01*
X195267666Y-119956390D01*
X194886714Y-119956390D01*
X196410523Y-120432580D02*
X195839095Y-120432580D01*
X196124809Y-120432580D02*
X196124809Y-119432580D01*
X196029571Y-119575438D01*
X195934333Y-119670676D01*
X195839095Y-119718295D01*
X196791476Y-119527819D02*
X196839095Y-119480200D01*
X196934333Y-119432580D01*
X197172428Y-119432580D01*
X197267666Y-119480200D01*
X197315285Y-119527819D01*
X197362904Y-119623057D01*
X197362904Y-119718295D01*
X197315285Y-119861152D01*
X196743857Y-120432580D01*
X197362904Y-120432580D01*
%TO.C,J13*%
X200104476Y-60368380D02*
X200104476Y-61082666D01*
X200056857Y-61225523D01*
X199961619Y-61320761D01*
X199818761Y-61368380D01*
X199723523Y-61368380D01*
X201104476Y-61368380D02*
X200533047Y-61368380D01*
X200818761Y-61368380D02*
X200818761Y-60368380D01*
X200723523Y-60511238D01*
X200628285Y-60606476D01*
X200533047Y-60654095D01*
X201437809Y-60368380D02*
X202056857Y-60368380D01*
X201723523Y-60749333D01*
X201866380Y-60749333D01*
X201961619Y-60796952D01*
X202009238Y-60844571D01*
X202056857Y-60939809D01*
X202056857Y-61177904D01*
X202009238Y-61273142D01*
X201961619Y-61320761D01*
X201866380Y-61368380D01*
X201580666Y-61368380D01*
X201485428Y-61320761D01*
X201437809Y-61273142D01*
%TO.C,U5*%
X202226695Y-74646380D02*
X202226695Y-75455904D01*
X202274314Y-75551142D01*
X202321933Y-75598761D01*
X202417171Y-75646380D01*
X202607647Y-75646380D01*
X202702885Y-75598761D01*
X202750504Y-75551142D01*
X202798123Y-75455904D01*
X202798123Y-74646380D01*
X203750504Y-74646380D02*
X203274314Y-74646380D01*
X203226695Y-75122571D01*
X203274314Y-75074952D01*
X203369552Y-75027333D01*
X203607647Y-75027333D01*
X203702885Y-75074952D01*
X203750504Y-75122571D01*
X203798123Y-75217809D01*
X203798123Y-75455904D01*
X203750504Y-75551142D01*
X203702885Y-75598761D01*
X203607647Y-75646380D01*
X203369552Y-75646380D01*
X203274314Y-75598761D01*
X203226695Y-75551142D01*
%TO.C,U7*%
X206933095Y-153367380D02*
X206933095Y-154176904D01*
X206980714Y-154272142D01*
X207028333Y-154319761D01*
X207123571Y-154367380D01*
X207314047Y-154367380D01*
X207409285Y-154319761D01*
X207456904Y-154272142D01*
X207504523Y-154176904D01*
X207504523Y-153367380D01*
X207885476Y-153367380D02*
X208552142Y-153367380D01*
X208123571Y-154367380D01*
%TO.C,C3*%
X141158333Y-78282142D02*
X141110714Y-78329761D01*
X140967857Y-78377380D01*
X140872619Y-78377380D01*
X140729761Y-78329761D01*
X140634523Y-78234523D01*
X140586904Y-78139285D01*
X140539285Y-77948809D01*
X140539285Y-77805952D01*
X140586904Y-77615476D01*
X140634523Y-77520238D01*
X140729761Y-77425000D01*
X140872619Y-77377380D01*
X140967857Y-77377380D01*
X141110714Y-77425000D01*
X141158333Y-77472619D01*
X141491666Y-77377380D02*
X142110714Y-77377380D01*
X141777380Y-77758333D01*
X141920238Y-77758333D01*
X142015476Y-77805952D01*
X142063095Y-77853571D01*
X142110714Y-77948809D01*
X142110714Y-78186904D01*
X142063095Y-78282142D01*
X142015476Y-78329761D01*
X141920238Y-78377380D01*
X141634523Y-78377380D01*
X141539285Y-78329761D01*
X141491666Y-78282142D01*
%TO.C,R5*%
X196175333Y-105388580D02*
X195842000Y-104912390D01*
X195603904Y-105388580D02*
X195603904Y-104388580D01*
X195984857Y-104388580D01*
X196080095Y-104436200D01*
X196127714Y-104483819D01*
X196175333Y-104579057D01*
X196175333Y-104721914D01*
X196127714Y-104817152D01*
X196080095Y-104864771D01*
X195984857Y-104912390D01*
X195603904Y-104912390D01*
X197080095Y-104388580D02*
X196603904Y-104388580D01*
X196556285Y-104864771D01*
X196603904Y-104817152D01*
X196699142Y-104769533D01*
X196937238Y-104769533D01*
X197032476Y-104817152D01*
X197080095Y-104864771D01*
X197127714Y-104960009D01*
X197127714Y-105198104D01*
X197080095Y-105293342D01*
X197032476Y-105340961D01*
X196937238Y-105388580D01*
X196699142Y-105388580D01*
X196603904Y-105340961D01*
X196556285Y-105293342D01*
%TO.C,F1*%
X103913666Y-147783438D02*
X103580333Y-147783438D01*
X103580333Y-148307247D02*
X103580333Y-147307247D01*
X104056523Y-147307247D01*
X104961285Y-148307247D02*
X104389857Y-148307247D01*
X104675571Y-148307247D02*
X104675571Y-147307247D01*
X104580333Y-147450105D01*
X104485095Y-147545343D01*
X104389857Y-147592962D01*
X101040666Y-149212247D02*
X101659714Y-149212247D01*
X101326380Y-149593200D01*
X101469238Y-149593200D01*
X101564476Y-149640819D01*
X101612095Y-149688438D01*
X101659714Y-149783676D01*
X101659714Y-150021771D01*
X101612095Y-150117009D01*
X101564476Y-150164628D01*
X101469238Y-150212247D01*
X101183523Y-150212247D01*
X101088285Y-150164628D01*
X101040666Y-150117009D01*
X102564476Y-149212247D02*
X102088285Y-149212247D01*
X102040666Y-149688438D01*
X102088285Y-149640819D01*
X102183523Y-149593200D01*
X102421619Y-149593200D01*
X102516857Y-149640819D01*
X102564476Y-149688438D01*
X102612095Y-149783676D01*
X102612095Y-150021771D01*
X102564476Y-150117009D01*
X102516857Y-150164628D01*
X102421619Y-150212247D01*
X102183523Y-150212247D01*
X102088285Y-150164628D01*
X102040666Y-150117009D01*
X103516857Y-149212247D02*
X103040666Y-149212247D01*
X102993047Y-149688438D01*
X103040666Y-149640819D01*
X103135904Y-149593200D01*
X103374000Y-149593200D01*
X103469238Y-149640819D01*
X103516857Y-149688438D01*
X103564476Y-149783676D01*
X103564476Y-150021771D01*
X103516857Y-150117009D01*
X103469238Y-150164628D01*
X103374000Y-150212247D01*
X103135904Y-150212247D01*
X103040666Y-150164628D01*
X102993047Y-150117009D01*
X103897809Y-149212247D02*
X104564476Y-149212247D01*
X104135904Y-150212247D01*
X104945428Y-149831295D02*
X105707333Y-149831295D01*
X106707333Y-150212247D02*
X106135904Y-150212247D01*
X106421619Y-150212247D02*
X106421619Y-149212247D01*
X106326380Y-149355105D01*
X106231142Y-149450343D01*
X106135904Y-149497962D01*
X107326380Y-149212247D02*
X107421619Y-149212247D01*
X107516857Y-149259867D01*
X107564476Y-149307486D01*
X107612095Y-149402724D01*
X107659714Y-149593200D01*
X107659714Y-149831295D01*
X107612095Y-150021771D01*
X107564476Y-150117009D01*
X107516857Y-150164628D01*
X107421619Y-150212247D01*
X107326380Y-150212247D01*
X107231142Y-150164628D01*
X107183523Y-150117009D01*
X107135904Y-150021771D01*
X107088285Y-149831295D01*
X107088285Y-149593200D01*
X107135904Y-149402724D01*
X107183523Y-149307486D01*
X107231142Y-149259867D01*
X107326380Y-149212247D01*
X111105000Y-150914047D02*
X111105000Y-151152143D01*
X110866904Y-151056905D02*
X111105000Y-151152143D01*
X111343095Y-151056905D01*
X110962142Y-151342619D02*
X111105000Y-151152143D01*
X111247857Y-151342619D01*
%TO.C,R2*%
X128306333Y-140528380D02*
X127973000Y-140052190D01*
X127734904Y-140528380D02*
X127734904Y-139528380D01*
X128115857Y-139528380D01*
X128211095Y-139576000D01*
X128258714Y-139623619D01*
X128306333Y-139718857D01*
X128306333Y-139861714D01*
X128258714Y-139956952D01*
X128211095Y-140004571D01*
X128115857Y-140052190D01*
X127734904Y-140052190D01*
X128687285Y-139623619D02*
X128734904Y-139576000D01*
X128830142Y-139528380D01*
X129068238Y-139528380D01*
X129163476Y-139576000D01*
X129211095Y-139623619D01*
X129258714Y-139718857D01*
X129258714Y-139814095D01*
X129211095Y-139956952D01*
X128639666Y-140528380D01*
X129258714Y-140528380D01*
%TO.C,R4*%
X142527380Y-121791666D02*
X142051190Y-122125000D01*
X142527380Y-122363095D02*
X141527380Y-122363095D01*
X141527380Y-121982142D01*
X141575000Y-121886904D01*
X141622619Y-121839285D01*
X141717857Y-121791666D01*
X141860714Y-121791666D01*
X141955952Y-121839285D01*
X142003571Y-121886904D01*
X142051190Y-121982142D01*
X142051190Y-122363095D01*
X141860714Y-120934523D02*
X142527380Y-120934523D01*
X141479761Y-121172619D02*
X142194047Y-121410714D01*
X142194047Y-120791666D01*
D12*
%TO.C,F7*%
X109023766Y-99636878D02*
X108892532Y-99636878D01*
X108892532Y-99843102D02*
X108892532Y-99449401D01*
X109080009Y-99449401D01*
X109192495Y-99449401D02*
X109454962Y-99449401D01*
X109286233Y-99843102D01*
D11*
%TO.C,RL1*%
X208286715Y-145526304D02*
X207911762Y-145788771D01*
X208286715Y-145976248D02*
X207499313Y-145976248D01*
X207499313Y-145676285D01*
X207536809Y-145601294D01*
X207574304Y-145563799D01*
X207649295Y-145526304D01*
X207761781Y-145526304D01*
X207836771Y-145563799D01*
X207874267Y-145601294D01*
X207911762Y-145676285D01*
X207911762Y-145976248D01*
X208286715Y-144813892D02*
X208286715Y-145188846D01*
X207499313Y-145188846D01*
X208286715Y-144138976D02*
X208286715Y-144588920D01*
X208286715Y-144363948D02*
X207499313Y-144363948D01*
X207611799Y-144438939D01*
X207686790Y-144513930D01*
X207724285Y-144588920D01*
%TO.C,D8*%
X195411904Y-116774380D02*
X195411904Y-115774380D01*
X195650000Y-115774380D01*
X195792857Y-115822000D01*
X195888095Y-115917238D01*
X195935714Y-116012476D01*
X195983333Y-116202952D01*
X195983333Y-116345809D01*
X195935714Y-116536285D01*
X195888095Y-116631523D01*
X195792857Y-116726761D01*
X195650000Y-116774380D01*
X195411904Y-116774380D01*
X196554761Y-116202952D02*
X196459523Y-116155333D01*
X196411904Y-116107714D01*
X196364285Y-116012476D01*
X196364285Y-115964857D01*
X196411904Y-115869619D01*
X196459523Y-115822000D01*
X196554761Y-115774380D01*
X196745238Y-115774380D01*
X196840476Y-115822000D01*
X196888095Y-115869619D01*
X196935714Y-115964857D01*
X196935714Y-116012476D01*
X196888095Y-116107714D01*
X196840476Y-116155333D01*
X196745238Y-116202952D01*
X196554761Y-116202952D01*
X196459523Y-116250571D01*
X196411904Y-116298190D01*
X196364285Y-116393428D01*
X196364285Y-116583904D01*
X196411904Y-116679142D01*
X196459523Y-116726761D01*
X196554761Y-116774380D01*
X196745238Y-116774380D01*
X196840476Y-116726761D01*
X196888095Y-116679142D01*
X196935714Y-116583904D01*
X196935714Y-116393428D01*
X196888095Y-116298190D01*
X196840476Y-116250571D01*
X196745238Y-116202952D01*
%TO.C,J12*%
X182529476Y-79183380D02*
X182529476Y-79897666D01*
X182481857Y-80040523D01*
X182386619Y-80135761D01*
X182243761Y-80183380D01*
X182148523Y-80183380D01*
X183529476Y-80183380D02*
X182958047Y-80183380D01*
X183243761Y-80183380D02*
X183243761Y-79183380D01*
X183148523Y-79326238D01*
X183053285Y-79421476D01*
X182958047Y-79469095D01*
X183910428Y-79278619D02*
X183958047Y-79231000D01*
X184053285Y-79183380D01*
X184291380Y-79183380D01*
X184386619Y-79231000D01*
X184434238Y-79278619D01*
X184481857Y-79373857D01*
X184481857Y-79469095D01*
X184434238Y-79611952D01*
X183862809Y-80183380D01*
X184481857Y-80183380D01*
%TO.C,J2*%
X112968333Y-56527333D02*
X112968333Y-57527333D01*
X112901666Y-57727333D01*
X112768333Y-57860666D01*
X112568333Y-57927333D01*
X112435000Y-57927333D01*
X113568333Y-56660666D02*
X113635000Y-56594000D01*
X113768333Y-56527333D01*
X114101666Y-56527333D01*
X114235000Y-56594000D01*
X114301666Y-56660666D01*
X114368333Y-56794000D01*
X114368333Y-56927333D01*
X114301666Y-57127333D01*
X113501666Y-57927333D01*
X114368333Y-57927333D01*
D13*
%TO.C,SW1*%
X180029000Y-63639000D02*
X180029000Y-68139000D01*
X184529000Y-68139000D02*
X184529000Y-63639000D01*
X180029000Y-68139000D02*
X184529000Y-68139000D01*
X184529000Y-63639000D02*
X180029000Y-63639000D01*
D14*
X183879000Y-70889000D02*
G75*
G03*
X183879000Y-70889000I-100000J0D01*
G01*
D13*
%TO.C,SW2*%
X147753000Y-94081000D02*
X147753000Y-98581000D01*
X152253000Y-98581000D02*
X152253000Y-94081000D01*
X147753000Y-98581000D02*
X152253000Y-98581000D01*
X152253000Y-94081000D02*
X147753000Y-94081000D01*
D14*
X151603000Y-101331000D02*
G75*
G03*
X151603000Y-101331000I-100000J0D01*
G01*
D15*
%TO.C,J9*%
X191739400Y-120128300D02*
X191739400Y-112635300D01*
X191739400Y-112635300D02*
X183078000Y-112635300D01*
X183078000Y-120128300D02*
X191739400Y-120128300D01*
X183078000Y-112635300D02*
X183078000Y-120128300D01*
X182824000Y-117012299D02*
G75*
G03*
X182824000Y-117012299I-381000J0D01*
G01*
%TO.C,F10*%
X202470936Y-67954000D02*
X203675064Y-67954000D01*
X202470936Y-66134000D02*
X203675064Y-66134000D01*
%TO.C,F9*%
X148093000Y-133209300D02*
X148093000Y-140194300D01*
X168159000Y-133209300D02*
X168159000Y-140194300D01*
X168159000Y-133209300D02*
X148093000Y-133209300D01*
X168159000Y-140194300D02*
X148093000Y-140194300D01*
%TO.C,R18*%
X212936064Y-62725000D02*
X211481936Y-62725000D01*
X212936064Y-64545000D02*
X211481936Y-64545000D01*
%TO.C,F3*%
X105159000Y-96634299D02*
X85093000Y-96634299D01*
X105159000Y-103619299D02*
X85093000Y-103619299D01*
X105159000Y-96634299D02*
X105159000Y-103619299D01*
X85093000Y-96634299D02*
X85093000Y-103619299D01*
%TO.C,R14*%
X193044136Y-74110000D02*
X194498264Y-74110000D01*
X193044136Y-75930000D02*
X194498264Y-75930000D01*
%TO.C,U6*%
X143792000Y-103279000D02*
X143142000Y-103279000D01*
X143792000Y-100159000D02*
X143142000Y-100159000D01*
X143792000Y-100159000D02*
X144442000Y-100159000D01*
X143792000Y-103279000D02*
X145467000Y-103279000D01*
%TO.C,C21*%
X193458000Y-127141252D02*
X193458000Y-125718748D01*
X196178000Y-127141252D02*
X196178000Y-125718748D01*
%TO.C,C15*%
X135990000Y-68079437D02*
X135990000Y-71065000D01*
X134500000Y-69815000D02*
X135750000Y-69815000D01*
X135990000Y-76470563D02*
X137054437Y-77535000D01*
X137054437Y-67015000D02*
X146510000Y-67015000D01*
X135125000Y-69190000D02*
X135125000Y-70440000D01*
X137054437Y-77535000D02*
X146510000Y-77535000D01*
X135990000Y-68079437D02*
X137054437Y-67015000D01*
X146510000Y-77535000D02*
X146510000Y-73485000D01*
X146510000Y-67015000D02*
X146510000Y-71065000D01*
X135990000Y-76470563D02*
X135990000Y-73485000D01*
%TO.C,R23*%
X191681064Y-84978000D02*
X190226936Y-84978000D01*
X191681064Y-86798000D02*
X190226936Y-86798000D01*
%TO.C,U4*%
X191859000Y-126350000D02*
X191859000Y-127150000D01*
X188739000Y-126350000D02*
X188739000Y-125550000D01*
X188739000Y-126350000D02*
X188739000Y-127150000D01*
X191859000Y-126350000D02*
X191859000Y-124550000D01*
%TO.C,D13*%
X183319000Y-104266000D02*
X181049000Y-104266000D01*
X181049000Y-104266000D02*
X181049000Y-108151000D01*
X183319000Y-108151000D02*
X183319000Y-104266000D01*
%TO.C,J11*%
X201138300Y-134786001D02*
X206338300Y-134786001D01*
X201138300Y-85196001D02*
X201138300Y-83866001D01*
X201138300Y-86466001D02*
X203738300Y-86466001D01*
X203738300Y-86466001D02*
X203738300Y-83866001D01*
X201138300Y-86466001D02*
X201138300Y-134786001D01*
X201138300Y-83866001D02*
X202468300Y-83866001D01*
X203738300Y-83866001D02*
X206338300Y-83866001D01*
X206338300Y-83866001D02*
X206338300Y-134786001D01*
%TO.C,C20*%
X186907000Y-125780748D02*
X186907000Y-127203252D01*
X184187000Y-125780748D02*
X184187000Y-127203252D01*
%TO.C,D9*%
X180933600Y-52562400D02*
X178933600Y-52562400D01*
X180933600Y-52562400D02*
X180933600Y-56412400D01*
X178933600Y-52562400D02*
X178933600Y-56412400D01*
%TO.C,C1*%
X132435000Y-88295563D02*
X131370563Y-89360000D01*
X132435000Y-88295563D02*
X132435000Y-85310000D01*
X131370563Y-78840000D02*
X121915000Y-78840000D01*
X133300000Y-87185000D02*
X133300000Y-85935000D01*
X132435000Y-79904437D02*
X131370563Y-78840000D01*
X121915000Y-89360000D02*
X121915000Y-85310000D01*
X133925000Y-86560000D02*
X132675000Y-86560000D01*
X131370563Y-89360000D02*
X121915000Y-89360000D01*
X132435000Y-79904437D02*
X132435000Y-82890000D01*
X121915000Y-78840000D02*
X121915000Y-82890000D01*
%TO.C,J10*%
X185327300Y-59552001D02*
X193988700Y-59552001D01*
X193988700Y-52059001D02*
X185327300Y-52059001D01*
X185327300Y-52059001D02*
X185327300Y-59552001D01*
X193988700Y-59552001D02*
X193988700Y-52059001D01*
X185073300Y-56436000D02*
G75*
G03*
X185073300Y-56436000I-381000J0D01*
G01*
%TO.C,R38*%
X183017064Y-60071000D02*
X181562936Y-60071000D01*
X183017064Y-58251000D02*
X181562936Y-58251000D01*
%TO.C,F8*%
X168159000Y-112939300D02*
X148093000Y-112939300D01*
X168159000Y-119924300D02*
X148093000Y-119924300D01*
X168159000Y-112939300D02*
X168159000Y-119924300D01*
X148093000Y-112939300D02*
X148093000Y-119924300D01*
%TO.C,R21*%
X191681064Y-81910000D02*
X190226936Y-81910000D01*
X191681064Y-80090000D02*
X190226936Y-80090000D01*
%TO.C,D5*%
X83250200Y-87468200D02*
X79400200Y-87468200D01*
X83250200Y-89468200D02*
X83250200Y-87468200D01*
X83250200Y-89468200D02*
X79400200Y-89468200D01*
%TO.C,R24*%
X195438936Y-84978000D02*
X196893064Y-84978000D01*
X195438936Y-86798000D02*
X196893064Y-86798000D01*
%TO.C,C11*%
X132460000Y-68029437D02*
X132460000Y-71015000D01*
X133325000Y-75310000D02*
X133325000Y-74060000D01*
X121940000Y-66965000D02*
X121940000Y-71015000D01*
X131395563Y-77485000D02*
X121940000Y-77485000D01*
X121940000Y-77485000D02*
X121940000Y-73435000D01*
X131395563Y-66965000D02*
X121940000Y-66965000D01*
X132460000Y-68029437D02*
X131395563Y-66965000D01*
X132460000Y-76420563D02*
X132460000Y-73435000D01*
X132460000Y-76420563D02*
X131395563Y-77485000D01*
X133950000Y-74685000D02*
X132700000Y-74685000D01*
%TO.C,J5*%
X180224200Y-110116800D02*
X180224200Y-102623800D01*
X171562800Y-110116800D02*
X180224200Y-110116800D01*
X180224200Y-102623800D02*
X171562800Y-102623800D01*
X171562800Y-102623800D02*
X171562800Y-110116800D01*
X171308800Y-107000799D02*
G75*
G03*
X171308800Y-107000799I-381000J0D01*
G01*
%TO.C,R13*%
X193044136Y-73530000D02*
X194498264Y-73530000D01*
X193044136Y-71710000D02*
X194498264Y-71710000D01*
%TO.C,D14*%
X183216000Y-124143000D02*
X180946000Y-124143000D01*
X183216000Y-128028000D02*
X183216000Y-124143000D01*
X180946000Y-124143000D02*
X180946000Y-128028000D01*
%TO.C,R19*%
X212936064Y-67591667D02*
X211481936Y-67591667D01*
X212936064Y-69411667D02*
X211481936Y-69411667D01*
%TO.C,D12*%
X89802000Y-55800000D02*
X93687000Y-55800000D01*
X93687000Y-53530000D02*
X89802000Y-53530000D01*
X89802000Y-53530000D02*
X89802000Y-55800000D01*
%TO.C,R10*%
X146948264Y-49456664D02*
X146948264Y-48002536D01*
X145128264Y-49456664D02*
X145128264Y-48002536D01*
%TO.C,R3*%
X112145000Y-78972064D02*
X112145000Y-77517936D01*
X113965000Y-78972064D02*
X113965000Y-77517936D01*
%TO.C,JP2*%
X209498900Y-56876800D02*
X209498900Y-55546800D01*
X212098900Y-56876800D02*
X214698900Y-56876800D01*
X214698900Y-56876800D02*
X214698900Y-54216800D01*
X212098900Y-54216800D02*
X214698900Y-54216800D01*
X212098900Y-56876800D02*
X212098900Y-54216800D01*
X210828900Y-56876800D02*
X209498900Y-56876800D01*
%TO.C,R25*%
X191681064Y-84354000D02*
X190226936Y-84354000D01*
X191681064Y-82534000D02*
X190226936Y-82534000D01*
%TO.C,C16*%
X106565000Y-132485000D02*
X106565000Y-128435000D01*
X118575000Y-129685000D02*
X117325000Y-129685000D01*
X117085000Y-123029437D02*
X116020563Y-121965000D01*
X116020563Y-132485000D02*
X106565000Y-132485000D01*
X106565000Y-121965000D02*
X106565000Y-126015000D01*
X116020563Y-121965000D02*
X106565000Y-121965000D01*
X117085000Y-131420563D02*
X116020563Y-132485000D01*
X117950000Y-130310000D02*
X117950000Y-129060000D01*
X117085000Y-123029437D02*
X117085000Y-126015000D01*
X117085000Y-131420563D02*
X117085000Y-128435000D01*
D13*
%TO.C,J4*%
X200296800Y-58542400D02*
X197496800Y-58542400D01*
X207496800Y-45542400D02*
X207496800Y-48342400D01*
X207496800Y-52742400D02*
X207496800Y-58542400D01*
X197496800Y-45542400D02*
X207496800Y-45542400D01*
X197496800Y-58542400D02*
X197496800Y-52742400D01*
X197496800Y-48342400D02*
X197496800Y-45542400D01*
X207496800Y-58542400D02*
X204596800Y-58542400D01*
D10*
X202696800Y-59342400D02*
G75*
G03*
X202696800Y-59342400I-200000J0D01*
G01*
D15*
%TO.C,D1*%
X139290000Y-140590000D02*
X133890000Y-140590000D01*
X139290000Y-143890000D02*
X133890000Y-143890000D01*
X139290000Y-143890000D02*
X139290000Y-140590000D01*
%TO.C,F5*%
X168159000Y-130059300D02*
X148093000Y-130059300D01*
X168159000Y-123074300D02*
X168159000Y-130059300D01*
X168159000Y-123074300D02*
X148093000Y-123074300D01*
X148093000Y-123074300D02*
X148093000Y-130059300D01*
%TO.C,R7*%
X125200266Y-49456664D02*
X125200266Y-48002536D01*
X127020266Y-49456664D02*
X127020266Y-48002536D01*
%TO.C,R8*%
X118557600Y-49456664D02*
X118557600Y-48002536D01*
X120377600Y-49456664D02*
X120377600Y-48002536D01*
%TO.C,R32*%
X125363936Y-55776000D02*
X126818064Y-55776000D01*
X125363936Y-53956000D02*
X126818064Y-53956000D01*
%TO.C,C9*%
X136625000Y-57390000D02*
X136625000Y-58640000D01*
X148010000Y-55215000D02*
X148010000Y-59265000D01*
X137490000Y-56279437D02*
X138554437Y-55215000D01*
X138554437Y-65735000D02*
X148010000Y-65735000D01*
X137490000Y-64670563D02*
X137490000Y-61685000D01*
X137490000Y-64670563D02*
X138554437Y-65735000D01*
X148010000Y-65735000D02*
X148010000Y-61685000D01*
X136000000Y-58015000D02*
X137250000Y-58015000D01*
X137490000Y-56279437D02*
X137490000Y-59265000D01*
X138554437Y-55215000D02*
X148010000Y-55215000D01*
%TO.C,J7*%
X217526800Y-122941800D02*
X223526800Y-122941800D01*
X211929729Y-103381800D02*
X212383871Y-103381800D01*
X214866800Y-104271800D02*
X217526800Y-104271800D01*
X211929729Y-98301800D02*
X212383871Y-98301800D01*
X214469729Y-133861800D02*
X214866800Y-133861800D01*
X214469729Y-123701800D02*
X214866800Y-123701800D01*
X214866800Y-116971800D02*
X217526800Y-116971800D01*
X211929729Y-125481800D02*
X212383871Y-125481800D01*
X211929729Y-116081800D02*
X212383871Y-116081800D01*
X211929729Y-89921800D02*
X212383871Y-89921800D01*
X211929729Y-102621800D02*
X212383871Y-102621800D01*
X214469729Y-89921800D02*
X214866800Y-89921800D01*
X217526800Y-105161800D02*
X223526800Y-105161800D01*
X223526800Y-88141800D02*
X217526800Y-88141800D01*
X214469729Y-100081800D02*
X214866800Y-100081800D01*
X214866800Y-83891800D02*
X214866800Y-134811800D01*
X214866800Y-127131800D02*
X217526800Y-127131800D01*
X217526800Y-134811800D02*
X217526800Y-83891800D01*
X211929729Y-118621800D02*
X212383871Y-118621800D01*
X217526800Y-128021800D02*
X223526800Y-128021800D01*
X223526800Y-110241800D02*
X223526800Y-111001800D01*
X214866800Y-132211800D02*
X217526800Y-132211800D01*
X211929729Y-130561800D02*
X212383871Y-130561800D01*
X223526800Y-120401800D02*
X223526800Y-121161800D01*
X217526800Y-87381800D02*
X223526800Y-87381800D01*
X217526800Y-97541800D02*
X223526800Y-97541800D01*
X223526800Y-126241800D02*
X217526800Y-126241800D01*
X217526800Y-100081800D02*
X223526800Y-100081800D01*
X214469729Y-105161800D02*
X214866800Y-105161800D01*
X214469729Y-100841800D02*
X214866800Y-100841800D01*
X217526800Y-85261800D02*
X223526800Y-85261800D01*
X217526800Y-107701800D02*
X223526800Y-107701800D01*
X214866800Y-119511800D02*
X217526800Y-119511800D01*
X211929729Y-88141800D02*
X212383871Y-88141800D01*
X217526800Y-125481800D02*
X223526800Y-125481800D01*
X223526800Y-90681800D02*
X217526800Y-90681800D01*
X211929729Y-97541800D02*
X212383871Y-97541800D01*
X217526800Y-120401800D02*
X223526800Y-120401800D01*
X214469729Y-122941800D02*
X214866800Y-122941800D01*
X211929729Y-131321800D02*
X212383871Y-131321800D01*
X223526800Y-131321800D02*
X217526800Y-131321800D01*
X214469729Y-130561800D02*
X214866800Y-130561800D01*
X214469729Y-110241800D02*
X214866800Y-110241800D01*
X223526800Y-125481800D02*
X223526800Y-126241800D01*
X223526800Y-105161800D02*
X223526800Y-105921800D01*
X223526800Y-95761800D02*
X217526800Y-95761800D01*
X223526800Y-115321800D02*
X223526800Y-116081800D01*
X214469729Y-93221800D02*
X214866800Y-93221800D01*
X214866800Y-122051800D02*
X217526800Y-122051800D01*
X211929729Y-133101800D02*
X212383871Y-133101800D01*
X214866800Y-134811800D02*
X217526800Y-134811800D01*
X211996800Y-84841800D02*
X212383871Y-84841800D01*
X211929729Y-113541800D02*
X212383871Y-113541800D01*
X214469729Y-105921800D02*
X214866800Y-105921800D01*
X214469729Y-87381800D02*
X214866800Y-87381800D01*
X223526800Y-100081800D02*
X223526800Y-100841800D01*
X223526800Y-87381800D02*
X223526800Y-88141800D01*
X214469729Y-97541800D02*
X214866800Y-97541800D01*
X211929729Y-112781800D02*
X212383871Y-112781800D01*
X217526800Y-102621800D02*
X223526800Y-102621800D01*
X223526800Y-105921800D02*
X217526800Y-105921800D01*
X214866800Y-86491800D02*
X217526800Y-86491800D01*
X223526800Y-107701800D02*
X223526800Y-108461800D01*
X211929729Y-90681800D02*
X212383871Y-90681800D01*
X211929729Y-120401800D02*
X212383871Y-120401800D01*
X214469729Y-121161800D02*
X214866800Y-121161800D01*
X223526800Y-108461800D02*
X217526800Y-108461800D01*
X223526800Y-95001800D02*
X223526800Y-95761800D01*
X223526800Y-130561800D02*
X223526800Y-131321800D01*
X214469729Y-128781800D02*
X214866800Y-128781800D01*
X223526800Y-118621800D02*
X217526800Y-118621800D01*
X214866800Y-106811800D02*
X217526800Y-106811800D01*
X223526800Y-93221800D02*
X217526800Y-93221800D01*
X214469729Y-108461800D02*
X214866800Y-108461800D01*
X223526800Y-113541800D02*
X217526800Y-113541800D01*
X223526800Y-92461800D02*
X223526800Y-93221800D01*
X223526800Y-117861800D02*
X223526800Y-118621800D01*
X214469729Y-90681800D02*
X214866800Y-90681800D01*
X214469729Y-115321800D02*
X214866800Y-115321800D01*
X214469729Y-120401800D02*
X214866800Y-120401800D01*
X211929729Y-105921800D02*
X212383871Y-105921800D01*
X211929729Y-100841800D02*
X212383871Y-100841800D01*
X214469729Y-126241800D02*
X214866800Y-126241800D01*
X214469729Y-88141800D02*
X214866800Y-88141800D01*
X214866800Y-91571800D02*
X217526800Y-91571800D01*
X217526800Y-115321800D02*
X223526800Y-115321800D01*
X211929729Y-133861800D02*
X212383871Y-133861800D01*
X214469729Y-107701800D02*
X214866800Y-107701800D01*
X214469729Y-112781800D02*
X214866800Y-112781800D01*
X211929729Y-87381800D02*
X212383871Y-87381800D01*
X223526800Y-133861800D02*
X217526800Y-133861800D01*
X223526800Y-111001800D02*
X217526800Y-111001800D01*
X211929729Y-107701800D02*
X212383871Y-107701800D01*
X214469729Y-117861800D02*
X214866800Y-117861800D01*
X217526800Y-89921800D02*
X223526800Y-89921800D01*
X211929729Y-95761800D02*
X212383871Y-95761800D01*
X214469729Y-133101800D02*
X214866800Y-133101800D01*
X211929729Y-126241800D02*
X212383871Y-126241800D01*
X223526800Y-97541800D02*
X223526800Y-98301800D01*
X214469729Y-118621800D02*
X214866800Y-118621800D01*
X217526800Y-117861800D02*
X223526800Y-117861800D01*
X214469729Y-102621800D02*
X214866800Y-102621800D01*
X214469729Y-84841800D02*
X214866800Y-84841800D01*
X223526800Y-102621800D02*
X223526800Y-103381800D01*
X214866800Y-101731800D02*
X217526800Y-101731800D01*
X217526800Y-92461800D02*
X223526800Y-92461800D01*
X211929729Y-117861800D02*
X212383871Y-117861800D01*
X211929729Y-128781800D02*
X212383871Y-128781800D01*
X217526800Y-85021800D02*
X223526800Y-85021800D01*
X214469729Y-95001800D02*
X214866800Y-95001800D01*
X214866800Y-96651800D02*
X217526800Y-96651800D01*
X217526800Y-133101800D02*
X223526800Y-133101800D01*
X223526800Y-116081800D02*
X217526800Y-116081800D01*
X217526800Y-112781800D02*
X223526800Y-112781800D01*
X211929729Y-95001800D02*
X212383871Y-95001800D01*
X214866800Y-124591800D02*
X217526800Y-124591800D01*
X223526800Y-128781800D02*
X217526800Y-128781800D01*
X209616800Y-85221800D02*
X209616800Y-83951800D01*
X211929729Y-128021800D02*
X212383871Y-128021800D01*
X217526800Y-85381800D02*
X223526800Y-85381800D01*
X223526800Y-133101800D02*
X223526800Y-133861800D01*
X214866800Y-129671800D02*
X217526800Y-129671800D01*
X217526800Y-84841800D02*
X223526800Y-84841800D01*
X214866800Y-99191800D02*
X217526800Y-99191800D01*
X214469729Y-98301800D02*
X214866800Y-98301800D01*
X211929729Y-108461800D02*
X212383871Y-108461800D01*
X211929729Y-92461800D02*
X212383871Y-92461800D01*
X217526800Y-84901800D02*
X223526800Y-84901800D01*
X217526800Y-85141800D02*
X223526800Y-85141800D01*
X223526800Y-122941800D02*
X223526800Y-123701800D01*
X217526800Y-85501800D02*
X223526800Y-85501800D01*
X217526800Y-130561800D02*
X223526800Y-130561800D01*
X217526800Y-110241800D02*
X223526800Y-110241800D01*
X214469729Y-128021800D02*
X214866800Y-128021800D01*
X211929729Y-93221800D02*
X212383871Y-93221800D01*
X217526800Y-83891800D02*
X214866800Y-83891800D01*
X223526800Y-98301800D02*
X217526800Y-98301800D01*
X214469729Y-116081800D02*
X214866800Y-116081800D01*
X214469729Y-95761800D02*
X214866800Y-95761800D01*
X214469729Y-125481800D02*
X214866800Y-125481800D01*
X223526800Y-100841800D02*
X217526800Y-100841800D01*
X214866800Y-114431800D02*
X217526800Y-114431800D01*
X214469729Y-113541800D02*
X214866800Y-113541800D01*
X223526800Y-123701800D02*
X217526800Y-123701800D01*
X214469729Y-103381800D02*
X214866800Y-103381800D01*
X223526800Y-128021800D02*
X223526800Y-128781800D01*
X223526800Y-112781800D02*
X223526800Y-113541800D01*
X223526800Y-84841800D02*
X223526800Y-85601800D01*
X214469729Y-111001800D02*
X214866800Y-111001800D01*
X214469729Y-92461800D02*
X214866800Y-92461800D01*
X223526800Y-85601800D02*
X217526800Y-85601800D01*
X209616800Y-83951800D02*
X210886800Y-83951800D01*
X211929729Y-110241800D02*
X212383871Y-110241800D01*
X214469729Y-85601800D02*
X214866800Y-85601800D01*
X211929729Y-111001800D02*
X212383871Y-111001800D01*
X211929729Y-100081800D02*
X212383871Y-100081800D01*
X211929729Y-121161800D02*
X212383871Y-121161800D01*
X211929729Y-123701800D02*
X212383871Y-123701800D01*
X223526800Y-89921800D02*
X223526800Y-90681800D01*
X223526800Y-103381800D02*
X217526800Y-103381800D01*
X211929729Y-122941800D02*
X212383871Y-122941800D01*
X214866800Y-89031800D02*
X217526800Y-89031800D01*
X223526800Y-121161800D02*
X217526800Y-121161800D01*
X217526800Y-95001800D02*
X223526800Y-95001800D01*
X211929729Y-115321800D02*
X212383871Y-115321800D01*
X211996800Y-85601800D02*
X212383871Y-85601800D01*
X214469729Y-131321800D02*
X214866800Y-131321800D01*
X214866800Y-111891800D02*
X217526800Y-111891800D01*
X214866800Y-94111800D02*
X217526800Y-94111800D01*
X214866800Y-109351800D02*
X217526800Y-109351800D01*
X211929729Y-105161800D02*
X212383871Y-105161800D01*
%TO.C,K1*%
X92455000Y-114764000D02*
X91693000Y-115780000D01*
X91693000Y-113300000D02*
X96519000Y-113300000D01*
X99575000Y-123510000D02*
X103355000Y-123510000D01*
X90931000Y-119336000D02*
X92455000Y-119336000D01*
X104225000Y-122640000D02*
X104225000Y-111560000D01*
X95020400Y-133306000D02*
X95020400Y-134576000D01*
X87375000Y-117050000D02*
X91947000Y-115830800D01*
X91693000Y-120900000D02*
X91693000Y-119336000D01*
X92455000Y-114764000D02*
X90931000Y-114764000D01*
X91693000Y-118320000D02*
X90931000Y-119336000D01*
X79975000Y-142710000D02*
X98055000Y-142710000D01*
X84809600Y-134576000D02*
X84809600Y-133306000D01*
X79105000Y-141840000D02*
X79105000Y-129160000D01*
X87375000Y-117050000D02*
X81015000Y-117050000D01*
X77475000Y-128510000D02*
X78455000Y-128510000D01*
X77475000Y-110690000D02*
X103355000Y-110690000D01*
X76605000Y-127640000D02*
X76605000Y-111560000D01*
X88137000Y-133306000D02*
X84809600Y-133306000D01*
X92455000Y-119336000D02*
X91693000Y-118320000D01*
X95020397Y-133305998D02*
X91692997Y-133305998D01*
X98925000Y-141840000D02*
X98925000Y-124160000D01*
X81015000Y-117050000D02*
X81015000Y-121114000D01*
X91693000Y-114764000D02*
X91693000Y-113300000D01*
X91693000Y-115780000D02*
X90931000Y-114764000D01*
X96519000Y-120900000D02*
X91693000Y-120900000D01*
X90676734Y-132798203D02*
G75*
G03*
X91692997Y-133305998I381266J-507797D01*
G01*
X77475000Y-110690000D02*
G75*
G03*
X76605000Y-111560000I0J-870000D01*
G01*
X103355000Y-123510000D02*
G75*
G03*
X104225000Y-122640000I0J870000D01*
G01*
X79105000Y-129160000D02*
G75*
G03*
X78455000Y-128510000I-650000J0D01*
G01*
X79105000Y-141840000D02*
G75*
G03*
X79975000Y-142710000I870000J0D01*
G01*
X104225000Y-111560000D02*
G75*
G03*
X103355000Y-110690000I-870000J0D01*
G01*
X76605000Y-127640000D02*
G75*
G03*
X77475000Y-128510000I870000J0D01*
G01*
X98055000Y-142710000D02*
G75*
G03*
X98925000Y-141840000I0J870000D01*
G01*
X89915000Y-132798001D02*
G75*
G03*
X90676644Y-132797734I381000J-507999D01*
G01*
X99575000Y-123510000D02*
G75*
G03*
X98925000Y-124160000I0J-650000D01*
G01*
X89153000Y-132798001D02*
G75*
G03*
X89914645Y-132797735I381000J-507999D01*
G01*
X88137000Y-133306000D02*
G75*
G03*
X89153267Y-132798200I635000J0D01*
G01*
X87502000Y-117050000D02*
G75*
G03*
X87502000Y-117050000I-127000J0D01*
G01*
%TO.C,R31*%
X107420936Y-91017000D02*
X108875064Y-91017000D01*
X107420936Y-89197000D02*
X108875064Y-89197000D01*
%TO.C,C6*%
X114436252Y-108985000D02*
X113013748Y-108985000D01*
X114436252Y-106265000D02*
X113013748Y-106265000D01*
%TO.C,R1*%
X122117936Y-61915000D02*
X123572064Y-61915000D01*
X122117936Y-60095000D02*
X123572064Y-60095000D01*
%TO.C,R30*%
X195438936Y-87422000D02*
X196893064Y-87422000D01*
X195438936Y-89242000D02*
X196893064Y-89242000D01*
%TO.C,D7*%
X194096000Y-113417000D02*
X194096000Y-115417000D01*
X194096000Y-113417000D02*
X197946000Y-113417000D01*
X194096000Y-115417000D02*
X197946000Y-115417000D01*
%TO.C,R27*%
X191681064Y-89866000D02*
X190226936Y-89866000D01*
X191681064Y-91686000D02*
X190226936Y-91686000D01*
%TO.C,R39*%
X196333936Y-67954000D02*
X197788064Y-67954000D01*
X196333936Y-66134000D02*
X197788064Y-66134000D01*
%TO.C,R11*%
X195636936Y-102226000D02*
X197091064Y-102226000D01*
X195636936Y-104046000D02*
X197091064Y-104046000D01*
%TO.C,K3*%
X75885000Y-57805000D02*
X75885000Y-70905000D01*
X82245000Y-61755000D02*
X82245000Y-60485000D01*
X75885000Y-70905000D02*
X105285000Y-70905000D01*
X105285000Y-70905000D02*
X105285000Y-57805000D01*
X80975000Y-61755000D02*
X80975000Y-66835000D01*
X75685000Y-69605000D02*
X75685000Y-71105000D01*
X80975000Y-68105000D02*
X82245000Y-68105000D01*
X82245000Y-68105000D02*
X82245000Y-66835000D01*
X105285000Y-57805000D02*
X75885000Y-57805000D01*
X75685000Y-71105000D02*
X77185000Y-71105000D01*
X82245000Y-66835000D02*
X83515000Y-66835000D01*
X82245000Y-60485000D02*
X80975000Y-60485000D01*
X83515000Y-61755000D02*
X80975000Y-61755000D01*
X80975000Y-66835000D02*
X82245000Y-66835000D01*
X83515000Y-66835000D02*
X83515000Y-61755000D01*
D16*
X80975000Y-65565000D02*
X83515000Y-64295000D01*
D13*
%TO.C,U1*%
X162070000Y-97785000D02*
X155230000Y-97785000D01*
X155230000Y-97785000D02*
X155230000Y-97535000D01*
X176230000Y-97785000D02*
X176230000Y-97535000D01*
X155230000Y-46785000D02*
X161730000Y-46785000D01*
X161730000Y-46785000D02*
X161730000Y-45485000D01*
X169730000Y-46785000D02*
X176230000Y-46785000D01*
X176230000Y-46785000D02*
X176230000Y-47035000D01*
X155230000Y-47035000D02*
X155230000Y-46785000D01*
X169730000Y-45485000D02*
X169730000Y-46785000D01*
X176230000Y-97785000D02*
X169390000Y-97785000D01*
X161730000Y-45485000D02*
X169730000Y-45485000D01*
D14*
X153640000Y-48155000D02*
G75*
G03*
X153640000Y-48155000I-100000J0D01*
G01*
D15*
%TO.C,D6*%
X78850200Y-54283400D02*
X78850200Y-56283400D01*
X78850200Y-54283400D02*
X82700200Y-54283400D01*
X78850200Y-56283400D02*
X82700200Y-56283400D01*
%TO.C,R33*%
X92141000Y-50429064D02*
X92141000Y-48974936D01*
X93961000Y-50429064D02*
X93961000Y-48974936D01*
%TO.C,D3*%
X196927000Y-136002000D02*
X196927000Y-132152000D01*
X198927000Y-136002000D02*
X198927000Y-132152000D01*
X196927000Y-136002000D02*
X198927000Y-136002000D01*
%TO.C,D17*%
X184355000Y-57009900D02*
X184355000Y-53124900D01*
X182085000Y-53124900D02*
X182085000Y-57009900D01*
X182085000Y-57009900D02*
X184355000Y-57009900D01*
%TO.C,R28*%
X195438936Y-91686000D02*
X196893064Y-91686000D01*
X195438936Y-89866000D02*
X196893064Y-89866000D01*
D14*
%TO.C,IC3*%
X121328933Y-48779600D02*
X121328933Y-48679600D01*
X124248933Y-48679600D02*
X124248933Y-48779600D01*
X124248933Y-48779600D02*
X121328933Y-48779600D01*
X121328933Y-48679600D02*
X124248933Y-48679600D01*
X121288933Y-50429600D02*
X121288933Y-49129600D01*
D15*
%TO.C,K2*%
X83395000Y-81780000D02*
X83395000Y-76700000D01*
X75765000Y-85850000D02*
X105165000Y-85850000D01*
D16*
X80855000Y-80510000D02*
X83395000Y-79240000D01*
D15*
X82125000Y-83050000D02*
X82125000Y-81780000D01*
X82125000Y-76700000D02*
X82125000Y-75430000D01*
X80855000Y-76700000D02*
X80855000Y-81780000D01*
X83395000Y-76700000D02*
X80855000Y-76700000D01*
X105165000Y-72750000D02*
X75765000Y-72750000D01*
X75765000Y-72750000D02*
X75765000Y-85850000D01*
X82125000Y-75430000D02*
X80855000Y-75430000D01*
X80855000Y-83050000D02*
X82125000Y-83050000D01*
X75565000Y-84550000D02*
X75565000Y-86050000D01*
X82125000Y-81780000D02*
X83395000Y-81780000D01*
X105165000Y-85850000D02*
X105165000Y-72750000D01*
X75565000Y-86050000D02*
X77065000Y-86050000D01*
X80855000Y-81780000D02*
X82125000Y-81780000D01*
%TO.C,C13*%
X114665000Y-77533748D02*
X114665000Y-78956252D01*
X116485000Y-77533748D02*
X116485000Y-78956252D01*
%TO.C,F4*%
X168159000Y-102804300D02*
X148093000Y-102804300D01*
X148093000Y-102804300D02*
X148093000Y-109789300D01*
X168159000Y-102804300D02*
X168159000Y-109789300D01*
X168159000Y-109789300D02*
X148093000Y-109789300D01*
%TO.C,R35*%
X178779064Y-121273000D02*
X177324936Y-121273000D01*
X178779064Y-119453000D02*
X177324936Y-119453000D01*
%TO.C,R34*%
X178721064Y-101661000D02*
X177266936Y-101661000D01*
X178721064Y-99841000D02*
X177266936Y-99841000D01*
%TO.C,C12*%
X115835000Y-134779437D02*
X114770563Y-133715000D01*
X115835000Y-134779437D02*
X115835000Y-137765000D01*
X114770563Y-144235000D02*
X105315000Y-144235000D01*
X115835000Y-143170563D02*
X114770563Y-144235000D01*
X116700000Y-142060000D02*
X116700000Y-140810000D01*
X117325000Y-141435000D02*
X116075000Y-141435000D01*
X114770563Y-133715000D02*
X105315000Y-133715000D01*
X105315000Y-133715000D02*
X105315000Y-137765000D01*
X105315000Y-144235000D02*
X105315000Y-140185000D01*
X115835000Y-143170563D02*
X115835000Y-140185000D01*
%TO.C,JP1*%
X209588800Y-50212800D02*
X209588800Y-52812800D01*
X209588800Y-50212800D02*
X212248800Y-50212800D01*
X209588800Y-47612800D02*
X210918800Y-47612800D01*
X209588800Y-48942800D02*
X209588800Y-47612800D01*
X209588800Y-52812800D02*
X212248800Y-52812800D01*
X212248800Y-50212800D02*
X212248800Y-52812800D01*
%TO.C,U2*%
X165980000Y-153048000D02*
X178680000Y-153048000D01*
X178680000Y-153048000D02*
X178680000Y-142126000D01*
X165980000Y-142126000D02*
X165980000Y-153048000D01*
X178680000Y-142126000D02*
X165980000Y-142126000D01*
D14*
%TO.C,IC4*%
X141216931Y-50429600D02*
X141216931Y-49129600D01*
X141256931Y-48679600D02*
X144176931Y-48679600D01*
X141256931Y-48779600D02*
X141256931Y-48679600D01*
X144176931Y-48779600D02*
X141256931Y-48779600D01*
X144176931Y-48679600D02*
X144176931Y-48779600D01*
D15*
%TO.C,C18*%
X122313748Y-138015000D02*
X123736252Y-138015000D01*
X122313748Y-140735000D02*
X123736252Y-140735000D01*
%TO.C,R22*%
X195438936Y-80090000D02*
X196893064Y-80090000D01*
X195438936Y-81910000D02*
X196893064Y-81910000D01*
%TO.C,C10*%
X119325000Y-124815000D02*
X120575000Y-124815000D01*
X121879437Y-132535000D02*
X131335000Y-132535000D01*
X119950000Y-124190000D02*
X119950000Y-125440000D01*
X131335000Y-132535000D02*
X131335000Y-128485000D01*
X120815000Y-131470563D02*
X120815000Y-128485000D01*
X131335000Y-122015000D02*
X131335000Y-126065000D01*
X120815000Y-123079437D02*
X121879437Y-122015000D01*
X121879437Y-122015000D02*
X131335000Y-122015000D01*
X120815000Y-131470563D02*
X121879437Y-132535000D01*
X120815000Y-123079437D02*
X120815000Y-126065000D01*
%TO.C,R29*%
X191681064Y-89242000D02*
X190226936Y-89242000D01*
X191681064Y-87422000D02*
X190226936Y-87422000D01*
%TO.C,D4*%
X102637800Y-130698000D02*
X102637800Y-134548000D01*
X100637800Y-130698000D02*
X100637800Y-134548000D01*
X102637800Y-130698000D02*
X100637800Y-130698000D01*
%TO.C,R16*%
X193044136Y-69310000D02*
X194498264Y-69310000D01*
X193044136Y-71130000D02*
X194498264Y-71130000D01*
%TO.C,C14*%
X138385000Y-122336252D02*
X138385000Y-120913748D01*
X136565000Y-122336252D02*
X136565000Y-120913748D01*
%TO.C,J3*%
X171562800Y-130139800D02*
X180224200Y-130139800D01*
X180224200Y-130139800D02*
X180224200Y-122646800D01*
X171562800Y-122646800D02*
X171562800Y-130139800D01*
X180224200Y-122646800D02*
X171562800Y-122646800D01*
X171308800Y-127023799D02*
G75*
G03*
X171308800Y-127023799I-381000J0D01*
G01*
D14*
%TO.C,IC5*%
X147859600Y-50429600D02*
X147859600Y-49129600D01*
X150819600Y-48779600D02*
X147899600Y-48779600D01*
X147899600Y-48779600D02*
X147899600Y-48679600D01*
X147899600Y-48679600D02*
X150819600Y-48679600D01*
X150819600Y-48679600D02*
X150819600Y-48779600D01*
D15*
%TO.C,U3*%
X151580000Y-142126000D02*
X151580000Y-153048000D01*
X164280000Y-142126000D02*
X151580000Y-142126000D01*
X151580000Y-153048000D02*
X164280000Y-153048000D01*
X164280000Y-153048000D02*
X164280000Y-142126000D01*
D14*
%TO.C,IC1*%
X134574265Y-50429600D02*
X134574265Y-49129600D01*
X137534265Y-48679600D02*
X137534265Y-48779600D01*
X134614265Y-48679600D02*
X137534265Y-48679600D01*
X137534265Y-48779600D02*
X134614265Y-48779600D01*
X134614265Y-48779600D02*
X134614265Y-48679600D01*
D15*
%TO.C,J8*%
X183078000Y-132658302D02*
X183078000Y-140151302D01*
X191739400Y-140151302D02*
X191739400Y-132658302D01*
X183078000Y-140151302D02*
X191739400Y-140151302D01*
X191739400Y-132658302D02*
X183078000Y-132658302D01*
X182824000Y-137035301D02*
G75*
G03*
X182824000Y-137035301I-381000J0D01*
G01*
%TO.C,D2*%
X198726000Y-93233000D02*
X195426000Y-93233000D01*
X198726000Y-93233000D02*
X198726000Y-98633000D01*
X195426000Y-93233000D02*
X195426000Y-98633000D01*
%TO.C,D16*%
X183095000Y-75564000D02*
X179210000Y-75564000D01*
X183095000Y-77834000D02*
X183095000Y-75564000D01*
X179210000Y-77834000D02*
X183095000Y-77834000D01*
D14*
%TO.C,IC6*%
X190452000Y-62699000D02*
X193372000Y-62699000D01*
X190412000Y-64449000D02*
X190412000Y-63149000D01*
X193372000Y-62699000D02*
X193372000Y-62799000D01*
X193372000Y-62799000D02*
X190452000Y-62799000D01*
X190452000Y-62799000D02*
X190452000Y-62699000D01*
D15*
%TO.C,R9*%
X140305598Y-49456664D02*
X140305598Y-48002536D01*
X138485598Y-49456664D02*
X138485598Y-48002536D01*
%TO.C,D15*%
X183095000Y-73934000D02*
X183095000Y-71664000D01*
X179210000Y-73934000D02*
X183095000Y-73934000D01*
X183095000Y-71664000D02*
X179210000Y-71664000D01*
%TO.C,C19*%
X195630748Y-111527000D02*
X197053252Y-111527000D01*
X195630748Y-109707000D02*
X197053252Y-109707000D01*
D13*
%TO.C,F6*%
X110995000Y-99015000D02*
X115935000Y-99015000D01*
X110995000Y-95975000D02*
X115935000Y-95975000D01*
D15*
%TO.C,R37*%
X186805064Y-75789000D02*
X185350936Y-75789000D01*
X186805064Y-77609000D02*
X185350936Y-77609000D01*
%TO.C,R36*%
X186697064Y-71889000D02*
X185242936Y-71889000D01*
X186697064Y-73709000D02*
X185242936Y-73709000D01*
%TO.C,C5*%
X138663748Y-97585000D02*
X140086252Y-97585000D01*
X138663748Y-94865000D02*
X140086252Y-94865000D01*
%TO.C,C8*%
X124663748Y-101650000D02*
X126086252Y-101650000D01*
X124663748Y-104370000D02*
X126086252Y-104370000D01*
%TO.C,R17*%
X212936064Y-70025000D02*
X211481936Y-70025000D01*
X212936064Y-71845000D02*
X211481936Y-71845000D01*
%TO.C,R15*%
X193044136Y-78330000D02*
X194498264Y-78330000D01*
X193044136Y-76510000D02*
X194498264Y-76510000D01*
D17*
%TO.C,J1*%
X145135000Y-152675000D02*
X122815000Y-152675000D01*
X145135000Y-152675000D02*
X145135000Y-145075000D01*
X145135000Y-145055000D02*
X122815000Y-145055000D01*
X122815000Y-152675000D02*
X122815000Y-145075000D01*
D15*
%TO.C,C2*%
X117035000Y-119920563D02*
X117035000Y-116935000D01*
X106515000Y-120985000D02*
X106515000Y-116935000D01*
X115970563Y-120985000D02*
X106515000Y-120985000D01*
X118525000Y-118185000D02*
X117275000Y-118185000D01*
X117035000Y-111529437D02*
X115970563Y-110465000D01*
X117900000Y-118810000D02*
X117900000Y-117560000D01*
X106515000Y-110465000D02*
X106515000Y-114515000D01*
X115970563Y-110465000D02*
X106515000Y-110465000D01*
X117035000Y-119920563D02*
X115970563Y-120985000D01*
X117035000Y-111529437D02*
X117035000Y-114515000D01*
%TO.C,J6*%
X221605800Y-69296000D02*
X221605800Y-70626000D01*
X216405800Y-70626000D02*
X216405800Y-55266000D01*
X219005800Y-70626000D02*
X216405800Y-70626000D01*
X221605800Y-70626000D02*
X220275800Y-70626000D01*
X219005800Y-68026000D02*
X219005800Y-70626000D01*
X221605800Y-68026000D02*
X219005800Y-68026000D01*
X221605800Y-55266000D02*
X216405800Y-55266000D01*
X221605800Y-68026000D02*
X221605800Y-55266000D01*
%TO.C,C4*%
X131335000Y-120935000D02*
X131335000Y-116885000D01*
X121879437Y-110415000D02*
X131335000Y-110415000D01*
X119950000Y-112590000D02*
X119950000Y-113840000D01*
X131335000Y-110415000D02*
X131335000Y-114465000D01*
X120815000Y-119870563D02*
X121879437Y-120935000D01*
X120815000Y-119870563D02*
X120815000Y-116885000D01*
X120815000Y-111479437D02*
X121879437Y-110415000D01*
X120815000Y-111479437D02*
X120815000Y-114465000D01*
X121879437Y-120935000D02*
X131335000Y-120935000D01*
X119325000Y-113215000D02*
X120575000Y-113215000D01*
%TO.C,R20*%
X212936064Y-66978334D02*
X211481936Y-66978334D01*
X212936064Y-65158334D02*
X211481936Y-65158334D01*
%TO.C,R26*%
X195438936Y-82534000D02*
X196893064Y-82534000D01*
X195438936Y-84354000D02*
X196893064Y-84354000D01*
%TO.C,D11*%
X119520000Y-56001000D02*
X123405000Y-56001000D01*
X123405000Y-56001000D02*
X123405000Y-53731000D01*
X123405000Y-53731000D02*
X119520000Y-53731000D01*
%TO.C,R6*%
X131842932Y-49456664D02*
X131842932Y-48002536D01*
X133662932Y-49456664D02*
X133662932Y-48002536D01*
D14*
%TO.C,IC2*%
X127971599Y-48779600D02*
X127971599Y-48679600D01*
X130891599Y-48779600D02*
X127971599Y-48779600D01*
X130891599Y-48679600D02*
X130891599Y-48779600D01*
X127931599Y-50429600D02*
X127931599Y-49129600D01*
X127971599Y-48679600D02*
X130891599Y-48679600D01*
D15*
%TO.C,C17*%
X130761252Y-61685000D02*
X129338748Y-61685000D01*
X130761252Y-58965000D02*
X129338748Y-58965000D01*
%TO.C,D10*%
X110429000Y-91641000D02*
X106544000Y-91641000D01*
X106544000Y-93911000D02*
X110429000Y-93911000D01*
X110429000Y-93911000D02*
X110429000Y-91641000D01*
%TO.C,C7*%
X138663748Y-93660000D02*
X140086252Y-93660000D01*
X138663748Y-90940000D02*
X140086252Y-90940000D01*
%TO.C,F2*%
X105089000Y-88254300D02*
X85023000Y-88254300D01*
X85023000Y-88254300D02*
X85023000Y-95239300D01*
X105089000Y-88254300D02*
X105089000Y-95239300D01*
X105089000Y-95239300D02*
X85023000Y-95239300D01*
%TO.C,R12*%
X196955064Y-122473800D02*
X195500936Y-122473800D01*
X196955064Y-120653800D02*
X195500936Y-120653800D01*
%TO.C,J13*%
X205613000Y-61789000D02*
X206943000Y-61789000D01*
X206943000Y-61789000D02*
X206943000Y-63119000D01*
X204343000Y-61789000D02*
X204343000Y-64449000D01*
X204343000Y-61789000D02*
X196663000Y-61789000D01*
X204343000Y-64449000D02*
X196663000Y-64449000D01*
X196663000Y-61789000D02*
X196663000Y-64449000D01*
%TO.C,U5*%
X202988600Y-69009000D02*
X200788600Y-69009000D01*
X202988600Y-69009000D02*
X205188600Y-69009000D01*
X202988600Y-74479000D02*
X200788600Y-74479000D01*
X202988600Y-74479000D02*
X206588600Y-74479000D01*
%TO.C,U7*%
X209129000Y-151434000D02*
X209129000Y-150784000D01*
X209129000Y-151434000D02*
X209129000Y-153109000D01*
X212249000Y-151434000D02*
X212249000Y-150784000D01*
X212249000Y-151434000D02*
X212249000Y-152084000D01*
%TO.C,C3*%
X136065000Y-79929437D02*
X137129437Y-78865000D01*
X137129437Y-78865000D02*
X146585000Y-78865000D01*
X136065000Y-88320563D02*
X137129437Y-89385000D01*
X135200000Y-81040000D02*
X135200000Y-82290000D01*
X136065000Y-88320563D02*
X136065000Y-85335000D01*
X137129437Y-89385000D02*
X146585000Y-89385000D01*
X134575000Y-81665000D02*
X135825000Y-81665000D01*
X136065000Y-79929437D02*
X136065000Y-82915000D01*
X146585000Y-78865000D02*
X146585000Y-82915000D01*
X146585000Y-89385000D02*
X146585000Y-85335000D01*
%TO.C,R5*%
X195614936Y-105846200D02*
X197069064Y-105846200D01*
X195614936Y-107666200D02*
X197069064Y-107666200D01*
%TO.C,F1*%
X114407000Y-153252367D02*
X114407000Y-146267367D01*
X94341000Y-153252367D02*
X114407000Y-153252367D01*
X94341000Y-146267367D02*
X114407000Y-146267367D01*
X94341000Y-153252367D02*
X94341000Y-146267367D01*
%TO.C,R2*%
X130724064Y-141283000D02*
X129269936Y-141283000D01*
X130724064Y-143103000D02*
X129269936Y-143103000D01*
%TO.C,R4*%
X141165000Y-120897936D02*
X141165000Y-122352064D01*
X139345000Y-120897936D02*
X139345000Y-122352064D01*
D13*
%TO.C,F7*%
X110995000Y-103515000D02*
X115935000Y-103515000D01*
X110995000Y-100475000D02*
X115935000Y-100475000D01*
D18*
%TO.C,RL1*%
X197868650Y-152702870D02*
X205368650Y-152702870D01*
X205368650Y-137702870D02*
X197868650Y-137702870D01*
X205366780Y-152698590D02*
X205366780Y-149782620D01*
X205371360Y-139629700D02*
X205366780Y-142973360D01*
X197870360Y-139616150D02*
X197865240Y-142967870D01*
X197876240Y-152705170D02*
X197870750Y-149785080D01*
D15*
%TO.C,D8*%
X194077000Y-117227000D02*
X197927000Y-117227000D01*
X194077000Y-117227000D02*
X194077000Y-119227000D01*
X194077000Y-119227000D02*
X197927000Y-119227000D01*
%TO.C,J12*%
X180739000Y-81171000D02*
X183339000Y-81171000D01*
X185939000Y-83771000D02*
X185939000Y-93991000D01*
X180739000Y-81171000D02*
X180739000Y-93991000D01*
X180739000Y-93991000D02*
X185939000Y-93991000D01*
X184609000Y-81171000D02*
X185939000Y-81171000D01*
X183339000Y-81171000D02*
X183339000Y-83771000D01*
X183339000Y-83771000D02*
X185939000Y-83771000D01*
X185939000Y-81171000D02*
X185939000Y-82501000D01*
D17*
%TO.C,J2*%
X117610000Y-55125000D02*
X95290000Y-55125000D01*
X95290000Y-55125000D02*
X95290000Y-47525000D01*
X117610000Y-47505000D02*
X95290000Y-47505000D01*
X117610000Y-55125000D02*
X117610000Y-47525000D01*
%TD*%
M02*
