%TF.GenerationSoftware,KiCad,Pcbnew,(6.0.10)*%
%TF.CreationDate,2023-02-22T22:59:29-05:00*%
%TF.ProjectId,System Management Board,53797374-656d-4204-9d61-6e6167656d65,rev?*%
%TF.SameCoordinates,Original*%
%TF.FileFunction,Drillmap*%
%TF.FilePolarity,Positive*%
%FSLAX45Y45*%
G04 Gerber Fmt 4.5, Leading zero omitted, Abs format (unit mm)*
G04 Created by KiCad (PCBNEW (6.0.10)) date 2023-02-22 22:59:29*
%MOMM*%
%LPD*%
G01*
G04 APERTURE LIST*
%ADD10C,0.250000*%
%ADD11C,0.200000*%
%ADD12C,0.160000*%
G04 APERTURE END LIST*
D10*
X8372500Y-10436514D02*
X7372500Y-11436514D01*
X19705833Y-15536514D02*
X21772500Y-15536514D01*
X8572500Y-15536513D02*
X17705833Y-15536514D01*
X19105833Y-14936514D02*
X19705833Y-15536514D01*
X19105833Y-5136514D02*
X18305833Y-5136514D01*
X8372500Y-9636514D02*
X8372500Y-10436514D01*
X21772500Y-15536514D02*
X22372500Y-14936514D01*
X21772500Y-4536514D02*
X19705833Y-4536514D01*
X7372500Y-14336514D02*
X8572500Y-15536513D01*
X17705833Y-4536514D02*
X8572500Y-4536514D01*
X22372500Y-14936514D02*
X22372500Y-5136514D01*
X7372500Y-8636514D02*
X8372500Y-9636514D01*
X19705833Y-4536514D02*
X19105833Y-5136514D01*
X7372500Y-5736514D02*
X7372500Y-8636514D01*
X18305833Y-14936514D02*
X19105833Y-14936514D01*
X18305833Y-5136514D02*
X17705833Y-4536514D01*
X19205833Y-10036514D02*
G75*
G03*
X19205833Y-10036514I-500000J0D01*
G01*
X7372500Y-11436514D02*
X7372500Y-14336514D01*
X8572500Y-4536514D02*
X7372500Y-5736514D01*
X22372500Y-5136514D02*
X21772500Y-4536514D01*
X17705833Y-15536514D02*
X18305833Y-14936514D01*
D11*
D12*
X20169680Y-4774240D02*
X20329680Y-4934240D01*
X20329680Y-4774240D02*
X20169680Y-4934240D01*
D11*
X7617619Y-15859490D02*
X7617619Y-15659490D01*
X7665238Y-15659490D01*
X7693809Y-15669014D01*
X7712857Y-15688061D01*
X7722381Y-15707109D01*
X7731905Y-15745204D01*
X7731905Y-15773776D01*
X7722381Y-15811871D01*
X7712857Y-15830918D01*
X7693809Y-15849966D01*
X7665238Y-15859490D01*
X7617619Y-15859490D01*
X7817619Y-15859490D02*
X7817619Y-15726157D01*
X7817619Y-15764252D02*
X7827143Y-15745204D01*
X7836667Y-15735680D01*
X7855714Y-15726157D01*
X7874762Y-15726157D01*
X7941428Y-15859490D02*
X7941428Y-15726157D01*
X7941428Y-15659490D02*
X7931905Y-15669014D01*
X7941428Y-15678538D01*
X7950952Y-15669014D01*
X7941428Y-15659490D01*
X7941428Y-15678538D01*
X8065238Y-15859490D02*
X8046190Y-15849966D01*
X8036667Y-15830918D01*
X8036667Y-15659490D01*
X8170000Y-15859490D02*
X8150952Y-15849966D01*
X8141428Y-15830918D01*
X8141428Y-15659490D01*
X8398571Y-15859490D02*
X8398571Y-15659490D01*
X8465238Y-15802347D01*
X8531905Y-15659490D01*
X8531905Y-15859490D01*
X8712857Y-15859490D02*
X8712857Y-15754728D01*
X8703333Y-15735680D01*
X8684286Y-15726157D01*
X8646190Y-15726157D01*
X8627143Y-15735680D01*
X8712857Y-15849966D02*
X8693810Y-15859490D01*
X8646190Y-15859490D01*
X8627143Y-15849966D01*
X8617619Y-15830918D01*
X8617619Y-15811871D01*
X8627143Y-15792823D01*
X8646190Y-15783299D01*
X8693810Y-15783299D01*
X8712857Y-15773776D01*
X8808095Y-15726157D02*
X8808095Y-15926157D01*
X8808095Y-15735680D02*
X8827143Y-15726157D01*
X8865238Y-15726157D01*
X8884286Y-15735680D01*
X8893810Y-15745204D01*
X8903333Y-15764252D01*
X8903333Y-15821395D01*
X8893810Y-15840442D01*
X8884286Y-15849966D01*
X8865238Y-15859490D01*
X8827143Y-15859490D01*
X8808095Y-15849966D01*
X8989048Y-15840442D02*
X8998571Y-15849966D01*
X8989048Y-15859490D01*
X8979524Y-15849966D01*
X8989048Y-15840442D01*
X8989048Y-15859490D01*
X8989048Y-15735680D02*
X8998571Y-15745204D01*
X8989048Y-15754728D01*
X8979524Y-15745204D01*
X8989048Y-15735680D01*
X8989048Y-15754728D01*
D12*
X7200000Y-16109014D02*
X7360000Y-16269014D01*
X7360000Y-16109014D02*
X7200000Y-16269014D01*
D11*
X7722381Y-16279490D02*
X7608095Y-16279490D01*
X7665238Y-16279490D02*
X7665238Y-16079490D01*
X7646190Y-16108061D01*
X7627143Y-16127109D01*
X7608095Y-16136633D01*
X7808095Y-16260442D02*
X7817619Y-16269966D01*
X7808095Y-16279490D01*
X7798571Y-16269966D01*
X7808095Y-16260442D01*
X7808095Y-16279490D01*
X7989048Y-16079490D02*
X7950952Y-16079490D01*
X7931905Y-16089014D01*
X7922381Y-16098538D01*
X7903333Y-16127109D01*
X7893809Y-16165204D01*
X7893809Y-16241395D01*
X7903333Y-16260442D01*
X7912857Y-16269966D01*
X7931905Y-16279490D01*
X7970000Y-16279490D01*
X7989048Y-16269966D01*
X7998571Y-16260442D01*
X8008095Y-16241395D01*
X8008095Y-16193776D01*
X7998571Y-16174728D01*
X7989048Y-16165204D01*
X7970000Y-16155680D01*
X7931905Y-16155680D01*
X7912857Y-16165204D01*
X7903333Y-16174728D01*
X7893809Y-16193776D01*
X8131905Y-16079490D02*
X8150952Y-16079490D01*
X8170000Y-16089014D01*
X8179524Y-16098538D01*
X8189048Y-16117585D01*
X8198571Y-16155680D01*
X8198571Y-16203299D01*
X8189048Y-16241395D01*
X8179524Y-16260442D01*
X8170000Y-16269966D01*
X8150952Y-16279490D01*
X8131905Y-16279490D01*
X8112857Y-16269966D01*
X8103333Y-16260442D01*
X8093809Y-16241395D01*
X8084286Y-16203299D01*
X8084286Y-16155680D01*
X8093809Y-16117585D01*
X8103333Y-16098538D01*
X8112857Y-16089014D01*
X8131905Y-16079490D01*
X8322381Y-16079490D02*
X8341428Y-16079490D01*
X8360476Y-16089014D01*
X8370000Y-16098538D01*
X8379524Y-16117585D01*
X8389048Y-16155680D01*
X8389048Y-16203299D01*
X8379524Y-16241395D01*
X8370000Y-16260442D01*
X8360476Y-16269966D01*
X8341428Y-16279490D01*
X8322381Y-16279490D01*
X8303333Y-16269966D01*
X8293809Y-16260442D01*
X8284286Y-16241395D01*
X8274762Y-16203299D01*
X8274762Y-16155680D01*
X8284286Y-16117585D01*
X8293809Y-16098538D01*
X8303333Y-16089014D01*
X8322381Y-16079490D01*
X8474762Y-16279490D02*
X8474762Y-16146157D01*
X8474762Y-16165204D02*
X8484286Y-16155680D01*
X8503333Y-16146157D01*
X8531905Y-16146157D01*
X8550952Y-16155680D01*
X8560476Y-16174728D01*
X8560476Y-16279490D01*
X8560476Y-16174728D02*
X8570000Y-16155680D01*
X8589048Y-16146157D01*
X8617619Y-16146157D01*
X8636667Y-16155680D01*
X8646190Y-16174728D01*
X8646190Y-16279490D01*
X8741429Y-16279490D02*
X8741429Y-16146157D01*
X8741429Y-16165204D02*
X8750952Y-16155680D01*
X8770000Y-16146157D01*
X8798571Y-16146157D01*
X8817619Y-16155680D01*
X8827143Y-16174728D01*
X8827143Y-16279490D01*
X8827143Y-16174728D02*
X8836667Y-16155680D01*
X8855714Y-16146157D01*
X8884286Y-16146157D01*
X8903333Y-16155680D01*
X8912857Y-16174728D01*
X8912857Y-16279490D01*
X9303333Y-16069966D02*
X9131905Y-16327109D01*
X9560476Y-16079490D02*
X9579524Y-16079490D01*
X9598571Y-16089014D01*
X9608095Y-16098538D01*
X9617619Y-16117585D01*
X9627143Y-16155680D01*
X9627143Y-16203299D01*
X9617619Y-16241395D01*
X9608095Y-16260442D01*
X9598571Y-16269966D01*
X9579524Y-16279490D01*
X9560476Y-16279490D01*
X9541429Y-16269966D01*
X9531905Y-16260442D01*
X9522381Y-16241395D01*
X9512857Y-16203299D01*
X9512857Y-16155680D01*
X9522381Y-16117585D01*
X9531905Y-16098538D01*
X9541429Y-16089014D01*
X9560476Y-16079490D01*
X9712857Y-16260442D02*
X9722381Y-16269966D01*
X9712857Y-16279490D01*
X9703333Y-16269966D01*
X9712857Y-16260442D01*
X9712857Y-16279490D01*
X9846190Y-16079490D02*
X9865238Y-16079490D01*
X9884286Y-16089014D01*
X9893810Y-16098538D01*
X9903333Y-16117585D01*
X9912857Y-16155680D01*
X9912857Y-16203299D01*
X9903333Y-16241395D01*
X9893810Y-16260442D01*
X9884286Y-16269966D01*
X9865238Y-16279490D01*
X9846190Y-16279490D01*
X9827143Y-16269966D01*
X9817619Y-16260442D01*
X9808095Y-16241395D01*
X9798571Y-16203299D01*
X9798571Y-16155680D01*
X9808095Y-16117585D01*
X9817619Y-16098538D01*
X9827143Y-16089014D01*
X9846190Y-16079490D01*
X10084286Y-16079490D02*
X10046190Y-16079490D01*
X10027143Y-16089014D01*
X10017619Y-16098538D01*
X9998571Y-16127109D01*
X9989048Y-16165204D01*
X9989048Y-16241395D01*
X9998571Y-16260442D01*
X10008095Y-16269966D01*
X10027143Y-16279490D01*
X10065238Y-16279490D01*
X10084286Y-16269966D01*
X10093810Y-16260442D01*
X10103333Y-16241395D01*
X10103333Y-16193776D01*
X10093810Y-16174728D01*
X10084286Y-16165204D01*
X10065238Y-16155680D01*
X10027143Y-16155680D01*
X10008095Y-16165204D01*
X9998571Y-16174728D01*
X9989048Y-16193776D01*
X10170000Y-16079490D02*
X10293810Y-16079490D01*
X10227143Y-16155680D01*
X10255714Y-16155680D01*
X10274762Y-16165204D01*
X10284286Y-16174728D01*
X10293810Y-16193776D01*
X10293810Y-16241395D01*
X10284286Y-16260442D01*
X10274762Y-16269966D01*
X10255714Y-16279490D01*
X10198571Y-16279490D01*
X10179524Y-16269966D01*
X10170000Y-16260442D01*
X10417619Y-16079490D02*
X10436667Y-16079490D01*
X10455714Y-16089014D01*
X10465238Y-16098538D01*
X10474762Y-16117585D01*
X10484286Y-16155680D01*
X10484286Y-16203299D01*
X10474762Y-16241395D01*
X10465238Y-16260442D01*
X10455714Y-16269966D01*
X10436667Y-16279490D01*
X10417619Y-16279490D01*
X10398571Y-16269966D01*
X10389048Y-16260442D01*
X10379524Y-16241395D01*
X10370000Y-16203299D01*
X10370000Y-16155680D01*
X10379524Y-16117585D01*
X10389048Y-16098538D01*
X10398571Y-16089014D01*
X10417619Y-16079490D01*
X10560476Y-16079490D02*
X10560476Y-16117585D01*
X10636667Y-16079490D02*
X10636667Y-16117585D01*
X10931905Y-16355680D02*
X10922381Y-16346157D01*
X10903333Y-16317585D01*
X10893810Y-16298538D01*
X10884286Y-16269966D01*
X10874762Y-16222347D01*
X10874762Y-16184252D01*
X10884286Y-16136633D01*
X10893810Y-16108061D01*
X10903333Y-16089014D01*
X10922381Y-16060442D01*
X10931905Y-16050918D01*
X11112857Y-16279490D02*
X10998571Y-16279490D01*
X11055714Y-16279490D02*
X11055714Y-16079490D01*
X11036667Y-16108061D01*
X11017619Y-16127109D01*
X10998571Y-16136633D01*
X11350952Y-16279490D02*
X11350952Y-16079490D01*
X11436667Y-16279490D02*
X11436667Y-16174728D01*
X11427143Y-16155680D01*
X11408095Y-16146157D01*
X11379524Y-16146157D01*
X11360476Y-16155680D01*
X11350952Y-16165204D01*
X11560476Y-16279490D02*
X11541428Y-16269966D01*
X11531905Y-16260442D01*
X11522381Y-16241395D01*
X11522381Y-16184252D01*
X11531905Y-16165204D01*
X11541428Y-16155680D01*
X11560476Y-16146157D01*
X11589048Y-16146157D01*
X11608095Y-16155680D01*
X11617619Y-16165204D01*
X11627143Y-16184252D01*
X11627143Y-16241395D01*
X11617619Y-16260442D01*
X11608095Y-16269966D01*
X11589048Y-16279490D01*
X11560476Y-16279490D01*
X11741428Y-16279490D02*
X11722381Y-16269966D01*
X11712857Y-16250918D01*
X11712857Y-16079490D01*
X11893809Y-16269966D02*
X11874762Y-16279490D01*
X11836667Y-16279490D01*
X11817619Y-16269966D01*
X11808095Y-16250918D01*
X11808095Y-16174728D01*
X11817619Y-16155680D01*
X11836667Y-16146157D01*
X11874762Y-16146157D01*
X11893809Y-16155680D01*
X11903333Y-16174728D01*
X11903333Y-16193776D01*
X11808095Y-16212823D01*
X11970000Y-16355680D02*
X11979524Y-16346157D01*
X11998571Y-16317585D01*
X12008095Y-16298538D01*
X12017619Y-16269966D01*
X12027143Y-16222347D01*
X12027143Y-16184252D01*
X12017619Y-16136633D01*
X12008095Y-16108061D01*
X11998571Y-16089014D01*
X11979524Y-16060442D01*
X11970000Y-16050918D01*
X12331905Y-16355680D02*
X12322381Y-16346157D01*
X12303333Y-16317585D01*
X12293809Y-16298538D01*
X12284286Y-16269966D01*
X12274762Y-16222347D01*
X12274762Y-16184252D01*
X12284286Y-16136633D01*
X12293809Y-16108061D01*
X12303333Y-16089014D01*
X12322381Y-16060442D01*
X12331905Y-16050918D01*
X12408095Y-16146157D02*
X12408095Y-16279490D01*
X12408095Y-16165204D02*
X12417619Y-16155680D01*
X12436667Y-16146157D01*
X12465238Y-16146157D01*
X12484286Y-16155680D01*
X12493809Y-16174728D01*
X12493809Y-16279490D01*
X12617619Y-16279490D02*
X12598571Y-16269966D01*
X12589048Y-16260442D01*
X12579524Y-16241395D01*
X12579524Y-16184252D01*
X12589048Y-16165204D01*
X12598571Y-16155680D01*
X12617619Y-16146157D01*
X12646190Y-16146157D01*
X12665238Y-16155680D01*
X12674762Y-16165204D01*
X12684286Y-16184252D01*
X12684286Y-16241395D01*
X12674762Y-16260442D01*
X12665238Y-16269966D01*
X12646190Y-16279490D01*
X12617619Y-16279490D01*
X12741428Y-16146157D02*
X12817619Y-16146157D01*
X12770000Y-16079490D02*
X12770000Y-16250918D01*
X12779524Y-16269966D01*
X12798571Y-16279490D01*
X12817619Y-16279490D01*
X13036667Y-16146157D02*
X13036667Y-16346157D01*
X13036667Y-16155680D02*
X13055714Y-16146157D01*
X13093809Y-16146157D01*
X13112857Y-16155680D01*
X13122381Y-16165204D01*
X13131905Y-16184252D01*
X13131905Y-16241395D01*
X13122381Y-16260442D01*
X13112857Y-16269966D01*
X13093809Y-16279490D01*
X13055714Y-16279490D01*
X13036667Y-16269966D01*
X13246190Y-16279490D02*
X13227143Y-16269966D01*
X13217619Y-16250918D01*
X13217619Y-16079490D01*
X13408095Y-16279490D02*
X13408095Y-16174728D01*
X13398571Y-16155680D01*
X13379524Y-16146157D01*
X13341428Y-16146157D01*
X13322381Y-16155680D01*
X13408095Y-16269966D02*
X13389048Y-16279490D01*
X13341428Y-16279490D01*
X13322381Y-16269966D01*
X13312857Y-16250918D01*
X13312857Y-16231871D01*
X13322381Y-16212823D01*
X13341428Y-16203299D01*
X13389048Y-16203299D01*
X13408095Y-16193776D01*
X13474762Y-16146157D02*
X13550952Y-16146157D01*
X13503333Y-16079490D02*
X13503333Y-16250918D01*
X13512857Y-16269966D01*
X13531905Y-16279490D01*
X13550952Y-16279490D01*
X13693809Y-16269966D02*
X13674762Y-16279490D01*
X13636667Y-16279490D01*
X13617619Y-16269966D01*
X13608095Y-16250918D01*
X13608095Y-16174728D01*
X13617619Y-16155680D01*
X13636667Y-16146157D01*
X13674762Y-16146157D01*
X13693809Y-16155680D01*
X13703333Y-16174728D01*
X13703333Y-16193776D01*
X13608095Y-16212823D01*
X13874762Y-16279490D02*
X13874762Y-16079490D01*
X13874762Y-16269966D02*
X13855714Y-16279490D01*
X13817619Y-16279490D01*
X13798571Y-16269966D01*
X13789048Y-16260442D01*
X13779524Y-16241395D01*
X13779524Y-16184252D01*
X13789048Y-16165204D01*
X13798571Y-16155680D01*
X13817619Y-16146157D01*
X13855714Y-16146157D01*
X13874762Y-16155680D01*
X13950952Y-16355680D02*
X13960476Y-16346157D01*
X13979524Y-16317585D01*
X13989048Y-16298538D01*
X13998571Y-16269966D01*
X14008095Y-16222347D01*
X14008095Y-16184252D01*
X13998571Y-16136633D01*
X13989048Y-16108061D01*
X13979524Y-16089014D01*
X13960476Y-16060442D01*
X13950952Y-16050918D01*
M02*
