%TF.GenerationSoftware,KiCad,Pcbnew,(6.0.10)*%
%TF.CreationDate,2023-02-22T22:59:34-05:00*%
%TF.ProjectId,System Management Board,53797374-656d-4204-9d61-6e6167656d65,rev?*%
%TF.SameCoordinates,Original*%
%TF.FileFunction,Soldermask,Bot*%
%TF.FilePolarity,Negative*%
%FSLAX46Y46*%
G04 Gerber Fmt 4.6, Leading zero omitted, Abs format (unit mm)*
G04 Created by KiCad (PCBNEW (6.0.10)) date 2023-02-22 22:59:34*
%MOMM*%
%LPD*%
G01*
G04 APERTURE LIST*
G04 Aperture macros list*
%AMRoundRect*
0 Rectangle with rounded corners*
0 $1 Rounding radius*
0 $2 $3 $4 $5 $6 $7 $8 $9 X,Y pos of 4 corners*
0 Add a 4 corners polygon primitive as box body*
4,1,4,$2,$3,$4,$5,$6,$7,$8,$9,$2,$3,0*
0 Add four circle primitives for the rounded corners*
1,1,$1+$1,$2,$3*
1,1,$1+$1,$4,$5*
1,1,$1+$1,$6,$7*
1,1,$1+$1,$8,$9*
0 Add four rect primitives between the rounded corners*
20,1,$1+$1,$2,$3,$4,$5,0*
20,1,$1+$1,$4,$5,$6,$7,0*
20,1,$1+$1,$6,$7,$8,$9,0*
20,1,$1+$1,$8,$9,$2,$3,0*%
G04 Aperture macros list end*
%ADD10C,1.701800*%
%ADD11R,2.108200X2.108200*%
%ADD12C,2.108200*%
%ADD13R,1.700000X1.700000*%
%ADD14O,1.700000X1.700000*%
%ADD15C,1.600000*%
%ADD16O,4.500000X2.250000*%
%ADD17O,4.000000X2.000000*%
%ADD18O,2.000000X4.000000*%
%ADD19C,5.000000*%
%ADD20RoundRect,0.500000X-0.500000X0.500000X-0.500000X-0.500000X0.500000X-0.500000X0.500000X0.500000X0*%
%ADD21C,2.000000*%
%ADD22O,2.000000X3.000000*%
%ADD23R,3.000000X2.000000*%
%ADD24O,3.000000X2.000000*%
%ADD25C,1.574800*%
%ADD26C,5.600000*%
%ADD27C,2.540000*%
%ADD28R,1.830000X1.830000*%
%ADD29C,1.830000*%
%ADD30C,2.590000*%
%ADD31R,1.000000X1.500000*%
G04 APERTURE END LIST*
D10*
%TO.C,J9*%
X185658698Y-117012299D03*
X189158701Y-117012299D03*
%TD*%
D11*
%TO.C,F9*%
X151395000Y-135000000D03*
D12*
X151395000Y-138403600D03*
X164857000Y-138403600D03*
X164857000Y-135000000D03*
%TD*%
D11*
%TO.C,F3*%
X88395000Y-98424999D03*
D12*
X88395000Y-101828599D03*
X101857000Y-101828599D03*
X101857000Y-98424999D03*
%TD*%
D13*
%TO.C,J11*%
X202468300Y-85196001D03*
D14*
X205008300Y-85196001D03*
X202468300Y-87736001D03*
X205008300Y-87736001D03*
X202468300Y-90276001D03*
X205008300Y-90276001D03*
X202468300Y-92816001D03*
X205008300Y-92816001D03*
X202468300Y-95356001D03*
X205008300Y-95356001D03*
X202468300Y-97896001D03*
X205008300Y-97896001D03*
X202468300Y-100436001D03*
X205008300Y-100436001D03*
X202468300Y-102976001D03*
X205008300Y-102976001D03*
X202468300Y-105516001D03*
X205008300Y-105516001D03*
X202468300Y-108056001D03*
X205008300Y-108056001D03*
X202468300Y-110596001D03*
X205008300Y-110596001D03*
X202468300Y-113136001D03*
X205008300Y-113136001D03*
X202468300Y-115676001D03*
X205008300Y-115676001D03*
X202468300Y-118216001D03*
X205008300Y-118216001D03*
X202468300Y-120756001D03*
X205008300Y-120756001D03*
X202468300Y-123296001D03*
X205008300Y-123296001D03*
X202468300Y-125836001D03*
X205008300Y-125836001D03*
X202468300Y-128376001D03*
X205008300Y-128376001D03*
X202468300Y-130916001D03*
X205008300Y-130916001D03*
X202468300Y-133456001D03*
X205008300Y-133456001D03*
%TD*%
D10*
%TO.C,J10*%
X187907998Y-56436000D03*
X191408001Y-56436000D03*
%TD*%
D11*
%TO.C,F8*%
X151395000Y-114730000D03*
D12*
X151395000Y-118133600D03*
X164857000Y-118133600D03*
X164857000Y-114730000D03*
%TD*%
D10*
%TO.C,J5*%
X174143498Y-107000799D03*
X177643501Y-107000799D03*
%TD*%
D13*
%TO.C,JP2*%
X210828900Y-55546800D03*
D14*
X213368900Y-55546800D03*
%TD*%
D15*
%TO.C,J4*%
X202496800Y-48542400D03*
D16*
X202496800Y-57542400D03*
D17*
X202496800Y-51542400D03*
D18*
X197996800Y-50542400D03*
X206996800Y-50542400D03*
%TD*%
D11*
%TO.C,F5*%
X151395000Y-124865000D03*
D12*
X151395000Y-128268600D03*
X164857000Y-128268600D03*
X164857000Y-124865000D03*
%TD*%
D13*
%TO.C,J7*%
X210886800Y-85221800D03*
D14*
X213426800Y-85221800D03*
X210886800Y-87761800D03*
X213426800Y-87761800D03*
X210886800Y-90301800D03*
X213426800Y-90301800D03*
X210886800Y-92841800D03*
X213426800Y-92841800D03*
X210886800Y-95381800D03*
X213426800Y-95381800D03*
X210886800Y-97921800D03*
X213426800Y-97921800D03*
X210886800Y-100461800D03*
X213426800Y-100461800D03*
X210886800Y-103001800D03*
X213426800Y-103001800D03*
X210886800Y-105541800D03*
X213426800Y-105541800D03*
X210886800Y-108081800D03*
X213426800Y-108081800D03*
X210886800Y-110621800D03*
X213426800Y-110621800D03*
X210886800Y-113161800D03*
X213426800Y-113161800D03*
X210886800Y-115701800D03*
X213426800Y-115701800D03*
X210886800Y-118241800D03*
X213426800Y-118241800D03*
X210886800Y-120781800D03*
X213426800Y-120781800D03*
X210886800Y-123321800D03*
X213426800Y-123321800D03*
X210886800Y-125861800D03*
X213426800Y-125861800D03*
X210886800Y-128401800D03*
X213426800Y-128401800D03*
X210886800Y-130941800D03*
X213426800Y-130941800D03*
X210886800Y-133481800D03*
X213426800Y-133481800D03*
%TD*%
D19*
%TO.C,K1*%
X81015000Y-123440000D03*
X98815000Y-113300000D03*
X98815000Y-120900000D03*
D20*
X84815000Y-136100000D03*
D21*
X95015000Y-136100000D03*
%TD*%
D22*
%TO.C,K3*%
X98735000Y-68105000D03*
X98735000Y-60605000D03*
X93695000Y-60605000D03*
X93695000Y-68105000D03*
X103775000Y-68105000D03*
X103775000Y-60605000D03*
D23*
X78435000Y-68105000D03*
D24*
X78435000Y-60605000D03*
%TD*%
D22*
%TO.C,K2*%
X98615000Y-75550000D03*
X98615000Y-83050000D03*
X93575000Y-83050000D03*
X93575000Y-75550000D03*
X103655000Y-83050000D03*
X103655000Y-75550000D03*
D23*
X78315000Y-83050000D03*
D24*
X78315000Y-75550000D03*
%TD*%
D11*
%TO.C,F4*%
X151395000Y-104595000D03*
D12*
X151395000Y-107998600D03*
X164857000Y-107998600D03*
X164857000Y-104595000D03*
%TD*%
D13*
%TO.C,JP1*%
X210918800Y-48942800D03*
D14*
X210918800Y-51482800D03*
%TD*%
D25*
%TO.C,U2*%
X174870000Y-150635000D03*
X172330000Y-150635000D03*
X169790000Y-150635000D03*
%TD*%
D10*
%TO.C,J3*%
X174143498Y-127023799D03*
X177643501Y-127023799D03*
%TD*%
D26*
%TO.C,H2*%
X216725000Y-50350000D03*
%TD*%
D25*
%TO.C,U3*%
X160470000Y-150635000D03*
X157930000Y-150635000D03*
X155390000Y-150635000D03*
%TD*%
D10*
%TO.C,J8*%
X185658698Y-137035301D03*
X189158701Y-137035301D03*
%TD*%
D27*
%TO.C,J1*%
X141595000Y-148875000D03*
X136515000Y-148875000D03*
X131435000Y-148875000D03*
X126355000Y-148875000D03*
%TD*%
D13*
%TO.C,J6*%
X220275800Y-69296000D03*
D14*
X217735800Y-69296000D03*
X220275800Y-66756000D03*
X217735800Y-66756000D03*
X220275800Y-64216000D03*
X217735800Y-64216000D03*
X220275800Y-61676000D03*
X217735800Y-61676000D03*
X220275800Y-59136000D03*
X217735800Y-59136000D03*
X220275800Y-56596000D03*
X217735800Y-56596000D03*
%TD*%
D26*
%TO.C,H4*%
X216725000Y-150350000D03*
%TD*%
%TO.C,H1*%
X86725000Y-50350000D03*
%TD*%
%TO.C,H3*%
X86725000Y-150350000D03*
%TD*%
D11*
%TO.C,F2*%
X88325000Y-90045000D03*
D12*
X88325000Y-93448600D03*
X101787000Y-93448600D03*
X101787000Y-90045000D03*
%TD*%
D13*
%TO.C,J13*%
X205613000Y-63119000D03*
D14*
X203073000Y-63119000D03*
X200533000Y-63119000D03*
X197993000Y-63119000D03*
%TD*%
D11*
%TO.C,F1*%
X111105000Y-151461667D03*
D12*
X111105000Y-148058067D03*
X97643000Y-148058067D03*
X97643000Y-151461667D03*
%TD*%
D13*
%TO.C,J12*%
X184609000Y-82501000D03*
D14*
X182069000Y-82501000D03*
X184609000Y-85041000D03*
X182069000Y-85041000D03*
X184609000Y-87581000D03*
X182069000Y-87581000D03*
X184609000Y-90121000D03*
X182069000Y-90121000D03*
X184609000Y-92661000D03*
X182069000Y-92661000D03*
%TD*%
D27*
%TO.C,J2*%
X114070000Y-51325000D03*
X108990000Y-51325000D03*
X103910000Y-51325000D03*
X98830000Y-51325000D03*
%TD*%
D28*
%TO.C,PS1*%
X134285000Y-92225000D03*
D29*
X126665000Y-92225000D03*
X119045000Y-92225000D03*
D30*
X119045000Y-64285000D03*
D29*
X122855000Y-64285000D03*
X126665000Y-64285000D03*
X130475000Y-64285000D03*
D30*
X134285000Y-64285000D03*
D29*
X119045000Y-80155000D03*
X119045000Y-76345000D03*
%TD*%
D31*
%TO.C,JP3*%
X163460000Y-73533000D03*
X162160000Y-73533000D03*
%TD*%
D28*
%TO.C,PS2*%
X119055000Y-107625000D03*
D29*
X126675000Y-107625000D03*
X134295000Y-107625000D03*
D30*
X134295000Y-135565000D03*
D29*
X130485000Y-135565000D03*
X126675000Y-135565000D03*
X122865000Y-135565000D03*
D30*
X119055000Y-135565000D03*
D29*
X134295000Y-119695000D03*
X134295000Y-123505000D03*
%TD*%
D31*
%TO.C,JP4*%
X163460000Y-76097000D03*
X162160000Y-76097000D03*
%TD*%
M02*
