%TF.GenerationSoftware,KiCad,Pcbnew,(6.0.10)*%
%TF.CreationDate,2023-02-22T22:59:34-05:00*%
%TF.ProjectId,System Management Board,53797374-656d-4204-9d61-6e6167656d65,rev?*%
%TF.SameCoordinates,Original*%
%TF.FileFunction,Soldermask,Top*%
%TF.FilePolarity,Negative*%
%FSLAX46Y46*%
G04 Gerber Fmt 4.6, Leading zero omitted, Abs format (unit mm)*
G04 Created by KiCad (PCBNEW (6.0.10)) date 2023-02-22 22:59:34*
%MOMM*%
%LPD*%
G01*
G04 APERTURE LIST*
G04 Aperture macros list*
%AMRoundRect*
0 Rectangle with rounded corners*
0 $1 Rounding radius*
0 $2 $3 $4 $5 $6 $7 $8 $9 X,Y pos of 4 corners*
0 Add a 4 corners polygon primitive as box body*
4,1,4,$2,$3,$4,$5,$6,$7,$8,$9,$2,$3,0*
0 Add four circle primitives for the rounded corners*
1,1,$1+$1,$2,$3*
1,1,$1+$1,$4,$5*
1,1,$1+$1,$6,$7*
1,1,$1+$1,$8,$9*
0 Add four rect primitives between the rounded corners*
20,1,$1+$1,$2,$3,$4,$5,0*
20,1,$1+$1,$4,$5,$6,$7,0*
20,1,$1+$1,$6,$7,$8,$9,0*
20,1,$1+$1,$8,$9,$2,$3,0*%
G04 Aperture macros list end*
%ADD10C,0.010000*%
%ADD11R,1.400000X1.600000*%
%ADD12C,1.701800*%
%ADD13RoundRect,0.250001X-0.462499X-0.624999X0.462499X-0.624999X0.462499X0.624999X-0.462499X0.624999X0*%
%ADD14R,2.108200X2.108200*%
%ADD15C,2.108200*%
%ADD16RoundRect,0.250000X0.312500X0.625000X-0.312500X0.625000X-0.312500X-0.625000X0.312500X-0.625000X0*%
%ADD17RoundRect,0.250000X-0.312500X-0.625000X0.312500X-0.625000X0.312500X0.625000X-0.312500X0.625000X0*%
%ADD18RoundRect,0.150000X0.587500X0.150000X-0.587500X0.150000X-0.587500X-0.150000X0.587500X-0.150000X0*%
%ADD19RoundRect,0.250000X1.100000X-0.325000X1.100000X0.325000X-1.100000X0.325000X-1.100000X-0.325000X0*%
%ADD20RoundRect,0.250000X-1.950000X-0.700000X1.950000X-0.700000X1.950000X0.700000X-1.950000X0.700000X0*%
%ADD21RoundRect,0.150000X-0.150000X0.512500X-0.150000X-0.512500X0.150000X-0.512500X0.150000X0.512500X0*%
%ADD22RoundRect,0.250000X-0.625000X0.375000X-0.625000X-0.375000X0.625000X-0.375000X0.625000X0.375000X0*%
%ADD23R,1.700000X1.700000*%
%ADD24O,1.700000X1.700000*%
%ADD25RoundRect,0.250000X-1.100000X0.325000X-1.100000X-0.325000X1.100000X-0.325000X1.100000X0.325000X0*%
%ADD26R,1.100000X1.100000*%
%ADD27RoundRect,0.250000X1.950000X0.700000X-1.950000X0.700000X-1.950000X-0.700000X1.950000X-0.700000X0*%
%ADD28RoundRect,0.250000X-0.375000X-0.625000X0.375000X-0.625000X0.375000X0.625000X-0.375000X0.625000X0*%
%ADD29RoundRect,0.250000X0.625000X-0.312500X0.625000X0.312500X-0.625000X0.312500X-0.625000X-0.312500X0*%
%ADD30C,1.600000*%
%ADD31O,4.500000X2.250000*%
%ADD32O,4.000000X2.000000*%
%ADD33O,2.000000X4.000000*%
%ADD34R,2.500000X1.800000*%
%ADD35C,5.000000*%
%ADD36RoundRect,0.500000X-0.500000X0.500000X-0.500000X-0.500000X0.500000X-0.500000X0.500000X0.500000X0*%
%ADD37C,2.000000*%
%ADD38RoundRect,0.250000X0.325000X1.100000X-0.325000X1.100000X-0.325000X-1.100000X0.325000X-1.100000X0*%
%ADD39O,2.000000X3.000000*%
%ADD40R,3.000000X2.000000*%
%ADD41O,3.000000X2.000000*%
%ADD42O,1.100000X1.800000*%
%ADD43O,1.050000X1.450000*%
%ADD44RoundRect,0.450000X-0.300000X-0.300000X0.300000X-0.300000X0.300000X0.300000X-0.300000X0.300000X0*%
%ADD45RoundRect,0.250000X0.625000X-0.375000X0.625000X0.375000X-0.625000X0.375000X-0.625000X-0.375000X0*%
%ADD46R,0.600000X1.300000*%
%ADD47RoundRect,0.250000X-0.650000X0.325000X-0.650000X-0.325000X0.650000X-0.325000X0.650000X0.325000X0*%
%ADD48C,1.574800*%
%ADD49RoundRect,0.250000X-0.325000X-1.100000X0.325000X-1.100000X0.325000X1.100000X-0.325000X1.100000X0*%
%ADD50RoundRect,0.250000X0.650000X-0.325000X0.650000X0.325000X-0.650000X0.325000X-0.650000X-0.325000X0*%
%ADD51C,5.600000*%
%ADD52R,1.800000X2.500000*%
%ADD53RoundRect,0.250000X0.375000X0.625000X-0.375000X0.625000X-0.375000X-0.625000X0.375000X-0.625000X0*%
%ADD54RoundRect,0.250000X-0.325000X-0.650000X0.325000X-0.650000X0.325000X0.650000X-0.325000X0.650000X0*%
%ADD55R,2.620000X3.200000*%
%ADD56C,2.540000*%
%ADD57RoundRect,0.100000X0.637500X0.100000X-0.637500X0.100000X-0.637500X-0.100000X0.637500X-0.100000X0*%
%ADD58RoundRect,0.150000X0.150000X-0.587500X0.150000X0.587500X-0.150000X0.587500X-0.150000X-0.587500X0*%
%ADD59RoundRect,0.250000X-0.625000X0.312500X-0.625000X-0.312500X0.625000X-0.312500X0.625000X0.312500X0*%
%ADD60R,3.000000X1.100000*%
%ADD61R,1.830000X1.830000*%
%ADD62C,1.830000*%
%ADD63C,2.590000*%
G04 APERTURE END LIST*
%TO.C,U1*%
G36*
X177120000Y-79535000D02*
G01*
X174004000Y-79535000D01*
X173989000Y-79533000D01*
X173973000Y-79531000D01*
X173958000Y-79528000D01*
X173942000Y-79525000D01*
X173912000Y-79515000D01*
X173898000Y-79509000D01*
X173870000Y-79495000D01*
X173857000Y-79487000D01*
X173844000Y-79478000D01*
X173831000Y-79468000D01*
X173819000Y-79458000D01*
X173797000Y-79436000D01*
X173787000Y-79424000D01*
X173777000Y-79411000D01*
X173768000Y-79398000D01*
X173760000Y-79385000D01*
X173746000Y-79357000D01*
X173740000Y-79343000D01*
X173730000Y-79313000D01*
X173727000Y-79297000D01*
X173724000Y-79282000D01*
X173722000Y-79266000D01*
X173720000Y-79251000D01*
X173720000Y-78019000D01*
X173722000Y-78004000D01*
X173724000Y-77988000D01*
X173727000Y-77973000D01*
X173730000Y-77957000D01*
X173740000Y-77927000D01*
X173746000Y-77913000D01*
X173760000Y-77885000D01*
X173768000Y-77872000D01*
X173777000Y-77859000D01*
X173787000Y-77846000D01*
X173797000Y-77834000D01*
X173819000Y-77812000D01*
X173831000Y-77802000D01*
X173844000Y-77792000D01*
X173857000Y-77783000D01*
X173870000Y-77775000D01*
X173898000Y-77761000D01*
X173912000Y-77755000D01*
X173942000Y-77745000D01*
X173958000Y-77742000D01*
X173973000Y-77739000D01*
X173989000Y-77737000D01*
X174004000Y-77735000D01*
X177120000Y-77735000D01*
X177120000Y-79535000D01*
G37*
D10*
X177120000Y-79535000D02*
X174004000Y-79535000D01*
X173989000Y-79533000D01*
X173973000Y-79531000D01*
X173958000Y-79528000D01*
X173942000Y-79525000D01*
X173912000Y-79515000D01*
X173898000Y-79509000D01*
X173870000Y-79495000D01*
X173857000Y-79487000D01*
X173844000Y-79478000D01*
X173831000Y-79468000D01*
X173819000Y-79458000D01*
X173797000Y-79436000D01*
X173787000Y-79424000D01*
X173777000Y-79411000D01*
X173768000Y-79398000D01*
X173760000Y-79385000D01*
X173746000Y-79357000D01*
X173740000Y-79343000D01*
X173730000Y-79313000D01*
X173727000Y-79297000D01*
X173724000Y-79282000D01*
X173722000Y-79266000D01*
X173720000Y-79251000D01*
X173720000Y-78019000D01*
X173722000Y-78004000D01*
X173724000Y-77988000D01*
X173727000Y-77973000D01*
X173730000Y-77957000D01*
X173740000Y-77927000D01*
X173746000Y-77913000D01*
X173760000Y-77885000D01*
X173768000Y-77872000D01*
X173777000Y-77859000D01*
X173787000Y-77846000D01*
X173797000Y-77834000D01*
X173819000Y-77812000D01*
X173831000Y-77802000D01*
X173844000Y-77792000D01*
X173857000Y-77783000D01*
X173870000Y-77775000D01*
X173898000Y-77761000D01*
X173912000Y-77755000D01*
X173942000Y-77745000D01*
X173958000Y-77742000D01*
X173973000Y-77739000D01*
X173989000Y-77737000D01*
X174004000Y-77735000D01*
X177120000Y-77735000D01*
X177120000Y-79535000D01*
G36*
X177120000Y-94775000D02*
G01*
X174620000Y-94775000D01*
X174573000Y-94774000D01*
X174526000Y-94770000D01*
X174479000Y-94764000D01*
X174433000Y-94755000D01*
X174387000Y-94744000D01*
X174342000Y-94731000D01*
X174297000Y-94715000D01*
X174254000Y-94697000D01*
X174211000Y-94677000D01*
X174170000Y-94654000D01*
X174130000Y-94630000D01*
X174091000Y-94603000D01*
X174054000Y-94574000D01*
X174018000Y-94544000D01*
X173984000Y-94511000D01*
X173951000Y-94477000D01*
X173921000Y-94441000D01*
X173892000Y-94404000D01*
X173865000Y-94365000D01*
X173841000Y-94325000D01*
X173818000Y-94284000D01*
X173798000Y-94241000D01*
X173780000Y-94198000D01*
X173764000Y-94153000D01*
X173751000Y-94108000D01*
X173740000Y-94062000D01*
X173731000Y-94016000D01*
X173725000Y-93969000D01*
X173721000Y-93922000D01*
X173720000Y-93875000D01*
X173721000Y-93828000D01*
X173725000Y-93781000D01*
X173731000Y-93734000D01*
X173740000Y-93688000D01*
X173751000Y-93642000D01*
X173764000Y-93597000D01*
X173780000Y-93552000D01*
X173798000Y-93509000D01*
X173818000Y-93466000D01*
X173841000Y-93425000D01*
X173865000Y-93385000D01*
X173892000Y-93346000D01*
X173921000Y-93309000D01*
X173951000Y-93273000D01*
X173984000Y-93239000D01*
X174018000Y-93206000D01*
X174054000Y-93176000D01*
X174091000Y-93147000D01*
X174130000Y-93120000D01*
X174170000Y-93096000D01*
X174211000Y-93073000D01*
X174254000Y-93053000D01*
X174297000Y-93035000D01*
X174342000Y-93019000D01*
X174387000Y-93006000D01*
X174433000Y-92995000D01*
X174479000Y-92986000D01*
X174526000Y-92980000D01*
X174573000Y-92976000D01*
X174620000Y-92975000D01*
X177120000Y-92975000D01*
X177120000Y-94775000D01*
G37*
X177120000Y-94775000D02*
X174620000Y-94775000D01*
X174573000Y-94774000D01*
X174526000Y-94770000D01*
X174479000Y-94764000D01*
X174433000Y-94755000D01*
X174387000Y-94744000D01*
X174342000Y-94731000D01*
X174297000Y-94715000D01*
X174254000Y-94697000D01*
X174211000Y-94677000D01*
X174170000Y-94654000D01*
X174130000Y-94630000D01*
X174091000Y-94603000D01*
X174054000Y-94574000D01*
X174018000Y-94544000D01*
X173984000Y-94511000D01*
X173951000Y-94477000D01*
X173921000Y-94441000D01*
X173892000Y-94404000D01*
X173865000Y-94365000D01*
X173841000Y-94325000D01*
X173818000Y-94284000D01*
X173798000Y-94241000D01*
X173780000Y-94198000D01*
X173764000Y-94153000D01*
X173751000Y-94108000D01*
X173740000Y-94062000D01*
X173731000Y-94016000D01*
X173725000Y-93969000D01*
X173721000Y-93922000D01*
X173720000Y-93875000D01*
X173721000Y-93828000D01*
X173725000Y-93781000D01*
X173731000Y-93734000D01*
X173740000Y-93688000D01*
X173751000Y-93642000D01*
X173764000Y-93597000D01*
X173780000Y-93552000D01*
X173798000Y-93509000D01*
X173818000Y-93466000D01*
X173841000Y-93425000D01*
X173865000Y-93385000D01*
X173892000Y-93346000D01*
X173921000Y-93309000D01*
X173951000Y-93273000D01*
X173984000Y-93239000D01*
X174018000Y-93206000D01*
X174054000Y-93176000D01*
X174091000Y-93147000D01*
X174130000Y-93120000D01*
X174170000Y-93096000D01*
X174211000Y-93073000D01*
X174254000Y-93053000D01*
X174297000Y-93035000D01*
X174342000Y-93019000D01*
X174387000Y-93006000D01*
X174433000Y-92995000D01*
X174479000Y-92986000D01*
X174526000Y-92980000D01*
X174573000Y-92976000D01*
X174620000Y-92975000D01*
X177120000Y-92975000D01*
X177120000Y-94775000D01*
G36*
X156887000Y-47256000D02*
G01*
X156934000Y-47260000D01*
X156981000Y-47266000D01*
X157027000Y-47275000D01*
X157073000Y-47286000D01*
X157118000Y-47299000D01*
X157163000Y-47315000D01*
X157206000Y-47333000D01*
X157249000Y-47353000D01*
X157290000Y-47376000D01*
X157330000Y-47400000D01*
X157369000Y-47427000D01*
X157406000Y-47456000D01*
X157442000Y-47486000D01*
X157476000Y-47519000D01*
X157509000Y-47553000D01*
X157539000Y-47589000D01*
X157568000Y-47626000D01*
X157595000Y-47665000D01*
X157619000Y-47705000D01*
X157642000Y-47746000D01*
X157662000Y-47789000D01*
X157680000Y-47832000D01*
X157696000Y-47877000D01*
X157709000Y-47922000D01*
X157720000Y-47968000D01*
X157729000Y-48014000D01*
X157735000Y-48061000D01*
X157739000Y-48108000D01*
X157740000Y-48155000D01*
X157739000Y-48202000D01*
X157735000Y-48249000D01*
X157729000Y-48296000D01*
X157720000Y-48342000D01*
X157709000Y-48388000D01*
X157696000Y-48433000D01*
X157680000Y-48478000D01*
X157662000Y-48521000D01*
X157642000Y-48564000D01*
X157619000Y-48605000D01*
X157595000Y-48645000D01*
X157568000Y-48684000D01*
X157539000Y-48721000D01*
X157509000Y-48757000D01*
X157476000Y-48791000D01*
X157442000Y-48824000D01*
X157406000Y-48854000D01*
X157369000Y-48883000D01*
X157330000Y-48910000D01*
X157290000Y-48934000D01*
X157249000Y-48957000D01*
X157206000Y-48977000D01*
X157163000Y-48995000D01*
X157118000Y-49011000D01*
X157073000Y-49024000D01*
X157027000Y-49035000D01*
X156981000Y-49044000D01*
X156934000Y-49050000D01*
X156887000Y-49054000D01*
X156840000Y-49055000D01*
X154340000Y-49055000D01*
X154340000Y-47255000D01*
X156840000Y-47255000D01*
X156887000Y-47256000D01*
G37*
X156887000Y-47256000D02*
X156934000Y-47260000D01*
X156981000Y-47266000D01*
X157027000Y-47275000D01*
X157073000Y-47286000D01*
X157118000Y-47299000D01*
X157163000Y-47315000D01*
X157206000Y-47333000D01*
X157249000Y-47353000D01*
X157290000Y-47376000D01*
X157330000Y-47400000D01*
X157369000Y-47427000D01*
X157406000Y-47456000D01*
X157442000Y-47486000D01*
X157476000Y-47519000D01*
X157509000Y-47553000D01*
X157539000Y-47589000D01*
X157568000Y-47626000D01*
X157595000Y-47665000D01*
X157619000Y-47705000D01*
X157642000Y-47746000D01*
X157662000Y-47789000D01*
X157680000Y-47832000D01*
X157696000Y-47877000D01*
X157709000Y-47922000D01*
X157720000Y-47968000D01*
X157729000Y-48014000D01*
X157735000Y-48061000D01*
X157739000Y-48108000D01*
X157740000Y-48155000D01*
X157739000Y-48202000D01*
X157735000Y-48249000D01*
X157729000Y-48296000D01*
X157720000Y-48342000D01*
X157709000Y-48388000D01*
X157696000Y-48433000D01*
X157680000Y-48478000D01*
X157662000Y-48521000D01*
X157642000Y-48564000D01*
X157619000Y-48605000D01*
X157595000Y-48645000D01*
X157568000Y-48684000D01*
X157539000Y-48721000D01*
X157509000Y-48757000D01*
X157476000Y-48791000D01*
X157442000Y-48824000D01*
X157406000Y-48854000D01*
X157369000Y-48883000D01*
X157330000Y-48910000D01*
X157290000Y-48934000D01*
X157249000Y-48957000D01*
X157206000Y-48977000D01*
X157163000Y-48995000D01*
X157118000Y-49011000D01*
X157073000Y-49024000D01*
X157027000Y-49035000D01*
X156981000Y-49044000D01*
X156934000Y-49050000D01*
X156887000Y-49054000D01*
X156840000Y-49055000D01*
X154340000Y-49055000D01*
X154340000Y-47255000D01*
X156840000Y-47255000D01*
X156887000Y-47256000D01*
G36*
X156887000Y-80276000D02*
G01*
X156934000Y-80280000D01*
X156981000Y-80286000D01*
X157027000Y-80295000D01*
X157073000Y-80306000D01*
X157118000Y-80319000D01*
X157163000Y-80335000D01*
X157206000Y-80353000D01*
X157249000Y-80373000D01*
X157290000Y-80396000D01*
X157330000Y-80420000D01*
X157369000Y-80447000D01*
X157406000Y-80476000D01*
X157442000Y-80506000D01*
X157476000Y-80539000D01*
X157509000Y-80573000D01*
X157539000Y-80609000D01*
X157568000Y-80646000D01*
X157595000Y-80685000D01*
X157619000Y-80725000D01*
X157642000Y-80766000D01*
X157662000Y-80809000D01*
X157680000Y-80852000D01*
X157696000Y-80897000D01*
X157709000Y-80942000D01*
X157720000Y-80988000D01*
X157729000Y-81034000D01*
X157735000Y-81081000D01*
X157739000Y-81128000D01*
X157740000Y-81175000D01*
X157739000Y-81222000D01*
X157735000Y-81269000D01*
X157729000Y-81316000D01*
X157720000Y-81362000D01*
X157709000Y-81408000D01*
X157696000Y-81453000D01*
X157680000Y-81498000D01*
X157662000Y-81541000D01*
X157642000Y-81584000D01*
X157619000Y-81625000D01*
X157595000Y-81665000D01*
X157568000Y-81704000D01*
X157539000Y-81741000D01*
X157509000Y-81777000D01*
X157476000Y-81811000D01*
X157442000Y-81844000D01*
X157406000Y-81874000D01*
X157369000Y-81903000D01*
X157330000Y-81930000D01*
X157290000Y-81954000D01*
X157249000Y-81977000D01*
X157206000Y-81997000D01*
X157163000Y-82015000D01*
X157118000Y-82031000D01*
X157073000Y-82044000D01*
X157027000Y-82055000D01*
X156981000Y-82064000D01*
X156934000Y-82070000D01*
X156887000Y-82074000D01*
X156840000Y-82075000D01*
X154340000Y-82075000D01*
X154340000Y-80275000D01*
X156840000Y-80275000D01*
X156887000Y-80276000D01*
G37*
X156887000Y-80276000D02*
X156934000Y-80280000D01*
X156981000Y-80286000D01*
X157027000Y-80295000D01*
X157073000Y-80306000D01*
X157118000Y-80319000D01*
X157163000Y-80335000D01*
X157206000Y-80353000D01*
X157249000Y-80373000D01*
X157290000Y-80396000D01*
X157330000Y-80420000D01*
X157369000Y-80447000D01*
X157406000Y-80476000D01*
X157442000Y-80506000D01*
X157476000Y-80539000D01*
X157509000Y-80573000D01*
X157539000Y-80609000D01*
X157568000Y-80646000D01*
X157595000Y-80685000D01*
X157619000Y-80725000D01*
X157642000Y-80766000D01*
X157662000Y-80809000D01*
X157680000Y-80852000D01*
X157696000Y-80897000D01*
X157709000Y-80942000D01*
X157720000Y-80988000D01*
X157729000Y-81034000D01*
X157735000Y-81081000D01*
X157739000Y-81128000D01*
X157740000Y-81175000D01*
X157739000Y-81222000D01*
X157735000Y-81269000D01*
X157729000Y-81316000D01*
X157720000Y-81362000D01*
X157709000Y-81408000D01*
X157696000Y-81453000D01*
X157680000Y-81498000D01*
X157662000Y-81541000D01*
X157642000Y-81584000D01*
X157619000Y-81625000D01*
X157595000Y-81665000D01*
X157568000Y-81704000D01*
X157539000Y-81741000D01*
X157509000Y-81777000D01*
X157476000Y-81811000D01*
X157442000Y-81844000D01*
X157406000Y-81874000D01*
X157369000Y-81903000D01*
X157330000Y-81930000D01*
X157290000Y-81954000D01*
X157249000Y-81977000D01*
X157206000Y-81997000D01*
X157163000Y-82015000D01*
X157118000Y-82031000D01*
X157073000Y-82044000D01*
X157027000Y-82055000D01*
X156981000Y-82064000D01*
X156934000Y-82070000D01*
X156887000Y-82074000D01*
X156840000Y-82075000D01*
X154340000Y-82075000D01*
X154340000Y-80275000D01*
X156840000Y-80275000D01*
X156887000Y-80276000D01*
G36*
X156887000Y-57416000D02*
G01*
X156934000Y-57420000D01*
X156981000Y-57426000D01*
X157027000Y-57435000D01*
X157073000Y-57446000D01*
X157118000Y-57459000D01*
X157163000Y-57475000D01*
X157206000Y-57493000D01*
X157249000Y-57513000D01*
X157290000Y-57536000D01*
X157330000Y-57560000D01*
X157369000Y-57587000D01*
X157406000Y-57616000D01*
X157442000Y-57646000D01*
X157476000Y-57679000D01*
X157509000Y-57713000D01*
X157539000Y-57749000D01*
X157568000Y-57786000D01*
X157595000Y-57825000D01*
X157619000Y-57865000D01*
X157642000Y-57906000D01*
X157662000Y-57949000D01*
X157680000Y-57992000D01*
X157696000Y-58037000D01*
X157709000Y-58082000D01*
X157720000Y-58128000D01*
X157729000Y-58174000D01*
X157735000Y-58221000D01*
X157739000Y-58268000D01*
X157740000Y-58315000D01*
X157739000Y-58362000D01*
X157735000Y-58409000D01*
X157729000Y-58456000D01*
X157720000Y-58502000D01*
X157709000Y-58548000D01*
X157696000Y-58593000D01*
X157680000Y-58638000D01*
X157662000Y-58681000D01*
X157642000Y-58724000D01*
X157619000Y-58765000D01*
X157595000Y-58805000D01*
X157568000Y-58844000D01*
X157539000Y-58881000D01*
X157509000Y-58917000D01*
X157476000Y-58951000D01*
X157442000Y-58984000D01*
X157406000Y-59014000D01*
X157369000Y-59043000D01*
X157330000Y-59070000D01*
X157290000Y-59094000D01*
X157249000Y-59117000D01*
X157206000Y-59137000D01*
X157163000Y-59155000D01*
X157118000Y-59171000D01*
X157073000Y-59184000D01*
X157027000Y-59195000D01*
X156981000Y-59204000D01*
X156934000Y-59210000D01*
X156887000Y-59214000D01*
X156840000Y-59215000D01*
X154340000Y-59215000D01*
X154340000Y-57415000D01*
X156840000Y-57415000D01*
X156887000Y-57416000D01*
G37*
X156887000Y-57416000D02*
X156934000Y-57420000D01*
X156981000Y-57426000D01*
X157027000Y-57435000D01*
X157073000Y-57446000D01*
X157118000Y-57459000D01*
X157163000Y-57475000D01*
X157206000Y-57493000D01*
X157249000Y-57513000D01*
X157290000Y-57536000D01*
X157330000Y-57560000D01*
X157369000Y-57587000D01*
X157406000Y-57616000D01*
X157442000Y-57646000D01*
X157476000Y-57679000D01*
X157509000Y-57713000D01*
X157539000Y-57749000D01*
X157568000Y-57786000D01*
X157595000Y-57825000D01*
X157619000Y-57865000D01*
X157642000Y-57906000D01*
X157662000Y-57949000D01*
X157680000Y-57992000D01*
X157696000Y-58037000D01*
X157709000Y-58082000D01*
X157720000Y-58128000D01*
X157729000Y-58174000D01*
X157735000Y-58221000D01*
X157739000Y-58268000D01*
X157740000Y-58315000D01*
X157739000Y-58362000D01*
X157735000Y-58409000D01*
X157729000Y-58456000D01*
X157720000Y-58502000D01*
X157709000Y-58548000D01*
X157696000Y-58593000D01*
X157680000Y-58638000D01*
X157662000Y-58681000D01*
X157642000Y-58724000D01*
X157619000Y-58765000D01*
X157595000Y-58805000D01*
X157568000Y-58844000D01*
X157539000Y-58881000D01*
X157509000Y-58917000D01*
X157476000Y-58951000D01*
X157442000Y-58984000D01*
X157406000Y-59014000D01*
X157369000Y-59043000D01*
X157330000Y-59070000D01*
X157290000Y-59094000D01*
X157249000Y-59117000D01*
X157206000Y-59137000D01*
X157163000Y-59155000D01*
X157118000Y-59171000D01*
X157073000Y-59184000D01*
X157027000Y-59195000D01*
X156981000Y-59204000D01*
X156934000Y-59210000D01*
X156887000Y-59214000D01*
X156840000Y-59215000D01*
X154340000Y-59215000D01*
X154340000Y-57415000D01*
X156840000Y-57415000D01*
X156887000Y-57416000D01*
G36*
X177120000Y-69375000D02*
G01*
X174620000Y-69375000D01*
X174573000Y-69374000D01*
X174526000Y-69370000D01*
X174479000Y-69364000D01*
X174433000Y-69355000D01*
X174387000Y-69344000D01*
X174342000Y-69331000D01*
X174297000Y-69315000D01*
X174254000Y-69297000D01*
X174211000Y-69277000D01*
X174170000Y-69254000D01*
X174130000Y-69230000D01*
X174091000Y-69203000D01*
X174054000Y-69174000D01*
X174018000Y-69144000D01*
X173984000Y-69111000D01*
X173951000Y-69077000D01*
X173921000Y-69041000D01*
X173892000Y-69004000D01*
X173865000Y-68965000D01*
X173841000Y-68925000D01*
X173818000Y-68884000D01*
X173798000Y-68841000D01*
X173780000Y-68798000D01*
X173764000Y-68753000D01*
X173751000Y-68708000D01*
X173740000Y-68662000D01*
X173731000Y-68616000D01*
X173725000Y-68569000D01*
X173721000Y-68522000D01*
X173720000Y-68475000D01*
X173721000Y-68428000D01*
X173725000Y-68381000D01*
X173731000Y-68334000D01*
X173740000Y-68288000D01*
X173751000Y-68242000D01*
X173764000Y-68197000D01*
X173780000Y-68152000D01*
X173798000Y-68109000D01*
X173818000Y-68066000D01*
X173841000Y-68025000D01*
X173865000Y-67985000D01*
X173892000Y-67946000D01*
X173921000Y-67909000D01*
X173951000Y-67873000D01*
X173984000Y-67839000D01*
X174018000Y-67806000D01*
X174054000Y-67776000D01*
X174091000Y-67747000D01*
X174130000Y-67720000D01*
X174170000Y-67696000D01*
X174211000Y-67673000D01*
X174254000Y-67653000D01*
X174297000Y-67635000D01*
X174342000Y-67619000D01*
X174387000Y-67606000D01*
X174433000Y-67595000D01*
X174479000Y-67586000D01*
X174526000Y-67580000D01*
X174573000Y-67576000D01*
X174620000Y-67575000D01*
X177120000Y-67575000D01*
X177120000Y-69375000D01*
G37*
X177120000Y-69375000D02*
X174620000Y-69375000D01*
X174573000Y-69374000D01*
X174526000Y-69370000D01*
X174479000Y-69364000D01*
X174433000Y-69355000D01*
X174387000Y-69344000D01*
X174342000Y-69331000D01*
X174297000Y-69315000D01*
X174254000Y-69297000D01*
X174211000Y-69277000D01*
X174170000Y-69254000D01*
X174130000Y-69230000D01*
X174091000Y-69203000D01*
X174054000Y-69174000D01*
X174018000Y-69144000D01*
X173984000Y-69111000D01*
X173951000Y-69077000D01*
X173921000Y-69041000D01*
X173892000Y-69004000D01*
X173865000Y-68965000D01*
X173841000Y-68925000D01*
X173818000Y-68884000D01*
X173798000Y-68841000D01*
X173780000Y-68798000D01*
X173764000Y-68753000D01*
X173751000Y-68708000D01*
X173740000Y-68662000D01*
X173731000Y-68616000D01*
X173725000Y-68569000D01*
X173721000Y-68522000D01*
X173720000Y-68475000D01*
X173721000Y-68428000D01*
X173725000Y-68381000D01*
X173731000Y-68334000D01*
X173740000Y-68288000D01*
X173751000Y-68242000D01*
X173764000Y-68197000D01*
X173780000Y-68152000D01*
X173798000Y-68109000D01*
X173818000Y-68066000D01*
X173841000Y-68025000D01*
X173865000Y-67985000D01*
X173892000Y-67946000D01*
X173921000Y-67909000D01*
X173951000Y-67873000D01*
X173984000Y-67839000D01*
X174018000Y-67806000D01*
X174054000Y-67776000D01*
X174091000Y-67747000D01*
X174130000Y-67720000D01*
X174170000Y-67696000D01*
X174211000Y-67673000D01*
X174254000Y-67653000D01*
X174297000Y-67635000D01*
X174342000Y-67619000D01*
X174387000Y-67606000D01*
X174433000Y-67595000D01*
X174479000Y-67586000D01*
X174526000Y-67580000D01*
X174573000Y-67576000D01*
X174620000Y-67575000D01*
X177120000Y-67575000D01*
X177120000Y-69375000D01*
G36*
X177120000Y-71915000D02*
G01*
X174620000Y-71915000D01*
X174573000Y-71914000D01*
X174526000Y-71910000D01*
X174479000Y-71904000D01*
X174433000Y-71895000D01*
X174387000Y-71884000D01*
X174342000Y-71871000D01*
X174297000Y-71855000D01*
X174254000Y-71837000D01*
X174211000Y-71817000D01*
X174170000Y-71794000D01*
X174130000Y-71770000D01*
X174091000Y-71743000D01*
X174054000Y-71714000D01*
X174018000Y-71684000D01*
X173984000Y-71651000D01*
X173951000Y-71617000D01*
X173921000Y-71581000D01*
X173892000Y-71544000D01*
X173865000Y-71505000D01*
X173841000Y-71465000D01*
X173818000Y-71424000D01*
X173798000Y-71381000D01*
X173780000Y-71338000D01*
X173764000Y-71293000D01*
X173751000Y-71248000D01*
X173740000Y-71202000D01*
X173731000Y-71156000D01*
X173725000Y-71109000D01*
X173721000Y-71062000D01*
X173720000Y-71015000D01*
X173721000Y-70968000D01*
X173725000Y-70921000D01*
X173731000Y-70874000D01*
X173740000Y-70828000D01*
X173751000Y-70782000D01*
X173764000Y-70737000D01*
X173780000Y-70692000D01*
X173798000Y-70649000D01*
X173818000Y-70606000D01*
X173841000Y-70565000D01*
X173865000Y-70525000D01*
X173892000Y-70486000D01*
X173921000Y-70449000D01*
X173951000Y-70413000D01*
X173984000Y-70379000D01*
X174018000Y-70346000D01*
X174054000Y-70316000D01*
X174091000Y-70287000D01*
X174130000Y-70260000D01*
X174170000Y-70236000D01*
X174211000Y-70213000D01*
X174254000Y-70193000D01*
X174297000Y-70175000D01*
X174342000Y-70159000D01*
X174387000Y-70146000D01*
X174433000Y-70135000D01*
X174479000Y-70126000D01*
X174526000Y-70120000D01*
X174573000Y-70116000D01*
X174620000Y-70115000D01*
X177120000Y-70115000D01*
X177120000Y-71915000D01*
G37*
X177120000Y-71915000D02*
X174620000Y-71915000D01*
X174573000Y-71914000D01*
X174526000Y-71910000D01*
X174479000Y-71904000D01*
X174433000Y-71895000D01*
X174387000Y-71884000D01*
X174342000Y-71871000D01*
X174297000Y-71855000D01*
X174254000Y-71837000D01*
X174211000Y-71817000D01*
X174170000Y-71794000D01*
X174130000Y-71770000D01*
X174091000Y-71743000D01*
X174054000Y-71714000D01*
X174018000Y-71684000D01*
X173984000Y-71651000D01*
X173951000Y-71617000D01*
X173921000Y-71581000D01*
X173892000Y-71544000D01*
X173865000Y-71505000D01*
X173841000Y-71465000D01*
X173818000Y-71424000D01*
X173798000Y-71381000D01*
X173780000Y-71338000D01*
X173764000Y-71293000D01*
X173751000Y-71248000D01*
X173740000Y-71202000D01*
X173731000Y-71156000D01*
X173725000Y-71109000D01*
X173721000Y-71062000D01*
X173720000Y-71015000D01*
X173721000Y-70968000D01*
X173725000Y-70921000D01*
X173731000Y-70874000D01*
X173740000Y-70828000D01*
X173751000Y-70782000D01*
X173764000Y-70737000D01*
X173780000Y-70692000D01*
X173798000Y-70649000D01*
X173818000Y-70606000D01*
X173841000Y-70565000D01*
X173865000Y-70525000D01*
X173892000Y-70486000D01*
X173921000Y-70449000D01*
X173951000Y-70413000D01*
X173984000Y-70379000D01*
X174018000Y-70346000D01*
X174054000Y-70316000D01*
X174091000Y-70287000D01*
X174130000Y-70260000D01*
X174170000Y-70236000D01*
X174211000Y-70213000D01*
X174254000Y-70193000D01*
X174297000Y-70175000D01*
X174342000Y-70159000D01*
X174387000Y-70146000D01*
X174433000Y-70135000D01*
X174479000Y-70126000D01*
X174526000Y-70120000D01*
X174573000Y-70116000D01*
X174620000Y-70115000D01*
X177120000Y-70115000D01*
X177120000Y-71915000D01*
G36*
X177120000Y-61755000D02*
G01*
X174620000Y-61755000D01*
X174573000Y-61754000D01*
X174526000Y-61750000D01*
X174479000Y-61744000D01*
X174433000Y-61735000D01*
X174387000Y-61724000D01*
X174342000Y-61711000D01*
X174297000Y-61695000D01*
X174254000Y-61677000D01*
X174211000Y-61657000D01*
X174170000Y-61634000D01*
X174130000Y-61610000D01*
X174091000Y-61583000D01*
X174054000Y-61554000D01*
X174018000Y-61524000D01*
X173984000Y-61491000D01*
X173951000Y-61457000D01*
X173921000Y-61421000D01*
X173892000Y-61384000D01*
X173865000Y-61345000D01*
X173841000Y-61305000D01*
X173818000Y-61264000D01*
X173798000Y-61221000D01*
X173780000Y-61178000D01*
X173764000Y-61133000D01*
X173751000Y-61088000D01*
X173740000Y-61042000D01*
X173731000Y-60996000D01*
X173725000Y-60949000D01*
X173721000Y-60902000D01*
X173720000Y-60855000D01*
X173721000Y-60808000D01*
X173725000Y-60761000D01*
X173731000Y-60714000D01*
X173740000Y-60668000D01*
X173751000Y-60622000D01*
X173764000Y-60577000D01*
X173780000Y-60532000D01*
X173798000Y-60489000D01*
X173818000Y-60446000D01*
X173841000Y-60405000D01*
X173865000Y-60365000D01*
X173892000Y-60326000D01*
X173921000Y-60289000D01*
X173951000Y-60253000D01*
X173984000Y-60219000D01*
X174018000Y-60186000D01*
X174054000Y-60156000D01*
X174091000Y-60127000D01*
X174130000Y-60100000D01*
X174170000Y-60076000D01*
X174211000Y-60053000D01*
X174254000Y-60033000D01*
X174297000Y-60015000D01*
X174342000Y-59999000D01*
X174387000Y-59986000D01*
X174433000Y-59975000D01*
X174479000Y-59966000D01*
X174526000Y-59960000D01*
X174573000Y-59956000D01*
X174620000Y-59955000D01*
X177120000Y-59955000D01*
X177120000Y-61755000D01*
G37*
X177120000Y-61755000D02*
X174620000Y-61755000D01*
X174573000Y-61754000D01*
X174526000Y-61750000D01*
X174479000Y-61744000D01*
X174433000Y-61735000D01*
X174387000Y-61724000D01*
X174342000Y-61711000D01*
X174297000Y-61695000D01*
X174254000Y-61677000D01*
X174211000Y-61657000D01*
X174170000Y-61634000D01*
X174130000Y-61610000D01*
X174091000Y-61583000D01*
X174054000Y-61554000D01*
X174018000Y-61524000D01*
X173984000Y-61491000D01*
X173951000Y-61457000D01*
X173921000Y-61421000D01*
X173892000Y-61384000D01*
X173865000Y-61345000D01*
X173841000Y-61305000D01*
X173818000Y-61264000D01*
X173798000Y-61221000D01*
X173780000Y-61178000D01*
X173764000Y-61133000D01*
X173751000Y-61088000D01*
X173740000Y-61042000D01*
X173731000Y-60996000D01*
X173725000Y-60949000D01*
X173721000Y-60902000D01*
X173720000Y-60855000D01*
X173721000Y-60808000D01*
X173725000Y-60761000D01*
X173731000Y-60714000D01*
X173740000Y-60668000D01*
X173751000Y-60622000D01*
X173764000Y-60577000D01*
X173780000Y-60532000D01*
X173798000Y-60489000D01*
X173818000Y-60446000D01*
X173841000Y-60405000D01*
X173865000Y-60365000D01*
X173892000Y-60326000D01*
X173921000Y-60289000D01*
X173951000Y-60253000D01*
X173984000Y-60219000D01*
X174018000Y-60186000D01*
X174054000Y-60156000D01*
X174091000Y-60127000D01*
X174130000Y-60100000D01*
X174170000Y-60076000D01*
X174211000Y-60053000D01*
X174254000Y-60033000D01*
X174297000Y-60015000D01*
X174342000Y-59999000D01*
X174387000Y-59986000D01*
X174433000Y-59975000D01*
X174479000Y-59966000D01*
X174526000Y-59960000D01*
X174573000Y-59956000D01*
X174620000Y-59955000D01*
X177120000Y-59955000D01*
X177120000Y-61755000D01*
G36*
X177120000Y-51595000D02*
G01*
X174620000Y-51595000D01*
X174573000Y-51594000D01*
X174526000Y-51590000D01*
X174479000Y-51584000D01*
X174433000Y-51575000D01*
X174387000Y-51564000D01*
X174342000Y-51551000D01*
X174297000Y-51535000D01*
X174254000Y-51517000D01*
X174211000Y-51497000D01*
X174170000Y-51474000D01*
X174130000Y-51450000D01*
X174091000Y-51423000D01*
X174054000Y-51394000D01*
X174018000Y-51364000D01*
X173984000Y-51331000D01*
X173951000Y-51297000D01*
X173921000Y-51261000D01*
X173892000Y-51224000D01*
X173865000Y-51185000D01*
X173841000Y-51145000D01*
X173818000Y-51104000D01*
X173798000Y-51061000D01*
X173780000Y-51018000D01*
X173764000Y-50973000D01*
X173751000Y-50928000D01*
X173740000Y-50882000D01*
X173731000Y-50836000D01*
X173725000Y-50789000D01*
X173721000Y-50742000D01*
X173720000Y-50695000D01*
X173721000Y-50648000D01*
X173725000Y-50601000D01*
X173731000Y-50554000D01*
X173740000Y-50508000D01*
X173751000Y-50462000D01*
X173764000Y-50417000D01*
X173780000Y-50372000D01*
X173798000Y-50329000D01*
X173818000Y-50286000D01*
X173841000Y-50245000D01*
X173865000Y-50205000D01*
X173892000Y-50166000D01*
X173921000Y-50129000D01*
X173951000Y-50093000D01*
X173984000Y-50059000D01*
X174018000Y-50026000D01*
X174054000Y-49996000D01*
X174091000Y-49967000D01*
X174130000Y-49940000D01*
X174170000Y-49916000D01*
X174211000Y-49893000D01*
X174254000Y-49873000D01*
X174297000Y-49855000D01*
X174342000Y-49839000D01*
X174387000Y-49826000D01*
X174433000Y-49815000D01*
X174479000Y-49806000D01*
X174526000Y-49800000D01*
X174573000Y-49796000D01*
X174620000Y-49795000D01*
X177120000Y-49795000D01*
X177120000Y-51595000D01*
G37*
X177120000Y-51595000D02*
X174620000Y-51595000D01*
X174573000Y-51594000D01*
X174526000Y-51590000D01*
X174479000Y-51584000D01*
X174433000Y-51575000D01*
X174387000Y-51564000D01*
X174342000Y-51551000D01*
X174297000Y-51535000D01*
X174254000Y-51517000D01*
X174211000Y-51497000D01*
X174170000Y-51474000D01*
X174130000Y-51450000D01*
X174091000Y-51423000D01*
X174054000Y-51394000D01*
X174018000Y-51364000D01*
X173984000Y-51331000D01*
X173951000Y-51297000D01*
X173921000Y-51261000D01*
X173892000Y-51224000D01*
X173865000Y-51185000D01*
X173841000Y-51145000D01*
X173818000Y-51104000D01*
X173798000Y-51061000D01*
X173780000Y-51018000D01*
X173764000Y-50973000D01*
X173751000Y-50928000D01*
X173740000Y-50882000D01*
X173731000Y-50836000D01*
X173725000Y-50789000D01*
X173721000Y-50742000D01*
X173720000Y-50695000D01*
X173721000Y-50648000D01*
X173725000Y-50601000D01*
X173731000Y-50554000D01*
X173740000Y-50508000D01*
X173751000Y-50462000D01*
X173764000Y-50417000D01*
X173780000Y-50372000D01*
X173798000Y-50329000D01*
X173818000Y-50286000D01*
X173841000Y-50245000D01*
X173865000Y-50205000D01*
X173892000Y-50166000D01*
X173921000Y-50129000D01*
X173951000Y-50093000D01*
X173984000Y-50059000D01*
X174018000Y-50026000D01*
X174054000Y-49996000D01*
X174091000Y-49967000D01*
X174130000Y-49940000D01*
X174170000Y-49916000D01*
X174211000Y-49893000D01*
X174254000Y-49873000D01*
X174297000Y-49855000D01*
X174342000Y-49839000D01*
X174387000Y-49826000D01*
X174433000Y-49815000D01*
X174479000Y-49806000D01*
X174526000Y-49800000D01*
X174573000Y-49796000D01*
X174620000Y-49795000D01*
X177120000Y-49795000D01*
X177120000Y-51595000D01*
G36*
X156887000Y-59956000D02*
G01*
X156934000Y-59960000D01*
X156981000Y-59966000D01*
X157027000Y-59975000D01*
X157073000Y-59986000D01*
X157118000Y-59999000D01*
X157163000Y-60015000D01*
X157206000Y-60033000D01*
X157249000Y-60053000D01*
X157290000Y-60076000D01*
X157330000Y-60100000D01*
X157369000Y-60127000D01*
X157406000Y-60156000D01*
X157442000Y-60186000D01*
X157476000Y-60219000D01*
X157509000Y-60253000D01*
X157539000Y-60289000D01*
X157568000Y-60326000D01*
X157595000Y-60365000D01*
X157619000Y-60405000D01*
X157642000Y-60446000D01*
X157662000Y-60489000D01*
X157680000Y-60532000D01*
X157696000Y-60577000D01*
X157709000Y-60622000D01*
X157720000Y-60668000D01*
X157729000Y-60714000D01*
X157735000Y-60761000D01*
X157739000Y-60808000D01*
X157740000Y-60855000D01*
X157739000Y-60902000D01*
X157735000Y-60949000D01*
X157729000Y-60996000D01*
X157720000Y-61042000D01*
X157709000Y-61088000D01*
X157696000Y-61133000D01*
X157680000Y-61178000D01*
X157662000Y-61221000D01*
X157642000Y-61264000D01*
X157619000Y-61305000D01*
X157595000Y-61345000D01*
X157568000Y-61384000D01*
X157539000Y-61421000D01*
X157509000Y-61457000D01*
X157476000Y-61491000D01*
X157442000Y-61524000D01*
X157406000Y-61554000D01*
X157369000Y-61583000D01*
X157330000Y-61610000D01*
X157290000Y-61634000D01*
X157249000Y-61657000D01*
X157206000Y-61677000D01*
X157163000Y-61695000D01*
X157118000Y-61711000D01*
X157073000Y-61724000D01*
X157027000Y-61735000D01*
X156981000Y-61744000D01*
X156934000Y-61750000D01*
X156887000Y-61754000D01*
X156840000Y-61755000D01*
X154340000Y-61755000D01*
X154340000Y-59955000D01*
X156840000Y-59955000D01*
X156887000Y-59956000D01*
G37*
X156887000Y-59956000D02*
X156934000Y-59960000D01*
X156981000Y-59966000D01*
X157027000Y-59975000D01*
X157073000Y-59986000D01*
X157118000Y-59999000D01*
X157163000Y-60015000D01*
X157206000Y-60033000D01*
X157249000Y-60053000D01*
X157290000Y-60076000D01*
X157330000Y-60100000D01*
X157369000Y-60127000D01*
X157406000Y-60156000D01*
X157442000Y-60186000D01*
X157476000Y-60219000D01*
X157509000Y-60253000D01*
X157539000Y-60289000D01*
X157568000Y-60326000D01*
X157595000Y-60365000D01*
X157619000Y-60405000D01*
X157642000Y-60446000D01*
X157662000Y-60489000D01*
X157680000Y-60532000D01*
X157696000Y-60577000D01*
X157709000Y-60622000D01*
X157720000Y-60668000D01*
X157729000Y-60714000D01*
X157735000Y-60761000D01*
X157739000Y-60808000D01*
X157740000Y-60855000D01*
X157739000Y-60902000D01*
X157735000Y-60949000D01*
X157729000Y-60996000D01*
X157720000Y-61042000D01*
X157709000Y-61088000D01*
X157696000Y-61133000D01*
X157680000Y-61178000D01*
X157662000Y-61221000D01*
X157642000Y-61264000D01*
X157619000Y-61305000D01*
X157595000Y-61345000D01*
X157568000Y-61384000D01*
X157539000Y-61421000D01*
X157509000Y-61457000D01*
X157476000Y-61491000D01*
X157442000Y-61524000D01*
X157406000Y-61554000D01*
X157369000Y-61583000D01*
X157330000Y-61610000D01*
X157290000Y-61634000D01*
X157249000Y-61657000D01*
X157206000Y-61677000D01*
X157163000Y-61695000D01*
X157118000Y-61711000D01*
X157073000Y-61724000D01*
X157027000Y-61735000D01*
X156981000Y-61744000D01*
X156934000Y-61750000D01*
X156887000Y-61754000D01*
X156840000Y-61755000D01*
X154340000Y-61755000D01*
X154340000Y-59955000D01*
X156840000Y-59955000D01*
X156887000Y-59956000D01*
G36*
X166361000Y-95287000D02*
G01*
X166377000Y-95289000D01*
X166392000Y-95292000D01*
X166408000Y-95295000D01*
X166438000Y-95305000D01*
X166452000Y-95311000D01*
X166480000Y-95325000D01*
X166493000Y-95333000D01*
X166506000Y-95342000D01*
X166519000Y-95352000D01*
X166531000Y-95362000D01*
X166553000Y-95384000D01*
X166563000Y-95396000D01*
X166573000Y-95409000D01*
X166582000Y-95422000D01*
X166590000Y-95435000D01*
X166604000Y-95463000D01*
X166610000Y-95477000D01*
X166620000Y-95507000D01*
X166623000Y-95523000D01*
X166626000Y-95538000D01*
X166628000Y-95554000D01*
X166630000Y-95569000D01*
X166630000Y-98685000D01*
X164830000Y-98685000D01*
X164830000Y-95569000D01*
X164832000Y-95554000D01*
X164834000Y-95538000D01*
X164837000Y-95523000D01*
X164840000Y-95507000D01*
X164850000Y-95477000D01*
X164856000Y-95463000D01*
X164870000Y-95435000D01*
X164878000Y-95422000D01*
X164887000Y-95409000D01*
X164897000Y-95396000D01*
X164907000Y-95384000D01*
X164929000Y-95362000D01*
X164941000Y-95352000D01*
X164954000Y-95342000D01*
X164967000Y-95333000D01*
X164980000Y-95325000D01*
X165008000Y-95311000D01*
X165022000Y-95305000D01*
X165052000Y-95295000D01*
X165068000Y-95292000D01*
X165083000Y-95289000D01*
X165099000Y-95287000D01*
X165114000Y-95285000D01*
X166346000Y-95285000D01*
X166361000Y-95287000D01*
G37*
X166361000Y-95287000D02*
X166377000Y-95289000D01*
X166392000Y-95292000D01*
X166408000Y-95295000D01*
X166438000Y-95305000D01*
X166452000Y-95311000D01*
X166480000Y-95325000D01*
X166493000Y-95333000D01*
X166506000Y-95342000D01*
X166519000Y-95352000D01*
X166531000Y-95362000D01*
X166553000Y-95384000D01*
X166563000Y-95396000D01*
X166573000Y-95409000D01*
X166582000Y-95422000D01*
X166590000Y-95435000D01*
X166604000Y-95463000D01*
X166610000Y-95477000D01*
X166620000Y-95507000D01*
X166623000Y-95523000D01*
X166626000Y-95538000D01*
X166628000Y-95554000D01*
X166630000Y-95569000D01*
X166630000Y-98685000D01*
X164830000Y-98685000D01*
X164830000Y-95569000D01*
X164832000Y-95554000D01*
X164834000Y-95538000D01*
X164837000Y-95523000D01*
X164840000Y-95507000D01*
X164850000Y-95477000D01*
X164856000Y-95463000D01*
X164870000Y-95435000D01*
X164878000Y-95422000D01*
X164887000Y-95409000D01*
X164897000Y-95396000D01*
X164907000Y-95384000D01*
X164929000Y-95362000D01*
X164941000Y-95352000D01*
X164954000Y-95342000D01*
X164967000Y-95333000D01*
X164980000Y-95325000D01*
X165008000Y-95311000D01*
X165022000Y-95305000D01*
X165052000Y-95295000D01*
X165068000Y-95292000D01*
X165083000Y-95289000D01*
X165099000Y-95287000D01*
X165114000Y-95285000D01*
X166346000Y-95285000D01*
X166361000Y-95287000D01*
G36*
X156887000Y-85356000D02*
G01*
X156934000Y-85360000D01*
X156981000Y-85366000D01*
X157027000Y-85375000D01*
X157073000Y-85386000D01*
X157118000Y-85399000D01*
X157163000Y-85415000D01*
X157206000Y-85433000D01*
X157249000Y-85453000D01*
X157290000Y-85476000D01*
X157330000Y-85500000D01*
X157369000Y-85527000D01*
X157406000Y-85556000D01*
X157442000Y-85586000D01*
X157476000Y-85619000D01*
X157509000Y-85653000D01*
X157539000Y-85689000D01*
X157568000Y-85726000D01*
X157595000Y-85765000D01*
X157619000Y-85805000D01*
X157642000Y-85846000D01*
X157662000Y-85889000D01*
X157680000Y-85932000D01*
X157696000Y-85977000D01*
X157709000Y-86022000D01*
X157720000Y-86068000D01*
X157729000Y-86114000D01*
X157735000Y-86161000D01*
X157739000Y-86208000D01*
X157740000Y-86255000D01*
X157739000Y-86302000D01*
X157735000Y-86349000D01*
X157729000Y-86396000D01*
X157720000Y-86442000D01*
X157709000Y-86488000D01*
X157696000Y-86533000D01*
X157680000Y-86578000D01*
X157662000Y-86621000D01*
X157642000Y-86664000D01*
X157619000Y-86705000D01*
X157595000Y-86745000D01*
X157568000Y-86784000D01*
X157539000Y-86821000D01*
X157509000Y-86857000D01*
X157476000Y-86891000D01*
X157442000Y-86924000D01*
X157406000Y-86954000D01*
X157369000Y-86983000D01*
X157330000Y-87010000D01*
X157290000Y-87034000D01*
X157249000Y-87057000D01*
X157206000Y-87077000D01*
X157163000Y-87095000D01*
X157118000Y-87111000D01*
X157073000Y-87124000D01*
X157027000Y-87135000D01*
X156981000Y-87144000D01*
X156934000Y-87150000D01*
X156887000Y-87154000D01*
X156840000Y-87155000D01*
X154340000Y-87155000D01*
X154340000Y-85355000D01*
X156840000Y-85355000D01*
X156887000Y-85356000D01*
G37*
X156887000Y-85356000D02*
X156934000Y-85360000D01*
X156981000Y-85366000D01*
X157027000Y-85375000D01*
X157073000Y-85386000D01*
X157118000Y-85399000D01*
X157163000Y-85415000D01*
X157206000Y-85433000D01*
X157249000Y-85453000D01*
X157290000Y-85476000D01*
X157330000Y-85500000D01*
X157369000Y-85527000D01*
X157406000Y-85556000D01*
X157442000Y-85586000D01*
X157476000Y-85619000D01*
X157509000Y-85653000D01*
X157539000Y-85689000D01*
X157568000Y-85726000D01*
X157595000Y-85765000D01*
X157619000Y-85805000D01*
X157642000Y-85846000D01*
X157662000Y-85889000D01*
X157680000Y-85932000D01*
X157696000Y-85977000D01*
X157709000Y-86022000D01*
X157720000Y-86068000D01*
X157729000Y-86114000D01*
X157735000Y-86161000D01*
X157739000Y-86208000D01*
X157740000Y-86255000D01*
X157739000Y-86302000D01*
X157735000Y-86349000D01*
X157729000Y-86396000D01*
X157720000Y-86442000D01*
X157709000Y-86488000D01*
X157696000Y-86533000D01*
X157680000Y-86578000D01*
X157662000Y-86621000D01*
X157642000Y-86664000D01*
X157619000Y-86705000D01*
X157595000Y-86745000D01*
X157568000Y-86784000D01*
X157539000Y-86821000D01*
X157509000Y-86857000D01*
X157476000Y-86891000D01*
X157442000Y-86924000D01*
X157406000Y-86954000D01*
X157369000Y-86983000D01*
X157330000Y-87010000D01*
X157290000Y-87034000D01*
X157249000Y-87057000D01*
X157206000Y-87077000D01*
X157163000Y-87095000D01*
X157118000Y-87111000D01*
X157073000Y-87124000D01*
X157027000Y-87135000D01*
X156981000Y-87144000D01*
X156934000Y-87150000D01*
X156887000Y-87154000D01*
X156840000Y-87155000D01*
X154340000Y-87155000D01*
X154340000Y-85355000D01*
X156840000Y-85355000D01*
X156887000Y-85356000D01*
G36*
X156887000Y-92976000D02*
G01*
X156934000Y-92980000D01*
X156981000Y-92986000D01*
X157027000Y-92995000D01*
X157073000Y-93006000D01*
X157118000Y-93019000D01*
X157163000Y-93035000D01*
X157206000Y-93053000D01*
X157249000Y-93073000D01*
X157290000Y-93096000D01*
X157330000Y-93120000D01*
X157369000Y-93147000D01*
X157406000Y-93176000D01*
X157442000Y-93206000D01*
X157476000Y-93239000D01*
X157509000Y-93273000D01*
X157539000Y-93309000D01*
X157568000Y-93346000D01*
X157595000Y-93385000D01*
X157619000Y-93425000D01*
X157642000Y-93466000D01*
X157662000Y-93509000D01*
X157680000Y-93552000D01*
X157696000Y-93597000D01*
X157709000Y-93642000D01*
X157720000Y-93688000D01*
X157729000Y-93734000D01*
X157735000Y-93781000D01*
X157739000Y-93828000D01*
X157740000Y-93875000D01*
X157739000Y-93922000D01*
X157735000Y-93969000D01*
X157729000Y-94016000D01*
X157720000Y-94062000D01*
X157709000Y-94108000D01*
X157696000Y-94153000D01*
X157680000Y-94198000D01*
X157662000Y-94241000D01*
X157642000Y-94284000D01*
X157619000Y-94325000D01*
X157595000Y-94365000D01*
X157568000Y-94404000D01*
X157539000Y-94441000D01*
X157509000Y-94477000D01*
X157476000Y-94511000D01*
X157442000Y-94544000D01*
X157406000Y-94574000D01*
X157369000Y-94603000D01*
X157330000Y-94630000D01*
X157290000Y-94654000D01*
X157249000Y-94677000D01*
X157206000Y-94697000D01*
X157163000Y-94715000D01*
X157118000Y-94731000D01*
X157073000Y-94744000D01*
X157027000Y-94755000D01*
X156981000Y-94764000D01*
X156934000Y-94770000D01*
X156887000Y-94774000D01*
X156840000Y-94775000D01*
X154340000Y-94775000D01*
X154340000Y-92975000D01*
X156840000Y-92975000D01*
X156887000Y-92976000D01*
G37*
X156887000Y-92976000D02*
X156934000Y-92980000D01*
X156981000Y-92986000D01*
X157027000Y-92995000D01*
X157073000Y-93006000D01*
X157118000Y-93019000D01*
X157163000Y-93035000D01*
X157206000Y-93053000D01*
X157249000Y-93073000D01*
X157290000Y-93096000D01*
X157330000Y-93120000D01*
X157369000Y-93147000D01*
X157406000Y-93176000D01*
X157442000Y-93206000D01*
X157476000Y-93239000D01*
X157509000Y-93273000D01*
X157539000Y-93309000D01*
X157568000Y-93346000D01*
X157595000Y-93385000D01*
X157619000Y-93425000D01*
X157642000Y-93466000D01*
X157662000Y-93509000D01*
X157680000Y-93552000D01*
X157696000Y-93597000D01*
X157709000Y-93642000D01*
X157720000Y-93688000D01*
X157729000Y-93734000D01*
X157735000Y-93781000D01*
X157739000Y-93828000D01*
X157740000Y-93875000D01*
X157739000Y-93922000D01*
X157735000Y-93969000D01*
X157729000Y-94016000D01*
X157720000Y-94062000D01*
X157709000Y-94108000D01*
X157696000Y-94153000D01*
X157680000Y-94198000D01*
X157662000Y-94241000D01*
X157642000Y-94284000D01*
X157619000Y-94325000D01*
X157595000Y-94365000D01*
X157568000Y-94404000D01*
X157539000Y-94441000D01*
X157509000Y-94477000D01*
X157476000Y-94511000D01*
X157442000Y-94544000D01*
X157406000Y-94574000D01*
X157369000Y-94603000D01*
X157330000Y-94630000D01*
X157290000Y-94654000D01*
X157249000Y-94677000D01*
X157206000Y-94697000D01*
X157163000Y-94715000D01*
X157118000Y-94731000D01*
X157073000Y-94744000D01*
X157027000Y-94755000D01*
X156981000Y-94764000D01*
X156934000Y-94770000D01*
X156887000Y-94774000D01*
X156840000Y-94775000D01*
X154340000Y-94775000D01*
X154340000Y-92975000D01*
X156840000Y-92975000D01*
X156887000Y-92976000D01*
G36*
X156887000Y-70116000D02*
G01*
X156934000Y-70120000D01*
X156981000Y-70126000D01*
X157027000Y-70135000D01*
X157073000Y-70146000D01*
X157118000Y-70159000D01*
X157163000Y-70175000D01*
X157206000Y-70193000D01*
X157249000Y-70213000D01*
X157290000Y-70236000D01*
X157330000Y-70260000D01*
X157369000Y-70287000D01*
X157406000Y-70316000D01*
X157442000Y-70346000D01*
X157476000Y-70379000D01*
X157509000Y-70413000D01*
X157539000Y-70449000D01*
X157568000Y-70486000D01*
X157595000Y-70525000D01*
X157619000Y-70565000D01*
X157642000Y-70606000D01*
X157662000Y-70649000D01*
X157680000Y-70692000D01*
X157696000Y-70737000D01*
X157709000Y-70782000D01*
X157720000Y-70828000D01*
X157729000Y-70874000D01*
X157735000Y-70921000D01*
X157739000Y-70968000D01*
X157740000Y-71015000D01*
X157739000Y-71062000D01*
X157735000Y-71109000D01*
X157729000Y-71156000D01*
X157720000Y-71202000D01*
X157709000Y-71248000D01*
X157696000Y-71293000D01*
X157680000Y-71338000D01*
X157662000Y-71381000D01*
X157642000Y-71424000D01*
X157619000Y-71465000D01*
X157595000Y-71505000D01*
X157568000Y-71544000D01*
X157539000Y-71581000D01*
X157509000Y-71617000D01*
X157476000Y-71651000D01*
X157442000Y-71684000D01*
X157406000Y-71714000D01*
X157369000Y-71743000D01*
X157330000Y-71770000D01*
X157290000Y-71794000D01*
X157249000Y-71817000D01*
X157206000Y-71837000D01*
X157163000Y-71855000D01*
X157118000Y-71871000D01*
X157073000Y-71884000D01*
X157027000Y-71895000D01*
X156981000Y-71904000D01*
X156934000Y-71910000D01*
X156887000Y-71914000D01*
X156840000Y-71915000D01*
X154340000Y-71915000D01*
X154340000Y-70115000D01*
X156840000Y-70115000D01*
X156887000Y-70116000D01*
G37*
X156887000Y-70116000D02*
X156934000Y-70120000D01*
X156981000Y-70126000D01*
X157027000Y-70135000D01*
X157073000Y-70146000D01*
X157118000Y-70159000D01*
X157163000Y-70175000D01*
X157206000Y-70193000D01*
X157249000Y-70213000D01*
X157290000Y-70236000D01*
X157330000Y-70260000D01*
X157369000Y-70287000D01*
X157406000Y-70316000D01*
X157442000Y-70346000D01*
X157476000Y-70379000D01*
X157509000Y-70413000D01*
X157539000Y-70449000D01*
X157568000Y-70486000D01*
X157595000Y-70525000D01*
X157619000Y-70565000D01*
X157642000Y-70606000D01*
X157662000Y-70649000D01*
X157680000Y-70692000D01*
X157696000Y-70737000D01*
X157709000Y-70782000D01*
X157720000Y-70828000D01*
X157729000Y-70874000D01*
X157735000Y-70921000D01*
X157739000Y-70968000D01*
X157740000Y-71015000D01*
X157739000Y-71062000D01*
X157735000Y-71109000D01*
X157729000Y-71156000D01*
X157720000Y-71202000D01*
X157709000Y-71248000D01*
X157696000Y-71293000D01*
X157680000Y-71338000D01*
X157662000Y-71381000D01*
X157642000Y-71424000D01*
X157619000Y-71465000D01*
X157595000Y-71505000D01*
X157568000Y-71544000D01*
X157539000Y-71581000D01*
X157509000Y-71617000D01*
X157476000Y-71651000D01*
X157442000Y-71684000D01*
X157406000Y-71714000D01*
X157369000Y-71743000D01*
X157330000Y-71770000D01*
X157290000Y-71794000D01*
X157249000Y-71817000D01*
X157206000Y-71837000D01*
X157163000Y-71855000D01*
X157118000Y-71871000D01*
X157073000Y-71884000D01*
X157027000Y-71895000D01*
X156981000Y-71904000D01*
X156934000Y-71910000D01*
X156887000Y-71914000D01*
X156840000Y-71915000D01*
X154340000Y-71915000D01*
X154340000Y-70115000D01*
X156840000Y-70115000D01*
X156887000Y-70116000D01*
G36*
X177120000Y-92235000D02*
G01*
X174004000Y-92235000D01*
X173989000Y-92233000D01*
X173973000Y-92231000D01*
X173958000Y-92228000D01*
X173942000Y-92225000D01*
X173912000Y-92215000D01*
X173898000Y-92209000D01*
X173870000Y-92195000D01*
X173857000Y-92187000D01*
X173844000Y-92178000D01*
X173831000Y-92168000D01*
X173819000Y-92158000D01*
X173797000Y-92136000D01*
X173787000Y-92124000D01*
X173777000Y-92111000D01*
X173768000Y-92098000D01*
X173760000Y-92085000D01*
X173746000Y-92057000D01*
X173740000Y-92043000D01*
X173730000Y-92013000D01*
X173727000Y-91997000D01*
X173724000Y-91982000D01*
X173722000Y-91966000D01*
X173720000Y-91951000D01*
X173720000Y-90719000D01*
X173722000Y-90704000D01*
X173724000Y-90688000D01*
X173727000Y-90673000D01*
X173730000Y-90657000D01*
X173740000Y-90627000D01*
X173746000Y-90613000D01*
X173760000Y-90585000D01*
X173768000Y-90572000D01*
X173777000Y-90559000D01*
X173787000Y-90546000D01*
X173797000Y-90534000D01*
X173819000Y-90512000D01*
X173831000Y-90502000D01*
X173844000Y-90492000D01*
X173857000Y-90483000D01*
X173870000Y-90475000D01*
X173898000Y-90461000D01*
X173912000Y-90455000D01*
X173942000Y-90445000D01*
X173958000Y-90442000D01*
X173973000Y-90439000D01*
X173989000Y-90437000D01*
X174004000Y-90435000D01*
X177120000Y-90435000D01*
X177120000Y-92235000D01*
G37*
X177120000Y-92235000D02*
X174004000Y-92235000D01*
X173989000Y-92233000D01*
X173973000Y-92231000D01*
X173958000Y-92228000D01*
X173942000Y-92225000D01*
X173912000Y-92215000D01*
X173898000Y-92209000D01*
X173870000Y-92195000D01*
X173857000Y-92187000D01*
X173844000Y-92178000D01*
X173831000Y-92168000D01*
X173819000Y-92158000D01*
X173797000Y-92136000D01*
X173787000Y-92124000D01*
X173777000Y-92111000D01*
X173768000Y-92098000D01*
X173760000Y-92085000D01*
X173746000Y-92057000D01*
X173740000Y-92043000D01*
X173730000Y-92013000D01*
X173727000Y-91997000D01*
X173724000Y-91982000D01*
X173722000Y-91966000D01*
X173720000Y-91951000D01*
X173720000Y-90719000D01*
X173722000Y-90704000D01*
X173724000Y-90688000D01*
X173727000Y-90673000D01*
X173730000Y-90657000D01*
X173740000Y-90627000D01*
X173746000Y-90613000D01*
X173760000Y-90585000D01*
X173768000Y-90572000D01*
X173777000Y-90559000D01*
X173787000Y-90546000D01*
X173797000Y-90534000D01*
X173819000Y-90512000D01*
X173831000Y-90502000D01*
X173844000Y-90492000D01*
X173857000Y-90483000D01*
X173870000Y-90475000D01*
X173898000Y-90461000D01*
X173912000Y-90455000D01*
X173942000Y-90445000D01*
X173958000Y-90442000D01*
X173973000Y-90439000D01*
X173989000Y-90437000D01*
X174004000Y-90435000D01*
X177120000Y-90435000D01*
X177120000Y-92235000D01*
G36*
X156887000Y-82816000D02*
G01*
X156934000Y-82820000D01*
X156981000Y-82826000D01*
X157027000Y-82835000D01*
X157073000Y-82846000D01*
X157118000Y-82859000D01*
X157163000Y-82875000D01*
X157206000Y-82893000D01*
X157249000Y-82913000D01*
X157290000Y-82936000D01*
X157330000Y-82960000D01*
X157369000Y-82987000D01*
X157406000Y-83016000D01*
X157442000Y-83046000D01*
X157476000Y-83079000D01*
X157509000Y-83113000D01*
X157539000Y-83149000D01*
X157568000Y-83186000D01*
X157595000Y-83225000D01*
X157619000Y-83265000D01*
X157642000Y-83306000D01*
X157662000Y-83349000D01*
X157680000Y-83392000D01*
X157696000Y-83437000D01*
X157709000Y-83482000D01*
X157720000Y-83528000D01*
X157729000Y-83574000D01*
X157735000Y-83621000D01*
X157739000Y-83668000D01*
X157740000Y-83715000D01*
X157739000Y-83762000D01*
X157735000Y-83809000D01*
X157729000Y-83856000D01*
X157720000Y-83902000D01*
X157709000Y-83948000D01*
X157696000Y-83993000D01*
X157680000Y-84038000D01*
X157662000Y-84081000D01*
X157642000Y-84124000D01*
X157619000Y-84165000D01*
X157595000Y-84205000D01*
X157568000Y-84244000D01*
X157539000Y-84281000D01*
X157509000Y-84317000D01*
X157476000Y-84351000D01*
X157442000Y-84384000D01*
X157406000Y-84414000D01*
X157369000Y-84443000D01*
X157330000Y-84470000D01*
X157290000Y-84494000D01*
X157249000Y-84517000D01*
X157206000Y-84537000D01*
X157163000Y-84555000D01*
X157118000Y-84571000D01*
X157073000Y-84584000D01*
X157027000Y-84595000D01*
X156981000Y-84604000D01*
X156934000Y-84610000D01*
X156887000Y-84614000D01*
X156840000Y-84615000D01*
X154340000Y-84615000D01*
X154340000Y-82815000D01*
X156840000Y-82815000D01*
X156887000Y-82816000D01*
G37*
X156887000Y-82816000D02*
X156934000Y-82820000D01*
X156981000Y-82826000D01*
X157027000Y-82835000D01*
X157073000Y-82846000D01*
X157118000Y-82859000D01*
X157163000Y-82875000D01*
X157206000Y-82893000D01*
X157249000Y-82913000D01*
X157290000Y-82936000D01*
X157330000Y-82960000D01*
X157369000Y-82987000D01*
X157406000Y-83016000D01*
X157442000Y-83046000D01*
X157476000Y-83079000D01*
X157509000Y-83113000D01*
X157539000Y-83149000D01*
X157568000Y-83186000D01*
X157595000Y-83225000D01*
X157619000Y-83265000D01*
X157642000Y-83306000D01*
X157662000Y-83349000D01*
X157680000Y-83392000D01*
X157696000Y-83437000D01*
X157709000Y-83482000D01*
X157720000Y-83528000D01*
X157729000Y-83574000D01*
X157735000Y-83621000D01*
X157739000Y-83668000D01*
X157740000Y-83715000D01*
X157739000Y-83762000D01*
X157735000Y-83809000D01*
X157729000Y-83856000D01*
X157720000Y-83902000D01*
X157709000Y-83948000D01*
X157696000Y-83993000D01*
X157680000Y-84038000D01*
X157662000Y-84081000D01*
X157642000Y-84124000D01*
X157619000Y-84165000D01*
X157595000Y-84205000D01*
X157568000Y-84244000D01*
X157539000Y-84281000D01*
X157509000Y-84317000D01*
X157476000Y-84351000D01*
X157442000Y-84384000D01*
X157406000Y-84414000D01*
X157369000Y-84443000D01*
X157330000Y-84470000D01*
X157290000Y-84494000D01*
X157249000Y-84517000D01*
X157206000Y-84537000D01*
X157163000Y-84555000D01*
X157118000Y-84571000D01*
X157073000Y-84584000D01*
X157027000Y-84595000D01*
X156981000Y-84604000D01*
X156934000Y-84610000D01*
X156887000Y-84614000D01*
X156840000Y-84615000D01*
X154340000Y-84615000D01*
X154340000Y-82815000D01*
X156840000Y-82815000D01*
X156887000Y-82816000D01*
G36*
X177120000Y-97315000D02*
G01*
X174620000Y-97315000D01*
X174573000Y-97314000D01*
X174526000Y-97310000D01*
X174479000Y-97304000D01*
X174433000Y-97295000D01*
X174387000Y-97284000D01*
X174342000Y-97271000D01*
X174297000Y-97255000D01*
X174254000Y-97237000D01*
X174211000Y-97217000D01*
X174170000Y-97194000D01*
X174130000Y-97170000D01*
X174091000Y-97143000D01*
X174054000Y-97114000D01*
X174018000Y-97084000D01*
X173984000Y-97051000D01*
X173951000Y-97017000D01*
X173921000Y-96981000D01*
X173892000Y-96944000D01*
X173865000Y-96905000D01*
X173841000Y-96865000D01*
X173818000Y-96824000D01*
X173798000Y-96781000D01*
X173780000Y-96738000D01*
X173764000Y-96693000D01*
X173751000Y-96648000D01*
X173740000Y-96602000D01*
X173731000Y-96556000D01*
X173725000Y-96509000D01*
X173721000Y-96462000D01*
X173720000Y-96415000D01*
X173721000Y-96368000D01*
X173725000Y-96321000D01*
X173731000Y-96274000D01*
X173740000Y-96228000D01*
X173751000Y-96182000D01*
X173764000Y-96137000D01*
X173780000Y-96092000D01*
X173798000Y-96049000D01*
X173818000Y-96006000D01*
X173841000Y-95965000D01*
X173865000Y-95925000D01*
X173892000Y-95886000D01*
X173921000Y-95849000D01*
X173951000Y-95813000D01*
X173984000Y-95779000D01*
X174018000Y-95746000D01*
X174054000Y-95716000D01*
X174091000Y-95687000D01*
X174130000Y-95660000D01*
X174170000Y-95636000D01*
X174211000Y-95613000D01*
X174254000Y-95593000D01*
X174297000Y-95575000D01*
X174342000Y-95559000D01*
X174387000Y-95546000D01*
X174433000Y-95535000D01*
X174479000Y-95526000D01*
X174526000Y-95520000D01*
X174573000Y-95516000D01*
X174620000Y-95515000D01*
X177120000Y-95515000D01*
X177120000Y-97315000D01*
G37*
X177120000Y-97315000D02*
X174620000Y-97315000D01*
X174573000Y-97314000D01*
X174526000Y-97310000D01*
X174479000Y-97304000D01*
X174433000Y-97295000D01*
X174387000Y-97284000D01*
X174342000Y-97271000D01*
X174297000Y-97255000D01*
X174254000Y-97237000D01*
X174211000Y-97217000D01*
X174170000Y-97194000D01*
X174130000Y-97170000D01*
X174091000Y-97143000D01*
X174054000Y-97114000D01*
X174018000Y-97084000D01*
X173984000Y-97051000D01*
X173951000Y-97017000D01*
X173921000Y-96981000D01*
X173892000Y-96944000D01*
X173865000Y-96905000D01*
X173841000Y-96865000D01*
X173818000Y-96824000D01*
X173798000Y-96781000D01*
X173780000Y-96738000D01*
X173764000Y-96693000D01*
X173751000Y-96648000D01*
X173740000Y-96602000D01*
X173731000Y-96556000D01*
X173725000Y-96509000D01*
X173721000Y-96462000D01*
X173720000Y-96415000D01*
X173721000Y-96368000D01*
X173725000Y-96321000D01*
X173731000Y-96274000D01*
X173740000Y-96228000D01*
X173751000Y-96182000D01*
X173764000Y-96137000D01*
X173780000Y-96092000D01*
X173798000Y-96049000D01*
X173818000Y-96006000D01*
X173841000Y-95965000D01*
X173865000Y-95925000D01*
X173892000Y-95886000D01*
X173921000Y-95849000D01*
X173951000Y-95813000D01*
X173984000Y-95779000D01*
X174018000Y-95746000D01*
X174054000Y-95716000D01*
X174091000Y-95687000D01*
X174130000Y-95660000D01*
X174170000Y-95636000D01*
X174211000Y-95613000D01*
X174254000Y-95593000D01*
X174297000Y-95575000D01*
X174342000Y-95559000D01*
X174387000Y-95546000D01*
X174433000Y-95535000D01*
X174479000Y-95526000D01*
X174526000Y-95520000D01*
X174573000Y-95516000D01*
X174620000Y-95515000D01*
X177120000Y-95515000D01*
X177120000Y-97315000D01*
G36*
X177120000Y-84615000D02*
G01*
X174620000Y-84615000D01*
X174573000Y-84614000D01*
X174526000Y-84610000D01*
X174479000Y-84604000D01*
X174433000Y-84595000D01*
X174387000Y-84584000D01*
X174342000Y-84571000D01*
X174297000Y-84555000D01*
X174254000Y-84537000D01*
X174211000Y-84517000D01*
X174170000Y-84494000D01*
X174130000Y-84470000D01*
X174091000Y-84443000D01*
X174054000Y-84414000D01*
X174018000Y-84384000D01*
X173984000Y-84351000D01*
X173951000Y-84317000D01*
X173921000Y-84281000D01*
X173892000Y-84244000D01*
X173865000Y-84205000D01*
X173841000Y-84165000D01*
X173818000Y-84124000D01*
X173798000Y-84081000D01*
X173780000Y-84038000D01*
X173764000Y-83993000D01*
X173751000Y-83948000D01*
X173740000Y-83902000D01*
X173731000Y-83856000D01*
X173725000Y-83809000D01*
X173721000Y-83762000D01*
X173720000Y-83715000D01*
X173721000Y-83668000D01*
X173725000Y-83621000D01*
X173731000Y-83574000D01*
X173740000Y-83528000D01*
X173751000Y-83482000D01*
X173764000Y-83437000D01*
X173780000Y-83392000D01*
X173798000Y-83349000D01*
X173818000Y-83306000D01*
X173841000Y-83265000D01*
X173865000Y-83225000D01*
X173892000Y-83186000D01*
X173921000Y-83149000D01*
X173951000Y-83113000D01*
X173984000Y-83079000D01*
X174018000Y-83046000D01*
X174054000Y-83016000D01*
X174091000Y-82987000D01*
X174130000Y-82960000D01*
X174170000Y-82936000D01*
X174211000Y-82913000D01*
X174254000Y-82893000D01*
X174297000Y-82875000D01*
X174342000Y-82859000D01*
X174387000Y-82846000D01*
X174433000Y-82835000D01*
X174479000Y-82826000D01*
X174526000Y-82820000D01*
X174573000Y-82816000D01*
X174620000Y-82815000D01*
X177120000Y-82815000D01*
X177120000Y-84615000D01*
G37*
X177120000Y-84615000D02*
X174620000Y-84615000D01*
X174573000Y-84614000D01*
X174526000Y-84610000D01*
X174479000Y-84604000D01*
X174433000Y-84595000D01*
X174387000Y-84584000D01*
X174342000Y-84571000D01*
X174297000Y-84555000D01*
X174254000Y-84537000D01*
X174211000Y-84517000D01*
X174170000Y-84494000D01*
X174130000Y-84470000D01*
X174091000Y-84443000D01*
X174054000Y-84414000D01*
X174018000Y-84384000D01*
X173984000Y-84351000D01*
X173951000Y-84317000D01*
X173921000Y-84281000D01*
X173892000Y-84244000D01*
X173865000Y-84205000D01*
X173841000Y-84165000D01*
X173818000Y-84124000D01*
X173798000Y-84081000D01*
X173780000Y-84038000D01*
X173764000Y-83993000D01*
X173751000Y-83948000D01*
X173740000Y-83902000D01*
X173731000Y-83856000D01*
X173725000Y-83809000D01*
X173721000Y-83762000D01*
X173720000Y-83715000D01*
X173721000Y-83668000D01*
X173725000Y-83621000D01*
X173731000Y-83574000D01*
X173740000Y-83528000D01*
X173751000Y-83482000D01*
X173764000Y-83437000D01*
X173780000Y-83392000D01*
X173798000Y-83349000D01*
X173818000Y-83306000D01*
X173841000Y-83265000D01*
X173865000Y-83225000D01*
X173892000Y-83186000D01*
X173921000Y-83149000D01*
X173951000Y-83113000D01*
X173984000Y-83079000D01*
X174018000Y-83046000D01*
X174054000Y-83016000D01*
X174091000Y-82987000D01*
X174130000Y-82960000D01*
X174170000Y-82936000D01*
X174211000Y-82913000D01*
X174254000Y-82893000D01*
X174297000Y-82875000D01*
X174342000Y-82859000D01*
X174387000Y-82846000D01*
X174433000Y-82835000D01*
X174479000Y-82826000D01*
X174526000Y-82820000D01*
X174573000Y-82816000D01*
X174620000Y-82815000D01*
X177120000Y-82815000D01*
X177120000Y-84615000D01*
G36*
X157471000Y-65037000D02*
G01*
X157487000Y-65039000D01*
X157502000Y-65042000D01*
X157518000Y-65045000D01*
X157548000Y-65055000D01*
X157562000Y-65061000D01*
X157590000Y-65075000D01*
X157603000Y-65083000D01*
X157616000Y-65092000D01*
X157629000Y-65102000D01*
X157641000Y-65112000D01*
X157663000Y-65134000D01*
X157673000Y-65146000D01*
X157683000Y-65159000D01*
X157692000Y-65172000D01*
X157700000Y-65185000D01*
X157714000Y-65213000D01*
X157720000Y-65227000D01*
X157730000Y-65257000D01*
X157733000Y-65273000D01*
X157736000Y-65288000D01*
X157738000Y-65304000D01*
X157740000Y-65319000D01*
X157740000Y-66551000D01*
X157738000Y-66566000D01*
X157736000Y-66582000D01*
X157733000Y-66597000D01*
X157730000Y-66613000D01*
X157720000Y-66643000D01*
X157714000Y-66657000D01*
X157700000Y-66685000D01*
X157692000Y-66698000D01*
X157683000Y-66711000D01*
X157673000Y-66724000D01*
X157663000Y-66736000D01*
X157641000Y-66758000D01*
X157629000Y-66768000D01*
X157616000Y-66778000D01*
X157603000Y-66787000D01*
X157590000Y-66795000D01*
X157562000Y-66809000D01*
X157548000Y-66815000D01*
X157518000Y-66825000D01*
X157502000Y-66828000D01*
X157487000Y-66831000D01*
X157471000Y-66833000D01*
X157456000Y-66835000D01*
X154340000Y-66835000D01*
X154340000Y-65035000D01*
X157456000Y-65035000D01*
X157471000Y-65037000D01*
G37*
X157471000Y-65037000D02*
X157487000Y-65039000D01*
X157502000Y-65042000D01*
X157518000Y-65045000D01*
X157548000Y-65055000D01*
X157562000Y-65061000D01*
X157590000Y-65075000D01*
X157603000Y-65083000D01*
X157616000Y-65092000D01*
X157629000Y-65102000D01*
X157641000Y-65112000D01*
X157663000Y-65134000D01*
X157673000Y-65146000D01*
X157683000Y-65159000D01*
X157692000Y-65172000D01*
X157700000Y-65185000D01*
X157714000Y-65213000D01*
X157720000Y-65227000D01*
X157730000Y-65257000D01*
X157733000Y-65273000D01*
X157736000Y-65288000D01*
X157738000Y-65304000D01*
X157740000Y-65319000D01*
X157740000Y-66551000D01*
X157738000Y-66566000D01*
X157736000Y-66582000D01*
X157733000Y-66597000D01*
X157730000Y-66613000D01*
X157720000Y-66643000D01*
X157714000Y-66657000D01*
X157700000Y-66685000D01*
X157692000Y-66698000D01*
X157683000Y-66711000D01*
X157673000Y-66724000D01*
X157663000Y-66736000D01*
X157641000Y-66758000D01*
X157629000Y-66768000D01*
X157616000Y-66778000D01*
X157603000Y-66787000D01*
X157590000Y-66795000D01*
X157562000Y-66809000D01*
X157548000Y-66815000D01*
X157518000Y-66825000D01*
X157502000Y-66828000D01*
X157487000Y-66831000D01*
X157471000Y-66833000D01*
X157456000Y-66835000D01*
X154340000Y-66835000D01*
X154340000Y-65035000D01*
X157456000Y-65035000D01*
X157471000Y-65037000D01*
G36*
X177120000Y-89695000D02*
G01*
X174620000Y-89695000D01*
X174573000Y-89694000D01*
X174526000Y-89690000D01*
X174479000Y-89684000D01*
X174433000Y-89675000D01*
X174387000Y-89664000D01*
X174342000Y-89651000D01*
X174297000Y-89635000D01*
X174254000Y-89617000D01*
X174211000Y-89597000D01*
X174170000Y-89574000D01*
X174130000Y-89550000D01*
X174091000Y-89523000D01*
X174054000Y-89494000D01*
X174018000Y-89464000D01*
X173984000Y-89431000D01*
X173951000Y-89397000D01*
X173921000Y-89361000D01*
X173892000Y-89324000D01*
X173865000Y-89285000D01*
X173841000Y-89245000D01*
X173818000Y-89204000D01*
X173798000Y-89161000D01*
X173780000Y-89118000D01*
X173764000Y-89073000D01*
X173751000Y-89028000D01*
X173740000Y-88982000D01*
X173731000Y-88936000D01*
X173725000Y-88889000D01*
X173721000Y-88842000D01*
X173720000Y-88795000D01*
X173721000Y-88748000D01*
X173725000Y-88701000D01*
X173731000Y-88654000D01*
X173740000Y-88608000D01*
X173751000Y-88562000D01*
X173764000Y-88517000D01*
X173780000Y-88472000D01*
X173798000Y-88429000D01*
X173818000Y-88386000D01*
X173841000Y-88345000D01*
X173865000Y-88305000D01*
X173892000Y-88266000D01*
X173921000Y-88229000D01*
X173951000Y-88193000D01*
X173984000Y-88159000D01*
X174018000Y-88126000D01*
X174054000Y-88096000D01*
X174091000Y-88067000D01*
X174130000Y-88040000D01*
X174170000Y-88016000D01*
X174211000Y-87993000D01*
X174254000Y-87973000D01*
X174297000Y-87955000D01*
X174342000Y-87939000D01*
X174387000Y-87926000D01*
X174433000Y-87915000D01*
X174479000Y-87906000D01*
X174526000Y-87900000D01*
X174573000Y-87896000D01*
X174620000Y-87895000D01*
X177120000Y-87895000D01*
X177120000Y-89695000D01*
G37*
X177120000Y-89695000D02*
X174620000Y-89695000D01*
X174573000Y-89694000D01*
X174526000Y-89690000D01*
X174479000Y-89684000D01*
X174433000Y-89675000D01*
X174387000Y-89664000D01*
X174342000Y-89651000D01*
X174297000Y-89635000D01*
X174254000Y-89617000D01*
X174211000Y-89597000D01*
X174170000Y-89574000D01*
X174130000Y-89550000D01*
X174091000Y-89523000D01*
X174054000Y-89494000D01*
X174018000Y-89464000D01*
X173984000Y-89431000D01*
X173951000Y-89397000D01*
X173921000Y-89361000D01*
X173892000Y-89324000D01*
X173865000Y-89285000D01*
X173841000Y-89245000D01*
X173818000Y-89204000D01*
X173798000Y-89161000D01*
X173780000Y-89118000D01*
X173764000Y-89073000D01*
X173751000Y-89028000D01*
X173740000Y-88982000D01*
X173731000Y-88936000D01*
X173725000Y-88889000D01*
X173721000Y-88842000D01*
X173720000Y-88795000D01*
X173721000Y-88748000D01*
X173725000Y-88701000D01*
X173731000Y-88654000D01*
X173740000Y-88608000D01*
X173751000Y-88562000D01*
X173764000Y-88517000D01*
X173780000Y-88472000D01*
X173798000Y-88429000D01*
X173818000Y-88386000D01*
X173841000Y-88345000D01*
X173865000Y-88305000D01*
X173892000Y-88266000D01*
X173921000Y-88229000D01*
X173951000Y-88193000D01*
X173984000Y-88159000D01*
X174018000Y-88126000D01*
X174054000Y-88096000D01*
X174091000Y-88067000D01*
X174130000Y-88040000D01*
X174170000Y-88016000D01*
X174211000Y-87993000D01*
X174254000Y-87973000D01*
X174297000Y-87955000D01*
X174342000Y-87939000D01*
X174387000Y-87926000D01*
X174433000Y-87915000D01*
X174479000Y-87906000D01*
X174526000Y-87900000D01*
X174573000Y-87896000D01*
X174620000Y-87895000D01*
X177120000Y-87895000D01*
X177120000Y-89695000D01*
G36*
X156887000Y-49796000D02*
G01*
X156934000Y-49800000D01*
X156981000Y-49806000D01*
X157027000Y-49815000D01*
X157073000Y-49826000D01*
X157118000Y-49839000D01*
X157163000Y-49855000D01*
X157206000Y-49873000D01*
X157249000Y-49893000D01*
X157290000Y-49916000D01*
X157330000Y-49940000D01*
X157369000Y-49967000D01*
X157406000Y-49996000D01*
X157442000Y-50026000D01*
X157476000Y-50059000D01*
X157509000Y-50093000D01*
X157539000Y-50129000D01*
X157568000Y-50166000D01*
X157595000Y-50205000D01*
X157619000Y-50245000D01*
X157642000Y-50286000D01*
X157662000Y-50329000D01*
X157680000Y-50372000D01*
X157696000Y-50417000D01*
X157709000Y-50462000D01*
X157720000Y-50508000D01*
X157729000Y-50554000D01*
X157735000Y-50601000D01*
X157739000Y-50648000D01*
X157740000Y-50695000D01*
X157739000Y-50742000D01*
X157735000Y-50789000D01*
X157729000Y-50836000D01*
X157720000Y-50882000D01*
X157709000Y-50928000D01*
X157696000Y-50973000D01*
X157680000Y-51018000D01*
X157662000Y-51061000D01*
X157642000Y-51104000D01*
X157619000Y-51145000D01*
X157595000Y-51185000D01*
X157568000Y-51224000D01*
X157539000Y-51261000D01*
X157509000Y-51297000D01*
X157476000Y-51331000D01*
X157442000Y-51364000D01*
X157406000Y-51394000D01*
X157369000Y-51423000D01*
X157330000Y-51450000D01*
X157290000Y-51474000D01*
X157249000Y-51497000D01*
X157206000Y-51517000D01*
X157163000Y-51535000D01*
X157118000Y-51551000D01*
X157073000Y-51564000D01*
X157027000Y-51575000D01*
X156981000Y-51584000D01*
X156934000Y-51590000D01*
X156887000Y-51594000D01*
X156840000Y-51595000D01*
X154340000Y-51595000D01*
X154340000Y-49795000D01*
X156840000Y-49795000D01*
X156887000Y-49796000D01*
G37*
X156887000Y-49796000D02*
X156934000Y-49800000D01*
X156981000Y-49806000D01*
X157027000Y-49815000D01*
X157073000Y-49826000D01*
X157118000Y-49839000D01*
X157163000Y-49855000D01*
X157206000Y-49873000D01*
X157249000Y-49893000D01*
X157290000Y-49916000D01*
X157330000Y-49940000D01*
X157369000Y-49967000D01*
X157406000Y-49996000D01*
X157442000Y-50026000D01*
X157476000Y-50059000D01*
X157509000Y-50093000D01*
X157539000Y-50129000D01*
X157568000Y-50166000D01*
X157595000Y-50205000D01*
X157619000Y-50245000D01*
X157642000Y-50286000D01*
X157662000Y-50329000D01*
X157680000Y-50372000D01*
X157696000Y-50417000D01*
X157709000Y-50462000D01*
X157720000Y-50508000D01*
X157729000Y-50554000D01*
X157735000Y-50601000D01*
X157739000Y-50648000D01*
X157740000Y-50695000D01*
X157739000Y-50742000D01*
X157735000Y-50789000D01*
X157729000Y-50836000D01*
X157720000Y-50882000D01*
X157709000Y-50928000D01*
X157696000Y-50973000D01*
X157680000Y-51018000D01*
X157662000Y-51061000D01*
X157642000Y-51104000D01*
X157619000Y-51145000D01*
X157595000Y-51185000D01*
X157568000Y-51224000D01*
X157539000Y-51261000D01*
X157509000Y-51297000D01*
X157476000Y-51331000D01*
X157442000Y-51364000D01*
X157406000Y-51394000D01*
X157369000Y-51423000D01*
X157330000Y-51450000D01*
X157290000Y-51474000D01*
X157249000Y-51497000D01*
X157206000Y-51517000D01*
X157163000Y-51535000D01*
X157118000Y-51551000D01*
X157073000Y-51564000D01*
X157027000Y-51575000D01*
X156981000Y-51584000D01*
X156934000Y-51590000D01*
X156887000Y-51594000D01*
X156840000Y-51595000D01*
X154340000Y-51595000D01*
X154340000Y-49795000D01*
X156840000Y-49795000D01*
X156887000Y-49796000D01*
G36*
X157471000Y-90437000D02*
G01*
X157487000Y-90439000D01*
X157502000Y-90442000D01*
X157518000Y-90445000D01*
X157548000Y-90455000D01*
X157562000Y-90461000D01*
X157590000Y-90475000D01*
X157603000Y-90483000D01*
X157616000Y-90492000D01*
X157629000Y-90502000D01*
X157641000Y-90512000D01*
X157663000Y-90534000D01*
X157673000Y-90546000D01*
X157683000Y-90559000D01*
X157692000Y-90572000D01*
X157700000Y-90585000D01*
X157714000Y-90613000D01*
X157720000Y-90627000D01*
X157730000Y-90657000D01*
X157733000Y-90673000D01*
X157736000Y-90688000D01*
X157738000Y-90704000D01*
X157740000Y-90719000D01*
X157740000Y-91951000D01*
X157738000Y-91966000D01*
X157736000Y-91982000D01*
X157733000Y-91997000D01*
X157730000Y-92013000D01*
X157720000Y-92043000D01*
X157714000Y-92057000D01*
X157700000Y-92085000D01*
X157692000Y-92098000D01*
X157683000Y-92111000D01*
X157673000Y-92124000D01*
X157663000Y-92136000D01*
X157641000Y-92158000D01*
X157629000Y-92168000D01*
X157616000Y-92178000D01*
X157603000Y-92187000D01*
X157590000Y-92195000D01*
X157562000Y-92209000D01*
X157548000Y-92215000D01*
X157518000Y-92225000D01*
X157502000Y-92228000D01*
X157487000Y-92231000D01*
X157471000Y-92233000D01*
X157456000Y-92235000D01*
X154340000Y-92235000D01*
X154340000Y-90435000D01*
X157456000Y-90435000D01*
X157471000Y-90437000D01*
G37*
X157471000Y-90437000D02*
X157487000Y-90439000D01*
X157502000Y-90442000D01*
X157518000Y-90445000D01*
X157548000Y-90455000D01*
X157562000Y-90461000D01*
X157590000Y-90475000D01*
X157603000Y-90483000D01*
X157616000Y-90492000D01*
X157629000Y-90502000D01*
X157641000Y-90512000D01*
X157663000Y-90534000D01*
X157673000Y-90546000D01*
X157683000Y-90559000D01*
X157692000Y-90572000D01*
X157700000Y-90585000D01*
X157714000Y-90613000D01*
X157720000Y-90627000D01*
X157730000Y-90657000D01*
X157733000Y-90673000D01*
X157736000Y-90688000D01*
X157738000Y-90704000D01*
X157740000Y-90719000D01*
X157740000Y-91951000D01*
X157738000Y-91966000D01*
X157736000Y-91982000D01*
X157733000Y-91997000D01*
X157730000Y-92013000D01*
X157720000Y-92043000D01*
X157714000Y-92057000D01*
X157700000Y-92085000D01*
X157692000Y-92098000D01*
X157683000Y-92111000D01*
X157673000Y-92124000D01*
X157663000Y-92136000D01*
X157641000Y-92158000D01*
X157629000Y-92168000D01*
X157616000Y-92178000D01*
X157603000Y-92187000D01*
X157590000Y-92195000D01*
X157562000Y-92209000D01*
X157548000Y-92215000D01*
X157518000Y-92225000D01*
X157502000Y-92228000D01*
X157487000Y-92231000D01*
X157471000Y-92233000D01*
X157456000Y-92235000D01*
X154340000Y-92235000D01*
X154340000Y-90435000D01*
X157456000Y-90435000D01*
X157471000Y-90437000D01*
G36*
X157471000Y-52337000D02*
G01*
X157487000Y-52339000D01*
X157502000Y-52342000D01*
X157518000Y-52345000D01*
X157548000Y-52355000D01*
X157562000Y-52361000D01*
X157590000Y-52375000D01*
X157603000Y-52383000D01*
X157616000Y-52392000D01*
X157629000Y-52402000D01*
X157641000Y-52412000D01*
X157663000Y-52434000D01*
X157673000Y-52446000D01*
X157683000Y-52459000D01*
X157692000Y-52472000D01*
X157700000Y-52485000D01*
X157714000Y-52513000D01*
X157720000Y-52527000D01*
X157730000Y-52557000D01*
X157733000Y-52573000D01*
X157736000Y-52588000D01*
X157738000Y-52604000D01*
X157740000Y-52619000D01*
X157740000Y-53851000D01*
X157738000Y-53866000D01*
X157736000Y-53882000D01*
X157733000Y-53897000D01*
X157730000Y-53913000D01*
X157720000Y-53943000D01*
X157714000Y-53957000D01*
X157700000Y-53985000D01*
X157692000Y-53998000D01*
X157683000Y-54011000D01*
X157673000Y-54024000D01*
X157663000Y-54036000D01*
X157641000Y-54058000D01*
X157629000Y-54068000D01*
X157616000Y-54078000D01*
X157603000Y-54087000D01*
X157590000Y-54095000D01*
X157562000Y-54109000D01*
X157548000Y-54115000D01*
X157518000Y-54125000D01*
X157502000Y-54128000D01*
X157487000Y-54131000D01*
X157471000Y-54133000D01*
X157456000Y-54135000D01*
X154340000Y-54135000D01*
X154340000Y-52335000D01*
X157456000Y-52335000D01*
X157471000Y-52337000D01*
G37*
X157471000Y-52337000D02*
X157487000Y-52339000D01*
X157502000Y-52342000D01*
X157518000Y-52345000D01*
X157548000Y-52355000D01*
X157562000Y-52361000D01*
X157590000Y-52375000D01*
X157603000Y-52383000D01*
X157616000Y-52392000D01*
X157629000Y-52402000D01*
X157641000Y-52412000D01*
X157663000Y-52434000D01*
X157673000Y-52446000D01*
X157683000Y-52459000D01*
X157692000Y-52472000D01*
X157700000Y-52485000D01*
X157714000Y-52513000D01*
X157720000Y-52527000D01*
X157730000Y-52557000D01*
X157733000Y-52573000D01*
X157736000Y-52588000D01*
X157738000Y-52604000D01*
X157740000Y-52619000D01*
X157740000Y-53851000D01*
X157738000Y-53866000D01*
X157736000Y-53882000D01*
X157733000Y-53897000D01*
X157730000Y-53913000D01*
X157720000Y-53943000D01*
X157714000Y-53957000D01*
X157700000Y-53985000D01*
X157692000Y-53998000D01*
X157683000Y-54011000D01*
X157673000Y-54024000D01*
X157663000Y-54036000D01*
X157641000Y-54058000D01*
X157629000Y-54068000D01*
X157616000Y-54078000D01*
X157603000Y-54087000D01*
X157590000Y-54095000D01*
X157562000Y-54109000D01*
X157548000Y-54115000D01*
X157518000Y-54125000D01*
X157502000Y-54128000D01*
X157487000Y-54131000D01*
X157471000Y-54133000D01*
X157456000Y-54135000D01*
X154340000Y-54135000D01*
X154340000Y-52335000D01*
X157456000Y-52335000D01*
X157471000Y-52337000D01*
G36*
X177120000Y-54135000D02*
G01*
X174004000Y-54135000D01*
X173989000Y-54133000D01*
X173973000Y-54131000D01*
X173958000Y-54128000D01*
X173942000Y-54125000D01*
X173912000Y-54115000D01*
X173898000Y-54109000D01*
X173870000Y-54095000D01*
X173857000Y-54087000D01*
X173844000Y-54078000D01*
X173831000Y-54068000D01*
X173819000Y-54058000D01*
X173797000Y-54036000D01*
X173787000Y-54024000D01*
X173777000Y-54011000D01*
X173768000Y-53998000D01*
X173760000Y-53985000D01*
X173746000Y-53957000D01*
X173740000Y-53943000D01*
X173730000Y-53913000D01*
X173727000Y-53897000D01*
X173724000Y-53882000D01*
X173722000Y-53866000D01*
X173720000Y-53851000D01*
X173720000Y-52619000D01*
X173722000Y-52604000D01*
X173724000Y-52588000D01*
X173727000Y-52573000D01*
X173730000Y-52557000D01*
X173740000Y-52527000D01*
X173746000Y-52513000D01*
X173760000Y-52485000D01*
X173768000Y-52472000D01*
X173777000Y-52459000D01*
X173787000Y-52446000D01*
X173797000Y-52434000D01*
X173819000Y-52412000D01*
X173831000Y-52402000D01*
X173844000Y-52392000D01*
X173857000Y-52383000D01*
X173870000Y-52375000D01*
X173898000Y-52361000D01*
X173912000Y-52355000D01*
X173942000Y-52345000D01*
X173958000Y-52342000D01*
X173973000Y-52339000D01*
X173989000Y-52337000D01*
X174004000Y-52335000D01*
X177120000Y-52335000D01*
X177120000Y-54135000D01*
G37*
X177120000Y-54135000D02*
X174004000Y-54135000D01*
X173989000Y-54133000D01*
X173973000Y-54131000D01*
X173958000Y-54128000D01*
X173942000Y-54125000D01*
X173912000Y-54115000D01*
X173898000Y-54109000D01*
X173870000Y-54095000D01*
X173857000Y-54087000D01*
X173844000Y-54078000D01*
X173831000Y-54068000D01*
X173819000Y-54058000D01*
X173797000Y-54036000D01*
X173787000Y-54024000D01*
X173777000Y-54011000D01*
X173768000Y-53998000D01*
X173760000Y-53985000D01*
X173746000Y-53957000D01*
X173740000Y-53943000D01*
X173730000Y-53913000D01*
X173727000Y-53897000D01*
X173724000Y-53882000D01*
X173722000Y-53866000D01*
X173720000Y-53851000D01*
X173720000Y-52619000D01*
X173722000Y-52604000D01*
X173724000Y-52588000D01*
X173727000Y-52573000D01*
X173730000Y-52557000D01*
X173740000Y-52527000D01*
X173746000Y-52513000D01*
X173760000Y-52485000D01*
X173768000Y-52472000D01*
X173777000Y-52459000D01*
X173787000Y-52446000D01*
X173797000Y-52434000D01*
X173819000Y-52412000D01*
X173831000Y-52402000D01*
X173844000Y-52392000D01*
X173857000Y-52383000D01*
X173870000Y-52375000D01*
X173898000Y-52361000D01*
X173912000Y-52355000D01*
X173942000Y-52345000D01*
X173958000Y-52342000D01*
X173973000Y-52339000D01*
X173989000Y-52337000D01*
X174004000Y-52335000D01*
X177120000Y-52335000D01*
X177120000Y-54135000D01*
G36*
X177120000Y-59215000D02*
G01*
X174620000Y-59215000D01*
X174573000Y-59214000D01*
X174526000Y-59210000D01*
X174479000Y-59204000D01*
X174433000Y-59195000D01*
X174387000Y-59184000D01*
X174342000Y-59171000D01*
X174297000Y-59155000D01*
X174254000Y-59137000D01*
X174211000Y-59117000D01*
X174170000Y-59094000D01*
X174130000Y-59070000D01*
X174091000Y-59043000D01*
X174054000Y-59014000D01*
X174018000Y-58984000D01*
X173984000Y-58951000D01*
X173951000Y-58917000D01*
X173921000Y-58881000D01*
X173892000Y-58844000D01*
X173865000Y-58805000D01*
X173841000Y-58765000D01*
X173818000Y-58724000D01*
X173798000Y-58681000D01*
X173780000Y-58638000D01*
X173764000Y-58593000D01*
X173751000Y-58548000D01*
X173740000Y-58502000D01*
X173731000Y-58456000D01*
X173725000Y-58409000D01*
X173721000Y-58362000D01*
X173720000Y-58315000D01*
X173721000Y-58268000D01*
X173725000Y-58221000D01*
X173731000Y-58174000D01*
X173740000Y-58128000D01*
X173751000Y-58082000D01*
X173764000Y-58037000D01*
X173780000Y-57992000D01*
X173798000Y-57949000D01*
X173818000Y-57906000D01*
X173841000Y-57865000D01*
X173865000Y-57825000D01*
X173892000Y-57786000D01*
X173921000Y-57749000D01*
X173951000Y-57713000D01*
X173984000Y-57679000D01*
X174018000Y-57646000D01*
X174054000Y-57616000D01*
X174091000Y-57587000D01*
X174130000Y-57560000D01*
X174170000Y-57536000D01*
X174211000Y-57513000D01*
X174254000Y-57493000D01*
X174297000Y-57475000D01*
X174342000Y-57459000D01*
X174387000Y-57446000D01*
X174433000Y-57435000D01*
X174479000Y-57426000D01*
X174526000Y-57420000D01*
X174573000Y-57416000D01*
X174620000Y-57415000D01*
X177120000Y-57415000D01*
X177120000Y-59215000D01*
G37*
X177120000Y-59215000D02*
X174620000Y-59215000D01*
X174573000Y-59214000D01*
X174526000Y-59210000D01*
X174479000Y-59204000D01*
X174433000Y-59195000D01*
X174387000Y-59184000D01*
X174342000Y-59171000D01*
X174297000Y-59155000D01*
X174254000Y-59137000D01*
X174211000Y-59117000D01*
X174170000Y-59094000D01*
X174130000Y-59070000D01*
X174091000Y-59043000D01*
X174054000Y-59014000D01*
X174018000Y-58984000D01*
X173984000Y-58951000D01*
X173951000Y-58917000D01*
X173921000Y-58881000D01*
X173892000Y-58844000D01*
X173865000Y-58805000D01*
X173841000Y-58765000D01*
X173818000Y-58724000D01*
X173798000Y-58681000D01*
X173780000Y-58638000D01*
X173764000Y-58593000D01*
X173751000Y-58548000D01*
X173740000Y-58502000D01*
X173731000Y-58456000D01*
X173725000Y-58409000D01*
X173721000Y-58362000D01*
X173720000Y-58315000D01*
X173721000Y-58268000D01*
X173725000Y-58221000D01*
X173731000Y-58174000D01*
X173740000Y-58128000D01*
X173751000Y-58082000D01*
X173764000Y-58037000D01*
X173780000Y-57992000D01*
X173798000Y-57949000D01*
X173818000Y-57906000D01*
X173841000Y-57865000D01*
X173865000Y-57825000D01*
X173892000Y-57786000D01*
X173921000Y-57749000D01*
X173951000Y-57713000D01*
X173984000Y-57679000D01*
X174018000Y-57646000D01*
X174054000Y-57616000D01*
X174091000Y-57587000D01*
X174130000Y-57560000D01*
X174170000Y-57536000D01*
X174211000Y-57513000D01*
X174254000Y-57493000D01*
X174297000Y-57475000D01*
X174342000Y-57459000D01*
X174387000Y-57446000D01*
X174433000Y-57435000D01*
X174479000Y-57426000D01*
X174526000Y-57420000D01*
X174573000Y-57416000D01*
X174620000Y-57415000D01*
X177120000Y-57415000D01*
X177120000Y-59215000D01*
G36*
X156887000Y-67576000D02*
G01*
X156934000Y-67580000D01*
X156981000Y-67586000D01*
X157027000Y-67595000D01*
X157073000Y-67606000D01*
X157118000Y-67619000D01*
X157163000Y-67635000D01*
X157206000Y-67653000D01*
X157249000Y-67673000D01*
X157290000Y-67696000D01*
X157330000Y-67720000D01*
X157369000Y-67747000D01*
X157406000Y-67776000D01*
X157442000Y-67806000D01*
X157476000Y-67839000D01*
X157509000Y-67873000D01*
X157539000Y-67909000D01*
X157568000Y-67946000D01*
X157595000Y-67985000D01*
X157619000Y-68025000D01*
X157642000Y-68066000D01*
X157662000Y-68109000D01*
X157680000Y-68152000D01*
X157696000Y-68197000D01*
X157709000Y-68242000D01*
X157720000Y-68288000D01*
X157729000Y-68334000D01*
X157735000Y-68381000D01*
X157739000Y-68428000D01*
X157740000Y-68475000D01*
X157739000Y-68522000D01*
X157735000Y-68569000D01*
X157729000Y-68616000D01*
X157720000Y-68662000D01*
X157709000Y-68708000D01*
X157696000Y-68753000D01*
X157680000Y-68798000D01*
X157662000Y-68841000D01*
X157642000Y-68884000D01*
X157619000Y-68925000D01*
X157595000Y-68965000D01*
X157568000Y-69004000D01*
X157539000Y-69041000D01*
X157509000Y-69077000D01*
X157476000Y-69111000D01*
X157442000Y-69144000D01*
X157406000Y-69174000D01*
X157369000Y-69203000D01*
X157330000Y-69230000D01*
X157290000Y-69254000D01*
X157249000Y-69277000D01*
X157206000Y-69297000D01*
X157163000Y-69315000D01*
X157118000Y-69331000D01*
X157073000Y-69344000D01*
X157027000Y-69355000D01*
X156981000Y-69364000D01*
X156934000Y-69370000D01*
X156887000Y-69374000D01*
X156840000Y-69375000D01*
X154340000Y-69375000D01*
X154340000Y-67575000D01*
X156840000Y-67575000D01*
X156887000Y-67576000D01*
G37*
X156887000Y-67576000D02*
X156934000Y-67580000D01*
X156981000Y-67586000D01*
X157027000Y-67595000D01*
X157073000Y-67606000D01*
X157118000Y-67619000D01*
X157163000Y-67635000D01*
X157206000Y-67653000D01*
X157249000Y-67673000D01*
X157290000Y-67696000D01*
X157330000Y-67720000D01*
X157369000Y-67747000D01*
X157406000Y-67776000D01*
X157442000Y-67806000D01*
X157476000Y-67839000D01*
X157509000Y-67873000D01*
X157539000Y-67909000D01*
X157568000Y-67946000D01*
X157595000Y-67985000D01*
X157619000Y-68025000D01*
X157642000Y-68066000D01*
X157662000Y-68109000D01*
X157680000Y-68152000D01*
X157696000Y-68197000D01*
X157709000Y-68242000D01*
X157720000Y-68288000D01*
X157729000Y-68334000D01*
X157735000Y-68381000D01*
X157739000Y-68428000D01*
X157740000Y-68475000D01*
X157739000Y-68522000D01*
X157735000Y-68569000D01*
X157729000Y-68616000D01*
X157720000Y-68662000D01*
X157709000Y-68708000D01*
X157696000Y-68753000D01*
X157680000Y-68798000D01*
X157662000Y-68841000D01*
X157642000Y-68884000D01*
X157619000Y-68925000D01*
X157595000Y-68965000D01*
X157568000Y-69004000D01*
X157539000Y-69041000D01*
X157509000Y-69077000D01*
X157476000Y-69111000D01*
X157442000Y-69144000D01*
X157406000Y-69174000D01*
X157369000Y-69203000D01*
X157330000Y-69230000D01*
X157290000Y-69254000D01*
X157249000Y-69277000D01*
X157206000Y-69297000D01*
X157163000Y-69315000D01*
X157118000Y-69331000D01*
X157073000Y-69344000D01*
X157027000Y-69355000D01*
X156981000Y-69364000D01*
X156934000Y-69370000D01*
X156887000Y-69374000D01*
X156840000Y-69375000D01*
X154340000Y-69375000D01*
X154340000Y-67575000D01*
X156840000Y-67575000D01*
X156887000Y-67576000D01*
G36*
X156887000Y-87896000D02*
G01*
X156934000Y-87900000D01*
X156981000Y-87906000D01*
X157027000Y-87915000D01*
X157073000Y-87926000D01*
X157118000Y-87939000D01*
X157163000Y-87955000D01*
X157206000Y-87973000D01*
X157249000Y-87993000D01*
X157290000Y-88016000D01*
X157330000Y-88040000D01*
X157369000Y-88067000D01*
X157406000Y-88096000D01*
X157442000Y-88126000D01*
X157476000Y-88159000D01*
X157509000Y-88193000D01*
X157539000Y-88229000D01*
X157568000Y-88266000D01*
X157595000Y-88305000D01*
X157619000Y-88345000D01*
X157642000Y-88386000D01*
X157662000Y-88429000D01*
X157680000Y-88472000D01*
X157696000Y-88517000D01*
X157709000Y-88562000D01*
X157720000Y-88608000D01*
X157729000Y-88654000D01*
X157735000Y-88701000D01*
X157739000Y-88748000D01*
X157740000Y-88795000D01*
X157739000Y-88842000D01*
X157735000Y-88889000D01*
X157729000Y-88936000D01*
X157720000Y-88982000D01*
X157709000Y-89028000D01*
X157696000Y-89073000D01*
X157680000Y-89118000D01*
X157662000Y-89161000D01*
X157642000Y-89204000D01*
X157619000Y-89245000D01*
X157595000Y-89285000D01*
X157568000Y-89324000D01*
X157539000Y-89361000D01*
X157509000Y-89397000D01*
X157476000Y-89431000D01*
X157442000Y-89464000D01*
X157406000Y-89494000D01*
X157369000Y-89523000D01*
X157330000Y-89550000D01*
X157290000Y-89574000D01*
X157249000Y-89597000D01*
X157206000Y-89617000D01*
X157163000Y-89635000D01*
X157118000Y-89651000D01*
X157073000Y-89664000D01*
X157027000Y-89675000D01*
X156981000Y-89684000D01*
X156934000Y-89690000D01*
X156887000Y-89694000D01*
X156840000Y-89695000D01*
X154340000Y-89695000D01*
X154340000Y-87895000D01*
X156840000Y-87895000D01*
X156887000Y-87896000D01*
G37*
X156887000Y-87896000D02*
X156934000Y-87900000D01*
X156981000Y-87906000D01*
X157027000Y-87915000D01*
X157073000Y-87926000D01*
X157118000Y-87939000D01*
X157163000Y-87955000D01*
X157206000Y-87973000D01*
X157249000Y-87993000D01*
X157290000Y-88016000D01*
X157330000Y-88040000D01*
X157369000Y-88067000D01*
X157406000Y-88096000D01*
X157442000Y-88126000D01*
X157476000Y-88159000D01*
X157509000Y-88193000D01*
X157539000Y-88229000D01*
X157568000Y-88266000D01*
X157595000Y-88305000D01*
X157619000Y-88345000D01*
X157642000Y-88386000D01*
X157662000Y-88429000D01*
X157680000Y-88472000D01*
X157696000Y-88517000D01*
X157709000Y-88562000D01*
X157720000Y-88608000D01*
X157729000Y-88654000D01*
X157735000Y-88701000D01*
X157739000Y-88748000D01*
X157740000Y-88795000D01*
X157739000Y-88842000D01*
X157735000Y-88889000D01*
X157729000Y-88936000D01*
X157720000Y-88982000D01*
X157709000Y-89028000D01*
X157696000Y-89073000D01*
X157680000Y-89118000D01*
X157662000Y-89161000D01*
X157642000Y-89204000D01*
X157619000Y-89245000D01*
X157595000Y-89285000D01*
X157568000Y-89324000D01*
X157539000Y-89361000D01*
X157509000Y-89397000D01*
X157476000Y-89431000D01*
X157442000Y-89464000D01*
X157406000Y-89494000D01*
X157369000Y-89523000D01*
X157330000Y-89550000D01*
X157290000Y-89574000D01*
X157249000Y-89597000D01*
X157206000Y-89617000D01*
X157163000Y-89635000D01*
X157118000Y-89651000D01*
X157073000Y-89664000D01*
X157027000Y-89675000D01*
X156981000Y-89684000D01*
X156934000Y-89690000D01*
X156887000Y-89694000D01*
X156840000Y-89695000D01*
X154340000Y-89695000D01*
X154340000Y-87895000D01*
X156840000Y-87895000D01*
X156887000Y-87896000D01*
G36*
X177120000Y-82075000D02*
G01*
X174620000Y-82075000D01*
X174573000Y-82074000D01*
X174526000Y-82070000D01*
X174479000Y-82064000D01*
X174433000Y-82055000D01*
X174387000Y-82044000D01*
X174342000Y-82031000D01*
X174297000Y-82015000D01*
X174254000Y-81997000D01*
X174211000Y-81977000D01*
X174170000Y-81954000D01*
X174130000Y-81930000D01*
X174091000Y-81903000D01*
X174054000Y-81874000D01*
X174018000Y-81844000D01*
X173984000Y-81811000D01*
X173951000Y-81777000D01*
X173921000Y-81741000D01*
X173892000Y-81704000D01*
X173865000Y-81665000D01*
X173841000Y-81625000D01*
X173818000Y-81584000D01*
X173798000Y-81541000D01*
X173780000Y-81498000D01*
X173764000Y-81453000D01*
X173751000Y-81408000D01*
X173740000Y-81362000D01*
X173731000Y-81316000D01*
X173725000Y-81269000D01*
X173721000Y-81222000D01*
X173720000Y-81175000D01*
X173721000Y-81128000D01*
X173725000Y-81081000D01*
X173731000Y-81034000D01*
X173740000Y-80988000D01*
X173751000Y-80942000D01*
X173764000Y-80897000D01*
X173780000Y-80852000D01*
X173798000Y-80809000D01*
X173818000Y-80766000D01*
X173841000Y-80725000D01*
X173865000Y-80685000D01*
X173892000Y-80646000D01*
X173921000Y-80609000D01*
X173951000Y-80573000D01*
X173984000Y-80539000D01*
X174018000Y-80506000D01*
X174054000Y-80476000D01*
X174091000Y-80447000D01*
X174130000Y-80420000D01*
X174170000Y-80396000D01*
X174211000Y-80373000D01*
X174254000Y-80353000D01*
X174297000Y-80335000D01*
X174342000Y-80319000D01*
X174387000Y-80306000D01*
X174433000Y-80295000D01*
X174479000Y-80286000D01*
X174526000Y-80280000D01*
X174573000Y-80276000D01*
X174620000Y-80275000D01*
X177120000Y-80275000D01*
X177120000Y-82075000D01*
G37*
X177120000Y-82075000D02*
X174620000Y-82075000D01*
X174573000Y-82074000D01*
X174526000Y-82070000D01*
X174479000Y-82064000D01*
X174433000Y-82055000D01*
X174387000Y-82044000D01*
X174342000Y-82031000D01*
X174297000Y-82015000D01*
X174254000Y-81997000D01*
X174211000Y-81977000D01*
X174170000Y-81954000D01*
X174130000Y-81930000D01*
X174091000Y-81903000D01*
X174054000Y-81874000D01*
X174018000Y-81844000D01*
X173984000Y-81811000D01*
X173951000Y-81777000D01*
X173921000Y-81741000D01*
X173892000Y-81704000D01*
X173865000Y-81665000D01*
X173841000Y-81625000D01*
X173818000Y-81584000D01*
X173798000Y-81541000D01*
X173780000Y-81498000D01*
X173764000Y-81453000D01*
X173751000Y-81408000D01*
X173740000Y-81362000D01*
X173731000Y-81316000D01*
X173725000Y-81269000D01*
X173721000Y-81222000D01*
X173720000Y-81175000D01*
X173721000Y-81128000D01*
X173725000Y-81081000D01*
X173731000Y-81034000D01*
X173740000Y-80988000D01*
X173751000Y-80942000D01*
X173764000Y-80897000D01*
X173780000Y-80852000D01*
X173798000Y-80809000D01*
X173818000Y-80766000D01*
X173841000Y-80725000D01*
X173865000Y-80685000D01*
X173892000Y-80646000D01*
X173921000Y-80609000D01*
X173951000Y-80573000D01*
X173984000Y-80539000D01*
X174018000Y-80506000D01*
X174054000Y-80476000D01*
X174091000Y-80447000D01*
X174130000Y-80420000D01*
X174170000Y-80396000D01*
X174211000Y-80373000D01*
X174254000Y-80353000D01*
X174297000Y-80335000D01*
X174342000Y-80319000D01*
X174387000Y-80306000D01*
X174433000Y-80295000D01*
X174479000Y-80286000D01*
X174526000Y-80280000D01*
X174573000Y-80276000D01*
X174620000Y-80275000D01*
X177120000Y-80275000D01*
X177120000Y-82075000D01*
G36*
X156887000Y-54876000D02*
G01*
X156934000Y-54880000D01*
X156981000Y-54886000D01*
X157027000Y-54895000D01*
X157073000Y-54906000D01*
X157118000Y-54919000D01*
X157163000Y-54935000D01*
X157206000Y-54953000D01*
X157249000Y-54973000D01*
X157290000Y-54996000D01*
X157330000Y-55020000D01*
X157369000Y-55047000D01*
X157406000Y-55076000D01*
X157442000Y-55106000D01*
X157476000Y-55139000D01*
X157509000Y-55173000D01*
X157539000Y-55209000D01*
X157568000Y-55246000D01*
X157595000Y-55285000D01*
X157619000Y-55325000D01*
X157642000Y-55366000D01*
X157662000Y-55409000D01*
X157680000Y-55452000D01*
X157696000Y-55497000D01*
X157709000Y-55542000D01*
X157720000Y-55588000D01*
X157729000Y-55634000D01*
X157735000Y-55681000D01*
X157739000Y-55728000D01*
X157740000Y-55775000D01*
X157739000Y-55822000D01*
X157735000Y-55869000D01*
X157729000Y-55916000D01*
X157720000Y-55962000D01*
X157709000Y-56008000D01*
X157696000Y-56053000D01*
X157680000Y-56098000D01*
X157662000Y-56141000D01*
X157642000Y-56184000D01*
X157619000Y-56225000D01*
X157595000Y-56265000D01*
X157568000Y-56304000D01*
X157539000Y-56341000D01*
X157509000Y-56377000D01*
X157476000Y-56411000D01*
X157442000Y-56444000D01*
X157406000Y-56474000D01*
X157369000Y-56503000D01*
X157330000Y-56530000D01*
X157290000Y-56554000D01*
X157249000Y-56577000D01*
X157206000Y-56597000D01*
X157163000Y-56615000D01*
X157118000Y-56631000D01*
X157073000Y-56644000D01*
X157027000Y-56655000D01*
X156981000Y-56664000D01*
X156934000Y-56670000D01*
X156887000Y-56674000D01*
X156840000Y-56675000D01*
X154340000Y-56675000D01*
X154340000Y-54875000D01*
X156840000Y-54875000D01*
X156887000Y-54876000D01*
G37*
X156887000Y-54876000D02*
X156934000Y-54880000D01*
X156981000Y-54886000D01*
X157027000Y-54895000D01*
X157073000Y-54906000D01*
X157118000Y-54919000D01*
X157163000Y-54935000D01*
X157206000Y-54953000D01*
X157249000Y-54973000D01*
X157290000Y-54996000D01*
X157330000Y-55020000D01*
X157369000Y-55047000D01*
X157406000Y-55076000D01*
X157442000Y-55106000D01*
X157476000Y-55139000D01*
X157509000Y-55173000D01*
X157539000Y-55209000D01*
X157568000Y-55246000D01*
X157595000Y-55285000D01*
X157619000Y-55325000D01*
X157642000Y-55366000D01*
X157662000Y-55409000D01*
X157680000Y-55452000D01*
X157696000Y-55497000D01*
X157709000Y-55542000D01*
X157720000Y-55588000D01*
X157729000Y-55634000D01*
X157735000Y-55681000D01*
X157739000Y-55728000D01*
X157740000Y-55775000D01*
X157739000Y-55822000D01*
X157735000Y-55869000D01*
X157729000Y-55916000D01*
X157720000Y-55962000D01*
X157709000Y-56008000D01*
X157696000Y-56053000D01*
X157680000Y-56098000D01*
X157662000Y-56141000D01*
X157642000Y-56184000D01*
X157619000Y-56225000D01*
X157595000Y-56265000D01*
X157568000Y-56304000D01*
X157539000Y-56341000D01*
X157509000Y-56377000D01*
X157476000Y-56411000D01*
X157442000Y-56444000D01*
X157406000Y-56474000D01*
X157369000Y-56503000D01*
X157330000Y-56530000D01*
X157290000Y-56554000D01*
X157249000Y-56577000D01*
X157206000Y-56597000D01*
X157163000Y-56615000D01*
X157118000Y-56631000D01*
X157073000Y-56644000D01*
X157027000Y-56655000D01*
X156981000Y-56664000D01*
X156934000Y-56670000D01*
X156887000Y-56674000D01*
X156840000Y-56675000D01*
X154340000Y-56675000D01*
X154340000Y-54875000D01*
X156840000Y-54875000D01*
X156887000Y-54876000D01*
G36*
X156887000Y-75196000D02*
G01*
X156934000Y-75200000D01*
X156981000Y-75206000D01*
X157027000Y-75215000D01*
X157073000Y-75226000D01*
X157118000Y-75239000D01*
X157163000Y-75255000D01*
X157206000Y-75273000D01*
X157249000Y-75293000D01*
X157290000Y-75316000D01*
X157330000Y-75340000D01*
X157369000Y-75367000D01*
X157406000Y-75396000D01*
X157442000Y-75426000D01*
X157476000Y-75459000D01*
X157509000Y-75493000D01*
X157539000Y-75529000D01*
X157568000Y-75566000D01*
X157595000Y-75605000D01*
X157619000Y-75645000D01*
X157642000Y-75686000D01*
X157662000Y-75729000D01*
X157680000Y-75772000D01*
X157696000Y-75817000D01*
X157709000Y-75862000D01*
X157720000Y-75908000D01*
X157729000Y-75954000D01*
X157735000Y-76001000D01*
X157739000Y-76048000D01*
X157740000Y-76095000D01*
X157739000Y-76142000D01*
X157735000Y-76189000D01*
X157729000Y-76236000D01*
X157720000Y-76282000D01*
X157709000Y-76328000D01*
X157696000Y-76373000D01*
X157680000Y-76418000D01*
X157662000Y-76461000D01*
X157642000Y-76504000D01*
X157619000Y-76545000D01*
X157595000Y-76585000D01*
X157568000Y-76624000D01*
X157539000Y-76661000D01*
X157509000Y-76697000D01*
X157476000Y-76731000D01*
X157442000Y-76764000D01*
X157406000Y-76794000D01*
X157369000Y-76823000D01*
X157330000Y-76850000D01*
X157290000Y-76874000D01*
X157249000Y-76897000D01*
X157206000Y-76917000D01*
X157163000Y-76935000D01*
X157118000Y-76951000D01*
X157073000Y-76964000D01*
X157027000Y-76975000D01*
X156981000Y-76984000D01*
X156934000Y-76990000D01*
X156887000Y-76994000D01*
X156840000Y-76995000D01*
X154340000Y-76995000D01*
X154340000Y-75195000D01*
X156840000Y-75195000D01*
X156887000Y-75196000D01*
G37*
X156887000Y-75196000D02*
X156934000Y-75200000D01*
X156981000Y-75206000D01*
X157027000Y-75215000D01*
X157073000Y-75226000D01*
X157118000Y-75239000D01*
X157163000Y-75255000D01*
X157206000Y-75273000D01*
X157249000Y-75293000D01*
X157290000Y-75316000D01*
X157330000Y-75340000D01*
X157369000Y-75367000D01*
X157406000Y-75396000D01*
X157442000Y-75426000D01*
X157476000Y-75459000D01*
X157509000Y-75493000D01*
X157539000Y-75529000D01*
X157568000Y-75566000D01*
X157595000Y-75605000D01*
X157619000Y-75645000D01*
X157642000Y-75686000D01*
X157662000Y-75729000D01*
X157680000Y-75772000D01*
X157696000Y-75817000D01*
X157709000Y-75862000D01*
X157720000Y-75908000D01*
X157729000Y-75954000D01*
X157735000Y-76001000D01*
X157739000Y-76048000D01*
X157740000Y-76095000D01*
X157739000Y-76142000D01*
X157735000Y-76189000D01*
X157729000Y-76236000D01*
X157720000Y-76282000D01*
X157709000Y-76328000D01*
X157696000Y-76373000D01*
X157680000Y-76418000D01*
X157662000Y-76461000D01*
X157642000Y-76504000D01*
X157619000Y-76545000D01*
X157595000Y-76585000D01*
X157568000Y-76624000D01*
X157539000Y-76661000D01*
X157509000Y-76697000D01*
X157476000Y-76731000D01*
X157442000Y-76764000D01*
X157406000Y-76794000D01*
X157369000Y-76823000D01*
X157330000Y-76850000D01*
X157290000Y-76874000D01*
X157249000Y-76897000D01*
X157206000Y-76917000D01*
X157163000Y-76935000D01*
X157118000Y-76951000D01*
X157073000Y-76964000D01*
X157027000Y-76975000D01*
X156981000Y-76984000D01*
X156934000Y-76990000D01*
X156887000Y-76994000D01*
X156840000Y-76995000D01*
X154340000Y-76995000D01*
X154340000Y-75195000D01*
X156840000Y-75195000D01*
X156887000Y-75196000D01*
G36*
X163237000Y-95286000D02*
G01*
X163284000Y-95290000D01*
X163331000Y-95296000D01*
X163377000Y-95305000D01*
X163423000Y-95316000D01*
X163468000Y-95329000D01*
X163513000Y-95345000D01*
X163556000Y-95363000D01*
X163599000Y-95383000D01*
X163640000Y-95406000D01*
X163680000Y-95430000D01*
X163719000Y-95457000D01*
X163756000Y-95486000D01*
X163792000Y-95516000D01*
X163826000Y-95549000D01*
X163859000Y-95583000D01*
X163889000Y-95619000D01*
X163918000Y-95656000D01*
X163945000Y-95695000D01*
X163969000Y-95735000D01*
X163992000Y-95776000D01*
X164012000Y-95819000D01*
X164030000Y-95862000D01*
X164046000Y-95907000D01*
X164059000Y-95952000D01*
X164070000Y-95998000D01*
X164079000Y-96044000D01*
X164085000Y-96091000D01*
X164089000Y-96138000D01*
X164090000Y-96185000D01*
X164090000Y-98685000D01*
X162290000Y-98685000D01*
X162290000Y-96185000D01*
X162291000Y-96138000D01*
X162295000Y-96091000D01*
X162301000Y-96044000D01*
X162310000Y-95998000D01*
X162321000Y-95952000D01*
X162334000Y-95907000D01*
X162350000Y-95862000D01*
X162368000Y-95819000D01*
X162388000Y-95776000D01*
X162411000Y-95735000D01*
X162435000Y-95695000D01*
X162462000Y-95656000D01*
X162491000Y-95619000D01*
X162521000Y-95583000D01*
X162554000Y-95549000D01*
X162588000Y-95516000D01*
X162624000Y-95486000D01*
X162661000Y-95457000D01*
X162700000Y-95430000D01*
X162740000Y-95406000D01*
X162781000Y-95383000D01*
X162824000Y-95363000D01*
X162867000Y-95345000D01*
X162912000Y-95329000D01*
X162957000Y-95316000D01*
X163003000Y-95305000D01*
X163049000Y-95296000D01*
X163096000Y-95290000D01*
X163143000Y-95286000D01*
X163190000Y-95285000D01*
X163237000Y-95286000D01*
G37*
X163237000Y-95286000D02*
X163284000Y-95290000D01*
X163331000Y-95296000D01*
X163377000Y-95305000D01*
X163423000Y-95316000D01*
X163468000Y-95329000D01*
X163513000Y-95345000D01*
X163556000Y-95363000D01*
X163599000Y-95383000D01*
X163640000Y-95406000D01*
X163680000Y-95430000D01*
X163719000Y-95457000D01*
X163756000Y-95486000D01*
X163792000Y-95516000D01*
X163826000Y-95549000D01*
X163859000Y-95583000D01*
X163889000Y-95619000D01*
X163918000Y-95656000D01*
X163945000Y-95695000D01*
X163969000Y-95735000D01*
X163992000Y-95776000D01*
X164012000Y-95819000D01*
X164030000Y-95862000D01*
X164046000Y-95907000D01*
X164059000Y-95952000D01*
X164070000Y-95998000D01*
X164079000Y-96044000D01*
X164085000Y-96091000D01*
X164089000Y-96138000D01*
X164090000Y-96185000D01*
X164090000Y-98685000D01*
X162290000Y-98685000D01*
X162290000Y-96185000D01*
X162291000Y-96138000D01*
X162295000Y-96091000D01*
X162301000Y-96044000D01*
X162310000Y-95998000D01*
X162321000Y-95952000D01*
X162334000Y-95907000D01*
X162350000Y-95862000D01*
X162368000Y-95819000D01*
X162388000Y-95776000D01*
X162411000Y-95735000D01*
X162435000Y-95695000D01*
X162462000Y-95656000D01*
X162491000Y-95619000D01*
X162521000Y-95583000D01*
X162554000Y-95549000D01*
X162588000Y-95516000D01*
X162624000Y-95486000D01*
X162661000Y-95457000D01*
X162700000Y-95430000D01*
X162740000Y-95406000D01*
X162781000Y-95383000D01*
X162824000Y-95363000D01*
X162867000Y-95345000D01*
X162912000Y-95329000D01*
X162957000Y-95316000D01*
X163003000Y-95305000D01*
X163049000Y-95296000D01*
X163096000Y-95290000D01*
X163143000Y-95286000D01*
X163190000Y-95285000D01*
X163237000Y-95286000D01*
G36*
X177120000Y-66835000D02*
G01*
X174004000Y-66835000D01*
X173989000Y-66833000D01*
X173973000Y-66831000D01*
X173958000Y-66828000D01*
X173942000Y-66825000D01*
X173912000Y-66815000D01*
X173898000Y-66809000D01*
X173870000Y-66795000D01*
X173857000Y-66787000D01*
X173844000Y-66778000D01*
X173831000Y-66768000D01*
X173819000Y-66758000D01*
X173797000Y-66736000D01*
X173787000Y-66724000D01*
X173777000Y-66711000D01*
X173768000Y-66698000D01*
X173760000Y-66685000D01*
X173746000Y-66657000D01*
X173740000Y-66643000D01*
X173730000Y-66613000D01*
X173727000Y-66597000D01*
X173724000Y-66582000D01*
X173722000Y-66566000D01*
X173720000Y-66551000D01*
X173720000Y-65319000D01*
X173722000Y-65304000D01*
X173724000Y-65288000D01*
X173727000Y-65273000D01*
X173730000Y-65257000D01*
X173740000Y-65227000D01*
X173746000Y-65213000D01*
X173760000Y-65185000D01*
X173768000Y-65172000D01*
X173777000Y-65159000D01*
X173787000Y-65146000D01*
X173797000Y-65134000D01*
X173819000Y-65112000D01*
X173831000Y-65102000D01*
X173844000Y-65092000D01*
X173857000Y-65083000D01*
X173870000Y-65075000D01*
X173898000Y-65061000D01*
X173912000Y-65055000D01*
X173942000Y-65045000D01*
X173958000Y-65042000D01*
X173973000Y-65039000D01*
X173989000Y-65037000D01*
X174004000Y-65035000D01*
X177120000Y-65035000D01*
X177120000Y-66835000D01*
G37*
X177120000Y-66835000D02*
X174004000Y-66835000D01*
X173989000Y-66833000D01*
X173973000Y-66831000D01*
X173958000Y-66828000D01*
X173942000Y-66825000D01*
X173912000Y-66815000D01*
X173898000Y-66809000D01*
X173870000Y-66795000D01*
X173857000Y-66787000D01*
X173844000Y-66778000D01*
X173831000Y-66768000D01*
X173819000Y-66758000D01*
X173797000Y-66736000D01*
X173787000Y-66724000D01*
X173777000Y-66711000D01*
X173768000Y-66698000D01*
X173760000Y-66685000D01*
X173746000Y-66657000D01*
X173740000Y-66643000D01*
X173730000Y-66613000D01*
X173727000Y-66597000D01*
X173724000Y-66582000D01*
X173722000Y-66566000D01*
X173720000Y-66551000D01*
X173720000Y-65319000D01*
X173722000Y-65304000D01*
X173724000Y-65288000D01*
X173727000Y-65273000D01*
X173730000Y-65257000D01*
X173740000Y-65227000D01*
X173746000Y-65213000D01*
X173760000Y-65185000D01*
X173768000Y-65172000D01*
X173777000Y-65159000D01*
X173787000Y-65146000D01*
X173797000Y-65134000D01*
X173819000Y-65112000D01*
X173831000Y-65102000D01*
X173844000Y-65092000D01*
X173857000Y-65083000D01*
X173870000Y-65075000D01*
X173898000Y-65061000D01*
X173912000Y-65055000D01*
X173942000Y-65045000D01*
X173958000Y-65042000D01*
X173973000Y-65039000D01*
X173989000Y-65037000D01*
X174004000Y-65035000D01*
X177120000Y-65035000D01*
X177120000Y-66835000D01*
G36*
X177120000Y-56675000D02*
G01*
X174620000Y-56675000D01*
X174573000Y-56674000D01*
X174526000Y-56670000D01*
X174479000Y-56664000D01*
X174433000Y-56655000D01*
X174387000Y-56644000D01*
X174342000Y-56631000D01*
X174297000Y-56615000D01*
X174254000Y-56597000D01*
X174211000Y-56577000D01*
X174170000Y-56554000D01*
X174130000Y-56530000D01*
X174091000Y-56503000D01*
X174054000Y-56474000D01*
X174018000Y-56444000D01*
X173984000Y-56411000D01*
X173951000Y-56377000D01*
X173921000Y-56341000D01*
X173892000Y-56304000D01*
X173865000Y-56265000D01*
X173841000Y-56225000D01*
X173818000Y-56184000D01*
X173798000Y-56141000D01*
X173780000Y-56098000D01*
X173764000Y-56053000D01*
X173751000Y-56008000D01*
X173740000Y-55962000D01*
X173731000Y-55916000D01*
X173725000Y-55869000D01*
X173721000Y-55822000D01*
X173720000Y-55775000D01*
X173721000Y-55728000D01*
X173725000Y-55681000D01*
X173731000Y-55634000D01*
X173740000Y-55588000D01*
X173751000Y-55542000D01*
X173764000Y-55497000D01*
X173780000Y-55452000D01*
X173798000Y-55409000D01*
X173818000Y-55366000D01*
X173841000Y-55325000D01*
X173865000Y-55285000D01*
X173892000Y-55246000D01*
X173921000Y-55209000D01*
X173951000Y-55173000D01*
X173984000Y-55139000D01*
X174018000Y-55106000D01*
X174054000Y-55076000D01*
X174091000Y-55047000D01*
X174130000Y-55020000D01*
X174170000Y-54996000D01*
X174211000Y-54973000D01*
X174254000Y-54953000D01*
X174297000Y-54935000D01*
X174342000Y-54919000D01*
X174387000Y-54906000D01*
X174433000Y-54895000D01*
X174479000Y-54886000D01*
X174526000Y-54880000D01*
X174573000Y-54876000D01*
X174620000Y-54875000D01*
X177120000Y-54875000D01*
X177120000Y-56675000D01*
G37*
X177120000Y-56675000D02*
X174620000Y-56675000D01*
X174573000Y-56674000D01*
X174526000Y-56670000D01*
X174479000Y-56664000D01*
X174433000Y-56655000D01*
X174387000Y-56644000D01*
X174342000Y-56631000D01*
X174297000Y-56615000D01*
X174254000Y-56597000D01*
X174211000Y-56577000D01*
X174170000Y-56554000D01*
X174130000Y-56530000D01*
X174091000Y-56503000D01*
X174054000Y-56474000D01*
X174018000Y-56444000D01*
X173984000Y-56411000D01*
X173951000Y-56377000D01*
X173921000Y-56341000D01*
X173892000Y-56304000D01*
X173865000Y-56265000D01*
X173841000Y-56225000D01*
X173818000Y-56184000D01*
X173798000Y-56141000D01*
X173780000Y-56098000D01*
X173764000Y-56053000D01*
X173751000Y-56008000D01*
X173740000Y-55962000D01*
X173731000Y-55916000D01*
X173725000Y-55869000D01*
X173721000Y-55822000D01*
X173720000Y-55775000D01*
X173721000Y-55728000D01*
X173725000Y-55681000D01*
X173731000Y-55634000D01*
X173740000Y-55588000D01*
X173751000Y-55542000D01*
X173764000Y-55497000D01*
X173780000Y-55452000D01*
X173798000Y-55409000D01*
X173818000Y-55366000D01*
X173841000Y-55325000D01*
X173865000Y-55285000D01*
X173892000Y-55246000D01*
X173921000Y-55209000D01*
X173951000Y-55173000D01*
X173984000Y-55139000D01*
X174018000Y-55106000D01*
X174054000Y-55076000D01*
X174091000Y-55047000D01*
X174130000Y-55020000D01*
X174170000Y-54996000D01*
X174211000Y-54973000D01*
X174254000Y-54953000D01*
X174297000Y-54935000D01*
X174342000Y-54919000D01*
X174387000Y-54906000D01*
X174433000Y-54895000D01*
X174479000Y-54886000D01*
X174526000Y-54880000D01*
X174573000Y-54876000D01*
X174620000Y-54875000D01*
X177120000Y-54875000D01*
X177120000Y-56675000D01*
G36*
X177120000Y-87155000D02*
G01*
X174620000Y-87155000D01*
X174573000Y-87154000D01*
X174526000Y-87150000D01*
X174479000Y-87144000D01*
X174433000Y-87135000D01*
X174387000Y-87124000D01*
X174342000Y-87111000D01*
X174297000Y-87095000D01*
X174254000Y-87077000D01*
X174211000Y-87057000D01*
X174170000Y-87034000D01*
X174130000Y-87010000D01*
X174091000Y-86983000D01*
X174054000Y-86954000D01*
X174018000Y-86924000D01*
X173984000Y-86891000D01*
X173951000Y-86857000D01*
X173921000Y-86821000D01*
X173892000Y-86784000D01*
X173865000Y-86745000D01*
X173841000Y-86705000D01*
X173818000Y-86664000D01*
X173798000Y-86621000D01*
X173780000Y-86578000D01*
X173764000Y-86533000D01*
X173751000Y-86488000D01*
X173740000Y-86442000D01*
X173731000Y-86396000D01*
X173725000Y-86349000D01*
X173721000Y-86302000D01*
X173720000Y-86255000D01*
X173721000Y-86208000D01*
X173725000Y-86161000D01*
X173731000Y-86114000D01*
X173740000Y-86068000D01*
X173751000Y-86022000D01*
X173764000Y-85977000D01*
X173780000Y-85932000D01*
X173798000Y-85889000D01*
X173818000Y-85846000D01*
X173841000Y-85805000D01*
X173865000Y-85765000D01*
X173892000Y-85726000D01*
X173921000Y-85689000D01*
X173951000Y-85653000D01*
X173984000Y-85619000D01*
X174018000Y-85586000D01*
X174054000Y-85556000D01*
X174091000Y-85527000D01*
X174130000Y-85500000D01*
X174170000Y-85476000D01*
X174211000Y-85453000D01*
X174254000Y-85433000D01*
X174297000Y-85415000D01*
X174342000Y-85399000D01*
X174387000Y-85386000D01*
X174433000Y-85375000D01*
X174479000Y-85366000D01*
X174526000Y-85360000D01*
X174573000Y-85356000D01*
X174620000Y-85355000D01*
X177120000Y-85355000D01*
X177120000Y-87155000D01*
G37*
X177120000Y-87155000D02*
X174620000Y-87155000D01*
X174573000Y-87154000D01*
X174526000Y-87150000D01*
X174479000Y-87144000D01*
X174433000Y-87135000D01*
X174387000Y-87124000D01*
X174342000Y-87111000D01*
X174297000Y-87095000D01*
X174254000Y-87077000D01*
X174211000Y-87057000D01*
X174170000Y-87034000D01*
X174130000Y-87010000D01*
X174091000Y-86983000D01*
X174054000Y-86954000D01*
X174018000Y-86924000D01*
X173984000Y-86891000D01*
X173951000Y-86857000D01*
X173921000Y-86821000D01*
X173892000Y-86784000D01*
X173865000Y-86745000D01*
X173841000Y-86705000D01*
X173818000Y-86664000D01*
X173798000Y-86621000D01*
X173780000Y-86578000D01*
X173764000Y-86533000D01*
X173751000Y-86488000D01*
X173740000Y-86442000D01*
X173731000Y-86396000D01*
X173725000Y-86349000D01*
X173721000Y-86302000D01*
X173720000Y-86255000D01*
X173721000Y-86208000D01*
X173725000Y-86161000D01*
X173731000Y-86114000D01*
X173740000Y-86068000D01*
X173751000Y-86022000D01*
X173764000Y-85977000D01*
X173780000Y-85932000D01*
X173798000Y-85889000D01*
X173818000Y-85846000D01*
X173841000Y-85805000D01*
X173865000Y-85765000D01*
X173892000Y-85726000D01*
X173921000Y-85689000D01*
X173951000Y-85653000D01*
X173984000Y-85619000D01*
X174018000Y-85586000D01*
X174054000Y-85556000D01*
X174091000Y-85527000D01*
X174130000Y-85500000D01*
X174170000Y-85476000D01*
X174211000Y-85453000D01*
X174254000Y-85433000D01*
X174297000Y-85415000D01*
X174342000Y-85399000D01*
X174387000Y-85386000D01*
X174433000Y-85375000D01*
X174479000Y-85366000D01*
X174526000Y-85360000D01*
X174573000Y-85356000D01*
X174620000Y-85355000D01*
X177120000Y-85355000D01*
X177120000Y-87155000D01*
G36*
X156887000Y-95516000D02*
G01*
X156934000Y-95520000D01*
X156981000Y-95526000D01*
X157027000Y-95535000D01*
X157073000Y-95546000D01*
X157118000Y-95559000D01*
X157163000Y-95575000D01*
X157206000Y-95593000D01*
X157249000Y-95613000D01*
X157290000Y-95636000D01*
X157330000Y-95660000D01*
X157369000Y-95687000D01*
X157406000Y-95716000D01*
X157442000Y-95746000D01*
X157476000Y-95779000D01*
X157509000Y-95813000D01*
X157539000Y-95849000D01*
X157568000Y-95886000D01*
X157595000Y-95925000D01*
X157619000Y-95965000D01*
X157642000Y-96006000D01*
X157662000Y-96049000D01*
X157680000Y-96092000D01*
X157696000Y-96137000D01*
X157709000Y-96182000D01*
X157720000Y-96228000D01*
X157729000Y-96274000D01*
X157735000Y-96321000D01*
X157739000Y-96368000D01*
X157740000Y-96415000D01*
X157739000Y-96462000D01*
X157735000Y-96509000D01*
X157729000Y-96556000D01*
X157720000Y-96602000D01*
X157709000Y-96648000D01*
X157696000Y-96693000D01*
X157680000Y-96738000D01*
X157662000Y-96781000D01*
X157642000Y-96824000D01*
X157619000Y-96865000D01*
X157595000Y-96905000D01*
X157568000Y-96944000D01*
X157539000Y-96981000D01*
X157509000Y-97017000D01*
X157476000Y-97051000D01*
X157442000Y-97084000D01*
X157406000Y-97114000D01*
X157369000Y-97143000D01*
X157330000Y-97170000D01*
X157290000Y-97194000D01*
X157249000Y-97217000D01*
X157206000Y-97237000D01*
X157163000Y-97255000D01*
X157118000Y-97271000D01*
X157073000Y-97284000D01*
X157027000Y-97295000D01*
X156981000Y-97304000D01*
X156934000Y-97310000D01*
X156887000Y-97314000D01*
X156840000Y-97315000D01*
X154340000Y-97315000D01*
X154340000Y-95515000D01*
X156840000Y-95515000D01*
X156887000Y-95516000D01*
G37*
X156887000Y-95516000D02*
X156934000Y-95520000D01*
X156981000Y-95526000D01*
X157027000Y-95535000D01*
X157073000Y-95546000D01*
X157118000Y-95559000D01*
X157163000Y-95575000D01*
X157206000Y-95593000D01*
X157249000Y-95613000D01*
X157290000Y-95636000D01*
X157330000Y-95660000D01*
X157369000Y-95687000D01*
X157406000Y-95716000D01*
X157442000Y-95746000D01*
X157476000Y-95779000D01*
X157509000Y-95813000D01*
X157539000Y-95849000D01*
X157568000Y-95886000D01*
X157595000Y-95925000D01*
X157619000Y-95965000D01*
X157642000Y-96006000D01*
X157662000Y-96049000D01*
X157680000Y-96092000D01*
X157696000Y-96137000D01*
X157709000Y-96182000D01*
X157720000Y-96228000D01*
X157729000Y-96274000D01*
X157735000Y-96321000D01*
X157739000Y-96368000D01*
X157740000Y-96415000D01*
X157739000Y-96462000D01*
X157735000Y-96509000D01*
X157729000Y-96556000D01*
X157720000Y-96602000D01*
X157709000Y-96648000D01*
X157696000Y-96693000D01*
X157680000Y-96738000D01*
X157662000Y-96781000D01*
X157642000Y-96824000D01*
X157619000Y-96865000D01*
X157595000Y-96905000D01*
X157568000Y-96944000D01*
X157539000Y-96981000D01*
X157509000Y-97017000D01*
X157476000Y-97051000D01*
X157442000Y-97084000D01*
X157406000Y-97114000D01*
X157369000Y-97143000D01*
X157330000Y-97170000D01*
X157290000Y-97194000D01*
X157249000Y-97217000D01*
X157206000Y-97237000D01*
X157163000Y-97255000D01*
X157118000Y-97271000D01*
X157073000Y-97284000D01*
X157027000Y-97295000D01*
X156981000Y-97304000D01*
X156934000Y-97310000D01*
X156887000Y-97314000D01*
X156840000Y-97315000D01*
X154340000Y-97315000D01*
X154340000Y-95515000D01*
X156840000Y-95515000D01*
X156887000Y-95516000D01*
G36*
X177120000Y-49055000D02*
G01*
X174620000Y-49055000D01*
X174573000Y-49054000D01*
X174526000Y-49050000D01*
X174479000Y-49044000D01*
X174433000Y-49035000D01*
X174387000Y-49024000D01*
X174342000Y-49011000D01*
X174297000Y-48995000D01*
X174254000Y-48977000D01*
X174211000Y-48957000D01*
X174170000Y-48934000D01*
X174130000Y-48910000D01*
X174091000Y-48883000D01*
X174054000Y-48854000D01*
X174018000Y-48824000D01*
X173984000Y-48791000D01*
X173951000Y-48757000D01*
X173921000Y-48721000D01*
X173892000Y-48684000D01*
X173865000Y-48645000D01*
X173841000Y-48605000D01*
X173818000Y-48564000D01*
X173798000Y-48521000D01*
X173780000Y-48478000D01*
X173764000Y-48433000D01*
X173751000Y-48388000D01*
X173740000Y-48342000D01*
X173731000Y-48296000D01*
X173725000Y-48249000D01*
X173721000Y-48202000D01*
X173720000Y-48155000D01*
X173721000Y-48108000D01*
X173725000Y-48061000D01*
X173731000Y-48014000D01*
X173740000Y-47968000D01*
X173751000Y-47922000D01*
X173764000Y-47877000D01*
X173780000Y-47832000D01*
X173798000Y-47789000D01*
X173818000Y-47746000D01*
X173841000Y-47705000D01*
X173865000Y-47665000D01*
X173892000Y-47626000D01*
X173921000Y-47589000D01*
X173951000Y-47553000D01*
X173984000Y-47519000D01*
X174018000Y-47486000D01*
X174054000Y-47456000D01*
X174091000Y-47427000D01*
X174130000Y-47400000D01*
X174170000Y-47376000D01*
X174211000Y-47353000D01*
X174254000Y-47333000D01*
X174297000Y-47315000D01*
X174342000Y-47299000D01*
X174387000Y-47286000D01*
X174433000Y-47275000D01*
X174479000Y-47266000D01*
X174526000Y-47260000D01*
X174573000Y-47256000D01*
X174620000Y-47255000D01*
X177120000Y-47255000D01*
X177120000Y-49055000D01*
G37*
X177120000Y-49055000D02*
X174620000Y-49055000D01*
X174573000Y-49054000D01*
X174526000Y-49050000D01*
X174479000Y-49044000D01*
X174433000Y-49035000D01*
X174387000Y-49024000D01*
X174342000Y-49011000D01*
X174297000Y-48995000D01*
X174254000Y-48977000D01*
X174211000Y-48957000D01*
X174170000Y-48934000D01*
X174130000Y-48910000D01*
X174091000Y-48883000D01*
X174054000Y-48854000D01*
X174018000Y-48824000D01*
X173984000Y-48791000D01*
X173951000Y-48757000D01*
X173921000Y-48721000D01*
X173892000Y-48684000D01*
X173865000Y-48645000D01*
X173841000Y-48605000D01*
X173818000Y-48564000D01*
X173798000Y-48521000D01*
X173780000Y-48478000D01*
X173764000Y-48433000D01*
X173751000Y-48388000D01*
X173740000Y-48342000D01*
X173731000Y-48296000D01*
X173725000Y-48249000D01*
X173721000Y-48202000D01*
X173720000Y-48155000D01*
X173721000Y-48108000D01*
X173725000Y-48061000D01*
X173731000Y-48014000D01*
X173740000Y-47968000D01*
X173751000Y-47922000D01*
X173764000Y-47877000D01*
X173780000Y-47832000D01*
X173798000Y-47789000D01*
X173818000Y-47746000D01*
X173841000Y-47705000D01*
X173865000Y-47665000D01*
X173892000Y-47626000D01*
X173921000Y-47589000D01*
X173951000Y-47553000D01*
X173984000Y-47519000D01*
X174018000Y-47486000D01*
X174054000Y-47456000D01*
X174091000Y-47427000D01*
X174130000Y-47400000D01*
X174170000Y-47376000D01*
X174211000Y-47353000D01*
X174254000Y-47333000D01*
X174297000Y-47315000D01*
X174342000Y-47299000D01*
X174387000Y-47286000D01*
X174433000Y-47275000D01*
X174479000Y-47266000D01*
X174526000Y-47260000D01*
X174573000Y-47256000D01*
X174620000Y-47255000D01*
X177120000Y-47255000D01*
X177120000Y-49055000D01*
G36*
X168317000Y-95286000D02*
G01*
X168364000Y-95290000D01*
X168411000Y-95296000D01*
X168457000Y-95305000D01*
X168503000Y-95316000D01*
X168548000Y-95329000D01*
X168593000Y-95345000D01*
X168636000Y-95363000D01*
X168679000Y-95383000D01*
X168720000Y-95406000D01*
X168760000Y-95430000D01*
X168799000Y-95457000D01*
X168836000Y-95486000D01*
X168872000Y-95516000D01*
X168906000Y-95549000D01*
X168939000Y-95583000D01*
X168969000Y-95619000D01*
X168998000Y-95656000D01*
X169025000Y-95695000D01*
X169049000Y-95735000D01*
X169072000Y-95776000D01*
X169092000Y-95819000D01*
X169110000Y-95862000D01*
X169126000Y-95907000D01*
X169139000Y-95952000D01*
X169150000Y-95998000D01*
X169159000Y-96044000D01*
X169165000Y-96091000D01*
X169169000Y-96138000D01*
X169170000Y-96185000D01*
X169170000Y-98685000D01*
X167370000Y-98685000D01*
X167370000Y-96185000D01*
X167371000Y-96138000D01*
X167375000Y-96091000D01*
X167381000Y-96044000D01*
X167390000Y-95998000D01*
X167401000Y-95952000D01*
X167414000Y-95907000D01*
X167430000Y-95862000D01*
X167448000Y-95819000D01*
X167468000Y-95776000D01*
X167491000Y-95735000D01*
X167515000Y-95695000D01*
X167542000Y-95656000D01*
X167571000Y-95619000D01*
X167601000Y-95583000D01*
X167634000Y-95549000D01*
X167668000Y-95516000D01*
X167704000Y-95486000D01*
X167741000Y-95457000D01*
X167780000Y-95430000D01*
X167820000Y-95406000D01*
X167861000Y-95383000D01*
X167904000Y-95363000D01*
X167947000Y-95345000D01*
X167992000Y-95329000D01*
X168037000Y-95316000D01*
X168083000Y-95305000D01*
X168129000Y-95296000D01*
X168176000Y-95290000D01*
X168223000Y-95286000D01*
X168270000Y-95285000D01*
X168317000Y-95286000D01*
G37*
X168317000Y-95286000D02*
X168364000Y-95290000D01*
X168411000Y-95296000D01*
X168457000Y-95305000D01*
X168503000Y-95316000D01*
X168548000Y-95329000D01*
X168593000Y-95345000D01*
X168636000Y-95363000D01*
X168679000Y-95383000D01*
X168720000Y-95406000D01*
X168760000Y-95430000D01*
X168799000Y-95457000D01*
X168836000Y-95486000D01*
X168872000Y-95516000D01*
X168906000Y-95549000D01*
X168939000Y-95583000D01*
X168969000Y-95619000D01*
X168998000Y-95656000D01*
X169025000Y-95695000D01*
X169049000Y-95735000D01*
X169072000Y-95776000D01*
X169092000Y-95819000D01*
X169110000Y-95862000D01*
X169126000Y-95907000D01*
X169139000Y-95952000D01*
X169150000Y-95998000D01*
X169159000Y-96044000D01*
X169165000Y-96091000D01*
X169169000Y-96138000D01*
X169170000Y-96185000D01*
X169170000Y-98685000D01*
X167370000Y-98685000D01*
X167370000Y-96185000D01*
X167371000Y-96138000D01*
X167375000Y-96091000D01*
X167381000Y-96044000D01*
X167390000Y-95998000D01*
X167401000Y-95952000D01*
X167414000Y-95907000D01*
X167430000Y-95862000D01*
X167448000Y-95819000D01*
X167468000Y-95776000D01*
X167491000Y-95735000D01*
X167515000Y-95695000D01*
X167542000Y-95656000D01*
X167571000Y-95619000D01*
X167601000Y-95583000D01*
X167634000Y-95549000D01*
X167668000Y-95516000D01*
X167704000Y-95486000D01*
X167741000Y-95457000D01*
X167780000Y-95430000D01*
X167820000Y-95406000D01*
X167861000Y-95383000D01*
X167904000Y-95363000D01*
X167947000Y-95345000D01*
X167992000Y-95329000D01*
X168037000Y-95316000D01*
X168083000Y-95305000D01*
X168129000Y-95296000D01*
X168176000Y-95290000D01*
X168223000Y-95286000D01*
X168270000Y-95285000D01*
X168317000Y-95286000D01*
G36*
X156887000Y-62496000D02*
G01*
X156934000Y-62500000D01*
X156981000Y-62506000D01*
X157027000Y-62515000D01*
X157073000Y-62526000D01*
X157118000Y-62539000D01*
X157163000Y-62555000D01*
X157206000Y-62573000D01*
X157249000Y-62593000D01*
X157290000Y-62616000D01*
X157330000Y-62640000D01*
X157369000Y-62667000D01*
X157406000Y-62696000D01*
X157442000Y-62726000D01*
X157476000Y-62759000D01*
X157509000Y-62793000D01*
X157539000Y-62829000D01*
X157568000Y-62866000D01*
X157595000Y-62905000D01*
X157619000Y-62945000D01*
X157642000Y-62986000D01*
X157662000Y-63029000D01*
X157680000Y-63072000D01*
X157696000Y-63117000D01*
X157709000Y-63162000D01*
X157720000Y-63208000D01*
X157729000Y-63254000D01*
X157735000Y-63301000D01*
X157739000Y-63348000D01*
X157740000Y-63395000D01*
X157739000Y-63442000D01*
X157735000Y-63489000D01*
X157729000Y-63536000D01*
X157720000Y-63582000D01*
X157709000Y-63628000D01*
X157696000Y-63673000D01*
X157680000Y-63718000D01*
X157662000Y-63761000D01*
X157642000Y-63804000D01*
X157619000Y-63845000D01*
X157595000Y-63885000D01*
X157568000Y-63924000D01*
X157539000Y-63961000D01*
X157509000Y-63997000D01*
X157476000Y-64031000D01*
X157442000Y-64064000D01*
X157406000Y-64094000D01*
X157369000Y-64123000D01*
X157330000Y-64150000D01*
X157290000Y-64174000D01*
X157249000Y-64197000D01*
X157206000Y-64217000D01*
X157163000Y-64235000D01*
X157118000Y-64251000D01*
X157073000Y-64264000D01*
X157027000Y-64275000D01*
X156981000Y-64284000D01*
X156934000Y-64290000D01*
X156887000Y-64294000D01*
X156840000Y-64295000D01*
X154340000Y-64295000D01*
X154340000Y-62495000D01*
X156840000Y-62495000D01*
X156887000Y-62496000D01*
G37*
X156887000Y-62496000D02*
X156934000Y-62500000D01*
X156981000Y-62506000D01*
X157027000Y-62515000D01*
X157073000Y-62526000D01*
X157118000Y-62539000D01*
X157163000Y-62555000D01*
X157206000Y-62573000D01*
X157249000Y-62593000D01*
X157290000Y-62616000D01*
X157330000Y-62640000D01*
X157369000Y-62667000D01*
X157406000Y-62696000D01*
X157442000Y-62726000D01*
X157476000Y-62759000D01*
X157509000Y-62793000D01*
X157539000Y-62829000D01*
X157568000Y-62866000D01*
X157595000Y-62905000D01*
X157619000Y-62945000D01*
X157642000Y-62986000D01*
X157662000Y-63029000D01*
X157680000Y-63072000D01*
X157696000Y-63117000D01*
X157709000Y-63162000D01*
X157720000Y-63208000D01*
X157729000Y-63254000D01*
X157735000Y-63301000D01*
X157739000Y-63348000D01*
X157740000Y-63395000D01*
X157739000Y-63442000D01*
X157735000Y-63489000D01*
X157729000Y-63536000D01*
X157720000Y-63582000D01*
X157709000Y-63628000D01*
X157696000Y-63673000D01*
X157680000Y-63718000D01*
X157662000Y-63761000D01*
X157642000Y-63804000D01*
X157619000Y-63845000D01*
X157595000Y-63885000D01*
X157568000Y-63924000D01*
X157539000Y-63961000D01*
X157509000Y-63997000D01*
X157476000Y-64031000D01*
X157442000Y-64064000D01*
X157406000Y-64094000D01*
X157369000Y-64123000D01*
X157330000Y-64150000D01*
X157290000Y-64174000D01*
X157249000Y-64197000D01*
X157206000Y-64217000D01*
X157163000Y-64235000D01*
X157118000Y-64251000D01*
X157073000Y-64264000D01*
X157027000Y-64275000D01*
X156981000Y-64284000D01*
X156934000Y-64290000D01*
X156887000Y-64294000D01*
X156840000Y-64295000D01*
X154340000Y-64295000D01*
X154340000Y-62495000D01*
X156840000Y-62495000D01*
X156887000Y-62496000D01*
G36*
X177120000Y-64295000D02*
G01*
X174620000Y-64295000D01*
X174573000Y-64294000D01*
X174526000Y-64290000D01*
X174479000Y-64284000D01*
X174433000Y-64275000D01*
X174387000Y-64264000D01*
X174342000Y-64251000D01*
X174297000Y-64235000D01*
X174254000Y-64217000D01*
X174211000Y-64197000D01*
X174170000Y-64174000D01*
X174130000Y-64150000D01*
X174091000Y-64123000D01*
X174054000Y-64094000D01*
X174018000Y-64064000D01*
X173984000Y-64031000D01*
X173951000Y-63997000D01*
X173921000Y-63961000D01*
X173892000Y-63924000D01*
X173865000Y-63885000D01*
X173841000Y-63845000D01*
X173818000Y-63804000D01*
X173798000Y-63761000D01*
X173780000Y-63718000D01*
X173764000Y-63673000D01*
X173751000Y-63628000D01*
X173740000Y-63582000D01*
X173731000Y-63536000D01*
X173725000Y-63489000D01*
X173721000Y-63442000D01*
X173720000Y-63395000D01*
X173721000Y-63348000D01*
X173725000Y-63301000D01*
X173731000Y-63254000D01*
X173740000Y-63208000D01*
X173751000Y-63162000D01*
X173764000Y-63117000D01*
X173780000Y-63072000D01*
X173798000Y-63029000D01*
X173818000Y-62986000D01*
X173841000Y-62945000D01*
X173865000Y-62905000D01*
X173892000Y-62866000D01*
X173921000Y-62829000D01*
X173951000Y-62793000D01*
X173984000Y-62759000D01*
X174018000Y-62726000D01*
X174054000Y-62696000D01*
X174091000Y-62667000D01*
X174130000Y-62640000D01*
X174170000Y-62616000D01*
X174211000Y-62593000D01*
X174254000Y-62573000D01*
X174297000Y-62555000D01*
X174342000Y-62539000D01*
X174387000Y-62526000D01*
X174433000Y-62515000D01*
X174479000Y-62506000D01*
X174526000Y-62500000D01*
X174573000Y-62496000D01*
X174620000Y-62495000D01*
X177120000Y-62495000D01*
X177120000Y-64295000D01*
G37*
X177120000Y-64295000D02*
X174620000Y-64295000D01*
X174573000Y-64294000D01*
X174526000Y-64290000D01*
X174479000Y-64284000D01*
X174433000Y-64275000D01*
X174387000Y-64264000D01*
X174342000Y-64251000D01*
X174297000Y-64235000D01*
X174254000Y-64217000D01*
X174211000Y-64197000D01*
X174170000Y-64174000D01*
X174130000Y-64150000D01*
X174091000Y-64123000D01*
X174054000Y-64094000D01*
X174018000Y-64064000D01*
X173984000Y-64031000D01*
X173951000Y-63997000D01*
X173921000Y-63961000D01*
X173892000Y-63924000D01*
X173865000Y-63885000D01*
X173841000Y-63845000D01*
X173818000Y-63804000D01*
X173798000Y-63761000D01*
X173780000Y-63718000D01*
X173764000Y-63673000D01*
X173751000Y-63628000D01*
X173740000Y-63582000D01*
X173731000Y-63536000D01*
X173725000Y-63489000D01*
X173721000Y-63442000D01*
X173720000Y-63395000D01*
X173721000Y-63348000D01*
X173725000Y-63301000D01*
X173731000Y-63254000D01*
X173740000Y-63208000D01*
X173751000Y-63162000D01*
X173764000Y-63117000D01*
X173780000Y-63072000D01*
X173798000Y-63029000D01*
X173818000Y-62986000D01*
X173841000Y-62945000D01*
X173865000Y-62905000D01*
X173892000Y-62866000D01*
X173921000Y-62829000D01*
X173951000Y-62793000D01*
X173984000Y-62759000D01*
X174018000Y-62726000D01*
X174054000Y-62696000D01*
X174091000Y-62667000D01*
X174130000Y-62640000D01*
X174170000Y-62616000D01*
X174211000Y-62593000D01*
X174254000Y-62573000D01*
X174297000Y-62555000D01*
X174342000Y-62539000D01*
X174387000Y-62526000D01*
X174433000Y-62515000D01*
X174479000Y-62506000D01*
X174526000Y-62500000D01*
X174573000Y-62496000D01*
X174620000Y-62495000D01*
X177120000Y-62495000D01*
X177120000Y-64295000D01*
G36*
X157471000Y-77737000D02*
G01*
X157487000Y-77739000D01*
X157502000Y-77742000D01*
X157518000Y-77745000D01*
X157548000Y-77755000D01*
X157562000Y-77761000D01*
X157590000Y-77775000D01*
X157603000Y-77783000D01*
X157616000Y-77792000D01*
X157629000Y-77802000D01*
X157641000Y-77812000D01*
X157663000Y-77834000D01*
X157673000Y-77846000D01*
X157683000Y-77859000D01*
X157692000Y-77872000D01*
X157700000Y-77885000D01*
X157714000Y-77913000D01*
X157720000Y-77927000D01*
X157730000Y-77957000D01*
X157733000Y-77973000D01*
X157736000Y-77988000D01*
X157738000Y-78004000D01*
X157740000Y-78019000D01*
X157740000Y-79251000D01*
X157738000Y-79266000D01*
X157736000Y-79282000D01*
X157733000Y-79297000D01*
X157730000Y-79313000D01*
X157720000Y-79343000D01*
X157714000Y-79357000D01*
X157700000Y-79385000D01*
X157692000Y-79398000D01*
X157683000Y-79411000D01*
X157673000Y-79424000D01*
X157663000Y-79436000D01*
X157641000Y-79458000D01*
X157629000Y-79468000D01*
X157616000Y-79478000D01*
X157603000Y-79487000D01*
X157590000Y-79495000D01*
X157562000Y-79509000D01*
X157548000Y-79515000D01*
X157518000Y-79525000D01*
X157502000Y-79528000D01*
X157487000Y-79531000D01*
X157471000Y-79533000D01*
X157456000Y-79535000D01*
X154340000Y-79535000D01*
X154340000Y-77735000D01*
X157456000Y-77735000D01*
X157471000Y-77737000D01*
G37*
X157471000Y-77737000D02*
X157487000Y-77739000D01*
X157502000Y-77742000D01*
X157518000Y-77745000D01*
X157548000Y-77755000D01*
X157562000Y-77761000D01*
X157590000Y-77775000D01*
X157603000Y-77783000D01*
X157616000Y-77792000D01*
X157629000Y-77802000D01*
X157641000Y-77812000D01*
X157663000Y-77834000D01*
X157673000Y-77846000D01*
X157683000Y-77859000D01*
X157692000Y-77872000D01*
X157700000Y-77885000D01*
X157714000Y-77913000D01*
X157720000Y-77927000D01*
X157730000Y-77957000D01*
X157733000Y-77973000D01*
X157736000Y-77988000D01*
X157738000Y-78004000D01*
X157740000Y-78019000D01*
X157740000Y-79251000D01*
X157738000Y-79266000D01*
X157736000Y-79282000D01*
X157733000Y-79297000D01*
X157730000Y-79313000D01*
X157720000Y-79343000D01*
X157714000Y-79357000D01*
X157700000Y-79385000D01*
X157692000Y-79398000D01*
X157683000Y-79411000D01*
X157673000Y-79424000D01*
X157663000Y-79436000D01*
X157641000Y-79458000D01*
X157629000Y-79468000D01*
X157616000Y-79478000D01*
X157603000Y-79487000D01*
X157590000Y-79495000D01*
X157562000Y-79509000D01*
X157548000Y-79515000D01*
X157518000Y-79525000D01*
X157502000Y-79528000D01*
X157487000Y-79531000D01*
X157471000Y-79533000D01*
X157456000Y-79535000D01*
X154340000Y-79535000D01*
X154340000Y-77735000D01*
X157456000Y-77735000D01*
X157471000Y-77737000D01*
G36*
X177120000Y-74455000D02*
G01*
X174620000Y-74455000D01*
X174573000Y-74454000D01*
X174526000Y-74450000D01*
X174479000Y-74444000D01*
X174433000Y-74435000D01*
X174387000Y-74424000D01*
X174342000Y-74411000D01*
X174297000Y-74395000D01*
X174254000Y-74377000D01*
X174211000Y-74357000D01*
X174170000Y-74334000D01*
X174130000Y-74310000D01*
X174091000Y-74283000D01*
X174054000Y-74254000D01*
X174018000Y-74224000D01*
X173984000Y-74191000D01*
X173951000Y-74157000D01*
X173921000Y-74121000D01*
X173892000Y-74084000D01*
X173865000Y-74045000D01*
X173841000Y-74005000D01*
X173818000Y-73964000D01*
X173798000Y-73921000D01*
X173780000Y-73878000D01*
X173764000Y-73833000D01*
X173751000Y-73788000D01*
X173740000Y-73742000D01*
X173731000Y-73696000D01*
X173725000Y-73649000D01*
X173721000Y-73602000D01*
X173720000Y-73555000D01*
X173721000Y-73508000D01*
X173725000Y-73461000D01*
X173731000Y-73414000D01*
X173740000Y-73368000D01*
X173751000Y-73322000D01*
X173764000Y-73277000D01*
X173780000Y-73232000D01*
X173798000Y-73189000D01*
X173818000Y-73146000D01*
X173841000Y-73105000D01*
X173865000Y-73065000D01*
X173892000Y-73026000D01*
X173921000Y-72989000D01*
X173951000Y-72953000D01*
X173984000Y-72919000D01*
X174018000Y-72886000D01*
X174054000Y-72856000D01*
X174091000Y-72827000D01*
X174130000Y-72800000D01*
X174170000Y-72776000D01*
X174211000Y-72753000D01*
X174254000Y-72733000D01*
X174297000Y-72715000D01*
X174342000Y-72699000D01*
X174387000Y-72686000D01*
X174433000Y-72675000D01*
X174479000Y-72666000D01*
X174526000Y-72660000D01*
X174573000Y-72656000D01*
X174620000Y-72655000D01*
X177120000Y-72655000D01*
X177120000Y-74455000D01*
G37*
X177120000Y-74455000D02*
X174620000Y-74455000D01*
X174573000Y-74454000D01*
X174526000Y-74450000D01*
X174479000Y-74444000D01*
X174433000Y-74435000D01*
X174387000Y-74424000D01*
X174342000Y-74411000D01*
X174297000Y-74395000D01*
X174254000Y-74377000D01*
X174211000Y-74357000D01*
X174170000Y-74334000D01*
X174130000Y-74310000D01*
X174091000Y-74283000D01*
X174054000Y-74254000D01*
X174018000Y-74224000D01*
X173984000Y-74191000D01*
X173951000Y-74157000D01*
X173921000Y-74121000D01*
X173892000Y-74084000D01*
X173865000Y-74045000D01*
X173841000Y-74005000D01*
X173818000Y-73964000D01*
X173798000Y-73921000D01*
X173780000Y-73878000D01*
X173764000Y-73833000D01*
X173751000Y-73788000D01*
X173740000Y-73742000D01*
X173731000Y-73696000D01*
X173725000Y-73649000D01*
X173721000Y-73602000D01*
X173720000Y-73555000D01*
X173721000Y-73508000D01*
X173725000Y-73461000D01*
X173731000Y-73414000D01*
X173740000Y-73368000D01*
X173751000Y-73322000D01*
X173764000Y-73277000D01*
X173780000Y-73232000D01*
X173798000Y-73189000D01*
X173818000Y-73146000D01*
X173841000Y-73105000D01*
X173865000Y-73065000D01*
X173892000Y-73026000D01*
X173921000Y-72989000D01*
X173951000Y-72953000D01*
X173984000Y-72919000D01*
X174018000Y-72886000D01*
X174054000Y-72856000D01*
X174091000Y-72827000D01*
X174130000Y-72800000D01*
X174170000Y-72776000D01*
X174211000Y-72753000D01*
X174254000Y-72733000D01*
X174297000Y-72715000D01*
X174342000Y-72699000D01*
X174387000Y-72686000D01*
X174433000Y-72675000D01*
X174479000Y-72666000D01*
X174526000Y-72660000D01*
X174573000Y-72656000D01*
X174620000Y-72655000D01*
X177120000Y-72655000D01*
X177120000Y-74455000D01*
G36*
X177120000Y-76995000D02*
G01*
X174620000Y-76995000D01*
X174573000Y-76994000D01*
X174526000Y-76990000D01*
X174479000Y-76984000D01*
X174433000Y-76975000D01*
X174387000Y-76964000D01*
X174342000Y-76951000D01*
X174297000Y-76935000D01*
X174254000Y-76917000D01*
X174211000Y-76897000D01*
X174170000Y-76874000D01*
X174130000Y-76850000D01*
X174091000Y-76823000D01*
X174054000Y-76794000D01*
X174018000Y-76764000D01*
X173984000Y-76731000D01*
X173951000Y-76697000D01*
X173921000Y-76661000D01*
X173892000Y-76624000D01*
X173865000Y-76585000D01*
X173841000Y-76545000D01*
X173818000Y-76504000D01*
X173798000Y-76461000D01*
X173780000Y-76418000D01*
X173764000Y-76373000D01*
X173751000Y-76328000D01*
X173740000Y-76282000D01*
X173731000Y-76236000D01*
X173725000Y-76189000D01*
X173721000Y-76142000D01*
X173720000Y-76095000D01*
X173721000Y-76048000D01*
X173725000Y-76001000D01*
X173731000Y-75954000D01*
X173740000Y-75908000D01*
X173751000Y-75862000D01*
X173764000Y-75817000D01*
X173780000Y-75772000D01*
X173798000Y-75729000D01*
X173818000Y-75686000D01*
X173841000Y-75645000D01*
X173865000Y-75605000D01*
X173892000Y-75566000D01*
X173921000Y-75529000D01*
X173951000Y-75493000D01*
X173984000Y-75459000D01*
X174018000Y-75426000D01*
X174054000Y-75396000D01*
X174091000Y-75367000D01*
X174130000Y-75340000D01*
X174170000Y-75316000D01*
X174211000Y-75293000D01*
X174254000Y-75273000D01*
X174297000Y-75255000D01*
X174342000Y-75239000D01*
X174387000Y-75226000D01*
X174433000Y-75215000D01*
X174479000Y-75206000D01*
X174526000Y-75200000D01*
X174573000Y-75196000D01*
X174620000Y-75195000D01*
X177120000Y-75195000D01*
X177120000Y-76995000D01*
G37*
X177120000Y-76995000D02*
X174620000Y-76995000D01*
X174573000Y-76994000D01*
X174526000Y-76990000D01*
X174479000Y-76984000D01*
X174433000Y-76975000D01*
X174387000Y-76964000D01*
X174342000Y-76951000D01*
X174297000Y-76935000D01*
X174254000Y-76917000D01*
X174211000Y-76897000D01*
X174170000Y-76874000D01*
X174130000Y-76850000D01*
X174091000Y-76823000D01*
X174054000Y-76794000D01*
X174018000Y-76764000D01*
X173984000Y-76731000D01*
X173951000Y-76697000D01*
X173921000Y-76661000D01*
X173892000Y-76624000D01*
X173865000Y-76585000D01*
X173841000Y-76545000D01*
X173818000Y-76504000D01*
X173798000Y-76461000D01*
X173780000Y-76418000D01*
X173764000Y-76373000D01*
X173751000Y-76328000D01*
X173740000Y-76282000D01*
X173731000Y-76236000D01*
X173725000Y-76189000D01*
X173721000Y-76142000D01*
X173720000Y-76095000D01*
X173721000Y-76048000D01*
X173725000Y-76001000D01*
X173731000Y-75954000D01*
X173740000Y-75908000D01*
X173751000Y-75862000D01*
X173764000Y-75817000D01*
X173780000Y-75772000D01*
X173798000Y-75729000D01*
X173818000Y-75686000D01*
X173841000Y-75645000D01*
X173865000Y-75605000D01*
X173892000Y-75566000D01*
X173921000Y-75529000D01*
X173951000Y-75493000D01*
X173984000Y-75459000D01*
X174018000Y-75426000D01*
X174054000Y-75396000D01*
X174091000Y-75367000D01*
X174130000Y-75340000D01*
X174170000Y-75316000D01*
X174211000Y-75293000D01*
X174254000Y-75273000D01*
X174297000Y-75255000D01*
X174342000Y-75239000D01*
X174387000Y-75226000D01*
X174433000Y-75215000D01*
X174479000Y-75206000D01*
X174526000Y-75200000D01*
X174573000Y-75196000D01*
X174620000Y-75195000D01*
X177120000Y-75195000D01*
X177120000Y-76995000D01*
G36*
X156887000Y-72656000D02*
G01*
X156934000Y-72660000D01*
X156981000Y-72666000D01*
X157027000Y-72675000D01*
X157073000Y-72686000D01*
X157118000Y-72699000D01*
X157163000Y-72715000D01*
X157206000Y-72733000D01*
X157249000Y-72753000D01*
X157290000Y-72776000D01*
X157330000Y-72800000D01*
X157369000Y-72827000D01*
X157406000Y-72856000D01*
X157442000Y-72886000D01*
X157476000Y-72919000D01*
X157509000Y-72953000D01*
X157539000Y-72989000D01*
X157568000Y-73026000D01*
X157595000Y-73065000D01*
X157619000Y-73105000D01*
X157642000Y-73146000D01*
X157662000Y-73189000D01*
X157680000Y-73232000D01*
X157696000Y-73277000D01*
X157709000Y-73322000D01*
X157720000Y-73368000D01*
X157729000Y-73414000D01*
X157735000Y-73461000D01*
X157739000Y-73508000D01*
X157740000Y-73555000D01*
X157739000Y-73602000D01*
X157735000Y-73649000D01*
X157729000Y-73696000D01*
X157720000Y-73742000D01*
X157709000Y-73788000D01*
X157696000Y-73833000D01*
X157680000Y-73878000D01*
X157662000Y-73921000D01*
X157642000Y-73964000D01*
X157619000Y-74005000D01*
X157595000Y-74045000D01*
X157568000Y-74084000D01*
X157539000Y-74121000D01*
X157509000Y-74157000D01*
X157476000Y-74191000D01*
X157442000Y-74224000D01*
X157406000Y-74254000D01*
X157369000Y-74283000D01*
X157330000Y-74310000D01*
X157290000Y-74334000D01*
X157249000Y-74357000D01*
X157206000Y-74377000D01*
X157163000Y-74395000D01*
X157118000Y-74411000D01*
X157073000Y-74424000D01*
X157027000Y-74435000D01*
X156981000Y-74444000D01*
X156934000Y-74450000D01*
X156887000Y-74454000D01*
X156840000Y-74455000D01*
X154340000Y-74455000D01*
X154340000Y-72655000D01*
X156840000Y-72655000D01*
X156887000Y-72656000D01*
G37*
X156887000Y-72656000D02*
X156934000Y-72660000D01*
X156981000Y-72666000D01*
X157027000Y-72675000D01*
X157073000Y-72686000D01*
X157118000Y-72699000D01*
X157163000Y-72715000D01*
X157206000Y-72733000D01*
X157249000Y-72753000D01*
X157290000Y-72776000D01*
X157330000Y-72800000D01*
X157369000Y-72827000D01*
X157406000Y-72856000D01*
X157442000Y-72886000D01*
X157476000Y-72919000D01*
X157509000Y-72953000D01*
X157539000Y-72989000D01*
X157568000Y-73026000D01*
X157595000Y-73065000D01*
X157619000Y-73105000D01*
X157642000Y-73146000D01*
X157662000Y-73189000D01*
X157680000Y-73232000D01*
X157696000Y-73277000D01*
X157709000Y-73322000D01*
X157720000Y-73368000D01*
X157729000Y-73414000D01*
X157735000Y-73461000D01*
X157739000Y-73508000D01*
X157740000Y-73555000D01*
X157739000Y-73602000D01*
X157735000Y-73649000D01*
X157729000Y-73696000D01*
X157720000Y-73742000D01*
X157709000Y-73788000D01*
X157696000Y-73833000D01*
X157680000Y-73878000D01*
X157662000Y-73921000D01*
X157642000Y-73964000D01*
X157619000Y-74005000D01*
X157595000Y-74045000D01*
X157568000Y-74084000D01*
X157539000Y-74121000D01*
X157509000Y-74157000D01*
X157476000Y-74191000D01*
X157442000Y-74224000D01*
X157406000Y-74254000D01*
X157369000Y-74283000D01*
X157330000Y-74310000D01*
X157290000Y-74334000D01*
X157249000Y-74357000D01*
X157206000Y-74377000D01*
X157163000Y-74395000D01*
X157118000Y-74411000D01*
X157073000Y-74424000D01*
X157027000Y-74435000D01*
X156981000Y-74444000D01*
X156934000Y-74450000D01*
X156887000Y-74454000D01*
X156840000Y-74455000D01*
X154340000Y-74455000D01*
X154340000Y-72655000D01*
X156840000Y-72655000D01*
X156887000Y-72656000D01*
%TD*%
D11*
%TO.C,SW1*%
X183779000Y-69489000D03*
X183779000Y-62289000D03*
X180779000Y-69489000D03*
X180779000Y-62289000D03*
%TD*%
%TO.C,SW2*%
X151503000Y-99931000D03*
X151503000Y-92731000D03*
X148503000Y-99931000D03*
X148503000Y-92731000D03*
%TD*%
D12*
%TO.C,J9*%
X185658698Y-117012299D03*
X189158701Y-117012299D03*
%TD*%
D13*
%TO.C,F10*%
X201585500Y-67044000D03*
X204560500Y-67044000D03*
%TD*%
D14*
%TO.C,F9*%
X151395000Y-135000000D03*
D15*
X151395000Y-138403600D03*
X164857000Y-138403600D03*
X164857000Y-135000000D03*
%TD*%
D16*
%TO.C,R18*%
X213671500Y-63635000D03*
X210746500Y-63635000D03*
%TD*%
D14*
%TO.C,F3*%
X88395000Y-98424999D03*
D15*
X88395000Y-101828599D03*
X101857000Y-101828599D03*
X101857000Y-98424999D03*
%TD*%
D17*
%TO.C,R14*%
X192308700Y-75020000D03*
X195233700Y-75020000D03*
%TD*%
D18*
%TO.C,U6*%
X144729500Y-102669000D03*
X144729500Y-100769000D03*
X142854500Y-101719000D03*
%TD*%
D19*
%TO.C,C21*%
X194818000Y-127905000D03*
X194818000Y-124955000D03*
%TD*%
D20*
%TO.C,C15*%
X136900000Y-72275000D03*
X145600000Y-72275000D03*
%TD*%
D16*
%TO.C,R23*%
X192416500Y-85888000D03*
X189491500Y-85888000D03*
%TD*%
D21*
%TO.C,U4*%
X191249000Y-125212500D03*
X190299000Y-125212500D03*
X189349000Y-125212500D03*
X189349000Y-127487500D03*
X191249000Y-127487500D03*
%TD*%
D22*
%TO.C,D13*%
X182184000Y-105151000D03*
X182184000Y-107951000D03*
%TD*%
D23*
%TO.C,J11*%
X202468300Y-85196001D03*
D24*
X205008300Y-85196001D03*
X202468300Y-87736001D03*
X205008300Y-87736001D03*
X202468300Y-90276001D03*
X205008300Y-90276001D03*
X202468300Y-92816001D03*
X205008300Y-92816001D03*
X202468300Y-95356001D03*
X205008300Y-95356001D03*
X202468300Y-97896001D03*
X205008300Y-97896001D03*
X202468300Y-100436001D03*
X205008300Y-100436001D03*
X202468300Y-102976001D03*
X205008300Y-102976001D03*
X202468300Y-105516001D03*
X205008300Y-105516001D03*
X202468300Y-108056001D03*
X205008300Y-108056001D03*
X202468300Y-110596001D03*
X205008300Y-110596001D03*
X202468300Y-113136001D03*
X205008300Y-113136001D03*
X202468300Y-115676001D03*
X205008300Y-115676001D03*
X202468300Y-118216001D03*
X205008300Y-118216001D03*
X202468300Y-120756001D03*
X205008300Y-120756001D03*
X202468300Y-123296001D03*
X205008300Y-123296001D03*
X202468300Y-125836001D03*
X205008300Y-125836001D03*
X202468300Y-128376001D03*
X205008300Y-128376001D03*
X202468300Y-130916001D03*
X205008300Y-130916001D03*
X202468300Y-133456001D03*
X205008300Y-133456001D03*
%TD*%
D25*
%TO.C,C20*%
X185547000Y-125017000D03*
X185547000Y-127967000D03*
%TD*%
D26*
%TO.C,D9*%
X179933600Y-53362400D03*
X179933600Y-56162400D03*
%TD*%
D27*
%TO.C,C1*%
X131525000Y-84100000D03*
X122825000Y-84100000D03*
%TD*%
D12*
%TO.C,J10*%
X187907998Y-56436000D03*
X191408001Y-56436000D03*
%TD*%
D16*
%TO.C,R38*%
X183752500Y-59161000D03*
X180827500Y-59161000D03*
%TD*%
D14*
%TO.C,F8*%
X151395000Y-114730000D03*
D15*
X151395000Y-118133600D03*
X164857000Y-118133600D03*
X164857000Y-114730000D03*
%TD*%
D16*
%TO.C,R21*%
X192416500Y-81000000D03*
X189491500Y-81000000D03*
%TD*%
D26*
%TO.C,D5*%
X79650200Y-88468200D03*
X82450200Y-88468200D03*
%TD*%
D17*
%TO.C,R24*%
X194703500Y-85888000D03*
X197628500Y-85888000D03*
%TD*%
D27*
%TO.C,C11*%
X131550000Y-72225000D03*
X122850000Y-72225000D03*
%TD*%
D12*
%TO.C,J5*%
X174143498Y-107000799D03*
X177643501Y-107000799D03*
%TD*%
D17*
%TO.C,R13*%
X192308700Y-72620000D03*
X195233700Y-72620000D03*
%TD*%
D22*
%TO.C,D14*%
X182081000Y-125028000D03*
X182081000Y-127828000D03*
%TD*%
D16*
%TO.C,R19*%
X213671500Y-68501667D03*
X210746500Y-68501667D03*
%TD*%
D28*
%TO.C,D12*%
X90687000Y-54665000D03*
X93487000Y-54665000D03*
%TD*%
D29*
%TO.C,R10*%
X146038264Y-50192100D03*
X146038264Y-47267100D03*
%TD*%
%TO.C,R3*%
X113055000Y-79707500D03*
X113055000Y-76782500D03*
%TD*%
D23*
%TO.C,JP2*%
X210828900Y-55546800D03*
D24*
X213368900Y-55546800D03*
%TD*%
D16*
%TO.C,R25*%
X192416500Y-83444000D03*
X189491500Y-83444000D03*
%TD*%
D27*
%TO.C,C16*%
X116175000Y-127225000D03*
X107475000Y-127225000D03*
%TD*%
D30*
%TO.C,J4*%
X202496800Y-48542400D03*
D31*
X202496800Y-57542400D03*
D32*
X202496800Y-51542400D03*
D33*
X197996800Y-50542400D03*
X206996800Y-50542400D03*
%TD*%
D34*
%TO.C,D1*%
X137890000Y-142240000D03*
X133890000Y-142240000D03*
%TD*%
D14*
%TO.C,F5*%
X151395000Y-124865000D03*
D15*
X151395000Y-128268600D03*
X164857000Y-128268600D03*
X164857000Y-124865000D03*
%TD*%
D29*
%TO.C,R7*%
X126110266Y-50192100D03*
X126110266Y-47267100D03*
%TD*%
%TO.C,R8*%
X119467600Y-50192100D03*
X119467600Y-47267100D03*
%TD*%
D17*
%TO.C,R32*%
X124628500Y-54866000D03*
X127553500Y-54866000D03*
%TD*%
D20*
%TO.C,C9*%
X138400000Y-60475000D03*
X147100000Y-60475000D03*
%TD*%
D23*
%TO.C,J7*%
X210886800Y-85221800D03*
D24*
X213426800Y-85221800D03*
X210886800Y-87761800D03*
X213426800Y-87761800D03*
X210886800Y-90301800D03*
X213426800Y-90301800D03*
X210886800Y-92841800D03*
X213426800Y-92841800D03*
X210886800Y-95381800D03*
X213426800Y-95381800D03*
X210886800Y-97921800D03*
X213426800Y-97921800D03*
X210886800Y-100461800D03*
X213426800Y-100461800D03*
X210886800Y-103001800D03*
X213426800Y-103001800D03*
X210886800Y-105541800D03*
X213426800Y-105541800D03*
X210886800Y-108081800D03*
X213426800Y-108081800D03*
X210886800Y-110621800D03*
X213426800Y-110621800D03*
X210886800Y-113161800D03*
X213426800Y-113161800D03*
X210886800Y-115701800D03*
X213426800Y-115701800D03*
X210886800Y-118241800D03*
X213426800Y-118241800D03*
X210886800Y-120781800D03*
X213426800Y-120781800D03*
X210886800Y-123321800D03*
X213426800Y-123321800D03*
X210886800Y-125861800D03*
X213426800Y-125861800D03*
X210886800Y-128401800D03*
X213426800Y-128401800D03*
X210886800Y-130941800D03*
X213426800Y-130941800D03*
X210886800Y-133481800D03*
X213426800Y-133481800D03*
%TD*%
D35*
%TO.C,K1*%
X81015000Y-123440000D03*
X98815000Y-113300000D03*
X98815000Y-120900000D03*
D36*
X84815000Y-136100000D03*
D37*
X95015000Y-136100000D03*
%TD*%
D17*
%TO.C,R31*%
X106685500Y-90107000D03*
X109610500Y-90107000D03*
%TD*%
D38*
%TO.C,C6*%
X115200000Y-107625000D03*
X112250000Y-107625000D03*
%TD*%
D17*
%TO.C,R1*%
X121382500Y-61005000D03*
X124307500Y-61005000D03*
%TD*%
%TO.C,R30*%
X194703500Y-88332000D03*
X197628500Y-88332000D03*
%TD*%
D26*
%TO.C,D7*%
X194896000Y-114417000D03*
X197696000Y-114417000D03*
%TD*%
D16*
%TO.C,R27*%
X192416500Y-90776000D03*
X189491500Y-90776000D03*
%TD*%
D17*
%TO.C,R39*%
X195598500Y-67044000D03*
X198523500Y-67044000D03*
%TD*%
%TO.C,R11*%
X194901500Y-103136000D03*
X197826500Y-103136000D03*
%TD*%
D39*
%TO.C,K3*%
X98735000Y-68105000D03*
X98735000Y-60605000D03*
X93695000Y-60605000D03*
X93695000Y-68105000D03*
X103775000Y-68105000D03*
X103775000Y-60605000D03*
D40*
X78435000Y-68105000D03*
D41*
X78435000Y-60605000D03*
%TD*%
D42*
%TO.C,U1*%
X163005000Y-48285000D03*
X168455000Y-48285000D03*
D43*
X163305000Y-51315000D03*
X168155000Y-51315000D03*
D44*
X165730000Y-51285000D03*
X166730000Y-47985000D03*
X164730000Y-47985000D03*
X163230000Y-54785000D03*
X163230000Y-57285000D03*
X163230000Y-59785000D03*
%TD*%
D26*
%TO.C,D6*%
X79650200Y-55283400D03*
X82450200Y-55283400D03*
%TD*%
D29*
%TO.C,R33*%
X93051000Y-51164500D03*
X93051000Y-48239500D03*
%TD*%
D26*
%TO.C,D3*%
X197927000Y-135202000D03*
X197927000Y-132402000D03*
%TD*%
D45*
%TO.C,D17*%
X183220000Y-56124900D03*
X183220000Y-53324900D03*
%TD*%
D17*
%TO.C,R28*%
X194703500Y-90776000D03*
X197628500Y-90776000D03*
%TD*%
D46*
%TO.C,IC3*%
X121838933Y-49779600D03*
X123738933Y-49779600D03*
X122788933Y-47679600D03*
%TD*%
D39*
%TO.C,K2*%
X98615000Y-75550000D03*
X98615000Y-83050000D03*
X93575000Y-83050000D03*
X93575000Y-75550000D03*
X103655000Y-83050000D03*
X103655000Y-75550000D03*
D40*
X78315000Y-83050000D03*
D41*
X78315000Y-75550000D03*
%TD*%
D47*
%TO.C,C13*%
X115575000Y-76770000D03*
X115575000Y-79720000D03*
%TD*%
D14*
%TO.C,F4*%
X151395000Y-104595000D03*
D15*
X151395000Y-107998600D03*
X164857000Y-107998600D03*
X164857000Y-104595000D03*
%TD*%
D16*
%TO.C,R35*%
X179514500Y-120363000D03*
X176589500Y-120363000D03*
%TD*%
%TO.C,R34*%
X179456500Y-100751000D03*
X176531500Y-100751000D03*
%TD*%
D27*
%TO.C,C12*%
X114925000Y-138975000D03*
X106225000Y-138975000D03*
%TD*%
D23*
%TO.C,JP1*%
X210918800Y-48942800D03*
D24*
X210918800Y-51482800D03*
%TD*%
D48*
%TO.C,U2*%
X174870000Y-150635000D03*
X172330000Y-150635000D03*
X169790000Y-150635000D03*
%TD*%
D46*
%TO.C,IC4*%
X141766931Y-49779600D03*
X143666931Y-49779600D03*
X142716931Y-47679600D03*
%TD*%
D49*
%TO.C,C18*%
X121550000Y-139375000D03*
X124500000Y-139375000D03*
%TD*%
D17*
%TO.C,R22*%
X194703500Y-81000000D03*
X197628500Y-81000000D03*
%TD*%
D20*
%TO.C,C10*%
X121725000Y-127275000D03*
X130425000Y-127275000D03*
%TD*%
D16*
%TO.C,R29*%
X192416500Y-88332000D03*
X189491500Y-88332000D03*
%TD*%
D26*
%TO.C,D4*%
X101637800Y-131498000D03*
X101637800Y-134298000D03*
%TD*%
D17*
%TO.C,R16*%
X192308700Y-70220000D03*
X195233700Y-70220000D03*
%TD*%
D50*
%TO.C,C14*%
X137475000Y-123100000D03*
X137475000Y-120150000D03*
%TD*%
D12*
%TO.C,J3*%
X174143498Y-127023799D03*
X177643501Y-127023799D03*
%TD*%
D46*
%TO.C,IC5*%
X148409600Y-49779600D03*
X150309600Y-49779600D03*
X149359600Y-47679600D03*
%TD*%
D51*
%TO.C,H2*%
X216725000Y-50350000D03*
%TD*%
D48*
%TO.C,U3*%
X160470000Y-150635000D03*
X157930000Y-150635000D03*
X155390000Y-150635000D03*
%TD*%
D46*
%TO.C,IC1*%
X135124265Y-49779600D03*
X137024265Y-49779600D03*
X136074265Y-47679600D03*
%TD*%
D12*
%TO.C,J8*%
X185658698Y-137035301D03*
X189158701Y-137035301D03*
%TD*%
D52*
%TO.C,D2*%
X197076000Y-94633000D03*
X197076000Y-98633000D03*
%TD*%
D53*
%TO.C,D16*%
X182210000Y-76699000D03*
X179410000Y-76699000D03*
%TD*%
D46*
%TO.C,IC6*%
X190962000Y-63799000D03*
X192862000Y-63799000D03*
X191912000Y-61699000D03*
%TD*%
D29*
%TO.C,R9*%
X139395598Y-50192100D03*
X139395598Y-47267100D03*
%TD*%
D53*
%TO.C,D15*%
X182210000Y-72799000D03*
X179410000Y-72799000D03*
%TD*%
D54*
%TO.C,C19*%
X194867000Y-110617000D03*
X197817000Y-110617000D03*
%TD*%
D55*
%TO.C,F6*%
X109418000Y-97495000D03*
X117512000Y-97495000D03*
%TD*%
D16*
%TO.C,R37*%
X187540500Y-76699000D03*
X184615500Y-76699000D03*
%TD*%
%TO.C,R36*%
X187432500Y-72799000D03*
X184507500Y-72799000D03*
%TD*%
D49*
%TO.C,C5*%
X137900000Y-96225000D03*
X140850000Y-96225000D03*
%TD*%
%TO.C,C8*%
X123900000Y-103010000D03*
X126850000Y-103010000D03*
%TD*%
D16*
%TO.C,R17*%
X213671500Y-70935000D03*
X210746500Y-70935000D03*
%TD*%
D17*
%TO.C,R15*%
X192308700Y-77420000D03*
X195233700Y-77420000D03*
%TD*%
D56*
%TO.C,J1*%
X141595000Y-148875000D03*
X136515000Y-148875000D03*
X131435000Y-148875000D03*
X126355000Y-148875000D03*
%TD*%
D27*
%TO.C,C2*%
X116125000Y-115725000D03*
X107425000Y-115725000D03*
%TD*%
D23*
%TO.C,J6*%
X220275800Y-69296000D03*
D24*
X217735800Y-69296000D03*
X220275800Y-66756000D03*
X217735800Y-66756000D03*
X220275800Y-64216000D03*
X217735800Y-64216000D03*
X220275800Y-61676000D03*
X217735800Y-61676000D03*
X220275800Y-59136000D03*
X217735800Y-59136000D03*
X220275800Y-56596000D03*
X217735800Y-56596000D03*
%TD*%
D20*
%TO.C,C4*%
X121725000Y-115675000D03*
X130425000Y-115675000D03*
%TD*%
D51*
%TO.C,H4*%
X216725000Y-150350000D03*
%TD*%
%TO.C,H1*%
X86725000Y-50350000D03*
%TD*%
D16*
%TO.C,R20*%
X213671500Y-66068334D03*
X210746500Y-66068334D03*
%TD*%
D17*
%TO.C,R26*%
X194703500Y-83444000D03*
X197628500Y-83444000D03*
%TD*%
D53*
%TO.C,D11*%
X122520000Y-54866000D03*
X119720000Y-54866000D03*
%TD*%
D29*
%TO.C,R6*%
X132752932Y-50192100D03*
X132752932Y-47267100D03*
%TD*%
D51*
%TO.C,H3*%
X86725000Y-150350000D03*
%TD*%
D46*
%TO.C,IC2*%
X128481599Y-49779600D03*
X130381599Y-49779600D03*
X129431599Y-47679600D03*
%TD*%
D38*
%TO.C,C17*%
X131525000Y-60325000D03*
X128575000Y-60325000D03*
%TD*%
D53*
%TO.C,D10*%
X109544000Y-92776000D03*
X106744000Y-92776000D03*
%TD*%
D49*
%TO.C,C7*%
X137900000Y-92300000D03*
X140850000Y-92300000D03*
%TD*%
D14*
%TO.C,F2*%
X88325000Y-90045000D03*
D15*
X88325000Y-93448600D03*
X101787000Y-93448600D03*
X101787000Y-90045000D03*
%TD*%
D16*
%TO.C,R12*%
X197690500Y-121563800D03*
X194765500Y-121563800D03*
%TD*%
D23*
%TO.C,J13*%
X205613000Y-63119000D03*
D24*
X203073000Y-63119000D03*
X200533000Y-63119000D03*
X197993000Y-63119000D03*
%TD*%
D57*
%TO.C,U5*%
X205851100Y-74019000D03*
X205851100Y-73369000D03*
X205851100Y-72719000D03*
X205851100Y-72069000D03*
X205851100Y-71419000D03*
X205851100Y-70769000D03*
X205851100Y-70119000D03*
X205851100Y-69469000D03*
X200126100Y-69469000D03*
X200126100Y-70119000D03*
X200126100Y-70769000D03*
X200126100Y-71419000D03*
X200126100Y-72069000D03*
X200126100Y-72719000D03*
X200126100Y-73369000D03*
X200126100Y-74019000D03*
%TD*%
D58*
%TO.C,U7*%
X209739000Y-152371500D03*
X211639000Y-152371500D03*
X210689000Y-150496500D03*
%TD*%
D20*
%TO.C,C3*%
X136975000Y-84125000D03*
X145675000Y-84125000D03*
%TD*%
D17*
%TO.C,R5*%
X194879500Y-106756200D03*
X197804500Y-106756200D03*
%TD*%
D14*
%TO.C,F1*%
X111105000Y-151461667D03*
D15*
X111105000Y-148058067D03*
X97643000Y-148058067D03*
X97643000Y-151461667D03*
%TD*%
D16*
%TO.C,R2*%
X131459500Y-142193000D03*
X128534500Y-142193000D03*
%TD*%
D59*
%TO.C,R4*%
X140255000Y-120162500D03*
X140255000Y-123087500D03*
%TD*%
D55*
%TO.C,F7*%
X109418000Y-101995000D03*
X117512000Y-101995000D03*
%TD*%
D60*
%TO.C,RL1*%
X197979610Y-138751510D03*
X205257020Y-138756100D03*
X197979610Y-146371510D03*
X205257020Y-146376100D03*
X197979610Y-143831510D03*
X205257020Y-143836100D03*
X197979610Y-148911510D03*
X205257020Y-148916100D03*
%TD*%
D26*
%TO.C,D8*%
X194877000Y-118227000D03*
X197677000Y-118227000D03*
%TD*%
D23*
%TO.C,J12*%
X184609000Y-82501000D03*
D24*
X182069000Y-82501000D03*
X184609000Y-85041000D03*
X182069000Y-85041000D03*
X184609000Y-87581000D03*
X182069000Y-87581000D03*
X184609000Y-90121000D03*
X182069000Y-90121000D03*
X184609000Y-92661000D03*
X182069000Y-92661000D03*
%TD*%
D56*
%TO.C,J2*%
X114070000Y-51325000D03*
X108990000Y-51325000D03*
X103910000Y-51325000D03*
X98830000Y-51325000D03*
%TD*%
D61*
%TO.C,PS1*%
X134285000Y-92225000D03*
D62*
X126665000Y-92225000D03*
X119045000Y-92225000D03*
D63*
X119045000Y-64285000D03*
D62*
X122855000Y-64285000D03*
X126665000Y-64285000D03*
X130475000Y-64285000D03*
D63*
X134285000Y-64285000D03*
D62*
X119045000Y-80155000D03*
X119045000Y-76345000D03*
%TD*%
D61*
%TO.C,PS2*%
X119055000Y-107625000D03*
D62*
X126675000Y-107625000D03*
X134295000Y-107625000D03*
D63*
X134295000Y-135565000D03*
D62*
X130485000Y-135565000D03*
X126675000Y-135565000D03*
X122865000Y-135565000D03*
D63*
X119055000Y-135565000D03*
D62*
X134295000Y-119695000D03*
X134295000Y-123505000D03*
%TD*%
M02*
