M48
; DRILL file {KiCad (6.0.10)} date Wed Feb 22 22:59:28 2023
; FORMAT={-:-/ absolute / inch / decimal}
; #@! TF.CreationDate,2023-02-22T22:59:28-05:00
; #@! TF.GenerationSoftware,Kicad,Pcbnew,(6.0.10)
; #@! TF.FileFunction,Plated,1,4,PTH
FMAT,2
INCH
; #@! TA.AperFunction,Plated,PTH,ViaDrill
T1C0.0157
; #@! TA.AperFunction,Plated,PTH,ViaDrill
T2C0.0197
; #@! TA.AperFunction,Plated,PTH,ComponentDrill
T3C0.0394
; #@! TA.AperFunction,Plated,PTH,ComponentDrill
T4C0.0420
; #@! TA.AperFunction,Plated,PTH,ComponentDrill
T5C0.0433
; #@! TA.AperFunction,Plated,PTH,ComponentDrill
T6C0.0470
; #@! TA.AperFunction,Plated,PTH,ComponentDrill
T7C0.0480
; #@! TA.AperFunction,Plated,PTH,ComponentDrill
T8C0.0512
; #@! TA.AperFunction,Plated,PTH,ComponentDrill
T9C0.0551
; #@! TA.AperFunction,Plated,PTH,ComponentDrill
T10C0.0630
; #@! TA.AperFunction,Plated,PTH,ComponentDrill
T11C0.0697
; #@! TA.AperFunction,Plated,PTH,ComponentDrill
T12C0.0984
; #@! TA.AperFunction,Plated,PTH,ComponentDrill
T13C0.1260
%
G90
G05
T1
X4.1634Y-3.7795
X4.1634Y-3.8287
X4.1634Y-3.878
X4.1634Y-3.9272
X4.1634Y-3.9764
X4.1634Y-4.0256
X4.1634Y-4.0748
X4.2126Y-3.7795
X4.2126Y-3.8287
X4.2126Y-3.878
X4.2126Y-3.9272
X4.2126Y-3.9764
X4.2126Y-4.0256
X4.2126Y-4.0748
X4.3898Y-3.7795
X4.3898Y-3.8287
X4.3898Y-3.878
X4.3898Y-3.9272
X4.3898Y-3.9764
X4.3898Y-4.0256
X4.3898Y-4.0748
X4.439Y-3.7795
X4.439Y-3.8287
X4.439Y-3.878
X4.439Y-3.9272
X4.439Y-3.9764
X4.439Y-4.0256
X4.439Y-4.0748
X4.44Y-2.95
X4.705Y-1.92
X4.7407Y-2.0297
X4.843Y-2.399
X4.965Y-1.92
X5.115Y-5.585
X5.23Y-1.915
X5.49Y-1.92
X5.755Y-1.9173
X5.77Y-3.65
X5.77Y-3.935
X5.77Y-4.0
X5.79Y-4.18
X6.17Y-3.965
X6.17Y-4.27
X6.245Y-2.795
X6.255Y-2.695
X6.255Y-2.895
X6.255Y-3.29
X6.2588Y-3.2012
X6.26Y-1.895
X6.26Y-1.995
X6.26Y-2.395
X6.26Y-2.495
X6.26Y-2.995
X6.26Y-3.395
X6.265Y-2.195
X6.265Y-2.295
X6.295Y-3.495
X6.39Y-3.32
X6.41Y-3.49
X6.575Y-3.26
X6.6Y-3.4
X6.6799Y-3.3017
X6.685Y-3.545
X6.745Y-3.405
X6.775Y-3.305
X6.78Y-3.495
X7.065Y-1.955
X7.0849Y-3.7723
X7.315Y-2.315
X7.39Y-3.535
X7.4Y-3.195
X7.475Y-2.64
X7.515Y-2.765
X7.52Y-3.11
X7.593Y-4.195
X7.73Y-4.28
X7.731Y-4.356
X7.805Y-2.745
X7.945Y-2.79
X7.95Y-2.735
X8.32Y-5.745
X8.35Y-2.5054
X8.35Y-2.945
X8.3801Y-2.697
T2
X2.995Y-4.545
X3.22Y-4.295
X3.22Y-4.535
X3.565Y-5.44
X3.57Y-5.165
X3.621Y-5.356
X3.934Y-5.243
X4.04Y-5.3828
X4.04Y-5.4714
X4.04Y-5.56
X4.08Y-4.56
X4.08Y-4.6486
X4.08Y-4.7372
X4.08Y-4.8257
X4.08Y-4.9193
X4.08Y-5.0078
X4.08Y-5.0964
X4.08Y-5.185
X4.13Y-5.2957
X4.13Y-5.3843
X4.13Y-5.5614
X4.175Y-4.4693
X4.175Y-4.6464
X4.175Y-4.735
X4.175Y-4.83
X4.175Y-4.9186
X4.175Y-5.0957
X4.175Y-5.1843
X4.2225Y-5.2957
X4.2225Y-5.3843
X4.2225Y-5.5614
X4.2675Y-4.3807
X4.2675Y-4.4693
X4.2675Y-4.6464
X4.2675Y-4.735
X4.2675Y-4.83
X4.2675Y-4.9186
X4.2675Y-5.0957
X4.2675Y-5.1843
X4.315Y-5.2957
X4.315Y-5.3843
X4.315Y-5.4728
X4.315Y-5.5614
X4.36Y-4.3807
X4.36Y-4.4693
X4.36Y-4.5578
X4.36Y-4.6464
X4.36Y-4.735
X4.36Y-5.01
X4.36Y-4.83
X4.36Y-4.9186
X4.36Y-5.0957
X4.4094Y-5.5814
X4.4567Y-4.3799
X4.4567Y-4.4685
X4.4567Y-4.5571
X4.4567Y-4.6457
X4.4567Y-4.7343
X4.4567Y-4.8346
X4.4567Y-4.9232
X4.4567Y-5.0118
X4.4567Y-5.1004
X4.4567Y-5.189
X4.4567Y-5.2776
X4.4587Y-5.3701
X4.5Y-2.49
X4.5Y-2.7578
X4.5Y-2.935
X4.5Y-3.22
X4.5Y-3.3972
X4.5Y-3.4857
X4.5Y-2.3072
X4.5Y-2.4022
X4.5Y-2.5772
X4.5Y-2.67
X4.5Y-2.845
X4.5Y-3.31
X4.5054Y-5.5814
X4.5118Y-4.126
X4.5276Y-3.7717
X4.5276Y-3.8602
X4.5276Y-4.0394
X4.5295Y-3.9685
X4.5492Y-4.3799
X4.5492Y-4.4685
X4.5492Y-4.6457
X4.5492Y-4.7343
X4.5492Y-4.8346
X4.5492Y-4.9232
X4.5492Y-5.1004
X4.5492Y-5.189
X4.5492Y-5.2776
X4.5512Y-5.3701
X4.5912Y-2.3072
X4.5925Y-2.4014
X4.5925Y-2.49
X4.5925Y-2.6693
X4.5925Y-2.7578
X4.5925Y-2.935
X4.5925Y-3.22
X4.5925Y-3.3972
X4.5925Y-3.4857
X4.5925Y-2.5772
X4.5925Y-2.845
X4.5925Y-3.31
X4.6014Y-5.5814
X4.6043Y-4.126
X4.63Y-1.835
X4.6417Y-4.3799
X4.6417Y-4.4685
X4.6417Y-4.6457
X4.6417Y-4.7343
X4.6417Y-4.8346
X4.6417Y-4.9232
X4.6417Y-5.1004
X4.6417Y-5.189
X4.6825Y-2.3072
X4.685Y-2.4014
X4.685Y-2.6693
X4.685Y-2.7578
X4.685Y-2.8464
X4.685Y-3.3086
X4.685Y-3.3972
X4.685Y-3.4857
X4.6969Y-4.126
X4.6973Y-5.5814
X4.7005Y-2.046
X4.7343Y-4.3799
X4.7343Y-4.4685
X4.7343Y-4.6457
X4.7343Y-4.7343
X4.7343Y-4.8346
X4.7343Y-4.9232
X4.7343Y-5.1004
X4.7343Y-5.189
X4.7402Y-3.9665
X4.7737Y-2.3072
X4.7739Y-1.884
X4.78Y-2.7578
X4.78Y-2.935
X4.78Y-3.0236
X4.78Y-3.22
X4.78Y-3.3972
X4.78Y-3.4857
X4.78Y-2.67
X4.78Y-3.1322
X4.7874Y-4.2126
X4.7874Y-4.2913
X4.7894Y-4.126
X4.7917Y-2.046
X4.7933Y-5.5814
X4.7972Y-3.874
X4.811Y-3.9685
X4.8268Y-4.3799
X4.8268Y-4.4685
X4.8268Y-4.6457
X4.8268Y-4.7343
X4.8268Y-4.8346
X4.8268Y-4.9232
X4.8268Y-5.1004
X4.8268Y-5.189
X4.865Y-2.3072
X4.8725Y-2.6693
X4.8725Y-2.7578
X4.8725Y-2.935
X4.8725Y-3.0236
X4.8725Y-3.1314
X4.8725Y-3.22
X4.8725Y-3.3972
X4.8725Y-3.4857
X4.8799Y-4.2126
X4.8799Y-4.2913
X4.883Y-2.046
X4.885Y-1.835
X4.8898Y-3.874
X4.8942Y-5.5814
X4.9193Y-4.3799
X4.9193Y-4.4685
X4.9193Y-4.5571
X4.9193Y-4.6457
X4.9193Y-4.7343
X4.9193Y-4.8346
X4.9193Y-4.9232
X4.9193Y-5.0118
X4.9193Y-5.1004
X4.9193Y-5.189
X4.965Y-2.6693
X4.965Y-2.7578
X4.965Y-2.8464
X4.965Y-2.935
X4.965Y-3.0236
X4.965Y-3.1314
X4.965Y-3.22
X4.965Y-3.3086
X4.965Y-3.3972
X4.965Y-3.4857
X4.9725Y-2.2756
X4.973Y-2.374
X4.9742Y-2.046
X4.9843Y-3.874
X4.989Y-5.409
X4.989Y-5.5015
X4.9902Y-5.5814
X5.01Y-4.38
X5.01Y-4.4686
X5.01Y-4.5572
X5.01Y-4.6457
X5.01Y-4.7343
X5.01Y-4.835
X5.01Y-4.9236
X5.01Y-5.0122
X5.01Y-5.1007
X5.01Y-5.1893
X5.0437Y-1.884
X5.0551Y-3.1339
X5.0551Y-3.2224
X5.0551Y-3.311
X5.0551Y-3.3996
X5.0551Y-3.4882
X5.0571Y-2.6693
X5.0571Y-2.7579
X5.0571Y-2.8465
X5.0571Y-2.935
X5.0571Y-3.0236
X5.0695Y-2.046
X5.0716Y-2.2756
X5.076Y-3.9674
X5.076Y-4.056
X5.0768Y-3.874
X5.1025Y-4.38
X5.1025Y-4.4686
X5.1025Y-4.6457
X5.1025Y-4.7343
X5.1025Y-4.835
X5.1025Y-4.9236
X5.1025Y-5.1007
X5.1025Y-5.1893
X5.1476Y-3.1339
X5.1476Y-3.2224
X5.1476Y-3.3996
X5.1476Y-3.4882
X5.1496Y-2.6693
X5.1496Y-2.7579
X5.1496Y-2.935
X5.1496Y-3.0236
X5.1525Y-2.046
X5.155Y-1.835
X5.1685Y-3.9674
X5.1685Y-4.056
X5.1693Y-3.874
X5.1707Y-2.2756
X5.19Y-5.485
X5.195Y-4.38
X5.195Y-4.4686
X5.195Y-4.6457
X5.195Y-4.7343
X5.195Y-4.835
X5.195Y-4.9236
X5.195Y-5.1007
X5.195Y-5.1893
X5.2402Y-3.1339
X5.2402Y-3.2224
X5.2402Y-3.3996
X5.2402Y-3.4882
X5.2421Y-2.6693
X5.2421Y-2.7579
X5.2421Y-2.935
X5.2421Y-3.0236
X5.2424Y-2.046
X5.261Y-3.9674
X5.261Y-4.056
X5.2618Y-3.874
X5.2697Y-2.2756
X5.285Y-4.38
X5.285Y-4.4686
X5.285Y-4.5572
X5.285Y-5.0143
X5.285Y-5.1029
X5.285Y-5.1915
X5.285Y-5.485
X5.31Y-1.884
X5.325Y-5.9482
X5.326Y-5.699
X5.326Y-5.7766
X5.326Y-6.0207
X5.3327Y-3.1339
X5.3327Y-3.2224
X5.3327Y-3.3996
X5.3327Y-3.4882
X5.3339Y-2.046
X5.3346Y-2.6693
X5.3346Y-2.7579
X5.3346Y-2.935
X5.3346Y-3.0236
X5.35Y-5.5814
X5.3543Y-3.874
X5.3575Y-3.97
X5.3575Y-4.0586
X5.3688Y-2.2756
X5.3775Y-4.5557
X5.3775Y-5.0157
X5.3775Y-5.3093
X5.3775Y-4.38
X5.3775Y-4.4686
X5.3775Y-4.6457
X5.3775Y-4.9257
X5.3775Y-5.1029
X5.3775Y-5.1915
X5.3775Y-5.3964
X5.3775Y-5.485
X5.4136Y-5.9482
X5.4146Y-5.699
X5.4146Y-5.7766
X5.4146Y-6.0207
X5.415Y-1.835
X5.4252Y-2.4882
X5.4252Y-3.1339
X5.4252Y-3.2224
X5.4252Y-3.3996
X5.4252Y-3.4882
X5.4256Y-2.046
X5.4272Y-2.5807
X5.4272Y-2.6693
X5.4272Y-2.7579
X5.4272Y-2.935
X5.4272Y-3.0236
X5.45Y-3.97
X5.45Y-4.0586
X5.4679Y-2.2756
X5.47Y-4.5557
X5.47Y-5.0157
X5.47Y-5.1907
X5.47Y-5.3093
X5.47Y-5.4843
X5.47Y-4.38
X5.47Y-4.4686
X5.47Y-4.6457
X5.47Y-4.9257
X5.47Y-5.1029
X5.47Y-5.3964
X5.5022Y-5.9482
X5.5032Y-5.699
X5.5032Y-5.7766
X5.5032Y-6.0207
X5.5173Y-2.046
X5.5177Y-2.4882
X5.5177Y-3.1339
X5.5177Y-3.2224
X5.5177Y-3.311
X5.5177Y-3.3996
X5.5197Y-2.5807
X5.5197Y-2.6693
X5.5197Y-2.7579
X5.5197Y-2.8465
X5.5197Y-2.935
X5.5197Y-3.0236
X5.5425Y-3.97
X5.5425Y-4.0586
X5.564Y-5.583
X5.5669Y-2.2756
X5.5675Y-5.3108
X5.5675Y-5.398
X5.5675Y-5.4866
X5.57Y-1.884
X5.5907Y-5.9482
X5.5917Y-5.699
X5.5917Y-5.7766
X5.5917Y-6.0207
X5.6009Y-2.046
X5.61Y-2.7557
X5.61Y-2.9328
X5.61Y-3.0214
X5.61Y-2.8414
X5.61Y-3.1314
X5.61Y-3.22
X5.61Y-3.3086
X5.61Y-3.3972
X5.61Y-3.4857
X5.655Y-2.29
X5.655Y-2.3786
X5.655Y-2.4672
X5.655Y-2.5557
X5.659Y-5.3108
X5.659Y-5.4858
X5.659Y-5.583
X5.659Y-5.398
X5.675Y-1.835
X5.6793Y-5.9482
X5.6803Y-5.699
X5.6803Y-5.7766
X5.6803Y-6.0207
X5.6932Y-2.046
X5.7025Y-2.6671
X5.7025Y-2.7557
X5.7025Y-2.9328
X5.7025Y-3.0214
X5.7025Y-3.1314
X5.7025Y-3.22
X5.7025Y-3.3972
X5.7025Y-3.4857
X5.7475Y-2.29
X5.7475Y-2.4672
X5.7475Y-2.5557
X5.756Y-5.311
X5.756Y-5.486
X5.756Y-5.5832
X5.756Y-5.3982
X5.7844Y-2.046
X5.795Y-2.6671
X5.795Y-2.7557
X5.795Y-2.9328
X5.795Y-3.0214
X5.795Y-3.1314
X5.795Y-3.22
X5.795Y-3.3972
X5.83Y-1.884
X5.84Y-2.29
X5.84Y-2.4672
X5.84Y-2.5557
X5.89Y-2.6664
X5.89Y-2.755
X5.89Y-2.8436
X5.89Y-2.9322
X5.89Y-3.025
X5.89Y-3.1136
X5.89Y-3.2022
X5.89Y-3.2907
X5.89Y-3.395
X5.93Y-2.2914
X5.93Y-2.38
X5.93Y-2.4686
X5.93Y-2.5572
X6.215Y-4.535
X6.22Y-4.73
X6.2359Y-3.599
X6.24Y-2.1
X6.24Y-5.635
X6.245Y-5.18
X6.25Y-2.6
X6.25Y-3.1
X6.485Y-5.635
X6.49Y-5.18
X6.52Y-3.71
X6.535Y-3.97
X6.585Y-4.445
X6.74Y-5.64
X6.745Y-5.185
X6.781Y-2.613
X6.781Y-3.1048
X6.8Y-2.1
X6.805Y-3.97
X6.81Y-3.6
X6.84Y-4.45
X6.975Y-5.64
X6.98Y-5.185
X7.025Y-2.44
X7.044Y-2.281
X7.075Y-4.45
X7.16Y-5.12
X7.205Y-5.635
X7.21Y-5.18
X7.25Y-5.12
X7.305Y-4.445
X7.32Y-2.62
X7.32Y-2.765
X7.32Y-2.87
X7.33Y-3.02
X7.34Y-5.12
X7.3689Y-2.464
X7.41Y-5.635
X7.415Y-5.18
X7.51Y-3.72
X7.51Y-4.445
X7.58Y-4.86
X7.63Y-5.635
X7.67Y-3.725
X7.675Y-2.515
X7.7Y-4.86
X7.76Y-2.64
X7.775Y-5.935
X7.8Y-4.86
X7.8Y-4.96
X7.8Y-6.05
X7.83Y-3.335
X7.83Y-3.525
X7.835Y-3.145
X7.855Y-2.955
X7.865Y-2.56
X7.94Y-5.935
X8.005Y-6.05
X8.035Y-2.765
X8.035Y-2.82
X8.11Y-5.935
X8.25Y-2.335
X8.255Y-5.395
X8.255Y-5.51
X8.41Y-5.395
X8.41Y-5.51
X8.445Y-2.34
X8.57Y-5.515
X8.575Y-5.395
T3
X7.1681Y-3.2481
X7.1681Y-3.3481
X7.1681Y-3.4481
X7.1681Y-3.5481
X7.1681Y-3.6481
X7.2681Y-3.2481
X7.2681Y-3.3481
X7.2681Y-3.4481
X7.2681Y-3.5481
X7.2681Y-3.6481
X7.795Y-2.485
X7.895Y-2.485
X7.9712Y-3.3542
X7.9712Y-3.4542
X7.9712Y-3.5542
X7.9712Y-3.6542
X7.9712Y-3.7542
X7.9712Y-3.8542
X7.9712Y-3.9542
X7.9712Y-4.0542
X7.9712Y-4.1542
X7.9712Y-4.2542
X7.9712Y-4.3542
X7.9712Y-4.4542
X7.9712Y-4.5542
X7.9712Y-4.6542
X7.9712Y-4.7542
X7.9712Y-4.8542
X7.9712Y-4.9542
X7.9712Y-5.0542
X7.9712Y-5.1542
X7.9712Y-5.2542
X7.995Y-2.485
X8.0712Y-3.3542
X8.0712Y-3.4542
X8.0712Y-3.5542
X8.0712Y-3.6542
X8.0712Y-3.7542
X8.0712Y-3.8542
X8.0712Y-3.9542
X8.0712Y-4.0542
X8.0712Y-4.1542
X8.0712Y-4.2542
X8.0712Y-4.3542
X8.0712Y-4.4542
X8.0712Y-4.5542
X8.0712Y-4.6542
X8.0712Y-4.7542
X8.0712Y-4.8542
X8.0712Y-4.9542
X8.0712Y-5.0542
X8.0712Y-5.1542
X8.0712Y-5.2542
X8.095Y-2.485
X8.3004Y-2.1869
X8.3026Y-3.3552
X8.3026Y-3.4552
X8.3026Y-3.5552
X8.3026Y-3.6552
X8.3026Y-3.7552
X8.3026Y-3.8552
X8.3026Y-3.9552
X8.3026Y-4.0552
X8.3026Y-4.1552
X8.3026Y-4.2552
X8.3026Y-4.3552
X8.3026Y-4.4552
X8.3026Y-4.5552
X8.3026Y-4.6552
X8.3026Y-4.7552
X8.3026Y-4.8552
X8.3026Y-4.9552
X8.3026Y-5.0552
X8.3026Y-5.1552
X8.3026Y-5.2552
X8.3039Y-1.9269
X8.3039Y-2.0269
X8.4004Y-2.1869
X8.4026Y-3.3552
X8.4026Y-3.4552
X8.4026Y-3.5552
X8.4026Y-3.6552
X8.4026Y-3.7552
X8.4026Y-3.8552
X8.4026Y-3.9552
X8.4026Y-4.0552
X8.4026Y-4.1552
X8.4026Y-4.2552
X8.4026Y-4.3552
X8.4026Y-4.4552
X8.4026Y-4.5552
X8.4026Y-4.6552
X8.4026Y-4.7552
X8.4026Y-4.8552
X8.4026Y-4.9552
X8.4026Y-5.0552
X8.4026Y-5.1552
X8.4026Y-5.2552
X8.5723Y-2.2282
X8.5723Y-2.3282
X8.5723Y-2.4282
X8.5723Y-2.5282
X8.5723Y-2.6282
X8.5723Y-2.7282
X8.6723Y-2.2282
X8.6723Y-2.3282
X8.6723Y-2.4282
X8.6723Y-2.5282
X8.6723Y-2.6282
X8.6723Y-2.7282
T4
X6.1177Y-5.9305
X6.2177Y-5.9305
X6.3177Y-5.9305
X6.6846Y-5.9305
X6.7846Y-5.9305
X6.8846Y-5.9305
T5
X3.3392Y-5.3583
X3.7407Y-5.3583
T6
X6.856Y-4.2126
X6.856Y-5.0009
X6.9938Y-4.2126
X6.9938Y-5.0009
X7.3094Y-4.6068
X7.3094Y-5.3951
X7.398Y-2.2219
X7.4472Y-4.6068
X7.4472Y-5.3951
X7.5357Y-2.2219
T7
X4.6868Y-3.0057
X4.6868Y-3.1557
X4.6868Y-3.6309
X4.6872Y-4.2372
X4.8368Y-2.5309
X4.8372Y-5.3372
X4.9868Y-2.5309
X4.9868Y-3.6309
X4.9872Y-4.2372
X4.9872Y-5.3372
X5.1368Y-2.5309
X5.1372Y-5.3372
X5.2868Y-3.6309
X5.2872Y-4.2372
X5.2872Y-4.7124
X5.2872Y-4.8624
T8
X3.0833Y-2.9744
X3.0833Y-3.2697
X3.088Y-2.386
X3.088Y-2.6813
X3.6841Y-2.9744
X3.6841Y-3.2697
X3.6888Y-2.386
X3.6888Y-2.6813
X3.8825Y-2.9744
X3.8825Y-3.2697
X3.8872Y-2.386
X3.8872Y-2.6813
X4.0809Y-2.9744
X4.0809Y-3.2697
X4.0856Y-2.386
X4.0856Y-2.6813
T9
X3.8909Y-2.0207
X4.0909Y-2.0207
X4.2909Y-2.0207
X4.4909Y-2.0207
X4.9746Y-5.8612
X5.1746Y-5.8612
X5.3746Y-5.8612
X5.5746Y-5.8612
T10
X3.4774Y-3.5451
X3.4774Y-3.6791
X3.4801Y-3.875
X3.4801Y-4.009
X3.8442Y-5.8291
X3.8442Y-5.9631
X4.0074Y-3.5451
X4.0074Y-3.6791
X4.0101Y-3.875
X4.0101Y-4.009
X4.3742Y-5.8291
X4.3742Y-5.9631
X5.9604Y-4.1179
X5.9604Y-4.2519
X5.9604Y-4.5169
X5.9604Y-4.6509
X5.9604Y-4.9159
X5.9604Y-5.0499
X5.9604Y-5.315
X5.9604Y-5.449
X6.4904Y-4.1179
X6.4904Y-4.2519
X6.4904Y-4.5169
X6.4904Y-4.6509
X6.4904Y-4.9159
X6.4904Y-5.0499
X6.4904Y-5.315
X6.4904Y-5.449
T11
X4.6868Y-2.5309
X4.6872Y-5.3372
X5.2868Y-2.5309
X5.2872Y-5.3372
T12
X3.1896Y-4.8598
X3.8904Y-4.4606
X3.8904Y-4.7598
T13
X3.4144Y-1.9823
X3.4144Y-5.9193
X8.5325Y-1.9823
X8.5325Y-5.9193
T3
G00X7.7951Y-2.0194
M15
G01X7.7951Y-1.9603
M16
G05
G00X7.9467Y-2.0292
M15
G01X7.9979Y-2.0292
M16
G05
G00X7.9329Y-2.2654
M15
G01X8.0117Y-2.2654
M16
G05
G00X8.1495Y-2.0194
M15
G01X8.1495Y-1.9603
M16
G05
T0
M30
