G04 #@! TF.GenerationSoftware,KiCad,Pcbnew,8.0.1*
G04 #@! TF.CreationDate,2025-03-14T15:20:11-04:00*
G04 #@! TF.ProjectId,Relay Stick Fix,52656c61-7920-4537-9469-636b20466978,rev?*
G04 #@! TF.SameCoordinates,Original*
G04 #@! TF.FileFunction,Copper,L4,Bot*
G04 #@! TF.FilePolarity,Positive*
%FSLAX46Y46*%
G04 Gerber Fmt 4.6, Leading zero omitted, Abs format (unit mm)*
G04 Created by KiCad (PCBNEW 8.0.1) date 2025-03-14 15:20:11*
%MOMM*%
%LPD*%
G01*
G04 APERTURE LIST*
G04 #@! TA.AperFunction,ComponentPad*
%ADD10C,1.000000*%
G04 #@! TD*
G04 #@! TA.AperFunction,ComponentPad*
%ADD11C,5.600000*%
G04 #@! TD*
G04 #@! TA.AperFunction,SMDPad,CuDef*
%ADD12R,3.150000X1.000000*%
G04 #@! TD*
G04 #@! TA.AperFunction,ViaPad*
%ADD13C,0.600000*%
G04 #@! TD*
G04 #@! TA.AperFunction,Conductor*
%ADD14C,0.200000*%
G04 #@! TD*
G04 #@! TA.AperFunction,Conductor*
%ADD15C,0.500000*%
G04 #@! TD*
G04 APERTURE END LIST*
D10*
X26700000Y-25400000D03*
X26700000Y-29700000D03*
D11*
X35617000Y-30151000D03*
D12*
X23125000Y-18400000D03*
X18075000Y-18400000D03*
X23125000Y-20940000D03*
X18075000Y-20940000D03*
X23125000Y-23480000D03*
X18075000Y-23480000D03*
X23125000Y-26020000D03*
X18075000Y-26020000D03*
X23125000Y-28560000D03*
X18075000Y-28560000D03*
X23125000Y-31100000D03*
X18075000Y-31100000D03*
D13*
X30100000Y-20000000D03*
X29100000Y-20000000D03*
X29100000Y-19000000D03*
X32100000Y-20000000D03*
X32100000Y-22100000D03*
X32100000Y-21100000D03*
X27100000Y-17000000D03*
X26100000Y-17000000D03*
X27100000Y-18000000D03*
X26100000Y-18000000D03*
X20600000Y-23750000D03*
X22000000Y-16250000D03*
X24000000Y-16250000D03*
X39500000Y-17000000D03*
X39100000Y-36700000D03*
X23000000Y-16250000D03*
X28600000Y-39525000D03*
X22550000Y-32500000D03*
X28350000Y-31500000D03*
X25500000Y-30200000D03*
X27100000Y-28600000D03*
X26300000Y-28600000D03*
X25500000Y-28600000D03*
X38200000Y-33800000D03*
X24850000Y-33750000D03*
X25500000Y-29400000D03*
X23350000Y-38500000D03*
X32100000Y-31700000D03*
X25500000Y-25700000D03*
X25500000Y-26500000D03*
X27100000Y-26500000D03*
X25500000Y-24900000D03*
X26300000Y-26500000D03*
X35100000Y-17000000D03*
X32100000Y-17000000D03*
X32100000Y-18000000D03*
X31100000Y-18000000D03*
X29100000Y-18000000D03*
X30100000Y-17000000D03*
X32100000Y-19000000D03*
X28100000Y-18000000D03*
X30100000Y-19000000D03*
X31100000Y-17000000D03*
X29100000Y-17000000D03*
X31100000Y-21100000D03*
X31100000Y-19000000D03*
X30100000Y-18000000D03*
X36100000Y-17000000D03*
X34100000Y-17000000D03*
X28100000Y-17000000D03*
X33100000Y-17000000D03*
X31100000Y-20000000D03*
X27850000Y-34357893D03*
X39600000Y-40000000D03*
D14*
X23125000Y-18400000D02*
X23325000Y-18200000D01*
D15*
X20500000Y-20000000D02*
X18900000Y-18400000D01*
X28900000Y-30950000D02*
X28900000Y-24700000D01*
X24850000Y-32500000D02*
X22550000Y-32500000D01*
X21300000Y-22300000D02*
X20500000Y-21500000D01*
X20500000Y-21500000D02*
X20500000Y-20000000D01*
X28350000Y-31500000D02*
X25850000Y-31500000D01*
X28350000Y-31500000D02*
X28900000Y-30950000D01*
X26500000Y-22300000D02*
X21300000Y-22300000D01*
X28900000Y-24700000D02*
X26500000Y-22300000D01*
X18900000Y-18400000D02*
X18075000Y-18400000D01*
X25850000Y-31500000D02*
X24850000Y-32500000D01*
X34200000Y-33800000D02*
X38200000Y-33800000D01*
X23350000Y-38500000D02*
X23350000Y-35250000D01*
X32100000Y-31700000D02*
X34200000Y-33800000D01*
X23350000Y-35250000D02*
X24850000Y-33750000D01*
X27957893Y-34357893D02*
X33600000Y-40000000D01*
X27850000Y-34357893D02*
X27957893Y-34357893D01*
X33600000Y-40000000D02*
X39600000Y-40000000D01*
G04 #@! TA.AperFunction,Conductor*
G36*
X43542539Y-15520185D02*
G01*
X43588294Y-15572989D01*
X43599500Y-15624500D01*
X43599500Y-41375500D01*
X43579815Y-41442539D01*
X43527011Y-41488294D01*
X43475500Y-41499500D01*
X16474500Y-41499500D01*
X16407461Y-41479815D01*
X16361706Y-41427011D01*
X16350500Y-41375500D01*
X16350500Y-32224499D01*
X16370185Y-32157460D01*
X16422989Y-32111705D01*
X16474495Y-32100499D01*
X19697872Y-32100499D01*
X19757483Y-32094091D01*
X19892331Y-32043796D01*
X20007546Y-31957546D01*
X20093796Y-31842331D01*
X20144091Y-31707483D01*
X20150500Y-31647873D01*
X20150499Y-31179499D01*
X20170183Y-31112461D01*
X20222987Y-31066706D01*
X20274499Y-31055500D01*
X20925500Y-31055500D01*
X20992539Y-31075185D01*
X21038294Y-31127989D01*
X21049500Y-31179500D01*
X21049500Y-31647870D01*
X21049501Y-31647876D01*
X21055908Y-31707483D01*
X21106202Y-31842328D01*
X21106206Y-31842335D01*
X21192452Y-31957544D01*
X21192455Y-31957547D01*
X21307664Y-32043793D01*
X21307671Y-32043797D01*
X21352618Y-32060561D01*
X21442517Y-32094091D01*
X21502127Y-32100500D01*
X21666937Y-32100499D01*
X21733976Y-32120183D01*
X21779731Y-32172987D01*
X21789675Y-32242145D01*
X21783979Y-32265453D01*
X21764632Y-32320742D01*
X21764630Y-32320750D01*
X21744435Y-32499996D01*
X21744435Y-32500003D01*
X21764630Y-32679249D01*
X21764631Y-32679254D01*
X21824211Y-32849523D01*
X21915266Y-32994435D01*
X21920184Y-33002262D01*
X22047738Y-33129816D01*
X22200478Y-33225789D01*
X22370745Y-33285368D01*
X22370750Y-33285369D01*
X22549996Y-33305565D01*
X22550000Y-33305565D01*
X22550004Y-33305565D01*
X22729249Y-33285369D01*
X22729252Y-33285368D01*
X22729255Y-33285368D01*
X22809017Y-33257457D01*
X22849972Y-33250500D01*
X23988770Y-33250500D01*
X24055809Y-33270185D01*
X24101564Y-33322989D01*
X24111508Y-33392147D01*
X24082483Y-33455703D01*
X24076451Y-33462181D01*
X22767052Y-34771578D01*
X22767049Y-34771581D01*
X22723800Y-34836308D01*
X22723801Y-34836309D01*
X22684914Y-34894508D01*
X22628343Y-35031082D01*
X22628340Y-35031092D01*
X22599500Y-35176079D01*
X22599500Y-38200028D01*
X22592542Y-38240982D01*
X22564631Y-38320747D01*
X22544435Y-38499996D01*
X22544435Y-38500003D01*
X22564630Y-38679249D01*
X22564631Y-38679254D01*
X22624211Y-38849523D01*
X22720184Y-39002262D01*
X22847738Y-39129816D01*
X22938080Y-39186582D01*
X22982721Y-39214632D01*
X23000478Y-39225789D01*
X23138860Y-39274211D01*
X23170745Y-39285368D01*
X23170750Y-39285369D01*
X23349996Y-39305565D01*
X23350000Y-39305565D01*
X23350004Y-39305565D01*
X23529249Y-39285369D01*
X23529252Y-39285368D01*
X23529255Y-39285368D01*
X23699522Y-39225789D01*
X23852262Y-39129816D01*
X23979816Y-39002262D01*
X24075789Y-38849522D01*
X24135368Y-38679255D01*
X24155565Y-38500000D01*
X24135368Y-38320745D01*
X24107458Y-38240982D01*
X24100500Y-38200028D01*
X24100500Y-35612228D01*
X24120185Y-35545189D01*
X24136814Y-35524551D01*
X25158059Y-34503306D01*
X25194132Y-34480657D01*
X25193244Y-34478813D01*
X25199515Y-34475792D01*
X25199516Y-34475790D01*
X25199522Y-34475789D01*
X25352262Y-34379816D01*
X25374182Y-34357896D01*
X27044435Y-34357896D01*
X27064630Y-34537142D01*
X27064631Y-34537147D01*
X27124211Y-34707416D01*
X27220184Y-34860155D01*
X27347738Y-34987709D01*
X27416766Y-35031082D01*
X27500478Y-35083682D01*
X27661180Y-35139914D01*
X27707907Y-35169275D01*
X33017049Y-40478416D01*
X33121584Y-40582951D01*
X33121585Y-40582952D01*
X33244498Y-40665080D01*
X33244511Y-40665087D01*
X33381082Y-40721656D01*
X33381087Y-40721658D01*
X33381091Y-40721658D01*
X33381092Y-40721659D01*
X33526079Y-40750500D01*
X33526082Y-40750500D01*
X39300028Y-40750500D01*
X39340983Y-40757458D01*
X39420745Y-40785368D01*
X39420750Y-40785369D01*
X39599996Y-40805565D01*
X39600000Y-40805565D01*
X39600004Y-40805565D01*
X39779249Y-40785369D01*
X39779252Y-40785368D01*
X39779255Y-40785368D01*
X39949522Y-40725789D01*
X40102262Y-40629816D01*
X40229816Y-40502262D01*
X40325789Y-40349522D01*
X40385368Y-40179255D01*
X40405565Y-40000000D01*
X40385368Y-39820745D01*
X40325789Y-39650478D01*
X40229816Y-39497738D01*
X40102262Y-39370184D01*
X39999422Y-39305565D01*
X39949523Y-39274211D01*
X39779254Y-39214631D01*
X39779249Y-39214630D01*
X39600004Y-39194435D01*
X39599996Y-39194435D01*
X39420750Y-39214630D01*
X39420745Y-39214631D01*
X39340983Y-39242542D01*
X39300028Y-39249500D01*
X33962229Y-39249500D01*
X33895190Y-39229815D01*
X33874548Y-39213181D01*
X28436314Y-33774945D01*
X28436307Y-33774939D01*
X28362622Y-33725705D01*
X28362621Y-33725705D01*
X28313394Y-33692812D01*
X28313389Y-33692810D01*
X28313388Y-33692809D01*
X28272417Y-33675838D01*
X28253899Y-33666271D01*
X28199523Y-33632104D01*
X28029254Y-33572524D01*
X28029249Y-33572523D01*
X27850004Y-33552328D01*
X27849996Y-33552328D01*
X27670750Y-33572523D01*
X27670745Y-33572524D01*
X27500476Y-33632104D01*
X27347737Y-33728077D01*
X27220184Y-33855630D01*
X27124211Y-34008369D01*
X27064631Y-34178638D01*
X27064630Y-34178643D01*
X27044435Y-34357889D01*
X27044435Y-34357896D01*
X25374182Y-34357896D01*
X25479816Y-34252262D01*
X25575789Y-34099522D01*
X25635368Y-33929255D01*
X25635369Y-33929249D01*
X25655565Y-33750003D01*
X25655565Y-33749996D01*
X25635369Y-33570750D01*
X25635368Y-33570745D01*
X25575788Y-33400476D01*
X25503461Y-33285369D01*
X25479816Y-33247738D01*
X25409403Y-33177325D01*
X25375918Y-33116002D01*
X25380902Y-33046310D01*
X25409399Y-33001968D01*
X26124548Y-32286818D01*
X26185871Y-32253334D01*
X26212229Y-32250500D01*
X28050028Y-32250500D01*
X28090983Y-32257458D01*
X28170745Y-32285368D01*
X28170750Y-32285369D01*
X28349996Y-32305565D01*
X28350000Y-32305565D01*
X28350004Y-32305565D01*
X28529249Y-32285369D01*
X28529252Y-32285368D01*
X28529255Y-32285368D01*
X28699522Y-32225789D01*
X28852262Y-32129816D01*
X28979816Y-32002262D01*
X29075789Y-31849522D01*
X29075792Y-31849510D01*
X29078810Y-31843248D01*
X29080650Y-31844134D01*
X29103305Y-31808061D01*
X29211363Y-31700003D01*
X31294435Y-31700003D01*
X31314630Y-31879249D01*
X31314631Y-31879254D01*
X31374211Y-32049523D01*
X31413283Y-32111705D01*
X31470184Y-32202262D01*
X31597738Y-32329816D01*
X31750478Y-32425789D01*
X31750483Y-32425792D01*
X31756753Y-32428812D01*
X31755864Y-32430656D01*
X31791937Y-32453305D01*
X33617048Y-34278415D01*
X33617049Y-34278416D01*
X33696522Y-34357889D01*
X33721585Y-34382952D01*
X33844498Y-34465080D01*
X33844511Y-34465087D01*
X33936786Y-34503308D01*
X33981087Y-34521658D01*
X33981091Y-34521658D01*
X33981092Y-34521659D01*
X34126079Y-34550500D01*
X34126082Y-34550500D01*
X37900028Y-34550500D01*
X37940983Y-34557458D01*
X38020745Y-34585368D01*
X38020750Y-34585369D01*
X38199996Y-34605565D01*
X38200000Y-34605565D01*
X38200004Y-34605565D01*
X38379249Y-34585369D01*
X38379252Y-34585368D01*
X38379255Y-34585368D01*
X38549522Y-34525789D01*
X38702262Y-34429816D01*
X38829816Y-34302262D01*
X38925789Y-34149522D01*
X38985368Y-33979255D01*
X38991002Y-33929254D01*
X39005565Y-33800003D01*
X39005565Y-33799996D01*
X38985369Y-33620750D01*
X38985368Y-33620745D01*
X38925788Y-33450476D01*
X38829815Y-33297737D01*
X38702262Y-33170184D01*
X38549523Y-33074211D01*
X38379254Y-33014631D01*
X38379249Y-33014630D01*
X38200004Y-32994435D01*
X38199996Y-32994435D01*
X38020750Y-33014630D01*
X38020745Y-33014631D01*
X37940983Y-33042542D01*
X37900028Y-33049500D01*
X34562229Y-33049500D01*
X34495190Y-33029815D01*
X34474548Y-33013181D01*
X33685866Y-32224499D01*
X32853305Y-31391937D01*
X32830656Y-31355864D01*
X32828812Y-31356753D01*
X32825792Y-31350483D01*
X32729815Y-31197737D01*
X32602262Y-31070184D01*
X32449523Y-30974211D01*
X32279254Y-30914631D01*
X32279249Y-30914630D01*
X32100004Y-30894435D01*
X32099996Y-30894435D01*
X31920750Y-30914630D01*
X31920745Y-30914631D01*
X31750476Y-30974211D01*
X31597737Y-31070184D01*
X31470184Y-31197737D01*
X31374211Y-31350476D01*
X31314631Y-31520745D01*
X31314630Y-31520750D01*
X31294435Y-31699996D01*
X31294435Y-31700003D01*
X29211363Y-31700003D01*
X29482951Y-31428416D01*
X29565084Y-31305495D01*
X29621658Y-31168913D01*
X29626513Y-31144505D01*
X29632887Y-31112461D01*
X29650500Y-31023920D01*
X29650500Y-24626079D01*
X29633667Y-24541458D01*
X29633667Y-24541457D01*
X29621659Y-24481088D01*
X29571799Y-24360717D01*
X29565084Y-24344505D01*
X29529778Y-24291666D01*
X29482954Y-24221588D01*
X29482953Y-24221587D01*
X29482951Y-24221584D01*
X29378416Y-24117049D01*
X26978416Y-21717048D01*
X26978415Y-21717047D01*
X26978413Y-21717045D01*
X26932099Y-21686101D01*
X26901222Y-21665470D01*
X26855495Y-21634916D01*
X26855494Y-21634915D01*
X26855492Y-21634914D01*
X26855490Y-21634913D01*
X26718917Y-21578343D01*
X26718907Y-21578340D01*
X26573920Y-21549500D01*
X26573918Y-21549500D01*
X25324500Y-21549500D01*
X25257461Y-21529815D01*
X25211706Y-21477011D01*
X25200500Y-21425500D01*
X25200499Y-20392129D01*
X25200498Y-20392123D01*
X25194091Y-20332516D01*
X25143797Y-20197671D01*
X25143793Y-20197664D01*
X25057547Y-20082455D01*
X25057544Y-20082452D01*
X24942335Y-19996206D01*
X24942328Y-19996202D01*
X24807482Y-19945908D01*
X24807483Y-19945908D01*
X24747883Y-19939501D01*
X24747881Y-19939500D01*
X24747873Y-19939500D01*
X24747864Y-19939500D01*
X21502129Y-19939500D01*
X21502123Y-19939501D01*
X21442516Y-19945908D01*
X21403954Y-19960291D01*
X21334262Y-19965274D01*
X21272940Y-19931787D01*
X21239456Y-19870463D01*
X21239006Y-19868299D01*
X21229547Y-19820746D01*
X21229547Y-19820743D01*
X21221660Y-19781094D01*
X21221659Y-19781088D01*
X21167408Y-19650117D01*
X21165765Y-19645525D01*
X21165084Y-19644505D01*
X21112275Y-19565470D01*
X21112275Y-19565469D01*
X21097613Y-19543527D01*
X21082952Y-19521584D01*
X20186818Y-18625450D01*
X20153333Y-18564127D01*
X20150499Y-18537769D01*
X20150499Y-18000003D01*
X25294435Y-18000003D01*
X25314630Y-18179249D01*
X25314631Y-18179254D01*
X25374211Y-18349523D01*
X25374212Y-18349524D01*
X25470184Y-18502262D01*
X25597738Y-18629816D01*
X25750478Y-18725789D01*
X25920745Y-18785368D01*
X25920750Y-18785369D01*
X26099996Y-18805565D01*
X26100000Y-18805565D01*
X26100004Y-18805565D01*
X26279249Y-18785369D01*
X26279252Y-18785368D01*
X26279255Y-18785368D01*
X26449522Y-18725789D01*
X26534027Y-18672691D01*
X26601264Y-18653690D01*
X26665973Y-18672691D01*
X26750475Y-18725788D01*
X26920745Y-18785368D01*
X26920750Y-18785369D01*
X27099996Y-18805565D01*
X27100000Y-18805565D01*
X27100004Y-18805565D01*
X27279249Y-18785369D01*
X27279252Y-18785368D01*
X27279255Y-18785368D01*
X27449522Y-18725789D01*
X27534027Y-18672691D01*
X27601264Y-18653690D01*
X27665973Y-18672691D01*
X27750475Y-18725788D01*
X27920745Y-18785368D01*
X27920750Y-18785369D01*
X28099996Y-18805565D01*
X28100000Y-18805565D01*
X28100002Y-18805565D01*
X28129449Y-18802246D01*
X28164610Y-18798285D01*
X28233432Y-18810339D01*
X28284811Y-18857688D01*
X28302436Y-18925298D01*
X28301714Y-18935388D01*
X28294435Y-18999995D01*
X28294435Y-19000003D01*
X28314630Y-19179249D01*
X28314633Y-19179262D01*
X28374209Y-19349520D01*
X28427309Y-19434029D01*
X28446309Y-19501266D01*
X28427309Y-19565971D01*
X28374209Y-19650479D01*
X28314633Y-19820737D01*
X28314631Y-19820747D01*
X28294435Y-19999996D01*
X28294435Y-20000003D01*
X28314630Y-20179249D01*
X28314631Y-20179254D01*
X28374211Y-20349523D01*
X28458726Y-20484027D01*
X28470184Y-20502262D01*
X28597738Y-20629816D01*
X28750478Y-20725789D01*
X28826451Y-20752373D01*
X28920745Y-20785368D01*
X28920750Y-20785369D01*
X29099996Y-20805565D01*
X29100000Y-20805565D01*
X29100004Y-20805565D01*
X29279249Y-20785369D01*
X29279252Y-20785368D01*
X29279255Y-20785368D01*
X29449522Y-20725789D01*
X29534027Y-20672691D01*
X29601264Y-20653690D01*
X29665973Y-20672691D01*
X29750475Y-20725788D01*
X29920745Y-20785368D01*
X29920750Y-20785369D01*
X30099996Y-20805565D01*
X30100000Y-20805565D01*
X30100001Y-20805565D01*
X30112545Y-20804151D01*
X30176022Y-20796999D01*
X30244843Y-20809053D01*
X30296223Y-20856402D01*
X30313848Y-20924012D01*
X30313126Y-20934102D01*
X30294435Y-21099996D01*
X30294435Y-21100003D01*
X30314630Y-21279249D01*
X30314631Y-21279254D01*
X30374211Y-21449523D01*
X30424662Y-21529815D01*
X30470184Y-21602262D01*
X30597738Y-21729816D01*
X30750478Y-21825789D01*
X30920745Y-21885368D01*
X30920750Y-21885369D01*
X31099996Y-21905565D01*
X31100000Y-21905565D01*
X31100002Y-21905565D01*
X31129449Y-21902246D01*
X31164610Y-21898285D01*
X31233432Y-21910339D01*
X31284811Y-21957688D01*
X31302436Y-22025298D01*
X31301714Y-22035388D01*
X31294435Y-22099995D01*
X31294435Y-22100003D01*
X31314630Y-22279249D01*
X31314631Y-22279254D01*
X31374211Y-22449523D01*
X31428677Y-22536204D01*
X31470184Y-22602262D01*
X31597738Y-22729816D01*
X31750478Y-22825789D01*
X31913855Y-22882957D01*
X31920745Y-22885368D01*
X31920750Y-22885369D01*
X32099996Y-22905565D01*
X32100000Y-22905565D01*
X32100004Y-22905565D01*
X32279249Y-22885369D01*
X32279252Y-22885368D01*
X32279255Y-22885368D01*
X32449522Y-22825789D01*
X32602262Y-22729816D01*
X32729816Y-22602262D01*
X32825789Y-22449522D01*
X32885368Y-22279255D01*
X32905565Y-22100000D01*
X32905564Y-22099995D01*
X32885369Y-21920750D01*
X32885368Y-21920745D01*
X32825788Y-21750475D01*
X32772691Y-21665973D01*
X32753690Y-21598736D01*
X32772691Y-21534027D01*
X32825788Y-21449524D01*
X32825789Y-21449522D01*
X32885368Y-21279255D01*
X32905565Y-21100000D01*
X32885736Y-20924012D01*
X32885369Y-20920750D01*
X32885368Y-20920745D01*
X32825788Y-20750475D01*
X32764973Y-20653690D01*
X32741272Y-20615970D01*
X32722272Y-20548736D01*
X32741272Y-20484029D01*
X32825789Y-20349522D01*
X32885368Y-20179255D01*
X32905565Y-20000000D01*
X32905138Y-19996206D01*
X32885369Y-19820747D01*
X32885368Y-19820745D01*
X32825788Y-19650475D01*
X32772691Y-19565973D01*
X32753690Y-19498736D01*
X32772691Y-19434027D01*
X32825788Y-19349524D01*
X32825789Y-19349522D01*
X32885368Y-19179255D01*
X32905565Y-19000000D01*
X32905564Y-18999995D01*
X32885369Y-18820750D01*
X32885368Y-18820745D01*
X32825788Y-18650475D01*
X32772691Y-18565973D01*
X32753690Y-18498736D01*
X32772691Y-18434027D01*
X32825788Y-18349524D01*
X32885368Y-18179254D01*
X32885369Y-18179249D01*
X32905565Y-18000003D01*
X32905565Y-17999997D01*
X32898285Y-17935389D01*
X32910339Y-17866567D01*
X32957688Y-17815188D01*
X33025298Y-17797563D01*
X33035385Y-17798284D01*
X33061857Y-17801267D01*
X33099998Y-17805565D01*
X33100000Y-17805565D01*
X33100004Y-17805565D01*
X33279249Y-17785369D01*
X33279252Y-17785368D01*
X33279255Y-17785368D01*
X33449522Y-17725789D01*
X33534027Y-17672691D01*
X33601264Y-17653690D01*
X33665973Y-17672691D01*
X33750475Y-17725788D01*
X33920745Y-17785368D01*
X33920750Y-17785369D01*
X34099996Y-17805565D01*
X34100000Y-17805565D01*
X34100004Y-17805565D01*
X34279249Y-17785369D01*
X34279252Y-17785368D01*
X34279255Y-17785368D01*
X34449522Y-17725789D01*
X34534027Y-17672691D01*
X34601264Y-17653690D01*
X34665973Y-17672691D01*
X34750475Y-17725788D01*
X34920745Y-17785368D01*
X34920750Y-17785369D01*
X35099996Y-17805565D01*
X35100000Y-17805565D01*
X35100004Y-17805565D01*
X35279249Y-17785369D01*
X35279252Y-17785368D01*
X35279255Y-17785368D01*
X35449522Y-17725789D01*
X35534027Y-17672691D01*
X35601264Y-17653690D01*
X35665973Y-17672691D01*
X35750475Y-17725788D01*
X35920745Y-17785368D01*
X35920750Y-17785369D01*
X36099996Y-17805565D01*
X36100000Y-17805565D01*
X36100004Y-17805565D01*
X36279249Y-17785369D01*
X36279252Y-17785368D01*
X36279255Y-17785368D01*
X36449522Y-17725789D01*
X36602262Y-17629816D01*
X36729816Y-17502262D01*
X36825789Y-17349522D01*
X36885368Y-17179255D01*
X36905565Y-17000000D01*
X36885368Y-16820745D01*
X36825789Y-16650478D01*
X36729816Y-16497738D01*
X36602262Y-16370184D01*
X36534027Y-16327309D01*
X36449523Y-16274211D01*
X36279254Y-16214631D01*
X36279249Y-16214630D01*
X36100004Y-16194435D01*
X36099996Y-16194435D01*
X35920750Y-16214630D01*
X35920737Y-16214633D01*
X35750479Y-16274209D01*
X35665971Y-16327309D01*
X35598734Y-16346309D01*
X35534029Y-16327309D01*
X35449520Y-16274209D01*
X35279262Y-16214633D01*
X35279249Y-16214630D01*
X35100004Y-16194435D01*
X35099996Y-16194435D01*
X34920750Y-16214630D01*
X34920737Y-16214633D01*
X34750479Y-16274209D01*
X34665971Y-16327309D01*
X34598734Y-16346309D01*
X34534029Y-16327309D01*
X34449520Y-16274209D01*
X34279262Y-16214633D01*
X34279249Y-16214630D01*
X34100004Y-16194435D01*
X34099996Y-16194435D01*
X33920750Y-16214630D01*
X33920737Y-16214633D01*
X33750479Y-16274209D01*
X33665971Y-16327309D01*
X33598734Y-16346309D01*
X33534029Y-16327309D01*
X33449520Y-16274209D01*
X33279262Y-16214633D01*
X33279249Y-16214630D01*
X33100004Y-16194435D01*
X33099996Y-16194435D01*
X32920750Y-16214630D01*
X32920737Y-16214633D01*
X32750479Y-16274209D01*
X32665971Y-16327309D01*
X32598734Y-16346309D01*
X32534029Y-16327309D01*
X32449520Y-16274209D01*
X32279262Y-16214633D01*
X32279249Y-16214630D01*
X32100004Y-16194435D01*
X32099996Y-16194435D01*
X31920750Y-16214630D01*
X31920737Y-16214633D01*
X31750479Y-16274209D01*
X31665971Y-16327309D01*
X31598734Y-16346309D01*
X31534029Y-16327309D01*
X31449520Y-16274209D01*
X31279262Y-16214633D01*
X31279249Y-16214630D01*
X31100004Y-16194435D01*
X31099996Y-16194435D01*
X30920750Y-16214630D01*
X30920737Y-16214633D01*
X30750479Y-16274209D01*
X30665971Y-16327309D01*
X30598734Y-16346309D01*
X30534029Y-16327309D01*
X30449520Y-16274209D01*
X30279262Y-16214633D01*
X30279249Y-16214630D01*
X30100004Y-16194435D01*
X30099996Y-16194435D01*
X29920750Y-16214630D01*
X29920737Y-16214633D01*
X29750479Y-16274209D01*
X29665971Y-16327309D01*
X29598734Y-16346309D01*
X29534029Y-16327309D01*
X29449520Y-16274209D01*
X29279262Y-16214633D01*
X29279249Y-16214630D01*
X29100004Y-16194435D01*
X29099996Y-16194435D01*
X28920750Y-16214630D01*
X28920737Y-16214633D01*
X28750479Y-16274209D01*
X28665971Y-16327309D01*
X28598734Y-16346309D01*
X28534029Y-16327309D01*
X28449520Y-16274209D01*
X28279262Y-16214633D01*
X28279249Y-16214630D01*
X28100004Y-16194435D01*
X28099996Y-16194435D01*
X27920750Y-16214630D01*
X27920737Y-16214633D01*
X27750479Y-16274209D01*
X27665971Y-16327309D01*
X27598734Y-16346309D01*
X27534029Y-16327309D01*
X27449520Y-16274209D01*
X27279262Y-16214633D01*
X27279249Y-16214630D01*
X27100004Y-16194435D01*
X27099996Y-16194435D01*
X26920750Y-16214630D01*
X26920737Y-16214633D01*
X26750479Y-16274209D01*
X26665971Y-16327309D01*
X26598734Y-16346309D01*
X26534029Y-16327309D01*
X26449520Y-16274209D01*
X26279262Y-16214633D01*
X26279249Y-16214630D01*
X26100004Y-16194435D01*
X26099996Y-16194435D01*
X25920750Y-16214630D01*
X25920745Y-16214631D01*
X25750476Y-16274211D01*
X25597737Y-16370184D01*
X25470184Y-16497737D01*
X25374211Y-16650476D01*
X25314631Y-16820745D01*
X25314630Y-16820750D01*
X25294435Y-16999996D01*
X25294435Y-17000003D01*
X25314630Y-17179249D01*
X25314633Y-17179262D01*
X25374209Y-17349520D01*
X25427309Y-17434029D01*
X25446309Y-17501266D01*
X25427309Y-17565971D01*
X25374209Y-17650479D01*
X25314633Y-17820737D01*
X25314630Y-17820750D01*
X25294435Y-17999996D01*
X25294435Y-18000003D01*
X20150499Y-18000003D01*
X20150499Y-17852129D01*
X20150498Y-17852123D01*
X20147124Y-17820737D01*
X20144091Y-17792517D01*
X20093796Y-17657669D01*
X20093795Y-17657668D01*
X20093793Y-17657664D01*
X20007547Y-17542455D01*
X20007544Y-17542452D01*
X19892335Y-17456206D01*
X19892328Y-17456202D01*
X19757482Y-17405908D01*
X19757483Y-17405908D01*
X19697883Y-17399501D01*
X19697881Y-17399500D01*
X19697873Y-17399500D01*
X19697865Y-17399500D01*
X16474500Y-17399500D01*
X16407461Y-17379815D01*
X16361706Y-17327011D01*
X16350500Y-17275500D01*
X16350500Y-15624500D01*
X16370185Y-15557461D01*
X16422989Y-15511706D01*
X16474500Y-15500500D01*
X43475500Y-15500500D01*
X43542539Y-15520185D01*
G37*
G04 #@! TD.AperFunction*
G04 #@! TA.AperFunction,Conductor*
G36*
X19900593Y-21958079D02*
G01*
X19916013Y-21976867D01*
X19917048Y-21978416D01*
X19917052Y-21978421D01*
X20821584Y-22882952D01*
X20821590Y-22882957D01*
X20855426Y-22905564D01*
X20855428Y-22905565D01*
X20944505Y-22965084D01*
X20944507Y-22965085D01*
X20944511Y-22965087D01*
X20972952Y-22976867D01*
X21027356Y-23020707D01*
X21049421Y-23087001D01*
X21049500Y-23091428D01*
X21049500Y-24027870D01*
X21049501Y-24027876D01*
X21055908Y-24087483D01*
X21070710Y-24127167D01*
X21075694Y-24196859D01*
X21042209Y-24258182D01*
X20980886Y-24291666D01*
X20954528Y-24294500D01*
X20245472Y-24294500D01*
X20178433Y-24274815D01*
X20132678Y-24222011D01*
X20122734Y-24152853D01*
X20129290Y-24127167D01*
X20144091Y-24087482D01*
X20144592Y-24082819D01*
X20150500Y-24027873D01*
X20150499Y-22932128D01*
X20144091Y-22872517D01*
X20126662Y-22825788D01*
X20093797Y-22737671D01*
X20093793Y-22737664D01*
X20007547Y-22622455D01*
X20007544Y-22622452D01*
X19892335Y-22536206D01*
X19892328Y-22536202D01*
X19757482Y-22485908D01*
X19757483Y-22485908D01*
X19697883Y-22479501D01*
X19697881Y-22479500D01*
X19697873Y-22479500D01*
X19697865Y-22479500D01*
X16474500Y-22479500D01*
X16407461Y-22459815D01*
X16361706Y-22407011D01*
X16350500Y-22355500D01*
X16350500Y-22064499D01*
X16370185Y-21997460D01*
X16422989Y-21951705D01*
X16474495Y-21940499D01*
X19697872Y-21940499D01*
X19757483Y-21934091D01*
X19769578Y-21929580D01*
X19839270Y-21924595D01*
X19900593Y-21958079D01*
G37*
G04 #@! TD.AperFunction*
G04 #@! TA.AperFunction,Conductor*
G36*
X27643039Y-24819685D02*
G01*
X27688794Y-24872489D01*
X27700000Y-24924000D01*
X27700000Y-27076000D01*
X27680315Y-27143039D01*
X27627511Y-27188794D01*
X27576000Y-27200000D01*
X16474500Y-27200000D01*
X16407461Y-27180315D01*
X16361706Y-27127511D01*
X16350500Y-27076000D01*
X16350500Y-24924000D01*
X16370185Y-24856961D01*
X16422989Y-24811206D01*
X16474500Y-24800000D01*
X27576000Y-24800000D01*
X27643039Y-24819685D01*
G37*
G04 #@! TD.AperFunction*
G04 #@! TA.AperFunction,Conductor*
G36*
X27643039Y-27719685D02*
G01*
X27688794Y-27772489D01*
X27700000Y-27824000D01*
X27700000Y-30426000D01*
X27680315Y-30493039D01*
X27627511Y-30538794D01*
X27576000Y-30550000D01*
X25301626Y-30550000D01*
X25234587Y-30530315D01*
X25188832Y-30477511D01*
X25185444Y-30469333D01*
X25143797Y-30357671D01*
X25143793Y-30357664D01*
X25057547Y-30242455D01*
X25057544Y-30242452D01*
X24942335Y-30156206D01*
X24942328Y-30156202D01*
X24807482Y-30105908D01*
X24807483Y-30105908D01*
X24747883Y-30099501D01*
X24747881Y-30099500D01*
X24747873Y-30099500D01*
X24747864Y-30099500D01*
X21502129Y-30099500D01*
X21502123Y-30099501D01*
X21442516Y-30105908D01*
X21307671Y-30156202D01*
X21307664Y-30156206D01*
X21192455Y-30242452D01*
X21192452Y-30242455D01*
X21106206Y-30357664D01*
X21106202Y-30357671D01*
X21064556Y-30469333D01*
X21022685Y-30525267D01*
X20957221Y-30549684D01*
X20948374Y-30550000D01*
X20251626Y-30550000D01*
X20184587Y-30530315D01*
X20138832Y-30477511D01*
X20135444Y-30469333D01*
X20093797Y-30357671D01*
X20093793Y-30357664D01*
X20007547Y-30242455D01*
X20007544Y-30242452D01*
X19892335Y-30156206D01*
X19892328Y-30156202D01*
X19757482Y-30105908D01*
X19757483Y-30105908D01*
X19697883Y-30099501D01*
X19697881Y-30099500D01*
X19697873Y-30099500D01*
X19697865Y-30099500D01*
X16474500Y-30099500D01*
X16407461Y-30079815D01*
X16361706Y-30027011D01*
X16350500Y-29975500D01*
X16350500Y-27824000D01*
X16370185Y-27756961D01*
X16422989Y-27711206D01*
X16474500Y-27700000D01*
X27576000Y-27700000D01*
X27643039Y-27719685D01*
G37*
G04 #@! TD.AperFunction*
M02*
