G04 #@! TF.GenerationSoftware,KiCad,Pcbnew,8.0.1*
G04 #@! TF.CreationDate,2025-03-14T15:20:11-04:00*
G04 #@! TF.ProjectId,Relay Stick Fix,52656c61-7920-4537-9469-636b20466978,rev?*
G04 #@! TF.SameCoordinates,Original*
G04 #@! TF.FileFunction,Soldermask,Top*
G04 #@! TF.FilePolarity,Negative*
%FSLAX46Y46*%
G04 Gerber Fmt 4.6, Leading zero omitted, Abs format (unit mm)*
G04 Created by KiCad (PCBNEW 8.0.1) date 2025-03-14 15:20:11*
%MOMM*%
%LPD*%
G01*
G04 APERTURE LIST*
G04 Aperture macros list*
%AMRoundRect*
0 Rectangle with rounded corners*
0 $1 Rounding radius*
0 $2 $3 $4 $5 $6 $7 $8 $9 X,Y pos of 4 corners*
0 Add a 4 corners polygon primitive as box body*
4,1,4,$2,$3,$4,$5,$6,$7,$8,$9,$2,$3,0*
0 Add four circle primitives for the rounded corners*
1,1,$1+$1,$2,$3*
1,1,$1+$1,$4,$5*
1,1,$1+$1,$6,$7*
1,1,$1+$1,$8,$9*
0 Add four rect primitives between the rounded corners*
20,1,$1+$1,$2,$3,$4,$5,0*
20,1,$1+$1,$4,$5,$6,$7,0*
20,1,$1+$1,$6,$7,$8,$9,0*
20,1,$1+$1,$8,$9,$2,$3,0*%
G04 Aperture macros list end*
%ADD10RoundRect,0.150000X0.150000X-0.512500X0.150000X0.512500X-0.150000X0.512500X-0.150000X-0.512500X0*%
%ADD11C,1.000000*%
%ADD12RoundRect,0.250000X0.625000X-0.400000X0.625000X0.400000X-0.625000X0.400000X-0.625000X-0.400000X0*%
%ADD13RoundRect,0.250000X-0.625000X0.400000X-0.625000X-0.400000X0.625000X-0.400000X0.625000X0.400000X0*%
%ADD14RoundRect,0.250000X1.425000X-0.362500X1.425000X0.362500X-1.425000X0.362500X-1.425000X-0.362500X0*%
%ADD15RoundRect,0.250001X-0.624999X0.462499X-0.624999X-0.462499X0.624999X-0.462499X0.624999X0.462499X0*%
%ADD16RoundRect,0.150000X0.825000X0.150000X-0.825000X0.150000X-0.825000X-0.150000X0.825000X-0.150000X0*%
%ADD17R,2.290000X3.000000*%
%ADD18RoundRect,0.102500X0.257500X0.102500X-0.257500X0.102500X-0.257500X-0.102500X0.257500X-0.102500X0*%
%ADD19R,0.510000X0.585000*%
%ADD20R,3.990000X3.960000*%
%ADD21R,0.410000X0.470000*%
%ADD22RoundRect,0.250000X0.650000X-0.412500X0.650000X0.412500X-0.650000X0.412500X-0.650000X-0.412500X0*%
%ADD23C,5.600000*%
%ADD24RoundRect,0.250000X-1.100000X0.412500X-1.100000X-0.412500X1.100000X-0.412500X1.100000X0.412500X0*%
G04 APERTURE END LIST*
D10*
X18900000Y-38887500D03*
X19850000Y-38887500D03*
X20800000Y-38887500D03*
X20800000Y-36612500D03*
X18900000Y-36612500D03*
D11*
X26700000Y-25400000D03*
D12*
X21350000Y-28562500D03*
X21350000Y-25462500D03*
D13*
X33050000Y-35000000D03*
X33050000Y-38100000D03*
D14*
X29722500Y-28762500D03*
X29722500Y-22837500D03*
D15*
X18350000Y-30775000D03*
X18350000Y-33750000D03*
D16*
X30105000Y-38680000D03*
X30105000Y-37410000D03*
X30105000Y-36140000D03*
X30105000Y-34870000D03*
X25155000Y-34870000D03*
X25155000Y-36140000D03*
X25155000Y-37410000D03*
X25155000Y-38680000D03*
D17*
X27630000Y-36775000D03*
D18*
X38922500Y-22600000D03*
X38922500Y-21330000D03*
X38922500Y-20060000D03*
X38922500Y-18790000D03*
D19*
X36207500Y-22967500D03*
X36207500Y-18422500D03*
D20*
X35127500Y-20695000D03*
D21*
X33337500Y-22910000D03*
X33337500Y-18480000D03*
D22*
X35850000Y-38150000D03*
X35850000Y-35025000D03*
D15*
X21350000Y-30775000D03*
X21350000Y-33750000D03*
D11*
X26700000Y-29700000D03*
D23*
X35617000Y-30151000D03*
D12*
X18350000Y-28562500D03*
X18350000Y-25462500D03*
X42100000Y-38150000D03*
X42100000Y-35050000D03*
D24*
X39100000Y-35025000D03*
X39100000Y-38150000D03*
D11*
X40000000Y-29000000D03*
M02*
