G04 #@! TF.GenerationSoftware,KiCad,Pcbnew,8.0.1*
G04 #@! TF.CreationDate,2025-03-14T15:20:11-04:00*
G04 #@! TF.ProjectId,Relay Stick Fix,52656c61-7920-4537-9469-636b20466978,rev?*
G04 #@! TF.SameCoordinates,Original*
G04 #@! TF.FileFunction,Legend,Top*
G04 #@! TF.FilePolarity,Positive*
%FSLAX46Y46*%
G04 Gerber Fmt 4.6, Leading zero omitted, Abs format (unit mm)*
G04 Created by KiCad (PCBNEW 8.0.1) date 2025-03-14 15:20:11*
%MOMM*%
%LPD*%
G01*
G04 APERTURE LIST*
G04 Aperture macros list*
%AMRoundRect*
0 Rectangle with rounded corners*
0 $1 Rounding radius*
0 $2 $3 $4 $5 $6 $7 $8 $9 X,Y pos of 4 corners*
0 Add a 4 corners polygon primitive as box body*
4,1,4,$2,$3,$4,$5,$6,$7,$8,$9,$2,$3,0*
0 Add four circle primitives for the rounded corners*
1,1,$1+$1,$2,$3*
1,1,$1+$1,$4,$5*
1,1,$1+$1,$6,$7*
1,1,$1+$1,$8,$9*
0 Add four rect primitives between the rounded corners*
20,1,$1+$1,$2,$3,$4,$5,0*
20,1,$1+$1,$4,$5,$6,$7,0*
20,1,$1+$1,$6,$7,$8,$9,0*
20,1,$1+$1,$8,$9,$2,$3,0*%
G04 Aperture macros list end*
%ADD10C,0.100000*%
%ADD11C,0.150000*%
%ADD12C,0.120000*%
%ADD13RoundRect,0.150000X0.150000X-0.512500X0.150000X0.512500X-0.150000X0.512500X-0.150000X-0.512500X0*%
%ADD14C,1.000000*%
%ADD15RoundRect,0.250000X0.625000X-0.400000X0.625000X0.400000X-0.625000X0.400000X-0.625000X-0.400000X0*%
%ADD16RoundRect,0.250000X-0.625000X0.400000X-0.625000X-0.400000X0.625000X-0.400000X0.625000X0.400000X0*%
%ADD17RoundRect,0.250000X1.425000X-0.362500X1.425000X0.362500X-1.425000X0.362500X-1.425000X-0.362500X0*%
%ADD18RoundRect,0.250001X-0.624999X0.462499X-0.624999X-0.462499X0.624999X-0.462499X0.624999X0.462499X0*%
%ADD19RoundRect,0.150000X0.825000X0.150000X-0.825000X0.150000X-0.825000X-0.150000X0.825000X-0.150000X0*%
%ADD20R,2.290000X3.000000*%
%ADD21RoundRect,0.102500X0.257500X0.102500X-0.257500X0.102500X-0.257500X-0.102500X0.257500X-0.102500X0*%
%ADD22R,0.510000X0.585000*%
%ADD23R,3.990000X3.960000*%
%ADD24R,0.410000X0.470000*%
%ADD25RoundRect,0.250000X0.650000X-0.412500X0.650000X0.412500X-0.650000X0.412500X-0.650000X-0.412500X0*%
%ADD26C,5.600000*%
%ADD27RoundRect,0.250000X-1.100000X0.412500X-1.100000X-0.412500X1.100000X-0.412500X1.100000X0.412500X0*%
G04 APERTURE END LIST*
D10*
X17256265Y-17994968D02*
X17399122Y-18042587D01*
X17399122Y-18042587D02*
X17637217Y-18042587D01*
X17637217Y-18042587D02*
X17732455Y-17994968D01*
X17732455Y-17994968D02*
X17780074Y-17947348D01*
X17780074Y-17947348D02*
X17827693Y-17852110D01*
X17827693Y-17852110D02*
X17827693Y-17756872D01*
X17827693Y-17756872D02*
X17780074Y-17661634D01*
X17780074Y-17661634D02*
X17732455Y-17614015D01*
X17732455Y-17614015D02*
X17637217Y-17566396D01*
X17637217Y-17566396D02*
X17446741Y-17518777D01*
X17446741Y-17518777D02*
X17351503Y-17471158D01*
X17351503Y-17471158D02*
X17303884Y-17423539D01*
X17303884Y-17423539D02*
X17256265Y-17328301D01*
X17256265Y-17328301D02*
X17256265Y-17233063D01*
X17256265Y-17233063D02*
X17303884Y-17137825D01*
X17303884Y-17137825D02*
X17351503Y-17090206D01*
X17351503Y-17090206D02*
X17446741Y-17042587D01*
X17446741Y-17042587D02*
X17684836Y-17042587D01*
X17684836Y-17042587D02*
X17827693Y-17090206D01*
X18256265Y-18042587D02*
X18256265Y-17042587D01*
X18256265Y-17042587D02*
X18589598Y-17756872D01*
X18589598Y-17756872D02*
X18922931Y-17042587D01*
X18922931Y-17042587D02*
X18922931Y-18042587D01*
X19732455Y-17518777D02*
X19875312Y-17566396D01*
X19875312Y-17566396D02*
X19922931Y-17614015D01*
X19922931Y-17614015D02*
X19970550Y-17709253D01*
X19970550Y-17709253D02*
X19970550Y-17852110D01*
X19970550Y-17852110D02*
X19922931Y-17947348D01*
X19922931Y-17947348D02*
X19875312Y-17994968D01*
X19875312Y-17994968D02*
X19780074Y-18042587D01*
X19780074Y-18042587D02*
X19399122Y-18042587D01*
X19399122Y-18042587D02*
X19399122Y-17042587D01*
X19399122Y-17042587D02*
X19732455Y-17042587D01*
X19732455Y-17042587D02*
X19827693Y-17090206D01*
X19827693Y-17090206D02*
X19875312Y-17137825D01*
X19875312Y-17137825D02*
X19922931Y-17233063D01*
X19922931Y-17233063D02*
X19922931Y-17328301D01*
X19922931Y-17328301D02*
X19875312Y-17423539D01*
X19875312Y-17423539D02*
X19827693Y-17471158D01*
X19827693Y-17471158D02*
X19732455Y-17518777D01*
X19732455Y-17518777D02*
X19399122Y-17518777D01*
X20399122Y-17661634D02*
X21161027Y-17661634D01*
X21494360Y-17042587D02*
X21827693Y-18042587D01*
X21827693Y-18042587D02*
X22161026Y-17042587D01*
X22684836Y-17042587D02*
X22780074Y-17042587D01*
X22780074Y-17042587D02*
X22875312Y-17090206D01*
X22875312Y-17090206D02*
X22922931Y-17137825D01*
X22922931Y-17137825D02*
X22970550Y-17233063D01*
X22970550Y-17233063D02*
X23018169Y-17423539D01*
X23018169Y-17423539D02*
X23018169Y-17661634D01*
X23018169Y-17661634D02*
X22970550Y-17852110D01*
X22970550Y-17852110D02*
X22922931Y-17947348D01*
X22922931Y-17947348D02*
X22875312Y-17994968D01*
X22875312Y-17994968D02*
X22780074Y-18042587D01*
X22780074Y-18042587D02*
X22684836Y-18042587D01*
X22684836Y-18042587D02*
X22589598Y-17994968D01*
X22589598Y-17994968D02*
X22541979Y-17947348D01*
X22541979Y-17947348D02*
X22494360Y-17852110D01*
X22494360Y-17852110D02*
X22446741Y-17661634D01*
X22446741Y-17661634D02*
X22446741Y-17423539D01*
X22446741Y-17423539D02*
X22494360Y-17233063D01*
X22494360Y-17233063D02*
X22541979Y-17137825D01*
X22541979Y-17137825D02*
X22589598Y-17090206D01*
X22589598Y-17090206D02*
X22684836Y-17042587D01*
X23446741Y-17947348D02*
X23494360Y-17994968D01*
X23494360Y-17994968D02*
X23446741Y-18042587D01*
X23446741Y-18042587D02*
X23399122Y-17994968D01*
X23399122Y-17994968D02*
X23446741Y-17947348D01*
X23446741Y-17947348D02*
X23446741Y-18042587D01*
X23827693Y-17042587D02*
X24446740Y-17042587D01*
X24446740Y-17042587D02*
X24113407Y-17423539D01*
X24113407Y-17423539D02*
X24256264Y-17423539D01*
X24256264Y-17423539D02*
X24351502Y-17471158D01*
X24351502Y-17471158D02*
X24399121Y-17518777D01*
X24399121Y-17518777D02*
X24446740Y-17614015D01*
X24446740Y-17614015D02*
X24446740Y-17852110D01*
X24446740Y-17852110D02*
X24399121Y-17947348D01*
X24399121Y-17947348D02*
X24351502Y-17994968D01*
X24351502Y-17994968D02*
X24256264Y-18042587D01*
X24256264Y-18042587D02*
X23970550Y-18042587D01*
X23970550Y-18042587D02*
X23875312Y-17994968D01*
X23875312Y-17994968D02*
X23827693Y-17947348D01*
X17875312Y-19652531D02*
X17541979Y-19176340D01*
X17303884Y-19652531D02*
X17303884Y-18652531D01*
X17303884Y-18652531D02*
X17684836Y-18652531D01*
X17684836Y-18652531D02*
X17780074Y-18700150D01*
X17780074Y-18700150D02*
X17827693Y-18747769D01*
X17827693Y-18747769D02*
X17875312Y-18843007D01*
X17875312Y-18843007D02*
X17875312Y-18985864D01*
X17875312Y-18985864D02*
X17827693Y-19081102D01*
X17827693Y-19081102D02*
X17780074Y-19128721D01*
X17780074Y-19128721D02*
X17684836Y-19176340D01*
X17684836Y-19176340D02*
X17303884Y-19176340D01*
X18684836Y-19604912D02*
X18589598Y-19652531D01*
X18589598Y-19652531D02*
X18399122Y-19652531D01*
X18399122Y-19652531D02*
X18303884Y-19604912D01*
X18303884Y-19604912D02*
X18256265Y-19509673D01*
X18256265Y-19509673D02*
X18256265Y-19128721D01*
X18256265Y-19128721D02*
X18303884Y-19033483D01*
X18303884Y-19033483D02*
X18399122Y-18985864D01*
X18399122Y-18985864D02*
X18589598Y-18985864D01*
X18589598Y-18985864D02*
X18684836Y-19033483D01*
X18684836Y-19033483D02*
X18732455Y-19128721D01*
X18732455Y-19128721D02*
X18732455Y-19223959D01*
X18732455Y-19223959D02*
X18256265Y-19319197D01*
X19303884Y-19652531D02*
X19208646Y-19604912D01*
X19208646Y-19604912D02*
X19161027Y-19509673D01*
X19161027Y-19509673D02*
X19161027Y-18652531D01*
X20113408Y-19652531D02*
X20113408Y-19128721D01*
X20113408Y-19128721D02*
X20065789Y-19033483D01*
X20065789Y-19033483D02*
X19970551Y-18985864D01*
X19970551Y-18985864D02*
X19780075Y-18985864D01*
X19780075Y-18985864D02*
X19684837Y-19033483D01*
X20113408Y-19604912D02*
X20018170Y-19652531D01*
X20018170Y-19652531D02*
X19780075Y-19652531D01*
X19780075Y-19652531D02*
X19684837Y-19604912D01*
X19684837Y-19604912D02*
X19637218Y-19509673D01*
X19637218Y-19509673D02*
X19637218Y-19414435D01*
X19637218Y-19414435D02*
X19684837Y-19319197D01*
X19684837Y-19319197D02*
X19780075Y-19271578D01*
X19780075Y-19271578D02*
X20018170Y-19271578D01*
X20018170Y-19271578D02*
X20113408Y-19223959D01*
X20494361Y-18985864D02*
X20732456Y-19652531D01*
X20970551Y-18985864D02*
X20732456Y-19652531D01*
X20732456Y-19652531D02*
X20637218Y-19890626D01*
X20637218Y-19890626D02*
X20589599Y-19938245D01*
X20589599Y-19938245D02*
X20494361Y-19985864D01*
X22065790Y-19604912D02*
X22208647Y-19652531D01*
X22208647Y-19652531D02*
X22446742Y-19652531D01*
X22446742Y-19652531D02*
X22541980Y-19604912D01*
X22541980Y-19604912D02*
X22589599Y-19557292D01*
X22589599Y-19557292D02*
X22637218Y-19462054D01*
X22637218Y-19462054D02*
X22637218Y-19366816D01*
X22637218Y-19366816D02*
X22589599Y-19271578D01*
X22589599Y-19271578D02*
X22541980Y-19223959D01*
X22541980Y-19223959D02*
X22446742Y-19176340D01*
X22446742Y-19176340D02*
X22256266Y-19128721D01*
X22256266Y-19128721D02*
X22161028Y-19081102D01*
X22161028Y-19081102D02*
X22113409Y-19033483D01*
X22113409Y-19033483D02*
X22065790Y-18938245D01*
X22065790Y-18938245D02*
X22065790Y-18843007D01*
X22065790Y-18843007D02*
X22113409Y-18747769D01*
X22113409Y-18747769D02*
X22161028Y-18700150D01*
X22161028Y-18700150D02*
X22256266Y-18652531D01*
X22256266Y-18652531D02*
X22494361Y-18652531D01*
X22494361Y-18652531D02*
X22637218Y-18700150D01*
X22922933Y-18985864D02*
X23303885Y-18985864D01*
X23065790Y-18652531D02*
X23065790Y-19509673D01*
X23065790Y-19509673D02*
X23113409Y-19604912D01*
X23113409Y-19604912D02*
X23208647Y-19652531D01*
X23208647Y-19652531D02*
X23303885Y-19652531D01*
X23637219Y-19652531D02*
X23637219Y-18985864D01*
X23637219Y-18652531D02*
X23589600Y-18700150D01*
X23589600Y-18700150D02*
X23637219Y-18747769D01*
X23637219Y-18747769D02*
X23684838Y-18700150D01*
X23684838Y-18700150D02*
X23637219Y-18652531D01*
X23637219Y-18652531D02*
X23637219Y-18747769D01*
X24541980Y-19604912D02*
X24446742Y-19652531D01*
X24446742Y-19652531D02*
X24256266Y-19652531D01*
X24256266Y-19652531D02*
X24161028Y-19604912D01*
X24161028Y-19604912D02*
X24113409Y-19557292D01*
X24113409Y-19557292D02*
X24065790Y-19462054D01*
X24065790Y-19462054D02*
X24065790Y-19176340D01*
X24065790Y-19176340D02*
X24113409Y-19081102D01*
X24113409Y-19081102D02*
X24161028Y-19033483D01*
X24161028Y-19033483D02*
X24256266Y-18985864D01*
X24256266Y-18985864D02*
X24446742Y-18985864D01*
X24446742Y-18985864D02*
X24541980Y-19033483D01*
X24970552Y-19652531D02*
X24970552Y-18652531D01*
X25065790Y-19271578D02*
X25351504Y-19652531D01*
X25351504Y-18985864D02*
X24970552Y-19366816D01*
X26875314Y-19128721D02*
X26541981Y-19128721D01*
X26541981Y-19652531D02*
X26541981Y-18652531D01*
X26541981Y-18652531D02*
X27018171Y-18652531D01*
X27399124Y-19652531D02*
X27399124Y-18985864D01*
X27399124Y-18652531D02*
X27351505Y-18700150D01*
X27351505Y-18700150D02*
X27399124Y-18747769D01*
X27399124Y-18747769D02*
X27446743Y-18700150D01*
X27446743Y-18700150D02*
X27399124Y-18652531D01*
X27399124Y-18652531D02*
X27399124Y-18747769D01*
X27780076Y-19652531D02*
X28303885Y-18985864D01*
X27780076Y-18985864D02*
X28303885Y-19652531D01*
X17303884Y-21262475D02*
X17303884Y-20262475D01*
X17303884Y-20262475D02*
X17684836Y-20262475D01*
X17684836Y-20262475D02*
X17780074Y-20310094D01*
X17780074Y-20310094D02*
X17827693Y-20357713D01*
X17827693Y-20357713D02*
X17875312Y-20452951D01*
X17875312Y-20452951D02*
X17875312Y-20595808D01*
X17875312Y-20595808D02*
X17827693Y-20691046D01*
X17827693Y-20691046D02*
X17780074Y-20738665D01*
X17780074Y-20738665D02*
X17684836Y-20786284D01*
X17684836Y-20786284D02*
X17303884Y-20786284D01*
X18256265Y-21214856D02*
X18399122Y-21262475D01*
X18399122Y-21262475D02*
X18637217Y-21262475D01*
X18637217Y-21262475D02*
X18732455Y-21214856D01*
X18732455Y-21214856D02*
X18780074Y-21167236D01*
X18780074Y-21167236D02*
X18827693Y-21071998D01*
X18827693Y-21071998D02*
X18827693Y-20976760D01*
X18827693Y-20976760D02*
X18780074Y-20881522D01*
X18780074Y-20881522D02*
X18732455Y-20833903D01*
X18732455Y-20833903D02*
X18637217Y-20786284D01*
X18637217Y-20786284D02*
X18446741Y-20738665D01*
X18446741Y-20738665D02*
X18351503Y-20691046D01*
X18351503Y-20691046D02*
X18303884Y-20643427D01*
X18303884Y-20643427D02*
X18256265Y-20548189D01*
X18256265Y-20548189D02*
X18256265Y-20452951D01*
X18256265Y-20452951D02*
X18303884Y-20357713D01*
X18303884Y-20357713D02*
X18351503Y-20310094D01*
X18351503Y-20310094D02*
X18446741Y-20262475D01*
X18446741Y-20262475D02*
X18684836Y-20262475D01*
X18684836Y-20262475D02*
X18827693Y-20310094D01*
X19208646Y-20976760D02*
X19684836Y-20976760D01*
X19113408Y-21262475D02*
X19446741Y-20262475D01*
X19446741Y-20262475D02*
X19780074Y-21262475D01*
X20113408Y-20881522D02*
X20875313Y-20881522D01*
X21351503Y-21262475D02*
X21351503Y-20262475D01*
X21351503Y-20262475D02*
X21684836Y-20976760D01*
X21684836Y-20976760D02*
X22018169Y-20262475D01*
X22018169Y-20262475D02*
X22018169Y-21262475D01*
X22684836Y-20262475D02*
X22780074Y-20262475D01*
X22780074Y-20262475D02*
X22875312Y-20310094D01*
X22875312Y-20310094D02*
X22922931Y-20357713D01*
X22922931Y-20357713D02*
X22970550Y-20452951D01*
X22970550Y-20452951D02*
X23018169Y-20643427D01*
X23018169Y-20643427D02*
X23018169Y-20881522D01*
X23018169Y-20881522D02*
X22970550Y-21071998D01*
X22970550Y-21071998D02*
X22922931Y-21167236D01*
X22922931Y-21167236D02*
X22875312Y-21214856D01*
X22875312Y-21214856D02*
X22780074Y-21262475D01*
X22780074Y-21262475D02*
X22684836Y-21262475D01*
X22684836Y-21262475D02*
X22589598Y-21214856D01*
X22589598Y-21214856D02*
X22541979Y-21167236D01*
X22541979Y-21167236D02*
X22494360Y-21071998D01*
X22494360Y-21071998D02*
X22446741Y-20881522D01*
X22446741Y-20881522D02*
X22446741Y-20643427D01*
X22446741Y-20643427D02*
X22494360Y-20452951D01*
X22494360Y-20452951D02*
X22541979Y-20357713D01*
X22541979Y-20357713D02*
X22589598Y-20310094D01*
X22589598Y-20310094D02*
X22684836Y-20262475D01*
X23351503Y-20262475D02*
X24018169Y-20262475D01*
X24018169Y-20262475D02*
X23589598Y-21262475D01*
X24922931Y-21262475D02*
X24351503Y-21262475D01*
X24637217Y-21262475D02*
X24637217Y-20262475D01*
X24637217Y-20262475D02*
X24541979Y-20405332D01*
X24541979Y-20405332D02*
X24446741Y-20500570D01*
X24446741Y-20500570D02*
X24351503Y-20548189D01*
X25351503Y-20881522D02*
X26113408Y-20881522D01*
X27161026Y-21262475D02*
X26827693Y-20786284D01*
X26589598Y-21262475D02*
X26589598Y-20262475D01*
X26589598Y-20262475D02*
X26970550Y-20262475D01*
X26970550Y-20262475D02*
X27065788Y-20310094D01*
X27065788Y-20310094D02*
X27113407Y-20357713D01*
X27113407Y-20357713D02*
X27161026Y-20452951D01*
X27161026Y-20452951D02*
X27161026Y-20595808D01*
X27161026Y-20595808D02*
X27113407Y-20691046D01*
X27113407Y-20691046D02*
X27065788Y-20738665D01*
X27065788Y-20738665D02*
X26970550Y-20786284D01*
X26970550Y-20786284D02*
X26589598Y-20786284D01*
X27970550Y-21214856D02*
X27875312Y-21262475D01*
X27875312Y-21262475D02*
X27684836Y-21262475D01*
X27684836Y-21262475D02*
X27589598Y-21214856D01*
X27589598Y-21214856D02*
X27541979Y-21119617D01*
X27541979Y-21119617D02*
X27541979Y-20738665D01*
X27541979Y-20738665D02*
X27589598Y-20643427D01*
X27589598Y-20643427D02*
X27684836Y-20595808D01*
X27684836Y-20595808D02*
X27875312Y-20595808D01*
X27875312Y-20595808D02*
X27970550Y-20643427D01*
X27970550Y-20643427D02*
X28018169Y-20738665D01*
X28018169Y-20738665D02*
X28018169Y-20833903D01*
X28018169Y-20833903D02*
X27541979Y-20929141D01*
X28351503Y-20595808D02*
X28589598Y-21262475D01*
X28589598Y-21262475D02*
X28827693Y-20595808D01*
X30303884Y-20738665D02*
X30446741Y-20786284D01*
X30446741Y-20786284D02*
X30494360Y-20833903D01*
X30494360Y-20833903D02*
X30541979Y-20929141D01*
X30541979Y-20929141D02*
X30541979Y-21071998D01*
X30541979Y-21071998D02*
X30494360Y-21167236D01*
X30494360Y-21167236D02*
X30446741Y-21214856D01*
X30446741Y-21214856D02*
X30351503Y-21262475D01*
X30351503Y-21262475D02*
X29970551Y-21262475D01*
X29970551Y-21262475D02*
X29970551Y-20262475D01*
X29970551Y-20262475D02*
X30303884Y-20262475D01*
X30303884Y-20262475D02*
X30399122Y-20310094D01*
X30399122Y-20310094D02*
X30446741Y-20357713D01*
X30446741Y-20357713D02*
X30494360Y-20452951D01*
X30494360Y-20452951D02*
X30494360Y-20548189D01*
X30494360Y-20548189D02*
X30446741Y-20643427D01*
X30446741Y-20643427D02*
X30399122Y-20691046D01*
X30399122Y-20691046D02*
X30303884Y-20738665D01*
X30303884Y-20738665D02*
X29970551Y-20738665D01*
X17303884Y-22872419D02*
X17303884Y-21872419D01*
X17303884Y-21872419D02*
X17637217Y-22586704D01*
X17637217Y-22586704D02*
X17970550Y-21872419D01*
X17970550Y-21872419D02*
X17970550Y-22872419D01*
X18875312Y-22872419D02*
X18875312Y-22348609D01*
X18875312Y-22348609D02*
X18827693Y-22253371D01*
X18827693Y-22253371D02*
X18732455Y-22205752D01*
X18732455Y-22205752D02*
X18541979Y-22205752D01*
X18541979Y-22205752D02*
X18446741Y-22253371D01*
X18875312Y-22824800D02*
X18780074Y-22872419D01*
X18780074Y-22872419D02*
X18541979Y-22872419D01*
X18541979Y-22872419D02*
X18446741Y-22824800D01*
X18446741Y-22824800D02*
X18399122Y-22729561D01*
X18399122Y-22729561D02*
X18399122Y-22634323D01*
X18399122Y-22634323D02*
X18446741Y-22539085D01*
X18446741Y-22539085D02*
X18541979Y-22491466D01*
X18541979Y-22491466D02*
X18780074Y-22491466D01*
X18780074Y-22491466D02*
X18875312Y-22443847D01*
X19351503Y-22872419D02*
X19351503Y-22205752D01*
X19351503Y-22396228D02*
X19399122Y-22300990D01*
X19399122Y-22300990D02*
X19446741Y-22253371D01*
X19446741Y-22253371D02*
X19541979Y-22205752D01*
X19541979Y-22205752D02*
X19637217Y-22205752D01*
X20399122Y-22824800D02*
X20303884Y-22872419D01*
X20303884Y-22872419D02*
X20113408Y-22872419D01*
X20113408Y-22872419D02*
X20018170Y-22824800D01*
X20018170Y-22824800D02*
X19970551Y-22777180D01*
X19970551Y-22777180D02*
X19922932Y-22681942D01*
X19922932Y-22681942D02*
X19922932Y-22396228D01*
X19922932Y-22396228D02*
X19970551Y-22300990D01*
X19970551Y-22300990D02*
X20018170Y-22253371D01*
X20018170Y-22253371D02*
X20113408Y-22205752D01*
X20113408Y-22205752D02*
X20303884Y-22205752D01*
X20303884Y-22205752D02*
X20399122Y-22253371D01*
X20827694Y-22872419D02*
X20827694Y-21872419D01*
X21256265Y-22872419D02*
X21256265Y-22348609D01*
X21256265Y-22348609D02*
X21208646Y-22253371D01*
X21208646Y-22253371D02*
X21113408Y-22205752D01*
X21113408Y-22205752D02*
X20970551Y-22205752D01*
X20970551Y-22205752D02*
X20875313Y-22253371D01*
X20875313Y-22253371D02*
X20827694Y-22300990D01*
X22446742Y-21967657D02*
X22494361Y-21920038D01*
X22494361Y-21920038D02*
X22589599Y-21872419D01*
X22589599Y-21872419D02*
X22827694Y-21872419D01*
X22827694Y-21872419D02*
X22922932Y-21920038D01*
X22922932Y-21920038D02*
X22970551Y-21967657D01*
X22970551Y-21967657D02*
X23018170Y-22062895D01*
X23018170Y-22062895D02*
X23018170Y-22158133D01*
X23018170Y-22158133D02*
X22970551Y-22300990D01*
X22970551Y-22300990D02*
X22399123Y-22872419D01*
X22399123Y-22872419D02*
X23018170Y-22872419D01*
X23637218Y-21872419D02*
X23732456Y-21872419D01*
X23732456Y-21872419D02*
X23827694Y-21920038D01*
X23827694Y-21920038D02*
X23875313Y-21967657D01*
X23875313Y-21967657D02*
X23922932Y-22062895D01*
X23922932Y-22062895D02*
X23970551Y-22253371D01*
X23970551Y-22253371D02*
X23970551Y-22491466D01*
X23970551Y-22491466D02*
X23922932Y-22681942D01*
X23922932Y-22681942D02*
X23875313Y-22777180D01*
X23875313Y-22777180D02*
X23827694Y-22824800D01*
X23827694Y-22824800D02*
X23732456Y-22872419D01*
X23732456Y-22872419D02*
X23637218Y-22872419D01*
X23637218Y-22872419D02*
X23541980Y-22824800D01*
X23541980Y-22824800D02*
X23494361Y-22777180D01*
X23494361Y-22777180D02*
X23446742Y-22681942D01*
X23446742Y-22681942D02*
X23399123Y-22491466D01*
X23399123Y-22491466D02*
X23399123Y-22253371D01*
X23399123Y-22253371D02*
X23446742Y-22062895D01*
X23446742Y-22062895D02*
X23494361Y-21967657D01*
X23494361Y-21967657D02*
X23541980Y-21920038D01*
X23541980Y-21920038D02*
X23637218Y-21872419D01*
X24351504Y-21967657D02*
X24399123Y-21920038D01*
X24399123Y-21920038D02*
X24494361Y-21872419D01*
X24494361Y-21872419D02*
X24732456Y-21872419D01*
X24732456Y-21872419D02*
X24827694Y-21920038D01*
X24827694Y-21920038D02*
X24875313Y-21967657D01*
X24875313Y-21967657D02*
X24922932Y-22062895D01*
X24922932Y-22062895D02*
X24922932Y-22158133D01*
X24922932Y-22158133D02*
X24875313Y-22300990D01*
X24875313Y-22300990D02*
X24303885Y-22872419D01*
X24303885Y-22872419D02*
X24922932Y-22872419D01*
X25827694Y-21872419D02*
X25351504Y-21872419D01*
X25351504Y-21872419D02*
X25303885Y-22348609D01*
X25303885Y-22348609D02*
X25351504Y-22300990D01*
X25351504Y-22300990D02*
X25446742Y-22253371D01*
X25446742Y-22253371D02*
X25684837Y-22253371D01*
X25684837Y-22253371D02*
X25780075Y-22300990D01*
X25780075Y-22300990D02*
X25827694Y-22348609D01*
X25827694Y-22348609D02*
X25875313Y-22443847D01*
X25875313Y-22443847D02*
X25875313Y-22681942D01*
X25875313Y-22681942D02*
X25827694Y-22777180D01*
X25827694Y-22777180D02*
X25780075Y-22824800D01*
X25780075Y-22824800D02*
X25684837Y-22872419D01*
X25684837Y-22872419D02*
X25446742Y-22872419D01*
X25446742Y-22872419D02*
X25351504Y-22824800D01*
X25351504Y-22824800D02*
X25303885Y-22777180D01*
X38856265Y-24624800D02*
X38951503Y-24672419D01*
X38951503Y-24672419D02*
X39141979Y-24672419D01*
X39141979Y-24672419D02*
X39237217Y-24624800D01*
X39237217Y-24624800D02*
X39284836Y-24529561D01*
X39284836Y-24529561D02*
X39284836Y-24481942D01*
X39284836Y-24481942D02*
X39237217Y-24386704D01*
X39237217Y-24386704D02*
X39141979Y-24339085D01*
X39141979Y-24339085D02*
X38999122Y-24339085D01*
X38999122Y-24339085D02*
X38903884Y-24291466D01*
X38903884Y-24291466D02*
X38856265Y-24196228D01*
X38856265Y-24196228D02*
X38856265Y-24148609D01*
X38856265Y-24148609D02*
X38903884Y-24053371D01*
X38903884Y-24053371D02*
X38999122Y-24005752D01*
X38999122Y-24005752D02*
X39141979Y-24005752D01*
X39141979Y-24005752D02*
X39237217Y-24053371D01*
X39099122Y-27234990D02*
X39032455Y-27196895D01*
X39032455Y-27196895D02*
X38932455Y-27196895D01*
X38932455Y-27196895D02*
X38832455Y-27234990D01*
X38832455Y-27234990D02*
X38765789Y-27311180D01*
X38765789Y-27311180D02*
X38732455Y-27387371D01*
X38732455Y-27387371D02*
X38699122Y-27539752D01*
X38699122Y-27539752D02*
X38699122Y-27654038D01*
X38699122Y-27654038D02*
X38732455Y-27806419D01*
X38732455Y-27806419D02*
X38765789Y-27882609D01*
X38765789Y-27882609D02*
X38832455Y-27958800D01*
X38832455Y-27958800D02*
X38932455Y-27996895D01*
X38932455Y-27996895D02*
X38999122Y-27996895D01*
X38999122Y-27996895D02*
X39099122Y-27958800D01*
X39099122Y-27958800D02*
X39132455Y-27920704D01*
X39132455Y-27920704D02*
X39132455Y-27654038D01*
X39132455Y-27654038D02*
X38999122Y-27654038D01*
X39732455Y-27996895D02*
X39732455Y-27577847D01*
X39732455Y-27577847D02*
X39699122Y-27501657D01*
X39699122Y-27501657D02*
X39632455Y-27463561D01*
X39632455Y-27463561D02*
X39499122Y-27463561D01*
X39499122Y-27463561D02*
X39432455Y-27501657D01*
X39732455Y-27958800D02*
X39665789Y-27996895D01*
X39665789Y-27996895D02*
X39499122Y-27996895D01*
X39499122Y-27996895D02*
X39432455Y-27958800D01*
X39432455Y-27958800D02*
X39399122Y-27882609D01*
X39399122Y-27882609D02*
X39399122Y-27806419D01*
X39399122Y-27806419D02*
X39432455Y-27730228D01*
X39432455Y-27730228D02*
X39499122Y-27692133D01*
X39499122Y-27692133D02*
X39665789Y-27692133D01*
X39665789Y-27692133D02*
X39732455Y-27654038D01*
X39965788Y-27463561D02*
X40232455Y-27463561D01*
X40065788Y-27196895D02*
X40065788Y-27882609D01*
X40065788Y-27882609D02*
X40099122Y-27958800D01*
X40099122Y-27958800D02*
X40165788Y-27996895D01*
X40165788Y-27996895D02*
X40232455Y-27996895D01*
X40732455Y-27958800D02*
X40665788Y-27996895D01*
X40665788Y-27996895D02*
X40532455Y-27996895D01*
X40532455Y-27996895D02*
X40465788Y-27958800D01*
X40465788Y-27958800D02*
X40432455Y-27882609D01*
X40432455Y-27882609D02*
X40432455Y-27577847D01*
X40432455Y-27577847D02*
X40465788Y-27501657D01*
X40465788Y-27501657D02*
X40532455Y-27463561D01*
X40532455Y-27463561D02*
X40665788Y-27463561D01*
X40665788Y-27463561D02*
X40732455Y-27501657D01*
X40732455Y-27501657D02*
X40765788Y-27577847D01*
X40765788Y-27577847D02*
X40765788Y-27654038D01*
X40765788Y-27654038D02*
X40432455Y-27730228D01*
X25532455Y-23496895D02*
X25765789Y-24296895D01*
X25765789Y-24296895D02*
X25999122Y-23496895D01*
X26232455Y-24296895D02*
X26232455Y-23763561D01*
X26232455Y-23496895D02*
X26199122Y-23534990D01*
X26199122Y-23534990D02*
X26232455Y-23573085D01*
X26232455Y-23573085D02*
X26265789Y-23534990D01*
X26265789Y-23534990D02*
X26232455Y-23496895D01*
X26232455Y-23496895D02*
X26232455Y-23573085D01*
X26499122Y-23496895D02*
X26932455Y-23496895D01*
X26932455Y-23496895D02*
X26699122Y-23801657D01*
X26699122Y-23801657D02*
X26799122Y-23801657D01*
X26799122Y-23801657D02*
X26865788Y-23839752D01*
X26865788Y-23839752D02*
X26899122Y-23877847D01*
X26899122Y-23877847D02*
X26932455Y-23954038D01*
X26932455Y-23954038D02*
X26932455Y-24144514D01*
X26932455Y-24144514D02*
X26899122Y-24220704D01*
X26899122Y-24220704D02*
X26865788Y-24258800D01*
X26865788Y-24258800D02*
X26799122Y-24296895D01*
X26799122Y-24296895D02*
X26599122Y-24296895D01*
X26599122Y-24296895D02*
X26532455Y-24258800D01*
X26532455Y-24258800D02*
X26499122Y-24220704D01*
X20465789Y-35227847D02*
X20232455Y-35227847D01*
X20232455Y-35646895D02*
X20232455Y-34846895D01*
X20232455Y-34846895D02*
X20565789Y-34846895D01*
X21132455Y-35646895D02*
X21132455Y-35227847D01*
X21132455Y-35227847D02*
X21099122Y-35151657D01*
X21099122Y-35151657D02*
X21032455Y-35113561D01*
X21032455Y-35113561D02*
X20899122Y-35113561D01*
X20899122Y-35113561D02*
X20832455Y-35151657D01*
X21132455Y-35608800D02*
X21065789Y-35646895D01*
X21065789Y-35646895D02*
X20899122Y-35646895D01*
X20899122Y-35646895D02*
X20832455Y-35608800D01*
X20832455Y-35608800D02*
X20799122Y-35532609D01*
X20799122Y-35532609D02*
X20799122Y-35456419D01*
X20799122Y-35456419D02*
X20832455Y-35380228D01*
X20832455Y-35380228D02*
X20899122Y-35342133D01*
X20899122Y-35342133D02*
X21065789Y-35342133D01*
X21065789Y-35342133D02*
X21132455Y-35304038D01*
X21765788Y-35113561D02*
X21765788Y-35646895D01*
X21465788Y-35113561D02*
X21465788Y-35532609D01*
X21465788Y-35532609D02*
X21499122Y-35608800D01*
X21499122Y-35608800D02*
X21565788Y-35646895D01*
X21565788Y-35646895D02*
X21665788Y-35646895D01*
X21665788Y-35646895D02*
X21732455Y-35608800D01*
X21732455Y-35608800D02*
X21765788Y-35570704D01*
X22199121Y-35646895D02*
X22132455Y-35608800D01*
X22132455Y-35608800D02*
X22099121Y-35532609D01*
X22099121Y-35532609D02*
X22099121Y-34846895D01*
X22365788Y-35113561D02*
X22632455Y-35113561D01*
X22465788Y-34846895D02*
X22465788Y-35532609D01*
X22465788Y-35532609D02*
X22499122Y-35608800D01*
X22499122Y-35608800D02*
X22565788Y-35646895D01*
X22565788Y-35646895D02*
X22632455Y-35646895D01*
X17232455Y-35646895D02*
X17232455Y-34846895D01*
X17232455Y-34846895D02*
X17499122Y-34846895D01*
X17499122Y-34846895D02*
X17565789Y-34884990D01*
X17565789Y-34884990D02*
X17599122Y-34923085D01*
X17599122Y-34923085D02*
X17632455Y-34999276D01*
X17632455Y-34999276D02*
X17632455Y-35113561D01*
X17632455Y-35113561D02*
X17599122Y-35189752D01*
X17599122Y-35189752D02*
X17565789Y-35227847D01*
X17565789Y-35227847D02*
X17499122Y-35265942D01*
X17499122Y-35265942D02*
X17232455Y-35265942D01*
X17865789Y-34846895D02*
X18032455Y-35646895D01*
X18032455Y-35646895D02*
X18165789Y-35075466D01*
X18165789Y-35075466D02*
X18299122Y-35646895D01*
X18299122Y-35646895D02*
X18465789Y-34846895D01*
X19132455Y-35646895D02*
X18899122Y-35265942D01*
X18732455Y-35646895D02*
X18732455Y-34846895D01*
X18732455Y-34846895D02*
X18999122Y-34846895D01*
X18999122Y-34846895D02*
X19065789Y-34884990D01*
X19065789Y-34884990D02*
X19099122Y-34923085D01*
X19099122Y-34923085D02*
X19132455Y-34999276D01*
X19132455Y-34999276D02*
X19132455Y-35113561D01*
X19132455Y-35113561D02*
X19099122Y-35189752D01*
X19099122Y-35189752D02*
X19065789Y-35227847D01*
X19065789Y-35227847D02*
X18999122Y-35265942D01*
X18999122Y-35265942D02*
X18732455Y-35265942D01*
X26132455Y-30796895D02*
X26365789Y-31596895D01*
X26365789Y-31596895D02*
X26599122Y-30796895D01*
X26832455Y-31596895D02*
X26832455Y-30796895D01*
X26832455Y-31101657D02*
X26899122Y-31063561D01*
X26899122Y-31063561D02*
X27032455Y-31063561D01*
X27032455Y-31063561D02*
X27099122Y-31101657D01*
X27099122Y-31101657D02*
X27132455Y-31139752D01*
X27132455Y-31139752D02*
X27165789Y-31215942D01*
X27165789Y-31215942D02*
X27165789Y-31444514D01*
X27165789Y-31444514D02*
X27132455Y-31520704D01*
X27132455Y-31520704D02*
X27099122Y-31558800D01*
X27099122Y-31558800D02*
X27032455Y-31596895D01*
X27032455Y-31596895D02*
X26899122Y-31596895D01*
X26899122Y-31596895D02*
X26832455Y-31558800D01*
X27765788Y-31596895D02*
X27765788Y-31177847D01*
X27765788Y-31177847D02*
X27732455Y-31101657D01*
X27732455Y-31101657D02*
X27665788Y-31063561D01*
X27665788Y-31063561D02*
X27532455Y-31063561D01*
X27532455Y-31063561D02*
X27465788Y-31101657D01*
X27765788Y-31558800D02*
X27699122Y-31596895D01*
X27699122Y-31596895D02*
X27532455Y-31596895D01*
X27532455Y-31596895D02*
X27465788Y-31558800D01*
X27465788Y-31558800D02*
X27432455Y-31482609D01*
X27432455Y-31482609D02*
X27432455Y-31406419D01*
X27432455Y-31406419D02*
X27465788Y-31330228D01*
X27465788Y-31330228D02*
X27532455Y-31292133D01*
X27532455Y-31292133D02*
X27699122Y-31292133D01*
X27699122Y-31292133D02*
X27765788Y-31254038D01*
X27999121Y-31063561D02*
X28265788Y-31063561D01*
X28099121Y-30796895D02*
X28099121Y-31482609D01*
X28099121Y-31482609D02*
X28132455Y-31558800D01*
X28132455Y-31558800D02*
X28199121Y-31596895D01*
X28199121Y-31596895D02*
X28265788Y-31596895D01*
X28332455Y-31673085D02*
X28865788Y-31673085D01*
X29032454Y-31596895D02*
X29032454Y-30796895D01*
X29032454Y-30796895D02*
X29299121Y-30796895D01*
X29299121Y-30796895D02*
X29365788Y-30834990D01*
X29365788Y-30834990D02*
X29399121Y-30873085D01*
X29399121Y-30873085D02*
X29432454Y-30949276D01*
X29432454Y-30949276D02*
X29432454Y-31063561D01*
X29432454Y-31063561D02*
X29399121Y-31139752D01*
X29399121Y-31139752D02*
X29365788Y-31177847D01*
X29365788Y-31177847D02*
X29299121Y-31215942D01*
X29299121Y-31215942D02*
X29032454Y-31215942D01*
X29732454Y-31596895D02*
X29732454Y-31063561D01*
X29732454Y-31215942D02*
X29765788Y-31139752D01*
X29765788Y-31139752D02*
X29799121Y-31101657D01*
X29799121Y-31101657D02*
X29865788Y-31063561D01*
X29865788Y-31063561D02*
X29932454Y-31063561D01*
X30265787Y-31596895D02*
X30199121Y-31558800D01*
X30199121Y-31558800D02*
X30165787Y-31520704D01*
X30165787Y-31520704D02*
X30132454Y-31444514D01*
X30132454Y-31444514D02*
X30132454Y-31215942D01*
X30132454Y-31215942D02*
X30165787Y-31139752D01*
X30165787Y-31139752D02*
X30199121Y-31101657D01*
X30199121Y-31101657D02*
X30265787Y-31063561D01*
X30265787Y-31063561D02*
X30365787Y-31063561D01*
X30365787Y-31063561D02*
X30432454Y-31101657D01*
X30432454Y-31101657D02*
X30465787Y-31139752D01*
X30465787Y-31139752D02*
X30499121Y-31215942D01*
X30499121Y-31215942D02*
X30499121Y-31444514D01*
X30499121Y-31444514D02*
X30465787Y-31520704D01*
X30465787Y-31520704D02*
X30432454Y-31558800D01*
X30432454Y-31558800D02*
X30365787Y-31596895D01*
X30365787Y-31596895D02*
X30265787Y-31596895D01*
X30699120Y-31063561D02*
X30965787Y-31063561D01*
X30799120Y-30796895D02*
X30799120Y-31482609D01*
X30799120Y-31482609D02*
X30832454Y-31558800D01*
X30832454Y-31558800D02*
X30899120Y-31596895D01*
X30899120Y-31596895D02*
X30965787Y-31596895D01*
X40232455Y-18205752D02*
X40232455Y-19015276D01*
X40232455Y-19015276D02*
X40184836Y-19110514D01*
X40184836Y-19110514D02*
X40137217Y-19158133D01*
X40137217Y-19158133D02*
X40041979Y-19205752D01*
X40041979Y-19205752D02*
X39899122Y-19205752D01*
X39899122Y-19205752D02*
X39803884Y-19158133D01*
X40232455Y-18824800D02*
X40137217Y-18872419D01*
X40137217Y-18872419D02*
X39946741Y-18872419D01*
X39946741Y-18872419D02*
X39851503Y-18824800D01*
X39851503Y-18824800D02*
X39803884Y-18777180D01*
X39803884Y-18777180D02*
X39756265Y-18681942D01*
X39756265Y-18681942D02*
X39756265Y-18396228D01*
X39756265Y-18396228D02*
X39803884Y-18300990D01*
X39803884Y-18300990D02*
X39851503Y-18253371D01*
X39851503Y-18253371D02*
X39946741Y-18205752D01*
X39946741Y-18205752D02*
X40137217Y-18205752D01*
X40137217Y-18205752D02*
X40232455Y-18253371D01*
X32432455Y-20972419D02*
X32432455Y-19972419D01*
X32432455Y-20924800D02*
X32337217Y-20972419D01*
X32337217Y-20972419D02*
X32146741Y-20972419D01*
X32146741Y-20972419D02*
X32051503Y-20924800D01*
X32051503Y-20924800D02*
X32003884Y-20877180D01*
X32003884Y-20877180D02*
X31956265Y-20781942D01*
X31956265Y-20781942D02*
X31956265Y-20496228D01*
X31956265Y-20496228D02*
X32003884Y-20400990D01*
X32003884Y-20400990D02*
X32051503Y-20353371D01*
X32051503Y-20353371D02*
X32146741Y-20305752D01*
X32146741Y-20305752D02*
X32337217Y-20305752D01*
X32337217Y-20305752D02*
X32432455Y-20353371D01*
D11*
X17738095Y-39954819D02*
X17738095Y-40764342D01*
X17738095Y-40764342D02*
X17785714Y-40859580D01*
X17785714Y-40859580D02*
X17833333Y-40907200D01*
X17833333Y-40907200D02*
X17928571Y-40954819D01*
X17928571Y-40954819D02*
X18119047Y-40954819D01*
X18119047Y-40954819D02*
X18214285Y-40907200D01*
X18214285Y-40907200D02*
X18261904Y-40859580D01*
X18261904Y-40859580D02*
X18309523Y-40764342D01*
X18309523Y-40764342D02*
X18309523Y-39954819D01*
X18738095Y-40050057D02*
X18785714Y-40002438D01*
X18785714Y-40002438D02*
X18880952Y-39954819D01*
X18880952Y-39954819D02*
X19119047Y-39954819D01*
X19119047Y-39954819D02*
X19214285Y-40002438D01*
X19214285Y-40002438D02*
X19261904Y-40050057D01*
X19261904Y-40050057D02*
X19309523Y-40145295D01*
X19309523Y-40145295D02*
X19309523Y-40240533D01*
X19309523Y-40240533D02*
X19261904Y-40383390D01*
X19261904Y-40383390D02*
X18690476Y-40954819D01*
X18690476Y-40954819D02*
X19309523Y-40954819D01*
X21183333Y-24417319D02*
X20850000Y-23941128D01*
X20611905Y-24417319D02*
X20611905Y-23417319D01*
X20611905Y-23417319D02*
X20992857Y-23417319D01*
X20992857Y-23417319D02*
X21088095Y-23464938D01*
X21088095Y-23464938D02*
X21135714Y-23512557D01*
X21135714Y-23512557D02*
X21183333Y-23607795D01*
X21183333Y-23607795D02*
X21183333Y-23750652D01*
X21183333Y-23750652D02*
X21135714Y-23845890D01*
X21135714Y-23845890D02*
X21088095Y-23893509D01*
X21088095Y-23893509D02*
X20992857Y-23941128D01*
X20992857Y-23941128D02*
X20611905Y-23941128D01*
X22088095Y-23417319D02*
X21611905Y-23417319D01*
X21611905Y-23417319D02*
X21564286Y-23893509D01*
X21564286Y-23893509D02*
X21611905Y-23845890D01*
X21611905Y-23845890D02*
X21707143Y-23798271D01*
X21707143Y-23798271D02*
X21945238Y-23798271D01*
X21945238Y-23798271D02*
X22040476Y-23845890D01*
X22040476Y-23845890D02*
X22088095Y-23893509D01*
X22088095Y-23893509D02*
X22135714Y-23988747D01*
X22135714Y-23988747D02*
X22135714Y-24226842D01*
X22135714Y-24226842D02*
X22088095Y-24322080D01*
X22088095Y-24322080D02*
X22040476Y-24369700D01*
X22040476Y-24369700D02*
X21945238Y-24417319D01*
X21945238Y-24417319D02*
X21707143Y-24417319D01*
X21707143Y-24417319D02*
X21611905Y-24369700D01*
X21611905Y-24369700D02*
X21564286Y-24322080D01*
X32883333Y-40404819D02*
X32550000Y-39928628D01*
X32311905Y-40404819D02*
X32311905Y-39404819D01*
X32311905Y-39404819D02*
X32692857Y-39404819D01*
X32692857Y-39404819D02*
X32788095Y-39452438D01*
X32788095Y-39452438D02*
X32835714Y-39500057D01*
X32835714Y-39500057D02*
X32883333Y-39595295D01*
X32883333Y-39595295D02*
X32883333Y-39738152D01*
X32883333Y-39738152D02*
X32835714Y-39833390D01*
X32835714Y-39833390D02*
X32788095Y-39881009D01*
X32788095Y-39881009D02*
X32692857Y-39928628D01*
X32692857Y-39928628D02*
X32311905Y-39928628D01*
X33835714Y-40404819D02*
X33264286Y-40404819D01*
X33550000Y-40404819D02*
X33550000Y-39404819D01*
X33550000Y-39404819D02*
X33454762Y-39547676D01*
X33454762Y-39547676D02*
X33359524Y-39642914D01*
X33359524Y-39642914D02*
X33264286Y-39690533D01*
X32433333Y-26454819D02*
X32100000Y-25978628D01*
X31861905Y-26454819D02*
X31861905Y-25454819D01*
X31861905Y-25454819D02*
X32242857Y-25454819D01*
X32242857Y-25454819D02*
X32338095Y-25502438D01*
X32338095Y-25502438D02*
X32385714Y-25550057D01*
X32385714Y-25550057D02*
X32433333Y-25645295D01*
X32433333Y-25645295D02*
X32433333Y-25788152D01*
X32433333Y-25788152D02*
X32385714Y-25883390D01*
X32385714Y-25883390D02*
X32338095Y-25931009D01*
X32338095Y-25931009D02*
X32242857Y-25978628D01*
X32242857Y-25978628D02*
X31861905Y-25978628D01*
X32766667Y-25454819D02*
X33385714Y-25454819D01*
X33385714Y-25454819D02*
X33052381Y-25835771D01*
X33052381Y-25835771D02*
X33195238Y-25835771D01*
X33195238Y-25835771D02*
X33290476Y-25883390D01*
X33290476Y-25883390D02*
X33338095Y-25931009D01*
X33338095Y-25931009D02*
X33385714Y-26026247D01*
X33385714Y-26026247D02*
X33385714Y-26264342D01*
X33385714Y-26264342D02*
X33338095Y-26359580D01*
X33338095Y-26359580D02*
X33290476Y-26407200D01*
X33290476Y-26407200D02*
X33195238Y-26454819D01*
X33195238Y-26454819D02*
X32909524Y-26454819D01*
X32909524Y-26454819D02*
X32814286Y-26407200D01*
X32814286Y-26407200D02*
X32766667Y-26359580D01*
X17611905Y-32717319D02*
X17611905Y-31717319D01*
X17611905Y-31717319D02*
X17850000Y-31717319D01*
X17850000Y-31717319D02*
X17992857Y-31764938D01*
X17992857Y-31764938D02*
X18088095Y-31860176D01*
X18088095Y-31860176D02*
X18135714Y-31955414D01*
X18135714Y-31955414D02*
X18183333Y-32145890D01*
X18183333Y-32145890D02*
X18183333Y-32288747D01*
X18183333Y-32288747D02*
X18135714Y-32479223D01*
X18135714Y-32479223D02*
X18088095Y-32574461D01*
X18088095Y-32574461D02*
X17992857Y-32669700D01*
X17992857Y-32669700D02*
X17850000Y-32717319D01*
X17850000Y-32717319D02*
X17611905Y-32717319D01*
X19135714Y-32717319D02*
X18564286Y-32717319D01*
X18850000Y-32717319D02*
X18850000Y-31717319D01*
X18850000Y-31717319D02*
X18754762Y-31860176D01*
X18754762Y-31860176D02*
X18659524Y-31955414D01*
X18659524Y-31955414D02*
X18564286Y-32003033D01*
X26868095Y-39629819D02*
X26868095Y-40439342D01*
X26868095Y-40439342D02*
X26915714Y-40534580D01*
X26915714Y-40534580D02*
X26963333Y-40582200D01*
X26963333Y-40582200D02*
X27058571Y-40629819D01*
X27058571Y-40629819D02*
X27249047Y-40629819D01*
X27249047Y-40629819D02*
X27344285Y-40582200D01*
X27344285Y-40582200D02*
X27391904Y-40534580D01*
X27391904Y-40534580D02*
X27439523Y-40439342D01*
X27439523Y-40439342D02*
X27439523Y-39629819D01*
X28439523Y-40629819D02*
X27868095Y-40629819D01*
X28153809Y-40629819D02*
X28153809Y-39629819D01*
X28153809Y-39629819D02*
X28058571Y-39772676D01*
X28058571Y-39772676D02*
X27963333Y-39867914D01*
X27963333Y-39867914D02*
X27868095Y-39915533D01*
X40504761Y-21650057D02*
X40409523Y-21602438D01*
X40409523Y-21602438D02*
X40314285Y-21507200D01*
X40314285Y-21507200D02*
X40171428Y-21364342D01*
X40171428Y-21364342D02*
X40076190Y-21316723D01*
X40076190Y-21316723D02*
X39980952Y-21316723D01*
X40028571Y-21554819D02*
X39933333Y-21507200D01*
X39933333Y-21507200D02*
X39838095Y-21411961D01*
X39838095Y-21411961D02*
X39790476Y-21221485D01*
X39790476Y-21221485D02*
X39790476Y-20888152D01*
X39790476Y-20888152D02*
X39838095Y-20697676D01*
X39838095Y-20697676D02*
X39933333Y-20602438D01*
X39933333Y-20602438D02*
X40028571Y-20554819D01*
X40028571Y-20554819D02*
X40219047Y-20554819D01*
X40219047Y-20554819D02*
X40314285Y-20602438D01*
X40314285Y-20602438D02*
X40409523Y-20697676D01*
X40409523Y-20697676D02*
X40457142Y-20888152D01*
X40457142Y-20888152D02*
X40457142Y-21221485D01*
X40457142Y-21221485D02*
X40409523Y-21411961D01*
X40409523Y-21411961D02*
X40314285Y-21507200D01*
X40314285Y-21507200D02*
X40219047Y-21554819D01*
X40219047Y-21554819D02*
X40028571Y-21554819D01*
X41409523Y-21554819D02*
X40838095Y-21554819D01*
X41123809Y-21554819D02*
X41123809Y-20554819D01*
X41123809Y-20554819D02*
X41028571Y-20697676D01*
X41028571Y-20697676D02*
X40933333Y-20792914D01*
X40933333Y-20792914D02*
X40838095Y-20840533D01*
X35683333Y-40347080D02*
X35635714Y-40394700D01*
X35635714Y-40394700D02*
X35492857Y-40442319D01*
X35492857Y-40442319D02*
X35397619Y-40442319D01*
X35397619Y-40442319D02*
X35254762Y-40394700D01*
X35254762Y-40394700D02*
X35159524Y-40299461D01*
X35159524Y-40299461D02*
X35111905Y-40204223D01*
X35111905Y-40204223D02*
X35064286Y-40013747D01*
X35064286Y-40013747D02*
X35064286Y-39870890D01*
X35064286Y-39870890D02*
X35111905Y-39680414D01*
X35111905Y-39680414D02*
X35159524Y-39585176D01*
X35159524Y-39585176D02*
X35254762Y-39489938D01*
X35254762Y-39489938D02*
X35397619Y-39442319D01*
X35397619Y-39442319D02*
X35492857Y-39442319D01*
X35492857Y-39442319D02*
X35635714Y-39489938D01*
X35635714Y-39489938D02*
X35683333Y-39537557D01*
X36635714Y-40442319D02*
X36064286Y-40442319D01*
X36350000Y-40442319D02*
X36350000Y-39442319D01*
X36350000Y-39442319D02*
X36254762Y-39585176D01*
X36254762Y-39585176D02*
X36159524Y-39680414D01*
X36159524Y-39680414D02*
X36064286Y-39728033D01*
X20611905Y-32717319D02*
X20611905Y-31717319D01*
X20611905Y-31717319D02*
X20850000Y-31717319D01*
X20850000Y-31717319D02*
X20992857Y-31764938D01*
X20992857Y-31764938D02*
X21088095Y-31860176D01*
X21088095Y-31860176D02*
X21135714Y-31955414D01*
X21135714Y-31955414D02*
X21183333Y-32145890D01*
X21183333Y-32145890D02*
X21183333Y-32288747D01*
X21183333Y-32288747D02*
X21135714Y-32479223D01*
X21135714Y-32479223D02*
X21088095Y-32574461D01*
X21088095Y-32574461D02*
X20992857Y-32669700D01*
X20992857Y-32669700D02*
X20850000Y-32717319D01*
X20850000Y-32717319D02*
X20611905Y-32717319D01*
X21564286Y-31812557D02*
X21611905Y-31764938D01*
X21611905Y-31764938D02*
X21707143Y-31717319D01*
X21707143Y-31717319D02*
X21945238Y-31717319D01*
X21945238Y-31717319D02*
X22040476Y-31764938D01*
X22040476Y-31764938D02*
X22088095Y-31812557D01*
X22088095Y-31812557D02*
X22135714Y-31907795D01*
X22135714Y-31907795D02*
X22135714Y-32003033D01*
X22135714Y-32003033D02*
X22088095Y-32145890D01*
X22088095Y-32145890D02*
X21516667Y-32717319D01*
X21516667Y-32717319D02*
X22135714Y-32717319D01*
X34855095Y-26805819D02*
X34855095Y-25805819D01*
X34855095Y-26282009D02*
X35426523Y-26282009D01*
X35426523Y-26805819D02*
X35426523Y-25805819D01*
X36426523Y-26805819D02*
X35855095Y-26805819D01*
X36140809Y-26805819D02*
X36140809Y-25805819D01*
X36140809Y-25805819D02*
X36045571Y-25948676D01*
X36045571Y-25948676D02*
X35950333Y-26043914D01*
X35950333Y-26043914D02*
X35855095Y-26091533D01*
X18183333Y-24417319D02*
X17850000Y-23941128D01*
X17611905Y-24417319D02*
X17611905Y-23417319D01*
X17611905Y-23417319D02*
X17992857Y-23417319D01*
X17992857Y-23417319D02*
X18088095Y-23464938D01*
X18088095Y-23464938D02*
X18135714Y-23512557D01*
X18135714Y-23512557D02*
X18183333Y-23607795D01*
X18183333Y-23607795D02*
X18183333Y-23750652D01*
X18183333Y-23750652D02*
X18135714Y-23845890D01*
X18135714Y-23845890D02*
X18088095Y-23893509D01*
X18088095Y-23893509D02*
X17992857Y-23941128D01*
X17992857Y-23941128D02*
X17611905Y-23941128D01*
X19040476Y-23750652D02*
X19040476Y-24417319D01*
X18802381Y-23369700D02*
X18564286Y-24083985D01*
X18564286Y-24083985D02*
X19183333Y-24083985D01*
X41833333Y-40454819D02*
X41500000Y-39978628D01*
X41261905Y-40454819D02*
X41261905Y-39454819D01*
X41261905Y-39454819D02*
X41642857Y-39454819D01*
X41642857Y-39454819D02*
X41738095Y-39502438D01*
X41738095Y-39502438D02*
X41785714Y-39550057D01*
X41785714Y-39550057D02*
X41833333Y-39645295D01*
X41833333Y-39645295D02*
X41833333Y-39788152D01*
X41833333Y-39788152D02*
X41785714Y-39883390D01*
X41785714Y-39883390D02*
X41738095Y-39931009D01*
X41738095Y-39931009D02*
X41642857Y-39978628D01*
X41642857Y-39978628D02*
X41261905Y-39978628D01*
X42214286Y-39550057D02*
X42261905Y-39502438D01*
X42261905Y-39502438D02*
X42357143Y-39454819D01*
X42357143Y-39454819D02*
X42595238Y-39454819D01*
X42595238Y-39454819D02*
X42690476Y-39502438D01*
X42690476Y-39502438D02*
X42738095Y-39550057D01*
X42738095Y-39550057D02*
X42785714Y-39645295D01*
X42785714Y-39645295D02*
X42785714Y-39740533D01*
X42785714Y-39740533D02*
X42738095Y-39883390D01*
X42738095Y-39883390D02*
X42166667Y-40454819D01*
X42166667Y-40454819D02*
X42785714Y-40454819D01*
X38933333Y-40359580D02*
X38885714Y-40407200D01*
X38885714Y-40407200D02*
X38742857Y-40454819D01*
X38742857Y-40454819D02*
X38647619Y-40454819D01*
X38647619Y-40454819D02*
X38504762Y-40407200D01*
X38504762Y-40407200D02*
X38409524Y-40311961D01*
X38409524Y-40311961D02*
X38361905Y-40216723D01*
X38361905Y-40216723D02*
X38314286Y-40026247D01*
X38314286Y-40026247D02*
X38314286Y-39883390D01*
X38314286Y-39883390D02*
X38361905Y-39692914D01*
X38361905Y-39692914D02*
X38409524Y-39597676D01*
X38409524Y-39597676D02*
X38504762Y-39502438D01*
X38504762Y-39502438D02*
X38647619Y-39454819D01*
X38647619Y-39454819D02*
X38742857Y-39454819D01*
X38742857Y-39454819D02*
X38885714Y-39502438D01*
X38885714Y-39502438D02*
X38933333Y-39550057D01*
X39314286Y-39550057D02*
X39361905Y-39502438D01*
X39361905Y-39502438D02*
X39457143Y-39454819D01*
X39457143Y-39454819D02*
X39695238Y-39454819D01*
X39695238Y-39454819D02*
X39790476Y-39502438D01*
X39790476Y-39502438D02*
X39838095Y-39550057D01*
X39838095Y-39550057D02*
X39885714Y-39645295D01*
X39885714Y-39645295D02*
X39885714Y-39740533D01*
X39885714Y-39740533D02*
X39838095Y-39883390D01*
X39838095Y-39883390D02*
X39266667Y-40454819D01*
X39266667Y-40454819D02*
X39885714Y-40454819D01*
D12*
X18290000Y-37750000D02*
X18290000Y-36950000D01*
X18290000Y-37750000D02*
X18290000Y-38550000D01*
X21410000Y-37750000D02*
X21410000Y-36950000D01*
X21410000Y-37750000D02*
X21410000Y-38550000D01*
X18340000Y-39050000D02*
X18010000Y-39290000D01*
X18010000Y-38810000D01*
X18340000Y-39050000D01*
G36*
X18340000Y-39050000D02*
G01*
X18010000Y-39290000D01*
X18010000Y-38810000D01*
X18340000Y-39050000D01*
G37*
X27400000Y-25400000D02*
G75*
G02*
X26000000Y-25400000I-700000J0D01*
G01*
X26000000Y-25400000D02*
G75*
G02*
X27400000Y-25400000I700000J0D01*
G01*
X20440000Y-27739564D02*
X20440000Y-26285436D01*
X22260000Y-27739564D02*
X22260000Y-26285436D01*
X32140000Y-35822936D02*
X32140000Y-37277064D01*
X33960000Y-35822936D02*
X33960000Y-37277064D01*
X28012500Y-27977064D02*
X28012500Y-23622936D01*
X31432500Y-27977064D02*
X31432500Y-23622936D01*
X17215000Y-29802500D02*
X17215000Y-33862500D01*
X19485000Y-29802500D02*
X17215000Y-29802500D01*
X19485000Y-33862500D02*
X19485000Y-29802500D01*
X27630000Y-34215000D02*
X25680000Y-34215000D01*
X27630000Y-34215000D02*
X29580000Y-34215000D01*
X27630000Y-39335000D02*
X25680000Y-39335000D01*
X27630000Y-39335000D02*
X29580000Y-39335000D01*
X30570000Y-39570000D02*
X30090000Y-39570000D01*
X30330000Y-39240000D01*
X30570000Y-39570000D01*
G36*
X30570000Y-39570000D02*
G01*
X30090000Y-39570000D01*
X30330000Y-39240000D01*
X30570000Y-39570000D01*
G37*
X32872500Y-23520000D02*
X32872500Y-17870000D01*
X38407500Y-17870000D02*
X32872500Y-17870000D01*
X38407500Y-23520000D02*
X32872500Y-23520000D01*
X39197500Y-23525000D02*
X38717500Y-23525000D01*
X38957500Y-23195000D01*
X39197500Y-23525000D01*
G36*
X39197500Y-23525000D02*
G01*
X38717500Y-23525000D01*
X38957500Y-23195000D01*
X39197500Y-23525000D01*
G37*
X34940000Y-37298752D02*
X34940000Y-35876248D01*
X36760000Y-37298752D02*
X36760000Y-35876248D01*
X20215000Y-29802500D02*
X20215000Y-33862500D01*
X22485000Y-29802500D02*
X20215000Y-29802500D01*
X22485000Y-33862500D02*
X22485000Y-29802500D01*
X27400000Y-29700000D02*
G75*
G02*
X26000000Y-29700000I-700000J0D01*
G01*
X26000000Y-29700000D02*
G75*
G02*
X27400000Y-29700000I700000J0D01*
G01*
X17440000Y-27739564D02*
X17440000Y-26285436D01*
X19260000Y-27739564D02*
X19260000Y-26285436D01*
X41190000Y-37327064D02*
X41190000Y-35872936D01*
X43010000Y-37327064D02*
X43010000Y-35872936D01*
X37740000Y-35876248D02*
X37740000Y-37298752D01*
X40460000Y-35876248D02*
X40460000Y-37298752D01*
X40700000Y-29000000D02*
G75*
G02*
X39300000Y-29000000I-700000J0D01*
G01*
X39300000Y-29000000D02*
G75*
G02*
X40700000Y-29000000I700000J0D01*
G01*
%LPC*%
D13*
X18900000Y-38887500D03*
X19850000Y-38887500D03*
X20800000Y-38887500D03*
X20800000Y-36612500D03*
X18900000Y-36612500D03*
D14*
X26700000Y-25400000D03*
D15*
X21350000Y-28562500D03*
X21350000Y-25462500D03*
D16*
X33050000Y-35000000D03*
X33050000Y-38100000D03*
D17*
X29722500Y-28762500D03*
X29722500Y-22837500D03*
D18*
X18350000Y-30775000D03*
X18350000Y-33750000D03*
D19*
X30105000Y-38680000D03*
X30105000Y-37410000D03*
X30105000Y-36140000D03*
X30105000Y-34870000D03*
X25155000Y-34870000D03*
X25155000Y-36140000D03*
X25155000Y-37410000D03*
X25155000Y-38680000D03*
D20*
X27630000Y-36775000D03*
D21*
X38922500Y-22600000D03*
X38922500Y-21330000D03*
X38922500Y-20060000D03*
X38922500Y-18790000D03*
D22*
X36207500Y-22967500D03*
X36207500Y-18422500D03*
D23*
X35127500Y-20695000D03*
D24*
X33337500Y-22910000D03*
X33337500Y-18480000D03*
D25*
X35850000Y-38150000D03*
X35850000Y-35025000D03*
D18*
X21350000Y-30775000D03*
X21350000Y-33750000D03*
D14*
X26700000Y-29700000D03*
D26*
X35617000Y-30151000D03*
D15*
X18350000Y-28562500D03*
X18350000Y-25462500D03*
X42100000Y-38150000D03*
X42100000Y-35050000D03*
D27*
X39100000Y-35025000D03*
X39100000Y-38150000D03*
D14*
X40000000Y-29000000D03*
%LPD*%
M02*
