G04 #@! TF.GenerationSoftware,KiCad,Pcbnew,8.0.1*
G04 #@! TF.CreationDate,2025-03-14T15:20:11-04:00*
G04 #@! TF.ProjectId,Relay Stick Fix,52656c61-7920-4537-9469-636b20466978,rev?*
G04 #@! TF.SameCoordinates,Original*
G04 #@! TF.FileFunction,Copper,L1,Top*
G04 #@! TF.FilePolarity,Positive*
%FSLAX46Y46*%
G04 Gerber Fmt 4.6, Leading zero omitted, Abs format (unit mm)*
G04 Created by KiCad (PCBNEW 8.0.1) date 2025-03-14 15:20:11*
%MOMM*%
%LPD*%
G01*
G04 APERTURE LIST*
G04 Aperture macros list*
%AMRoundRect*
0 Rectangle with rounded corners*
0 $1 Rounding radius*
0 $2 $3 $4 $5 $6 $7 $8 $9 X,Y pos of 4 corners*
0 Add a 4 corners polygon primitive as box body*
4,1,4,$2,$3,$4,$5,$6,$7,$8,$9,$2,$3,0*
0 Add four circle primitives for the rounded corners*
1,1,$1+$1,$2,$3*
1,1,$1+$1,$4,$5*
1,1,$1+$1,$6,$7*
1,1,$1+$1,$8,$9*
0 Add four rect primitives between the rounded corners*
20,1,$1+$1,$2,$3,$4,$5,0*
20,1,$1+$1,$4,$5,$6,$7,0*
20,1,$1+$1,$6,$7,$8,$9,0*
20,1,$1+$1,$8,$9,$2,$3,0*%
G04 Aperture macros list end*
G04 #@! TA.AperFunction,SMDPad,CuDef*
%ADD10RoundRect,0.150000X0.150000X-0.512500X0.150000X0.512500X-0.150000X0.512500X-0.150000X-0.512500X0*%
G04 #@! TD*
G04 #@! TA.AperFunction,ComponentPad*
%ADD11C,1.000000*%
G04 #@! TD*
G04 #@! TA.AperFunction,SMDPad,CuDef*
%ADD12RoundRect,0.250000X0.625000X-0.400000X0.625000X0.400000X-0.625000X0.400000X-0.625000X-0.400000X0*%
G04 #@! TD*
G04 #@! TA.AperFunction,SMDPad,CuDef*
%ADD13RoundRect,0.250000X-0.625000X0.400000X-0.625000X-0.400000X0.625000X-0.400000X0.625000X0.400000X0*%
G04 #@! TD*
G04 #@! TA.AperFunction,SMDPad,CuDef*
%ADD14RoundRect,0.250000X1.425000X-0.362500X1.425000X0.362500X-1.425000X0.362500X-1.425000X-0.362500X0*%
G04 #@! TD*
G04 #@! TA.AperFunction,SMDPad,CuDef*
%ADD15RoundRect,0.250001X-0.624999X0.462499X-0.624999X-0.462499X0.624999X-0.462499X0.624999X0.462499X0*%
G04 #@! TD*
G04 #@! TA.AperFunction,SMDPad,CuDef*
%ADD16RoundRect,0.150000X0.825000X0.150000X-0.825000X0.150000X-0.825000X-0.150000X0.825000X-0.150000X0*%
G04 #@! TD*
G04 #@! TA.AperFunction,HeatsinkPad*
%ADD17R,2.290000X3.000000*%
G04 #@! TD*
G04 #@! TA.AperFunction,SMDPad,CuDef*
%ADD18RoundRect,0.102500X0.257500X0.102500X-0.257500X0.102500X-0.257500X-0.102500X0.257500X-0.102500X0*%
G04 #@! TD*
G04 #@! TA.AperFunction,SMDPad,CuDef*
%ADD19R,0.510000X0.585000*%
G04 #@! TD*
G04 #@! TA.AperFunction,SMDPad,CuDef*
%ADD20R,3.990000X3.960000*%
G04 #@! TD*
G04 #@! TA.AperFunction,SMDPad,CuDef*
%ADD21R,0.410000X0.470000*%
G04 #@! TD*
G04 #@! TA.AperFunction,SMDPad,CuDef*
%ADD22RoundRect,0.250000X0.650000X-0.412500X0.650000X0.412500X-0.650000X0.412500X-0.650000X-0.412500X0*%
G04 #@! TD*
G04 #@! TA.AperFunction,ComponentPad*
%ADD23C,5.600000*%
G04 #@! TD*
G04 #@! TA.AperFunction,SMDPad,CuDef*
%ADD24RoundRect,0.250000X-1.100000X0.412500X-1.100000X-0.412500X1.100000X-0.412500X1.100000X0.412500X0*%
G04 #@! TD*
G04 #@! TA.AperFunction,SMDPad,CuDef*
%ADD25C,1.000000*%
G04 #@! TD*
G04 #@! TA.AperFunction,ViaPad*
%ADD26C,0.600000*%
G04 #@! TD*
G04 #@! TA.AperFunction,Conductor*
%ADD27C,0.500000*%
G04 #@! TD*
G04 #@! TA.AperFunction,Conductor*
%ADD28C,0.300000*%
G04 #@! TD*
G04 APERTURE END LIST*
D10*
X18900000Y-38887500D03*
X19850000Y-38887500D03*
X20800000Y-38887500D03*
X20800000Y-36612500D03*
X18900000Y-36612500D03*
D11*
X26700000Y-25400000D03*
D12*
X21350000Y-28562500D03*
X21350000Y-25462500D03*
D13*
X33050000Y-35000000D03*
X33050000Y-38100000D03*
D14*
X29722500Y-28762500D03*
X29722500Y-22837500D03*
D15*
X18350000Y-30775000D03*
X18350000Y-33750000D03*
D16*
X30105000Y-38680000D03*
X30105000Y-37410000D03*
X30105000Y-36140000D03*
X30105000Y-34870000D03*
X25155000Y-34870000D03*
X25155000Y-36140000D03*
X25155000Y-37410000D03*
X25155000Y-38680000D03*
D17*
X27630000Y-36775000D03*
D18*
X38922500Y-22600000D03*
X38922500Y-21330000D03*
X38922500Y-20060000D03*
X38922500Y-18790000D03*
D19*
X36207500Y-22967500D03*
X36207500Y-18422500D03*
D20*
X35127500Y-20695000D03*
D21*
X33337500Y-22910000D03*
X33337500Y-18480000D03*
D22*
X35850000Y-38150000D03*
X35850000Y-35025000D03*
D15*
X21350000Y-30775000D03*
X21350000Y-33750000D03*
D11*
X26700000Y-29700000D03*
D23*
X35617000Y-30151000D03*
D12*
X18350000Y-28562500D03*
X18350000Y-25462500D03*
X42100000Y-38150000D03*
X42100000Y-35050000D03*
D24*
X39100000Y-35025000D03*
X39100000Y-38150000D03*
D25*
X40000000Y-29000000D03*
D26*
X30100000Y-20000000D03*
X29100000Y-20000000D03*
X29100000Y-19000000D03*
X32100000Y-20000000D03*
X32100000Y-22100000D03*
X32100000Y-21100000D03*
X27100000Y-17000000D03*
X26100000Y-17000000D03*
X27100000Y-18000000D03*
X26100000Y-18000000D03*
X20600000Y-23750000D03*
X22000000Y-16250000D03*
X24000000Y-16250000D03*
X39500000Y-17000000D03*
X39100000Y-36700000D03*
X23000000Y-16250000D03*
X28600000Y-39525000D03*
X22550000Y-32500000D03*
X28350000Y-31500000D03*
X25500000Y-30200000D03*
X27100000Y-28600000D03*
X26300000Y-28600000D03*
X25500000Y-28600000D03*
X38200000Y-33800000D03*
X24850000Y-33750000D03*
X25500000Y-29400000D03*
X23350000Y-38500000D03*
X32100000Y-31700000D03*
X25500000Y-25700000D03*
X25500000Y-26500000D03*
X27100000Y-26500000D03*
X25500000Y-24900000D03*
X26300000Y-26500000D03*
X35100000Y-17000000D03*
X32100000Y-17000000D03*
X32100000Y-18000000D03*
X31100000Y-18000000D03*
X29100000Y-18000000D03*
X30100000Y-17000000D03*
X32100000Y-19000000D03*
X28100000Y-18000000D03*
X30100000Y-19000000D03*
X31100000Y-17000000D03*
X29100000Y-17000000D03*
X31100000Y-21100000D03*
X31100000Y-19000000D03*
X30100000Y-18000000D03*
X36100000Y-17000000D03*
X34100000Y-17000000D03*
X28100000Y-17000000D03*
X33100000Y-17000000D03*
X31100000Y-20000000D03*
X27850000Y-34357893D03*
X39600000Y-40000000D03*
D27*
X20800000Y-38887500D02*
X21437500Y-39525000D01*
X28600000Y-39525000D02*
X29760000Y-39525000D01*
X29760000Y-39525000D02*
X30105000Y-39180000D01*
X30105000Y-39180000D02*
X30105000Y-38680000D01*
X21437500Y-39525000D02*
X28600000Y-39525000D01*
X28350000Y-33115000D02*
X30105000Y-34870000D01*
X19600000Y-32500000D02*
X18350000Y-33750000D01*
X28350000Y-31500000D02*
X28350000Y-33115000D01*
X18350000Y-33750000D02*
X18350000Y-36062500D01*
X32920000Y-34870000D02*
X33050000Y-35000000D01*
X30105000Y-34870000D02*
X32920000Y-34870000D01*
X18350000Y-36062500D02*
X18900000Y-36612500D01*
X33375000Y-35000000D02*
X33050000Y-35000000D01*
X22550000Y-32500000D02*
X19600000Y-32500000D01*
X25155000Y-38680000D02*
X23530000Y-38680000D01*
X24850000Y-30850000D02*
X25500000Y-30200000D01*
X38650000Y-34250000D02*
X38200000Y-33800000D01*
X32100000Y-31700000D02*
X32100000Y-29000000D01*
X31862500Y-28762500D02*
X29722500Y-28762500D01*
X23530000Y-38680000D02*
X23350000Y-38500000D01*
X38650000Y-35025000D02*
X38650000Y-34250000D01*
X24850000Y-33750000D02*
X24850000Y-30850000D01*
X32100000Y-29000000D02*
X31862500Y-28762500D01*
X34725000Y-39275000D02*
X35850000Y-38150000D01*
X31530000Y-38601878D02*
X32203122Y-39275000D01*
X32203122Y-39275000D02*
X34725000Y-39275000D01*
X31530000Y-37860001D02*
X31530000Y-38601878D01*
X31079999Y-37410000D02*
X31530000Y-37860001D01*
X30105000Y-37410000D02*
X31079999Y-37410000D01*
X29260000Y-23300000D02*
X29722500Y-22837500D01*
X23300000Y-23800000D02*
X23800000Y-23300000D01*
X23800000Y-23300000D02*
X29260000Y-23300000D01*
X25155000Y-36140000D02*
X24440000Y-36140000D01*
X23300000Y-35000000D02*
X23300000Y-23800000D01*
X24440000Y-36140000D02*
X23300000Y-35000000D01*
X34112500Y-37037500D02*
X36796878Y-37037500D01*
X30105000Y-36140000D02*
X31090000Y-36140000D01*
X37200000Y-37440622D02*
X37200000Y-38859378D01*
X36796878Y-37037500D02*
X37200000Y-37440622D01*
X19850000Y-39600000D02*
X19850000Y-38600000D01*
X31090000Y-36140000D02*
X33050000Y-38100000D01*
X20525000Y-40275000D02*
X19850000Y-39600000D01*
X35784378Y-40275000D02*
X20525000Y-40275000D01*
X33050000Y-38100000D02*
X34112500Y-37037500D01*
X37200000Y-38859378D02*
X35784378Y-40275000D01*
D28*
X24985000Y-34700000D02*
X24700000Y-34700000D01*
D27*
X27850000Y-34357893D02*
X25667107Y-34357893D01*
X40250000Y-40000000D02*
X42100000Y-38150000D01*
X25667107Y-34357893D02*
X25155000Y-34870000D01*
X39600000Y-40000000D02*
X40250000Y-40000000D01*
X18350000Y-30775000D02*
X18350000Y-28562500D01*
X21350000Y-30775000D02*
X21350000Y-28562500D01*
X42100000Y-35050000D02*
X41600000Y-34550000D01*
X41600000Y-29000000D02*
X41600000Y-19983750D01*
X41600000Y-34550000D02*
X41600000Y-29000000D01*
X40406250Y-18790000D02*
X38922500Y-18790000D01*
X41600000Y-29000000D02*
X40000000Y-29000000D01*
X41600000Y-19983750D02*
X40406250Y-18790000D01*
X21350000Y-33750000D02*
X21350000Y-36062500D01*
X21350000Y-36062500D02*
X20800000Y-36612500D01*
G04 #@! TA.AperFunction,Conductor*
G36*
X33162799Y-27725185D02*
G01*
X33208554Y-27777989D01*
X33218498Y-27847147D01*
X33190268Y-27909776D01*
X32985641Y-28150680D01*
X32985634Y-28150690D01*
X32784790Y-28446913D01*
X32784784Y-28446922D01*
X32617151Y-28763111D01*
X32617142Y-28763129D01*
X32484674Y-29095600D01*
X32484672Y-29095607D01*
X32388932Y-29440434D01*
X32388926Y-29440460D01*
X32331029Y-29793614D01*
X32331028Y-29793631D01*
X32311652Y-30150997D01*
X32311652Y-30151002D01*
X32331028Y-30508368D01*
X32331029Y-30508385D01*
X32355220Y-30655939D01*
X32346641Y-30725280D01*
X32301935Y-30778975D01*
X32235296Y-30799976D01*
X32232854Y-30800000D01*
X28776289Y-30800000D01*
X28710315Y-30780993D01*
X28699521Y-30774210D01*
X28529254Y-30714631D01*
X28529249Y-30714630D01*
X28350004Y-30694435D01*
X28349996Y-30694435D01*
X28170750Y-30714630D01*
X28170745Y-30714631D01*
X28000478Y-30774210D01*
X27989685Y-30780993D01*
X27923711Y-30800000D01*
X24274000Y-30800000D01*
X24206961Y-30780315D01*
X24161206Y-30727511D01*
X24150000Y-30676000D01*
X24150000Y-27829500D01*
X24169685Y-27762461D01*
X24222489Y-27716706D01*
X24274000Y-27705500D01*
X33095760Y-27705500D01*
X33162799Y-27725185D01*
G37*
G04 #@! TD.AperFunction*
G04 #@! TA.AperFunction,Conductor*
G36*
X38356382Y-19416612D02*
G01*
X38360898Y-19419219D01*
X38507585Y-19479979D01*
X38625479Y-19495500D01*
X38639907Y-19495499D01*
X38687366Y-19504939D01*
X38703584Y-19511657D01*
X38703591Y-19511659D01*
X38848579Y-19540500D01*
X38848582Y-19540500D01*
X40044020Y-19540500D01*
X40111059Y-19560185D01*
X40131701Y-19576819D01*
X40464714Y-19909832D01*
X40763681Y-20208798D01*
X40797166Y-20270121D01*
X40800000Y-20296479D01*
X40800000Y-27076000D01*
X40780315Y-27143039D01*
X40727511Y-27188794D01*
X40676000Y-27200000D01*
X37126221Y-27200000D01*
X37074155Y-27188539D01*
X36840447Y-27080414D01*
X36840441Y-27080411D01*
X36840435Y-27080409D01*
X36670854Y-27023270D01*
X36501273Y-26966131D01*
X36151744Y-26889194D01*
X35795949Y-26850500D01*
X35795948Y-26850500D01*
X35438052Y-26850500D01*
X35438050Y-26850500D01*
X35082255Y-26889194D01*
X34732726Y-26966131D01*
X34476970Y-27052306D01*
X34393565Y-27080409D01*
X34393563Y-27080410D01*
X34393552Y-27080414D01*
X34159845Y-27188539D01*
X34107779Y-27200000D01*
X24274000Y-27200000D01*
X24206961Y-27180315D01*
X24161206Y-27127511D01*
X24150000Y-27076000D01*
X24150000Y-24429500D01*
X24169685Y-24362461D01*
X24222489Y-24316706D01*
X24274000Y-24305500D01*
X37275990Y-24305500D01*
X37276000Y-24305500D01*
X37383456Y-24293947D01*
X37434967Y-24282741D01*
X37469197Y-24271347D01*
X37537497Y-24248616D01*
X37537501Y-24248613D01*
X37537504Y-24248613D01*
X37658543Y-24170825D01*
X37711347Y-24125070D01*
X37805567Y-24016336D01*
X37865338Y-23885459D01*
X37885023Y-23818420D01*
X37885024Y-23818416D01*
X37905500Y-23676000D01*
X37905500Y-19524000D01*
X37925185Y-19456961D01*
X37977989Y-19411206D01*
X38029500Y-19400000D01*
X38294383Y-19400000D01*
X38356382Y-19416612D01*
G37*
G04 #@! TD.AperFunction*
G04 #@! TA.AperFunction,Conductor*
G36*
X21385099Y-15520185D02*
G01*
X21430854Y-15572989D01*
X21440798Y-15642147D01*
X21411773Y-15705703D01*
X21405741Y-15712181D01*
X21370184Y-15747737D01*
X21274211Y-15900476D01*
X21214631Y-16070745D01*
X21214630Y-16070750D01*
X21194435Y-16249996D01*
X21194435Y-16250003D01*
X21214630Y-16429249D01*
X21214631Y-16429254D01*
X21274211Y-16599523D01*
X21370184Y-16752262D01*
X21497738Y-16879816D01*
X21650478Y-16975789D01*
X21820745Y-17035368D01*
X21820750Y-17035369D01*
X21999996Y-17055565D01*
X22000000Y-17055565D01*
X22000004Y-17055565D01*
X22179249Y-17035369D01*
X22179252Y-17035368D01*
X22179255Y-17035368D01*
X22349522Y-16975789D01*
X22434027Y-16922691D01*
X22501264Y-16903690D01*
X22565973Y-16922691D01*
X22650475Y-16975788D01*
X22820745Y-17035368D01*
X22820750Y-17035369D01*
X22999996Y-17055565D01*
X23000000Y-17055565D01*
X23000004Y-17055565D01*
X23179249Y-17035369D01*
X23179252Y-17035368D01*
X23179255Y-17035368D01*
X23349522Y-16975789D01*
X23434027Y-16922691D01*
X23501264Y-16903690D01*
X23565973Y-16922691D01*
X23650475Y-16975788D01*
X23820745Y-17035368D01*
X23820750Y-17035369D01*
X23999996Y-17055565D01*
X24000000Y-17055565D01*
X24000004Y-17055565D01*
X24179249Y-17035369D01*
X24179252Y-17035368D01*
X24179255Y-17035368D01*
X24349522Y-16975789D01*
X24502262Y-16879816D01*
X24629816Y-16752262D01*
X24725789Y-16599522D01*
X24785368Y-16429255D01*
X24805565Y-16250000D01*
X24785368Y-16070745D01*
X24725789Y-15900478D01*
X24629816Y-15747738D01*
X24594259Y-15712181D01*
X24560774Y-15650858D01*
X24565758Y-15581166D01*
X24607630Y-15525233D01*
X24673094Y-15500816D01*
X24681940Y-15500500D01*
X37276000Y-15500500D01*
X37343039Y-15520185D01*
X37388794Y-15572989D01*
X37400000Y-15624500D01*
X37400000Y-23676000D01*
X37380315Y-23743039D01*
X37327511Y-23788794D01*
X37276000Y-23800000D01*
X28350000Y-23800000D01*
X21522012Y-23800000D01*
X21454973Y-23780315D01*
X21409218Y-23727511D01*
X21398792Y-23689883D01*
X21385369Y-23570750D01*
X21385368Y-23570745D01*
X21325788Y-23400476D01*
X21229815Y-23247737D01*
X21102262Y-23120184D01*
X20949523Y-23024211D01*
X20779254Y-22964631D01*
X20779249Y-22964630D01*
X20600004Y-22944435D01*
X20599996Y-22944435D01*
X20420750Y-22964630D01*
X20420745Y-22964631D01*
X20250476Y-23024211D01*
X20097737Y-23120184D01*
X19970184Y-23247737D01*
X19874211Y-23400476D01*
X19814631Y-23570745D01*
X19814630Y-23570750D01*
X19801208Y-23689883D01*
X19774142Y-23754297D01*
X19716547Y-23793852D01*
X19677988Y-23800000D01*
X16474500Y-23800000D01*
X16407461Y-23780315D01*
X16361706Y-23727511D01*
X16350500Y-23676000D01*
X16350500Y-15624500D01*
X16370185Y-15557461D01*
X16422989Y-15511706D01*
X16474500Y-15500500D01*
X21318060Y-15500500D01*
X21385099Y-15520185D01*
G37*
G04 #@! TD.AperFunction*
G04 #@! TA.AperFunction,Conductor*
G36*
X20652180Y-23459011D02*
G01*
X20679238Y-23465187D01*
X20715623Y-23477918D01*
X20740629Y-23489960D01*
X20773271Y-23510471D01*
X20794974Y-23527780D01*
X20822216Y-23555022D01*
X20839528Y-23576730D01*
X20860033Y-23609363D01*
X20872081Y-23634381D01*
X20884809Y-23670755D01*
X20890988Y-23697826D01*
X20896469Y-23746474D01*
X20896471Y-23746483D01*
X20911644Y-23824855D01*
X20911646Y-23824862D01*
X20922072Y-23862490D01*
X20922074Y-23862496D01*
X20922077Y-23862506D01*
X20949396Y-23937496D01*
X20949399Y-23937504D01*
X20949402Y-23937508D01*
X21027183Y-24058537D01*
X21027191Y-24058548D01*
X21072935Y-24111340D01*
X21072938Y-24111343D01*
X21072942Y-24111347D01*
X21181676Y-24205567D01*
X21312553Y-24265338D01*
X21379592Y-24285023D01*
X21379596Y-24285024D01*
X21522012Y-24305500D01*
X22425500Y-24305500D01*
X22492539Y-24325185D01*
X22538294Y-24377989D01*
X22549500Y-24429500D01*
X22549500Y-27412898D01*
X22529815Y-27479937D01*
X22477011Y-27525692D01*
X22407853Y-27535636D01*
X22360404Y-27518437D01*
X22294340Y-27477690D01*
X22294334Y-27477686D01*
X22127797Y-27422501D01*
X22127795Y-27422500D01*
X22025010Y-27412000D01*
X20674998Y-27412000D01*
X20674981Y-27412001D01*
X20572203Y-27422500D01*
X20572200Y-27422501D01*
X20405668Y-27477685D01*
X20405663Y-27477687D01*
X20256342Y-27569789D01*
X20132289Y-27693842D01*
X20040187Y-27843163D01*
X20040186Y-27843166D01*
X19985001Y-28009703D01*
X19985001Y-28009704D01*
X19985000Y-28009704D01*
X19974500Y-28112483D01*
X19974500Y-29012501D01*
X19974501Y-29012519D01*
X19985000Y-29115296D01*
X19985001Y-29115299D01*
X20040185Y-29281831D01*
X20040187Y-29281836D01*
X20132289Y-29431157D01*
X20250952Y-29549820D01*
X20284437Y-29611143D01*
X20279453Y-29680835D01*
X20250952Y-29725182D01*
X20132289Y-29843844D01*
X20132286Y-29843848D01*
X20040187Y-29993162D01*
X20040186Y-29993164D01*
X19985001Y-30159703D01*
X19985000Y-30159704D01*
X19974500Y-30262484D01*
X19974500Y-31287515D01*
X19985000Y-31390295D01*
X19985001Y-31390297D01*
X20040186Y-31556834D01*
X20040187Y-31556835D01*
X20042387Y-31560402D01*
X20043149Y-31563190D01*
X20043238Y-31563379D01*
X20043205Y-31563394D01*
X20060828Y-31627794D01*
X20039906Y-31694458D01*
X19986265Y-31739228D01*
X19936849Y-31749500D01*
X19763151Y-31749500D01*
X19696112Y-31729815D01*
X19650357Y-31677011D01*
X19640413Y-31607853D01*
X19657613Y-31560402D01*
X19659814Y-31556834D01*
X19714999Y-31390297D01*
X19725500Y-31287508D01*
X19725500Y-30262492D01*
X19714999Y-30159703D01*
X19659814Y-29993166D01*
X19586619Y-29874500D01*
X19567713Y-29843848D01*
X19567710Y-29843844D01*
X19449048Y-29725182D01*
X19415563Y-29663859D01*
X19420547Y-29594167D01*
X19449048Y-29549820D01*
X19456071Y-29542797D01*
X19567712Y-29431156D01*
X19659814Y-29281834D01*
X19714999Y-29115297D01*
X19725500Y-29012509D01*
X19725499Y-28112492D01*
X19715435Y-28013976D01*
X19714999Y-28009703D01*
X19714998Y-28009700D01*
X19684969Y-27919079D01*
X19659814Y-27843166D01*
X19567712Y-27693844D01*
X19443656Y-27569788D01*
X19350888Y-27512569D01*
X19294336Y-27477687D01*
X19294331Y-27477685D01*
X19229092Y-27456067D01*
X19127797Y-27422501D01*
X19127795Y-27422500D01*
X19025010Y-27412000D01*
X17674998Y-27412000D01*
X17674981Y-27412001D01*
X17572203Y-27422500D01*
X17572200Y-27422501D01*
X17405668Y-27477685D01*
X17405663Y-27477687D01*
X17256342Y-27569789D01*
X17132289Y-27693842D01*
X17040187Y-27843163D01*
X17040186Y-27843166D01*
X16985001Y-28009703D01*
X16985001Y-28009704D01*
X16985000Y-28009704D01*
X16974500Y-28112483D01*
X16974500Y-29012501D01*
X16974501Y-29012519D01*
X16985000Y-29115296D01*
X16985001Y-29115299D01*
X17040185Y-29281831D01*
X17040187Y-29281836D01*
X17132289Y-29431157D01*
X17250952Y-29549820D01*
X17284437Y-29611143D01*
X17279453Y-29680835D01*
X17250952Y-29725182D01*
X17132289Y-29843844D01*
X17132286Y-29843848D01*
X17040187Y-29993162D01*
X17040186Y-29993164D01*
X16985001Y-30159703D01*
X16985000Y-30159704D01*
X16974500Y-30262484D01*
X16974500Y-31287515D01*
X16985000Y-31390295D01*
X16985001Y-31390297D01*
X17002592Y-31443384D01*
X17040186Y-31556835D01*
X17040187Y-31556837D01*
X17132286Y-31706151D01*
X17132289Y-31706155D01*
X17256344Y-31830210D01*
X17256348Y-31830213D01*
X17405662Y-31922312D01*
X17405664Y-31922313D01*
X17405666Y-31922314D01*
X17572203Y-31977499D01*
X17674992Y-31988000D01*
X17674997Y-31988000D01*
X18751269Y-31988000D01*
X18818308Y-32007685D01*
X18864063Y-32060489D01*
X18874007Y-32129647D01*
X18844982Y-32193203D01*
X18838950Y-32199681D01*
X18537951Y-32500681D01*
X18476628Y-32534166D01*
X18450270Y-32537000D01*
X17674984Y-32537000D01*
X17572204Y-32547500D01*
X17572203Y-32547501D01*
X17405664Y-32602686D01*
X17405662Y-32602687D01*
X17256348Y-32694786D01*
X17256344Y-32694789D01*
X17132289Y-32818844D01*
X17132286Y-32818848D01*
X17040187Y-32968162D01*
X17040186Y-32968164D01*
X16985001Y-33134703D01*
X16985000Y-33134704D01*
X16974500Y-33237484D01*
X16974500Y-34262515D01*
X16985000Y-34365295D01*
X16985001Y-34365296D01*
X17040186Y-34531835D01*
X17040187Y-34531837D01*
X17132286Y-34681151D01*
X17132289Y-34681155D01*
X17256344Y-34805210D01*
X17256348Y-34805213D01*
X17405662Y-34897312D01*
X17405664Y-34897313D01*
X17405666Y-34897314D01*
X17514505Y-34933379D01*
X17571949Y-34973151D01*
X17598772Y-35037667D01*
X17599500Y-35051085D01*
X17599500Y-36136418D01*
X17599500Y-36136420D01*
X17599499Y-36136420D01*
X17628340Y-36281407D01*
X17628343Y-36281417D01*
X17684912Y-36417988D01*
X17684916Y-36417995D01*
X17709338Y-36454545D01*
X17709339Y-36454548D01*
X17709340Y-36454548D01*
X17767048Y-36540916D01*
X18063182Y-36837049D01*
X18096666Y-36898371D01*
X18099500Y-36924729D01*
X18099500Y-37190701D01*
X18102401Y-37227567D01*
X18102402Y-37227573D01*
X18148254Y-37385393D01*
X18148255Y-37385396D01*
X18148256Y-37385398D01*
X18185681Y-37448681D01*
X18231917Y-37526862D01*
X18231923Y-37526870D01*
X18348129Y-37643076D01*
X18348140Y-37643085D01*
X18348455Y-37643271D01*
X18348650Y-37643480D01*
X18354298Y-37647861D01*
X18353591Y-37648772D01*
X18396136Y-37694343D01*
X18408637Y-37763085D01*
X18381988Y-37827673D01*
X18354078Y-37851856D01*
X18354298Y-37852139D01*
X18349092Y-37856176D01*
X18348455Y-37856729D01*
X18348140Y-37856914D01*
X18348129Y-37856923D01*
X18231923Y-37973129D01*
X18231917Y-37973137D01*
X18148255Y-38114603D01*
X18148254Y-38114606D01*
X18102402Y-38272426D01*
X18102401Y-38272432D01*
X18099500Y-38309298D01*
X18099500Y-39465701D01*
X18102401Y-39502567D01*
X18102402Y-39502573D01*
X18148254Y-39660393D01*
X18148255Y-39660396D01*
X18231917Y-39801862D01*
X18231923Y-39801870D01*
X18348129Y-39918076D01*
X18348133Y-39918079D01*
X18348135Y-39918081D01*
X18489602Y-40001744D01*
X18531224Y-40013836D01*
X18647426Y-40047597D01*
X18647429Y-40047597D01*
X18647431Y-40047598D01*
X18684306Y-40050500D01*
X18684314Y-40050500D01*
X19115686Y-40050500D01*
X19115694Y-40050500D01*
X19152569Y-40047598D01*
X19152572Y-40047597D01*
X19158799Y-40046460D01*
X19159319Y-40049309D01*
X19216568Y-40049341D01*
X19269249Y-40080618D01*
X19942049Y-40753416D01*
X20046583Y-40857950D01*
X20046585Y-40857952D01*
X20169498Y-40940080D01*
X20169511Y-40940087D01*
X20306082Y-40996656D01*
X20306087Y-40996658D01*
X20306091Y-40996658D01*
X20306092Y-40996659D01*
X20451079Y-41025500D01*
X20451082Y-41025500D01*
X35858298Y-41025500D01*
X35955840Y-41006096D01*
X36003291Y-40996658D01*
X36139873Y-40940084D01*
X36189107Y-40907186D01*
X36262794Y-40857952D01*
X37782952Y-39337794D01*
X37814888Y-39289998D01*
X37841271Y-39250513D01*
X37841273Y-39250508D01*
X37841279Y-39250500D01*
X37865084Y-39214873D01*
X37921658Y-39078291D01*
X37933521Y-39018655D01*
X37950500Y-38933298D01*
X37950500Y-37366703D01*
X37944026Y-37334159D01*
X37944026Y-37334157D01*
X37921660Y-37221716D01*
X37921659Y-37221710D01*
X37875974Y-37111418D01*
X37875974Y-37111417D01*
X37865087Y-37085133D01*
X37865085Y-37085129D01*
X37865084Y-37085127D01*
X37806534Y-36997501D01*
X37806532Y-36997498D01*
X37782954Y-36962209D01*
X37782952Y-36962207D01*
X37275299Y-36454552D01*
X37275298Y-36454551D01*
X37184059Y-36393588D01*
X37152373Y-36372416D01*
X37152366Y-36372412D01*
X37015795Y-36315843D01*
X37015785Y-36315840D01*
X36870798Y-36287000D01*
X36870796Y-36287000D01*
X34103777Y-36287000D01*
X34036738Y-36267315D01*
X33990983Y-36214511D01*
X33981039Y-36145353D01*
X34010064Y-36081797D01*
X34038678Y-36057462D01*
X34143656Y-35992712D01*
X34267712Y-35868656D01*
X34359814Y-35719334D01*
X34414999Y-35552797D01*
X34425500Y-35450009D01*
X34425499Y-34549992D01*
X34423644Y-34531837D01*
X34414999Y-34447203D01*
X34414998Y-34447200D01*
X34387858Y-34365297D01*
X34359814Y-34280666D01*
X34267712Y-34131344D01*
X34143656Y-34007288D01*
X33994334Y-33915186D01*
X33827797Y-33860001D01*
X33827795Y-33860000D01*
X33725010Y-33849500D01*
X32374998Y-33849500D01*
X32374981Y-33849501D01*
X32272203Y-33860000D01*
X32272200Y-33860001D01*
X32105668Y-33915185D01*
X32105663Y-33915187D01*
X31956342Y-34007289D01*
X31880451Y-34083181D01*
X31819128Y-34116666D01*
X31792770Y-34119500D01*
X31212328Y-34119500D01*
X31177733Y-34114576D01*
X31032573Y-34072402D01*
X31032567Y-34072401D01*
X30995701Y-34069500D01*
X30995694Y-34069500D01*
X30417230Y-34069500D01*
X30350191Y-34049815D01*
X30329549Y-34033181D01*
X29136819Y-32840451D01*
X29103334Y-32779128D01*
X29100500Y-32752770D01*
X29100500Y-31799972D01*
X29107458Y-31759017D01*
X29110788Y-31749500D01*
X29135368Y-31679255D01*
X29135621Y-31677011D01*
X29155565Y-31500003D01*
X29155565Y-31499997D01*
X29149186Y-31443384D01*
X29161240Y-31374562D01*
X29208589Y-31323183D01*
X29272406Y-31305500D01*
X31215187Y-31305500D01*
X31282226Y-31325185D01*
X31327981Y-31377989D01*
X31337925Y-31447147D01*
X31332229Y-31470454D01*
X31314631Y-31520747D01*
X31294435Y-31699996D01*
X31294435Y-31700003D01*
X31314630Y-31879249D01*
X31314631Y-31879254D01*
X31374211Y-32049523D01*
X31424557Y-32129647D01*
X31470184Y-32202262D01*
X31597738Y-32329816D01*
X31750478Y-32425789D01*
X31920745Y-32485368D01*
X31920750Y-32485369D01*
X32099996Y-32505565D01*
X32100000Y-32505565D01*
X32100004Y-32505565D01*
X32279249Y-32485369D01*
X32279252Y-32485368D01*
X32279255Y-32485368D01*
X32449522Y-32425789D01*
X32602262Y-32329816D01*
X32729816Y-32202262D01*
X32825789Y-32049522D01*
X32885368Y-31879255D01*
X32896675Y-31778902D01*
X32905565Y-31700003D01*
X32905565Y-31699996D01*
X32889836Y-31560402D01*
X32885368Y-31520745D01*
X32857458Y-31440982D01*
X32850500Y-31400028D01*
X32850500Y-30777338D01*
X32851438Y-30762114D01*
X32851648Y-30760409D01*
X32856895Y-30718007D01*
X32854060Y-30574156D01*
X32852133Y-30562407D01*
X32850500Y-30542345D01*
X32850500Y-29759659D01*
X32852133Y-29739599D01*
X32856841Y-29710883D01*
X32882248Y-29555899D01*
X32885129Y-29542810D01*
X32962616Y-29263723D01*
X32966903Y-29251003D01*
X33020972Y-29115297D01*
X33074106Y-28981938D01*
X33079735Y-28969770D01*
X33215416Y-28713848D01*
X33222333Y-28702352D01*
X33384881Y-28462613D01*
X33392992Y-28451943D01*
X33575541Y-28237030D01*
X33651115Y-28117503D01*
X33679345Y-28054874D01*
X33718853Y-27919083D01*
X33718852Y-27829499D01*
X33738536Y-27762462D01*
X33791339Y-27716706D01*
X33842852Y-27705500D01*
X34107774Y-27705500D01*
X34107779Y-27705500D01*
X34216450Y-27693681D01*
X34268516Y-27682220D01*
X34372100Y-27647318D01*
X34574846Y-27553516D01*
X34587286Y-27548559D01*
X34861794Y-27456065D01*
X34874717Y-27452477D01*
X35157612Y-27390207D01*
X35170821Y-27388041D01*
X35458773Y-27356726D01*
X35472179Y-27356000D01*
X35761819Y-27356000D01*
X35775224Y-27356726D01*
X36063173Y-27388041D01*
X36076389Y-27390207D01*
X36359278Y-27452476D01*
X36372211Y-27456067D01*
X36578848Y-27525692D01*
X36646685Y-27548549D01*
X36659151Y-27553516D01*
X36773602Y-27606467D01*
X36861897Y-27647317D01*
X36861899Y-27647317D01*
X36861902Y-27647319D01*
X36965484Y-27682220D01*
X37017550Y-27693681D01*
X37126221Y-27705500D01*
X37126226Y-27705500D01*
X40675990Y-27705500D01*
X40676000Y-27705500D01*
X40712244Y-27701603D01*
X40781004Y-27714008D01*
X40832141Y-27761618D01*
X40849500Y-27824892D01*
X40849500Y-28125500D01*
X40829815Y-28192539D01*
X40777011Y-28238294D01*
X40725500Y-28249500D01*
X40706978Y-28249500D01*
X40639939Y-28229815D01*
X40628313Y-28221353D01*
X40558539Y-28164090D01*
X40558532Y-28164086D01*
X40384733Y-28071188D01*
X40384727Y-28071186D01*
X40196132Y-28013976D01*
X40196129Y-28013975D01*
X40000000Y-27994659D01*
X39803870Y-28013975D01*
X39615266Y-28071188D01*
X39441467Y-28164086D01*
X39441460Y-28164090D01*
X39289116Y-28289116D01*
X39164090Y-28441460D01*
X39164086Y-28441467D01*
X39071188Y-28615266D01*
X39013975Y-28803870D01*
X38994659Y-29000000D01*
X39013975Y-29196129D01*
X39071188Y-29384733D01*
X39164086Y-29558532D01*
X39164090Y-29558539D01*
X39289116Y-29710883D01*
X39441460Y-29835909D01*
X39441467Y-29835913D01*
X39615266Y-29928811D01*
X39615269Y-29928811D01*
X39615273Y-29928814D01*
X39803868Y-29986024D01*
X40000000Y-30005341D01*
X40196132Y-29986024D01*
X40384727Y-29928814D01*
X40558538Y-29835910D01*
X40628313Y-29778647D01*
X40692623Y-29751334D01*
X40706978Y-29750500D01*
X40725500Y-29750500D01*
X40792539Y-29770185D01*
X40838294Y-29822989D01*
X40849500Y-29874500D01*
X40849500Y-33909159D01*
X40829815Y-33976198D01*
X40777011Y-34021953D01*
X40707853Y-34031897D01*
X40660404Y-34014698D01*
X40519340Y-33927689D01*
X40519335Y-33927687D01*
X40519334Y-33927686D01*
X40352797Y-33872501D01*
X40352795Y-33872500D01*
X40250016Y-33862000D01*
X40250009Y-33862000D01*
X39359645Y-33862000D01*
X39292606Y-33842315D01*
X39256543Y-33806891D01*
X39232952Y-33771585D01*
X39232951Y-33771584D01*
X39128416Y-33667049D01*
X39049075Y-33587708D01*
X38953308Y-33491940D01*
X38930643Y-33455870D01*
X38928812Y-33456753D01*
X38925792Y-33450483D01*
X38872120Y-33365064D01*
X38829816Y-33297738D01*
X38702262Y-33170184D01*
X38645796Y-33134704D01*
X38549523Y-33074211D01*
X38379254Y-33014631D01*
X38379249Y-33014630D01*
X38200004Y-32994435D01*
X38199996Y-32994435D01*
X38020750Y-33014630D01*
X38020745Y-33014631D01*
X37850476Y-33074211D01*
X37697737Y-33170184D01*
X37570184Y-33297737D01*
X37474211Y-33450476D01*
X37414631Y-33620745D01*
X37414630Y-33620750D01*
X37394435Y-33799996D01*
X37394435Y-33800003D01*
X37414631Y-33979252D01*
X37429779Y-34022544D01*
X37433340Y-34092323D01*
X37410013Y-34140396D01*
X37407295Y-34143833D01*
X37315187Y-34293163D01*
X37315185Y-34293168D01*
X37302760Y-34330666D01*
X37260001Y-34459703D01*
X37260001Y-34459704D01*
X37260000Y-34459704D01*
X37249500Y-34562483D01*
X37249500Y-35487501D01*
X37249501Y-35487519D01*
X37260000Y-35590296D01*
X37260001Y-35590299D01*
X37302759Y-35719331D01*
X37315186Y-35756834D01*
X37407288Y-35906156D01*
X37531344Y-36030212D01*
X37680666Y-36122314D01*
X37847203Y-36177499D01*
X37949991Y-36188000D01*
X40250008Y-36187999D01*
X40352797Y-36177499D01*
X40519334Y-36122314D01*
X40668656Y-36030212D01*
X40743569Y-35955299D01*
X40804892Y-35921814D01*
X40874584Y-35926798D01*
X40918931Y-35955299D01*
X41006344Y-36042712D01*
X41155666Y-36134814D01*
X41322203Y-36189999D01*
X41424991Y-36200500D01*
X42775008Y-36200499D01*
X42877797Y-36189999D01*
X43044334Y-36134814D01*
X43193656Y-36042712D01*
X43317712Y-35918656D01*
X43369961Y-35833945D01*
X43421909Y-35787221D01*
X43490871Y-35775998D01*
X43554953Y-35803841D01*
X43593810Y-35861910D01*
X43599500Y-35899042D01*
X43599500Y-37300957D01*
X43579815Y-37367996D01*
X43527011Y-37413751D01*
X43457853Y-37423695D01*
X43394297Y-37394670D01*
X43369961Y-37366054D01*
X43350288Y-37334159D01*
X43317712Y-37281344D01*
X43193656Y-37157288D01*
X43100888Y-37100069D01*
X43044336Y-37065187D01*
X43044331Y-37065185D01*
X43042862Y-37064698D01*
X42877797Y-37010001D01*
X42877795Y-37010000D01*
X42775010Y-36999500D01*
X41424998Y-36999500D01*
X41424981Y-36999501D01*
X41322203Y-37010000D01*
X41322200Y-37010001D01*
X41155668Y-37065185D01*
X41155663Y-37065187D01*
X41006342Y-37157289D01*
X40882289Y-37281342D01*
X40790187Y-37430663D01*
X40790186Y-37430666D01*
X40735001Y-37597203D01*
X40735001Y-37597204D01*
X40735000Y-37597204D01*
X40724500Y-37699983D01*
X40724500Y-38412769D01*
X40704815Y-38479808D01*
X40688181Y-38500450D01*
X39978613Y-39210018D01*
X39917290Y-39243503D01*
X39849977Y-39239378D01*
X39779262Y-39214633D01*
X39779249Y-39214630D01*
X39600004Y-39194435D01*
X39599996Y-39194435D01*
X39420750Y-39214630D01*
X39420745Y-39214631D01*
X39250476Y-39274211D01*
X39097737Y-39370184D01*
X38970184Y-39497737D01*
X38874211Y-39650476D01*
X38814631Y-39820745D01*
X38814630Y-39820750D01*
X38794435Y-39999996D01*
X38794435Y-40000003D01*
X38814630Y-40179249D01*
X38814631Y-40179254D01*
X38874211Y-40349523D01*
X38970184Y-40502262D01*
X39097738Y-40629816D01*
X39188080Y-40686582D01*
X39243903Y-40721658D01*
X39250478Y-40725789D01*
X39340983Y-40757458D01*
X39420745Y-40785368D01*
X39420750Y-40785369D01*
X39599996Y-40805565D01*
X39600000Y-40805565D01*
X39600004Y-40805565D01*
X39779249Y-40785369D01*
X39779252Y-40785368D01*
X39779255Y-40785368D01*
X39859017Y-40757457D01*
X39899972Y-40750500D01*
X40323920Y-40750500D01*
X40421462Y-40731096D01*
X40468913Y-40721658D01*
X40605495Y-40665084D01*
X40658277Y-40629816D01*
X40728416Y-40582952D01*
X41974548Y-39336817D01*
X42035871Y-39303333D01*
X42062229Y-39300499D01*
X42775002Y-39300499D01*
X42775008Y-39300499D01*
X42877797Y-39289999D01*
X43044334Y-39234814D01*
X43193656Y-39142712D01*
X43317712Y-39018656D01*
X43369961Y-38933945D01*
X43421909Y-38887221D01*
X43490871Y-38875998D01*
X43554953Y-38903841D01*
X43593810Y-38961910D01*
X43599500Y-38999042D01*
X43599500Y-41375500D01*
X43579815Y-41442539D01*
X43527011Y-41488294D01*
X43475500Y-41499500D01*
X16474500Y-41499500D01*
X16407461Y-41479815D01*
X16361706Y-41427011D01*
X16350500Y-41375500D01*
X16350500Y-24429500D01*
X16370185Y-24362461D01*
X16422989Y-24316706D01*
X16474500Y-24305500D01*
X19677981Y-24305500D01*
X19677988Y-24305500D01*
X19757582Y-24299194D01*
X19796141Y-24293046D01*
X19873735Y-24274292D01*
X20002723Y-24210546D01*
X20060318Y-24170991D01*
X20060323Y-24170987D01*
X20166126Y-24073481D01*
X20240173Y-23950118D01*
X20267239Y-23885704D01*
X20303530Y-23746477D01*
X20309011Y-23697819D01*
X20315189Y-23670755D01*
X20327918Y-23634374D01*
X20339958Y-23609372D01*
X20360474Y-23576721D01*
X20377776Y-23555027D01*
X20405026Y-23527777D01*
X20426726Y-23510471D01*
X20459367Y-23489961D01*
X20484366Y-23477921D01*
X20520759Y-23465187D01*
X20547818Y-23459012D01*
X20572810Y-23456195D01*
X20586116Y-23454696D01*
X20613872Y-23454696D01*
X20652180Y-23459011D01*
G37*
G04 #@! TD.AperFunction*
G04 #@! TA.AperFunction,Conductor*
G36*
X22494458Y-34859043D02*
G01*
X22539228Y-34912685D01*
X22549500Y-34962100D01*
X22549500Y-35073918D01*
X22549500Y-35073920D01*
X22549499Y-35073920D01*
X22578340Y-35218907D01*
X22578343Y-35218917D01*
X22634913Y-35355490D01*
X22634914Y-35355492D01*
X22662927Y-35397416D01*
X22662928Y-35397418D01*
X22717043Y-35478410D01*
X22717047Y-35478415D01*
X23680855Y-36442222D01*
X23712250Y-36495308D01*
X23728253Y-36550393D01*
X23728255Y-36550396D01*
X23811917Y-36691862D01*
X23816702Y-36698031D01*
X23814256Y-36699927D01*
X23840857Y-36748642D01*
X23835873Y-36818334D01*
X23815069Y-36850703D01*
X23816702Y-36851969D01*
X23811917Y-36858137D01*
X23728255Y-36999603D01*
X23728254Y-36999606D01*
X23682402Y-37157426D01*
X23682401Y-37157432D01*
X23679500Y-37194298D01*
X23679500Y-37593432D01*
X23659815Y-37660471D01*
X23607011Y-37706226D01*
X23537853Y-37716170D01*
X23530043Y-37714720D01*
X23350004Y-37694435D01*
X23349996Y-37694435D01*
X23170750Y-37714630D01*
X23170745Y-37714631D01*
X23000476Y-37774211D01*
X22847737Y-37870184D01*
X22720184Y-37997737D01*
X22624211Y-38150476D01*
X22564631Y-38320745D01*
X22564630Y-38320750D01*
X22544435Y-38499996D01*
X22544435Y-38500003D01*
X22564630Y-38679249D01*
X22564631Y-38679254D01*
X22624211Y-38849523D01*
X22676851Y-38933298D01*
X22720184Y-39002262D01*
X22847738Y-39129816D01*
X23000478Y-39225789D01*
X23000485Y-39225791D01*
X23006752Y-39228810D01*
X23005869Y-39230642D01*
X23041939Y-39253307D01*
X23051580Y-39262948D01*
X23051584Y-39262951D01*
X23103137Y-39297398D01*
X23147942Y-39351010D01*
X23156649Y-39420335D01*
X23126495Y-39483363D01*
X23067052Y-39520082D01*
X23034246Y-39524500D01*
X20887229Y-39524500D01*
X20820190Y-39504815D01*
X20799553Y-39488185D01*
X20686817Y-39375449D01*
X20653334Y-39314128D01*
X20650500Y-39287770D01*
X20650500Y-38309313D01*
X20650499Y-38309298D01*
X20647598Y-38272432D01*
X20647597Y-38272426D01*
X20601745Y-38114606D01*
X20601744Y-38114603D01*
X20601744Y-38114602D01*
X20518081Y-37973135D01*
X20514110Y-37966420D01*
X20515928Y-37965344D01*
X20494381Y-37910468D01*
X20508059Y-37841950D01*
X20556609Y-37791704D01*
X20617895Y-37775500D01*
X21015686Y-37775500D01*
X21015694Y-37775500D01*
X21052569Y-37772598D01*
X21052571Y-37772597D01*
X21052573Y-37772597D01*
X21130351Y-37750000D01*
X21210398Y-37726744D01*
X21351865Y-37643081D01*
X21468081Y-37526865D01*
X21551744Y-37385398D01*
X21597598Y-37227569D01*
X21600500Y-37190694D01*
X21600500Y-36924729D01*
X21620185Y-36857690D01*
X21636819Y-36837048D01*
X21932948Y-36540919D01*
X21932949Y-36540918D01*
X21932951Y-36540916D01*
X22015084Y-36417995D01*
X22071658Y-36281413D01*
X22076513Y-36257005D01*
X22089842Y-36189998D01*
X22100500Y-36136420D01*
X22100500Y-35051085D01*
X22120185Y-34984046D01*
X22172989Y-34938291D01*
X22185489Y-34933381D01*
X22294334Y-34897314D01*
X22360403Y-34856561D01*
X22427795Y-34838121D01*
X22494458Y-34859043D01*
G37*
G04 #@! TD.AperFunction*
G04 #@! TA.AperFunction,Conductor*
G36*
X28573095Y-38795184D02*
G01*
X28618850Y-38847988D01*
X28629624Y-38893229D01*
X28629809Y-38893215D01*
X28629901Y-38894393D01*
X28629961Y-38894642D01*
X28630000Y-38895647D01*
X28632899Y-38932489D01*
X28632900Y-38932495D01*
X28678716Y-39090193D01*
X28678717Y-39090196D01*
X28762314Y-39231552D01*
X28762321Y-39231561D01*
X28843579Y-39312819D01*
X28877064Y-39374142D01*
X28872080Y-39443834D01*
X28830208Y-39499767D01*
X28764744Y-39524184D01*
X28755898Y-39524500D01*
X26504809Y-39524500D01*
X26437770Y-39504815D01*
X26392015Y-39452011D01*
X26382071Y-39382853D01*
X26411096Y-39319297D01*
X26417128Y-39312819D01*
X26498076Y-39231870D01*
X26498081Y-39231865D01*
X26581744Y-39090398D01*
X26627598Y-38932569D01*
X26630500Y-38895694D01*
X26630500Y-38895672D01*
X26630541Y-38894643D01*
X26630595Y-38894481D01*
X26630691Y-38893267D01*
X26630996Y-38893291D01*
X26652836Y-38828426D01*
X26707391Y-38784774D01*
X26754446Y-38775499D01*
X28506056Y-38775499D01*
X28573095Y-38795184D01*
G37*
G04 #@! TD.AperFunction*
G04 #@! TA.AperFunction,Conductor*
G36*
X43542539Y-15520185D02*
G01*
X43588294Y-15572989D01*
X43599500Y-15624500D01*
X43599500Y-34200957D01*
X43579815Y-34267996D01*
X43527011Y-34313751D01*
X43457853Y-34323695D01*
X43394297Y-34294670D01*
X43369961Y-34266054D01*
X43367770Y-34262502D01*
X43317712Y-34181344D01*
X43193656Y-34057288D01*
X43067139Y-33979252D01*
X43044336Y-33965187D01*
X43044331Y-33965185D01*
X43042862Y-33964698D01*
X42877797Y-33910001D01*
X42877795Y-33910000D01*
X42775016Y-33899500D01*
X42775009Y-33899500D01*
X42474500Y-33899500D01*
X42407461Y-33879815D01*
X42361706Y-33827011D01*
X42350500Y-33775500D01*
X42350500Y-19909829D01*
X42321659Y-19764842D01*
X42321658Y-19764841D01*
X42321658Y-19764837D01*
X42321656Y-19764832D01*
X42265087Y-19628261D01*
X42265080Y-19628248D01*
X42182952Y-19505335D01*
X42182951Y-19505334D01*
X42078416Y-19400799D01*
X40884671Y-18207052D01*
X40884664Y-18207046D01*
X40809589Y-18156883D01*
X40809490Y-18156818D01*
X40761745Y-18124916D01*
X40761744Y-18124915D01*
X40761742Y-18124914D01*
X40625167Y-18068343D01*
X40625157Y-18068340D01*
X40480170Y-18039500D01*
X40480168Y-18039500D01*
X38848582Y-18039500D01*
X38848580Y-18039500D01*
X38703589Y-18068341D01*
X38703582Y-18068343D01*
X38687358Y-18075063D01*
X38639918Y-18084500D01*
X38625478Y-18084500D01*
X38507593Y-18100019D01*
X38507584Y-18100021D01*
X38360900Y-18160779D01*
X38234936Y-18257436D01*
X38138278Y-18383401D01*
X38136883Y-18385819D01*
X38135173Y-18387448D01*
X38133334Y-18389846D01*
X38132959Y-18389559D01*
X38086312Y-18434031D01*
X38017704Y-18447249D01*
X37952841Y-18421276D01*
X37912317Y-18364359D01*
X37905500Y-18323811D01*
X37905500Y-15624500D01*
X37925185Y-15557461D01*
X37977989Y-15511706D01*
X38029500Y-15500500D01*
X43475500Y-15500500D01*
X43542539Y-15520185D01*
G37*
G04 #@! TD.AperFunction*
G04 #@! TA.AperFunction,Conductor*
G36*
X23999978Y-15520185D02*
G01*
X24045733Y-15572989D01*
X24056623Y-15615654D01*
X24066826Y-15758310D01*
X24117108Y-15893119D01*
X24136265Y-15928203D01*
X24150593Y-15954443D01*
X24222866Y-16050987D01*
X24228593Y-16059326D01*
X24260033Y-16109362D01*
X24272081Y-16134381D01*
X24284808Y-16170754D01*
X24290986Y-16197825D01*
X24295300Y-16236117D01*
X24295300Y-16263881D01*
X24290986Y-16302173D01*
X24284808Y-16329244D01*
X24272081Y-16365617D01*
X24260032Y-16390636D01*
X24239529Y-16423266D01*
X24222217Y-16444975D01*
X24194975Y-16472217D01*
X24173267Y-16489529D01*
X24140634Y-16510034D01*
X24115616Y-16522082D01*
X24079245Y-16534809D01*
X24052175Y-16540988D01*
X24018429Y-16544790D01*
X24013885Y-16545302D01*
X23986123Y-16545302D01*
X23947824Y-16540986D01*
X23920757Y-16534809D01*
X23884376Y-16522079D01*
X23859358Y-16510031D01*
X23834913Y-16494671D01*
X23708400Y-16437671D01*
X23708387Y-16437667D01*
X23659347Y-16423267D01*
X23643685Y-16418668D01*
X23643683Y-16418667D01*
X23643681Y-16418667D01*
X23643679Y-16418666D01*
X23506411Y-16398215D01*
X23363802Y-16417239D01*
X23296550Y-16436244D01*
X23165086Y-16494671D01*
X23140627Y-16510038D01*
X23115619Y-16522081D01*
X23098585Y-16528041D01*
X23079243Y-16534809D01*
X23052175Y-16540988D01*
X23018429Y-16544790D01*
X23013885Y-16545302D01*
X22986123Y-16545302D01*
X22947824Y-16540986D01*
X22920757Y-16534809D01*
X22884376Y-16522079D01*
X22859358Y-16510031D01*
X22834913Y-16494671D01*
X22708400Y-16437671D01*
X22708387Y-16437667D01*
X22659347Y-16423267D01*
X22643685Y-16418668D01*
X22643683Y-16418667D01*
X22643681Y-16418667D01*
X22643679Y-16418666D01*
X22506411Y-16398215D01*
X22363802Y-16417239D01*
X22296550Y-16436244D01*
X22165086Y-16494671D01*
X22140627Y-16510038D01*
X22115619Y-16522081D01*
X22098585Y-16528041D01*
X22079243Y-16534809D01*
X22052175Y-16540988D01*
X22018429Y-16544790D01*
X22013885Y-16545302D01*
X21986123Y-16545302D01*
X21947824Y-16540986D01*
X21920758Y-16534809D01*
X21884379Y-16522080D01*
X21859360Y-16510032D01*
X21834915Y-16494672D01*
X21826731Y-16489529D01*
X21805024Y-16472218D01*
X21777781Y-16444975D01*
X21760469Y-16423267D01*
X21739964Y-16390634D01*
X21727920Y-16365627D01*
X21715187Y-16329240D01*
X21709012Y-16302179D01*
X21704697Y-16263883D01*
X21704696Y-16236125D01*
X21709011Y-16197815D01*
X21715189Y-16170754D01*
X21727917Y-16134378D01*
X21739960Y-16109368D01*
X21761419Y-16075217D01*
X21775661Y-16056692D01*
X21775692Y-16056661D01*
X21781724Y-16050183D01*
X21793805Y-16036735D01*
X21871592Y-15915695D01*
X21900439Y-15852528D01*
X21900614Y-15852148D01*
X21900617Y-15852139D01*
X21900619Y-15852136D01*
X21941153Y-15714083D01*
X21941152Y-15624499D01*
X21960836Y-15557462D01*
X22013639Y-15511706D01*
X22065152Y-15500500D01*
X23932939Y-15500500D01*
X23999978Y-15520185D01*
G37*
G04 #@! TD.AperFunction*
M02*
