M48
; DRILL file {KiCad 8.0.1} date 2025-03-06T15:29:17-0500
; FORMAT={-:-/ absolute / inch / decimal}
; #@! TF.CreationDate,2025-03-06T15:29:17-05:00
; #@! TF.GenerationSoftware,Kicad,Pcbnew,8.0.1
; #@! TF.FileFunction,Plated,1,4,PTH
FMAT,2
INCH
; #@! TA.AperFunction,Plated,PTH,ViaDrill
T1C0.0118
; #@! TA.AperFunction,Plated,PTH,ComponentDrill
T2C0.0197
; #@! TA.AperFunction,Plated,PTH,ComponentDrill
T3C0.1260
%
G90
G05
T1
X0.811Y-0.935
X0.8661Y-0.6398
X0.8878Y-1.2795
X0.9055Y-0.6398
X0.9193Y-1.5157
X0.9449Y-0.6398
X0.9783Y-1.3287
X1.0039Y-0.9803
X1.0039Y-1.0118
X1.0039Y-1.0433
X1.0039Y-1.126
X1.0039Y-1.1575
X1.0039Y-1.189
X1.0354Y-1.0433
X1.0354Y-1.126
X1.0669Y-1.0433
X1.0669Y-1.126
X1.0965Y-1.3527
X1.1063Y-0.6693
X1.1063Y-0.7087
X1.1063Y-0.748
X1.1063Y-0.7874
X1.1161Y-1.2402
X1.126Y-1.5561
X1.1457Y-0.6693
X1.1457Y-0.7087
X1.1457Y-0.748
X1.1457Y-0.7874
X1.1457Y-0.8268
X1.185Y-0.6693
X1.185Y-0.7087
X1.185Y-0.748
X1.185Y-0.7874
X1.185Y-0.8268
X1.2244Y-0.6693
X1.2244Y-0.7087
X1.2244Y-0.748
X1.2244Y-0.7874
X1.2244Y-0.8268
X1.2638Y-0.6693
X1.2638Y-0.7087
X1.2638Y-0.748
X1.2638Y-1.248
X1.3031Y-0.6693
X1.3425Y-0.6693
X1.3819Y-0.6693
X1.4213Y-0.6693
X1.5039Y-1.3307
X1.5394Y-1.4449
X1.5551Y-0.6693
X1.5591Y-1.5748
T2
X1.0512Y-1.0
X1.0512Y-1.1693
T3
X1.4022Y-1.187
M30
