G04 #@! TF.GenerationSoftware,KiCad,Pcbnew,8.0.1*
G04 #@! TF.CreationDate,2025-02-26T15:35:36-05:00*
G04 #@! TF.ProjectId,Relay Stick Fix,52656c61-7920-4537-9469-636b20466978,rev?*
G04 #@! TF.SameCoordinates,Original*
G04 #@! TF.FileFunction,Legend,Top*
G04 #@! TF.FilePolarity,Positive*
%FSLAX46Y46*%
G04 Gerber Fmt 4.6, Leading zero omitted, Abs format (unit mm)*
G04 Created by KiCad (PCBNEW 8.0.1) date 2025-02-26 15:35:36*
%MOMM*%
%LPD*%
G01*
G04 APERTURE LIST*
G04 Aperture macros list*
%AMRoundRect*
0 Rectangle with rounded corners*
0 $1 Rounding radius*
0 $2 $3 $4 $5 $6 $7 $8 $9 X,Y pos of 4 corners*
0 Add a 4 corners polygon primitive as box body*
4,1,4,$2,$3,$4,$5,$6,$7,$8,$9,$2,$3,0*
0 Add four circle primitives for the rounded corners*
1,1,$1+$1,$2,$3*
1,1,$1+$1,$4,$5*
1,1,$1+$1,$6,$7*
1,1,$1+$1,$8,$9*
0 Add four rect primitives between the rounded corners*
20,1,$1+$1,$2,$3,$4,$5,0*
20,1,$1+$1,$4,$5,$6,$7,0*
20,1,$1+$1,$6,$7,$8,$9,0*
20,1,$1+$1,$8,$9,$2,$3,0*%
G04 Aperture macros list end*
%ADD10C,0.100000*%
%ADD11C,0.150000*%
%ADD12C,0.120000*%
%ADD13RoundRect,0.150000X0.150000X-0.512500X0.150000X0.512500X-0.150000X0.512500X-0.150000X-0.512500X0*%
%ADD14C,1.000000*%
%ADD15RoundRect,0.250000X0.625000X-0.400000X0.625000X0.400000X-0.625000X0.400000X-0.625000X-0.400000X0*%
%ADD16RoundRect,0.250000X-0.625000X0.400000X-0.625000X-0.400000X0.625000X-0.400000X0.625000X0.400000X0*%
%ADD17RoundRect,0.250000X1.425000X-0.362500X1.425000X0.362500X-1.425000X0.362500X-1.425000X-0.362500X0*%
%ADD18RoundRect,0.250001X-0.624999X0.462499X-0.624999X-0.462499X0.624999X-0.462499X0.624999X0.462499X0*%
%ADD19RoundRect,0.150000X0.825000X0.150000X-0.825000X0.150000X-0.825000X-0.150000X0.825000X-0.150000X0*%
%ADD20R,2.290000X3.000000*%
%ADD21RoundRect,0.102500X0.257500X0.102500X-0.257500X0.102500X-0.257500X-0.102500X0.257500X-0.102500X0*%
%ADD22R,0.510000X0.585000*%
%ADD23R,3.990000X3.960000*%
%ADD24R,0.410000X0.470000*%
%ADD25RoundRect,0.250000X0.650000X-0.412500X0.650000X0.412500X-0.650000X0.412500X-0.650000X-0.412500X0*%
%ADD26C,5.600000*%
%ADD27RoundRect,0.250000X-1.100000X0.412500X-1.100000X-0.412500X1.100000X-0.412500X1.100000X0.412500X0*%
G04 APERTURE END LIST*
D10*
X18106265Y-18104912D02*
X18249122Y-18152531D01*
X18249122Y-18152531D02*
X18487217Y-18152531D01*
X18487217Y-18152531D02*
X18582455Y-18104912D01*
X18582455Y-18104912D02*
X18630074Y-18057292D01*
X18630074Y-18057292D02*
X18677693Y-17962054D01*
X18677693Y-17962054D02*
X18677693Y-17866816D01*
X18677693Y-17866816D02*
X18630074Y-17771578D01*
X18630074Y-17771578D02*
X18582455Y-17723959D01*
X18582455Y-17723959D02*
X18487217Y-17676340D01*
X18487217Y-17676340D02*
X18296741Y-17628721D01*
X18296741Y-17628721D02*
X18201503Y-17581102D01*
X18201503Y-17581102D02*
X18153884Y-17533483D01*
X18153884Y-17533483D02*
X18106265Y-17438245D01*
X18106265Y-17438245D02*
X18106265Y-17343007D01*
X18106265Y-17343007D02*
X18153884Y-17247769D01*
X18153884Y-17247769D02*
X18201503Y-17200150D01*
X18201503Y-17200150D02*
X18296741Y-17152531D01*
X18296741Y-17152531D02*
X18534836Y-17152531D01*
X18534836Y-17152531D02*
X18677693Y-17200150D01*
X19106265Y-18152531D02*
X19106265Y-17152531D01*
X19106265Y-17152531D02*
X19439598Y-17866816D01*
X19439598Y-17866816D02*
X19772931Y-17152531D01*
X19772931Y-17152531D02*
X19772931Y-18152531D01*
X20582455Y-17628721D02*
X20725312Y-17676340D01*
X20725312Y-17676340D02*
X20772931Y-17723959D01*
X20772931Y-17723959D02*
X20820550Y-17819197D01*
X20820550Y-17819197D02*
X20820550Y-17962054D01*
X20820550Y-17962054D02*
X20772931Y-18057292D01*
X20772931Y-18057292D02*
X20725312Y-18104912D01*
X20725312Y-18104912D02*
X20630074Y-18152531D01*
X20630074Y-18152531D02*
X20249122Y-18152531D01*
X20249122Y-18152531D02*
X20249122Y-17152531D01*
X20249122Y-17152531D02*
X20582455Y-17152531D01*
X20582455Y-17152531D02*
X20677693Y-17200150D01*
X20677693Y-17200150D02*
X20725312Y-17247769D01*
X20725312Y-17247769D02*
X20772931Y-17343007D01*
X20772931Y-17343007D02*
X20772931Y-17438245D01*
X20772931Y-17438245D02*
X20725312Y-17533483D01*
X20725312Y-17533483D02*
X20677693Y-17581102D01*
X20677693Y-17581102D02*
X20582455Y-17628721D01*
X20582455Y-17628721D02*
X20249122Y-17628721D01*
X21249122Y-17771578D02*
X22011027Y-17771578D01*
X22344360Y-17152531D02*
X22677693Y-18152531D01*
X22677693Y-18152531D02*
X23011026Y-17152531D01*
X23534836Y-17152531D02*
X23630074Y-17152531D01*
X23630074Y-17152531D02*
X23725312Y-17200150D01*
X23725312Y-17200150D02*
X23772931Y-17247769D01*
X23772931Y-17247769D02*
X23820550Y-17343007D01*
X23820550Y-17343007D02*
X23868169Y-17533483D01*
X23868169Y-17533483D02*
X23868169Y-17771578D01*
X23868169Y-17771578D02*
X23820550Y-17962054D01*
X23820550Y-17962054D02*
X23772931Y-18057292D01*
X23772931Y-18057292D02*
X23725312Y-18104912D01*
X23725312Y-18104912D02*
X23630074Y-18152531D01*
X23630074Y-18152531D02*
X23534836Y-18152531D01*
X23534836Y-18152531D02*
X23439598Y-18104912D01*
X23439598Y-18104912D02*
X23391979Y-18057292D01*
X23391979Y-18057292D02*
X23344360Y-17962054D01*
X23344360Y-17962054D02*
X23296741Y-17771578D01*
X23296741Y-17771578D02*
X23296741Y-17533483D01*
X23296741Y-17533483D02*
X23344360Y-17343007D01*
X23344360Y-17343007D02*
X23391979Y-17247769D01*
X23391979Y-17247769D02*
X23439598Y-17200150D01*
X23439598Y-17200150D02*
X23534836Y-17152531D01*
X24296741Y-18057292D02*
X24344360Y-18104912D01*
X24344360Y-18104912D02*
X24296741Y-18152531D01*
X24296741Y-18152531D02*
X24249122Y-18104912D01*
X24249122Y-18104912D02*
X24296741Y-18057292D01*
X24296741Y-18057292D02*
X24296741Y-18152531D01*
X24677693Y-17152531D02*
X25296740Y-17152531D01*
X25296740Y-17152531D02*
X24963407Y-17533483D01*
X24963407Y-17533483D02*
X25106264Y-17533483D01*
X25106264Y-17533483D02*
X25201502Y-17581102D01*
X25201502Y-17581102D02*
X25249121Y-17628721D01*
X25249121Y-17628721D02*
X25296740Y-17723959D01*
X25296740Y-17723959D02*
X25296740Y-17962054D01*
X25296740Y-17962054D02*
X25249121Y-18057292D01*
X25249121Y-18057292D02*
X25201502Y-18104912D01*
X25201502Y-18104912D02*
X25106264Y-18152531D01*
X25106264Y-18152531D02*
X24820550Y-18152531D01*
X24820550Y-18152531D02*
X24725312Y-18104912D01*
X24725312Y-18104912D02*
X24677693Y-18057292D01*
X18725312Y-19762475D02*
X18391979Y-19286284D01*
X18153884Y-19762475D02*
X18153884Y-18762475D01*
X18153884Y-18762475D02*
X18534836Y-18762475D01*
X18534836Y-18762475D02*
X18630074Y-18810094D01*
X18630074Y-18810094D02*
X18677693Y-18857713D01*
X18677693Y-18857713D02*
X18725312Y-18952951D01*
X18725312Y-18952951D02*
X18725312Y-19095808D01*
X18725312Y-19095808D02*
X18677693Y-19191046D01*
X18677693Y-19191046D02*
X18630074Y-19238665D01*
X18630074Y-19238665D02*
X18534836Y-19286284D01*
X18534836Y-19286284D02*
X18153884Y-19286284D01*
X19534836Y-19714856D02*
X19439598Y-19762475D01*
X19439598Y-19762475D02*
X19249122Y-19762475D01*
X19249122Y-19762475D02*
X19153884Y-19714856D01*
X19153884Y-19714856D02*
X19106265Y-19619617D01*
X19106265Y-19619617D02*
X19106265Y-19238665D01*
X19106265Y-19238665D02*
X19153884Y-19143427D01*
X19153884Y-19143427D02*
X19249122Y-19095808D01*
X19249122Y-19095808D02*
X19439598Y-19095808D01*
X19439598Y-19095808D02*
X19534836Y-19143427D01*
X19534836Y-19143427D02*
X19582455Y-19238665D01*
X19582455Y-19238665D02*
X19582455Y-19333903D01*
X19582455Y-19333903D02*
X19106265Y-19429141D01*
X20153884Y-19762475D02*
X20058646Y-19714856D01*
X20058646Y-19714856D02*
X20011027Y-19619617D01*
X20011027Y-19619617D02*
X20011027Y-18762475D01*
X20963408Y-19762475D02*
X20963408Y-19238665D01*
X20963408Y-19238665D02*
X20915789Y-19143427D01*
X20915789Y-19143427D02*
X20820551Y-19095808D01*
X20820551Y-19095808D02*
X20630075Y-19095808D01*
X20630075Y-19095808D02*
X20534837Y-19143427D01*
X20963408Y-19714856D02*
X20868170Y-19762475D01*
X20868170Y-19762475D02*
X20630075Y-19762475D01*
X20630075Y-19762475D02*
X20534837Y-19714856D01*
X20534837Y-19714856D02*
X20487218Y-19619617D01*
X20487218Y-19619617D02*
X20487218Y-19524379D01*
X20487218Y-19524379D02*
X20534837Y-19429141D01*
X20534837Y-19429141D02*
X20630075Y-19381522D01*
X20630075Y-19381522D02*
X20868170Y-19381522D01*
X20868170Y-19381522D02*
X20963408Y-19333903D01*
X21344361Y-19095808D02*
X21582456Y-19762475D01*
X21820551Y-19095808D02*
X21582456Y-19762475D01*
X21582456Y-19762475D02*
X21487218Y-20000570D01*
X21487218Y-20000570D02*
X21439599Y-20048189D01*
X21439599Y-20048189D02*
X21344361Y-20095808D01*
X22963409Y-19762475D02*
X22963409Y-18762475D01*
X23439599Y-19762475D02*
X23439599Y-19095808D01*
X23439599Y-19191046D02*
X23487218Y-19143427D01*
X23487218Y-19143427D02*
X23582456Y-19095808D01*
X23582456Y-19095808D02*
X23725313Y-19095808D01*
X23725313Y-19095808D02*
X23820551Y-19143427D01*
X23820551Y-19143427D02*
X23868170Y-19238665D01*
X23868170Y-19238665D02*
X23868170Y-19762475D01*
X23868170Y-19238665D02*
X23915789Y-19143427D01*
X23915789Y-19143427D02*
X24011027Y-19095808D01*
X24011027Y-19095808D02*
X24153884Y-19095808D01*
X24153884Y-19095808D02*
X24249123Y-19143427D01*
X24249123Y-19143427D02*
X24296742Y-19238665D01*
X24296742Y-19238665D02*
X24296742Y-19762475D01*
X24772932Y-19095808D02*
X24772932Y-20095808D01*
X24772932Y-19143427D02*
X24868170Y-19095808D01*
X24868170Y-19095808D02*
X25058646Y-19095808D01*
X25058646Y-19095808D02*
X25153884Y-19143427D01*
X25153884Y-19143427D02*
X25201503Y-19191046D01*
X25201503Y-19191046D02*
X25249122Y-19286284D01*
X25249122Y-19286284D02*
X25249122Y-19571998D01*
X25249122Y-19571998D02*
X25201503Y-19667236D01*
X25201503Y-19667236D02*
X25153884Y-19714856D01*
X25153884Y-19714856D02*
X25058646Y-19762475D01*
X25058646Y-19762475D02*
X24868170Y-19762475D01*
X24868170Y-19762475D02*
X24772932Y-19714856D01*
X25677694Y-19762475D02*
X25677694Y-19095808D01*
X25677694Y-19286284D02*
X25725313Y-19191046D01*
X25725313Y-19191046D02*
X25772932Y-19143427D01*
X25772932Y-19143427D02*
X25868170Y-19095808D01*
X25868170Y-19095808D02*
X25963408Y-19095808D01*
X26201504Y-19095808D02*
X26439599Y-19762475D01*
X26439599Y-19762475D02*
X26677694Y-19095808D01*
X27058647Y-19667236D02*
X27106266Y-19714856D01*
X27106266Y-19714856D02*
X27058647Y-19762475D01*
X27058647Y-19762475D02*
X27011028Y-19714856D01*
X27011028Y-19714856D02*
X27058647Y-19667236D01*
X27058647Y-19667236D02*
X27058647Y-19762475D01*
X18820550Y-21467657D02*
X18725312Y-21420038D01*
X18725312Y-21420038D02*
X18630074Y-21324800D01*
X18630074Y-21324800D02*
X18487217Y-21181942D01*
X18487217Y-21181942D02*
X18391979Y-21134323D01*
X18391979Y-21134323D02*
X18296741Y-21134323D01*
X18344360Y-21372419D02*
X18249122Y-21324800D01*
X18249122Y-21324800D02*
X18153884Y-21229561D01*
X18153884Y-21229561D02*
X18106265Y-21039085D01*
X18106265Y-21039085D02*
X18106265Y-20705752D01*
X18106265Y-20705752D02*
X18153884Y-20515276D01*
X18153884Y-20515276D02*
X18249122Y-20420038D01*
X18249122Y-20420038D02*
X18344360Y-20372419D01*
X18344360Y-20372419D02*
X18534836Y-20372419D01*
X18534836Y-20372419D02*
X18630074Y-20420038D01*
X18630074Y-20420038D02*
X18725312Y-20515276D01*
X18725312Y-20515276D02*
X18772931Y-20705752D01*
X18772931Y-20705752D02*
X18772931Y-21039085D01*
X18772931Y-21039085D02*
X18725312Y-21229561D01*
X18725312Y-21229561D02*
X18630074Y-21324800D01*
X18630074Y-21324800D02*
X18534836Y-21372419D01*
X18534836Y-21372419D02*
X18344360Y-21372419D01*
X19725312Y-21372419D02*
X19153884Y-21372419D01*
X19439598Y-21372419D02*
X19439598Y-20372419D01*
X19439598Y-20372419D02*
X19344360Y-20515276D01*
X19344360Y-20515276D02*
X19249122Y-20610514D01*
X19249122Y-20610514D02*
X19153884Y-20658133D01*
X20868170Y-20467657D02*
X20915789Y-20420038D01*
X20915789Y-20420038D02*
X21011027Y-20372419D01*
X21011027Y-20372419D02*
X21249122Y-20372419D01*
X21249122Y-20372419D02*
X21344360Y-20420038D01*
X21344360Y-20420038D02*
X21391979Y-20467657D01*
X21391979Y-20467657D02*
X21439598Y-20562895D01*
X21439598Y-20562895D02*
X21439598Y-20658133D01*
X21439598Y-20658133D02*
X21391979Y-20800990D01*
X21391979Y-20800990D02*
X20820551Y-21372419D01*
X20820551Y-21372419D02*
X21439598Y-21372419D01*
X22058646Y-20372419D02*
X22153884Y-20372419D01*
X22153884Y-20372419D02*
X22249122Y-20420038D01*
X22249122Y-20420038D02*
X22296741Y-20467657D01*
X22296741Y-20467657D02*
X22344360Y-20562895D01*
X22344360Y-20562895D02*
X22391979Y-20753371D01*
X22391979Y-20753371D02*
X22391979Y-20991466D01*
X22391979Y-20991466D02*
X22344360Y-21181942D01*
X22344360Y-21181942D02*
X22296741Y-21277180D01*
X22296741Y-21277180D02*
X22249122Y-21324800D01*
X22249122Y-21324800D02*
X22153884Y-21372419D01*
X22153884Y-21372419D02*
X22058646Y-21372419D01*
X22058646Y-21372419D02*
X21963408Y-21324800D01*
X21963408Y-21324800D02*
X21915789Y-21277180D01*
X21915789Y-21277180D02*
X21868170Y-21181942D01*
X21868170Y-21181942D02*
X21820551Y-20991466D01*
X21820551Y-20991466D02*
X21820551Y-20753371D01*
X21820551Y-20753371D02*
X21868170Y-20562895D01*
X21868170Y-20562895D02*
X21915789Y-20467657D01*
X21915789Y-20467657D02*
X21963408Y-20420038D01*
X21963408Y-20420038D02*
X22058646Y-20372419D01*
X22772932Y-20467657D02*
X22820551Y-20420038D01*
X22820551Y-20420038D02*
X22915789Y-20372419D01*
X22915789Y-20372419D02*
X23153884Y-20372419D01*
X23153884Y-20372419D02*
X23249122Y-20420038D01*
X23249122Y-20420038D02*
X23296741Y-20467657D01*
X23296741Y-20467657D02*
X23344360Y-20562895D01*
X23344360Y-20562895D02*
X23344360Y-20658133D01*
X23344360Y-20658133D02*
X23296741Y-20800990D01*
X23296741Y-20800990D02*
X22725313Y-21372419D01*
X22725313Y-21372419D02*
X23344360Y-21372419D01*
X24249122Y-20372419D02*
X23772932Y-20372419D01*
X23772932Y-20372419D02*
X23725313Y-20848609D01*
X23725313Y-20848609D02*
X23772932Y-20800990D01*
X23772932Y-20800990D02*
X23868170Y-20753371D01*
X23868170Y-20753371D02*
X24106265Y-20753371D01*
X24106265Y-20753371D02*
X24201503Y-20800990D01*
X24201503Y-20800990D02*
X24249122Y-20848609D01*
X24249122Y-20848609D02*
X24296741Y-20943847D01*
X24296741Y-20943847D02*
X24296741Y-21181942D01*
X24296741Y-21181942D02*
X24249122Y-21277180D01*
X24249122Y-21277180D02*
X24201503Y-21324800D01*
X24201503Y-21324800D02*
X24106265Y-21372419D01*
X24106265Y-21372419D02*
X23868170Y-21372419D01*
X23868170Y-21372419D02*
X23772932Y-21324800D01*
X23772932Y-21324800D02*
X23725313Y-21277180D01*
X38856265Y-24624800D02*
X38951503Y-24672419D01*
X38951503Y-24672419D02*
X39141979Y-24672419D01*
X39141979Y-24672419D02*
X39237217Y-24624800D01*
X39237217Y-24624800D02*
X39284836Y-24529561D01*
X39284836Y-24529561D02*
X39284836Y-24481942D01*
X39284836Y-24481942D02*
X39237217Y-24386704D01*
X39237217Y-24386704D02*
X39141979Y-24339085D01*
X39141979Y-24339085D02*
X38999122Y-24339085D01*
X38999122Y-24339085D02*
X38903884Y-24291466D01*
X38903884Y-24291466D02*
X38856265Y-24196228D01*
X38856265Y-24196228D02*
X38856265Y-24148609D01*
X38856265Y-24148609D02*
X38903884Y-24053371D01*
X38903884Y-24053371D02*
X38999122Y-24005752D01*
X38999122Y-24005752D02*
X39141979Y-24005752D01*
X39141979Y-24005752D02*
X39237217Y-24053371D01*
X39099122Y-27234990D02*
X39032455Y-27196895D01*
X39032455Y-27196895D02*
X38932455Y-27196895D01*
X38932455Y-27196895D02*
X38832455Y-27234990D01*
X38832455Y-27234990D02*
X38765789Y-27311180D01*
X38765789Y-27311180D02*
X38732455Y-27387371D01*
X38732455Y-27387371D02*
X38699122Y-27539752D01*
X38699122Y-27539752D02*
X38699122Y-27654038D01*
X38699122Y-27654038D02*
X38732455Y-27806419D01*
X38732455Y-27806419D02*
X38765789Y-27882609D01*
X38765789Y-27882609D02*
X38832455Y-27958800D01*
X38832455Y-27958800D02*
X38932455Y-27996895D01*
X38932455Y-27996895D02*
X38999122Y-27996895D01*
X38999122Y-27996895D02*
X39099122Y-27958800D01*
X39099122Y-27958800D02*
X39132455Y-27920704D01*
X39132455Y-27920704D02*
X39132455Y-27654038D01*
X39132455Y-27654038D02*
X38999122Y-27654038D01*
X39732455Y-27996895D02*
X39732455Y-27577847D01*
X39732455Y-27577847D02*
X39699122Y-27501657D01*
X39699122Y-27501657D02*
X39632455Y-27463561D01*
X39632455Y-27463561D02*
X39499122Y-27463561D01*
X39499122Y-27463561D02*
X39432455Y-27501657D01*
X39732455Y-27958800D02*
X39665789Y-27996895D01*
X39665789Y-27996895D02*
X39499122Y-27996895D01*
X39499122Y-27996895D02*
X39432455Y-27958800D01*
X39432455Y-27958800D02*
X39399122Y-27882609D01*
X39399122Y-27882609D02*
X39399122Y-27806419D01*
X39399122Y-27806419D02*
X39432455Y-27730228D01*
X39432455Y-27730228D02*
X39499122Y-27692133D01*
X39499122Y-27692133D02*
X39665789Y-27692133D01*
X39665789Y-27692133D02*
X39732455Y-27654038D01*
X39965788Y-27463561D02*
X40232455Y-27463561D01*
X40065788Y-27196895D02*
X40065788Y-27882609D01*
X40065788Y-27882609D02*
X40099122Y-27958800D01*
X40099122Y-27958800D02*
X40165788Y-27996895D01*
X40165788Y-27996895D02*
X40232455Y-27996895D01*
X40732455Y-27958800D02*
X40665788Y-27996895D01*
X40665788Y-27996895D02*
X40532455Y-27996895D01*
X40532455Y-27996895D02*
X40465788Y-27958800D01*
X40465788Y-27958800D02*
X40432455Y-27882609D01*
X40432455Y-27882609D02*
X40432455Y-27577847D01*
X40432455Y-27577847D02*
X40465788Y-27501657D01*
X40465788Y-27501657D02*
X40532455Y-27463561D01*
X40532455Y-27463561D02*
X40665788Y-27463561D01*
X40665788Y-27463561D02*
X40732455Y-27501657D01*
X40732455Y-27501657D02*
X40765788Y-27577847D01*
X40765788Y-27577847D02*
X40765788Y-27654038D01*
X40765788Y-27654038D02*
X40432455Y-27730228D01*
X25532455Y-23496895D02*
X25765789Y-24296895D01*
X25765789Y-24296895D02*
X25999122Y-23496895D01*
X26232455Y-24296895D02*
X26232455Y-23763561D01*
X26232455Y-23496895D02*
X26199122Y-23534990D01*
X26199122Y-23534990D02*
X26232455Y-23573085D01*
X26232455Y-23573085D02*
X26265789Y-23534990D01*
X26265789Y-23534990D02*
X26232455Y-23496895D01*
X26232455Y-23496895D02*
X26232455Y-23573085D01*
X26499122Y-23496895D02*
X26932455Y-23496895D01*
X26932455Y-23496895D02*
X26699122Y-23801657D01*
X26699122Y-23801657D02*
X26799122Y-23801657D01*
X26799122Y-23801657D02*
X26865788Y-23839752D01*
X26865788Y-23839752D02*
X26899122Y-23877847D01*
X26899122Y-23877847D02*
X26932455Y-23954038D01*
X26932455Y-23954038D02*
X26932455Y-24144514D01*
X26932455Y-24144514D02*
X26899122Y-24220704D01*
X26899122Y-24220704D02*
X26865788Y-24258800D01*
X26865788Y-24258800D02*
X26799122Y-24296895D01*
X26799122Y-24296895D02*
X26599122Y-24296895D01*
X26599122Y-24296895D02*
X26532455Y-24258800D01*
X26532455Y-24258800D02*
X26499122Y-24220704D01*
X21065789Y-40277847D02*
X20832455Y-40277847D01*
X20832455Y-40696895D02*
X20832455Y-39896895D01*
X20832455Y-39896895D02*
X21165789Y-39896895D01*
X21732455Y-40696895D02*
X21732455Y-40277847D01*
X21732455Y-40277847D02*
X21699122Y-40201657D01*
X21699122Y-40201657D02*
X21632455Y-40163561D01*
X21632455Y-40163561D02*
X21499122Y-40163561D01*
X21499122Y-40163561D02*
X21432455Y-40201657D01*
X21732455Y-40658800D02*
X21665789Y-40696895D01*
X21665789Y-40696895D02*
X21499122Y-40696895D01*
X21499122Y-40696895D02*
X21432455Y-40658800D01*
X21432455Y-40658800D02*
X21399122Y-40582609D01*
X21399122Y-40582609D02*
X21399122Y-40506419D01*
X21399122Y-40506419D02*
X21432455Y-40430228D01*
X21432455Y-40430228D02*
X21499122Y-40392133D01*
X21499122Y-40392133D02*
X21665789Y-40392133D01*
X21665789Y-40392133D02*
X21732455Y-40354038D01*
X22365788Y-40163561D02*
X22365788Y-40696895D01*
X22065788Y-40163561D02*
X22065788Y-40582609D01*
X22065788Y-40582609D02*
X22099122Y-40658800D01*
X22099122Y-40658800D02*
X22165788Y-40696895D01*
X22165788Y-40696895D02*
X22265788Y-40696895D01*
X22265788Y-40696895D02*
X22332455Y-40658800D01*
X22332455Y-40658800D02*
X22365788Y-40620704D01*
X22799121Y-40696895D02*
X22732455Y-40658800D01*
X22732455Y-40658800D02*
X22699121Y-40582609D01*
X22699121Y-40582609D02*
X22699121Y-39896895D01*
X22965788Y-40163561D02*
X23232455Y-40163561D01*
X23065788Y-39896895D02*
X23065788Y-40582609D01*
X23065788Y-40582609D02*
X23099122Y-40658800D01*
X23099122Y-40658800D02*
X23165788Y-40696895D01*
X23165788Y-40696895D02*
X23232455Y-40696895D01*
X17832455Y-40696895D02*
X17832455Y-39896895D01*
X17832455Y-39896895D02*
X18099122Y-39896895D01*
X18099122Y-39896895D02*
X18165789Y-39934990D01*
X18165789Y-39934990D02*
X18199122Y-39973085D01*
X18199122Y-39973085D02*
X18232455Y-40049276D01*
X18232455Y-40049276D02*
X18232455Y-40163561D01*
X18232455Y-40163561D02*
X18199122Y-40239752D01*
X18199122Y-40239752D02*
X18165789Y-40277847D01*
X18165789Y-40277847D02*
X18099122Y-40315942D01*
X18099122Y-40315942D02*
X17832455Y-40315942D01*
X18465789Y-39896895D02*
X18632455Y-40696895D01*
X18632455Y-40696895D02*
X18765789Y-40125466D01*
X18765789Y-40125466D02*
X18899122Y-40696895D01*
X18899122Y-40696895D02*
X19065789Y-39896895D01*
X19732455Y-40696895D02*
X19499122Y-40315942D01*
X19332455Y-40696895D02*
X19332455Y-39896895D01*
X19332455Y-39896895D02*
X19599122Y-39896895D01*
X19599122Y-39896895D02*
X19665789Y-39934990D01*
X19665789Y-39934990D02*
X19699122Y-39973085D01*
X19699122Y-39973085D02*
X19732455Y-40049276D01*
X19732455Y-40049276D02*
X19732455Y-40163561D01*
X19732455Y-40163561D02*
X19699122Y-40239752D01*
X19699122Y-40239752D02*
X19665789Y-40277847D01*
X19665789Y-40277847D02*
X19599122Y-40315942D01*
X19599122Y-40315942D02*
X19332455Y-40315942D01*
X26132455Y-30796895D02*
X26365789Y-31596895D01*
X26365789Y-31596895D02*
X26599122Y-30796895D01*
X26832455Y-31596895D02*
X26832455Y-30796895D01*
X26832455Y-31101657D02*
X26899122Y-31063561D01*
X26899122Y-31063561D02*
X27032455Y-31063561D01*
X27032455Y-31063561D02*
X27099122Y-31101657D01*
X27099122Y-31101657D02*
X27132455Y-31139752D01*
X27132455Y-31139752D02*
X27165789Y-31215942D01*
X27165789Y-31215942D02*
X27165789Y-31444514D01*
X27165789Y-31444514D02*
X27132455Y-31520704D01*
X27132455Y-31520704D02*
X27099122Y-31558800D01*
X27099122Y-31558800D02*
X27032455Y-31596895D01*
X27032455Y-31596895D02*
X26899122Y-31596895D01*
X26899122Y-31596895D02*
X26832455Y-31558800D01*
X27765788Y-31596895D02*
X27765788Y-31177847D01*
X27765788Y-31177847D02*
X27732455Y-31101657D01*
X27732455Y-31101657D02*
X27665788Y-31063561D01*
X27665788Y-31063561D02*
X27532455Y-31063561D01*
X27532455Y-31063561D02*
X27465788Y-31101657D01*
X27765788Y-31558800D02*
X27699122Y-31596895D01*
X27699122Y-31596895D02*
X27532455Y-31596895D01*
X27532455Y-31596895D02*
X27465788Y-31558800D01*
X27465788Y-31558800D02*
X27432455Y-31482609D01*
X27432455Y-31482609D02*
X27432455Y-31406419D01*
X27432455Y-31406419D02*
X27465788Y-31330228D01*
X27465788Y-31330228D02*
X27532455Y-31292133D01*
X27532455Y-31292133D02*
X27699122Y-31292133D01*
X27699122Y-31292133D02*
X27765788Y-31254038D01*
X27999121Y-31063561D02*
X28265788Y-31063561D01*
X28099121Y-30796895D02*
X28099121Y-31482609D01*
X28099121Y-31482609D02*
X28132455Y-31558800D01*
X28132455Y-31558800D02*
X28199121Y-31596895D01*
X28199121Y-31596895D02*
X28265788Y-31596895D01*
X28332455Y-31673085D02*
X28865788Y-31673085D01*
X29032454Y-31596895D02*
X29032454Y-30796895D01*
X29032454Y-30796895D02*
X29299121Y-30796895D01*
X29299121Y-30796895D02*
X29365788Y-30834990D01*
X29365788Y-30834990D02*
X29399121Y-30873085D01*
X29399121Y-30873085D02*
X29432454Y-30949276D01*
X29432454Y-30949276D02*
X29432454Y-31063561D01*
X29432454Y-31063561D02*
X29399121Y-31139752D01*
X29399121Y-31139752D02*
X29365788Y-31177847D01*
X29365788Y-31177847D02*
X29299121Y-31215942D01*
X29299121Y-31215942D02*
X29032454Y-31215942D01*
X29732454Y-31596895D02*
X29732454Y-31063561D01*
X29732454Y-31215942D02*
X29765788Y-31139752D01*
X29765788Y-31139752D02*
X29799121Y-31101657D01*
X29799121Y-31101657D02*
X29865788Y-31063561D01*
X29865788Y-31063561D02*
X29932454Y-31063561D01*
X30265787Y-31596895D02*
X30199121Y-31558800D01*
X30199121Y-31558800D02*
X30165787Y-31520704D01*
X30165787Y-31520704D02*
X30132454Y-31444514D01*
X30132454Y-31444514D02*
X30132454Y-31215942D01*
X30132454Y-31215942D02*
X30165787Y-31139752D01*
X30165787Y-31139752D02*
X30199121Y-31101657D01*
X30199121Y-31101657D02*
X30265787Y-31063561D01*
X30265787Y-31063561D02*
X30365787Y-31063561D01*
X30365787Y-31063561D02*
X30432454Y-31101657D01*
X30432454Y-31101657D02*
X30465787Y-31139752D01*
X30465787Y-31139752D02*
X30499121Y-31215942D01*
X30499121Y-31215942D02*
X30499121Y-31444514D01*
X30499121Y-31444514D02*
X30465787Y-31520704D01*
X30465787Y-31520704D02*
X30432454Y-31558800D01*
X30432454Y-31558800D02*
X30365787Y-31596895D01*
X30365787Y-31596895D02*
X30265787Y-31596895D01*
X30699120Y-31063561D02*
X30965787Y-31063561D01*
X30799120Y-30796895D02*
X30799120Y-31482609D01*
X30799120Y-31482609D02*
X30832454Y-31558800D01*
X30832454Y-31558800D02*
X30899120Y-31596895D01*
X30899120Y-31596895D02*
X30965787Y-31596895D01*
X40232455Y-18205752D02*
X40232455Y-19015276D01*
X40232455Y-19015276D02*
X40184836Y-19110514D01*
X40184836Y-19110514D02*
X40137217Y-19158133D01*
X40137217Y-19158133D02*
X40041979Y-19205752D01*
X40041979Y-19205752D02*
X39899122Y-19205752D01*
X39899122Y-19205752D02*
X39803884Y-19158133D01*
X40232455Y-18824800D02*
X40137217Y-18872419D01*
X40137217Y-18872419D02*
X39946741Y-18872419D01*
X39946741Y-18872419D02*
X39851503Y-18824800D01*
X39851503Y-18824800D02*
X39803884Y-18777180D01*
X39803884Y-18777180D02*
X39756265Y-18681942D01*
X39756265Y-18681942D02*
X39756265Y-18396228D01*
X39756265Y-18396228D02*
X39803884Y-18300990D01*
X39803884Y-18300990D02*
X39851503Y-18253371D01*
X39851503Y-18253371D02*
X39946741Y-18205752D01*
X39946741Y-18205752D02*
X40137217Y-18205752D01*
X40137217Y-18205752D02*
X40232455Y-18253371D01*
X32432455Y-20972419D02*
X32432455Y-19972419D01*
X32432455Y-20924800D02*
X32337217Y-20972419D01*
X32337217Y-20972419D02*
X32146741Y-20972419D01*
X32146741Y-20972419D02*
X32051503Y-20924800D01*
X32051503Y-20924800D02*
X32003884Y-20877180D01*
X32003884Y-20877180D02*
X31956265Y-20781942D01*
X31956265Y-20781942D02*
X31956265Y-20496228D01*
X31956265Y-20496228D02*
X32003884Y-20400990D01*
X32003884Y-20400990D02*
X32051503Y-20353371D01*
X32051503Y-20353371D02*
X32146741Y-20305752D01*
X32146741Y-20305752D02*
X32337217Y-20305752D01*
X32337217Y-20305752D02*
X32432455Y-20353371D01*
D11*
X16904819Y-38224404D02*
X17714342Y-38224404D01*
X17714342Y-38224404D02*
X17809580Y-38176785D01*
X17809580Y-38176785D02*
X17857200Y-38129166D01*
X17857200Y-38129166D02*
X17904819Y-38033928D01*
X17904819Y-38033928D02*
X17904819Y-37843452D01*
X17904819Y-37843452D02*
X17857200Y-37748214D01*
X17857200Y-37748214D02*
X17809580Y-37700595D01*
X17809580Y-37700595D02*
X17714342Y-37652976D01*
X17714342Y-37652976D02*
X16904819Y-37652976D01*
X17000057Y-37224404D02*
X16952438Y-37176785D01*
X16952438Y-37176785D02*
X16904819Y-37081547D01*
X16904819Y-37081547D02*
X16904819Y-36843452D01*
X16904819Y-36843452D02*
X16952438Y-36748214D01*
X16952438Y-36748214D02*
X17000057Y-36700595D01*
X17000057Y-36700595D02*
X17095295Y-36652976D01*
X17095295Y-36652976D02*
X17190533Y-36652976D01*
X17190533Y-36652976D02*
X17333390Y-36700595D01*
X17333390Y-36700595D02*
X17904819Y-37272023D01*
X17904819Y-37272023D02*
X17904819Y-36652976D01*
X21183333Y-24417319D02*
X20850000Y-23941128D01*
X20611905Y-24417319D02*
X20611905Y-23417319D01*
X20611905Y-23417319D02*
X20992857Y-23417319D01*
X20992857Y-23417319D02*
X21088095Y-23464938D01*
X21088095Y-23464938D02*
X21135714Y-23512557D01*
X21135714Y-23512557D02*
X21183333Y-23607795D01*
X21183333Y-23607795D02*
X21183333Y-23750652D01*
X21183333Y-23750652D02*
X21135714Y-23845890D01*
X21135714Y-23845890D02*
X21088095Y-23893509D01*
X21088095Y-23893509D02*
X20992857Y-23941128D01*
X20992857Y-23941128D02*
X20611905Y-23941128D01*
X22088095Y-23417319D02*
X21611905Y-23417319D01*
X21611905Y-23417319D02*
X21564286Y-23893509D01*
X21564286Y-23893509D02*
X21611905Y-23845890D01*
X21611905Y-23845890D02*
X21707143Y-23798271D01*
X21707143Y-23798271D02*
X21945238Y-23798271D01*
X21945238Y-23798271D02*
X22040476Y-23845890D01*
X22040476Y-23845890D02*
X22088095Y-23893509D01*
X22088095Y-23893509D02*
X22135714Y-23988747D01*
X22135714Y-23988747D02*
X22135714Y-24226842D01*
X22135714Y-24226842D02*
X22088095Y-24322080D01*
X22088095Y-24322080D02*
X22040476Y-24369700D01*
X22040476Y-24369700D02*
X21945238Y-24417319D01*
X21945238Y-24417319D02*
X21707143Y-24417319D01*
X21707143Y-24417319D02*
X21611905Y-24369700D01*
X21611905Y-24369700D02*
X21564286Y-24322080D01*
X32883333Y-40404819D02*
X32550000Y-39928628D01*
X32311905Y-40404819D02*
X32311905Y-39404819D01*
X32311905Y-39404819D02*
X32692857Y-39404819D01*
X32692857Y-39404819D02*
X32788095Y-39452438D01*
X32788095Y-39452438D02*
X32835714Y-39500057D01*
X32835714Y-39500057D02*
X32883333Y-39595295D01*
X32883333Y-39595295D02*
X32883333Y-39738152D01*
X32883333Y-39738152D02*
X32835714Y-39833390D01*
X32835714Y-39833390D02*
X32788095Y-39881009D01*
X32788095Y-39881009D02*
X32692857Y-39928628D01*
X32692857Y-39928628D02*
X32311905Y-39928628D01*
X33835714Y-40404819D02*
X33264286Y-40404819D01*
X33550000Y-40404819D02*
X33550000Y-39404819D01*
X33550000Y-39404819D02*
X33454762Y-39547676D01*
X33454762Y-39547676D02*
X33359524Y-39642914D01*
X33359524Y-39642914D02*
X33264286Y-39690533D01*
X32433333Y-26454819D02*
X32100000Y-25978628D01*
X31861905Y-26454819D02*
X31861905Y-25454819D01*
X31861905Y-25454819D02*
X32242857Y-25454819D01*
X32242857Y-25454819D02*
X32338095Y-25502438D01*
X32338095Y-25502438D02*
X32385714Y-25550057D01*
X32385714Y-25550057D02*
X32433333Y-25645295D01*
X32433333Y-25645295D02*
X32433333Y-25788152D01*
X32433333Y-25788152D02*
X32385714Y-25883390D01*
X32385714Y-25883390D02*
X32338095Y-25931009D01*
X32338095Y-25931009D02*
X32242857Y-25978628D01*
X32242857Y-25978628D02*
X31861905Y-25978628D01*
X32766667Y-25454819D02*
X33385714Y-25454819D01*
X33385714Y-25454819D02*
X33052381Y-25835771D01*
X33052381Y-25835771D02*
X33195238Y-25835771D01*
X33195238Y-25835771D02*
X33290476Y-25883390D01*
X33290476Y-25883390D02*
X33338095Y-25931009D01*
X33338095Y-25931009D02*
X33385714Y-26026247D01*
X33385714Y-26026247D02*
X33385714Y-26264342D01*
X33385714Y-26264342D02*
X33338095Y-26359580D01*
X33338095Y-26359580D02*
X33290476Y-26407200D01*
X33290476Y-26407200D02*
X33195238Y-26454819D01*
X33195238Y-26454819D02*
X32909524Y-26454819D01*
X32909524Y-26454819D02*
X32814286Y-26407200D01*
X32814286Y-26407200D02*
X32766667Y-26359580D01*
X17611905Y-32717319D02*
X17611905Y-31717319D01*
X17611905Y-31717319D02*
X17850000Y-31717319D01*
X17850000Y-31717319D02*
X17992857Y-31764938D01*
X17992857Y-31764938D02*
X18088095Y-31860176D01*
X18088095Y-31860176D02*
X18135714Y-31955414D01*
X18135714Y-31955414D02*
X18183333Y-32145890D01*
X18183333Y-32145890D02*
X18183333Y-32288747D01*
X18183333Y-32288747D02*
X18135714Y-32479223D01*
X18135714Y-32479223D02*
X18088095Y-32574461D01*
X18088095Y-32574461D02*
X17992857Y-32669700D01*
X17992857Y-32669700D02*
X17850000Y-32717319D01*
X17850000Y-32717319D02*
X17611905Y-32717319D01*
X19135714Y-32717319D02*
X18564286Y-32717319D01*
X18850000Y-32717319D02*
X18850000Y-31717319D01*
X18850000Y-31717319D02*
X18754762Y-31860176D01*
X18754762Y-31860176D02*
X18659524Y-31955414D01*
X18659524Y-31955414D02*
X18564286Y-32003033D01*
X26868095Y-39629819D02*
X26868095Y-40439342D01*
X26868095Y-40439342D02*
X26915714Y-40534580D01*
X26915714Y-40534580D02*
X26963333Y-40582200D01*
X26963333Y-40582200D02*
X27058571Y-40629819D01*
X27058571Y-40629819D02*
X27249047Y-40629819D01*
X27249047Y-40629819D02*
X27344285Y-40582200D01*
X27344285Y-40582200D02*
X27391904Y-40534580D01*
X27391904Y-40534580D02*
X27439523Y-40439342D01*
X27439523Y-40439342D02*
X27439523Y-39629819D01*
X28439523Y-40629819D02*
X27868095Y-40629819D01*
X28153809Y-40629819D02*
X28153809Y-39629819D01*
X28153809Y-39629819D02*
X28058571Y-39772676D01*
X28058571Y-39772676D02*
X27963333Y-39867914D01*
X27963333Y-39867914D02*
X27868095Y-39915533D01*
X40504761Y-21650057D02*
X40409523Y-21602438D01*
X40409523Y-21602438D02*
X40314285Y-21507200D01*
X40314285Y-21507200D02*
X40171428Y-21364342D01*
X40171428Y-21364342D02*
X40076190Y-21316723D01*
X40076190Y-21316723D02*
X39980952Y-21316723D01*
X40028571Y-21554819D02*
X39933333Y-21507200D01*
X39933333Y-21507200D02*
X39838095Y-21411961D01*
X39838095Y-21411961D02*
X39790476Y-21221485D01*
X39790476Y-21221485D02*
X39790476Y-20888152D01*
X39790476Y-20888152D02*
X39838095Y-20697676D01*
X39838095Y-20697676D02*
X39933333Y-20602438D01*
X39933333Y-20602438D02*
X40028571Y-20554819D01*
X40028571Y-20554819D02*
X40219047Y-20554819D01*
X40219047Y-20554819D02*
X40314285Y-20602438D01*
X40314285Y-20602438D02*
X40409523Y-20697676D01*
X40409523Y-20697676D02*
X40457142Y-20888152D01*
X40457142Y-20888152D02*
X40457142Y-21221485D01*
X40457142Y-21221485D02*
X40409523Y-21411961D01*
X40409523Y-21411961D02*
X40314285Y-21507200D01*
X40314285Y-21507200D02*
X40219047Y-21554819D01*
X40219047Y-21554819D02*
X40028571Y-21554819D01*
X41409523Y-21554819D02*
X40838095Y-21554819D01*
X41123809Y-21554819D02*
X41123809Y-20554819D01*
X41123809Y-20554819D02*
X41028571Y-20697676D01*
X41028571Y-20697676D02*
X40933333Y-20792914D01*
X40933333Y-20792914D02*
X40838095Y-20840533D01*
X35683333Y-40347080D02*
X35635714Y-40394700D01*
X35635714Y-40394700D02*
X35492857Y-40442319D01*
X35492857Y-40442319D02*
X35397619Y-40442319D01*
X35397619Y-40442319D02*
X35254762Y-40394700D01*
X35254762Y-40394700D02*
X35159524Y-40299461D01*
X35159524Y-40299461D02*
X35111905Y-40204223D01*
X35111905Y-40204223D02*
X35064286Y-40013747D01*
X35064286Y-40013747D02*
X35064286Y-39870890D01*
X35064286Y-39870890D02*
X35111905Y-39680414D01*
X35111905Y-39680414D02*
X35159524Y-39585176D01*
X35159524Y-39585176D02*
X35254762Y-39489938D01*
X35254762Y-39489938D02*
X35397619Y-39442319D01*
X35397619Y-39442319D02*
X35492857Y-39442319D01*
X35492857Y-39442319D02*
X35635714Y-39489938D01*
X35635714Y-39489938D02*
X35683333Y-39537557D01*
X36635714Y-40442319D02*
X36064286Y-40442319D01*
X36350000Y-40442319D02*
X36350000Y-39442319D01*
X36350000Y-39442319D02*
X36254762Y-39585176D01*
X36254762Y-39585176D02*
X36159524Y-39680414D01*
X36159524Y-39680414D02*
X36064286Y-39728033D01*
X20611905Y-32717319D02*
X20611905Y-31717319D01*
X20611905Y-31717319D02*
X20850000Y-31717319D01*
X20850000Y-31717319D02*
X20992857Y-31764938D01*
X20992857Y-31764938D02*
X21088095Y-31860176D01*
X21088095Y-31860176D02*
X21135714Y-31955414D01*
X21135714Y-31955414D02*
X21183333Y-32145890D01*
X21183333Y-32145890D02*
X21183333Y-32288747D01*
X21183333Y-32288747D02*
X21135714Y-32479223D01*
X21135714Y-32479223D02*
X21088095Y-32574461D01*
X21088095Y-32574461D02*
X20992857Y-32669700D01*
X20992857Y-32669700D02*
X20850000Y-32717319D01*
X20850000Y-32717319D02*
X20611905Y-32717319D01*
X21564286Y-31812557D02*
X21611905Y-31764938D01*
X21611905Y-31764938D02*
X21707143Y-31717319D01*
X21707143Y-31717319D02*
X21945238Y-31717319D01*
X21945238Y-31717319D02*
X22040476Y-31764938D01*
X22040476Y-31764938D02*
X22088095Y-31812557D01*
X22088095Y-31812557D02*
X22135714Y-31907795D01*
X22135714Y-31907795D02*
X22135714Y-32003033D01*
X22135714Y-32003033D02*
X22088095Y-32145890D01*
X22088095Y-32145890D02*
X21516667Y-32717319D01*
X21516667Y-32717319D02*
X22135714Y-32717319D01*
X34855095Y-26805819D02*
X34855095Y-25805819D01*
X34855095Y-26282009D02*
X35426523Y-26282009D01*
X35426523Y-26805819D02*
X35426523Y-25805819D01*
X36426523Y-26805819D02*
X35855095Y-26805819D01*
X36140809Y-26805819D02*
X36140809Y-25805819D01*
X36140809Y-25805819D02*
X36045571Y-25948676D01*
X36045571Y-25948676D02*
X35950333Y-26043914D01*
X35950333Y-26043914D02*
X35855095Y-26091533D01*
X18183333Y-24417319D02*
X17850000Y-23941128D01*
X17611905Y-24417319D02*
X17611905Y-23417319D01*
X17611905Y-23417319D02*
X17992857Y-23417319D01*
X17992857Y-23417319D02*
X18088095Y-23464938D01*
X18088095Y-23464938D02*
X18135714Y-23512557D01*
X18135714Y-23512557D02*
X18183333Y-23607795D01*
X18183333Y-23607795D02*
X18183333Y-23750652D01*
X18183333Y-23750652D02*
X18135714Y-23845890D01*
X18135714Y-23845890D02*
X18088095Y-23893509D01*
X18088095Y-23893509D02*
X17992857Y-23941128D01*
X17992857Y-23941128D02*
X17611905Y-23941128D01*
X19040476Y-23750652D02*
X19040476Y-24417319D01*
X18802381Y-23369700D02*
X18564286Y-24083985D01*
X18564286Y-24083985D02*
X19183333Y-24083985D01*
X41833333Y-40454819D02*
X41500000Y-39978628D01*
X41261905Y-40454819D02*
X41261905Y-39454819D01*
X41261905Y-39454819D02*
X41642857Y-39454819D01*
X41642857Y-39454819D02*
X41738095Y-39502438D01*
X41738095Y-39502438D02*
X41785714Y-39550057D01*
X41785714Y-39550057D02*
X41833333Y-39645295D01*
X41833333Y-39645295D02*
X41833333Y-39788152D01*
X41833333Y-39788152D02*
X41785714Y-39883390D01*
X41785714Y-39883390D02*
X41738095Y-39931009D01*
X41738095Y-39931009D02*
X41642857Y-39978628D01*
X41642857Y-39978628D02*
X41261905Y-39978628D01*
X42214286Y-39550057D02*
X42261905Y-39502438D01*
X42261905Y-39502438D02*
X42357143Y-39454819D01*
X42357143Y-39454819D02*
X42595238Y-39454819D01*
X42595238Y-39454819D02*
X42690476Y-39502438D01*
X42690476Y-39502438D02*
X42738095Y-39550057D01*
X42738095Y-39550057D02*
X42785714Y-39645295D01*
X42785714Y-39645295D02*
X42785714Y-39740533D01*
X42785714Y-39740533D02*
X42738095Y-39883390D01*
X42738095Y-39883390D02*
X42166667Y-40454819D01*
X42166667Y-40454819D02*
X42785714Y-40454819D01*
X38933333Y-40359580D02*
X38885714Y-40407200D01*
X38885714Y-40407200D02*
X38742857Y-40454819D01*
X38742857Y-40454819D02*
X38647619Y-40454819D01*
X38647619Y-40454819D02*
X38504762Y-40407200D01*
X38504762Y-40407200D02*
X38409524Y-40311961D01*
X38409524Y-40311961D02*
X38361905Y-40216723D01*
X38361905Y-40216723D02*
X38314286Y-40026247D01*
X38314286Y-40026247D02*
X38314286Y-39883390D01*
X38314286Y-39883390D02*
X38361905Y-39692914D01*
X38361905Y-39692914D02*
X38409524Y-39597676D01*
X38409524Y-39597676D02*
X38504762Y-39502438D01*
X38504762Y-39502438D02*
X38647619Y-39454819D01*
X38647619Y-39454819D02*
X38742857Y-39454819D01*
X38742857Y-39454819D02*
X38885714Y-39502438D01*
X38885714Y-39502438D02*
X38933333Y-39550057D01*
X39314286Y-39550057D02*
X39361905Y-39502438D01*
X39361905Y-39502438D02*
X39457143Y-39454819D01*
X39457143Y-39454819D02*
X39695238Y-39454819D01*
X39695238Y-39454819D02*
X39790476Y-39502438D01*
X39790476Y-39502438D02*
X39838095Y-39550057D01*
X39838095Y-39550057D02*
X39885714Y-39645295D01*
X39885714Y-39645295D02*
X39885714Y-39740533D01*
X39885714Y-39740533D02*
X39838095Y-39883390D01*
X39838095Y-39883390D02*
X39266667Y-40454819D01*
X39266667Y-40454819D02*
X39885714Y-40454819D01*
D12*
X18290000Y-37462500D02*
X18290000Y-36662500D01*
X18290000Y-37462500D02*
X18290000Y-38262500D01*
X21410000Y-37462500D02*
X21410000Y-36662500D01*
X21410000Y-37462500D02*
X21410000Y-38262500D01*
X18340000Y-38762500D02*
X18010000Y-39002500D01*
X18010000Y-38522500D01*
X18340000Y-38762500D01*
G36*
X18340000Y-38762500D02*
G01*
X18010000Y-39002500D01*
X18010000Y-38522500D01*
X18340000Y-38762500D01*
G37*
X27400000Y-25400000D02*
G75*
G02*
X26000000Y-25400000I-700000J0D01*
G01*
X26000000Y-25400000D02*
G75*
G02*
X27400000Y-25400000I700000J0D01*
G01*
X20440000Y-27739564D02*
X20440000Y-26285436D01*
X22260000Y-27739564D02*
X22260000Y-26285436D01*
X32140000Y-35822936D02*
X32140000Y-37277064D01*
X33960000Y-35822936D02*
X33960000Y-37277064D01*
X28012500Y-27977064D02*
X28012500Y-23622936D01*
X31432500Y-27977064D02*
X31432500Y-23622936D01*
X17215000Y-29802500D02*
X17215000Y-33862500D01*
X19485000Y-29802500D02*
X17215000Y-29802500D01*
X19485000Y-33862500D02*
X19485000Y-29802500D01*
X27630000Y-34215000D02*
X25680000Y-34215000D01*
X27630000Y-34215000D02*
X29580000Y-34215000D01*
X27630000Y-39335000D02*
X25680000Y-39335000D01*
X27630000Y-39335000D02*
X29580000Y-39335000D01*
X30570000Y-39570000D02*
X30090000Y-39570000D01*
X30330000Y-39240000D01*
X30570000Y-39570000D01*
G36*
X30570000Y-39570000D02*
G01*
X30090000Y-39570000D01*
X30330000Y-39240000D01*
X30570000Y-39570000D01*
G37*
X32872500Y-23520000D02*
X32872500Y-17870000D01*
X38407500Y-17870000D02*
X32872500Y-17870000D01*
X38407500Y-23520000D02*
X32872500Y-23520000D01*
X39197500Y-23525000D02*
X38717500Y-23525000D01*
X38957500Y-23195000D01*
X39197500Y-23525000D01*
G36*
X39197500Y-23525000D02*
G01*
X38717500Y-23525000D01*
X38957500Y-23195000D01*
X39197500Y-23525000D01*
G37*
X34940000Y-37298752D02*
X34940000Y-35876248D01*
X36760000Y-37298752D02*
X36760000Y-35876248D01*
X20215000Y-29802500D02*
X20215000Y-33862500D01*
X22485000Y-29802500D02*
X20215000Y-29802500D01*
X22485000Y-33862500D02*
X22485000Y-29802500D01*
X27400000Y-29700000D02*
G75*
G02*
X26000000Y-29700000I-700000J0D01*
G01*
X26000000Y-29700000D02*
G75*
G02*
X27400000Y-29700000I700000J0D01*
G01*
X17440000Y-27739564D02*
X17440000Y-26285436D01*
X19260000Y-27739564D02*
X19260000Y-26285436D01*
X41190000Y-37327064D02*
X41190000Y-35872936D01*
X43010000Y-37327064D02*
X43010000Y-35872936D01*
X37740000Y-35876248D02*
X37740000Y-37298752D01*
X40460000Y-35876248D02*
X40460000Y-37298752D01*
X40700000Y-29000000D02*
G75*
G02*
X39300000Y-29000000I-700000J0D01*
G01*
X39300000Y-29000000D02*
G75*
G02*
X40700000Y-29000000I700000J0D01*
G01*
%LPC*%
D13*
X18900000Y-38600000D03*
X19850000Y-38600000D03*
X20800000Y-38600000D03*
X20800000Y-36325000D03*
X18900000Y-36325000D03*
D14*
X26700000Y-25400000D03*
D15*
X21350000Y-28562500D03*
X21350000Y-25462500D03*
D16*
X33050000Y-35000000D03*
X33050000Y-38100000D03*
D17*
X29722500Y-28762500D03*
X29722500Y-22837500D03*
D18*
X18350000Y-30775000D03*
X18350000Y-33750000D03*
D19*
X30105000Y-38680000D03*
X30105000Y-37410000D03*
X30105000Y-36140000D03*
X30105000Y-34870000D03*
X25155000Y-34870000D03*
X25155000Y-36140000D03*
X25155000Y-37410000D03*
X25155000Y-38680000D03*
D20*
X27630000Y-36775000D03*
D21*
X38922500Y-22600000D03*
X38922500Y-21330000D03*
X38922500Y-20060000D03*
X38922500Y-18790000D03*
D22*
X36207500Y-22967500D03*
X36207500Y-18422500D03*
D23*
X35127500Y-20695000D03*
D24*
X33337500Y-22910000D03*
X33337500Y-18480000D03*
D25*
X35850000Y-38150000D03*
X35850000Y-35025000D03*
D18*
X21350000Y-30775000D03*
X21350000Y-33750000D03*
D14*
X26700000Y-29700000D03*
D26*
X35617000Y-30151000D03*
D15*
X18350000Y-28562500D03*
X18350000Y-25462500D03*
X42100000Y-38150000D03*
X42100000Y-35050000D03*
D27*
X39100000Y-35025000D03*
X39100000Y-38150000D03*
D14*
X40000000Y-29000000D03*
%LPD*%
M02*
