G04 #@! TF.GenerationSoftware,KiCad,Pcbnew,8.0.1*
G04 #@! TF.CreationDate,2025-02-26T15:35:35-05:00*
G04 #@! TF.ProjectId,Relay Stick Fix,52656c61-7920-4537-9469-636b20466978,rev?*
G04 #@! TF.SameCoordinates,Original*
G04 #@! TF.FileFunction,Copper,L2,Inr*
G04 #@! TF.FilePolarity,Positive*
%FSLAX46Y46*%
G04 Gerber Fmt 4.6, Leading zero omitted, Abs format (unit mm)*
G04 Created by KiCad (PCBNEW 8.0.1) date 2025-02-26 15:35:35*
%MOMM*%
%LPD*%
G01*
G04 APERTURE LIST*
G04 #@! TA.AperFunction,ComponentPad*
%ADD10C,1.000000*%
G04 #@! TD*
G04 #@! TA.AperFunction,ComponentPad*
%ADD11C,5.600000*%
G04 #@! TD*
G04 #@! TA.AperFunction,ViaPad*
%ADD12C,0.600000*%
G04 #@! TD*
G04 APERTURE END LIST*
D10*
X26700000Y-25400000D03*
X26700000Y-29700000D03*
D11*
X35617000Y-30151000D03*
D12*
X20600000Y-23750000D03*
X17100000Y-16250000D03*
X19100000Y-16250000D03*
X39500000Y-17000000D03*
X39100000Y-36700000D03*
X18100000Y-16250000D03*
X28600000Y-39525000D03*
X22550000Y-32500000D03*
X28350000Y-31500000D03*
X25500000Y-30200000D03*
X27100000Y-28600000D03*
X26300000Y-28600000D03*
X25500000Y-28600000D03*
X38200000Y-33800000D03*
X24850000Y-33750000D03*
X25500000Y-29400000D03*
X23350000Y-38500000D03*
X32100000Y-31700000D03*
X25500000Y-25700000D03*
X25500000Y-26500000D03*
X27100000Y-26500000D03*
X25500000Y-24900000D03*
X26300000Y-26500000D03*
X35100000Y-17000000D03*
X32100000Y-17000000D03*
X32100000Y-18000000D03*
X28100000Y-20000000D03*
X31100000Y-18000000D03*
X29100000Y-18000000D03*
X30100000Y-17000000D03*
X28100000Y-19000000D03*
X32100000Y-19000000D03*
X28100000Y-18000000D03*
X30100000Y-19000000D03*
X29100000Y-19000000D03*
X31100000Y-17000000D03*
X29100000Y-21000000D03*
X29100000Y-17000000D03*
X31100000Y-21000000D03*
X31100000Y-19000000D03*
X30100000Y-18000000D03*
X30100000Y-20000000D03*
X36100000Y-17000000D03*
X29100000Y-20000000D03*
X34100000Y-17000000D03*
X28100000Y-17000000D03*
X30100000Y-21000000D03*
X33100000Y-17000000D03*
X31100000Y-20000000D03*
X27850000Y-34357893D03*
X39600000Y-40000000D03*
G04 #@! TA.AperFunction,Conductor*
G36*
X43542539Y-15520185D02*
G01*
X43588294Y-15572989D01*
X43599500Y-15624500D01*
X43599500Y-41375500D01*
X43579815Y-41442539D01*
X43527011Y-41488294D01*
X43475500Y-41499500D01*
X16474500Y-41499500D01*
X16407461Y-41479815D01*
X16361706Y-41427011D01*
X16350500Y-41375500D01*
X16350500Y-40000003D01*
X38794435Y-40000003D01*
X38814630Y-40179249D01*
X38814631Y-40179254D01*
X38874211Y-40349523D01*
X38970184Y-40502262D01*
X39097738Y-40629816D01*
X39250478Y-40725789D01*
X39420745Y-40785368D01*
X39420750Y-40785369D01*
X39599996Y-40805565D01*
X39600000Y-40805565D01*
X39600004Y-40805565D01*
X39779249Y-40785369D01*
X39779252Y-40785368D01*
X39779255Y-40785368D01*
X39949522Y-40725789D01*
X40102262Y-40629816D01*
X40229816Y-40502262D01*
X40325789Y-40349522D01*
X40385368Y-40179255D01*
X40405565Y-40000000D01*
X40385368Y-39820745D01*
X40325789Y-39650478D01*
X40229816Y-39497738D01*
X40102262Y-39370184D01*
X39999422Y-39305565D01*
X39949523Y-39274211D01*
X39779254Y-39214631D01*
X39779249Y-39214630D01*
X39600004Y-39194435D01*
X39599996Y-39194435D01*
X39420750Y-39214630D01*
X39420745Y-39214631D01*
X39250476Y-39274211D01*
X39097737Y-39370184D01*
X38970184Y-39497737D01*
X38874211Y-39650476D01*
X38814631Y-39820745D01*
X38814630Y-39820750D01*
X38794435Y-39999996D01*
X38794435Y-40000003D01*
X16350500Y-40000003D01*
X16350500Y-38500003D01*
X22544435Y-38500003D01*
X22564630Y-38679249D01*
X22564631Y-38679254D01*
X22624211Y-38849523D01*
X22720184Y-39002262D01*
X22847738Y-39129816D01*
X22938080Y-39186582D01*
X22982721Y-39214632D01*
X23000478Y-39225789D01*
X23138860Y-39274211D01*
X23170745Y-39285368D01*
X23170750Y-39285369D01*
X23349996Y-39305565D01*
X23350000Y-39305565D01*
X23350004Y-39305565D01*
X23529249Y-39285369D01*
X23529252Y-39285368D01*
X23529255Y-39285368D01*
X23699522Y-39225789D01*
X23852262Y-39129816D01*
X23979816Y-39002262D01*
X24075789Y-38849522D01*
X24135368Y-38679255D01*
X24155565Y-38500000D01*
X24135368Y-38320745D01*
X24075789Y-38150478D01*
X23979816Y-37997738D01*
X23852262Y-37870184D01*
X23699523Y-37774211D01*
X23529254Y-37714631D01*
X23529249Y-37714630D01*
X23350004Y-37694435D01*
X23349996Y-37694435D01*
X23170750Y-37714630D01*
X23170745Y-37714631D01*
X23000476Y-37774211D01*
X22847737Y-37870184D01*
X22720184Y-37997737D01*
X22624211Y-38150476D01*
X22564631Y-38320745D01*
X22564630Y-38320750D01*
X22544435Y-38499996D01*
X22544435Y-38500003D01*
X16350500Y-38500003D01*
X16350500Y-33750003D01*
X24044435Y-33750003D01*
X24064630Y-33929249D01*
X24064631Y-33929254D01*
X24124211Y-34099523D01*
X24173923Y-34178638D01*
X24220184Y-34252262D01*
X24347738Y-34379816D01*
X24500478Y-34475789D01*
X24643367Y-34525788D01*
X24670745Y-34535368D01*
X24670750Y-34535369D01*
X24849996Y-34555565D01*
X24850000Y-34555565D01*
X24850004Y-34555565D01*
X25029249Y-34535369D01*
X25029252Y-34535368D01*
X25029255Y-34535368D01*
X25199522Y-34475789D01*
X25352262Y-34379816D01*
X25374182Y-34357896D01*
X27044435Y-34357896D01*
X27064630Y-34537142D01*
X27064631Y-34537147D01*
X27124211Y-34707416D01*
X27220184Y-34860155D01*
X27347738Y-34987709D01*
X27500478Y-35083682D01*
X27670745Y-35143261D01*
X27670750Y-35143262D01*
X27849996Y-35163458D01*
X27850000Y-35163458D01*
X27850004Y-35163458D01*
X28029249Y-35143262D01*
X28029252Y-35143261D01*
X28029255Y-35143261D01*
X28199522Y-35083682D01*
X28352262Y-34987709D01*
X28479816Y-34860155D01*
X28575789Y-34707415D01*
X28635368Y-34537148D01*
X28635369Y-34537142D01*
X28655565Y-34357896D01*
X28655565Y-34357889D01*
X28635369Y-34178643D01*
X28635368Y-34178638D01*
X28575788Y-34008369D01*
X28479815Y-33855630D01*
X28424188Y-33800003D01*
X37394435Y-33800003D01*
X37414630Y-33979249D01*
X37414631Y-33979254D01*
X37474211Y-34149523D01*
X37538767Y-34252262D01*
X37570184Y-34302262D01*
X37697738Y-34429816D01*
X37850478Y-34525789D01*
X37935573Y-34555565D01*
X38020745Y-34585368D01*
X38020750Y-34585369D01*
X38199996Y-34605565D01*
X38200000Y-34605565D01*
X38200004Y-34605565D01*
X38379249Y-34585369D01*
X38379252Y-34585368D01*
X38379255Y-34585368D01*
X38549522Y-34525789D01*
X38702262Y-34429816D01*
X38829816Y-34302262D01*
X38925789Y-34149522D01*
X38985368Y-33979255D01*
X38991002Y-33929254D01*
X39005565Y-33800003D01*
X39005565Y-33799996D01*
X38985369Y-33620750D01*
X38985368Y-33620745D01*
X38925788Y-33450476D01*
X38829815Y-33297737D01*
X38702262Y-33170184D01*
X38549523Y-33074211D01*
X38379254Y-33014631D01*
X38379249Y-33014630D01*
X38200004Y-32994435D01*
X38199996Y-32994435D01*
X38020750Y-33014630D01*
X38020745Y-33014631D01*
X37850476Y-33074211D01*
X37697737Y-33170184D01*
X37570184Y-33297737D01*
X37474211Y-33450476D01*
X37414631Y-33620745D01*
X37414630Y-33620750D01*
X37394435Y-33799996D01*
X37394435Y-33800003D01*
X28424188Y-33800003D01*
X28352262Y-33728077D01*
X28199523Y-33632104D01*
X28029254Y-33572524D01*
X28029249Y-33572523D01*
X27850004Y-33552328D01*
X27849996Y-33552328D01*
X27670750Y-33572523D01*
X27670745Y-33572524D01*
X27500476Y-33632104D01*
X27347737Y-33728077D01*
X27220184Y-33855630D01*
X27124211Y-34008369D01*
X27064631Y-34178638D01*
X27064630Y-34178643D01*
X27044435Y-34357889D01*
X27044435Y-34357896D01*
X25374182Y-34357896D01*
X25479816Y-34252262D01*
X25575789Y-34099522D01*
X25635368Y-33929255D01*
X25635369Y-33929249D01*
X25655565Y-33750003D01*
X25655565Y-33749996D01*
X25635369Y-33570750D01*
X25635368Y-33570745D01*
X25575788Y-33400476D01*
X25503461Y-33285369D01*
X25479816Y-33247738D01*
X25352262Y-33120184D01*
X25199523Y-33024211D01*
X25029254Y-32964631D01*
X25029249Y-32964630D01*
X24850004Y-32944435D01*
X24849996Y-32944435D01*
X24670750Y-32964630D01*
X24670745Y-32964631D01*
X24500476Y-33024211D01*
X24347737Y-33120184D01*
X24220184Y-33247737D01*
X24124211Y-33400476D01*
X24064631Y-33570745D01*
X24064630Y-33570750D01*
X24044435Y-33749996D01*
X24044435Y-33750003D01*
X16350500Y-33750003D01*
X16350500Y-32500003D01*
X21744435Y-32500003D01*
X21764630Y-32679249D01*
X21764631Y-32679254D01*
X21824211Y-32849523D01*
X21883849Y-32944435D01*
X21920184Y-33002262D01*
X22047738Y-33129816D01*
X22200478Y-33225789D01*
X22263202Y-33247737D01*
X22370745Y-33285368D01*
X22370750Y-33285369D01*
X22549996Y-33305565D01*
X22550000Y-33305565D01*
X22550004Y-33305565D01*
X22729249Y-33285369D01*
X22729252Y-33285368D01*
X22729255Y-33285368D01*
X22899522Y-33225789D01*
X23052262Y-33129816D01*
X23179816Y-33002262D01*
X23275789Y-32849522D01*
X23335368Y-32679255D01*
X23355565Y-32500000D01*
X23353916Y-32485369D01*
X23335369Y-32320750D01*
X23335368Y-32320745D01*
X23275788Y-32150476D01*
X23212354Y-32049522D01*
X23179816Y-31997738D01*
X23052262Y-31870184D01*
X23019379Y-31849522D01*
X22899523Y-31774211D01*
X22729254Y-31714631D01*
X22729249Y-31714630D01*
X22550004Y-31694435D01*
X22549996Y-31694435D01*
X22370750Y-31714630D01*
X22370745Y-31714631D01*
X22200476Y-31774211D01*
X22047737Y-31870184D01*
X21920184Y-31997737D01*
X21824211Y-32150476D01*
X21764631Y-32320745D01*
X21764630Y-32320750D01*
X21744435Y-32499996D01*
X21744435Y-32500003D01*
X16350500Y-32500003D01*
X16350500Y-31500003D01*
X27544435Y-31500003D01*
X27564630Y-31679249D01*
X27564631Y-31679254D01*
X27624211Y-31849523D01*
X27717341Y-31997737D01*
X27720184Y-32002262D01*
X27847738Y-32129816D01*
X28000478Y-32225789D01*
X28170745Y-32285368D01*
X28170750Y-32285369D01*
X28349996Y-32305565D01*
X28350000Y-32305565D01*
X28350004Y-32305565D01*
X28529249Y-32285369D01*
X28529252Y-32285368D01*
X28529255Y-32285368D01*
X28699522Y-32225789D01*
X28852262Y-32129816D01*
X28979816Y-32002262D01*
X29075789Y-31849522D01*
X29128108Y-31700003D01*
X31294435Y-31700003D01*
X31314630Y-31879249D01*
X31314631Y-31879254D01*
X31374211Y-32049523D01*
X31437646Y-32150478D01*
X31470184Y-32202262D01*
X31597738Y-32329816D01*
X31750478Y-32425789D01*
X31920745Y-32485368D01*
X31920750Y-32485369D01*
X32099996Y-32505565D01*
X32100000Y-32505565D01*
X32100004Y-32505565D01*
X32279249Y-32485369D01*
X32279252Y-32485368D01*
X32279255Y-32485368D01*
X32449522Y-32425789D01*
X32602262Y-32329816D01*
X32729816Y-32202262D01*
X32825789Y-32049522D01*
X32885368Y-31879255D01*
X32897204Y-31774211D01*
X32905565Y-31700003D01*
X32905565Y-31699996D01*
X32885369Y-31520750D01*
X32885368Y-31520745D01*
X32825788Y-31350476D01*
X32729815Y-31197737D01*
X32602262Y-31070184D01*
X32449523Y-30974211D01*
X32279254Y-30914631D01*
X32279249Y-30914630D01*
X32100004Y-30894435D01*
X32099996Y-30894435D01*
X31920750Y-30914630D01*
X31920745Y-30914631D01*
X31750476Y-30974211D01*
X31597737Y-31070184D01*
X31470184Y-31197737D01*
X31374211Y-31350476D01*
X31314631Y-31520745D01*
X31314630Y-31520750D01*
X31294435Y-31699996D01*
X31294435Y-31700003D01*
X29128108Y-31700003D01*
X29135368Y-31679255D01*
X29155565Y-31500000D01*
X29138718Y-31350478D01*
X29135369Y-31320750D01*
X29135368Y-31320745D01*
X29092326Y-31197738D01*
X29075789Y-31150478D01*
X28979816Y-30997738D01*
X28852262Y-30870184D01*
X28788017Y-30829816D01*
X28699523Y-30774211D01*
X28529254Y-30714631D01*
X28529249Y-30714630D01*
X28350004Y-30694435D01*
X28349996Y-30694435D01*
X28170750Y-30714630D01*
X28170745Y-30714631D01*
X28000476Y-30774211D01*
X27847737Y-30870184D01*
X27720184Y-30997737D01*
X27624211Y-31150476D01*
X27564631Y-31320745D01*
X27564630Y-31320750D01*
X27544435Y-31499996D01*
X27544435Y-31500003D01*
X16350500Y-31500003D01*
X16350500Y-30200003D01*
X24694435Y-30200003D01*
X24714630Y-30379249D01*
X24714631Y-30379254D01*
X24774211Y-30549523D01*
X24859981Y-30686024D01*
X24870184Y-30702262D01*
X24997738Y-30829816D01*
X25061983Y-30870184D01*
X25132721Y-30914632D01*
X25150478Y-30925789D01*
X25288860Y-30974211D01*
X25320745Y-30985368D01*
X25320750Y-30985369D01*
X25499996Y-31005565D01*
X25500000Y-31005565D01*
X25500004Y-31005565D01*
X25679249Y-30985369D01*
X25679252Y-30985368D01*
X25679255Y-30985368D01*
X25849522Y-30925789D01*
X26002262Y-30829816D01*
X26129816Y-30702262D01*
X26149490Y-30670949D01*
X26201822Y-30624661D01*
X26270876Y-30614011D01*
X26309633Y-30626500D01*
X26309641Y-30626482D01*
X26309875Y-30626579D01*
X26312938Y-30627566D01*
X26315273Y-30628814D01*
X26503868Y-30686024D01*
X26700000Y-30705341D01*
X26896132Y-30686024D01*
X27084727Y-30628814D01*
X27088909Y-30626579D01*
X27233070Y-30549523D01*
X27258538Y-30535910D01*
X27410883Y-30410883D01*
X27535910Y-30258538D01*
X27628814Y-30084727D01*
X27686024Y-29896132D01*
X27705341Y-29700000D01*
X27686024Y-29503868D01*
X27628814Y-29315273D01*
X27628808Y-29315263D01*
X27627714Y-29312619D01*
X27627552Y-29311117D01*
X27627045Y-29309444D01*
X27627362Y-29309347D01*
X27620245Y-29243149D01*
X27651519Y-29180670D01*
X27654594Y-29177484D01*
X27729816Y-29102262D01*
X27825789Y-28949522D01*
X27885368Y-28779255D01*
X27905565Y-28600000D01*
X27885368Y-28420745D01*
X27825789Y-28250478D01*
X27729816Y-28097738D01*
X27602262Y-27970184D01*
X27449523Y-27874211D01*
X27279254Y-27814631D01*
X27279249Y-27814630D01*
X27100004Y-27794435D01*
X27099996Y-27794435D01*
X26920750Y-27814630D01*
X26920737Y-27814633D01*
X26743906Y-27876510D01*
X26743155Y-27874364D01*
X26684856Y-27883962D01*
X26656409Y-27875609D01*
X26656094Y-27876510D01*
X26479262Y-27814633D01*
X26479249Y-27814630D01*
X26300004Y-27794435D01*
X26299996Y-27794435D01*
X26120750Y-27814630D01*
X26120737Y-27814633D01*
X25943906Y-27876510D01*
X25943155Y-27874364D01*
X25884856Y-27883962D01*
X25856409Y-27875609D01*
X25856094Y-27876510D01*
X25679262Y-27814633D01*
X25679249Y-27814630D01*
X25500004Y-27794435D01*
X25499996Y-27794435D01*
X25320750Y-27814630D01*
X25320745Y-27814631D01*
X25150476Y-27874211D01*
X24997737Y-27970184D01*
X24870184Y-28097737D01*
X24774211Y-28250476D01*
X24714631Y-28420745D01*
X24714630Y-28420750D01*
X24694435Y-28599996D01*
X24694435Y-28600003D01*
X24714630Y-28779249D01*
X24714633Y-28779262D01*
X24776510Y-28956094D01*
X24774364Y-28956844D01*
X24783962Y-29015144D01*
X24775609Y-29043590D01*
X24776510Y-29043906D01*
X24714633Y-29220737D01*
X24714630Y-29220750D01*
X24694435Y-29399996D01*
X24694435Y-29400003D01*
X24714630Y-29579249D01*
X24714633Y-29579262D01*
X24776510Y-29756094D01*
X24774364Y-29756844D01*
X24783962Y-29815144D01*
X24775609Y-29843590D01*
X24776510Y-29843906D01*
X24714633Y-30020737D01*
X24714630Y-30020750D01*
X24694435Y-30199996D01*
X24694435Y-30200003D01*
X16350500Y-30200003D01*
X16350500Y-26500003D01*
X24694435Y-26500003D01*
X24714630Y-26679249D01*
X24714631Y-26679254D01*
X24774211Y-26849523D01*
X24870184Y-27002262D01*
X24997738Y-27129816D01*
X25088080Y-27186582D01*
X25148254Y-27224392D01*
X25150478Y-27225789D01*
X25320739Y-27285366D01*
X25320745Y-27285368D01*
X25320750Y-27285369D01*
X25499996Y-27305565D01*
X25500000Y-27305565D01*
X25500004Y-27305565D01*
X25679249Y-27285369D01*
X25679251Y-27285368D01*
X25679255Y-27285368D01*
X25679258Y-27285366D01*
X25679262Y-27285366D01*
X25856095Y-27223489D01*
X25856846Y-27225637D01*
X25915128Y-27216035D01*
X25943588Y-27224392D01*
X25943905Y-27223489D01*
X26120737Y-27285366D01*
X26120743Y-27285367D01*
X26120745Y-27285368D01*
X26120746Y-27285368D01*
X26120750Y-27285369D01*
X26299996Y-27305565D01*
X26300000Y-27305565D01*
X26300004Y-27305565D01*
X26479249Y-27285369D01*
X26479251Y-27285368D01*
X26479255Y-27285368D01*
X26479258Y-27285366D01*
X26479262Y-27285366D01*
X26656095Y-27223489D01*
X26656846Y-27225637D01*
X26715128Y-27216035D01*
X26743588Y-27224392D01*
X26743905Y-27223489D01*
X26920737Y-27285366D01*
X26920743Y-27285367D01*
X26920745Y-27285368D01*
X26920746Y-27285368D01*
X26920750Y-27285369D01*
X27099996Y-27305565D01*
X27100000Y-27305565D01*
X27100004Y-27305565D01*
X27279249Y-27285369D01*
X27279252Y-27285368D01*
X27279255Y-27285368D01*
X27449522Y-27225789D01*
X27602262Y-27129816D01*
X27729816Y-27002262D01*
X27825789Y-26849522D01*
X27885368Y-26679255D01*
X27905565Y-26500000D01*
X27885368Y-26320745D01*
X27825789Y-26150478D01*
X27729816Y-25997738D01*
X27654593Y-25922515D01*
X27621109Y-25861191D01*
X27626094Y-25791500D01*
X27627716Y-25787376D01*
X27628806Y-25784740D01*
X27628814Y-25784727D01*
X27686024Y-25596132D01*
X27705341Y-25400000D01*
X27686024Y-25203868D01*
X27628814Y-25015273D01*
X27628811Y-25015269D01*
X27628811Y-25015266D01*
X27535913Y-24841467D01*
X27535909Y-24841460D01*
X27410883Y-24689116D01*
X27258539Y-24564090D01*
X27258532Y-24564086D01*
X27084733Y-24471188D01*
X27084727Y-24471186D01*
X26896132Y-24413976D01*
X26896129Y-24413975D01*
X26700000Y-24394659D01*
X26503870Y-24413975D01*
X26392013Y-24447906D01*
X26315273Y-24471186D01*
X26315271Y-24471186D01*
X26315264Y-24471189D01*
X26312930Y-24472437D01*
X26311564Y-24472721D01*
X26309641Y-24473518D01*
X26309489Y-24473153D01*
X26244527Y-24486676D01*
X26179284Y-24461672D01*
X26149489Y-24429048D01*
X26129815Y-24397737D01*
X26002262Y-24270184D01*
X25849523Y-24174211D01*
X25679254Y-24114631D01*
X25679249Y-24114630D01*
X25500004Y-24094435D01*
X25499996Y-24094435D01*
X25320750Y-24114630D01*
X25320745Y-24114631D01*
X25150476Y-24174211D01*
X24997737Y-24270184D01*
X24870184Y-24397737D01*
X24774211Y-24550476D01*
X24714631Y-24720745D01*
X24714630Y-24720750D01*
X24694435Y-24899996D01*
X24694435Y-24900003D01*
X24714630Y-25079249D01*
X24714633Y-25079262D01*
X24776510Y-25256094D01*
X24774364Y-25256844D01*
X24783962Y-25315144D01*
X24775609Y-25343590D01*
X24776510Y-25343906D01*
X24714633Y-25520737D01*
X24714630Y-25520750D01*
X24694435Y-25699996D01*
X24694435Y-25700003D01*
X24714630Y-25879249D01*
X24714633Y-25879262D01*
X24776510Y-26056094D01*
X24774364Y-26056844D01*
X24783962Y-26115144D01*
X24775609Y-26143590D01*
X24776510Y-26143906D01*
X24714633Y-26320737D01*
X24714630Y-26320750D01*
X24694435Y-26499996D01*
X24694435Y-26500003D01*
X16350500Y-26500003D01*
X16350500Y-20000003D01*
X27294435Y-20000003D01*
X27314630Y-20179249D01*
X27314631Y-20179254D01*
X27374211Y-20349523D01*
X27374212Y-20349524D01*
X27470184Y-20502262D01*
X27597738Y-20629816D01*
X27750478Y-20725789D01*
X27920745Y-20785368D01*
X27920750Y-20785369D01*
X28099996Y-20805565D01*
X28100000Y-20805565D01*
X28100002Y-20805565D01*
X28129449Y-20802246D01*
X28164610Y-20798285D01*
X28233432Y-20810339D01*
X28284811Y-20857688D01*
X28302436Y-20925298D01*
X28301714Y-20935388D01*
X28294435Y-20999995D01*
X28294435Y-21000003D01*
X28314630Y-21179249D01*
X28314631Y-21179254D01*
X28374211Y-21349523D01*
X28470184Y-21502262D01*
X28597738Y-21629816D01*
X28750478Y-21725789D01*
X28920745Y-21785368D01*
X28920750Y-21785369D01*
X29099996Y-21805565D01*
X29100000Y-21805565D01*
X29100004Y-21805565D01*
X29279249Y-21785369D01*
X29279252Y-21785368D01*
X29279255Y-21785368D01*
X29449522Y-21725789D01*
X29534027Y-21672691D01*
X29601264Y-21653690D01*
X29665973Y-21672691D01*
X29750475Y-21725788D01*
X29920745Y-21785368D01*
X29920750Y-21785369D01*
X30099996Y-21805565D01*
X30100000Y-21805565D01*
X30100004Y-21805565D01*
X30279249Y-21785369D01*
X30279252Y-21785368D01*
X30279255Y-21785368D01*
X30449522Y-21725789D01*
X30534027Y-21672691D01*
X30601264Y-21653690D01*
X30665973Y-21672691D01*
X30750475Y-21725788D01*
X30920745Y-21785368D01*
X30920750Y-21785369D01*
X31099996Y-21805565D01*
X31100000Y-21805565D01*
X31100004Y-21805565D01*
X31279249Y-21785369D01*
X31279252Y-21785368D01*
X31279255Y-21785368D01*
X31449522Y-21725789D01*
X31602262Y-21629816D01*
X31729816Y-21502262D01*
X31825789Y-21349522D01*
X31885368Y-21179255D01*
X31905565Y-21000000D01*
X31905564Y-20999995D01*
X31885369Y-20820750D01*
X31885368Y-20820745D01*
X31825788Y-20650475D01*
X31772691Y-20565973D01*
X31753690Y-20498736D01*
X31772691Y-20434027D01*
X31825788Y-20349524D01*
X31885368Y-20179254D01*
X31885369Y-20179249D01*
X31905565Y-20000003D01*
X31905565Y-19999997D01*
X31898285Y-19935389D01*
X31910339Y-19866567D01*
X31957688Y-19815188D01*
X32025298Y-19797563D01*
X32035385Y-19798284D01*
X32061857Y-19801267D01*
X32099998Y-19805565D01*
X32100000Y-19805565D01*
X32100004Y-19805565D01*
X32279249Y-19785369D01*
X32279252Y-19785368D01*
X32279255Y-19785368D01*
X32449522Y-19725789D01*
X32602262Y-19629816D01*
X32729816Y-19502262D01*
X32825789Y-19349522D01*
X32885368Y-19179255D01*
X32905565Y-19000000D01*
X32885368Y-18820745D01*
X32825789Y-18650478D01*
X32825788Y-18650475D01*
X32772691Y-18565973D01*
X32753690Y-18498736D01*
X32772691Y-18434027D01*
X32825788Y-18349524D01*
X32825789Y-18349522D01*
X32885368Y-18179255D01*
X32905565Y-18000000D01*
X32898285Y-17935388D01*
X32910339Y-17866567D01*
X32957688Y-17815188D01*
X33025298Y-17797563D01*
X33035385Y-17798284D01*
X33061857Y-17801267D01*
X33099998Y-17805565D01*
X33100000Y-17805565D01*
X33100004Y-17805565D01*
X33279249Y-17785369D01*
X33279252Y-17785368D01*
X33279255Y-17785368D01*
X33449522Y-17725789D01*
X33534027Y-17672691D01*
X33601264Y-17653690D01*
X33665973Y-17672691D01*
X33750475Y-17725788D01*
X33920745Y-17785368D01*
X33920750Y-17785369D01*
X34099996Y-17805565D01*
X34100000Y-17805565D01*
X34100004Y-17805565D01*
X34279249Y-17785369D01*
X34279252Y-17785368D01*
X34279255Y-17785368D01*
X34449522Y-17725789D01*
X34534027Y-17672691D01*
X34601264Y-17653690D01*
X34665973Y-17672691D01*
X34750475Y-17725788D01*
X34920745Y-17785368D01*
X34920750Y-17785369D01*
X35099996Y-17805565D01*
X35100000Y-17805565D01*
X35100004Y-17805565D01*
X35279249Y-17785369D01*
X35279252Y-17785368D01*
X35279255Y-17785368D01*
X35449522Y-17725789D01*
X35534027Y-17672691D01*
X35601264Y-17653690D01*
X35665973Y-17672691D01*
X35750475Y-17725788D01*
X35920745Y-17785368D01*
X35920750Y-17785369D01*
X36099996Y-17805565D01*
X36100000Y-17805565D01*
X36100004Y-17805565D01*
X36279249Y-17785369D01*
X36279252Y-17785368D01*
X36279255Y-17785368D01*
X36449522Y-17725789D01*
X36602262Y-17629816D01*
X36729816Y-17502262D01*
X36825789Y-17349522D01*
X36885368Y-17179255D01*
X36905565Y-17000000D01*
X36885368Y-16820745D01*
X36825789Y-16650478D01*
X36729816Y-16497738D01*
X36602262Y-16370184D01*
X36534027Y-16327309D01*
X36449523Y-16274211D01*
X36279254Y-16214631D01*
X36279249Y-16214630D01*
X36100004Y-16194435D01*
X36099996Y-16194435D01*
X35920750Y-16214630D01*
X35920737Y-16214633D01*
X35750479Y-16274209D01*
X35665971Y-16327309D01*
X35598734Y-16346309D01*
X35534029Y-16327309D01*
X35449520Y-16274209D01*
X35279262Y-16214633D01*
X35279249Y-16214630D01*
X35100004Y-16194435D01*
X35099996Y-16194435D01*
X34920750Y-16214630D01*
X34920737Y-16214633D01*
X34750479Y-16274209D01*
X34665971Y-16327309D01*
X34598734Y-16346309D01*
X34534029Y-16327309D01*
X34449520Y-16274209D01*
X34279262Y-16214633D01*
X34279249Y-16214630D01*
X34100004Y-16194435D01*
X34099996Y-16194435D01*
X33920750Y-16214630D01*
X33920737Y-16214633D01*
X33750479Y-16274209D01*
X33665971Y-16327309D01*
X33598734Y-16346309D01*
X33534029Y-16327309D01*
X33449520Y-16274209D01*
X33279262Y-16214633D01*
X33279249Y-16214630D01*
X33100004Y-16194435D01*
X33099996Y-16194435D01*
X32920750Y-16214630D01*
X32920737Y-16214633D01*
X32750479Y-16274209D01*
X32665971Y-16327309D01*
X32598734Y-16346309D01*
X32534029Y-16327309D01*
X32449520Y-16274209D01*
X32279262Y-16214633D01*
X32279249Y-16214630D01*
X32100004Y-16194435D01*
X32099996Y-16194435D01*
X31920750Y-16214630D01*
X31920737Y-16214633D01*
X31750479Y-16274209D01*
X31665971Y-16327309D01*
X31598734Y-16346309D01*
X31534029Y-16327309D01*
X31449520Y-16274209D01*
X31279262Y-16214633D01*
X31279249Y-16214630D01*
X31100004Y-16194435D01*
X31099996Y-16194435D01*
X30920750Y-16214630D01*
X30920737Y-16214633D01*
X30750479Y-16274209D01*
X30665971Y-16327309D01*
X30598734Y-16346309D01*
X30534029Y-16327309D01*
X30449520Y-16274209D01*
X30279262Y-16214633D01*
X30279249Y-16214630D01*
X30100004Y-16194435D01*
X30099996Y-16194435D01*
X29920750Y-16214630D01*
X29920737Y-16214633D01*
X29750479Y-16274209D01*
X29665971Y-16327309D01*
X29598734Y-16346309D01*
X29534029Y-16327309D01*
X29449520Y-16274209D01*
X29279262Y-16214633D01*
X29279249Y-16214630D01*
X29100004Y-16194435D01*
X29099996Y-16194435D01*
X28920750Y-16214630D01*
X28920737Y-16214633D01*
X28750479Y-16274209D01*
X28665971Y-16327309D01*
X28598734Y-16346309D01*
X28534029Y-16327309D01*
X28449520Y-16274209D01*
X28279262Y-16214633D01*
X28279249Y-16214630D01*
X28100004Y-16194435D01*
X28099996Y-16194435D01*
X27920750Y-16214630D01*
X27920745Y-16214631D01*
X27750476Y-16274211D01*
X27597737Y-16370184D01*
X27470184Y-16497737D01*
X27374211Y-16650476D01*
X27314631Y-16820745D01*
X27314630Y-16820750D01*
X27294435Y-16999996D01*
X27294435Y-17000003D01*
X27314630Y-17179249D01*
X27314633Y-17179262D01*
X27374209Y-17349520D01*
X27427309Y-17434029D01*
X27446309Y-17501266D01*
X27427309Y-17565971D01*
X27374209Y-17650479D01*
X27314633Y-17820737D01*
X27314630Y-17820750D01*
X27294435Y-17999996D01*
X27294435Y-18000003D01*
X27314630Y-18179249D01*
X27314633Y-18179262D01*
X27374209Y-18349520D01*
X27427309Y-18434029D01*
X27446309Y-18501266D01*
X27427309Y-18565971D01*
X27374209Y-18650479D01*
X27314633Y-18820737D01*
X27314630Y-18820750D01*
X27294435Y-18999996D01*
X27294435Y-19000003D01*
X27314630Y-19179249D01*
X27314633Y-19179262D01*
X27374209Y-19349520D01*
X27427309Y-19434029D01*
X27446309Y-19501266D01*
X27427309Y-19565971D01*
X27374209Y-19650479D01*
X27314633Y-19820737D01*
X27314630Y-19820750D01*
X27294435Y-19999996D01*
X27294435Y-20000003D01*
X16350500Y-20000003D01*
X16350500Y-15624500D01*
X16370185Y-15557461D01*
X16422989Y-15511706D01*
X16474500Y-15500500D01*
X43475500Y-15500500D01*
X43542539Y-15520185D01*
G37*
G04 #@! TD.AperFunction*
M02*
