%TF.GenerationSoftware,KiCad,Pcbnew,8.0.1*%
%TF.CreationDate,2025-03-06T15:29:20-05:00*%
%TF.ProjectId,Relay Stick Fix,52656c61-7920-4537-9469-636b20466978,rev?*%
%TF.SameCoordinates,Original*%
%TF.FileFunction,Drillmap*%
%TF.FilePolarity,Positive*%
%FSLAX45Y45*%
G04 Gerber Fmt 4.5, Leading zero omitted, Abs format (unit mm)*
G04 Created by KiCad (PCBNEW 8.0.1) date 2025-03-06 15:29:20*
%MOMM*%
%LPD*%
G01*
G04 APERTURE LIST*
%ADD10C,0.050000*%
%ADD11C,0.200000*%
G04 APERTURE END LIST*
D10*
X4410000Y-4200000D02*
X1585000Y-4200000D01*
X1585000Y-1500000D01*
X4410000Y-1500000D01*
X4410000Y-4200000D01*
D11*
X1843277Y-4513984D02*
X1843277Y-4313984D01*
X1843277Y-4313984D02*
X1890896Y-4313984D01*
X1890896Y-4313984D02*
X1919467Y-4323508D01*
X1919467Y-4323508D02*
X1938515Y-4342555D01*
X1938515Y-4342555D02*
X1948039Y-4361603D01*
X1948039Y-4361603D02*
X1957562Y-4399698D01*
X1957562Y-4399698D02*
X1957562Y-4428270D01*
X1957562Y-4428270D02*
X1948039Y-4466365D01*
X1948039Y-4466365D02*
X1938515Y-4485412D01*
X1938515Y-4485412D02*
X1919467Y-4504460D01*
X1919467Y-4504460D02*
X1890896Y-4513984D01*
X1890896Y-4513984D02*
X1843277Y-4513984D01*
X2043277Y-4513984D02*
X2043277Y-4380650D01*
X2043277Y-4418746D02*
X2052801Y-4399698D01*
X2052801Y-4399698D02*
X2062324Y-4390174D01*
X2062324Y-4390174D02*
X2081372Y-4380650D01*
X2081372Y-4380650D02*
X2100420Y-4380650D01*
X2167086Y-4513984D02*
X2167086Y-4380650D01*
X2167086Y-4313984D02*
X2157563Y-4323508D01*
X2157563Y-4323508D02*
X2167086Y-4333031D01*
X2167086Y-4333031D02*
X2176610Y-4323508D01*
X2176610Y-4323508D02*
X2167086Y-4313984D01*
X2167086Y-4313984D02*
X2167086Y-4333031D01*
X2290896Y-4513984D02*
X2271848Y-4504460D01*
X2271848Y-4504460D02*
X2262324Y-4485412D01*
X2262324Y-4485412D02*
X2262324Y-4313984D01*
X2395658Y-4513984D02*
X2376610Y-4504460D01*
X2376610Y-4504460D02*
X2367086Y-4485412D01*
X2367086Y-4485412D02*
X2367086Y-4313984D01*
X2624229Y-4513984D02*
X2624229Y-4313984D01*
X2624229Y-4313984D02*
X2690896Y-4456841D01*
X2690896Y-4456841D02*
X2757563Y-4313984D01*
X2757563Y-4313984D02*
X2757563Y-4513984D01*
X2938515Y-4513984D02*
X2938515Y-4409222D01*
X2938515Y-4409222D02*
X2928991Y-4390174D01*
X2928991Y-4390174D02*
X2909943Y-4380650D01*
X2909943Y-4380650D02*
X2871848Y-4380650D01*
X2871848Y-4380650D02*
X2852801Y-4390174D01*
X2938515Y-4504460D02*
X2919467Y-4513984D01*
X2919467Y-4513984D02*
X2871848Y-4513984D01*
X2871848Y-4513984D02*
X2852801Y-4504460D01*
X2852801Y-4504460D02*
X2843277Y-4485412D01*
X2843277Y-4485412D02*
X2843277Y-4466365D01*
X2843277Y-4466365D02*
X2852801Y-4447317D01*
X2852801Y-4447317D02*
X2871848Y-4437793D01*
X2871848Y-4437793D02*
X2919467Y-4437793D01*
X2919467Y-4437793D02*
X2938515Y-4428270D01*
X3033753Y-4380650D02*
X3033753Y-4580650D01*
X3033753Y-4390174D02*
X3052801Y-4380650D01*
X3052801Y-4380650D02*
X3090896Y-4380650D01*
X3090896Y-4380650D02*
X3109943Y-4390174D01*
X3109943Y-4390174D02*
X3119467Y-4399698D01*
X3119467Y-4399698D02*
X3128991Y-4418746D01*
X3128991Y-4418746D02*
X3128991Y-4475889D01*
X3128991Y-4475889D02*
X3119467Y-4494936D01*
X3119467Y-4494936D02*
X3109943Y-4504460D01*
X3109943Y-4504460D02*
X3090896Y-4513984D01*
X3090896Y-4513984D02*
X3052801Y-4513984D01*
X3052801Y-4513984D02*
X3033753Y-4504460D01*
X3214705Y-4494936D02*
X3224229Y-4504460D01*
X3224229Y-4504460D02*
X3214705Y-4513984D01*
X3214705Y-4513984D02*
X3205182Y-4504460D01*
X3205182Y-4504460D02*
X3214705Y-4494936D01*
X3214705Y-4494936D02*
X3214705Y-4513984D01*
X3214705Y-4390174D02*
X3224229Y-4399698D01*
X3224229Y-4399698D02*
X3214705Y-4409222D01*
X3214705Y-4409222D02*
X3205182Y-4399698D01*
X3205182Y-4399698D02*
X3214705Y-4390174D01*
X3214705Y-4390174D02*
X3214705Y-4409222D01*
M02*
