%TF.GenerationSoftware,KiCad,Pcbnew,8.0.1*%
%TF.CreationDate,2025-02-26T15:39:50-05:00*%
%TF.ProjectId,Relay Stick Fix,52656c61-7920-4537-9469-636b20466978,rev?*%
%TF.SameCoordinates,Original*%
%TF.FileFunction,Drillmap*%
%TF.FilePolarity,Positive*%
%FSLAX45Y45*%
G04 Gerber Fmt 4.5, Leading zero omitted, Abs format (unit mm)*
G04 Created by KiCad (PCBNEW 8.0.1) date 2025-02-26 15:39:50*
%MOMM*%
%LPD*%
G01*
G04 APERTURE LIST*
%ADD10C,0.050000*%
%ADD11C,0.200000*%
%ADD12C,0.100000*%
%ADD13C,0.320000*%
G04 APERTURE END LIST*
D10*
X4410000Y-4200000D02*
X1585000Y-4200000D01*
X1585000Y-1500000D01*
X4410000Y-1500000D01*
X4410000Y-4200000D01*
D11*
D12*
X1695000Y-1610000D02*
X1725000Y-1640000D01*
X1725000Y-1610000D02*
X1695000Y-1640000D01*
X1795000Y-1610000D02*
X1825000Y-1640000D01*
X1825000Y-1610000D02*
X1795000Y-1640000D01*
X1895000Y-1610000D02*
X1925000Y-1640000D01*
X1925000Y-1610000D02*
X1895000Y-1640000D01*
X2045000Y-2360000D02*
X2075000Y-2390000D01*
X2075000Y-2360000D02*
X2045000Y-2390000D01*
X2240000Y-3235000D02*
X2270000Y-3265000D01*
X2270000Y-3235000D02*
X2240000Y-3265000D01*
X2320000Y-3835000D02*
X2350000Y-3865000D01*
X2350000Y-3835000D02*
X2320000Y-3865000D01*
X2470000Y-3360000D02*
X2500000Y-3390000D01*
X2500000Y-3360000D02*
X2470000Y-3390000D01*
X2535000Y-2475000D02*
X2565000Y-2505000D01*
X2565000Y-2475000D02*
X2535000Y-2505000D01*
X2535000Y-2555000D02*
X2565000Y-2585000D01*
X2565000Y-2555000D02*
X2535000Y-2585000D01*
X2535000Y-2635000D02*
X2565000Y-2665000D01*
X2565000Y-2635000D02*
X2535000Y-2665000D01*
X2535000Y-2845000D02*
X2565000Y-2875000D01*
X2565000Y-2845000D02*
X2535000Y-2875000D01*
X2535000Y-2925000D02*
X2565000Y-2955000D01*
X2565000Y-2925000D02*
X2535000Y-2955000D01*
X2535000Y-3005000D02*
X2565000Y-3035000D01*
X2565000Y-3005000D02*
X2535000Y-3035000D01*
X2615000Y-2635000D02*
X2645000Y-2665000D01*
X2645000Y-2635000D02*
X2615000Y-2665000D01*
X2615000Y-2845000D02*
X2645000Y-2875000D01*
X2645000Y-2845000D02*
X2615000Y-2875000D01*
X2695000Y-2635000D02*
X2725000Y-2665000D01*
X2725000Y-2635000D02*
X2695000Y-2665000D01*
X2695000Y-2845000D02*
X2725000Y-2875000D01*
X2725000Y-2845000D02*
X2695000Y-2875000D01*
X2770000Y-3420789D02*
X2800000Y-3450789D01*
X2800000Y-3420789D02*
X2770000Y-3450789D01*
X2795000Y-1685000D02*
X2825000Y-1715000D01*
X2825000Y-1685000D02*
X2795000Y-1715000D01*
X2795000Y-1785000D02*
X2825000Y-1815000D01*
X2825000Y-1785000D02*
X2795000Y-1815000D01*
X2795000Y-1885000D02*
X2825000Y-1915000D01*
X2825000Y-1885000D02*
X2795000Y-1915000D01*
X2795000Y-1985000D02*
X2825000Y-2015000D01*
X2825000Y-1985000D02*
X2795000Y-2015000D01*
X2820000Y-3135000D02*
X2850000Y-3165000D01*
X2850000Y-3135000D02*
X2820000Y-3165000D01*
X2845000Y-3937500D02*
X2875000Y-3967500D01*
X2875000Y-3937500D02*
X2845000Y-3967500D01*
X2895000Y-1685000D02*
X2925000Y-1715000D01*
X2925000Y-1685000D02*
X2895000Y-1715000D01*
X2895000Y-1785000D02*
X2925000Y-1815000D01*
X2925000Y-1785000D02*
X2895000Y-1815000D01*
X2895000Y-1885000D02*
X2925000Y-1915000D01*
X2925000Y-1885000D02*
X2895000Y-1915000D01*
X2895000Y-1985000D02*
X2925000Y-2015000D01*
X2925000Y-1985000D02*
X2895000Y-2015000D01*
X2895000Y-2085000D02*
X2925000Y-2115000D01*
X2925000Y-2085000D02*
X2895000Y-2115000D01*
X2995000Y-1685000D02*
X3025000Y-1715000D01*
X3025000Y-1685000D02*
X2995000Y-1715000D01*
X2995000Y-1785000D02*
X3025000Y-1815000D01*
X3025000Y-1785000D02*
X2995000Y-1815000D01*
X2995000Y-1885000D02*
X3025000Y-1915000D01*
X3025000Y-1885000D02*
X2995000Y-1915000D01*
X2995000Y-1985000D02*
X3025000Y-2015000D01*
X3025000Y-1985000D02*
X2995000Y-2015000D01*
X2995000Y-2085000D02*
X3025000Y-2115000D01*
X3025000Y-2085000D02*
X2995000Y-2115000D01*
X3095000Y-1685000D02*
X3125000Y-1715000D01*
X3125000Y-1685000D02*
X3095000Y-1715000D01*
X3095000Y-1785000D02*
X3125000Y-1815000D01*
X3125000Y-1785000D02*
X3095000Y-1815000D01*
X3095000Y-1885000D02*
X3125000Y-1915000D01*
X3125000Y-1885000D02*
X3095000Y-1915000D01*
X3095000Y-1985000D02*
X3125000Y-2015000D01*
X3125000Y-1985000D02*
X3095000Y-2015000D01*
X3095000Y-2085000D02*
X3125000Y-2115000D01*
X3125000Y-2085000D02*
X3095000Y-2115000D01*
X3195000Y-1685000D02*
X3225000Y-1715000D01*
X3225000Y-1685000D02*
X3195000Y-1715000D01*
X3195000Y-1785000D02*
X3225000Y-1815000D01*
X3225000Y-1785000D02*
X3195000Y-1815000D01*
X3195000Y-1885000D02*
X3225000Y-1915000D01*
X3225000Y-1885000D02*
X3195000Y-1915000D01*
X3195000Y-3155000D02*
X3225000Y-3185000D01*
X3225000Y-3155000D02*
X3195000Y-3185000D01*
X3295000Y-1685000D02*
X3325000Y-1715000D01*
X3325000Y-1685000D02*
X3295000Y-1715000D01*
X3395000Y-1685000D02*
X3425000Y-1715000D01*
X3425000Y-1685000D02*
X3395000Y-1715000D01*
X3495000Y-1685000D02*
X3525000Y-1715000D01*
X3525000Y-1685000D02*
X3495000Y-1715000D01*
X3595000Y-1685000D02*
X3625000Y-1715000D01*
X3625000Y-1685000D02*
X3595000Y-1715000D01*
X3805000Y-3365000D02*
X3835000Y-3395000D01*
X3835000Y-3365000D02*
X3805000Y-3395000D01*
X3895000Y-3655000D02*
X3925000Y-3685000D01*
X3925000Y-3655000D02*
X3895000Y-3685000D01*
X3935000Y-1685000D02*
X3965000Y-1715000D01*
X3965000Y-1685000D02*
X3935000Y-1715000D01*
X3945000Y-3985000D02*
X3975000Y-4015000D01*
X3975000Y-3985000D02*
X3945000Y-4015000D01*
X2695000Y-2540000D02*
G75*
G02*
X2645000Y-2540000I-25000J0D01*
G01*
X2645000Y-2540000D02*
G75*
G02*
X2695000Y-2540000I25000J0D01*
G01*
X2695000Y-2970000D02*
G75*
G02*
X2645000Y-2970000I-25000J0D01*
G01*
X2645000Y-2970000D02*
G75*
G02*
X2695000Y-2970000I25000J0D01*
G01*
D13*
X3561700Y-2855100D02*
X3561700Y-3175100D01*
X3401700Y-3015100D02*
X3721700Y-3015100D01*
D11*
X1843277Y-4513984D02*
X1843277Y-4313984D01*
X1843277Y-4313984D02*
X1890896Y-4313984D01*
X1890896Y-4313984D02*
X1919467Y-4323508D01*
X1919467Y-4323508D02*
X1938515Y-4342555D01*
X1938515Y-4342555D02*
X1948039Y-4361603D01*
X1948039Y-4361603D02*
X1957562Y-4399698D01*
X1957562Y-4399698D02*
X1957562Y-4428270D01*
X1957562Y-4428270D02*
X1948039Y-4466365D01*
X1948039Y-4466365D02*
X1938515Y-4485412D01*
X1938515Y-4485412D02*
X1919467Y-4504460D01*
X1919467Y-4504460D02*
X1890896Y-4513984D01*
X1890896Y-4513984D02*
X1843277Y-4513984D01*
X2043277Y-4513984D02*
X2043277Y-4380650D01*
X2043277Y-4418746D02*
X2052801Y-4399698D01*
X2052801Y-4399698D02*
X2062324Y-4390174D01*
X2062324Y-4390174D02*
X2081372Y-4380650D01*
X2081372Y-4380650D02*
X2100420Y-4380650D01*
X2167086Y-4513984D02*
X2167086Y-4380650D01*
X2167086Y-4313984D02*
X2157563Y-4323508D01*
X2157563Y-4323508D02*
X2167086Y-4333031D01*
X2167086Y-4333031D02*
X2176610Y-4323508D01*
X2176610Y-4323508D02*
X2167086Y-4313984D01*
X2167086Y-4313984D02*
X2167086Y-4333031D01*
X2290896Y-4513984D02*
X2271848Y-4504460D01*
X2271848Y-4504460D02*
X2262324Y-4485412D01*
X2262324Y-4485412D02*
X2262324Y-4313984D01*
X2395658Y-4513984D02*
X2376610Y-4504460D01*
X2376610Y-4504460D02*
X2367086Y-4485412D01*
X2367086Y-4485412D02*
X2367086Y-4313984D01*
X2624229Y-4513984D02*
X2624229Y-4313984D01*
X2624229Y-4313984D02*
X2690896Y-4456841D01*
X2690896Y-4456841D02*
X2757563Y-4313984D01*
X2757563Y-4313984D02*
X2757563Y-4513984D01*
X2938515Y-4513984D02*
X2938515Y-4409222D01*
X2938515Y-4409222D02*
X2928991Y-4390174D01*
X2928991Y-4390174D02*
X2909943Y-4380650D01*
X2909943Y-4380650D02*
X2871848Y-4380650D01*
X2871848Y-4380650D02*
X2852801Y-4390174D01*
X2938515Y-4504460D02*
X2919467Y-4513984D01*
X2919467Y-4513984D02*
X2871848Y-4513984D01*
X2871848Y-4513984D02*
X2852801Y-4504460D01*
X2852801Y-4504460D02*
X2843277Y-4485412D01*
X2843277Y-4485412D02*
X2843277Y-4466365D01*
X2843277Y-4466365D02*
X2852801Y-4447317D01*
X2852801Y-4447317D02*
X2871848Y-4437793D01*
X2871848Y-4437793D02*
X2919467Y-4437793D01*
X2919467Y-4437793D02*
X2938515Y-4428270D01*
X3033753Y-4380650D02*
X3033753Y-4580650D01*
X3033753Y-4390174D02*
X3052801Y-4380650D01*
X3052801Y-4380650D02*
X3090896Y-4380650D01*
X3090896Y-4380650D02*
X3109943Y-4390174D01*
X3109943Y-4390174D02*
X3119467Y-4399698D01*
X3119467Y-4399698D02*
X3128991Y-4418746D01*
X3128991Y-4418746D02*
X3128991Y-4475889D01*
X3128991Y-4475889D02*
X3119467Y-4494936D01*
X3119467Y-4494936D02*
X3109943Y-4504460D01*
X3109943Y-4504460D02*
X3090896Y-4513984D01*
X3090896Y-4513984D02*
X3052801Y-4513984D01*
X3052801Y-4513984D02*
X3033753Y-4504460D01*
X3214705Y-4494936D02*
X3224229Y-4504460D01*
X3224229Y-4504460D02*
X3214705Y-4513984D01*
X3214705Y-4513984D02*
X3205182Y-4504460D01*
X3205182Y-4504460D02*
X3214705Y-4494936D01*
X3214705Y-4494936D02*
X3214705Y-4513984D01*
X3214705Y-4390174D02*
X3224229Y-4399698D01*
X3224229Y-4399698D02*
X3214705Y-4409222D01*
X3214705Y-4409222D02*
X3205182Y-4399698D01*
X3205182Y-4399698D02*
X3214705Y-4390174D01*
X3214705Y-4390174D02*
X3214705Y-4409222D01*
D12*
X1552500Y-4827500D02*
X1582500Y-4857500D01*
X1582500Y-4827500D02*
X1552500Y-4857500D01*
D11*
X1881372Y-4733984D02*
X1900420Y-4733984D01*
X1900420Y-4733984D02*
X1919467Y-4743508D01*
X1919467Y-4743508D02*
X1928991Y-4753031D01*
X1928991Y-4753031D02*
X1938515Y-4772079D01*
X1938515Y-4772079D02*
X1948039Y-4810174D01*
X1948039Y-4810174D02*
X1948039Y-4857793D01*
X1948039Y-4857793D02*
X1938515Y-4895889D01*
X1938515Y-4895889D02*
X1928991Y-4914936D01*
X1928991Y-4914936D02*
X1919467Y-4924460D01*
X1919467Y-4924460D02*
X1900420Y-4933984D01*
X1900420Y-4933984D02*
X1881372Y-4933984D01*
X1881372Y-4933984D02*
X1862324Y-4924460D01*
X1862324Y-4924460D02*
X1852801Y-4914936D01*
X1852801Y-4914936D02*
X1843277Y-4895889D01*
X1843277Y-4895889D02*
X1833753Y-4857793D01*
X1833753Y-4857793D02*
X1833753Y-4810174D01*
X1833753Y-4810174D02*
X1843277Y-4772079D01*
X1843277Y-4772079D02*
X1852801Y-4753031D01*
X1852801Y-4753031D02*
X1862324Y-4743508D01*
X1862324Y-4743508D02*
X1881372Y-4733984D01*
X2033753Y-4914936D02*
X2043277Y-4924460D01*
X2043277Y-4924460D02*
X2033753Y-4933984D01*
X2033753Y-4933984D02*
X2024229Y-4924460D01*
X2024229Y-4924460D02*
X2033753Y-4914936D01*
X2033753Y-4914936D02*
X2033753Y-4933984D01*
X2109944Y-4733984D02*
X2233753Y-4733984D01*
X2233753Y-4733984D02*
X2167086Y-4810174D01*
X2167086Y-4810174D02*
X2195658Y-4810174D01*
X2195658Y-4810174D02*
X2214705Y-4819698D01*
X2214705Y-4819698D02*
X2224229Y-4829222D01*
X2224229Y-4829222D02*
X2233753Y-4848270D01*
X2233753Y-4848270D02*
X2233753Y-4895889D01*
X2233753Y-4895889D02*
X2224229Y-4914936D01*
X2224229Y-4914936D02*
X2214705Y-4924460D01*
X2214705Y-4924460D02*
X2195658Y-4933984D01*
X2195658Y-4933984D02*
X2138515Y-4933984D01*
X2138515Y-4933984D02*
X2119467Y-4924460D01*
X2119467Y-4924460D02*
X2109944Y-4914936D01*
X2357563Y-4733984D02*
X2376610Y-4733984D01*
X2376610Y-4733984D02*
X2395658Y-4743508D01*
X2395658Y-4743508D02*
X2405182Y-4753031D01*
X2405182Y-4753031D02*
X2414705Y-4772079D01*
X2414705Y-4772079D02*
X2424229Y-4810174D01*
X2424229Y-4810174D02*
X2424229Y-4857793D01*
X2424229Y-4857793D02*
X2414705Y-4895889D01*
X2414705Y-4895889D02*
X2405182Y-4914936D01*
X2405182Y-4914936D02*
X2395658Y-4924460D01*
X2395658Y-4924460D02*
X2376610Y-4933984D01*
X2376610Y-4933984D02*
X2357563Y-4933984D01*
X2357563Y-4933984D02*
X2338515Y-4924460D01*
X2338515Y-4924460D02*
X2328991Y-4914936D01*
X2328991Y-4914936D02*
X2319467Y-4895889D01*
X2319467Y-4895889D02*
X2309944Y-4857793D01*
X2309944Y-4857793D02*
X2309944Y-4810174D01*
X2309944Y-4810174D02*
X2319467Y-4772079D01*
X2319467Y-4772079D02*
X2328991Y-4753031D01*
X2328991Y-4753031D02*
X2338515Y-4743508D01*
X2338515Y-4743508D02*
X2357563Y-4733984D01*
X2548039Y-4733984D02*
X2567086Y-4733984D01*
X2567086Y-4733984D02*
X2586134Y-4743508D01*
X2586134Y-4743508D02*
X2595658Y-4753031D01*
X2595658Y-4753031D02*
X2605182Y-4772079D01*
X2605182Y-4772079D02*
X2614705Y-4810174D01*
X2614705Y-4810174D02*
X2614705Y-4857793D01*
X2614705Y-4857793D02*
X2605182Y-4895889D01*
X2605182Y-4895889D02*
X2595658Y-4914936D01*
X2595658Y-4914936D02*
X2586134Y-4924460D01*
X2586134Y-4924460D02*
X2567086Y-4933984D01*
X2567086Y-4933984D02*
X2548039Y-4933984D01*
X2548039Y-4933984D02*
X2528991Y-4924460D01*
X2528991Y-4924460D02*
X2519467Y-4914936D01*
X2519467Y-4914936D02*
X2509944Y-4895889D01*
X2509944Y-4895889D02*
X2500420Y-4857793D01*
X2500420Y-4857793D02*
X2500420Y-4810174D01*
X2500420Y-4810174D02*
X2509944Y-4772079D01*
X2509944Y-4772079D02*
X2519467Y-4753031D01*
X2519467Y-4753031D02*
X2528991Y-4743508D01*
X2528991Y-4743508D02*
X2548039Y-4733984D01*
X2700420Y-4933984D02*
X2700420Y-4800650D01*
X2700420Y-4819698D02*
X2709944Y-4810174D01*
X2709944Y-4810174D02*
X2728991Y-4800650D01*
X2728991Y-4800650D02*
X2757563Y-4800650D01*
X2757563Y-4800650D02*
X2776610Y-4810174D01*
X2776610Y-4810174D02*
X2786134Y-4829222D01*
X2786134Y-4829222D02*
X2786134Y-4933984D01*
X2786134Y-4829222D02*
X2795658Y-4810174D01*
X2795658Y-4810174D02*
X2814705Y-4800650D01*
X2814705Y-4800650D02*
X2843277Y-4800650D01*
X2843277Y-4800650D02*
X2862324Y-4810174D01*
X2862324Y-4810174D02*
X2871848Y-4829222D01*
X2871848Y-4829222D02*
X2871848Y-4933984D01*
X2967086Y-4933984D02*
X2967086Y-4800650D01*
X2967086Y-4819698D02*
X2976610Y-4810174D01*
X2976610Y-4810174D02*
X2995658Y-4800650D01*
X2995658Y-4800650D02*
X3024229Y-4800650D01*
X3024229Y-4800650D02*
X3043277Y-4810174D01*
X3043277Y-4810174D02*
X3052801Y-4829222D01*
X3052801Y-4829222D02*
X3052801Y-4933984D01*
X3052801Y-4829222D02*
X3062324Y-4810174D01*
X3062324Y-4810174D02*
X3081372Y-4800650D01*
X3081372Y-4800650D02*
X3109943Y-4800650D01*
X3109943Y-4800650D02*
X3128991Y-4810174D01*
X3128991Y-4810174D02*
X3138515Y-4829222D01*
X3138515Y-4829222D02*
X3138515Y-4933984D01*
X3528991Y-4724460D02*
X3357563Y-4981603D01*
X3786134Y-4733984D02*
X3805182Y-4733984D01*
X3805182Y-4733984D02*
X3824229Y-4743508D01*
X3824229Y-4743508D02*
X3833753Y-4753031D01*
X3833753Y-4753031D02*
X3843277Y-4772079D01*
X3843277Y-4772079D02*
X3852801Y-4810174D01*
X3852801Y-4810174D02*
X3852801Y-4857793D01*
X3852801Y-4857793D02*
X3843277Y-4895889D01*
X3843277Y-4895889D02*
X3833753Y-4914936D01*
X3833753Y-4914936D02*
X3824229Y-4924460D01*
X3824229Y-4924460D02*
X3805182Y-4933984D01*
X3805182Y-4933984D02*
X3786134Y-4933984D01*
X3786134Y-4933984D02*
X3767086Y-4924460D01*
X3767086Y-4924460D02*
X3757563Y-4914936D01*
X3757563Y-4914936D02*
X3748039Y-4895889D01*
X3748039Y-4895889D02*
X3738515Y-4857793D01*
X3738515Y-4857793D02*
X3738515Y-4810174D01*
X3738515Y-4810174D02*
X3748039Y-4772079D01*
X3748039Y-4772079D02*
X3757563Y-4753031D01*
X3757563Y-4753031D02*
X3767086Y-4743508D01*
X3767086Y-4743508D02*
X3786134Y-4733984D01*
X3938515Y-4914936D02*
X3948039Y-4924460D01*
X3948039Y-4924460D02*
X3938515Y-4933984D01*
X3938515Y-4933984D02*
X3928991Y-4924460D01*
X3928991Y-4924460D02*
X3938515Y-4914936D01*
X3938515Y-4914936D02*
X3938515Y-4933984D01*
X4071848Y-4733984D02*
X4090896Y-4733984D01*
X4090896Y-4733984D02*
X4109944Y-4743508D01*
X4109944Y-4743508D02*
X4119467Y-4753031D01*
X4119467Y-4753031D02*
X4128991Y-4772079D01*
X4128991Y-4772079D02*
X4138515Y-4810174D01*
X4138515Y-4810174D02*
X4138515Y-4857793D01*
X4138515Y-4857793D02*
X4128991Y-4895889D01*
X4128991Y-4895889D02*
X4119467Y-4914936D01*
X4119467Y-4914936D02*
X4109944Y-4924460D01*
X4109944Y-4924460D02*
X4090896Y-4933984D01*
X4090896Y-4933984D02*
X4071848Y-4933984D01*
X4071848Y-4933984D02*
X4052801Y-4924460D01*
X4052801Y-4924460D02*
X4043277Y-4914936D01*
X4043277Y-4914936D02*
X4033753Y-4895889D01*
X4033753Y-4895889D02*
X4024229Y-4857793D01*
X4024229Y-4857793D02*
X4024229Y-4810174D01*
X4024229Y-4810174D02*
X4033753Y-4772079D01*
X4033753Y-4772079D02*
X4043277Y-4753031D01*
X4043277Y-4753031D02*
X4052801Y-4743508D01*
X4052801Y-4743508D02*
X4071848Y-4733984D01*
X4328991Y-4933984D02*
X4214706Y-4933984D01*
X4271848Y-4933984D02*
X4271848Y-4733984D01*
X4271848Y-4733984D02*
X4252801Y-4762555D01*
X4252801Y-4762555D02*
X4233753Y-4781603D01*
X4233753Y-4781603D02*
X4214706Y-4791127D01*
X4519468Y-4933984D02*
X4405182Y-4933984D01*
X4462325Y-4933984D02*
X4462325Y-4733984D01*
X4462325Y-4733984D02*
X4443277Y-4762555D01*
X4443277Y-4762555D02*
X4424229Y-4781603D01*
X4424229Y-4781603D02*
X4405182Y-4791127D01*
X4633753Y-4819698D02*
X4614706Y-4810174D01*
X4614706Y-4810174D02*
X4605182Y-4800650D01*
X4605182Y-4800650D02*
X4595658Y-4781603D01*
X4595658Y-4781603D02*
X4595658Y-4772079D01*
X4595658Y-4772079D02*
X4605182Y-4753031D01*
X4605182Y-4753031D02*
X4614706Y-4743508D01*
X4614706Y-4743508D02*
X4633753Y-4733984D01*
X4633753Y-4733984D02*
X4671849Y-4733984D01*
X4671849Y-4733984D02*
X4690896Y-4743508D01*
X4690896Y-4743508D02*
X4700420Y-4753031D01*
X4700420Y-4753031D02*
X4709944Y-4772079D01*
X4709944Y-4772079D02*
X4709944Y-4781603D01*
X4709944Y-4781603D02*
X4700420Y-4800650D01*
X4700420Y-4800650D02*
X4690896Y-4810174D01*
X4690896Y-4810174D02*
X4671849Y-4819698D01*
X4671849Y-4819698D02*
X4633753Y-4819698D01*
X4633753Y-4819698D02*
X4614706Y-4829222D01*
X4614706Y-4829222D02*
X4605182Y-4838746D01*
X4605182Y-4838746D02*
X4595658Y-4857793D01*
X4595658Y-4857793D02*
X4595658Y-4895889D01*
X4595658Y-4895889D02*
X4605182Y-4914936D01*
X4605182Y-4914936D02*
X4614706Y-4924460D01*
X4614706Y-4924460D02*
X4633753Y-4933984D01*
X4633753Y-4933984D02*
X4671849Y-4933984D01*
X4671849Y-4933984D02*
X4690896Y-4924460D01*
X4690896Y-4924460D02*
X4700420Y-4914936D01*
X4700420Y-4914936D02*
X4709944Y-4895889D01*
X4709944Y-4895889D02*
X4709944Y-4857793D01*
X4709944Y-4857793D02*
X4700420Y-4838746D01*
X4700420Y-4838746D02*
X4690896Y-4829222D01*
X4690896Y-4829222D02*
X4671849Y-4819698D01*
X4786134Y-4733984D02*
X4786134Y-4772079D01*
X4862325Y-4733984D02*
X4862325Y-4772079D01*
X5157563Y-5010174D02*
X5148039Y-5000650D01*
X5148039Y-5000650D02*
X5128991Y-4972079D01*
X5128991Y-4972079D02*
X5119468Y-4953031D01*
X5119468Y-4953031D02*
X5109944Y-4924460D01*
X5109944Y-4924460D02*
X5100420Y-4876841D01*
X5100420Y-4876841D02*
X5100420Y-4838746D01*
X5100420Y-4838746D02*
X5109944Y-4791127D01*
X5109944Y-4791127D02*
X5119468Y-4762555D01*
X5119468Y-4762555D02*
X5128991Y-4743508D01*
X5128991Y-4743508D02*
X5148039Y-4714936D01*
X5148039Y-4714936D02*
X5157563Y-4705412D01*
X5328991Y-4733984D02*
X5233753Y-4733984D01*
X5233753Y-4733984D02*
X5224230Y-4829222D01*
X5224230Y-4829222D02*
X5233753Y-4819698D01*
X5233753Y-4819698D02*
X5252801Y-4810174D01*
X5252801Y-4810174D02*
X5300420Y-4810174D01*
X5300420Y-4810174D02*
X5319468Y-4819698D01*
X5319468Y-4819698D02*
X5328991Y-4829222D01*
X5328991Y-4829222D02*
X5338515Y-4848270D01*
X5338515Y-4848270D02*
X5338515Y-4895889D01*
X5338515Y-4895889D02*
X5328991Y-4914936D01*
X5328991Y-4914936D02*
X5319468Y-4924460D01*
X5319468Y-4924460D02*
X5300420Y-4933984D01*
X5300420Y-4933984D02*
X5252801Y-4933984D01*
X5252801Y-4933984D02*
X5233753Y-4924460D01*
X5233753Y-4924460D02*
X5224230Y-4914936D01*
X5528991Y-4933984D02*
X5414706Y-4933984D01*
X5471849Y-4933984D02*
X5471849Y-4733984D01*
X5471849Y-4733984D02*
X5452801Y-4762555D01*
X5452801Y-4762555D02*
X5433753Y-4781603D01*
X5433753Y-4781603D02*
X5414706Y-4791127D01*
X5767087Y-4933984D02*
X5767087Y-4733984D01*
X5852801Y-4933984D02*
X5852801Y-4829222D01*
X5852801Y-4829222D02*
X5843277Y-4810174D01*
X5843277Y-4810174D02*
X5824230Y-4800650D01*
X5824230Y-4800650D02*
X5795658Y-4800650D01*
X5795658Y-4800650D02*
X5776610Y-4810174D01*
X5776610Y-4810174D02*
X5767087Y-4819698D01*
X5976610Y-4933984D02*
X5957563Y-4924460D01*
X5957563Y-4924460D02*
X5948039Y-4914936D01*
X5948039Y-4914936D02*
X5938515Y-4895889D01*
X5938515Y-4895889D02*
X5938515Y-4838746D01*
X5938515Y-4838746D02*
X5948039Y-4819698D01*
X5948039Y-4819698D02*
X5957563Y-4810174D01*
X5957563Y-4810174D02*
X5976610Y-4800650D01*
X5976610Y-4800650D02*
X6005182Y-4800650D01*
X6005182Y-4800650D02*
X6024230Y-4810174D01*
X6024230Y-4810174D02*
X6033753Y-4819698D01*
X6033753Y-4819698D02*
X6043277Y-4838746D01*
X6043277Y-4838746D02*
X6043277Y-4895889D01*
X6043277Y-4895889D02*
X6033753Y-4914936D01*
X6033753Y-4914936D02*
X6024230Y-4924460D01*
X6024230Y-4924460D02*
X6005182Y-4933984D01*
X6005182Y-4933984D02*
X5976610Y-4933984D01*
X6157563Y-4933984D02*
X6138515Y-4924460D01*
X6138515Y-4924460D02*
X6128991Y-4905412D01*
X6128991Y-4905412D02*
X6128991Y-4733984D01*
X6309944Y-4924460D02*
X6290896Y-4933984D01*
X6290896Y-4933984D02*
X6252801Y-4933984D01*
X6252801Y-4933984D02*
X6233753Y-4924460D01*
X6233753Y-4924460D02*
X6224230Y-4905412D01*
X6224230Y-4905412D02*
X6224230Y-4829222D01*
X6224230Y-4829222D02*
X6233753Y-4810174D01*
X6233753Y-4810174D02*
X6252801Y-4800650D01*
X6252801Y-4800650D02*
X6290896Y-4800650D01*
X6290896Y-4800650D02*
X6309944Y-4810174D01*
X6309944Y-4810174D02*
X6319468Y-4829222D01*
X6319468Y-4829222D02*
X6319468Y-4848270D01*
X6319468Y-4848270D02*
X6224230Y-4867317D01*
X6395658Y-4924460D02*
X6414706Y-4933984D01*
X6414706Y-4933984D02*
X6452801Y-4933984D01*
X6452801Y-4933984D02*
X6471849Y-4924460D01*
X6471849Y-4924460D02*
X6481372Y-4905412D01*
X6481372Y-4905412D02*
X6481372Y-4895889D01*
X6481372Y-4895889D02*
X6471849Y-4876841D01*
X6471849Y-4876841D02*
X6452801Y-4867317D01*
X6452801Y-4867317D02*
X6424230Y-4867317D01*
X6424230Y-4867317D02*
X6405182Y-4857793D01*
X6405182Y-4857793D02*
X6395658Y-4838746D01*
X6395658Y-4838746D02*
X6395658Y-4829222D01*
X6395658Y-4829222D02*
X6405182Y-4810174D01*
X6405182Y-4810174D02*
X6424230Y-4800650D01*
X6424230Y-4800650D02*
X6452801Y-4800650D01*
X6452801Y-4800650D02*
X6471849Y-4810174D01*
X6548039Y-5010174D02*
X6557563Y-5000650D01*
X6557563Y-5000650D02*
X6576611Y-4972079D01*
X6576611Y-4972079D02*
X6586134Y-4953031D01*
X6586134Y-4953031D02*
X6595658Y-4924460D01*
X6595658Y-4924460D02*
X6605182Y-4876841D01*
X6605182Y-4876841D02*
X6605182Y-4838746D01*
X6605182Y-4838746D02*
X6595658Y-4791127D01*
X6595658Y-4791127D02*
X6586134Y-4762555D01*
X6586134Y-4762555D02*
X6576611Y-4743508D01*
X6576611Y-4743508D02*
X6557563Y-4714936D01*
X6557563Y-4714936D02*
X6548039Y-4705412D01*
D12*
X1582500Y-5106500D02*
G75*
G02*
X1532500Y-5106500I-25000J0D01*
G01*
X1532500Y-5106500D02*
G75*
G02*
X1582500Y-5106500I25000J0D01*
G01*
D11*
X1881372Y-4997984D02*
X1900420Y-4997984D01*
X1900420Y-4997984D02*
X1919467Y-5007508D01*
X1919467Y-5007508D02*
X1928991Y-5017031D01*
X1928991Y-5017031D02*
X1938515Y-5036079D01*
X1938515Y-5036079D02*
X1948039Y-5074174D01*
X1948039Y-5074174D02*
X1948039Y-5121793D01*
X1948039Y-5121793D02*
X1938515Y-5159889D01*
X1938515Y-5159889D02*
X1928991Y-5178936D01*
X1928991Y-5178936D02*
X1919467Y-5188460D01*
X1919467Y-5188460D02*
X1900420Y-5197984D01*
X1900420Y-5197984D02*
X1881372Y-5197984D01*
X1881372Y-5197984D02*
X1862324Y-5188460D01*
X1862324Y-5188460D02*
X1852801Y-5178936D01*
X1852801Y-5178936D02*
X1843277Y-5159889D01*
X1843277Y-5159889D02*
X1833753Y-5121793D01*
X1833753Y-5121793D02*
X1833753Y-5074174D01*
X1833753Y-5074174D02*
X1843277Y-5036079D01*
X1843277Y-5036079D02*
X1852801Y-5017031D01*
X1852801Y-5017031D02*
X1862324Y-5007508D01*
X1862324Y-5007508D02*
X1881372Y-4997984D01*
X2033753Y-5178936D02*
X2043277Y-5188460D01*
X2043277Y-5188460D02*
X2033753Y-5197984D01*
X2033753Y-5197984D02*
X2024229Y-5188460D01*
X2024229Y-5188460D02*
X2033753Y-5178936D01*
X2033753Y-5178936D02*
X2033753Y-5197984D01*
X2224229Y-4997984D02*
X2128991Y-4997984D01*
X2128991Y-4997984D02*
X2119467Y-5093222D01*
X2119467Y-5093222D02*
X2128991Y-5083698D01*
X2128991Y-5083698D02*
X2148039Y-5074174D01*
X2148039Y-5074174D02*
X2195658Y-5074174D01*
X2195658Y-5074174D02*
X2214705Y-5083698D01*
X2214705Y-5083698D02*
X2224229Y-5093222D01*
X2224229Y-5093222D02*
X2233753Y-5112270D01*
X2233753Y-5112270D02*
X2233753Y-5159889D01*
X2233753Y-5159889D02*
X2224229Y-5178936D01*
X2224229Y-5178936D02*
X2214705Y-5188460D01*
X2214705Y-5188460D02*
X2195658Y-5197984D01*
X2195658Y-5197984D02*
X2148039Y-5197984D01*
X2148039Y-5197984D02*
X2128991Y-5188460D01*
X2128991Y-5188460D02*
X2119467Y-5178936D01*
X2357563Y-4997984D02*
X2376610Y-4997984D01*
X2376610Y-4997984D02*
X2395658Y-5007508D01*
X2395658Y-5007508D02*
X2405182Y-5017031D01*
X2405182Y-5017031D02*
X2414705Y-5036079D01*
X2414705Y-5036079D02*
X2424229Y-5074174D01*
X2424229Y-5074174D02*
X2424229Y-5121793D01*
X2424229Y-5121793D02*
X2414705Y-5159889D01*
X2414705Y-5159889D02*
X2405182Y-5178936D01*
X2405182Y-5178936D02*
X2395658Y-5188460D01*
X2395658Y-5188460D02*
X2376610Y-5197984D01*
X2376610Y-5197984D02*
X2357563Y-5197984D01*
X2357563Y-5197984D02*
X2338515Y-5188460D01*
X2338515Y-5188460D02*
X2328991Y-5178936D01*
X2328991Y-5178936D02*
X2319467Y-5159889D01*
X2319467Y-5159889D02*
X2309944Y-5121793D01*
X2309944Y-5121793D02*
X2309944Y-5074174D01*
X2309944Y-5074174D02*
X2319467Y-5036079D01*
X2319467Y-5036079D02*
X2328991Y-5017031D01*
X2328991Y-5017031D02*
X2338515Y-5007508D01*
X2338515Y-5007508D02*
X2357563Y-4997984D01*
X2548039Y-4997984D02*
X2567086Y-4997984D01*
X2567086Y-4997984D02*
X2586134Y-5007508D01*
X2586134Y-5007508D02*
X2595658Y-5017031D01*
X2595658Y-5017031D02*
X2605182Y-5036079D01*
X2605182Y-5036079D02*
X2614705Y-5074174D01*
X2614705Y-5074174D02*
X2614705Y-5121793D01*
X2614705Y-5121793D02*
X2605182Y-5159889D01*
X2605182Y-5159889D02*
X2595658Y-5178936D01*
X2595658Y-5178936D02*
X2586134Y-5188460D01*
X2586134Y-5188460D02*
X2567086Y-5197984D01*
X2567086Y-5197984D02*
X2548039Y-5197984D01*
X2548039Y-5197984D02*
X2528991Y-5188460D01*
X2528991Y-5188460D02*
X2519467Y-5178936D01*
X2519467Y-5178936D02*
X2509944Y-5159889D01*
X2509944Y-5159889D02*
X2500420Y-5121793D01*
X2500420Y-5121793D02*
X2500420Y-5074174D01*
X2500420Y-5074174D02*
X2509944Y-5036079D01*
X2509944Y-5036079D02*
X2519467Y-5017031D01*
X2519467Y-5017031D02*
X2528991Y-5007508D01*
X2528991Y-5007508D02*
X2548039Y-4997984D01*
X2700420Y-5197984D02*
X2700420Y-5064650D01*
X2700420Y-5083698D02*
X2709944Y-5074174D01*
X2709944Y-5074174D02*
X2728991Y-5064650D01*
X2728991Y-5064650D02*
X2757563Y-5064650D01*
X2757563Y-5064650D02*
X2776610Y-5074174D01*
X2776610Y-5074174D02*
X2786134Y-5093222D01*
X2786134Y-5093222D02*
X2786134Y-5197984D01*
X2786134Y-5093222D02*
X2795658Y-5074174D01*
X2795658Y-5074174D02*
X2814705Y-5064650D01*
X2814705Y-5064650D02*
X2843277Y-5064650D01*
X2843277Y-5064650D02*
X2862324Y-5074174D01*
X2862324Y-5074174D02*
X2871848Y-5093222D01*
X2871848Y-5093222D02*
X2871848Y-5197984D01*
X2967086Y-5197984D02*
X2967086Y-5064650D01*
X2967086Y-5083698D02*
X2976610Y-5074174D01*
X2976610Y-5074174D02*
X2995658Y-5064650D01*
X2995658Y-5064650D02*
X3024229Y-5064650D01*
X3024229Y-5064650D02*
X3043277Y-5074174D01*
X3043277Y-5074174D02*
X3052801Y-5093222D01*
X3052801Y-5093222D02*
X3052801Y-5197984D01*
X3052801Y-5093222D02*
X3062324Y-5074174D01*
X3062324Y-5074174D02*
X3081372Y-5064650D01*
X3081372Y-5064650D02*
X3109943Y-5064650D01*
X3109943Y-5064650D02*
X3128991Y-5074174D01*
X3128991Y-5074174D02*
X3138515Y-5093222D01*
X3138515Y-5093222D02*
X3138515Y-5197984D01*
X3528991Y-4988460D02*
X3357563Y-5245603D01*
X3786134Y-4997984D02*
X3805182Y-4997984D01*
X3805182Y-4997984D02*
X3824229Y-5007508D01*
X3824229Y-5007508D02*
X3833753Y-5017031D01*
X3833753Y-5017031D02*
X3843277Y-5036079D01*
X3843277Y-5036079D02*
X3852801Y-5074174D01*
X3852801Y-5074174D02*
X3852801Y-5121793D01*
X3852801Y-5121793D02*
X3843277Y-5159889D01*
X3843277Y-5159889D02*
X3833753Y-5178936D01*
X3833753Y-5178936D02*
X3824229Y-5188460D01*
X3824229Y-5188460D02*
X3805182Y-5197984D01*
X3805182Y-5197984D02*
X3786134Y-5197984D01*
X3786134Y-5197984D02*
X3767086Y-5188460D01*
X3767086Y-5188460D02*
X3757563Y-5178936D01*
X3757563Y-5178936D02*
X3748039Y-5159889D01*
X3748039Y-5159889D02*
X3738515Y-5121793D01*
X3738515Y-5121793D02*
X3738515Y-5074174D01*
X3738515Y-5074174D02*
X3748039Y-5036079D01*
X3748039Y-5036079D02*
X3757563Y-5017031D01*
X3757563Y-5017031D02*
X3767086Y-5007508D01*
X3767086Y-5007508D02*
X3786134Y-4997984D01*
X3938515Y-5178936D02*
X3948039Y-5188460D01*
X3948039Y-5188460D02*
X3938515Y-5197984D01*
X3938515Y-5197984D02*
X3928991Y-5188460D01*
X3928991Y-5188460D02*
X3938515Y-5178936D01*
X3938515Y-5178936D02*
X3938515Y-5197984D01*
X4071848Y-4997984D02*
X4090896Y-4997984D01*
X4090896Y-4997984D02*
X4109944Y-5007508D01*
X4109944Y-5007508D02*
X4119467Y-5017031D01*
X4119467Y-5017031D02*
X4128991Y-5036079D01*
X4128991Y-5036079D02*
X4138515Y-5074174D01*
X4138515Y-5074174D02*
X4138515Y-5121793D01*
X4138515Y-5121793D02*
X4128991Y-5159889D01*
X4128991Y-5159889D02*
X4119467Y-5178936D01*
X4119467Y-5178936D02*
X4109944Y-5188460D01*
X4109944Y-5188460D02*
X4090896Y-5197984D01*
X4090896Y-5197984D02*
X4071848Y-5197984D01*
X4071848Y-5197984D02*
X4052801Y-5188460D01*
X4052801Y-5188460D02*
X4043277Y-5178936D01*
X4043277Y-5178936D02*
X4033753Y-5159889D01*
X4033753Y-5159889D02*
X4024229Y-5121793D01*
X4024229Y-5121793D02*
X4024229Y-5074174D01*
X4024229Y-5074174D02*
X4033753Y-5036079D01*
X4033753Y-5036079D02*
X4043277Y-5017031D01*
X4043277Y-5017031D02*
X4052801Y-5007508D01*
X4052801Y-5007508D02*
X4071848Y-4997984D01*
X4328991Y-5197984D02*
X4214706Y-5197984D01*
X4271848Y-5197984D02*
X4271848Y-4997984D01*
X4271848Y-4997984D02*
X4252801Y-5026555D01*
X4252801Y-5026555D02*
X4233753Y-5045603D01*
X4233753Y-5045603D02*
X4214706Y-5055127D01*
X4424229Y-5197984D02*
X4462325Y-5197984D01*
X4462325Y-5197984D02*
X4481372Y-5188460D01*
X4481372Y-5188460D02*
X4490896Y-5178936D01*
X4490896Y-5178936D02*
X4509944Y-5150365D01*
X4509944Y-5150365D02*
X4519468Y-5112270D01*
X4519468Y-5112270D02*
X4519468Y-5036079D01*
X4519468Y-5036079D02*
X4509944Y-5017031D01*
X4509944Y-5017031D02*
X4500420Y-5007508D01*
X4500420Y-5007508D02*
X4481372Y-4997984D01*
X4481372Y-4997984D02*
X4443277Y-4997984D01*
X4443277Y-4997984D02*
X4424229Y-5007508D01*
X4424229Y-5007508D02*
X4414706Y-5017031D01*
X4414706Y-5017031D02*
X4405182Y-5036079D01*
X4405182Y-5036079D02*
X4405182Y-5083698D01*
X4405182Y-5083698D02*
X4414706Y-5102746D01*
X4414706Y-5102746D02*
X4424229Y-5112270D01*
X4424229Y-5112270D02*
X4443277Y-5121793D01*
X4443277Y-5121793D02*
X4481372Y-5121793D01*
X4481372Y-5121793D02*
X4500420Y-5112270D01*
X4500420Y-5112270D02*
X4509944Y-5102746D01*
X4509944Y-5102746D02*
X4519468Y-5083698D01*
X4586134Y-4997984D02*
X4719468Y-4997984D01*
X4719468Y-4997984D02*
X4633753Y-5197984D01*
X4786134Y-4997984D02*
X4786134Y-5036079D01*
X4862325Y-4997984D02*
X4862325Y-5036079D01*
X5157563Y-5274174D02*
X5148039Y-5264650D01*
X5148039Y-5264650D02*
X5128991Y-5236079D01*
X5128991Y-5236079D02*
X5119468Y-5217031D01*
X5119468Y-5217031D02*
X5109944Y-5188460D01*
X5109944Y-5188460D02*
X5100420Y-5140841D01*
X5100420Y-5140841D02*
X5100420Y-5102746D01*
X5100420Y-5102746D02*
X5109944Y-5055127D01*
X5109944Y-5055127D02*
X5119468Y-5026555D01*
X5119468Y-5026555D02*
X5128991Y-5007508D01*
X5128991Y-5007508D02*
X5148039Y-4978936D01*
X5148039Y-4978936D02*
X5157563Y-4969412D01*
X5224230Y-5017031D02*
X5233753Y-5007508D01*
X5233753Y-5007508D02*
X5252801Y-4997984D01*
X5252801Y-4997984D02*
X5300420Y-4997984D01*
X5300420Y-4997984D02*
X5319468Y-5007508D01*
X5319468Y-5007508D02*
X5328991Y-5017031D01*
X5328991Y-5017031D02*
X5338515Y-5036079D01*
X5338515Y-5036079D02*
X5338515Y-5055127D01*
X5338515Y-5055127D02*
X5328991Y-5083698D01*
X5328991Y-5083698D02*
X5214706Y-5197984D01*
X5214706Y-5197984D02*
X5338515Y-5197984D01*
X5576611Y-5197984D02*
X5576611Y-4997984D01*
X5662325Y-5197984D02*
X5662325Y-5093222D01*
X5662325Y-5093222D02*
X5652801Y-5074174D01*
X5652801Y-5074174D02*
X5633753Y-5064650D01*
X5633753Y-5064650D02*
X5605182Y-5064650D01*
X5605182Y-5064650D02*
X5586134Y-5074174D01*
X5586134Y-5074174D02*
X5576611Y-5083698D01*
X5786134Y-5197984D02*
X5767087Y-5188460D01*
X5767087Y-5188460D02*
X5757563Y-5178936D01*
X5757563Y-5178936D02*
X5748039Y-5159889D01*
X5748039Y-5159889D02*
X5748039Y-5102746D01*
X5748039Y-5102746D02*
X5757563Y-5083698D01*
X5757563Y-5083698D02*
X5767087Y-5074174D01*
X5767087Y-5074174D02*
X5786134Y-5064650D01*
X5786134Y-5064650D02*
X5814706Y-5064650D01*
X5814706Y-5064650D02*
X5833753Y-5074174D01*
X5833753Y-5074174D02*
X5843277Y-5083698D01*
X5843277Y-5083698D02*
X5852801Y-5102746D01*
X5852801Y-5102746D02*
X5852801Y-5159889D01*
X5852801Y-5159889D02*
X5843277Y-5178936D01*
X5843277Y-5178936D02*
X5833753Y-5188460D01*
X5833753Y-5188460D02*
X5814706Y-5197984D01*
X5814706Y-5197984D02*
X5786134Y-5197984D01*
X5967087Y-5197984D02*
X5948039Y-5188460D01*
X5948039Y-5188460D02*
X5938515Y-5169412D01*
X5938515Y-5169412D02*
X5938515Y-4997984D01*
X6119468Y-5188460D02*
X6100420Y-5197984D01*
X6100420Y-5197984D02*
X6062325Y-5197984D01*
X6062325Y-5197984D02*
X6043277Y-5188460D01*
X6043277Y-5188460D02*
X6033753Y-5169412D01*
X6033753Y-5169412D02*
X6033753Y-5093222D01*
X6033753Y-5093222D02*
X6043277Y-5074174D01*
X6043277Y-5074174D02*
X6062325Y-5064650D01*
X6062325Y-5064650D02*
X6100420Y-5064650D01*
X6100420Y-5064650D02*
X6119468Y-5074174D01*
X6119468Y-5074174D02*
X6128991Y-5093222D01*
X6128991Y-5093222D02*
X6128991Y-5112270D01*
X6128991Y-5112270D02*
X6033753Y-5131317D01*
X6205182Y-5188460D02*
X6224230Y-5197984D01*
X6224230Y-5197984D02*
X6262325Y-5197984D01*
X6262325Y-5197984D02*
X6281372Y-5188460D01*
X6281372Y-5188460D02*
X6290896Y-5169412D01*
X6290896Y-5169412D02*
X6290896Y-5159889D01*
X6290896Y-5159889D02*
X6281372Y-5140841D01*
X6281372Y-5140841D02*
X6262325Y-5131317D01*
X6262325Y-5131317D02*
X6233753Y-5131317D01*
X6233753Y-5131317D02*
X6214706Y-5121793D01*
X6214706Y-5121793D02*
X6205182Y-5102746D01*
X6205182Y-5102746D02*
X6205182Y-5093222D01*
X6205182Y-5093222D02*
X6214706Y-5074174D01*
X6214706Y-5074174D02*
X6233753Y-5064650D01*
X6233753Y-5064650D02*
X6262325Y-5064650D01*
X6262325Y-5064650D02*
X6281372Y-5074174D01*
X6357563Y-5274174D02*
X6367087Y-5264650D01*
X6367087Y-5264650D02*
X6386134Y-5236079D01*
X6386134Y-5236079D02*
X6395658Y-5217031D01*
X6395658Y-5217031D02*
X6405182Y-5188460D01*
X6405182Y-5188460D02*
X6414706Y-5140841D01*
X6414706Y-5140841D02*
X6414706Y-5102746D01*
X6414706Y-5102746D02*
X6405182Y-5055127D01*
X6405182Y-5055127D02*
X6395658Y-5026555D01*
X6395658Y-5026555D02*
X6386134Y-5007508D01*
X6386134Y-5007508D02*
X6367087Y-4978936D01*
X6367087Y-4978936D02*
X6357563Y-4969412D01*
X1482500Y-5270500D02*
X1482500Y-5470500D01*
X1382500Y-5370500D02*
X1582500Y-5370500D01*
X1824229Y-5261984D02*
X1948039Y-5261984D01*
X1948039Y-5261984D02*
X1881372Y-5338174D01*
X1881372Y-5338174D02*
X1909943Y-5338174D01*
X1909943Y-5338174D02*
X1928991Y-5347698D01*
X1928991Y-5347698D02*
X1938515Y-5357222D01*
X1938515Y-5357222D02*
X1948039Y-5376270D01*
X1948039Y-5376270D02*
X1948039Y-5423889D01*
X1948039Y-5423889D02*
X1938515Y-5442936D01*
X1938515Y-5442936D02*
X1928991Y-5452460D01*
X1928991Y-5452460D02*
X1909943Y-5461984D01*
X1909943Y-5461984D02*
X1852801Y-5461984D01*
X1852801Y-5461984D02*
X1833753Y-5452460D01*
X1833753Y-5452460D02*
X1824229Y-5442936D01*
X2033753Y-5442936D02*
X2043277Y-5452460D01*
X2043277Y-5452460D02*
X2033753Y-5461984D01*
X2033753Y-5461984D02*
X2024229Y-5452460D01*
X2024229Y-5452460D02*
X2033753Y-5442936D01*
X2033753Y-5442936D02*
X2033753Y-5461984D01*
X2119467Y-5281031D02*
X2128991Y-5271508D01*
X2128991Y-5271508D02*
X2148039Y-5261984D01*
X2148039Y-5261984D02*
X2195658Y-5261984D01*
X2195658Y-5261984D02*
X2214705Y-5271508D01*
X2214705Y-5271508D02*
X2224229Y-5281031D01*
X2224229Y-5281031D02*
X2233753Y-5300079D01*
X2233753Y-5300079D02*
X2233753Y-5319127D01*
X2233753Y-5319127D02*
X2224229Y-5347698D01*
X2224229Y-5347698D02*
X2109944Y-5461984D01*
X2109944Y-5461984D02*
X2233753Y-5461984D01*
X2357563Y-5261984D02*
X2376610Y-5261984D01*
X2376610Y-5261984D02*
X2395658Y-5271508D01*
X2395658Y-5271508D02*
X2405182Y-5281031D01*
X2405182Y-5281031D02*
X2414705Y-5300079D01*
X2414705Y-5300079D02*
X2424229Y-5338174D01*
X2424229Y-5338174D02*
X2424229Y-5385793D01*
X2424229Y-5385793D02*
X2414705Y-5423889D01*
X2414705Y-5423889D02*
X2405182Y-5442936D01*
X2405182Y-5442936D02*
X2395658Y-5452460D01*
X2395658Y-5452460D02*
X2376610Y-5461984D01*
X2376610Y-5461984D02*
X2357563Y-5461984D01*
X2357563Y-5461984D02*
X2338515Y-5452460D01*
X2338515Y-5452460D02*
X2328991Y-5442936D01*
X2328991Y-5442936D02*
X2319467Y-5423889D01*
X2319467Y-5423889D02*
X2309944Y-5385793D01*
X2309944Y-5385793D02*
X2309944Y-5338174D01*
X2309944Y-5338174D02*
X2319467Y-5300079D01*
X2319467Y-5300079D02*
X2328991Y-5281031D01*
X2328991Y-5281031D02*
X2338515Y-5271508D01*
X2338515Y-5271508D02*
X2357563Y-5261984D01*
X2548039Y-5261984D02*
X2567086Y-5261984D01*
X2567086Y-5261984D02*
X2586134Y-5271508D01*
X2586134Y-5271508D02*
X2595658Y-5281031D01*
X2595658Y-5281031D02*
X2605182Y-5300079D01*
X2605182Y-5300079D02*
X2614705Y-5338174D01*
X2614705Y-5338174D02*
X2614705Y-5385793D01*
X2614705Y-5385793D02*
X2605182Y-5423889D01*
X2605182Y-5423889D02*
X2595658Y-5442936D01*
X2595658Y-5442936D02*
X2586134Y-5452460D01*
X2586134Y-5452460D02*
X2567086Y-5461984D01*
X2567086Y-5461984D02*
X2548039Y-5461984D01*
X2548039Y-5461984D02*
X2528991Y-5452460D01*
X2528991Y-5452460D02*
X2519467Y-5442936D01*
X2519467Y-5442936D02*
X2509944Y-5423889D01*
X2509944Y-5423889D02*
X2500420Y-5385793D01*
X2500420Y-5385793D02*
X2500420Y-5338174D01*
X2500420Y-5338174D02*
X2509944Y-5300079D01*
X2509944Y-5300079D02*
X2519467Y-5281031D01*
X2519467Y-5281031D02*
X2528991Y-5271508D01*
X2528991Y-5271508D02*
X2548039Y-5261984D01*
X2700420Y-5461984D02*
X2700420Y-5328650D01*
X2700420Y-5347698D02*
X2709944Y-5338174D01*
X2709944Y-5338174D02*
X2728991Y-5328650D01*
X2728991Y-5328650D02*
X2757563Y-5328650D01*
X2757563Y-5328650D02*
X2776610Y-5338174D01*
X2776610Y-5338174D02*
X2786134Y-5357222D01*
X2786134Y-5357222D02*
X2786134Y-5461984D01*
X2786134Y-5357222D02*
X2795658Y-5338174D01*
X2795658Y-5338174D02*
X2814705Y-5328650D01*
X2814705Y-5328650D02*
X2843277Y-5328650D01*
X2843277Y-5328650D02*
X2862324Y-5338174D01*
X2862324Y-5338174D02*
X2871848Y-5357222D01*
X2871848Y-5357222D02*
X2871848Y-5461984D01*
X2967086Y-5461984D02*
X2967086Y-5328650D01*
X2967086Y-5347698D02*
X2976610Y-5338174D01*
X2976610Y-5338174D02*
X2995658Y-5328650D01*
X2995658Y-5328650D02*
X3024229Y-5328650D01*
X3024229Y-5328650D02*
X3043277Y-5338174D01*
X3043277Y-5338174D02*
X3052801Y-5357222D01*
X3052801Y-5357222D02*
X3052801Y-5461984D01*
X3052801Y-5357222D02*
X3062324Y-5338174D01*
X3062324Y-5338174D02*
X3081372Y-5328650D01*
X3081372Y-5328650D02*
X3109943Y-5328650D01*
X3109943Y-5328650D02*
X3128991Y-5338174D01*
X3128991Y-5338174D02*
X3138515Y-5357222D01*
X3138515Y-5357222D02*
X3138515Y-5461984D01*
X3528991Y-5252460D02*
X3357563Y-5509603D01*
X3786134Y-5261984D02*
X3805182Y-5261984D01*
X3805182Y-5261984D02*
X3824229Y-5271508D01*
X3824229Y-5271508D02*
X3833753Y-5281031D01*
X3833753Y-5281031D02*
X3843277Y-5300079D01*
X3843277Y-5300079D02*
X3852801Y-5338174D01*
X3852801Y-5338174D02*
X3852801Y-5385793D01*
X3852801Y-5385793D02*
X3843277Y-5423889D01*
X3843277Y-5423889D02*
X3833753Y-5442936D01*
X3833753Y-5442936D02*
X3824229Y-5452460D01*
X3824229Y-5452460D02*
X3805182Y-5461984D01*
X3805182Y-5461984D02*
X3786134Y-5461984D01*
X3786134Y-5461984D02*
X3767086Y-5452460D01*
X3767086Y-5452460D02*
X3757563Y-5442936D01*
X3757563Y-5442936D02*
X3748039Y-5423889D01*
X3748039Y-5423889D02*
X3738515Y-5385793D01*
X3738515Y-5385793D02*
X3738515Y-5338174D01*
X3738515Y-5338174D02*
X3748039Y-5300079D01*
X3748039Y-5300079D02*
X3757563Y-5281031D01*
X3757563Y-5281031D02*
X3767086Y-5271508D01*
X3767086Y-5271508D02*
X3786134Y-5261984D01*
X3938515Y-5442936D02*
X3948039Y-5452460D01*
X3948039Y-5452460D02*
X3938515Y-5461984D01*
X3938515Y-5461984D02*
X3928991Y-5452460D01*
X3928991Y-5452460D02*
X3938515Y-5442936D01*
X3938515Y-5442936D02*
X3938515Y-5461984D01*
X4138515Y-5461984D02*
X4024229Y-5461984D01*
X4081372Y-5461984D02*
X4081372Y-5261984D01*
X4081372Y-5261984D02*
X4062325Y-5290555D01*
X4062325Y-5290555D02*
X4043277Y-5309603D01*
X4043277Y-5309603D02*
X4024229Y-5319127D01*
X4214706Y-5281031D02*
X4224229Y-5271508D01*
X4224229Y-5271508D02*
X4243277Y-5261984D01*
X4243277Y-5261984D02*
X4290896Y-5261984D01*
X4290896Y-5261984D02*
X4309944Y-5271508D01*
X4309944Y-5271508D02*
X4319468Y-5281031D01*
X4319468Y-5281031D02*
X4328991Y-5300079D01*
X4328991Y-5300079D02*
X4328991Y-5319127D01*
X4328991Y-5319127D02*
X4319468Y-5347698D01*
X4319468Y-5347698D02*
X4205182Y-5461984D01*
X4205182Y-5461984D02*
X4328991Y-5461984D01*
X4500420Y-5261984D02*
X4462325Y-5261984D01*
X4462325Y-5261984D02*
X4443277Y-5271508D01*
X4443277Y-5271508D02*
X4433753Y-5281031D01*
X4433753Y-5281031D02*
X4414706Y-5309603D01*
X4414706Y-5309603D02*
X4405182Y-5347698D01*
X4405182Y-5347698D02*
X4405182Y-5423889D01*
X4405182Y-5423889D02*
X4414706Y-5442936D01*
X4414706Y-5442936D02*
X4424229Y-5452460D01*
X4424229Y-5452460D02*
X4443277Y-5461984D01*
X4443277Y-5461984D02*
X4481372Y-5461984D01*
X4481372Y-5461984D02*
X4500420Y-5452460D01*
X4500420Y-5452460D02*
X4509944Y-5442936D01*
X4509944Y-5442936D02*
X4519468Y-5423889D01*
X4519468Y-5423889D02*
X4519468Y-5376270D01*
X4519468Y-5376270D02*
X4509944Y-5357222D01*
X4509944Y-5357222D02*
X4500420Y-5347698D01*
X4500420Y-5347698D02*
X4481372Y-5338174D01*
X4481372Y-5338174D02*
X4443277Y-5338174D01*
X4443277Y-5338174D02*
X4424229Y-5347698D01*
X4424229Y-5347698D02*
X4414706Y-5357222D01*
X4414706Y-5357222D02*
X4405182Y-5376270D01*
X4643277Y-5261984D02*
X4662325Y-5261984D01*
X4662325Y-5261984D02*
X4681372Y-5271508D01*
X4681372Y-5271508D02*
X4690896Y-5281031D01*
X4690896Y-5281031D02*
X4700420Y-5300079D01*
X4700420Y-5300079D02*
X4709944Y-5338174D01*
X4709944Y-5338174D02*
X4709944Y-5385793D01*
X4709944Y-5385793D02*
X4700420Y-5423889D01*
X4700420Y-5423889D02*
X4690896Y-5442936D01*
X4690896Y-5442936D02*
X4681372Y-5452460D01*
X4681372Y-5452460D02*
X4662325Y-5461984D01*
X4662325Y-5461984D02*
X4643277Y-5461984D01*
X4643277Y-5461984D02*
X4624229Y-5452460D01*
X4624229Y-5452460D02*
X4614706Y-5442936D01*
X4614706Y-5442936D02*
X4605182Y-5423889D01*
X4605182Y-5423889D02*
X4595658Y-5385793D01*
X4595658Y-5385793D02*
X4595658Y-5338174D01*
X4595658Y-5338174D02*
X4605182Y-5300079D01*
X4605182Y-5300079D02*
X4614706Y-5281031D01*
X4614706Y-5281031D02*
X4624229Y-5271508D01*
X4624229Y-5271508D02*
X4643277Y-5261984D01*
X4786134Y-5261984D02*
X4786134Y-5300079D01*
X4862325Y-5261984D02*
X4862325Y-5300079D01*
X5157563Y-5538174D02*
X5148039Y-5528650D01*
X5148039Y-5528650D02*
X5128991Y-5500079D01*
X5128991Y-5500079D02*
X5119468Y-5481031D01*
X5119468Y-5481031D02*
X5109944Y-5452460D01*
X5109944Y-5452460D02*
X5100420Y-5404841D01*
X5100420Y-5404841D02*
X5100420Y-5366746D01*
X5100420Y-5366746D02*
X5109944Y-5319127D01*
X5109944Y-5319127D02*
X5119468Y-5290555D01*
X5119468Y-5290555D02*
X5128991Y-5271508D01*
X5128991Y-5271508D02*
X5148039Y-5242936D01*
X5148039Y-5242936D02*
X5157563Y-5233412D01*
X5338515Y-5461984D02*
X5224230Y-5461984D01*
X5281372Y-5461984D02*
X5281372Y-5261984D01*
X5281372Y-5261984D02*
X5262325Y-5290555D01*
X5262325Y-5290555D02*
X5243277Y-5309603D01*
X5243277Y-5309603D02*
X5224230Y-5319127D01*
X5576611Y-5461984D02*
X5576611Y-5261984D01*
X5662325Y-5461984D02*
X5662325Y-5357222D01*
X5662325Y-5357222D02*
X5652801Y-5338174D01*
X5652801Y-5338174D02*
X5633753Y-5328650D01*
X5633753Y-5328650D02*
X5605182Y-5328650D01*
X5605182Y-5328650D02*
X5586134Y-5338174D01*
X5586134Y-5338174D02*
X5576611Y-5347698D01*
X5786134Y-5461984D02*
X5767087Y-5452460D01*
X5767087Y-5452460D02*
X5757563Y-5442936D01*
X5757563Y-5442936D02*
X5748039Y-5423889D01*
X5748039Y-5423889D02*
X5748039Y-5366746D01*
X5748039Y-5366746D02*
X5757563Y-5347698D01*
X5757563Y-5347698D02*
X5767087Y-5338174D01*
X5767087Y-5338174D02*
X5786134Y-5328650D01*
X5786134Y-5328650D02*
X5814706Y-5328650D01*
X5814706Y-5328650D02*
X5833753Y-5338174D01*
X5833753Y-5338174D02*
X5843277Y-5347698D01*
X5843277Y-5347698D02*
X5852801Y-5366746D01*
X5852801Y-5366746D02*
X5852801Y-5423889D01*
X5852801Y-5423889D02*
X5843277Y-5442936D01*
X5843277Y-5442936D02*
X5833753Y-5452460D01*
X5833753Y-5452460D02*
X5814706Y-5461984D01*
X5814706Y-5461984D02*
X5786134Y-5461984D01*
X5967087Y-5461984D02*
X5948039Y-5452460D01*
X5948039Y-5452460D02*
X5938515Y-5433412D01*
X5938515Y-5433412D02*
X5938515Y-5261984D01*
X6119468Y-5452460D02*
X6100420Y-5461984D01*
X6100420Y-5461984D02*
X6062325Y-5461984D01*
X6062325Y-5461984D02*
X6043277Y-5452460D01*
X6043277Y-5452460D02*
X6033753Y-5433412D01*
X6033753Y-5433412D02*
X6033753Y-5357222D01*
X6033753Y-5357222D02*
X6043277Y-5338174D01*
X6043277Y-5338174D02*
X6062325Y-5328650D01*
X6062325Y-5328650D02*
X6100420Y-5328650D01*
X6100420Y-5328650D02*
X6119468Y-5338174D01*
X6119468Y-5338174D02*
X6128991Y-5357222D01*
X6128991Y-5357222D02*
X6128991Y-5376270D01*
X6128991Y-5376270D02*
X6033753Y-5395317D01*
X6195658Y-5538174D02*
X6205182Y-5528650D01*
X6205182Y-5528650D02*
X6224230Y-5500079D01*
X6224230Y-5500079D02*
X6233753Y-5481031D01*
X6233753Y-5481031D02*
X6243277Y-5452460D01*
X6243277Y-5452460D02*
X6252801Y-5404841D01*
X6252801Y-5404841D02*
X6252801Y-5366746D01*
X6252801Y-5366746D02*
X6243277Y-5319127D01*
X6243277Y-5319127D02*
X6233753Y-5290555D01*
X6233753Y-5290555D02*
X6224230Y-5271508D01*
X6224230Y-5271508D02*
X6205182Y-5242936D01*
X6205182Y-5242936D02*
X6195658Y-5233412D01*
M02*
