M48
; DRILL file KiCad 10.0.6 date 2026-09-23T14:22:20
; FORMAT={-:-/ absolute / metric / decimal}
; #@! TF.CreationDate,2026-09-23T14:22:20-04:00
; #@! TF.GenerationSoftware,Kicad,Pcbnew,10.0.6
; #@! TF.FileFunction,Plated,1,4,PTH
FMAT,2
METRIC
; #@! TA.AperFunction,Plated,PTH,ViaDrill
T1C0.400
; #@! TA.AperFunction,Plated,PTH,ComponentDrill
T2C0.500
; #@! TA.AperFunction,Plated,PTH,ComponentDrill
T3C0.800
; #@! TA.AperFunction,Plated,PTH,ComponentDrill
T4C1.000
; #@! TA.AperFunction,Plated,PTH,ComponentDrill
T5C1.020
; #@! TA.AperFunction,Plated,PTH,ComponentDrill
T6C1.100
; #@! TA.AperFunction,Plated,PTH,ComponentDrill
T7C1.220
; #@! TA.AperFunction,Plated,PTH,ComponentDrill
T8C1.770
; #@! TA.AperFunction,Plated,PTH,ComponentDrill
T9C1.800
; #@! TA.AperFunction,Plated,PTH,ComponentDrill
T10C2.500
; #@! TA.AperFunction,Plated,PTH,ComponentDrill
T11C3.200
%
G90
G05
T1
X75.0Y-115.0
X75.25Y-117.5
X75.5Y-78.75
X76.5Y-117.5
X76.75Y-73.5
X77.25Y-78.75
X77.75Y-117.5
X78.0Y-80.75
X78.0Y-112.0
X78.0Y-134.5
X78.0Y-142.25
X78.5Y-133.25
X78.5Y-136.0
X78.5Y-141.0
X78.5Y-143.5
X79.0Y-78.75
X79.0Y-117.5
X80.0Y-132.75
X80.0Y-136.5
X80.0Y-140.25
X80.0Y-144.25
X81.0Y-149.0
X81.25Y-143.75
X81.5Y-133.25
X81.5Y-136.0
X81.5Y-140.75
X82.0Y-134.5
X82.0Y-142.25
X82.5Y-112.25
X82.75Y-118.5
X82.75Y-120.25
X83.0Y-108.0
X83.75Y-118.0
X83.75Y-120.75
X84.0Y-112.25
X84.75Y-118.5
X84.75Y-120.25
X85.25Y-76.25
X86.5Y-76.25
X87.0Y-72.5
X87.0Y-73.75
X87.0Y-75.0
X87.0Y-79.5
X87.25Y-94.5
X87.25Y-95.75
X87.25Y-98.75
X87.75Y-76.25
X88.0Y-71.75
X88.5Y-79.5
X88.5Y-84.75
X88.5Y-85.75
X88.5Y-86.75
X88.5Y-87.75
X88.5Y-88.75
X88.5Y-94.5
X88.5Y-95.75
X89.0Y-76.25
X89.25Y-71.75
X89.5Y-98.75
X89.5Y-132.0
X89.5Y-139.0
X89.75Y-79.75
X89.75Y-87.75
X89.75Y-88.75
X90.25Y-94.25
X90.5Y-154.5
X91.25Y-76.25
X92.0Y-94.25
X92.5Y-119.4
X92.65Y-118.1
X92.75Y-120.75
X94.0Y-117.9
X94.0Y-120.9
X94.25Y-85.0
X94.25Y-86.75
X94.5Y-144.0
X95.3Y-120.7
X95.35Y-118.1
X95.75Y-85.0
X95.75Y-86.5
X95.75Y-132.0
X96.0Y-64.5
X96.0Y-67.5
X96.0Y-69.0
X96.0Y-70.5
X96.0Y-71.75
X96.25Y-130.5
X96.25Y-133.75
X97.0Y-154.5
X97.5Y-85.0
X97.5Y-86.5
X97.5Y-87.75
X97.75Y-130.0
X97.75Y-134.25
X98.5Y-63.0
X99.25Y-130.5
X99.25Y-133.75
X99.75Y-90.5
X99.75Y-91.75
X99.75Y-132.0
X101.0Y-72.25
X101.0Y-90.5
X101.0Y-91.75
X102.25Y-68.75
X102.25Y-90.5
X102.25Y-91.75
X102.75Y-70.0
X103.5Y-106.0
X103.5Y-108.5
X103.5Y-111.5
X103.5Y-114.5
X103.5Y-118.0
X103.5Y-121.5
X103.5Y-127.0
X103.5Y-131.5
X103.5Y-135.0
X103.5Y-138.25
X103.5Y-140.0
X104.0Y-144.0
X104.0Y-154.5
X105.0Y-114.0
X105.0Y-116.0
X105.0Y-137.5
X105.0Y-140.5
X105.25Y-81.75
X105.25Y-86.25
X105.5Y-78.5
X105.5Y-88.0
X105.5Y-126.0
X105.5Y-128.5
X105.75Y-96.0
X105.75Y-97.25
X105.75Y-98.5
X105.75Y-99.75
X105.75Y-101.0
X105.75Y-102.25
X105.75Y-103.5
X106.0Y-75.5
X106.5Y-113.5
X106.5Y-116.5
X106.5Y-125.5
X106.5Y-129.0
X106.5Y-137.5
X106.5Y-140.5
X107.0Y-62.0
X107.0Y-65.5
X107.0Y-81.75
X107.0Y-86.25
X107.0Y-96.0
X107.0Y-97.25
X107.0Y-98.5
X107.0Y-99.75
X107.0Y-101.0
X107.0Y-102.25
X107.0Y-103.5
X107.0Y-106.0
X107.0Y-108.5
X107.0Y-111.5
X107.0Y-121.5
X107.0Y-131.5
X107.0Y-135.0
X107.0Y-154.5
X107.5Y-144.0
X108.0Y-113.5
X108.0Y-116.5
X108.0Y-125.5
X108.0Y-129.0
X108.0Y-137.5
X108.0Y-140.5
X108.5Y-88.0
X108.75Y-81.75
X108.75Y-86.25
X109.0Y-78.5
X109.5Y-113.5
X109.5Y-116.5
X109.5Y-125.5
X109.5Y-129.0
X109.5Y-138.0
X109.5Y-140.0
X110.25Y-81.75
X110.25Y-84.0
X110.25Y-86.25
X110.75Y-106.0
X110.75Y-107.5
X110.75Y-109.0
X111.0Y-111.0
X111.0Y-114.0
X111.0Y-116.0
X111.0Y-126.0
X111.0Y-128.5
X111.5Y-88.0
X111.5Y-96.0
X111.5Y-97.25
X111.5Y-98.5
X111.5Y-99.75
X111.5Y-101.0
X111.5Y-102.25
X111.5Y-103.5
X112.0Y-62.0
X112.0Y-65.5
X112.0Y-69.5
X112.0Y-74.0
X112.0Y-78.5
X112.5Y-110.25
X112.75Y-96.0
X112.75Y-97.25
X112.75Y-98.5
X112.75Y-99.75
X112.75Y-101.0
X112.75Y-102.25
X112.75Y-103.5
X113.5Y-85.5
X113.5Y-123.0
X113.5Y-125.05
X113.75Y-114.25
X114.25Y-124.0
X114.75Y-85.5
X114.75Y-113.0
X115.0Y-144.0
X115.0Y-150.5
X115.0Y-154.5
X115.25Y-123.0
X115.25Y-125.0
X116.0Y-62.0
X116.0Y-65.5
X116.0Y-69.5
X116.0Y-74.0
X116.0Y-78.5
X116.0Y-85.5
X116.25Y-113.0
X117.0Y-151.25
X117.0Y-153.75
X117.25Y-85.5
X117.25Y-100.5
X117.25Y-101.5
X117.25Y-102.5
X117.25Y-103.5
X117.25Y-104.5
X117.5Y-64.25
X117.5Y-92.25
X117.75Y-63.0
X117.75Y-65.5
X118.0Y-91.25
X118.0Y-93.25
X118.0Y-113.0
X118.0Y-123.0
X118.0Y-125.0
X118.5Y-100.5
X118.5Y-101.5
X118.5Y-102.5
X118.5Y-103.5
X118.5Y-104.5
X118.999Y-70.049
X118.999Y-72.299
X119.0Y-62.75
X119.0Y-65.75
X119.0Y-90.75
X119.0Y-93.75
X119.0Y-124.0
X119.0Y-153.75
X119.5Y-82.5
X119.5Y-84.0
X119.75Y-100.5
X119.75Y-101.5
X119.75Y-102.5
X119.75Y-103.5
X119.75Y-104.5
X119.75Y-113.0
X119.75Y-114.5
X119.75Y-115.75
X119.75Y-123.0
X119.75Y-125.0
X120.0Y-91.25
X120.0Y-93.25
X120.25Y-63.0
X120.25Y-65.5
X120.5Y-92.25
X121.0Y-100.5
X121.0Y-101.5
X121.0Y-102.5
X121.0Y-103.5
X121.0Y-104.5
X121.0Y-151.25
X121.0Y-153.75
X121.25Y-113.0
X121.411Y-70.049
X121.411Y-74.549
X121.411Y-81.788
X122.25Y-100.5
X122.25Y-101.5
X122.25Y-102.5
X122.25Y-103.5
X122.25Y-104.5
X122.5Y-77.0
X122.75Y-80.75
X122.75Y-113.0
X123.0Y-123.0
X123.0Y-125.0
X123.0Y-144.0
X123.0Y-154.5
X123.761Y-70.049
X123.761Y-74.549
X123.761Y-81.788
X124.0Y-88.0
X124.0Y-124.0
X124.25Y-113.0
X124.314Y-141.768
X124.75Y-80.75
X124.75Y-123.0
X124.75Y-125.0
X125.75Y-113.0
X126.0Y-77.0
X126.0Y-84.0
X126.0Y-88.0
X126.0Y-114.5
X126.05Y-150.6
X126.111Y-70.049
X126.111Y-72.299
X126.111Y-74.549
X126.111Y-81.788
X126.25Y-141.75
X126.75Y-151.6
X127.05Y-148.15
X127.75Y-116.0
X127.75Y-117.0
X128.0Y-88.0
X128.0Y-141.75
X128.0Y-151.65
X128.15Y-147.95
X128.45Y-74.55
X128.5Y-70.25
X128.5Y-144.0
X128.5Y-154.5
X128.818Y-58.5
X129.0Y-117.0
X129.05Y-148.55
X129.25Y-85.5
X130.0Y-77.0
X130.0Y-81.5
X130.0Y-88.0
X130.0Y-141.75
X130.25Y-70.25
X130.25Y-74.55
X130.5Y-85.5
X130.5Y-117.0
X131.5Y-144.0
X131.5Y-154.5
X131.7Y-148.95
X131.75Y-85.5
X132.0Y-70.25
X132.0Y-74.55
X132.0Y-88.0
X132.0Y-117.0
X132.0Y-141.75
X132.4Y-148.1
X132.75Y-107.7
X132.88Y-136.756
X132.93Y-134.406
X132.95Y-151.65
X133.0Y-85.5
X133.2Y-106.6
X133.2Y-108.75
X133.5Y-117.0
X133.7Y-148.0
X133.75Y-70.25
X133.75Y-74.5
X134.2Y-151.6
X134.23Y-137.406
X134.25Y-84.25
X134.25Y-85.5
X134.28Y-133.806
X134.3Y-106.1
X134.3Y-109.15
X134.5Y-77.0
X134.5Y-81.5
X134.5Y-113.25
X134.75Y-71.5
X134.75Y-73.0
X134.75Y-114.5
X134.75Y-116.0
X134.75Y-117.0
X135.0Y-150.6
X135.25Y-106.5
X135.25Y-108.75
X135.5Y-84.25
X135.5Y-85.5
X135.58Y-134.406
X135.58Y-136.856
X135.8Y-107.65
X136.0Y-70.25
X136.0Y-74.5
X136.0Y-113.25
X136.5Y-144.0
X136.75Y-85.5
X137.5Y-70.25
X137.5Y-74.5
X137.5Y-113.25
X138.0Y-85.5
X139.0Y-70.25
X139.0Y-74.5
X139.0Y-77.0
X139.0Y-81.5
X139.0Y-113.25
X139.25Y-85.5
X140.5Y-70.25
X140.5Y-74.55
X140.5Y-113.25
X142.0Y-134.0
X142.0Y-140.0
X142.0Y-144.0
X142.25Y-150.25
X142.25Y-154.0
X142.493Y-76.744
X142.494Y-79.538
X142.494Y-81.788
X142.494Y-84.038
X142.494Y-86.288
X142.494Y-88.538
X142.75Y-92.0
X142.75Y-94.25
X142.75Y-103.0
X143.0Y-110.5
X143.0Y-112.0
X143.0Y-113.5
X143.0Y-115.0
X143.0Y-116.5
X143.0Y-118.0
X143.0Y-119.5
X144.0Y-95.25
X144.843Y-76.744
X144.844Y-79.538
X144.844Y-81.788
X144.844Y-86.288
X144.844Y-88.538
X145.0Y-92.0
X145.0Y-94.25
X145.0Y-105.5
X145.0Y-106.75
X145.0Y-108.0
X145.25Y-152.5
X145.25Y-154.0
X146.0Y-95.25
X146.25Y-104.0
X146.25Y-105.5
X146.25Y-106.75
X146.25Y-108.0
X146.75Y-101.235
X146.75Y-152.5
X146.75Y-154.0
X147.193Y-76.744
X147.194Y-79.538
X147.194Y-81.788
X147.194Y-86.288
X147.2Y-88.5
X147.5Y-106.75
X147.5Y-108.0
X148.25Y-104.205
X148.25Y-152.5
X148.25Y-154.0
X148.337Y-58.166
X148.337Y-62.666
X148.337Y-64.916
X148.75Y-108.0
X149.5Y-64.0
X149.5Y-66.25
X149.606Y-67.727
X149.606Y-69.977
X149.606Y-74.477
X149.606Y-76.835
X149.606Y-79.085
X149.606Y-81.335
X149.75Y-152.5
X149.75Y-154.0
X150.25Y-48.5
X150.25Y-68.75
X150.622Y-58.202
X150.622Y-60.452
X150.622Y-62.702
X150.622Y-64.952
X150.75Y-56.5
X151.0Y-66.25
X151.0Y-67.744
X151.0Y-69.994
X151.0Y-72.227
X151.0Y-73.5
X151.0Y-74.494
X151.0Y-84.0
X151.0Y-86.5
X151.38Y-53.88
X152.25Y-46.5
X155.0Y-151.75
X155.25Y-100.0
X156.25Y-147.0
X156.5Y-151.75
X158.25Y-151.75
X159.75Y-54.25
X159.75Y-62.25
X159.75Y-75.0
X159.75Y-77.5
X159.75Y-82.5
X159.75Y-87.25
X159.75Y-94.5
X161.0Y-63.25
X162.0Y-58.0
X162.5Y-54.5
X162.735Y-70.5
X163.25Y-50.5
X163.5Y-127.0
X163.75Y-101.25
X165.0Y-103.5
X165.25Y-153.25
X166.0Y-59.0
X166.0Y-107.385
X166.5Y-146.75
X166.5Y-147.75
X166.5Y-149.0
X166.5Y-150.25
X166.5Y-151.25
X166.5Y-152.25
X166.5Y-153.25
X167.0Y-97.0
X167.0Y-102.25
X167.5Y-73.5
X167.5Y-76.75
X167.5Y-79.0
X167.5Y-99.7
X167.75Y-70.5
X167.75Y-153.25
X168.0Y-87.0
X168.25Y-85.5
X169.0Y-101.75
X170.0Y-48.0
X170.25Y-82.0
X170.424Y-104.142
X170.75Y-153.25
X171.25Y-84.5
X171.25Y-102.961
X172.0Y-50.25
X172.0Y-53.25
X172.0Y-57.0
X172.0Y-79.0
X172.5Y-104.75
X172.75Y-87.75
X175.75Y-130.5
X176.0Y-134.0
X176.0Y-139.0
X176.0Y-143.0
X176.0Y-148.0
X176.0Y-154.0
X177.0Y-74.25
X177.5Y-98.5
X177.75Y-64.0
X178.25Y-56.0
X178.25Y-57.25
X178.25Y-58.5
X178.25Y-134.25
X179.0Y-130.5
X179.0Y-138.25
X179.75Y-101.75
X181.0Y-106.75
X182.0Y-96.5
X182.067Y-71.851
X182.25Y-69.25
X182.25Y-74.5
X182.75Y-111.75
X183.0Y-122.0
X183.0Y-127.0
X183.0Y-138.25
X183.25Y-133.25
X183.5Y-78.0
X183.5Y-82.5
X184.75Y-69.25
X184.75Y-74.5
X184.984Y-71.851
X185.0Y-53.25
X185.0Y-115.475
X185.0Y-120.75
X186.0Y-81.5
X186.0Y-117.0
X186.75Y-122.0
X186.75Y-138.25
X187.0Y-133.25
X188.0Y-55.25
X189.25Y-128.75
X189.5Y-68.0
X189.5Y-131.0
X190.0Y-107.0
X190.115Y-83.5
X190.5Y-128.5
X191.0Y-71.0
X191.0Y-74.0
X191.507Y-116.571
X192.0Y-81.0
X192.25Y-119.0
X193.5Y-119.0
X194.0Y-56.0
X194.0Y-59.0
X194.0Y-63.0
X194.0Y-66.0
X194.0Y-71.0
X194.0Y-74.0
X194.0Y-145.75
X194.0Y-150.0
X194.5Y-122.25
X194.75Y-120.75
X195.0Y-138.5
X196.25Y-116.75
X196.25Y-128.75
X196.325Y-88.5
X196.325Y-91.25
X196.325Y-94.0
X197.0Y-71.0
X197.0Y-74.0
X197.0Y-81.0
X197.5Y-84.75
X197.5Y-87.0
X198.0Y-47.0
X198.0Y-55.5
X198.0Y-59.0
X198.0Y-62.5
X198.0Y-66.0
X198.0Y-69.5
X198.0Y-125.0
X198.0Y-131.0
X198.0Y-154.0
X198.25Y-106.5
X198.25Y-113.25
X198.75Y-138.25
X199.0Y-148.5
X199.5Y-100.25
X200.0Y-51.0
X201.0Y-71.0
X201.0Y-74.0
X201.5Y-47.25
X201.5Y-146.75
X202.0Y-82.0
X202.25Y-137.75
X202.25Y-143.5
X204.0Y-78.0
X204.25Y-145.25
X205.0Y-154.0
X206.0Y-82.0
X206.0Y-150.75
X208.0Y-76.0
X209.0Y-57.0
X209.25Y-69.5
X210.689Y-147.5
X211.0Y-64.0
X211.0Y-76.0
X211.0Y-82.0
X211.5Y-47.25
X214.0Y-57.0
X214.0Y-64.0
X214.0Y-72.0
X214.0Y-137.25
X222.5Y-52.5
X222.5Y-57.5
X222.5Y-62.5
X222.5Y-67.5
X222.5Y-72.5
X222.5Y-77.5
X222.5Y-82.5
X222.5Y-87.5
X222.5Y-92.5
X222.5Y-97.5
X222.5Y-102.5
X222.5Y-107.5
X222.5Y-112.5
X222.5Y-117.5
X222.5Y-122.5
X222.5Y-127.5
X222.5Y-132.5
X222.5Y-137.5
X222.5Y-142.5
X222.5Y-147.5
T2
X84.325Y-50.35
X84.325Y-150.35
X85.028Y-48.653
X85.028Y-52.047
X85.028Y-148.653
X85.028Y-152.047
X86.725Y-47.95
X86.725Y-52.75
X86.725Y-147.95
X86.725Y-152.75
X88.422Y-48.653
X88.422Y-52.047
X88.422Y-148.653
X88.422Y-152.047
X89.125Y-50.35
X89.125Y-150.35
X214.325Y-50.35
X214.325Y-150.35
X215.028Y-48.653
X215.028Y-52.047
X215.028Y-148.653
X215.028Y-152.047
X216.725Y-47.95
X216.725Y-52.75
X216.725Y-147.95
X216.725Y-152.75
X218.422Y-48.653
X218.422Y-52.047
X218.422Y-148.653
X218.422Y-152.047
X219.125Y-50.35
X219.125Y-150.35
T4
X157.0Y-48.26
X157.0Y-50.8
X157.0Y-53.34
X157.0Y-55.88
X157.0Y-58.42
X157.0Y-60.96
X157.0Y-63.5
X157.0Y-66.04
X157.0Y-68.58
X157.0Y-71.12
X157.0Y-73.66
X157.0Y-76.2
X157.0Y-78.74
X157.0Y-81.28
X157.0Y-83.82
X157.0Y-86.36
X157.0Y-88.9
X157.0Y-91.44
X157.0Y-93.98
X157.0Y-96.52
X174.78Y-48.26
X174.78Y-50.8
X174.78Y-53.34
X174.78Y-55.88
X174.78Y-58.42
X174.78Y-60.96
X174.78Y-63.5
X174.78Y-66.04
X174.78Y-68.58
X174.78Y-71.12
X174.78Y-73.66
X174.78Y-76.2
X174.78Y-78.74
X174.78Y-81.28
X174.78Y-83.82
X174.78Y-86.36
X174.78Y-88.9
X174.78Y-91.44
X174.78Y-93.98
X174.78Y-96.52
X202.468Y-85.196
X202.468Y-87.736
X202.468Y-90.276
X202.468Y-92.816
X202.468Y-95.356
X202.468Y-97.896
X202.468Y-100.436
X202.468Y-102.976
X202.468Y-105.516
X202.468Y-108.056
X202.468Y-110.596
X202.468Y-113.136
X202.468Y-115.676
X202.468Y-118.216
X202.468Y-120.756
X202.468Y-123.296
X202.468Y-125.836
X202.468Y-128.376
X202.468Y-130.916
X202.468Y-133.456
X205.008Y-85.196
X205.008Y-87.736
X205.008Y-90.276
X205.008Y-92.816
X205.008Y-95.356
X205.008Y-97.896
X205.008Y-100.436
X205.008Y-102.976
X205.008Y-105.516
X205.008Y-108.056
X205.008Y-110.596
X205.008Y-113.136
X205.008Y-115.676
X205.008Y-118.216
X205.008Y-120.756
X205.008Y-123.296
X205.008Y-125.836
X205.008Y-128.376
X205.008Y-130.916
X205.008Y-133.456
X210.887Y-85.222
X210.887Y-87.762
X210.887Y-90.302
X210.887Y-92.842
X210.887Y-95.382
X210.887Y-97.922
X210.887Y-100.462
X210.887Y-103.002
X210.887Y-105.542
X210.887Y-108.082
X210.887Y-110.622
X210.887Y-113.162
X210.887Y-115.702
X210.887Y-118.242
X210.887Y-120.782
X210.887Y-123.322
X210.887Y-125.862
X210.887Y-128.402
X210.887Y-130.942
X210.887Y-133.482
X213.427Y-85.222
X213.427Y-87.762
X213.427Y-90.302
X213.427Y-92.842
X213.427Y-95.382
X213.427Y-97.922
X213.427Y-100.462
X213.427Y-103.002
X213.427Y-105.542
X213.427Y-108.082
X213.427Y-110.622
X213.427Y-113.162
X213.427Y-115.702
X213.427Y-118.242
X213.427Y-120.782
X213.427Y-123.322
X213.427Y-125.862
X213.427Y-128.402
X213.427Y-130.942
X213.427Y-133.482
T5
X88.415Y-98.75
X88.415Y-101.75
X95.165Y-50.75
X95.165Y-53.75
X177.835Y-113.75
X177.835Y-116.75
X177.835Y-119.75
X177.835Y-122.75
X182.25Y-143.312
X185.25Y-143.312
X188.25Y-143.312
X191.25Y-143.312
T6
X83.82Y-119.38
X94.02Y-119.38
T7
X119.045Y-76.345
X119.045Y-80.155
X119.045Y-92.225
X119.055Y-107.625
X122.855Y-64.285
X122.865Y-135.565
X126.665Y-64.285
X126.665Y-92.225
X126.675Y-107.625
X126.675Y-135.565
X130.475Y-64.285
X130.485Y-135.565
X134.285Y-92.225
X134.295Y-107.625
X134.295Y-119.695
X134.295Y-123.505
T8
X119.045Y-64.285
X119.055Y-135.565
X134.285Y-64.285
X134.295Y-135.565
T9
X127.65Y-149.83
X133.35Y-149.83
T10
X80.02Y-134.58
X80.02Y-142.18
X97.82Y-132.04
T11
X86.725Y-50.35
X86.725Y-150.35
X216.725Y-50.35
X216.725Y-150.35
T3
X98.005Y-148.062G85X97.205Y-148.062
G05
X98.005Y-151.462G85X97.205Y-151.462
G05
X111.505Y-148.062G85X110.705Y-148.062
G05
X111.505Y-151.462G85X110.705Y-151.462
G05
X120.381Y-49.052G85X119.581Y-49.052
G05
X120.381Y-52.452G85X119.581Y-52.452
G05
X133.881Y-49.052G85X133.081Y-49.052
G05
X133.881Y-52.452G85X133.081Y-52.452
G05
X155.119Y-112.048G85X155.919Y-112.048
G05
X155.119Y-115.448G85X155.919Y-115.448
G05
X155.119Y-121.048G85X155.919Y-121.048
G05
X155.119Y-124.448G85X155.919Y-124.448
G05
X168.619Y-112.048G85X169.419Y-112.048
G05
X168.619Y-115.448G85X169.419Y-115.448
G05
X168.619Y-121.048G85X169.419Y-121.048
G05
X168.619Y-124.448G85X169.419Y-124.448
G05
T4
X100.775Y-51.037G85X100.775Y-49.537
G05
X104.625Y-51.287G85X105.925Y-51.287
G05
X104.275Y-57.287G85X106.275Y-57.287
G05
X109.775Y-51.037G85X109.775Y-49.537
G05
M30
