%TF.GenerationSoftware,KiCad,Pcbnew,10.0.6*%
%TF.CreationDate,2026-09-17T12:14:31-04:00*%
%TF.ProjectId,System Management Board,53797374-656d-4204-9d61-6e6167656d65,rev?*%
%TF.SameCoordinates,Original*%
%TF.FileFunction,Soldermask,Top*%
%TF.FilePolarity,Negative*%
%FSLAX46Y46*%
G04 Gerber Fmt 4.6, Leading zero omitted, Abs format (unit mm)*
G04 Created by KiCad (PCBNEW 10.0.6) date 2026-09-17 12:14:31*
%MOMM*%
%LPD*%
G01*
G04 APERTURE LIST*
G04 Aperture macros list*
%AMRoundRect*
0 Rectangle with rounded corners*
0 $1 Rounding radius*
0 $2 $3 $4 $5 $6 $7 $8 $9 X,Y pos of 4 corners*
0 Add a 4 corners polygon primitive as box body*
4,1,4,$2,$3,$4,$5,$6,$7,$8,$9,$2,$3,0*
0 Add four circle primitives for the rounded corners*
1,1,$1+$1,$2,$3*
1,1,$1+$1,$4,$5*
1,1,$1+$1,$6,$7*
1,1,$1+$1,$8,$9*
0 Add four rect primitives between the rounded corners*
20,1,$1+$1,$2,$3,$4,$5,0*
20,1,$1+$1,$4,$5,$6,$7,0*
20,1,$1+$1,$6,$7,$8,$9,0*
20,1,$1+$1,$8,$9,$2,$3,0*%
%AMHorizOval*
0 Thick line with rounded ends*
0 $1 width*
0 $2 $3 position (X,Y) of the first rounded end (center of the circle)*
0 $4 $5 position (X,Y) of the second rounded end (center of the circle)*
0 Add line between two ends*
20,1,$1,$2,$3,$4,$5,0*
0 Add two circle primitives to create the rounded ends*
1,1,$1,$2,$3*
1,1,$1,$4,$5*%
%AMFreePoly0*
4,1,23,0.500000,-0.750000,0.000000,-0.750000,0.000000,-0.745722,-0.065263,-0.745722,-0.191342,-0.711940,-0.304381,-0.646677,-0.396677,-0.554381,-0.461940,-0.441342,-0.495722,-0.315263,-0.495722,-0.250000,-0.500000,-0.250000,-0.500000,0.250000,-0.495722,0.250000,-0.495722,0.315263,-0.461940,0.441342,-0.396677,0.554381,-0.304381,0.646677,-0.191342,0.711940,-0.065263,0.745722,0.000000,0.745722,
0.000000,0.750000,0.500000,0.750000,0.500000,-0.750000,0.500000,-0.750000,$1*%
%AMFreePoly1*
4,1,23,0.000000,0.745722,0.065263,0.745722,0.191342,0.711940,0.304381,0.646677,0.396677,0.554381,0.461940,0.441342,0.495722,0.315263,0.495722,0.250000,0.500000,0.250000,0.500000,-0.250000,0.495722,-0.250000,0.495722,-0.315263,0.461940,-0.441342,0.396677,-0.554381,0.304381,-0.646677,0.191342,-0.711940,0.065263,-0.745722,0.000000,-0.745722,0.000000,-0.750000,-0.500000,-0.750000,
-0.500000,0.750000,0.000000,0.750000,0.000000,0.745722,0.000000,0.745722,$1*%
G04 Aperture macros list end*
%ADD10RoundRect,0.250001X0.624999X-0.462499X0.624999X0.462499X-0.624999X0.462499X-0.624999X-0.462499X0*%
%ADD11RoundRect,0.250000X-0.375000X-0.625000X0.375000X-0.625000X0.375000X0.625000X-0.375000X0.625000X0*%
%ADD12RoundRect,0.250000X-1.100000X0.325000X-1.100000X-0.325000X1.100000X-0.325000X1.100000X0.325000X0*%
%ADD13RoundRect,0.250000X0.325000X1.100000X-0.325000X1.100000X-0.325000X-1.100000X0.325000X-1.100000X0*%
%ADD14RoundRect,0.250000X-0.325000X-1.100000X0.325000X-1.100000X0.325000X1.100000X-0.325000X1.100000X0*%
%ADD15RoundRect,0.250000X1.100000X-0.325000X1.100000X0.325000X-1.100000X0.325000X-1.100000X-0.325000X0*%
%ADD16RoundRect,0.100000X0.100000X-0.637500X0.100000X0.637500X-0.100000X0.637500X-0.100000X-0.637500X0*%
%ADD17RoundRect,0.150000X0.587500X0.150000X-0.587500X0.150000X-0.587500X-0.150000X0.587500X-0.150000X0*%
%ADD18RoundRect,0.150000X-0.150000X0.587500X-0.150000X-0.587500X0.150000X-0.587500X0.150000X0.587500X0*%
%ADD19RoundRect,0.150000X-0.587500X-0.150000X0.587500X-0.150000X0.587500X0.150000X-0.587500X0.150000X0*%
%ADD20RoundRect,0.150000X0.150000X-0.587500X0.150000X0.587500X-0.150000X0.587500X-0.150000X-0.587500X0*%
%ADD21RoundRect,0.250000X0.625000X-0.312500X0.625000X0.312500X-0.625000X0.312500X-0.625000X-0.312500X0*%
%ADD22RoundRect,0.250000X-0.312500X-0.625000X0.312500X-0.625000X0.312500X0.625000X-0.312500X0.625000X0*%
%ADD23FreePoly0,90.000000*%
%ADD24FreePoly1,90.000000*%
%ADD25RoundRect,0.150000X0.150000X-0.512500X0.150000X0.512500X-0.150000X0.512500X-0.150000X-0.512500X0*%
%ADD26RoundRect,0.250000X1.950000X0.700000X-1.950000X0.700000X-1.950000X-0.700000X1.950000X-0.700000X0*%
%ADD27RoundRect,0.200000X-0.275000X0.200000X-0.275000X-0.200000X0.275000X-0.200000X0.275000X0.200000X0*%
%ADD28C,2.000000*%
%ADD29R,3.000000X2.100000*%
%ADD30O,3.000000X2.100000*%
%ADD31RoundRect,0.250000X-1.950000X-0.700000X1.950000X-0.700000X1.950000X0.700000X-1.950000X0.700000X0*%
%ADD32RoundRect,0.200000X0.200000X0.275000X-0.200000X0.275000X-0.200000X-0.275000X0.200000X-0.275000X0*%
%ADD33R,1.700000X1.700000*%
%ADD34O,1.700000X1.700000*%
%ADD35RoundRect,0.250000X-0.300000X-0.300000X0.300000X-0.300000X0.300000X0.300000X-0.300000X0.300000X0*%
%ADD36C,1.270000*%
%ADD37RoundRect,0.250001X-0.759999X0.499999X-0.759999X-0.499999X0.759999X-0.499999X0.759999X0.499999X0*%
%ADD38O,2.020000X1.500000*%
%ADD39RoundRect,0.200000X-0.200000X-0.275000X0.200000X-0.275000X0.200000X0.275000X-0.200000X0.275000X0*%
%ADD40RoundRect,0.225000X0.250000X-0.225000X0.250000X0.225000X-0.250000X0.225000X-0.250000X-0.225000X0*%
%ADD41R,1.600000X1.400000*%
%ADD42RoundRect,0.250000X-1.000000X-0.650000X1.000000X-0.650000X1.000000X0.650000X-1.000000X0.650000X0*%
%ADD43RoundRect,0.200000X0.275000X-0.200000X0.275000X0.200000X-0.275000X0.200000X-0.275000X-0.200000X0*%
%ADD44RoundRect,0.237500X-0.237500X-0.262500X0.237500X-0.262500X0.237500X0.262500X-0.237500X0.262500X0*%
%ADD45R,3.200000X4.900000*%
%ADD46C,1.000000*%
%ADD47RoundRect,0.225000X-0.225000X-0.250000X0.225000X-0.250000X0.225000X0.250000X-0.225000X0.250000X0*%
%ADD48C,1.600000*%
%ADD49O,5.000000X3.000000*%
%ADD50O,4.500000X3.000000*%
%ADD51O,2.500000X4.000000*%
%ADD52RoundRect,0.250000X0.650000X-1.000000X0.650000X1.000000X-0.650000X1.000000X-0.650000X-1.000000X0*%
%ADD53RoundRect,0.150000X-0.512500X-0.150000X0.512500X-0.150000X0.512500X0.150000X-0.512500X0.150000X0*%
%ADD54O,5.000000X6.000000*%
%ADD55O,6.000000X5.000000*%
%ADD56RoundRect,0.750000X0.750000X-0.750000X0.750000X0.750000X-0.750000X0.750000X-0.750000X-0.750000X0*%
%ADD57C,3.000000*%
%ADD58RoundRect,0.250000X0.300000X-0.300000X0.300000X0.300000X-0.300000X0.300000X-0.300000X-0.300000X0*%
%ADD59R,4.000000X7.000000*%
%ADD60FreePoly0,270.000000*%
%ADD61FreePoly1,270.000000*%
%ADD62RoundRect,0.225000X-0.250000X0.225000X-0.250000X-0.225000X0.250000X-0.225000X0.250000X0.225000X0*%
%ADD63RoundRect,0.250000X0.300000X0.300000X-0.300000X0.300000X-0.300000X-0.300000X0.300000X-0.300000X0*%
%ADD64RoundRect,0.250001X0.759999X-0.499999X0.759999X0.499999X-0.759999X0.499999X-0.759999X-0.499999X0*%
%ADD65C,0.800000*%
%ADD66C,6.400000*%
%ADD67RoundRect,0.225000X0.225000X0.250000X-0.225000X0.250000X-0.225000X-0.250000X0.225000X-0.250000X0*%
%ADD68R,2.620000X3.200000*%
%ADD69R,4.394200X2.209800*%
%ADD70HorizOval,2.800000X-0.212882X0.452417X0.212882X-0.452417X0*%
%ADD71HorizOval,2.800000X-0.212890X-0.452414X0.212890X0.452414X0*%
%ADD72RoundRect,0.250000X-0.700000X1.950000X-0.700000X-1.950000X0.700000X-1.950000X0.700000X1.950000X0*%
%ADD73RoundRect,0.250001X-0.499999X-0.759999X0.499999X-0.759999X0.499999X0.759999X-0.499999X0.759999X0*%
%ADD74O,1.500000X2.020000*%
%ADD75RoundRect,0.102500X-0.257500X-0.102500X0.257500X-0.102500X0.257500X0.102500X-0.257500X0.102500X0*%
%ADD76R,0.510000X0.585000*%
%ADD77R,3.990000X3.960000*%
%ADD78R,0.410000X0.470000*%
%ADD79RoundRect,0.250000X-0.300000X0.300000X-0.300000X-0.300000X0.300000X-0.300000X0.300000X0.300000X0*%
%ADD80R,3.000000X3.000000*%
%ADD81C,2.500000*%
%ADD82C,3.500000*%
G04 APERTURE END LIST*
%TO.C,JP6*%
G36*
X193750000Y-127350000D02*
G01*
X195250000Y-127350000D01*
X195250000Y-127650000D01*
X193750000Y-127650000D01*
X193750000Y-127350000D01*
G37*
%TO.C,JP7*%
G36*
X189250000Y-108600000D02*
G01*
X190750000Y-108600000D01*
X190750000Y-108900000D01*
X189250000Y-108900000D01*
X189250000Y-108600000D01*
G37*
%TO.C,JP5*%
G36*
X186750000Y-127350000D02*
G01*
X188250000Y-127350000D01*
X188250000Y-127650000D01*
X186750000Y-127650000D01*
X186750000Y-127350000D01*
G37*
%TD*%
D10*
%TO.C,F10*%
X191500000Y-138550000D03*
X191500000Y-135575000D03*
%TD*%
D11*
%TO.C,D13*%
X203600000Y-62500000D03*
X206400000Y-62500000D03*
%TD*%
%TO.C,D14*%
X203600000Y-66000000D03*
X206400000Y-66000000D03*
%TD*%
%TO.C,D17*%
X203600000Y-55500000D03*
X206400000Y-55500000D03*
%TD*%
%TO.C,D18*%
X203600000Y-69500000D03*
X206400000Y-69500000D03*
%TD*%
%TO.C,D16*%
X180100000Y-84500000D03*
X182900000Y-84500000D03*
%TD*%
%TO.C,D15*%
X180100000Y-80000000D03*
X182900000Y-80000000D03*
%TD*%
%TO.C,D10*%
X203600000Y-59000000D03*
X206400000Y-59000000D03*
%TD*%
D12*
%TO.C,C21*%
X98500000Y-64525000D03*
X98500000Y-67475000D03*
%TD*%
D13*
%TO.C,C47*%
X182475000Y-57000000D03*
X179525000Y-57000000D03*
%TD*%
%TO.C,C20*%
X100975000Y-70000000D03*
X98025000Y-70000000D03*
%TD*%
D14*
%TO.C,C34*%
X162025000Y-151000000D03*
X164975000Y-151000000D03*
%TD*%
D13*
%TO.C,C6*%
X115575000Y-107600000D03*
X112625000Y-107600000D03*
%TD*%
D14*
%TO.C,C41*%
X82940000Y-73810000D03*
X85890000Y-73810000D03*
%TD*%
D15*
%TO.C,C45*%
X79500000Y-87975000D03*
X79500000Y-85025000D03*
%TD*%
D14*
%TO.C,C35*%
X162025000Y-147750000D03*
X164975000Y-147750000D03*
%TD*%
D13*
%TO.C,C37*%
X170725000Y-147750000D03*
X167775000Y-147750000D03*
%TD*%
D12*
%TO.C,C46*%
X178500000Y-51025000D03*
X178500000Y-53975000D03*
%TD*%
D14*
%TO.C,C5*%
X137900000Y-96225000D03*
X140850000Y-96225000D03*
%TD*%
%TO.C,C8*%
X140025000Y-106750000D03*
X142975000Y-106750000D03*
%TD*%
%TO.C,C7*%
X137900000Y-92000000D03*
X140850000Y-92000000D03*
%TD*%
D13*
%TO.C,C42*%
X91140000Y-73810000D03*
X88190000Y-73810000D03*
%TD*%
%TO.C,C36*%
X170725000Y-151000000D03*
X167775000Y-151000000D03*
%TD*%
D16*
%TO.C,U5*%
X188725000Y-120862500D03*
X189375000Y-120862500D03*
X190025000Y-120862500D03*
X190675000Y-120862500D03*
X191325000Y-120862500D03*
X191975000Y-120862500D03*
X192625000Y-120862500D03*
X193275000Y-120862500D03*
X193275000Y-115137500D03*
X192625000Y-115137500D03*
X191975000Y-115137500D03*
X191325000Y-115137500D03*
X190675000Y-115137500D03*
X190025000Y-115137500D03*
X189375000Y-115137500D03*
X188725000Y-115137500D03*
%TD*%
D17*
%TO.C,U6*%
X144729500Y-102669000D03*
X144729500Y-100769000D03*
X142854500Y-101719000D03*
%TD*%
D18*
%TO.C,Q3*%
X185450000Y-136625000D03*
X183550000Y-136625000D03*
X184500000Y-138500000D03*
%TD*%
%TO.C,Q4*%
X181700000Y-136625000D03*
X179800000Y-136625000D03*
X180750000Y-138500000D03*
%TD*%
D19*
%TO.C,IC4*%
X161562500Y-51300000D03*
X161562500Y-53200000D03*
X163437500Y-52250000D03*
%TD*%
%TO.C,IC5*%
X161562500Y-47800000D03*
X161562500Y-49700000D03*
X163437500Y-48750000D03*
%TD*%
%TO.C,IC1*%
X84562500Y-109300000D03*
X84562500Y-111200000D03*
X86437500Y-110250000D03*
%TD*%
D18*
%TO.C,Q2*%
X189200000Y-136625000D03*
X187300000Y-136625000D03*
X188250000Y-138500000D03*
%TD*%
D20*
%TO.C,U7*%
X209739000Y-152371500D03*
X211639000Y-152371500D03*
X210689000Y-150496500D03*
%TD*%
D21*
%TO.C,R5*%
X94250000Y-90962500D03*
X94250000Y-88037500D03*
%TD*%
D22*
%TO.C,R2*%
X127287500Y-139000000D03*
X130212500Y-139000000D03*
%TD*%
D23*
%TO.C,JP6*%
X194500000Y-128150000D03*
D24*
X194500000Y-126850000D03*
%TD*%
D25*
%TO.C,U4*%
X101300000Y-67387500D03*
X102250000Y-67387500D03*
X103200000Y-67387500D03*
X103200000Y-65112500D03*
X101300000Y-65112500D03*
%TD*%
D26*
%TO.C,C3*%
X115600000Y-84000000D03*
X106900000Y-84000000D03*
%TD*%
D27*
%TO.C,R45*%
X155000000Y-149175000D03*
X155000000Y-150825000D03*
%TD*%
D28*
%TO.C,FID1*%
X221000000Y-146000000D03*
%TD*%
D29*
%TO.C,F9*%
X155519000Y-121048200D03*
D30*
X155519000Y-124448200D03*
X169019000Y-124448200D03*
X169019000Y-121048200D03*
%TD*%
D27*
%TO.C,R14*%
X190250000Y-111175000D03*
X190250000Y-112825000D03*
%TD*%
D25*
%TO.C,U3*%
X77715000Y-83197500D03*
X78665000Y-83197500D03*
X79615000Y-83197500D03*
X79615000Y-80922500D03*
X77715000Y-80922500D03*
%TD*%
D31*
%TO.C,C15*%
X138400000Y-72250000D03*
X147100000Y-72250000D03*
%TD*%
D32*
%TO.C,R23*%
X191825000Y-88500000D03*
X190175000Y-88500000D03*
%TD*%
D33*
%TO.C,J11*%
X202468300Y-85196001D03*
D34*
X205008300Y-85196001D03*
X202468300Y-87736001D03*
X205008300Y-87736001D03*
X202468300Y-90276001D03*
X205008300Y-90276001D03*
X202468300Y-92816001D03*
X205008300Y-92816001D03*
X202468300Y-95356001D03*
X205008300Y-95356001D03*
X202468300Y-97896001D03*
X205008300Y-97896001D03*
X202468300Y-100436001D03*
X205008300Y-100436001D03*
X202468300Y-102976001D03*
X205008300Y-102976001D03*
X202468300Y-105516001D03*
X205008300Y-105516001D03*
X202468300Y-108056001D03*
X205008300Y-108056001D03*
X202468300Y-110596001D03*
X205008300Y-110596001D03*
X202468300Y-113136001D03*
X205008300Y-113136001D03*
X202468300Y-115676001D03*
X205008300Y-115676001D03*
X202468300Y-118216001D03*
X205008300Y-118216001D03*
X202468300Y-120756001D03*
X205008300Y-120756001D03*
X202468300Y-123296001D03*
X205008300Y-123296001D03*
X202468300Y-125836001D03*
X205008300Y-125836001D03*
X202468300Y-128376001D03*
X205008300Y-128376001D03*
X202468300Y-130916001D03*
X205008300Y-130916001D03*
X202468300Y-133456001D03*
X205008300Y-133456001D03*
%TD*%
D35*
%TO.C,D9*%
X186600000Y-57000000D03*
X189400000Y-57000000D03*
%TD*%
D36*
%TO.C,J10*%
X90375000Y-95750000D03*
X90375000Y-104750000D03*
D37*
X88415000Y-98750000D03*
D38*
X88415000Y-101750000D03*
%TD*%
D39*
%TO.C,R38*%
X199175000Y-55500000D03*
X200825000Y-55500000D03*
%TD*%
D40*
%TO.C,C43*%
X76415000Y-72085000D03*
X76415000Y-70535000D03*
%TD*%
D32*
%TO.C,R21*%
X191825000Y-91250000D03*
X190175000Y-91250000D03*
%TD*%
D41*
%TO.C,SW1*%
X202900000Y-48500000D03*
X210100000Y-48500000D03*
X202900000Y-51500000D03*
X210100000Y-51500000D03*
%TD*%
D42*
%TO.C,D11*%
X83665000Y-70310000D03*
X87665000Y-70310000D03*
%TD*%
D39*
%TO.C,R24*%
X193425000Y-88500000D03*
X195075000Y-88500000D03*
%TD*%
D26*
%TO.C,C11*%
X131350000Y-72250000D03*
X122650000Y-72250000D03*
%TD*%
D27*
%TO.C,R13*%
X191750000Y-111175000D03*
X191750000Y-112825000D03*
%TD*%
D40*
%TO.C,C33*%
X155750000Y-145525000D03*
X155750000Y-143975000D03*
%TD*%
D43*
%TO.C,R19*%
X190250000Y-125075000D03*
X190250000Y-123425000D03*
%TD*%
D39*
%TO.C,R3*%
X169675000Y-63500000D03*
X171325000Y-63500000D03*
%TD*%
D44*
%TO.C,D21*%
X92225000Y-77560000D03*
X94165000Y-77560000D03*
D45*
X93195000Y-81910000D03*
%TD*%
D27*
%TO.C,R10*%
X159750000Y-47925000D03*
X159750000Y-49575000D03*
%TD*%
D46*
%TO.C,TP1*%
X187000000Y-91250000D03*
%TD*%
D47*
%TO.C,C13*%
X169725000Y-65250000D03*
X171275000Y-65250000D03*
%TD*%
D26*
%TO.C,C16*%
X116850000Y-127225000D03*
X108150000Y-127225000D03*
%TD*%
D48*
%TO.C,J4*%
X105275000Y-48287500D03*
D49*
X105275000Y-57287500D03*
D50*
X105275000Y-51287500D03*
D51*
X100775000Y-50287500D03*
X109775000Y-50287500D03*
%TD*%
D52*
%TO.C,D1*%
X119000000Y-151250000D03*
X119000000Y-147250000D03*
%TD*%
D29*
%TO.C,F5*%
X155519000Y-112048200D03*
D30*
X155519000Y-115448200D03*
X169019000Y-115448200D03*
X169019000Y-112048200D03*
%TD*%
D46*
%TO.C,TP7*%
X196775000Y-119275000D03*
%TD*%
D53*
%TO.C,U10*%
X78277500Y-72110000D03*
X78277500Y-73060000D03*
X78277500Y-74010000D03*
X80552500Y-74010000D03*
X80552500Y-73060000D03*
X80552500Y-72110000D03*
%TD*%
D28*
%TO.C,FID3*%
X81500000Y-53250000D03*
%TD*%
D43*
%TO.C,R48*%
X77250000Y-77575000D03*
X77250000Y-75925000D03*
%TD*%
D31*
%TO.C,C9*%
X138400000Y-60500000D03*
X147100000Y-60500000D03*
%TD*%
D33*
%TO.C,J7*%
X210886800Y-85221800D03*
D34*
X213426800Y-85221800D03*
X210886800Y-87761800D03*
X213426800Y-87761800D03*
X210886800Y-90301800D03*
X213426800Y-90301800D03*
X210886800Y-92841800D03*
X213426800Y-92841800D03*
X210886800Y-95381800D03*
X213426800Y-95381800D03*
X210886800Y-97921800D03*
X213426800Y-97921800D03*
X210886800Y-100461800D03*
X213426800Y-100461800D03*
X210886800Y-103001800D03*
X213426800Y-103001800D03*
X210886800Y-105541800D03*
X213426800Y-105541800D03*
X210886800Y-108081800D03*
X213426800Y-108081800D03*
X210886800Y-110621800D03*
X213426800Y-110621800D03*
X210886800Y-113161800D03*
X213426800Y-113161800D03*
X210886800Y-115701800D03*
X213426800Y-115701800D03*
X210886800Y-118241800D03*
X213426800Y-118241800D03*
X210886800Y-120781800D03*
X213426800Y-120781800D03*
X210886800Y-123321800D03*
X213426800Y-123321800D03*
X210886800Y-125861800D03*
X213426800Y-125861800D03*
X210886800Y-128401800D03*
X213426800Y-128401800D03*
X210886800Y-130941800D03*
X213426800Y-130941800D03*
X210886800Y-133481800D03*
X213426800Y-133481800D03*
%TD*%
D41*
%TO.C,SW2*%
X148350000Y-51500000D03*
X141150000Y-51500000D03*
X148350000Y-48500000D03*
X141150000Y-48500000D03*
%TD*%
D54*
%TO.C,K1*%
X97820000Y-132040000D03*
D55*
X80020000Y-142180000D03*
X80020000Y-134580000D03*
D56*
X94020000Y-119380000D03*
D57*
X83820000Y-119380000D03*
%TD*%
D32*
%TO.C,R31*%
X200825000Y-59000000D03*
X199175000Y-59000000D03*
%TD*%
%TO.C,R1*%
X124075000Y-61000000D03*
X122425000Y-61000000D03*
%TD*%
D58*
%TO.C,D7*%
X91500000Y-90900000D03*
X91500000Y-88100000D03*
%TD*%
D32*
%TO.C,R27*%
X191825000Y-94000000D03*
X190175000Y-94000000D03*
%TD*%
D59*
%TO.C,L1*%
X157750000Y-135500000D03*
X167750000Y-135500000D03*
%TD*%
D27*
%TO.C,R11*%
X106500000Y-69675000D03*
X106500000Y-71325000D03*
%TD*%
D33*
%TO.C,U1*%
X157000000Y-48260000D03*
D34*
X157000000Y-50800000D03*
X157000000Y-53340000D03*
X157000000Y-55880000D03*
X157000000Y-58420000D03*
X157000000Y-60960000D03*
X157000000Y-63500000D03*
X157000000Y-66040000D03*
X157000000Y-68580000D03*
X157000000Y-71120000D03*
X157000000Y-73660000D03*
X157000000Y-76200000D03*
X157000000Y-78740000D03*
X157000000Y-81280000D03*
X157000000Y-83820000D03*
X157000000Y-86360000D03*
X157000000Y-88900000D03*
X157000000Y-91440000D03*
X157000000Y-93980000D03*
X157000000Y-96520000D03*
X174780000Y-96520000D03*
X174780000Y-93980000D03*
X174780000Y-91440000D03*
X174780000Y-88900000D03*
X174780000Y-86360000D03*
X174780000Y-83820000D03*
X174780000Y-81280000D03*
X174780000Y-78740000D03*
X174780000Y-76200000D03*
X174780000Y-73660000D03*
X174780000Y-71120000D03*
X174780000Y-68580000D03*
X174780000Y-66040000D03*
X174780000Y-63500000D03*
X174780000Y-60960000D03*
X174780000Y-58420000D03*
X174780000Y-55880000D03*
X174780000Y-53340000D03*
X174780000Y-50800000D03*
D33*
X174780000Y-48260000D03*
%TD*%
D60*
%TO.C,JP7*%
X190000000Y-108100000D03*
D61*
X190000000Y-109400000D03*
%TD*%
D39*
%TO.C,R28*%
X193425000Y-94000000D03*
X195075000Y-94000000D03*
%TD*%
D29*
%TO.C,F4*%
X133481000Y-52451800D03*
D30*
X133481000Y-49051800D03*
X119981000Y-49051800D03*
X119981000Y-52451800D03*
%TD*%
D32*
%TO.C,R35*%
X200825000Y-66000000D03*
X199175000Y-66000000D03*
%TD*%
%TO.C,R34*%
X200825000Y-62500000D03*
X199175000Y-62500000D03*
%TD*%
D26*
%TO.C,C12*%
X115350000Y-139000000D03*
X106650000Y-139000000D03*
%TD*%
D46*
%TO.C,TP5*%
X150500000Y-146750000D03*
%TD*%
D62*
%TO.C,C38*%
X187250000Y-115475000D03*
X187250000Y-117025000D03*
%TD*%
D44*
%TO.C,D20*%
X99530000Y-77560000D03*
X101470000Y-77560000D03*
D45*
X100500000Y-81910000D03*
%TD*%
D53*
%TO.C,U8*%
X157612500Y-145550000D03*
X157612500Y-146500000D03*
X157612500Y-147450000D03*
X159887500Y-147450000D03*
X159887500Y-146500000D03*
X159887500Y-145550000D03*
%TD*%
D36*
%TO.C,J14*%
X97125000Y-47750000D03*
X97125000Y-56750000D03*
D37*
X95165000Y-50750000D03*
D38*
X95165000Y-53750000D03*
%TD*%
D46*
%TO.C,TP9*%
X190000000Y-127000000D03*
%TD*%
D43*
%TO.C,R17*%
X188750000Y-125075000D03*
X188750000Y-123425000D03*
%TD*%
D47*
%TO.C,C18*%
X122250000Y-139375000D03*
X123800000Y-139375000D03*
%TD*%
D32*
%TO.C,R32*%
X189075000Y-134562500D03*
X187425000Y-134562500D03*
%TD*%
D39*
%TO.C,R22*%
X193425000Y-91250000D03*
X195075000Y-91250000D03*
%TD*%
D31*
%TO.C,C10*%
X122650000Y-127275000D03*
X131350000Y-127275000D03*
%TD*%
D63*
%TO.C,D4*%
X92150000Y-110500000D03*
X89350000Y-110500000D03*
%TD*%
D62*
%TO.C,C49*%
X79000000Y-75975000D03*
X79000000Y-77525000D03*
%TD*%
D27*
%TO.C,R16*%
X193250000Y-111175000D03*
X193250000Y-112825000D03*
%TD*%
D62*
%TO.C,C48*%
X158250000Y-149225000D03*
X158250000Y-150775000D03*
%TD*%
D47*
%TO.C,C14*%
X169725000Y-67000000D03*
X171275000Y-67000000D03*
%TD*%
D36*
%TO.C,J3*%
X175875000Y-125750000D03*
X175875000Y-110750000D03*
D64*
X177835000Y-122750000D03*
D38*
X177835000Y-119750000D03*
X177835000Y-116750000D03*
X177835000Y-113750000D03*
%TD*%
D65*
%TO.C,H2*%
X214325000Y-50350000D03*
X215027944Y-48652944D03*
X215027944Y-52047056D03*
X216725000Y-47950000D03*
D66*
X216725000Y-50350000D03*
D65*
X216725000Y-52750000D03*
X218422056Y-48652944D03*
X218422056Y-52047056D03*
X219125000Y-50350000D03*
%TD*%
D46*
%TO.C,TP13*%
X194000000Y-109250000D03*
%TD*%
D27*
%TO.C,R50*%
X81165000Y-81235000D03*
X81165000Y-82885000D03*
%TD*%
D52*
%TO.C,D2*%
X88000000Y-92500000D03*
X88000000Y-88500000D03*
%TD*%
D27*
%TO.C,R9*%
X159750000Y-51425000D03*
X159750000Y-53075000D03*
%TD*%
D28*
%TO.C,FID2*%
X219750000Y-79750000D03*
%TD*%
D67*
%TO.C,C19*%
X92275000Y-93000000D03*
X90725000Y-93000000D03*
%TD*%
D32*
%TO.C,R43*%
X181575000Y-134562500D03*
X179925000Y-134562500D03*
%TD*%
D46*
%TO.C,TP8*%
X188000000Y-109250000D03*
%TD*%
D31*
%TO.C,C1*%
X138400000Y-84000000D03*
X147100000Y-84000000D03*
%TD*%
D27*
%TO.C,R49*%
X75500000Y-75925000D03*
X75500000Y-77575000D03*
%TD*%
D68*
%TO.C,F6*%
X109418000Y-97495000D03*
X117512000Y-97495000D03*
%TD*%
D32*
%TO.C,R37*%
X182325000Y-82500000D03*
X180675000Y-82500000D03*
%TD*%
D31*
%TO.C,C26*%
X138400000Y-115000000D03*
X147100000Y-115000000D03*
%TD*%
D46*
%TO.C,TP11*%
X192000000Y-127000000D03*
%TD*%
D26*
%TO.C,C2*%
X131350000Y-84000000D03*
X122650000Y-84000000D03*
%TD*%
D46*
%TO.C,TP14*%
X184250000Y-114000000D03*
%TD*%
D32*
%TO.C,R36*%
X182325000Y-78000000D03*
X180675000Y-78000000D03*
%TD*%
D40*
%TO.C,C40*%
X208250000Y-152275000D03*
X208250000Y-150725000D03*
%TD*%
D43*
%TO.C,R18*%
X193250000Y-125075000D03*
X193250000Y-123425000D03*
%TD*%
D42*
%TO.C,D6*%
X162750000Y-144250000D03*
X166750000Y-144250000D03*
%TD*%
D62*
%TO.C,C44*%
X76165000Y-80785000D03*
X76165000Y-82335000D03*
%TD*%
D69*
%TO.C,R40*%
X76962000Y-125171200D03*
X76962000Y-119684800D03*
%TD*%
D27*
%TO.C,R15*%
X188750000Y-111175000D03*
X188750000Y-112825000D03*
%TD*%
D28*
%TO.C,J1*%
X130500000Y-151170000D03*
D70*
X133350000Y-149830000D03*
D71*
X127650000Y-149830000D03*
%TD*%
D46*
%TO.C,TP4*%
X134000000Y-60000000D03*
%TD*%
D72*
%TO.C,C30*%
X183500000Y-63150000D03*
X183500000Y-71850000D03*
%TD*%
D43*
%TO.C,R44*%
X156500000Y-150825000D03*
X156500000Y-149175000D03*
%TD*%
%TO.C,R47*%
X80665000Y-77575000D03*
X80665000Y-75925000D03*
%TD*%
D65*
%TO.C,H4*%
X214325000Y-150350000D03*
X215027944Y-148652944D03*
X215027944Y-152047056D03*
X216725000Y-147950000D03*
D66*
X216725000Y-150350000D03*
D65*
X216725000Y-152750000D03*
X218422056Y-148652944D03*
X218422056Y-152047056D03*
X219125000Y-150350000D03*
%TD*%
%TO.C,H1*%
X84325000Y-50350000D03*
X85027944Y-48652944D03*
X85027944Y-52047056D03*
X86725000Y-47950000D03*
D66*
X86725000Y-50350000D03*
D65*
X86725000Y-52750000D03*
X88422056Y-48652944D03*
X88422056Y-52047056D03*
X89125000Y-50350000D03*
%TD*%
D26*
%TO.C,C4*%
X116850000Y-115000000D03*
X108150000Y-115000000D03*
%TD*%
D31*
%TO.C,C25*%
X122650000Y-115000000D03*
X131350000Y-115000000D03*
%TD*%
D43*
%TO.C,R20*%
X191750000Y-125075000D03*
X191750000Y-123425000D03*
%TD*%
D32*
%TO.C,R39*%
X185325000Y-134562500D03*
X183675000Y-134562500D03*
%TD*%
D27*
%TO.C,R6*%
X82500000Y-109425000D03*
X82500000Y-111075000D03*
%TD*%
D65*
%TO.C,H3*%
X84325000Y-150350000D03*
X85027944Y-148652944D03*
X85027944Y-152047056D03*
X86725000Y-147950000D03*
D66*
X86725000Y-150350000D03*
D65*
X86725000Y-152750000D03*
X88422056Y-148652944D03*
X88422056Y-152047056D03*
X89125000Y-150350000D03*
%TD*%
D67*
%TO.C,C17*%
X131275000Y-60325000D03*
X129725000Y-60325000D03*
%TD*%
D32*
%TO.C,R12*%
X106575000Y-67250000D03*
X104925000Y-67250000D03*
%TD*%
D36*
%TO.C,J13*%
X179250000Y-141352500D03*
X194250000Y-141352500D03*
D73*
X182250000Y-143312500D03*
D74*
X185250000Y-143312500D03*
X188250000Y-143312500D03*
X191250000Y-143312500D03*
%TD*%
D39*
%TO.C,R41*%
X199175000Y-69500000D03*
X200825000Y-69500000D03*
%TD*%
D47*
%TO.C,C39*%
X146725000Y-102750000D03*
X148275000Y-102750000D03*
%TD*%
D75*
%TO.C,Q5*%
X83415000Y-79060000D03*
X83415000Y-80330000D03*
X83415000Y-81600000D03*
X83415000Y-82870000D03*
D76*
X86130000Y-78692500D03*
X86130000Y-83237500D03*
D77*
X87210000Y-80965000D03*
D78*
X89000000Y-78750000D03*
X89000000Y-83180000D03*
%TD*%
D46*
%TO.C,TP6*%
X192000000Y-109250000D03*
%TD*%
D59*
%TO.C,L2*%
X78415000Y-61560000D03*
X88415000Y-61560000D03*
%TD*%
D29*
%TO.C,F1*%
X111105000Y-151461667D03*
D30*
X111105000Y-148061667D03*
X97605000Y-148061667D03*
X97605000Y-151461667D03*
%TD*%
D39*
%TO.C,R4*%
X169675000Y-68750000D03*
X171325000Y-68750000D03*
%TD*%
D68*
%TO.C,F7*%
X109418000Y-101995000D03*
X117512000Y-101995000D03*
%TD*%
D79*
%TO.C,D8*%
X104250000Y-69350000D03*
X104250000Y-72150000D03*
%TD*%
D43*
%TO.C,R46*%
X159750000Y-150825000D03*
X159750000Y-149175000D03*
%TD*%
D23*
%TO.C,JP5*%
X187500000Y-128150000D03*
D24*
X187500000Y-126850000D03*
%TD*%
D80*
%TO.C,PS1*%
X134285000Y-92225000D03*
D81*
X126665000Y-92225000D03*
D57*
X119045000Y-92225000D03*
D82*
X119045000Y-64285000D03*
D81*
X122855000Y-64285000D03*
X126665000Y-64285000D03*
X130475000Y-64285000D03*
D82*
X134285000Y-64285000D03*
D81*
X119045000Y-80155000D03*
X119045000Y-76345000D03*
%TD*%
D80*
%TO.C,PS2*%
X119055000Y-107625000D03*
D81*
X126675000Y-107625000D03*
D57*
X134295000Y-107625000D03*
D82*
X134295000Y-135565000D03*
D81*
X130485000Y-135565000D03*
X126675000Y-135565000D03*
X122865000Y-135565000D03*
D82*
X119055000Y-135565000D03*
D81*
X134295000Y-119695000D03*
X134295000Y-123505000D03*
%TD*%
M02*
