%TF.GenerationSoftware,KiCad,Pcbnew,10.0.6*%
%TF.CreationDate,2026-09-23T14:22:04-04:00*%
%TF.ProjectId,System Management Board,53797374-656d-4204-9d61-6e6167656d65,rev?*%
%TF.SameCoordinates,Original*%
%TF.FileFunction,Legend,Bot*%
%TF.FilePolarity,Positive*%
%FSLAX46Y46*%
G04 Gerber Fmt 4.6, Leading zero omitted, Abs format (unit mm)*
G04 Created by KiCad (PCBNEW 10.0.6) date 2026-09-23 14:22:04*
%MOMM*%
%LPD*%
G01*
G04 APERTURE LIST*
%ADD10C,0.150000*%
%ADD11C,0.127000*%
%ADD12C,0.200000*%
%ADD13C,0.120000*%
G04 APERTURE END LIST*
D10*
X107199999Y-94389866D02*
X107199999Y-92989866D01*
X107199999Y-92989866D02*
X106666666Y-92989866D01*
X106666666Y-92989866D02*
X106533333Y-93056533D01*
X106533333Y-93056533D02*
X106466666Y-93123200D01*
X106466666Y-93123200D02*
X106399999Y-93256533D01*
X106399999Y-93256533D02*
X106399999Y-93456533D01*
X106399999Y-93456533D02*
X106466666Y-93589866D01*
X106466666Y-93589866D02*
X106533333Y-93656533D01*
X106533333Y-93656533D02*
X106666666Y-93723200D01*
X106666666Y-93723200D02*
X107199999Y-93723200D01*
X105866666Y-94323200D02*
X105666666Y-94389866D01*
X105666666Y-94389866D02*
X105333333Y-94389866D01*
X105333333Y-94389866D02*
X105199999Y-94323200D01*
X105199999Y-94323200D02*
X105133333Y-94256533D01*
X105133333Y-94256533D02*
X105066666Y-94123200D01*
X105066666Y-94123200D02*
X105066666Y-93989866D01*
X105066666Y-93989866D02*
X105133333Y-93856533D01*
X105133333Y-93856533D02*
X105199999Y-93789866D01*
X105199999Y-93789866D02*
X105333333Y-93723200D01*
X105333333Y-93723200D02*
X105599999Y-93656533D01*
X105599999Y-93656533D02*
X105733333Y-93589866D01*
X105733333Y-93589866D02*
X105799999Y-93523200D01*
X105799999Y-93523200D02*
X105866666Y-93389866D01*
X105866666Y-93389866D02*
X105866666Y-93256533D01*
X105866666Y-93256533D02*
X105799999Y-93123200D01*
X105799999Y-93123200D02*
X105733333Y-93056533D01*
X105733333Y-93056533D02*
X105599999Y-92989866D01*
X105599999Y-92989866D02*
X105266666Y-92989866D01*
X105266666Y-92989866D02*
X105066666Y-93056533D01*
X103733333Y-94389866D02*
X104533333Y-94389866D01*
X104133333Y-94389866D02*
X104133333Y-92989866D01*
X104133333Y-92989866D02*
X104266666Y-93189866D01*
X104266666Y-93189866D02*
X104400000Y-93323200D01*
X104400000Y-93323200D02*
X104533333Y-93389866D01*
X166691333Y-73219819D02*
X166691333Y-73934104D01*
X166691333Y-73934104D02*
X166738952Y-74076961D01*
X166738952Y-74076961D02*
X166834190Y-74172200D01*
X166834190Y-74172200D02*
X166977047Y-74219819D01*
X166977047Y-74219819D02*
X167072285Y-74219819D01*
X166215142Y-74219819D02*
X166215142Y-73219819D01*
X166215142Y-73219819D02*
X165834190Y-73219819D01*
X165834190Y-73219819D02*
X165738952Y-73267438D01*
X165738952Y-73267438D02*
X165691333Y-73315057D01*
X165691333Y-73315057D02*
X165643714Y-73410295D01*
X165643714Y-73410295D02*
X165643714Y-73553152D01*
X165643714Y-73553152D02*
X165691333Y-73648390D01*
X165691333Y-73648390D02*
X165738952Y-73696009D01*
X165738952Y-73696009D02*
X165834190Y-73743628D01*
X165834190Y-73743628D02*
X166215142Y-73743628D01*
X165310380Y-73219819D02*
X164691333Y-73219819D01*
X164691333Y-73219819D02*
X165024666Y-73600771D01*
X165024666Y-73600771D02*
X164881809Y-73600771D01*
X164881809Y-73600771D02*
X164786571Y-73648390D01*
X164786571Y-73648390D02*
X164738952Y-73696009D01*
X164738952Y-73696009D02*
X164691333Y-73791247D01*
X164691333Y-73791247D02*
X164691333Y-74029342D01*
X164691333Y-74029342D02*
X164738952Y-74124580D01*
X164738952Y-74124580D02*
X164786571Y-74172200D01*
X164786571Y-74172200D02*
X164881809Y-74219819D01*
X164881809Y-74219819D02*
X165167523Y-74219819D01*
X165167523Y-74219819D02*
X165262761Y-74172200D01*
X165262761Y-74172200D02*
X165310380Y-74124580D01*
X107199999Y-106389866D02*
X107199999Y-104989866D01*
X107199999Y-104989866D02*
X106666666Y-104989866D01*
X106666666Y-104989866D02*
X106533333Y-105056533D01*
X106533333Y-105056533D02*
X106466666Y-105123200D01*
X106466666Y-105123200D02*
X106399999Y-105256533D01*
X106399999Y-105256533D02*
X106399999Y-105456533D01*
X106399999Y-105456533D02*
X106466666Y-105589866D01*
X106466666Y-105589866D02*
X106533333Y-105656533D01*
X106533333Y-105656533D02*
X106666666Y-105723200D01*
X106666666Y-105723200D02*
X107199999Y-105723200D01*
X105866666Y-106323200D02*
X105666666Y-106389866D01*
X105666666Y-106389866D02*
X105333333Y-106389866D01*
X105333333Y-106389866D02*
X105199999Y-106323200D01*
X105199999Y-106323200D02*
X105133333Y-106256533D01*
X105133333Y-106256533D02*
X105066666Y-106123200D01*
X105066666Y-106123200D02*
X105066666Y-105989866D01*
X105066666Y-105989866D02*
X105133333Y-105856533D01*
X105133333Y-105856533D02*
X105199999Y-105789866D01*
X105199999Y-105789866D02*
X105333333Y-105723200D01*
X105333333Y-105723200D02*
X105599999Y-105656533D01*
X105599999Y-105656533D02*
X105733333Y-105589866D01*
X105733333Y-105589866D02*
X105799999Y-105523200D01*
X105799999Y-105523200D02*
X105866666Y-105389866D01*
X105866666Y-105389866D02*
X105866666Y-105256533D01*
X105866666Y-105256533D02*
X105799999Y-105123200D01*
X105799999Y-105123200D02*
X105733333Y-105056533D01*
X105733333Y-105056533D02*
X105599999Y-104989866D01*
X105599999Y-104989866D02*
X105266666Y-104989866D01*
X105266666Y-104989866D02*
X105066666Y-105056533D01*
X104533333Y-105123200D02*
X104466666Y-105056533D01*
X104466666Y-105056533D02*
X104333333Y-104989866D01*
X104333333Y-104989866D02*
X104000000Y-104989866D01*
X104000000Y-104989866D02*
X103866666Y-105056533D01*
X103866666Y-105056533D02*
X103800000Y-105123200D01*
X103800000Y-105123200D02*
X103733333Y-105256533D01*
X103733333Y-105256533D02*
X103733333Y-105389866D01*
X103733333Y-105389866D02*
X103800000Y-105589866D01*
X103800000Y-105589866D02*
X104600000Y-106389866D01*
X104600000Y-106389866D02*
X103733333Y-106389866D01*
X166691333Y-75529819D02*
X166691333Y-76244104D01*
X166691333Y-76244104D02*
X166738952Y-76386961D01*
X166738952Y-76386961D02*
X166834190Y-76482200D01*
X166834190Y-76482200D02*
X166977047Y-76529819D01*
X166977047Y-76529819D02*
X167072285Y-76529819D01*
X166215142Y-76529819D02*
X166215142Y-75529819D01*
X166215142Y-75529819D02*
X165834190Y-75529819D01*
X165834190Y-75529819D02*
X165738952Y-75577438D01*
X165738952Y-75577438D02*
X165691333Y-75625057D01*
X165691333Y-75625057D02*
X165643714Y-75720295D01*
X165643714Y-75720295D02*
X165643714Y-75863152D01*
X165643714Y-75863152D02*
X165691333Y-75958390D01*
X165691333Y-75958390D02*
X165738952Y-76006009D01*
X165738952Y-76006009D02*
X165834190Y-76053628D01*
X165834190Y-76053628D02*
X166215142Y-76053628D01*
X164786571Y-75863152D02*
X164786571Y-76529819D01*
X165024666Y-75482200D02*
X165262761Y-76196485D01*
X165262761Y-76196485D02*
X164643714Y-76196485D01*
%TO.C,PS1*%
D11*
X108255000Y-60685000D02*
X145085000Y-60685000D01*
X108255000Y-94725000D02*
X108255000Y-60685000D01*
X145085000Y-60685000D02*
X145085000Y-94725000D01*
X145085000Y-94725000D02*
X108255000Y-94725000D01*
D12*
X134385000Y-96035000D02*
G75*
G02*
X134185000Y-96035000I-100000J0D01*
G01*
X134185000Y-96035000D02*
G75*
G02*
X134385000Y-96035000I100000J0D01*
G01*
%TO.C,JP3*%
D13*
X161410000Y-72533000D02*
X161410000Y-74533000D01*
X161410000Y-74533000D02*
X164210000Y-74533000D01*
X164210000Y-72533000D02*
X161410000Y-72533000D01*
X164210000Y-74533000D02*
X164210000Y-72533000D01*
%TO.C,PS2*%
D11*
X108255000Y-105125000D02*
X145085000Y-105125000D01*
X108255000Y-139165000D02*
X108255000Y-105125000D01*
X145085000Y-105125000D02*
X145085000Y-139165000D01*
X145085000Y-139165000D02*
X108255000Y-139165000D01*
D12*
X119155000Y-103815000D02*
G75*
G02*
X118955000Y-103815000I-100000J0D01*
G01*
X118955000Y-103815000D02*
G75*
G02*
X119155000Y-103815000I100000J0D01*
G01*
%TO.C,JP4*%
D13*
X161410000Y-75097000D02*
X161410000Y-77097000D01*
X161410000Y-77097000D02*
X164210000Y-77097000D01*
X164210000Y-75097000D02*
X161410000Y-75097000D01*
X164210000Y-77097000D02*
X164210000Y-75097000D01*
%TD*%
M02*
