%TF.GenerationSoftware,KiCad,Pcbnew,10.0.6*%
%TF.CreationDate,2026-09-17T12:14:54-04:00*%
%TF.ProjectId,System Management Board,53797374-656d-4204-9d61-6e6167656d65,rev?*%
%TF.SameCoordinates,Original*%
%TF.FileFunction,Plated,1,4,PTH,Mixed*%
%TF.FilePolarity,Positive*%
%FSLAX46Y46*%
G04 Gerber Fmt 4.6, Leading zero omitted, Abs format (unit mm)*
G04 Created by KiCad (PCBNEW 10.0.6) date 2026-09-17 12:14:54*
%MOMM*%
%LPD*%
G01*
G04 APERTURE LIST*
%TA.AperFunction,ViaDrill*%
%ADD10C,0.400000*%
%TD*%
%TA.AperFunction,ComponentDrill*%
%ADD11C,0.500000*%
%TD*%
G04 aperture for slot hole*
%TA.AperFunction,ComponentDrill*%
%ADD12C,0.800000*%
%TD*%
G04 aperture for slot hole*
%TA.AperFunction,ComponentDrill*%
%ADD13C,1.000000*%
%TD*%
%TA.AperFunction,ComponentDrill*%
%ADD14C,1.000000*%
%TD*%
%TA.AperFunction,ComponentDrill*%
%ADD15C,1.020000*%
%TD*%
%TA.AperFunction,ComponentDrill*%
%ADD16C,1.100000*%
%TD*%
%TA.AperFunction,ComponentDrill*%
%ADD17C,1.220000*%
%TD*%
%TA.AperFunction,ComponentDrill*%
%ADD18C,1.770000*%
%TD*%
%TA.AperFunction,ComponentDrill*%
%ADD19C,1.800000*%
%TD*%
%TA.AperFunction,ComponentDrill*%
%ADD20C,2.500000*%
%TD*%
%TA.AperFunction,ComponentDrill*%
%ADD21C,3.200000*%
%TD*%
G04 APERTURE END LIST*
D10*
X75000000Y-115000000D03*
X75250000Y-117500000D03*
X75500000Y-78750000D03*
X76165000Y-83335000D03*
X76500000Y-117500000D03*
X76750000Y-73500000D03*
X77250000Y-78750000D03*
X77500000Y-85000000D03*
X77750000Y-117500000D03*
X78000000Y-112000000D03*
X78000000Y-134500000D03*
X78000000Y-142250000D03*
X78500000Y-133250000D03*
X78500000Y-136000000D03*
X78500000Y-141000000D03*
X78500000Y-143500000D03*
X79000000Y-78750000D03*
X79000000Y-117500000D03*
X80000000Y-89500000D03*
X80000000Y-132750000D03*
X80000000Y-136500000D03*
X80000000Y-140250000D03*
X80000000Y-144250000D03*
X81000000Y-149000000D03*
X81250000Y-89500000D03*
X81250000Y-143750000D03*
X81500000Y-85000000D03*
X81500000Y-133250000D03*
X81500000Y-136000000D03*
X81500000Y-140750000D03*
X82000000Y-88250000D03*
X82000000Y-134500000D03*
X82000000Y-142250000D03*
X82250000Y-84000000D03*
X82500000Y-89500000D03*
X82500000Y-112250000D03*
X82750000Y-118500000D03*
X82750000Y-120250000D03*
X83000000Y-108000000D03*
X83500000Y-92250000D03*
X83750000Y-118000000D03*
X83750000Y-120750000D03*
X84000000Y-112250000D03*
X84250000Y-84250000D03*
X84250000Y-85250000D03*
X84750000Y-118500000D03*
X84750000Y-120250000D03*
X85000000Y-92250000D03*
X85000000Y-93750000D03*
X85250000Y-76250000D03*
X85500000Y-84250000D03*
X85500000Y-85250000D03*
X86500000Y-76250000D03*
X86750000Y-84250000D03*
X86750000Y-85250000D03*
X87000000Y-72500000D03*
X87000000Y-73750000D03*
X87000000Y-75000000D03*
X87250000Y-94500000D03*
X87250000Y-98750000D03*
X87750000Y-76250000D03*
X88000000Y-71750000D03*
X88000000Y-84250000D03*
X88000000Y-85250000D03*
X88500000Y-94500000D03*
X89000000Y-76250000D03*
X89250000Y-71750000D03*
X89250000Y-84250000D03*
X89250000Y-85250000D03*
X89500000Y-98750000D03*
X89500000Y-132000000D03*
X89500000Y-139000000D03*
X90250000Y-94250000D03*
X90500000Y-154500000D03*
X91250000Y-76250000D03*
X92000000Y-94250000D03*
X92500000Y-119400000D03*
X92650000Y-118100000D03*
X92750000Y-120750000D03*
X94000000Y-117900000D03*
X94000000Y-120900000D03*
X94250000Y-86750000D03*
X94500000Y-144000000D03*
X95300000Y-120700000D03*
X95350000Y-118100000D03*
X95750000Y-84500000D03*
X95750000Y-86000000D03*
X95750000Y-132000000D03*
X96000000Y-64500000D03*
X96000000Y-67500000D03*
X96000000Y-69000000D03*
X96000000Y-70500000D03*
X96000000Y-71750000D03*
X96250000Y-130500000D03*
X96250000Y-133750000D03*
X97000000Y-154500000D03*
X97500000Y-83250000D03*
X97500000Y-84500000D03*
X97500000Y-86000000D03*
X97500000Y-87250000D03*
X97750000Y-130000000D03*
X97750000Y-134250000D03*
X98500000Y-63000000D03*
X99250000Y-130500000D03*
X99250000Y-133750000D03*
X99750000Y-90500000D03*
X99750000Y-91750000D03*
X99750000Y-132000000D03*
X101000000Y-72250000D03*
X101000000Y-90500000D03*
X101000000Y-91750000D03*
X102250000Y-68750000D03*
X102250000Y-90500000D03*
X102250000Y-91750000D03*
X102750000Y-70000000D03*
X103500000Y-106000000D03*
X103500000Y-108500000D03*
X103500000Y-111500000D03*
X103500000Y-114500000D03*
X103500000Y-118000000D03*
X103500000Y-121500000D03*
X103500000Y-127000000D03*
X103500000Y-131500000D03*
X103500000Y-135000000D03*
X103500000Y-138250000D03*
X103500000Y-140000000D03*
X104000000Y-144000000D03*
X104000000Y-154500000D03*
X105000000Y-114000000D03*
X105000000Y-116000000D03*
X105000000Y-137500000D03*
X105000000Y-140500000D03*
X105250000Y-81750000D03*
X105250000Y-86250000D03*
X105500000Y-78500000D03*
X105500000Y-88000000D03*
X105500000Y-126000000D03*
X105500000Y-128500000D03*
X105750000Y-96000000D03*
X105750000Y-97250000D03*
X105750000Y-98500000D03*
X105750000Y-99750000D03*
X105750000Y-101000000D03*
X105750000Y-102250000D03*
X105750000Y-103500000D03*
X106000000Y-75500000D03*
X106500000Y-113500000D03*
X106500000Y-116500000D03*
X106500000Y-125500000D03*
X106500000Y-129000000D03*
X106500000Y-137500000D03*
X106500000Y-140500000D03*
X107000000Y-62000000D03*
X107000000Y-65500000D03*
X107000000Y-81750000D03*
X107000000Y-86250000D03*
X107000000Y-96000000D03*
X107000000Y-97250000D03*
X107000000Y-98500000D03*
X107000000Y-99750000D03*
X107000000Y-101000000D03*
X107000000Y-102250000D03*
X107000000Y-103500000D03*
X107000000Y-106000000D03*
X107000000Y-108500000D03*
X107000000Y-111500000D03*
X107000000Y-121500000D03*
X107000000Y-131500000D03*
X107000000Y-135000000D03*
X107000000Y-154500000D03*
X107500000Y-144000000D03*
X108000000Y-113500000D03*
X108000000Y-116500000D03*
X108000000Y-125500000D03*
X108000000Y-129000000D03*
X108000000Y-137500000D03*
X108000000Y-140500000D03*
X108500000Y-88000000D03*
X108750000Y-81750000D03*
X108750000Y-86250000D03*
X109000000Y-78500000D03*
X109500000Y-113500000D03*
X109500000Y-116500000D03*
X109500000Y-125500000D03*
X109500000Y-129000000D03*
X109500000Y-138000000D03*
X109500000Y-140000000D03*
X110250000Y-81750000D03*
X110250000Y-84000000D03*
X110250000Y-86250000D03*
X110750000Y-106000000D03*
X110750000Y-107500000D03*
X110750000Y-109000000D03*
X111000000Y-111000000D03*
X111000000Y-114000000D03*
X111000000Y-116000000D03*
X111000000Y-126000000D03*
X111000000Y-128500000D03*
X111500000Y-88000000D03*
X111500000Y-96000000D03*
X111500000Y-97250000D03*
X111500000Y-98500000D03*
X111500000Y-99750000D03*
X111500000Y-101000000D03*
X111500000Y-102250000D03*
X111500000Y-103500000D03*
X112000000Y-62000000D03*
X112000000Y-65500000D03*
X112000000Y-69500000D03*
X112000000Y-74000000D03*
X112000000Y-78500000D03*
X112500000Y-110250000D03*
X112750000Y-96000000D03*
X112750000Y-97250000D03*
X112750000Y-98500000D03*
X112750000Y-99750000D03*
X112750000Y-101000000D03*
X112750000Y-102250000D03*
X112750000Y-103500000D03*
X113500000Y-123000000D03*
X113500000Y-125050000D03*
X114250000Y-124000000D03*
X115000000Y-144000000D03*
X115000000Y-150500000D03*
X115000000Y-154500000D03*
X115250000Y-123000000D03*
X115250000Y-125000000D03*
X116000000Y-62000000D03*
X116000000Y-65500000D03*
X116000000Y-69500000D03*
X116000000Y-74000000D03*
X116000000Y-78500000D03*
X117000000Y-151250000D03*
X117000000Y-153750000D03*
X117500000Y-64250000D03*
X117500000Y-92250000D03*
X117750000Y-63000000D03*
X117750000Y-65500000D03*
X118000000Y-91250000D03*
X118000000Y-93250000D03*
X118000000Y-123000000D03*
X118000000Y-125000000D03*
X118999000Y-70049000D03*
X118999000Y-72299000D03*
X119000000Y-62750000D03*
X119000000Y-65750000D03*
X119000000Y-90750000D03*
X119000000Y-93750000D03*
X119000000Y-124000000D03*
X119000000Y-153750000D03*
X119500000Y-82500000D03*
X119500000Y-84000000D03*
X119750000Y-123000000D03*
X119750000Y-125000000D03*
X120000000Y-91250000D03*
X120000000Y-93250000D03*
X120250000Y-63000000D03*
X120250000Y-65500000D03*
X120500000Y-92250000D03*
X121000000Y-151250000D03*
X121000000Y-153750000D03*
X121411000Y-70049000D03*
X121411000Y-74549000D03*
X121411000Y-81788000D03*
X122500000Y-77000000D03*
X122750000Y-80750000D03*
X123000000Y-123000000D03*
X123000000Y-125000000D03*
X123000000Y-144000000D03*
X123000000Y-154500000D03*
X123761000Y-70049000D03*
X123761000Y-74549000D03*
X123761000Y-81788000D03*
X124000000Y-124000000D03*
X124313815Y-141768000D03*
X124750000Y-80750000D03*
X124750000Y-123000000D03*
X124750000Y-125000000D03*
X126000000Y-77000000D03*
X126000000Y-84000000D03*
X126050000Y-150600000D03*
X126111000Y-70049000D03*
X126111000Y-72299000D03*
X126111000Y-74549000D03*
X126111000Y-81788000D03*
X126250000Y-141750000D03*
X126750000Y-151600000D03*
X127050000Y-148150000D03*
X127750000Y-115000000D03*
X128000000Y-116250000D03*
X128000000Y-141750000D03*
X128000000Y-151650000D03*
X128150000Y-147950000D03*
X128450000Y-74550000D03*
X128500000Y-70250000D03*
X128500000Y-144000000D03*
X128500000Y-154500000D03*
X128818333Y-58500000D03*
X129000000Y-117000000D03*
X129050000Y-148550000D03*
X130000000Y-77000000D03*
X130000000Y-81500000D03*
X130000000Y-141750000D03*
X130250000Y-70250000D03*
X130250000Y-74550000D03*
X130500000Y-117000000D03*
X131500000Y-144000000D03*
X131500000Y-154500000D03*
X131700000Y-148950000D03*
X132000000Y-70250000D03*
X132000000Y-74550000D03*
X132000000Y-117000000D03*
X132000000Y-141750000D03*
X132400000Y-148100000D03*
X132750000Y-107700000D03*
X132880260Y-136756126D03*
X132930260Y-134406126D03*
X132950000Y-151650000D03*
X133200000Y-106600000D03*
X133200000Y-108750000D03*
X133500000Y-117000000D03*
X133700000Y-148000000D03*
X133750000Y-70250000D03*
X133750000Y-74500000D03*
X134200000Y-151600000D03*
X134230260Y-137406126D03*
X134280260Y-133806126D03*
X134300000Y-106100000D03*
X134300000Y-109150000D03*
X134500000Y-77000000D03*
X134500000Y-81500000D03*
X134500000Y-115000000D03*
X134500000Y-116500000D03*
X134750000Y-71500000D03*
X134750000Y-73000000D03*
X135000000Y-150600000D03*
X135250000Y-106500000D03*
X135250000Y-108750000D03*
X135580260Y-134406126D03*
X135580260Y-136856126D03*
X135800000Y-107650000D03*
X136000000Y-70250000D03*
X136000000Y-74500000D03*
X136500000Y-144000000D03*
X137500000Y-70250000D03*
X137500000Y-74500000D03*
X139000000Y-70250000D03*
X139000000Y-74500000D03*
X139000000Y-77000000D03*
X139000000Y-81500000D03*
X140500000Y-70250000D03*
X140500000Y-74550000D03*
X142000000Y-134000000D03*
X142000000Y-140000000D03*
X142000000Y-144000000D03*
X142250000Y-150250000D03*
X142250000Y-154000000D03*
X142493000Y-76744000D03*
X142494000Y-79538000D03*
X142494000Y-81788000D03*
X142494000Y-84038000D03*
X142494000Y-86288000D03*
X142494000Y-88538000D03*
X142750000Y-92000000D03*
X142750000Y-94250000D03*
X142750000Y-103000000D03*
X143000000Y-110500000D03*
X143000000Y-112000000D03*
X143000000Y-113500000D03*
X143000000Y-115000000D03*
X143000000Y-116500000D03*
X143000000Y-118000000D03*
X143000000Y-119500000D03*
X144000000Y-95250000D03*
X144843000Y-67744000D03*
X144843000Y-69994000D03*
X144843000Y-74494000D03*
X144843000Y-76744000D03*
X144844000Y-79538000D03*
X144844000Y-81788000D03*
X144844000Y-86288000D03*
X144844000Y-88538000D03*
X145000000Y-92000000D03*
X145000000Y-94250000D03*
X145000000Y-105500000D03*
X145000000Y-106750000D03*
X145000000Y-108000000D03*
X145250000Y-152500000D03*
X145250000Y-154000000D03*
X145987000Y-58166000D03*
X145987000Y-62666000D03*
X145987000Y-64916000D03*
X146000000Y-95250000D03*
X146250000Y-104000000D03*
X146250000Y-105500000D03*
X146250000Y-106750000D03*
X146250000Y-108000000D03*
X146750000Y-101235000D03*
X146750000Y-152500000D03*
X146750000Y-154000000D03*
X147193000Y-67744000D03*
X147193000Y-69994000D03*
X147193000Y-74494000D03*
X147193000Y-76744000D03*
X147194000Y-79538000D03*
X147194000Y-81788000D03*
X147194000Y-86288000D03*
X147200000Y-88500000D03*
X147500000Y-106750000D03*
X147500000Y-108000000D03*
X148250000Y-104205100D03*
X148250000Y-152500000D03*
X148250000Y-154000000D03*
X148337000Y-58166000D03*
X148337000Y-62666000D03*
X148337000Y-64916000D03*
X148750000Y-108000000D03*
X149606000Y-67727000D03*
X149606000Y-69977000D03*
X149606000Y-74477000D03*
X149606000Y-76835000D03*
X149606000Y-79085000D03*
X149606000Y-81335000D03*
X149750000Y-152500000D03*
X149750000Y-154000000D03*
X150250000Y-48500000D03*
X150622000Y-58202000D03*
X150622000Y-60452000D03*
X150622000Y-62702000D03*
X150622000Y-64952000D03*
X151000000Y-72227000D03*
X151000000Y-84000000D03*
X151000000Y-86500000D03*
X151380200Y-53880200D03*
X152250000Y-46500000D03*
X155000000Y-151750000D03*
X155250000Y-100000000D03*
X156250000Y-147000000D03*
X156500000Y-151750000D03*
X158250000Y-151750000D03*
X159750000Y-54250000D03*
X159750000Y-62250000D03*
X159750000Y-75000000D03*
X159750000Y-77500000D03*
X159750000Y-82500000D03*
X159750000Y-87250000D03*
X159750000Y-94500000D03*
X161000000Y-63250000D03*
X162000000Y-58000000D03*
X162500000Y-54500000D03*
X162734900Y-70500000D03*
X163250000Y-50500000D03*
X163500000Y-127000000D03*
X163750000Y-101250000D03*
X165000000Y-103500000D03*
X165250000Y-153250000D03*
X166000000Y-59000000D03*
X166000000Y-107384900D03*
X166500000Y-146750000D03*
X166500000Y-147750000D03*
X166500000Y-149000000D03*
X166500000Y-150250000D03*
X166500000Y-151250000D03*
X166500000Y-152250000D03*
X166500000Y-153250000D03*
X167000000Y-97000000D03*
X167000000Y-102250000D03*
X167500000Y-73500000D03*
X167500000Y-76750000D03*
X167500000Y-79000000D03*
X167500000Y-99700000D03*
X167750000Y-153250000D03*
X168000000Y-64500000D03*
X168000000Y-87000000D03*
X168250000Y-85500000D03*
X169000000Y-101750000D03*
X170000000Y-48000000D03*
X170250000Y-82000000D03*
X170424093Y-104141923D03*
X170750000Y-153250000D03*
X171250000Y-84500000D03*
X171250000Y-102961100D03*
X171325000Y-70500000D03*
X172000000Y-50250000D03*
X172000000Y-53250000D03*
X172000000Y-57000000D03*
X172000000Y-79000000D03*
X172500000Y-104750000D03*
X172750000Y-87750000D03*
X175750000Y-130500000D03*
X176000000Y-134000000D03*
X176000000Y-139000000D03*
X176000000Y-143000000D03*
X176000000Y-148000000D03*
X176000000Y-154000000D03*
X177000000Y-74250000D03*
X177500000Y-98500000D03*
X177750000Y-64000000D03*
X178250000Y-56000000D03*
X178250000Y-57250000D03*
X178250000Y-58500000D03*
X178250000Y-134250000D03*
X179000000Y-130500000D03*
X179000000Y-138250000D03*
X179750000Y-101750000D03*
X181000000Y-106750000D03*
X182000000Y-96500000D03*
X182066734Y-71850908D03*
X182250000Y-69250000D03*
X182250000Y-74500000D03*
X182750000Y-111750000D03*
X183000000Y-122000000D03*
X183000000Y-127000000D03*
X183000000Y-138250000D03*
X183250000Y-133250000D03*
X183500000Y-78000000D03*
X183500000Y-82500000D03*
X184750000Y-69250000D03*
X184750000Y-74500000D03*
X184984102Y-71850908D03*
X185000000Y-53250000D03*
X185000000Y-115475000D03*
X185000000Y-120750000D03*
X186000000Y-81500000D03*
X186000000Y-117000000D03*
X186750000Y-122000000D03*
X186750000Y-138250000D03*
X187000000Y-133250000D03*
X188000000Y-55250000D03*
X189250000Y-128750000D03*
X189500000Y-68000000D03*
X189500000Y-131000000D03*
X190000000Y-107000000D03*
X190115100Y-83500000D03*
X190500000Y-128500000D03*
X191000000Y-71000000D03*
X191000000Y-74000000D03*
X191507465Y-116571223D03*
X192000000Y-81000000D03*
X192250000Y-119000000D03*
X193500000Y-119000000D03*
X194000000Y-56000000D03*
X194000000Y-59000000D03*
X194000000Y-63000000D03*
X194000000Y-66000000D03*
X194000000Y-71000000D03*
X194000000Y-74000000D03*
X194000000Y-145750000D03*
X194000000Y-150000000D03*
X194500000Y-122250000D03*
X194750000Y-120750000D03*
X195000000Y-138500000D03*
X196250000Y-116750000D03*
X196250000Y-128750000D03*
X196325000Y-88500000D03*
X196325000Y-91250000D03*
X196325000Y-94000000D03*
X197000000Y-71000000D03*
X197000000Y-74000000D03*
X197000000Y-81000000D03*
X197500000Y-84750000D03*
X197500000Y-87000000D03*
X198000000Y-47000000D03*
X198000000Y-55500000D03*
X198000000Y-59000000D03*
X198000000Y-62500000D03*
X198000000Y-66000000D03*
X198000000Y-69500000D03*
X198000000Y-125000000D03*
X198000000Y-131000000D03*
X198000000Y-154000000D03*
X198250000Y-106500000D03*
X198250000Y-113250000D03*
X198750000Y-138250000D03*
X199000000Y-148500000D03*
X199500000Y-100250000D03*
X200000000Y-51000000D03*
X201000000Y-71000000D03*
X201000000Y-74000000D03*
X201500000Y-47250000D03*
X201500000Y-146750000D03*
X202000000Y-82000000D03*
X202250000Y-137750000D03*
X202250000Y-143500000D03*
X204000000Y-78000000D03*
X204250000Y-145250000D03*
X205000000Y-154000000D03*
X206000000Y-82000000D03*
X206000000Y-150750000D03*
X208000000Y-76000000D03*
X209000000Y-57000000D03*
X209250000Y-69500000D03*
X210689000Y-147500000D03*
X211000000Y-64000000D03*
X211000000Y-76000000D03*
X211000000Y-82000000D03*
X211500000Y-47250000D03*
X214000000Y-57000000D03*
X214000000Y-64000000D03*
X214000000Y-72000000D03*
X214000000Y-137250000D03*
X222500000Y-52500000D03*
X222500000Y-57500000D03*
X222500000Y-62500000D03*
X222500000Y-67500000D03*
X222500000Y-72500000D03*
X222500000Y-77500000D03*
X222500000Y-82500000D03*
X222500000Y-87500000D03*
X222500000Y-92500000D03*
X222500000Y-97500000D03*
X222500000Y-102500000D03*
X222500000Y-107500000D03*
X222500000Y-112500000D03*
X222500000Y-117500000D03*
X222500000Y-122500000D03*
X222500000Y-127500000D03*
X222500000Y-132500000D03*
X222500000Y-137500000D03*
X222500000Y-142500000D03*
X222500000Y-147500000D03*
D11*
%TO.C,H1*%
X84325000Y-50350000D03*
%TO.C,H3*%
X84325000Y-150350000D03*
%TO.C,H1*%
X85027944Y-48652944D03*
X85027944Y-52047056D03*
%TO.C,H3*%
X85027944Y-148652944D03*
X85027944Y-152047056D03*
%TO.C,H1*%
X86725000Y-47950000D03*
X86725000Y-52750000D03*
%TO.C,H3*%
X86725000Y-147950000D03*
X86725000Y-152750000D03*
%TO.C,H1*%
X88422056Y-48652944D03*
X88422056Y-52047056D03*
%TO.C,H3*%
X88422056Y-148652944D03*
X88422056Y-152047056D03*
%TO.C,H1*%
X89125000Y-50350000D03*
%TO.C,H3*%
X89125000Y-150350000D03*
%TO.C,H2*%
X214325000Y-50350000D03*
%TO.C,H4*%
X214325000Y-150350000D03*
%TO.C,H2*%
X215027944Y-48652944D03*
X215027944Y-52047056D03*
%TO.C,H4*%
X215027944Y-148652944D03*
X215027944Y-152047056D03*
%TO.C,H2*%
X216725000Y-47950000D03*
X216725000Y-52750000D03*
%TO.C,H4*%
X216725000Y-147950000D03*
X216725000Y-152750000D03*
%TO.C,H2*%
X218422056Y-48652944D03*
X218422056Y-52047056D03*
%TO.C,H4*%
X218422056Y-148652944D03*
X218422056Y-152047056D03*
%TO.C,H2*%
X219125000Y-50350000D03*
%TO.C,H4*%
X219125000Y-150350000D03*
%TO.C,F1*%
D12*
X97205000Y-148061667D02*
X98005000Y-148061667D01*
X97205000Y-151461667D02*
X98005000Y-151461667D01*
X110705000Y-148061667D02*
X111505000Y-148061667D01*
X110705000Y-151461667D02*
X111505000Y-151461667D01*
%TO.C,F4*%
X119581000Y-49051800D02*
X120381000Y-49051800D01*
X119581000Y-52451800D02*
X120381000Y-52451800D01*
X133081000Y-49051800D02*
X133881000Y-49051800D01*
X133081000Y-52451800D02*
X133881000Y-52451800D01*
%TO.C,F5*%
X155919000Y-112048200D02*
X155119000Y-112048200D01*
X155919000Y-115448200D02*
X155119000Y-115448200D01*
%TO.C,F9*%
X155919000Y-121048200D02*
X155119000Y-121048200D01*
X155919000Y-124448200D02*
X155119000Y-124448200D01*
%TO.C,F5*%
X169419000Y-112048200D02*
X168619000Y-112048200D01*
X169419000Y-115448200D02*
X168619000Y-115448200D01*
%TO.C,F9*%
X169419000Y-121048200D02*
X168619000Y-121048200D01*
X169419000Y-124448200D02*
X168619000Y-124448200D01*
%TO.C,J4*%
D13*
X100775000Y-49537500D02*
X100775000Y-51037500D01*
X105925000Y-51287500D02*
X104625000Y-51287500D01*
X106275000Y-57287500D02*
X104275000Y-57287500D01*
X109775000Y-49537500D02*
X109775000Y-51037500D01*
D14*
%TO.C,U1*%
X157000000Y-48260000D03*
X157000000Y-50800000D03*
X157000000Y-53340000D03*
X157000000Y-55880000D03*
X157000000Y-58420000D03*
X157000000Y-60960000D03*
X157000000Y-63500000D03*
X157000000Y-66040000D03*
X157000000Y-68580000D03*
X157000000Y-71120000D03*
X157000000Y-73660000D03*
X157000000Y-76200000D03*
X157000000Y-78740000D03*
X157000000Y-81280000D03*
X157000000Y-83820000D03*
X157000000Y-86360000D03*
X157000000Y-88900000D03*
X157000000Y-91440000D03*
X157000000Y-93980000D03*
X157000000Y-96520000D03*
X174780000Y-48260000D03*
X174780000Y-50800000D03*
X174780000Y-53340000D03*
X174780000Y-55880000D03*
X174780000Y-58420000D03*
X174780000Y-60960000D03*
X174780000Y-63500000D03*
X174780000Y-66040000D03*
X174780000Y-68580000D03*
X174780000Y-71120000D03*
X174780000Y-73660000D03*
X174780000Y-76200000D03*
X174780000Y-78740000D03*
X174780000Y-81280000D03*
X174780000Y-83820000D03*
X174780000Y-86360000D03*
X174780000Y-88900000D03*
X174780000Y-91440000D03*
X174780000Y-93980000D03*
X174780000Y-96520000D03*
%TO.C,J11*%
X202468300Y-85196001D03*
X202468300Y-87736001D03*
X202468300Y-90276001D03*
X202468300Y-92816001D03*
X202468300Y-95356001D03*
X202468300Y-97896001D03*
X202468300Y-100436001D03*
X202468300Y-102976001D03*
X202468300Y-105516001D03*
X202468300Y-108056001D03*
X202468300Y-110596001D03*
X202468300Y-113136001D03*
X202468300Y-115676001D03*
X202468300Y-118216001D03*
X202468300Y-120756001D03*
X202468300Y-123296001D03*
X202468300Y-125836001D03*
X202468300Y-128376001D03*
X202468300Y-130916001D03*
X202468300Y-133456001D03*
X205008300Y-85196001D03*
X205008300Y-87736001D03*
X205008300Y-90276001D03*
X205008300Y-92816001D03*
X205008300Y-95356001D03*
X205008300Y-97896001D03*
X205008300Y-100436001D03*
X205008300Y-102976001D03*
X205008300Y-105516001D03*
X205008300Y-108056001D03*
X205008300Y-110596001D03*
X205008300Y-113136001D03*
X205008300Y-115676001D03*
X205008300Y-118216001D03*
X205008300Y-120756001D03*
X205008300Y-123296001D03*
X205008300Y-125836001D03*
X205008300Y-128376001D03*
X205008300Y-130916001D03*
X205008300Y-133456001D03*
%TO.C,J7*%
X210886800Y-85221800D03*
X210886800Y-87761800D03*
X210886800Y-90301800D03*
X210886800Y-92841800D03*
X210886800Y-95381800D03*
X210886800Y-97921800D03*
X210886800Y-100461800D03*
X210886800Y-103001800D03*
X210886800Y-105541800D03*
X210886800Y-108081800D03*
X210886800Y-110621800D03*
X210886800Y-113161800D03*
X210886800Y-115701800D03*
X210886800Y-118241800D03*
X210886800Y-120781800D03*
X210886800Y-123321800D03*
X210886800Y-125861800D03*
X210886800Y-128401800D03*
X210886800Y-130941800D03*
X210886800Y-133481800D03*
X213426800Y-85221800D03*
X213426800Y-87761800D03*
X213426800Y-90301800D03*
X213426800Y-92841800D03*
X213426800Y-95381800D03*
X213426800Y-97921800D03*
X213426800Y-100461800D03*
X213426800Y-103001800D03*
X213426800Y-105541800D03*
X213426800Y-108081800D03*
X213426800Y-110621800D03*
X213426800Y-113161800D03*
X213426800Y-115701800D03*
X213426800Y-118241800D03*
X213426800Y-120781800D03*
X213426800Y-123321800D03*
X213426800Y-125861800D03*
X213426800Y-128401800D03*
X213426800Y-130941800D03*
X213426800Y-133481800D03*
D15*
%TO.C,J10*%
X88415000Y-98750000D03*
X88415000Y-101750000D03*
%TO.C,J14*%
X95165000Y-50750000D03*
X95165000Y-53750000D03*
%TO.C,J3*%
X177835000Y-113750000D03*
X177835000Y-116750000D03*
X177835000Y-119750000D03*
X177835000Y-122750000D03*
%TO.C,J13*%
X182250000Y-143312500D03*
X185250000Y-143312500D03*
X188250000Y-143312500D03*
X191250000Y-143312500D03*
D16*
%TO.C,K1*%
X83820000Y-119380000D03*
X94020000Y-119380000D03*
D17*
%TO.C,PS1*%
X119045000Y-76345000D03*
X119045000Y-80155000D03*
X119045000Y-92225000D03*
%TO.C,PS2*%
X119055000Y-107625000D03*
%TO.C,PS1*%
X122855000Y-64285000D03*
%TO.C,PS2*%
X122865000Y-135565000D03*
%TO.C,PS1*%
X126665000Y-64285000D03*
X126665000Y-92225000D03*
%TO.C,PS2*%
X126675000Y-107625000D03*
X126675000Y-135565000D03*
%TO.C,PS1*%
X130475000Y-64285000D03*
%TO.C,PS2*%
X130485000Y-135565000D03*
%TO.C,PS1*%
X134285000Y-92225000D03*
%TO.C,PS2*%
X134295000Y-107625000D03*
X134295000Y-119695000D03*
X134295000Y-123505000D03*
D18*
%TO.C,PS1*%
X119045000Y-64285000D03*
%TO.C,PS2*%
X119055000Y-135565000D03*
%TO.C,PS1*%
X134285000Y-64285000D03*
%TO.C,PS2*%
X134295000Y-135565000D03*
D19*
%TO.C,J1*%
X127650000Y-149830000D03*
X133350000Y-149830000D03*
D20*
%TO.C,K1*%
X80020000Y-134580000D03*
X80020000Y-142180000D03*
X97820000Y-132040000D03*
D21*
%TO.C,H1*%
X86725000Y-50350000D03*
%TO.C,H3*%
X86725000Y-150350000D03*
%TO.C,H2*%
X216725000Y-50350000D03*
%TO.C,H4*%
X216725000Y-150350000D03*
M02*
