%TF.GenerationSoftware,KiCad,Pcbnew,10.0.6*%
%TF.CreationDate,2026-09-17T12:14:31-04:00*%
%TF.ProjectId,System Management Board,53797374-656d-4204-9d61-6e6167656d65,rev?*%
%TF.SameCoordinates,Original*%
%TF.FileFunction,Legend,Bot*%
%TF.FilePolarity,Positive*%
%FSLAX46Y46*%
G04 Gerber Fmt 4.6, Leading zero omitted, Abs format (unit mm)*
G04 Created by KiCad (PCBNEW 10.0.6) date 2026-09-17 12:14:31*
%MOMM*%
%LPD*%
G01*
G04 APERTURE LIST*
%ADD10C,0.150000*%
%ADD11C,0.400000*%
%ADD12C,0.500000*%
%ADD13C,0.625000*%
%ADD14C,0.120000*%
%ADD15C,0.127000*%
%ADD16C,0.200000*%
G04 APERTURE END LIST*
D10*
X209393839Y-74369256D02*
X209250982Y-74416875D01*
X209250982Y-74416875D02*
X209012887Y-74416875D01*
X209012887Y-74416875D02*
X208917649Y-74369256D01*
X208917649Y-74369256D02*
X208870030Y-74321636D01*
X208870030Y-74321636D02*
X208822411Y-74226398D01*
X208822411Y-74226398D02*
X208822411Y-74131160D01*
X208822411Y-74131160D02*
X208870030Y-74035922D01*
X208870030Y-74035922D02*
X208917649Y-73988303D01*
X208917649Y-73988303D02*
X209012887Y-73940684D01*
X209012887Y-73940684D02*
X209203363Y-73893065D01*
X209203363Y-73893065D02*
X209298601Y-73845446D01*
X209298601Y-73845446D02*
X209346220Y-73797827D01*
X209346220Y-73797827D02*
X209393839Y-73702589D01*
X209393839Y-73702589D02*
X209393839Y-73607351D01*
X209393839Y-73607351D02*
X209346220Y-73512113D01*
X209346220Y-73512113D02*
X209298601Y-73464494D01*
X209298601Y-73464494D02*
X209203363Y-73416875D01*
X209203363Y-73416875D02*
X208965268Y-73416875D01*
X208965268Y-73416875D02*
X208822411Y-73464494D01*
X208489077Y-73750208D02*
X208250982Y-74416875D01*
X208012887Y-73750208D02*
X208250982Y-74416875D01*
X208250982Y-74416875D02*
X208346220Y-74654970D01*
X208346220Y-74654970D02*
X208393839Y-74702589D01*
X208393839Y-74702589D02*
X208489077Y-74750208D01*
X207679553Y-74369256D02*
X207584315Y-74416875D01*
X207584315Y-74416875D02*
X207393839Y-74416875D01*
X207393839Y-74416875D02*
X207298601Y-74369256D01*
X207298601Y-74369256D02*
X207250982Y-74274017D01*
X207250982Y-74274017D02*
X207250982Y-74226398D01*
X207250982Y-74226398D02*
X207298601Y-74131160D01*
X207298601Y-74131160D02*
X207393839Y-74083541D01*
X207393839Y-74083541D02*
X207536696Y-74083541D01*
X207536696Y-74083541D02*
X207631934Y-74035922D01*
X207631934Y-74035922D02*
X207679553Y-73940684D01*
X207679553Y-73940684D02*
X207679553Y-73893065D01*
X207679553Y-73893065D02*
X207631934Y-73797827D01*
X207631934Y-73797827D02*
X207536696Y-73750208D01*
X207536696Y-73750208D02*
X207393839Y-73750208D01*
X207393839Y-73750208D02*
X207298601Y-73797827D01*
X206965267Y-73750208D02*
X206584315Y-73750208D01*
X206822410Y-73416875D02*
X206822410Y-74274017D01*
X206822410Y-74274017D02*
X206774791Y-74369256D01*
X206774791Y-74369256D02*
X206679553Y-74416875D01*
X206679553Y-74416875D02*
X206584315Y-74416875D01*
X205870029Y-74369256D02*
X205965267Y-74416875D01*
X205965267Y-74416875D02*
X206155743Y-74416875D01*
X206155743Y-74416875D02*
X206250981Y-74369256D01*
X206250981Y-74369256D02*
X206298600Y-74274017D01*
X206298600Y-74274017D02*
X206298600Y-73893065D01*
X206298600Y-73893065D02*
X206250981Y-73797827D01*
X206250981Y-73797827D02*
X206155743Y-73750208D01*
X206155743Y-73750208D02*
X205965267Y-73750208D01*
X205965267Y-73750208D02*
X205870029Y-73797827D01*
X205870029Y-73797827D02*
X205822410Y-73893065D01*
X205822410Y-73893065D02*
X205822410Y-73988303D01*
X205822410Y-73988303D02*
X206298600Y-74083541D01*
X205393838Y-74416875D02*
X205393838Y-73750208D01*
X205393838Y-73845446D02*
X205346219Y-73797827D01*
X205346219Y-73797827D02*
X205250981Y-73750208D01*
X205250981Y-73750208D02*
X205108124Y-73750208D01*
X205108124Y-73750208D02*
X205012886Y-73797827D01*
X205012886Y-73797827D02*
X204965267Y-73893065D01*
X204965267Y-73893065D02*
X204965267Y-74416875D01*
X204965267Y-73893065D02*
X204917648Y-73797827D01*
X204917648Y-73797827D02*
X204822410Y-73750208D01*
X204822410Y-73750208D02*
X204679553Y-73750208D01*
X204679553Y-73750208D02*
X204584314Y-73797827D01*
X204584314Y-73797827D02*
X204536695Y-73893065D01*
X204536695Y-73893065D02*
X204536695Y-74416875D01*
X203298600Y-74416875D02*
X203298600Y-73416875D01*
X203298600Y-73416875D02*
X202965267Y-74131160D01*
X202965267Y-74131160D02*
X202631934Y-73416875D01*
X202631934Y-73416875D02*
X202631934Y-74416875D01*
X201727172Y-74416875D02*
X201727172Y-73893065D01*
X201727172Y-73893065D02*
X201774791Y-73797827D01*
X201774791Y-73797827D02*
X201870029Y-73750208D01*
X201870029Y-73750208D02*
X202060505Y-73750208D01*
X202060505Y-73750208D02*
X202155743Y-73797827D01*
X201727172Y-74369256D02*
X201822410Y-74416875D01*
X201822410Y-74416875D02*
X202060505Y-74416875D01*
X202060505Y-74416875D02*
X202155743Y-74369256D01*
X202155743Y-74369256D02*
X202203362Y-74274017D01*
X202203362Y-74274017D02*
X202203362Y-74178779D01*
X202203362Y-74178779D02*
X202155743Y-74083541D01*
X202155743Y-74083541D02*
X202060505Y-74035922D01*
X202060505Y-74035922D02*
X201822410Y-74035922D01*
X201822410Y-74035922D02*
X201727172Y-73988303D01*
X201250981Y-73750208D02*
X201250981Y-74416875D01*
X201250981Y-73845446D02*
X201203362Y-73797827D01*
X201203362Y-73797827D02*
X201108124Y-73750208D01*
X201108124Y-73750208D02*
X200965267Y-73750208D01*
X200965267Y-73750208D02*
X200870029Y-73797827D01*
X200870029Y-73797827D02*
X200822410Y-73893065D01*
X200822410Y-73893065D02*
X200822410Y-74416875D01*
X199917648Y-74416875D02*
X199917648Y-73893065D01*
X199917648Y-73893065D02*
X199965267Y-73797827D01*
X199965267Y-73797827D02*
X200060505Y-73750208D01*
X200060505Y-73750208D02*
X200250981Y-73750208D01*
X200250981Y-73750208D02*
X200346219Y-73797827D01*
X199917648Y-74369256D02*
X200012886Y-74416875D01*
X200012886Y-74416875D02*
X200250981Y-74416875D01*
X200250981Y-74416875D02*
X200346219Y-74369256D01*
X200346219Y-74369256D02*
X200393838Y-74274017D01*
X200393838Y-74274017D02*
X200393838Y-74178779D01*
X200393838Y-74178779D02*
X200346219Y-74083541D01*
X200346219Y-74083541D02*
X200250981Y-74035922D01*
X200250981Y-74035922D02*
X200012886Y-74035922D01*
X200012886Y-74035922D02*
X199917648Y-73988303D01*
X199012886Y-73750208D02*
X199012886Y-74559732D01*
X199012886Y-74559732D02*
X199060505Y-74654970D01*
X199060505Y-74654970D02*
X199108124Y-74702589D01*
X199108124Y-74702589D02*
X199203362Y-74750208D01*
X199203362Y-74750208D02*
X199346219Y-74750208D01*
X199346219Y-74750208D02*
X199441457Y-74702589D01*
X199012886Y-74369256D02*
X199108124Y-74416875D01*
X199108124Y-74416875D02*
X199298600Y-74416875D01*
X199298600Y-74416875D02*
X199393838Y-74369256D01*
X199393838Y-74369256D02*
X199441457Y-74321636D01*
X199441457Y-74321636D02*
X199489076Y-74226398D01*
X199489076Y-74226398D02*
X199489076Y-73940684D01*
X199489076Y-73940684D02*
X199441457Y-73845446D01*
X199441457Y-73845446D02*
X199393838Y-73797827D01*
X199393838Y-73797827D02*
X199298600Y-73750208D01*
X199298600Y-73750208D02*
X199108124Y-73750208D01*
X199108124Y-73750208D02*
X199012886Y-73797827D01*
X198155743Y-74369256D02*
X198250981Y-74416875D01*
X198250981Y-74416875D02*
X198441457Y-74416875D01*
X198441457Y-74416875D02*
X198536695Y-74369256D01*
X198536695Y-74369256D02*
X198584314Y-74274017D01*
X198584314Y-74274017D02*
X198584314Y-73893065D01*
X198584314Y-73893065D02*
X198536695Y-73797827D01*
X198536695Y-73797827D02*
X198441457Y-73750208D01*
X198441457Y-73750208D02*
X198250981Y-73750208D01*
X198250981Y-73750208D02*
X198155743Y-73797827D01*
X198155743Y-73797827D02*
X198108124Y-73893065D01*
X198108124Y-73893065D02*
X198108124Y-73988303D01*
X198108124Y-73988303D02*
X198584314Y-74083541D01*
X197679552Y-74416875D02*
X197679552Y-73750208D01*
X197679552Y-73845446D02*
X197631933Y-73797827D01*
X197631933Y-73797827D02*
X197536695Y-73750208D01*
X197536695Y-73750208D02*
X197393838Y-73750208D01*
X197393838Y-73750208D02*
X197298600Y-73797827D01*
X197298600Y-73797827D02*
X197250981Y-73893065D01*
X197250981Y-73893065D02*
X197250981Y-74416875D01*
X197250981Y-73893065D02*
X197203362Y-73797827D01*
X197203362Y-73797827D02*
X197108124Y-73750208D01*
X197108124Y-73750208D02*
X196965267Y-73750208D01*
X196965267Y-73750208D02*
X196870028Y-73797827D01*
X196870028Y-73797827D02*
X196822409Y-73893065D01*
X196822409Y-73893065D02*
X196822409Y-74416875D01*
X195965267Y-74369256D02*
X196060505Y-74416875D01*
X196060505Y-74416875D02*
X196250981Y-74416875D01*
X196250981Y-74416875D02*
X196346219Y-74369256D01*
X196346219Y-74369256D02*
X196393838Y-74274017D01*
X196393838Y-74274017D02*
X196393838Y-73893065D01*
X196393838Y-73893065D02*
X196346219Y-73797827D01*
X196346219Y-73797827D02*
X196250981Y-73750208D01*
X196250981Y-73750208D02*
X196060505Y-73750208D01*
X196060505Y-73750208D02*
X195965267Y-73797827D01*
X195965267Y-73797827D02*
X195917648Y-73893065D01*
X195917648Y-73893065D02*
X195917648Y-73988303D01*
X195917648Y-73988303D02*
X196393838Y-74083541D01*
X195489076Y-73750208D02*
X195489076Y-74416875D01*
X195489076Y-73845446D02*
X195441457Y-73797827D01*
X195441457Y-73797827D02*
X195346219Y-73750208D01*
X195346219Y-73750208D02*
X195203362Y-73750208D01*
X195203362Y-73750208D02*
X195108124Y-73797827D01*
X195108124Y-73797827D02*
X195060505Y-73893065D01*
X195060505Y-73893065D02*
X195060505Y-74416875D01*
X194727171Y-73750208D02*
X194346219Y-73750208D01*
X194584314Y-73416875D02*
X194584314Y-74274017D01*
X194584314Y-74274017D02*
X194536695Y-74369256D01*
X194536695Y-74369256D02*
X194441457Y-74416875D01*
X194441457Y-74416875D02*
X194346219Y-74416875D01*
X192917647Y-73893065D02*
X192774790Y-73940684D01*
X192774790Y-73940684D02*
X192727171Y-73988303D01*
X192727171Y-73988303D02*
X192679552Y-74083541D01*
X192679552Y-74083541D02*
X192679552Y-74226398D01*
X192679552Y-74226398D02*
X192727171Y-74321636D01*
X192727171Y-74321636D02*
X192774790Y-74369256D01*
X192774790Y-74369256D02*
X192870028Y-74416875D01*
X192870028Y-74416875D02*
X193250980Y-74416875D01*
X193250980Y-74416875D02*
X193250980Y-73416875D01*
X193250980Y-73416875D02*
X192917647Y-73416875D01*
X192917647Y-73416875D02*
X192822409Y-73464494D01*
X192822409Y-73464494D02*
X192774790Y-73512113D01*
X192774790Y-73512113D02*
X192727171Y-73607351D01*
X192727171Y-73607351D02*
X192727171Y-73702589D01*
X192727171Y-73702589D02*
X192774790Y-73797827D01*
X192774790Y-73797827D02*
X192822409Y-73845446D01*
X192822409Y-73845446D02*
X192917647Y-73893065D01*
X192917647Y-73893065D02*
X193250980Y-73893065D01*
X192108123Y-74416875D02*
X192203361Y-74369256D01*
X192203361Y-74369256D02*
X192250980Y-74321636D01*
X192250980Y-74321636D02*
X192298599Y-74226398D01*
X192298599Y-74226398D02*
X192298599Y-73940684D01*
X192298599Y-73940684D02*
X192250980Y-73845446D01*
X192250980Y-73845446D02*
X192203361Y-73797827D01*
X192203361Y-73797827D02*
X192108123Y-73750208D01*
X192108123Y-73750208D02*
X191965266Y-73750208D01*
X191965266Y-73750208D02*
X191870028Y-73797827D01*
X191870028Y-73797827D02*
X191822409Y-73845446D01*
X191822409Y-73845446D02*
X191774790Y-73940684D01*
X191774790Y-73940684D02*
X191774790Y-74226398D01*
X191774790Y-74226398D02*
X191822409Y-74321636D01*
X191822409Y-74321636D02*
X191870028Y-74369256D01*
X191870028Y-74369256D02*
X191965266Y-74416875D01*
X191965266Y-74416875D02*
X192108123Y-74416875D01*
X190917647Y-74416875D02*
X190917647Y-73893065D01*
X190917647Y-73893065D02*
X190965266Y-73797827D01*
X190965266Y-73797827D02*
X191060504Y-73750208D01*
X191060504Y-73750208D02*
X191250980Y-73750208D01*
X191250980Y-73750208D02*
X191346218Y-73797827D01*
X190917647Y-74369256D02*
X191012885Y-74416875D01*
X191012885Y-74416875D02*
X191250980Y-74416875D01*
X191250980Y-74416875D02*
X191346218Y-74369256D01*
X191346218Y-74369256D02*
X191393837Y-74274017D01*
X191393837Y-74274017D02*
X191393837Y-74178779D01*
X191393837Y-74178779D02*
X191346218Y-74083541D01*
X191346218Y-74083541D02*
X191250980Y-74035922D01*
X191250980Y-74035922D02*
X191012885Y-74035922D01*
X191012885Y-74035922D02*
X190917647Y-73988303D01*
X190441456Y-74416875D02*
X190441456Y-73750208D01*
X190441456Y-73940684D02*
X190393837Y-73845446D01*
X190393837Y-73845446D02*
X190346218Y-73797827D01*
X190346218Y-73797827D02*
X190250980Y-73750208D01*
X190250980Y-73750208D02*
X190155742Y-73750208D01*
X189393837Y-74416875D02*
X189393837Y-73416875D01*
X189393837Y-74369256D02*
X189489075Y-74416875D01*
X189489075Y-74416875D02*
X189679551Y-74416875D01*
X189679551Y-74416875D02*
X189774789Y-74369256D01*
X189774789Y-74369256D02*
X189822408Y-74321636D01*
X189822408Y-74321636D02*
X189870027Y-74226398D01*
X189870027Y-74226398D02*
X189870027Y-73940684D01*
X189870027Y-73940684D02*
X189822408Y-73845446D01*
X189822408Y-73845446D02*
X189774789Y-73797827D01*
X189774789Y-73797827D02*
X189679551Y-73750208D01*
X189679551Y-73750208D02*
X189489075Y-73750208D01*
X189489075Y-73750208D02*
X189393837Y-73797827D01*
X188298598Y-73416875D02*
X187965265Y-74416875D01*
X187965265Y-74416875D02*
X187631932Y-73416875D01*
X187108122Y-73416875D02*
X187012884Y-73416875D01*
X187012884Y-73416875D02*
X186917646Y-73464494D01*
X186917646Y-73464494D02*
X186870027Y-73512113D01*
X186870027Y-73512113D02*
X186822408Y-73607351D01*
X186822408Y-73607351D02*
X186774789Y-73797827D01*
X186774789Y-73797827D02*
X186774789Y-74035922D01*
X186774789Y-74035922D02*
X186822408Y-74226398D01*
X186822408Y-74226398D02*
X186870027Y-74321636D01*
X186870027Y-74321636D02*
X186917646Y-74369256D01*
X186917646Y-74369256D02*
X187012884Y-74416875D01*
X187012884Y-74416875D02*
X187108122Y-74416875D01*
X187108122Y-74416875D02*
X187203360Y-74369256D01*
X187203360Y-74369256D02*
X187250979Y-74321636D01*
X187250979Y-74321636D02*
X187298598Y-74226398D01*
X187298598Y-74226398D02*
X187346217Y-74035922D01*
X187346217Y-74035922D02*
X187346217Y-73797827D01*
X187346217Y-73797827D02*
X187298598Y-73607351D01*
X187298598Y-73607351D02*
X187250979Y-73512113D01*
X187250979Y-73512113D02*
X187203360Y-73464494D01*
X187203360Y-73464494D02*
X187108122Y-73416875D01*
X186346217Y-74321636D02*
X186298598Y-74369256D01*
X186298598Y-74369256D02*
X186346217Y-74416875D01*
X186346217Y-74416875D02*
X186393836Y-74369256D01*
X186393836Y-74369256D02*
X186346217Y-74321636D01*
X186346217Y-74321636D02*
X186346217Y-74416875D01*
X185441456Y-73750208D02*
X185441456Y-74416875D01*
X185679551Y-73369256D02*
X185917646Y-74083541D01*
X185917646Y-74083541D02*
X185298599Y-74083541D01*
X209298601Y-76026819D02*
X209108125Y-76026819D01*
X209108125Y-76026819D02*
X209012887Y-75979200D01*
X209012887Y-75979200D02*
X208965268Y-75931580D01*
X208965268Y-75931580D02*
X208870030Y-75788723D01*
X208870030Y-75788723D02*
X208822411Y-75598247D01*
X208822411Y-75598247D02*
X208822411Y-75217295D01*
X208822411Y-75217295D02*
X208870030Y-75122057D01*
X208870030Y-75122057D02*
X208917649Y-75074438D01*
X208917649Y-75074438D02*
X209012887Y-75026819D01*
X209012887Y-75026819D02*
X209203363Y-75026819D01*
X209203363Y-75026819D02*
X209298601Y-75074438D01*
X209298601Y-75074438D02*
X209346220Y-75122057D01*
X209346220Y-75122057D02*
X209393839Y-75217295D01*
X209393839Y-75217295D02*
X209393839Y-75455390D01*
X209393839Y-75455390D02*
X209346220Y-75550628D01*
X209346220Y-75550628D02*
X209298601Y-75598247D01*
X209298601Y-75598247D02*
X209203363Y-75645866D01*
X209203363Y-75645866D02*
X209012887Y-75645866D01*
X209012887Y-75645866D02*
X208917649Y-75598247D01*
X208917649Y-75598247D02*
X208870030Y-75550628D01*
X208870030Y-75550628D02*
X208822411Y-75455390D01*
X208393839Y-75645866D02*
X207631935Y-75645866D01*
X206631935Y-76026819D02*
X207203363Y-76026819D01*
X206917649Y-76026819D02*
X206917649Y-75026819D01*
X206917649Y-75026819D02*
X207012887Y-75169676D01*
X207012887Y-75169676D02*
X207108125Y-75264914D01*
X207108125Y-75264914D02*
X207203363Y-75312533D01*
X205727173Y-75026819D02*
X206203363Y-75026819D01*
X206203363Y-75026819D02*
X206250982Y-75503009D01*
X206250982Y-75503009D02*
X206203363Y-75455390D01*
X206203363Y-75455390D02*
X206108125Y-75407771D01*
X206108125Y-75407771D02*
X205870030Y-75407771D01*
X205870030Y-75407771D02*
X205774792Y-75455390D01*
X205774792Y-75455390D02*
X205727173Y-75503009D01*
X205727173Y-75503009D02*
X205679554Y-75598247D01*
X205679554Y-75598247D02*
X205679554Y-75836342D01*
X205679554Y-75836342D02*
X205727173Y-75931580D01*
X205727173Y-75931580D02*
X205774792Y-75979200D01*
X205774792Y-75979200D02*
X205870030Y-76026819D01*
X205870030Y-76026819D02*
X206108125Y-76026819D01*
X206108125Y-76026819D02*
X206203363Y-75979200D01*
X206203363Y-75979200D02*
X206250982Y-75931580D01*
X205250982Y-75645866D02*
X204489078Y-75645866D01*
X204060506Y-75122057D02*
X204012887Y-75074438D01*
X204012887Y-75074438D02*
X203917649Y-75026819D01*
X203917649Y-75026819D02*
X203679554Y-75026819D01*
X203679554Y-75026819D02*
X203584316Y-75074438D01*
X203584316Y-75074438D02*
X203536697Y-75122057D01*
X203536697Y-75122057D02*
X203489078Y-75217295D01*
X203489078Y-75217295D02*
X203489078Y-75312533D01*
X203489078Y-75312533D02*
X203536697Y-75455390D01*
X203536697Y-75455390D02*
X204108125Y-76026819D01*
X204108125Y-76026819D02*
X203489078Y-76026819D01*
X202870030Y-75026819D02*
X202774792Y-75026819D01*
X202774792Y-75026819D02*
X202679554Y-75074438D01*
X202679554Y-75074438D02*
X202631935Y-75122057D01*
X202631935Y-75122057D02*
X202584316Y-75217295D01*
X202584316Y-75217295D02*
X202536697Y-75407771D01*
X202536697Y-75407771D02*
X202536697Y-75645866D01*
X202536697Y-75645866D02*
X202584316Y-75836342D01*
X202584316Y-75836342D02*
X202631935Y-75931580D01*
X202631935Y-75931580D02*
X202679554Y-75979200D01*
X202679554Y-75979200D02*
X202774792Y-76026819D01*
X202774792Y-76026819D02*
X202870030Y-76026819D01*
X202870030Y-76026819D02*
X202965268Y-75979200D01*
X202965268Y-75979200D02*
X203012887Y-75931580D01*
X203012887Y-75931580D02*
X203060506Y-75836342D01*
X203060506Y-75836342D02*
X203108125Y-75645866D01*
X203108125Y-75645866D02*
X203108125Y-75407771D01*
X203108125Y-75407771D02*
X203060506Y-75217295D01*
X203060506Y-75217295D02*
X203012887Y-75122057D01*
X203012887Y-75122057D02*
X202965268Y-75074438D01*
X202965268Y-75074438D02*
X202870030Y-75026819D01*
X202155744Y-75122057D02*
X202108125Y-75074438D01*
X202108125Y-75074438D02*
X202012887Y-75026819D01*
X202012887Y-75026819D02*
X201774792Y-75026819D01*
X201774792Y-75026819D02*
X201679554Y-75074438D01*
X201679554Y-75074438D02*
X201631935Y-75122057D01*
X201631935Y-75122057D02*
X201584316Y-75217295D01*
X201584316Y-75217295D02*
X201584316Y-75312533D01*
X201584316Y-75312533D02*
X201631935Y-75455390D01*
X201631935Y-75455390D02*
X202203363Y-76026819D01*
X202203363Y-76026819D02*
X201584316Y-76026819D01*
X200727173Y-75026819D02*
X200917649Y-75026819D01*
X200917649Y-75026819D02*
X201012887Y-75074438D01*
X201012887Y-75074438D02*
X201060506Y-75122057D01*
X201060506Y-75122057D02*
X201155744Y-75264914D01*
X201155744Y-75264914D02*
X201203363Y-75455390D01*
X201203363Y-75455390D02*
X201203363Y-75836342D01*
X201203363Y-75836342D02*
X201155744Y-75931580D01*
X201155744Y-75931580D02*
X201108125Y-75979200D01*
X201108125Y-75979200D02*
X201012887Y-76026819D01*
X201012887Y-76026819D02*
X200822411Y-76026819D01*
X200822411Y-76026819D02*
X200727173Y-75979200D01*
X200727173Y-75979200D02*
X200679554Y-75931580D01*
X200679554Y-75931580D02*
X200631935Y-75836342D01*
X200631935Y-75836342D02*
X200631935Y-75598247D01*
X200631935Y-75598247D02*
X200679554Y-75503009D01*
X200679554Y-75503009D02*
X200727173Y-75455390D01*
X200727173Y-75455390D02*
X200822411Y-75407771D01*
X200822411Y-75407771D02*
X201012887Y-75407771D01*
X201012887Y-75407771D02*
X201108125Y-75455390D01*
X201108125Y-75455390D02*
X201155744Y-75503009D01*
X201155744Y-75503009D02*
X201203363Y-75598247D01*
X199441458Y-75645866D02*
X198679554Y-75645866D01*
X198203363Y-75645866D02*
X197441459Y-75645866D01*
X196203363Y-76026819D02*
X196203363Y-75026819D01*
X196203363Y-75026819D02*
X195870030Y-75741104D01*
X195870030Y-75741104D02*
X195536697Y-75026819D01*
X195536697Y-75026819D02*
X195536697Y-76026819D01*
X195060506Y-75931580D02*
X195012887Y-75979200D01*
X195012887Y-75979200D02*
X195060506Y-76026819D01*
X195060506Y-76026819D02*
X195108125Y-75979200D01*
X195108125Y-75979200D02*
X195060506Y-75931580D01*
X195060506Y-75931580D02*
X195060506Y-76026819D01*
X193489078Y-75503009D02*
X193822411Y-75503009D01*
X193822411Y-76026819D02*
X193822411Y-75026819D01*
X193822411Y-75026819D02*
X193346221Y-75026819D01*
X192536697Y-75360152D02*
X192536697Y-76026819D01*
X192965268Y-75360152D02*
X192965268Y-75883961D01*
X192965268Y-75883961D02*
X192917649Y-75979200D01*
X192917649Y-75979200D02*
X192822411Y-76026819D01*
X192822411Y-76026819D02*
X192679554Y-76026819D01*
X192679554Y-76026819D02*
X192584316Y-75979200D01*
X192584316Y-75979200D02*
X192536697Y-75931580D01*
X192060506Y-75360152D02*
X192060506Y-76026819D01*
X192060506Y-75455390D02*
X192012887Y-75407771D01*
X192012887Y-75407771D02*
X191917649Y-75360152D01*
X191917649Y-75360152D02*
X191774792Y-75360152D01*
X191774792Y-75360152D02*
X191679554Y-75407771D01*
X191679554Y-75407771D02*
X191631935Y-75503009D01*
X191631935Y-75503009D02*
X191631935Y-76026819D01*
X190727173Y-76026819D02*
X190727173Y-75026819D01*
X190727173Y-75979200D02*
X190822411Y-76026819D01*
X190822411Y-76026819D02*
X191012887Y-76026819D01*
X191012887Y-76026819D02*
X191108125Y-75979200D01*
X191108125Y-75979200D02*
X191155744Y-75931580D01*
X191155744Y-75931580D02*
X191203363Y-75836342D01*
X191203363Y-75836342D02*
X191203363Y-75550628D01*
X191203363Y-75550628D02*
X191155744Y-75455390D01*
X191155744Y-75455390D02*
X191108125Y-75407771D01*
X191108125Y-75407771D02*
X191012887Y-75360152D01*
X191012887Y-75360152D02*
X190822411Y-75360152D01*
X190822411Y-75360152D02*
X190727173Y-75407771D01*
X189870030Y-75979200D02*
X189965268Y-76026819D01*
X189965268Y-76026819D02*
X190155744Y-76026819D01*
X190155744Y-76026819D02*
X190250982Y-75979200D01*
X190250982Y-75979200D02*
X190298601Y-75883961D01*
X190298601Y-75883961D02*
X190298601Y-75503009D01*
X190298601Y-75503009D02*
X190250982Y-75407771D01*
X190250982Y-75407771D02*
X190155744Y-75360152D01*
X190155744Y-75360152D02*
X189965268Y-75360152D01*
X189965268Y-75360152D02*
X189870030Y-75407771D01*
X189870030Y-75407771D02*
X189822411Y-75503009D01*
X189822411Y-75503009D02*
X189822411Y-75598247D01*
X189822411Y-75598247D02*
X190298601Y-75693485D01*
X189393839Y-76026819D02*
X189393839Y-75360152D01*
X189393839Y-75550628D02*
X189346220Y-75455390D01*
X189346220Y-75455390D02*
X189298601Y-75407771D01*
X189298601Y-75407771D02*
X189203363Y-75360152D01*
X189203363Y-75360152D02*
X189108125Y-75360152D01*
X188774791Y-76026819D02*
X188774791Y-75026819D01*
X188774791Y-75407771D02*
X188679553Y-75360152D01*
X188679553Y-75360152D02*
X188489077Y-75360152D01*
X188489077Y-75360152D02*
X188393839Y-75407771D01*
X188393839Y-75407771D02*
X188346220Y-75455390D01*
X188346220Y-75455390D02*
X188298601Y-75550628D01*
X188298601Y-75550628D02*
X188298601Y-75836342D01*
X188298601Y-75836342D02*
X188346220Y-75931580D01*
X188346220Y-75931580D02*
X188393839Y-75979200D01*
X188393839Y-75979200D02*
X188489077Y-76026819D01*
X188489077Y-76026819D02*
X188679553Y-76026819D01*
X188679553Y-76026819D02*
X188774791Y-75979200D01*
X187441458Y-75360152D02*
X187441458Y-76026819D01*
X187870029Y-75360152D02*
X187870029Y-75883961D01*
X187870029Y-75883961D02*
X187822410Y-75979200D01*
X187822410Y-75979200D02*
X187727172Y-76026819D01*
X187727172Y-76026819D02*
X187584315Y-76026819D01*
X187584315Y-76026819D02*
X187489077Y-75979200D01*
X187489077Y-75979200D02*
X187441458Y-75931580D01*
X186965267Y-76026819D02*
X186965267Y-75360152D01*
X186965267Y-75550628D02*
X186917648Y-75455390D01*
X186917648Y-75455390D02*
X186870029Y-75407771D01*
X186870029Y-75407771D02*
X186774791Y-75360152D01*
X186774791Y-75360152D02*
X186679553Y-75360152D01*
X186346219Y-76026819D02*
X186346219Y-75026819D01*
X186250981Y-75645866D02*
X185965267Y-76026819D01*
X185965267Y-75360152D02*
X186346219Y-75741104D01*
X185489076Y-75979200D02*
X185489076Y-76026819D01*
X185489076Y-76026819D02*
X185536695Y-76122057D01*
X185536695Y-76122057D02*
X185584314Y-76169676D01*
X183727172Y-75931580D02*
X183774791Y-75979200D01*
X183774791Y-75979200D02*
X183917648Y-76026819D01*
X183917648Y-76026819D02*
X184012886Y-76026819D01*
X184012886Y-76026819D02*
X184155743Y-75979200D01*
X184155743Y-75979200D02*
X184250981Y-75883961D01*
X184250981Y-75883961D02*
X184298600Y-75788723D01*
X184298600Y-75788723D02*
X184346219Y-75598247D01*
X184346219Y-75598247D02*
X184346219Y-75455390D01*
X184346219Y-75455390D02*
X184298600Y-75264914D01*
X184298600Y-75264914D02*
X184250981Y-75169676D01*
X184250981Y-75169676D02*
X184155743Y-75074438D01*
X184155743Y-75074438D02*
X184012886Y-75026819D01*
X184012886Y-75026819D02*
X183917648Y-75026819D01*
X183917648Y-75026819D02*
X183774791Y-75074438D01*
X183774791Y-75074438D02*
X183727172Y-75122057D01*
X183298600Y-75931580D02*
X183250981Y-75979200D01*
X183250981Y-75979200D02*
X183298600Y-76026819D01*
X183298600Y-76026819D02*
X183346219Y-75979200D01*
X183346219Y-75979200D02*
X183298600Y-75931580D01*
X183298600Y-75931580D02*
X183298600Y-76026819D01*
X182060505Y-76026819D02*
X182060505Y-75026819D01*
X182060505Y-75026819D02*
X181489077Y-76026819D01*
X181489077Y-76026819D02*
X181489077Y-75026819D01*
X181012886Y-76026819D02*
X181012886Y-75360152D01*
X181012886Y-75026819D02*
X181060505Y-75074438D01*
X181060505Y-75074438D02*
X181012886Y-75122057D01*
X181012886Y-75122057D02*
X180965267Y-75074438D01*
X180965267Y-75074438D02*
X181012886Y-75026819D01*
X181012886Y-75026819D02*
X181012886Y-75122057D01*
X180108125Y-75979200D02*
X180203363Y-76026819D01*
X180203363Y-76026819D02*
X180393839Y-76026819D01*
X180393839Y-76026819D02*
X180489077Y-75979200D01*
X180489077Y-75979200D02*
X180536696Y-75931580D01*
X180536696Y-75931580D02*
X180584315Y-75836342D01*
X180584315Y-75836342D02*
X180584315Y-75550628D01*
X180584315Y-75550628D02*
X180536696Y-75455390D01*
X180536696Y-75455390D02*
X180489077Y-75407771D01*
X180489077Y-75407771D02*
X180393839Y-75360152D01*
X180393839Y-75360152D02*
X180203363Y-75360152D01*
X180203363Y-75360152D02*
X180108125Y-75407771D01*
X179679553Y-76026819D02*
X179679553Y-75026819D01*
X179250982Y-76026819D02*
X179250982Y-75503009D01*
X179250982Y-75503009D02*
X179298601Y-75407771D01*
X179298601Y-75407771D02*
X179393839Y-75360152D01*
X179393839Y-75360152D02*
X179536696Y-75360152D01*
X179536696Y-75360152D02*
X179631934Y-75407771D01*
X179631934Y-75407771D02*
X179679553Y-75455390D01*
X178631934Y-76026819D02*
X178727172Y-75979200D01*
X178727172Y-75979200D02*
X178774791Y-75931580D01*
X178774791Y-75931580D02*
X178822410Y-75836342D01*
X178822410Y-75836342D02*
X178822410Y-75550628D01*
X178822410Y-75550628D02*
X178774791Y-75455390D01*
X178774791Y-75455390D02*
X178727172Y-75407771D01*
X178727172Y-75407771D02*
X178631934Y-75360152D01*
X178631934Y-75360152D02*
X178489077Y-75360152D01*
X178489077Y-75360152D02*
X178393839Y-75407771D01*
X178393839Y-75407771D02*
X178346220Y-75455390D01*
X178346220Y-75455390D02*
X178298601Y-75550628D01*
X178298601Y-75550628D02*
X178298601Y-75836342D01*
X178298601Y-75836342D02*
X178346220Y-75931580D01*
X178346220Y-75931580D02*
X178393839Y-75979200D01*
X178393839Y-75979200D02*
X178489077Y-76026819D01*
X178489077Y-76026819D02*
X178631934Y-76026819D01*
X177727172Y-76026819D02*
X177822410Y-75979200D01*
X177822410Y-75979200D02*
X177870029Y-75883961D01*
X177870029Y-75883961D02*
X177870029Y-75026819D01*
X177393838Y-75979200D02*
X177298600Y-76026819D01*
X177298600Y-76026819D02*
X177108124Y-76026819D01*
X177108124Y-76026819D02*
X177012886Y-75979200D01*
X177012886Y-75979200D02*
X176965267Y-75883961D01*
X176965267Y-75883961D02*
X176965267Y-75836342D01*
X176965267Y-75836342D02*
X177012886Y-75741104D01*
X177012886Y-75741104D02*
X177108124Y-75693485D01*
X177108124Y-75693485D02*
X177250981Y-75693485D01*
X177250981Y-75693485D02*
X177346219Y-75645866D01*
X177346219Y-75645866D02*
X177393838Y-75550628D01*
X177393838Y-75550628D02*
X177393838Y-75503009D01*
X177393838Y-75503009D02*
X177346219Y-75407771D01*
X177346219Y-75407771D02*
X177250981Y-75360152D01*
X177250981Y-75360152D02*
X177108124Y-75360152D01*
X177108124Y-75360152D02*
X177012886Y-75407771D01*
X209346220Y-77636763D02*
X209346220Y-76636763D01*
X209346220Y-76636763D02*
X208965268Y-76636763D01*
X208965268Y-76636763D02*
X208870030Y-76684382D01*
X208870030Y-76684382D02*
X208822411Y-76732001D01*
X208822411Y-76732001D02*
X208774792Y-76827239D01*
X208774792Y-76827239D02*
X208774792Y-76970096D01*
X208774792Y-76970096D02*
X208822411Y-77065334D01*
X208822411Y-77065334D02*
X208870030Y-77112953D01*
X208870030Y-77112953D02*
X208965268Y-77160572D01*
X208965268Y-77160572D02*
X209346220Y-77160572D01*
X208346220Y-77636763D02*
X208346220Y-76970096D01*
X208346220Y-77160572D02*
X208298601Y-77065334D01*
X208298601Y-77065334D02*
X208250982Y-77017715D01*
X208250982Y-77017715D02*
X208155744Y-76970096D01*
X208155744Y-76970096D02*
X208060506Y-76970096D01*
X207346220Y-77589144D02*
X207441458Y-77636763D01*
X207441458Y-77636763D02*
X207631934Y-77636763D01*
X207631934Y-77636763D02*
X207727172Y-77589144D01*
X207727172Y-77589144D02*
X207774791Y-77493905D01*
X207774791Y-77493905D02*
X207774791Y-77112953D01*
X207774791Y-77112953D02*
X207727172Y-77017715D01*
X207727172Y-77017715D02*
X207631934Y-76970096D01*
X207631934Y-76970096D02*
X207441458Y-76970096D01*
X207441458Y-76970096D02*
X207346220Y-77017715D01*
X207346220Y-77017715D02*
X207298601Y-77112953D01*
X207298601Y-77112953D02*
X207298601Y-77208191D01*
X207298601Y-77208191D02*
X207774791Y-77303429D01*
X206441458Y-77589144D02*
X206536696Y-77636763D01*
X206536696Y-77636763D02*
X206727172Y-77636763D01*
X206727172Y-77636763D02*
X206822410Y-77589144D01*
X206822410Y-77589144D02*
X206870029Y-77541524D01*
X206870029Y-77541524D02*
X206917648Y-77446286D01*
X206917648Y-77446286D02*
X206917648Y-77160572D01*
X206917648Y-77160572D02*
X206870029Y-77065334D01*
X206870029Y-77065334D02*
X206822410Y-77017715D01*
X206822410Y-77017715D02*
X206727172Y-76970096D01*
X206727172Y-76970096D02*
X206536696Y-76970096D01*
X206536696Y-76970096D02*
X206441458Y-77017715D01*
X206012886Y-77636763D02*
X206012886Y-76970096D01*
X206012886Y-76636763D02*
X206060505Y-76684382D01*
X206060505Y-76684382D02*
X206012886Y-76732001D01*
X206012886Y-76732001D02*
X205965267Y-76684382D01*
X205965267Y-76684382D02*
X206012886Y-76636763D01*
X206012886Y-76636763D02*
X206012886Y-76732001D01*
X205584315Y-77589144D02*
X205489077Y-77636763D01*
X205489077Y-77636763D02*
X205298601Y-77636763D01*
X205298601Y-77636763D02*
X205203363Y-77589144D01*
X205203363Y-77589144D02*
X205155744Y-77493905D01*
X205155744Y-77493905D02*
X205155744Y-77446286D01*
X205155744Y-77446286D02*
X205203363Y-77351048D01*
X205203363Y-77351048D02*
X205298601Y-77303429D01*
X205298601Y-77303429D02*
X205441458Y-77303429D01*
X205441458Y-77303429D02*
X205536696Y-77255810D01*
X205536696Y-77255810D02*
X205584315Y-77160572D01*
X205584315Y-77160572D02*
X205584315Y-77112953D01*
X205584315Y-77112953D02*
X205536696Y-77017715D01*
X205536696Y-77017715D02*
X205441458Y-76970096D01*
X205441458Y-76970096D02*
X205298601Y-76970096D01*
X205298601Y-76970096D02*
X205203363Y-77017715D01*
X204727172Y-77636763D02*
X204727172Y-76970096D01*
X204727172Y-76636763D02*
X204774791Y-76684382D01*
X204774791Y-76684382D02*
X204727172Y-76732001D01*
X204727172Y-76732001D02*
X204679553Y-76684382D01*
X204679553Y-76684382D02*
X204727172Y-76636763D01*
X204727172Y-76636763D02*
X204727172Y-76732001D01*
X204108125Y-77636763D02*
X204203363Y-77589144D01*
X204203363Y-77589144D02*
X204250982Y-77541524D01*
X204250982Y-77541524D02*
X204298601Y-77446286D01*
X204298601Y-77446286D02*
X204298601Y-77160572D01*
X204298601Y-77160572D02*
X204250982Y-77065334D01*
X204250982Y-77065334D02*
X204203363Y-77017715D01*
X204203363Y-77017715D02*
X204108125Y-76970096D01*
X204108125Y-76970096D02*
X203965268Y-76970096D01*
X203965268Y-76970096D02*
X203870030Y-77017715D01*
X203870030Y-77017715D02*
X203822411Y-77065334D01*
X203822411Y-77065334D02*
X203774792Y-77160572D01*
X203774792Y-77160572D02*
X203774792Y-77446286D01*
X203774792Y-77446286D02*
X203822411Y-77541524D01*
X203822411Y-77541524D02*
X203870030Y-77589144D01*
X203870030Y-77589144D02*
X203965268Y-77636763D01*
X203965268Y-77636763D02*
X204108125Y-77636763D01*
X203346220Y-76970096D02*
X203346220Y-77636763D01*
X203346220Y-77065334D02*
X203298601Y-77017715D01*
X203298601Y-77017715D02*
X203203363Y-76970096D01*
X203203363Y-76970096D02*
X203060506Y-76970096D01*
X203060506Y-76970096D02*
X202965268Y-77017715D01*
X202965268Y-77017715D02*
X202917649Y-77112953D01*
X202917649Y-77112953D02*
X202917649Y-77636763D01*
X201727172Y-77589144D02*
X201584315Y-77636763D01*
X201584315Y-77636763D02*
X201346220Y-77636763D01*
X201346220Y-77636763D02*
X201250982Y-77589144D01*
X201250982Y-77589144D02*
X201203363Y-77541524D01*
X201203363Y-77541524D02*
X201155744Y-77446286D01*
X201155744Y-77446286D02*
X201155744Y-77351048D01*
X201155744Y-77351048D02*
X201203363Y-77255810D01*
X201203363Y-77255810D02*
X201250982Y-77208191D01*
X201250982Y-77208191D02*
X201346220Y-77160572D01*
X201346220Y-77160572D02*
X201536696Y-77112953D01*
X201536696Y-77112953D02*
X201631934Y-77065334D01*
X201631934Y-77065334D02*
X201679553Y-77017715D01*
X201679553Y-77017715D02*
X201727172Y-76922477D01*
X201727172Y-76922477D02*
X201727172Y-76827239D01*
X201727172Y-76827239D02*
X201679553Y-76732001D01*
X201679553Y-76732001D02*
X201631934Y-76684382D01*
X201631934Y-76684382D02*
X201536696Y-76636763D01*
X201536696Y-76636763D02*
X201298601Y-76636763D01*
X201298601Y-76636763D02*
X201155744Y-76684382D01*
X200298601Y-76970096D02*
X200298601Y-77636763D01*
X200727172Y-76970096D02*
X200727172Y-77493905D01*
X200727172Y-77493905D02*
X200679553Y-77589144D01*
X200679553Y-77589144D02*
X200584315Y-77636763D01*
X200584315Y-77636763D02*
X200441458Y-77636763D01*
X200441458Y-77636763D02*
X200346220Y-77589144D01*
X200346220Y-77589144D02*
X200298601Y-77541524D01*
X199870029Y-77589144D02*
X199774791Y-77636763D01*
X199774791Y-77636763D02*
X199584315Y-77636763D01*
X199584315Y-77636763D02*
X199489077Y-77589144D01*
X199489077Y-77589144D02*
X199441458Y-77493905D01*
X199441458Y-77493905D02*
X199441458Y-77446286D01*
X199441458Y-77446286D02*
X199489077Y-77351048D01*
X199489077Y-77351048D02*
X199584315Y-77303429D01*
X199584315Y-77303429D02*
X199727172Y-77303429D01*
X199727172Y-77303429D02*
X199822410Y-77255810D01*
X199822410Y-77255810D02*
X199870029Y-77160572D01*
X199870029Y-77160572D02*
X199870029Y-77112953D01*
X199870029Y-77112953D02*
X199822410Y-77017715D01*
X199822410Y-77017715D02*
X199727172Y-76970096D01*
X199727172Y-76970096D02*
X199584315Y-76970096D01*
X199584315Y-76970096D02*
X199489077Y-77017715D01*
X199155743Y-76970096D02*
X198774791Y-76970096D01*
X199012886Y-76636763D02*
X199012886Y-77493905D01*
X199012886Y-77493905D02*
X198965267Y-77589144D01*
X198965267Y-77589144D02*
X198870029Y-77636763D01*
X198870029Y-77636763D02*
X198774791Y-77636763D01*
X198012886Y-77636763D02*
X198012886Y-77112953D01*
X198012886Y-77112953D02*
X198060505Y-77017715D01*
X198060505Y-77017715D02*
X198155743Y-76970096D01*
X198155743Y-76970096D02*
X198346219Y-76970096D01*
X198346219Y-76970096D02*
X198441457Y-77017715D01*
X198012886Y-77589144D02*
X198108124Y-77636763D01*
X198108124Y-77636763D02*
X198346219Y-77636763D01*
X198346219Y-77636763D02*
X198441457Y-77589144D01*
X198441457Y-77589144D02*
X198489076Y-77493905D01*
X198489076Y-77493905D02*
X198489076Y-77398667D01*
X198489076Y-77398667D02*
X198441457Y-77303429D01*
X198441457Y-77303429D02*
X198346219Y-77255810D01*
X198346219Y-77255810D02*
X198108124Y-77255810D01*
X198108124Y-77255810D02*
X198012886Y-77208191D01*
X197536695Y-77636763D02*
X197536695Y-76970096D01*
X197536695Y-76636763D02*
X197584314Y-76684382D01*
X197584314Y-76684382D02*
X197536695Y-76732001D01*
X197536695Y-76732001D02*
X197489076Y-76684382D01*
X197489076Y-76684382D02*
X197536695Y-76636763D01*
X197536695Y-76636763D02*
X197536695Y-76732001D01*
X197060505Y-76970096D02*
X197060505Y-77636763D01*
X197060505Y-77065334D02*
X197012886Y-77017715D01*
X197012886Y-77017715D02*
X196917648Y-76970096D01*
X196917648Y-76970096D02*
X196774791Y-76970096D01*
X196774791Y-76970096D02*
X196679553Y-77017715D01*
X196679553Y-77017715D02*
X196631934Y-77112953D01*
X196631934Y-77112953D02*
X196631934Y-77636763D01*
X195727172Y-77636763D02*
X195727172Y-77112953D01*
X195727172Y-77112953D02*
X195774791Y-77017715D01*
X195774791Y-77017715D02*
X195870029Y-76970096D01*
X195870029Y-76970096D02*
X196060505Y-76970096D01*
X196060505Y-76970096D02*
X196155743Y-77017715D01*
X195727172Y-77589144D02*
X195822410Y-77636763D01*
X195822410Y-77636763D02*
X196060505Y-77636763D01*
X196060505Y-77636763D02*
X196155743Y-77589144D01*
X196155743Y-77589144D02*
X196203362Y-77493905D01*
X196203362Y-77493905D02*
X196203362Y-77398667D01*
X196203362Y-77398667D02*
X196155743Y-77303429D01*
X196155743Y-77303429D02*
X196060505Y-77255810D01*
X196060505Y-77255810D02*
X195822410Y-77255810D01*
X195822410Y-77255810D02*
X195727172Y-77208191D01*
X195250981Y-77636763D02*
X195250981Y-76636763D01*
X195250981Y-77017715D02*
X195155743Y-76970096D01*
X195155743Y-76970096D02*
X194965267Y-76970096D01*
X194965267Y-76970096D02*
X194870029Y-77017715D01*
X194870029Y-77017715D02*
X194822410Y-77065334D01*
X194822410Y-77065334D02*
X194774791Y-77160572D01*
X194774791Y-77160572D02*
X194774791Y-77446286D01*
X194774791Y-77446286D02*
X194822410Y-77541524D01*
X194822410Y-77541524D02*
X194870029Y-77589144D01*
X194870029Y-77589144D02*
X194965267Y-77636763D01*
X194965267Y-77636763D02*
X195155743Y-77636763D01*
X195155743Y-77636763D02*
X195250981Y-77589144D01*
X194203362Y-77636763D02*
X194298600Y-77589144D01*
X194298600Y-77589144D02*
X194346219Y-77493905D01*
X194346219Y-77493905D02*
X194346219Y-76636763D01*
X193441457Y-77589144D02*
X193536695Y-77636763D01*
X193536695Y-77636763D02*
X193727171Y-77636763D01*
X193727171Y-77636763D02*
X193822409Y-77589144D01*
X193822409Y-77589144D02*
X193870028Y-77493905D01*
X193870028Y-77493905D02*
X193870028Y-77112953D01*
X193870028Y-77112953D02*
X193822409Y-77017715D01*
X193822409Y-77017715D02*
X193727171Y-76970096D01*
X193727171Y-76970096D02*
X193536695Y-76970096D01*
X193536695Y-76970096D02*
X193441457Y-77017715D01*
X193441457Y-77017715D02*
X193393838Y-77112953D01*
X193393838Y-77112953D02*
X193393838Y-77208191D01*
X193393838Y-77208191D02*
X193870028Y-77303429D01*
X192250980Y-77351048D02*
X191774790Y-77351048D01*
X192346218Y-77636763D02*
X192012885Y-76636763D01*
X192012885Y-76636763D02*
X191679552Y-77636763D01*
X190917647Y-76970096D02*
X190917647Y-77779620D01*
X190917647Y-77779620D02*
X190965266Y-77874858D01*
X190965266Y-77874858D02*
X191012885Y-77922477D01*
X191012885Y-77922477D02*
X191108123Y-77970096D01*
X191108123Y-77970096D02*
X191250980Y-77970096D01*
X191250980Y-77970096D02*
X191346218Y-77922477D01*
X190917647Y-77589144D02*
X191012885Y-77636763D01*
X191012885Y-77636763D02*
X191203361Y-77636763D01*
X191203361Y-77636763D02*
X191298599Y-77589144D01*
X191298599Y-77589144D02*
X191346218Y-77541524D01*
X191346218Y-77541524D02*
X191393837Y-77446286D01*
X191393837Y-77446286D02*
X191393837Y-77160572D01*
X191393837Y-77160572D02*
X191346218Y-77065334D01*
X191346218Y-77065334D02*
X191298599Y-77017715D01*
X191298599Y-77017715D02*
X191203361Y-76970096D01*
X191203361Y-76970096D02*
X191012885Y-76970096D01*
X191012885Y-76970096D02*
X190917647Y-77017715D01*
X190441456Y-77636763D02*
X190441456Y-76970096D01*
X190441456Y-77160572D02*
X190393837Y-77065334D01*
X190393837Y-77065334D02*
X190346218Y-77017715D01*
X190346218Y-77017715D02*
X190250980Y-76970096D01*
X190250980Y-76970096D02*
X190155742Y-76970096D01*
X189822408Y-77636763D02*
X189822408Y-76970096D01*
X189822408Y-76636763D02*
X189870027Y-76684382D01*
X189870027Y-76684382D02*
X189822408Y-76732001D01*
X189822408Y-76732001D02*
X189774789Y-76684382D01*
X189774789Y-76684382D02*
X189822408Y-76636763D01*
X189822408Y-76636763D02*
X189822408Y-76732001D01*
X188917647Y-77589144D02*
X189012885Y-77636763D01*
X189012885Y-77636763D02*
X189203361Y-77636763D01*
X189203361Y-77636763D02*
X189298599Y-77589144D01*
X189298599Y-77589144D02*
X189346218Y-77541524D01*
X189346218Y-77541524D02*
X189393837Y-77446286D01*
X189393837Y-77446286D02*
X189393837Y-77160572D01*
X189393837Y-77160572D02*
X189346218Y-77065334D01*
X189346218Y-77065334D02*
X189298599Y-77017715D01*
X189298599Y-77017715D02*
X189203361Y-76970096D01*
X189203361Y-76970096D02*
X189012885Y-76970096D01*
X189012885Y-76970096D02*
X188917647Y-77017715D01*
X188060504Y-76970096D02*
X188060504Y-77636763D01*
X188489075Y-76970096D02*
X188489075Y-77493905D01*
X188489075Y-77493905D02*
X188441456Y-77589144D01*
X188441456Y-77589144D02*
X188346218Y-77636763D01*
X188346218Y-77636763D02*
X188203361Y-77636763D01*
X188203361Y-77636763D02*
X188108123Y-77589144D01*
X188108123Y-77589144D02*
X188060504Y-77541524D01*
X187441456Y-77636763D02*
X187536694Y-77589144D01*
X187536694Y-77589144D02*
X187584313Y-77493905D01*
X187584313Y-77493905D02*
X187584313Y-76636763D01*
X187203360Y-76970096D02*
X186822408Y-76970096D01*
X187060503Y-76636763D02*
X187060503Y-77493905D01*
X187060503Y-77493905D02*
X187012884Y-77589144D01*
X187012884Y-77589144D02*
X186917646Y-77636763D01*
X186917646Y-77636763D02*
X186822408Y-77636763D01*
X186060503Y-76970096D02*
X186060503Y-77636763D01*
X186489074Y-76970096D02*
X186489074Y-77493905D01*
X186489074Y-77493905D02*
X186441455Y-77589144D01*
X186441455Y-77589144D02*
X186346217Y-77636763D01*
X186346217Y-77636763D02*
X186203360Y-77636763D01*
X186203360Y-77636763D02*
X186108122Y-77589144D01*
X186108122Y-77589144D02*
X186060503Y-77541524D01*
X185584312Y-77636763D02*
X185584312Y-76970096D01*
X185584312Y-77160572D02*
X185536693Y-77065334D01*
X185536693Y-77065334D02*
X185489074Y-77017715D01*
X185489074Y-77017715D02*
X185393836Y-76970096D01*
X185393836Y-76970096D02*
X185298598Y-76970096D01*
X184584312Y-77589144D02*
X184679550Y-77636763D01*
X184679550Y-77636763D02*
X184870026Y-77636763D01*
X184870026Y-77636763D02*
X184965264Y-77589144D01*
X184965264Y-77589144D02*
X185012883Y-77493905D01*
X185012883Y-77493905D02*
X185012883Y-77112953D01*
X185012883Y-77112953D02*
X184965264Y-77017715D01*
X184965264Y-77017715D02*
X184870026Y-76970096D01*
X184870026Y-76970096D02*
X184679550Y-76970096D01*
X184679550Y-76970096D02*
X184584312Y-77017715D01*
X184584312Y-77017715D02*
X184536693Y-77112953D01*
X184536693Y-77112953D02*
X184536693Y-77208191D01*
X184536693Y-77208191D02*
X185012883Y-77303429D01*
D11*
X204593985Y-70612057D02*
X204879700Y-70469200D01*
X204879700Y-70469200D02*
X205022557Y-70183485D01*
X205022557Y-70183485D02*
X205022557Y-67612057D01*
X202165414Y-70612057D02*
X202165414Y-69040628D01*
X202165414Y-69040628D02*
X202308271Y-68754914D01*
X202308271Y-68754914D02*
X202593985Y-68612057D01*
X202593985Y-68612057D02*
X203165414Y-68612057D01*
X203165414Y-68612057D02*
X203451128Y-68754914D01*
X202165414Y-70469200D02*
X202451128Y-70612057D01*
X202451128Y-70612057D02*
X203165414Y-70612057D01*
X203165414Y-70612057D02*
X203451128Y-70469200D01*
X203451128Y-70469200D02*
X203593985Y-70183485D01*
X203593985Y-70183485D02*
X203593985Y-69897771D01*
X203593985Y-69897771D02*
X203451128Y-69612057D01*
X203451128Y-69612057D02*
X203165414Y-69469200D01*
X203165414Y-69469200D02*
X202451128Y-69469200D01*
X202451128Y-69469200D02*
X202165414Y-69326342D01*
X200736842Y-68612057D02*
X200736842Y-70612057D01*
X200736842Y-68897771D02*
X200593985Y-68754914D01*
X200593985Y-68754914D02*
X200308270Y-68612057D01*
X200308270Y-68612057D02*
X199879699Y-68612057D01*
X199879699Y-68612057D02*
X199593985Y-68754914D01*
X199593985Y-68754914D02*
X199451128Y-69040628D01*
X199451128Y-69040628D02*
X199451128Y-70612057D01*
X198451127Y-68612057D02*
X197308270Y-68612057D01*
X198022556Y-67612057D02*
X198022556Y-70183485D01*
X198022556Y-70183485D02*
X197879699Y-70469200D01*
X197879699Y-70469200D02*
X197593984Y-70612057D01*
X197593984Y-70612057D02*
X197308270Y-70612057D01*
X196308270Y-70612057D02*
X196308270Y-67612057D01*
X196308270Y-67612057D02*
X195308270Y-69754914D01*
X195308270Y-69754914D02*
X194308270Y-67612057D01*
X194308270Y-67612057D02*
X194308270Y-70612057D01*
X191593985Y-70612057D02*
X191593985Y-69040628D01*
X191593985Y-69040628D02*
X191736842Y-68754914D01*
X191736842Y-68754914D02*
X192022556Y-68612057D01*
X192022556Y-68612057D02*
X192593985Y-68612057D01*
X192593985Y-68612057D02*
X192879699Y-68754914D01*
X191593985Y-70469200D02*
X191879699Y-70612057D01*
X191879699Y-70612057D02*
X192593985Y-70612057D01*
X192593985Y-70612057D02*
X192879699Y-70469200D01*
X192879699Y-70469200D02*
X193022556Y-70183485D01*
X193022556Y-70183485D02*
X193022556Y-69897771D01*
X193022556Y-69897771D02*
X192879699Y-69612057D01*
X192879699Y-69612057D02*
X192593985Y-69469200D01*
X192593985Y-69469200D02*
X191879699Y-69469200D01*
X191879699Y-69469200D02*
X191593985Y-69326342D01*
X190165413Y-68612057D02*
X190165413Y-71612057D01*
X190165413Y-68754914D02*
X189879699Y-68612057D01*
X189879699Y-68612057D02*
X189308270Y-68612057D01*
X189308270Y-68612057D02*
X189022556Y-68754914D01*
X189022556Y-68754914D02*
X188879699Y-68897771D01*
X188879699Y-68897771D02*
X188736841Y-69183485D01*
X188736841Y-69183485D02*
X188736841Y-70040628D01*
X188736841Y-70040628D02*
X188879699Y-70326342D01*
X188879699Y-70326342D02*
X189022556Y-70469200D01*
X189022556Y-70469200D02*
X189308270Y-70612057D01*
X189308270Y-70612057D02*
X189879699Y-70612057D01*
X189879699Y-70612057D02*
X190165413Y-70469200D01*
D12*
X208798576Y-72122095D02*
X208798576Y-67122095D01*
X208798576Y-67122095D02*
X206893814Y-67122095D01*
X206893814Y-67122095D02*
X206417624Y-67360190D01*
X206417624Y-67360190D02*
X206179529Y-67598285D01*
X206179529Y-67598285D02*
X205941433Y-68074476D01*
X205941433Y-68074476D02*
X205941433Y-68788761D01*
X205941433Y-68788761D02*
X206179529Y-69264952D01*
X206179529Y-69264952D02*
X206417624Y-69503047D01*
X206417624Y-69503047D02*
X206893814Y-69741142D01*
X206893814Y-69741142D02*
X208798576Y-69741142D01*
D13*
X188745530Y-67271845D02*
X185650292Y-67271845D01*
X185650292Y-67271845D02*
X187316958Y-69176607D01*
X187316958Y-69176607D02*
X186602673Y-69176607D01*
X186602673Y-69176607D02*
X186126482Y-69414702D01*
X186126482Y-69414702D02*
X185888387Y-69652797D01*
X185888387Y-69652797D02*
X185650292Y-70128988D01*
X185650292Y-70128988D02*
X185650292Y-71319464D01*
X185650292Y-71319464D02*
X185888387Y-71795654D01*
X185888387Y-71795654D02*
X186126482Y-72033750D01*
X186126482Y-72033750D02*
X186602673Y-72271845D01*
X186602673Y-72271845D02*
X188031244Y-72271845D01*
X188031244Y-72271845D02*
X188507435Y-72033750D01*
X188507435Y-72033750D02*
X188745530Y-71795654D01*
X183507434Y-72271845D02*
X183507434Y-67271845D01*
X183507434Y-67271845D02*
X182316958Y-67271845D01*
X182316958Y-67271845D02*
X181602672Y-67509940D01*
X181602672Y-67509940D02*
X181126482Y-67986130D01*
X181126482Y-67986130D02*
X180888387Y-68462321D01*
X180888387Y-68462321D02*
X180650291Y-69414702D01*
X180650291Y-69414702D02*
X180650291Y-70128988D01*
X180650291Y-70128988D02*
X180888387Y-71081369D01*
X180888387Y-71081369D02*
X181126482Y-71557559D01*
X181126482Y-71557559D02*
X181602672Y-72033750D01*
X181602672Y-72033750D02*
X182316958Y-72271845D01*
X182316958Y-72271845D02*
X183507434Y-72271845D01*
D10*
X166691333Y-73219819D02*
X166691333Y-73934104D01*
X166691333Y-73934104D02*
X166738952Y-74076961D01*
X166738952Y-74076961D02*
X166834190Y-74172200D01*
X166834190Y-74172200D02*
X166977047Y-74219819D01*
X166977047Y-74219819D02*
X167072285Y-74219819D01*
X166215142Y-74219819D02*
X166215142Y-73219819D01*
X166215142Y-73219819D02*
X165834190Y-73219819D01*
X165834190Y-73219819D02*
X165738952Y-73267438D01*
X165738952Y-73267438D02*
X165691333Y-73315057D01*
X165691333Y-73315057D02*
X165643714Y-73410295D01*
X165643714Y-73410295D02*
X165643714Y-73553152D01*
X165643714Y-73553152D02*
X165691333Y-73648390D01*
X165691333Y-73648390D02*
X165738952Y-73696009D01*
X165738952Y-73696009D02*
X165834190Y-73743628D01*
X165834190Y-73743628D02*
X166215142Y-73743628D01*
X165310380Y-73219819D02*
X164691333Y-73219819D01*
X164691333Y-73219819D02*
X165024666Y-73600771D01*
X165024666Y-73600771D02*
X164881809Y-73600771D01*
X164881809Y-73600771D02*
X164786571Y-73648390D01*
X164786571Y-73648390D02*
X164738952Y-73696009D01*
X164738952Y-73696009D02*
X164691333Y-73791247D01*
X164691333Y-73791247D02*
X164691333Y-74029342D01*
X164691333Y-74029342D02*
X164738952Y-74124580D01*
X164738952Y-74124580D02*
X164786571Y-74172200D01*
X164786571Y-74172200D02*
X164881809Y-74219819D01*
X164881809Y-74219819D02*
X165167523Y-74219819D01*
X165167523Y-74219819D02*
X165262761Y-74172200D01*
X165262761Y-74172200D02*
X165310380Y-74124580D01*
X166691333Y-75529819D02*
X166691333Y-76244104D01*
X166691333Y-76244104D02*
X166738952Y-76386961D01*
X166738952Y-76386961D02*
X166834190Y-76482200D01*
X166834190Y-76482200D02*
X166977047Y-76529819D01*
X166977047Y-76529819D02*
X167072285Y-76529819D01*
X166215142Y-76529819D02*
X166215142Y-75529819D01*
X166215142Y-75529819D02*
X165834190Y-75529819D01*
X165834190Y-75529819D02*
X165738952Y-75577438D01*
X165738952Y-75577438D02*
X165691333Y-75625057D01*
X165691333Y-75625057D02*
X165643714Y-75720295D01*
X165643714Y-75720295D02*
X165643714Y-75863152D01*
X165643714Y-75863152D02*
X165691333Y-75958390D01*
X165691333Y-75958390D02*
X165738952Y-76006009D01*
X165738952Y-76006009D02*
X165834190Y-76053628D01*
X165834190Y-76053628D02*
X166215142Y-76053628D01*
X164786571Y-75863152D02*
X164786571Y-76529819D01*
X165024666Y-75482200D02*
X165262761Y-76196485D01*
X165262761Y-76196485D02*
X164643714Y-76196485D01*
X107199999Y-94389866D02*
X107199999Y-92989866D01*
X107199999Y-92989866D02*
X106666666Y-92989866D01*
X106666666Y-92989866D02*
X106533333Y-93056533D01*
X106533333Y-93056533D02*
X106466666Y-93123200D01*
X106466666Y-93123200D02*
X106399999Y-93256533D01*
X106399999Y-93256533D02*
X106399999Y-93456533D01*
X106399999Y-93456533D02*
X106466666Y-93589866D01*
X106466666Y-93589866D02*
X106533333Y-93656533D01*
X106533333Y-93656533D02*
X106666666Y-93723200D01*
X106666666Y-93723200D02*
X107199999Y-93723200D01*
X105866666Y-94323200D02*
X105666666Y-94389866D01*
X105666666Y-94389866D02*
X105333333Y-94389866D01*
X105333333Y-94389866D02*
X105199999Y-94323200D01*
X105199999Y-94323200D02*
X105133333Y-94256533D01*
X105133333Y-94256533D02*
X105066666Y-94123200D01*
X105066666Y-94123200D02*
X105066666Y-93989866D01*
X105066666Y-93989866D02*
X105133333Y-93856533D01*
X105133333Y-93856533D02*
X105199999Y-93789866D01*
X105199999Y-93789866D02*
X105333333Y-93723200D01*
X105333333Y-93723200D02*
X105599999Y-93656533D01*
X105599999Y-93656533D02*
X105733333Y-93589866D01*
X105733333Y-93589866D02*
X105799999Y-93523200D01*
X105799999Y-93523200D02*
X105866666Y-93389866D01*
X105866666Y-93389866D02*
X105866666Y-93256533D01*
X105866666Y-93256533D02*
X105799999Y-93123200D01*
X105799999Y-93123200D02*
X105733333Y-93056533D01*
X105733333Y-93056533D02*
X105599999Y-92989866D01*
X105599999Y-92989866D02*
X105266666Y-92989866D01*
X105266666Y-92989866D02*
X105066666Y-93056533D01*
X103733333Y-94389866D02*
X104533333Y-94389866D01*
X104133333Y-94389866D02*
X104133333Y-92989866D01*
X104133333Y-92989866D02*
X104266666Y-93189866D01*
X104266666Y-93189866D02*
X104400000Y-93323200D01*
X104400000Y-93323200D02*
X104533333Y-93389866D01*
X107199999Y-106389866D02*
X107199999Y-104989866D01*
X107199999Y-104989866D02*
X106666666Y-104989866D01*
X106666666Y-104989866D02*
X106533333Y-105056533D01*
X106533333Y-105056533D02*
X106466666Y-105123200D01*
X106466666Y-105123200D02*
X106399999Y-105256533D01*
X106399999Y-105256533D02*
X106399999Y-105456533D01*
X106399999Y-105456533D02*
X106466666Y-105589866D01*
X106466666Y-105589866D02*
X106533333Y-105656533D01*
X106533333Y-105656533D02*
X106666666Y-105723200D01*
X106666666Y-105723200D02*
X107199999Y-105723200D01*
X105866666Y-106323200D02*
X105666666Y-106389866D01*
X105666666Y-106389866D02*
X105333333Y-106389866D01*
X105333333Y-106389866D02*
X105199999Y-106323200D01*
X105199999Y-106323200D02*
X105133333Y-106256533D01*
X105133333Y-106256533D02*
X105066666Y-106123200D01*
X105066666Y-106123200D02*
X105066666Y-105989866D01*
X105066666Y-105989866D02*
X105133333Y-105856533D01*
X105133333Y-105856533D02*
X105199999Y-105789866D01*
X105199999Y-105789866D02*
X105333333Y-105723200D01*
X105333333Y-105723200D02*
X105599999Y-105656533D01*
X105599999Y-105656533D02*
X105733333Y-105589866D01*
X105733333Y-105589866D02*
X105799999Y-105523200D01*
X105799999Y-105523200D02*
X105866666Y-105389866D01*
X105866666Y-105389866D02*
X105866666Y-105256533D01*
X105866666Y-105256533D02*
X105799999Y-105123200D01*
X105799999Y-105123200D02*
X105733333Y-105056533D01*
X105733333Y-105056533D02*
X105599999Y-104989866D01*
X105599999Y-104989866D02*
X105266666Y-104989866D01*
X105266666Y-104989866D02*
X105066666Y-105056533D01*
X104533333Y-105123200D02*
X104466666Y-105056533D01*
X104466666Y-105056533D02*
X104333333Y-104989866D01*
X104333333Y-104989866D02*
X104000000Y-104989866D01*
X104000000Y-104989866D02*
X103866666Y-105056533D01*
X103866666Y-105056533D02*
X103800000Y-105123200D01*
X103800000Y-105123200D02*
X103733333Y-105256533D01*
X103733333Y-105256533D02*
X103733333Y-105389866D01*
X103733333Y-105389866D02*
X103800000Y-105589866D01*
X103800000Y-105589866D02*
X104600000Y-106389866D01*
X104600000Y-106389866D02*
X103733333Y-106389866D01*
%TO.C,JP3*%
D14*
X164210000Y-72533000D02*
X161410000Y-72533000D01*
X164210000Y-74533000D02*
X164210000Y-72533000D01*
X161410000Y-72533000D02*
X161410000Y-74533000D01*
X161410000Y-74533000D02*
X164210000Y-74533000D01*
%TO.C,JP4*%
X164210000Y-75097000D02*
X161410000Y-75097000D01*
X164210000Y-77097000D02*
X164210000Y-75097000D01*
X161410000Y-75097000D02*
X161410000Y-77097000D01*
X161410000Y-77097000D02*
X164210000Y-77097000D01*
%TO.C,PS1*%
D15*
X108255000Y-60685000D02*
X145085000Y-60685000D01*
X108255000Y-94725000D02*
X108255000Y-60685000D01*
X145085000Y-60685000D02*
X145085000Y-94725000D01*
X145085000Y-94725000D02*
X108255000Y-94725000D01*
D16*
X134385000Y-96035000D02*
G75*
G02*
X134185000Y-96035000I-100000J0D01*
G01*
X134185000Y-96035000D02*
G75*
G02*
X134385000Y-96035000I100000J0D01*
G01*
%TO.C,PS2*%
D15*
X108255000Y-105125000D02*
X145085000Y-105125000D01*
X108255000Y-139165000D02*
X108255000Y-105125000D01*
X145085000Y-105125000D02*
X145085000Y-139165000D01*
X145085000Y-139165000D02*
X108255000Y-139165000D01*
D16*
X119155000Y-103815000D02*
G75*
G02*
X118955000Y-103815000I-100000J0D01*
G01*
X118955000Y-103815000D02*
G75*
G02*
X119155000Y-103815000I100000J0D01*
G01*
%TD*%
M02*
