%TF.GenerationSoftware,KiCad,Pcbnew,10.0.6*%
%TF.CreationDate,2026-09-17T12:14:54-04:00*%
%TF.ProjectId,System Management Board,53797374-656d-4204-9d61-6e6167656d65,rev?*%
%TF.SameCoordinates,Original*%
%TF.FileFunction,Drillmap*%
%TF.FilePolarity,Positive*%
%FSLAX45Y45*%
G04 Gerber Fmt 4.5, Leading zero omitted, Abs format (unit mm)*
G04 Created by KiCad (PCBNEW 10.0.6) date 2026-09-17 12:14:54*
%MOMM*%
%LPD*%
G01*
G04 APERTURE LIST*
%ADD10C,0.250000*%
%ADD11C,0.200000*%
%ADD12C,0.127000*%
%ADD13C,0.160000*%
%ADD14C,0.300000*%
G04 APERTURE END LIST*
D10*
X7372500Y-5736514D02*
X7372500Y-8636514D01*
X7372500Y-8636514D02*
X8372500Y-9636514D01*
X7372500Y-11436514D02*
X7372500Y-14336514D01*
X7372500Y-14336514D02*
X8572500Y-15536513D01*
X8372500Y-9636514D02*
X8372500Y-10436514D01*
X8372500Y-10436514D02*
X7372500Y-11436514D01*
X8572500Y-4536514D02*
X7372500Y-5736514D01*
X8572500Y-15536513D02*
X17705833Y-15536514D01*
X17705833Y-4536514D02*
X8572500Y-4536514D01*
X17705833Y-15536514D02*
X18305833Y-14936514D01*
X18305833Y-5136514D02*
X17705833Y-4536514D01*
X18305833Y-14936514D02*
X19105833Y-14936514D01*
X19205833Y-10036514D02*
G75*
G02*
X18205833Y-10036514I-500000J0D01*
G01*
X18205833Y-10036514D02*
G75*
G02*
X19205833Y-10036514I500000J0D01*
G01*
X19105833Y-5136514D02*
X18305833Y-5136514D01*
X19105833Y-14936514D02*
X19705833Y-15536514D01*
X19705833Y-4536514D02*
X19105833Y-5136514D01*
X19705833Y-15536514D02*
X21772500Y-15536514D01*
X21772500Y-4536514D02*
X19705833Y-4536514D01*
X21772500Y-15536514D02*
X22372500Y-14936514D01*
X22372500Y-5136514D02*
X21772500Y-4536514D01*
X22372500Y-14936514D02*
X22372500Y-5136514D01*
D11*
D12*
X8974000Y-9511500D02*
X9101000Y-9638500D01*
X9101000Y-9511500D02*
X8974000Y-9638500D01*
X8974000Y-10411500D02*
X9101000Y-10538500D01*
X9101000Y-10411500D02*
X8974000Y-10538500D01*
X9649000Y-4711500D02*
X9776000Y-4838500D01*
X9776000Y-4711500D02*
X9649000Y-4838500D01*
X9649000Y-5611500D02*
X9776000Y-5738500D01*
X9776000Y-5611500D02*
X9649000Y-5738500D01*
X17524000Y-11011500D02*
X17651000Y-11138500D01*
X17651000Y-11011500D02*
X17524000Y-11138500D01*
X17524000Y-12511500D02*
X17651000Y-12638500D01*
X17651000Y-12511500D02*
X17524000Y-12638500D01*
X17861500Y-14071750D02*
X17988500Y-14198750D01*
X17988500Y-14071750D02*
X17861500Y-14198750D01*
X19361500Y-14071750D02*
X19488500Y-14198750D01*
X19488500Y-14071750D02*
X19361500Y-14198750D01*
D13*
X10607500Y-4828750D02*
G75*
G02*
X10447500Y-4828750I-80000J0D01*
G01*
X10447500Y-4828750D02*
G75*
G02*
X10607500Y-4828750I80000J0D01*
G01*
D14*
X13050000Y-14967000D02*
X13050000Y-15267000D01*
X12900000Y-15117000D02*
X13200000Y-15117000D01*
D11*
X7620777Y-15860498D02*
X7620777Y-15660498D01*
X7620777Y-15660498D02*
X7668396Y-15660498D01*
X7668396Y-15660498D02*
X7696967Y-15670021D01*
X7696967Y-15670021D02*
X7716015Y-15689069D01*
X7716015Y-15689069D02*
X7725539Y-15708117D01*
X7725539Y-15708117D02*
X7735062Y-15746212D01*
X7735062Y-15746212D02*
X7735062Y-15774783D01*
X7735062Y-15774783D02*
X7725539Y-15812878D01*
X7725539Y-15812878D02*
X7716015Y-15831926D01*
X7716015Y-15831926D02*
X7696967Y-15850974D01*
X7696967Y-15850974D02*
X7668396Y-15860498D01*
X7668396Y-15860498D02*
X7620777Y-15860498D01*
X7820777Y-15860498D02*
X7820777Y-15727164D01*
X7820777Y-15765259D02*
X7830301Y-15746212D01*
X7830301Y-15746212D02*
X7839824Y-15736688D01*
X7839824Y-15736688D02*
X7858872Y-15727164D01*
X7858872Y-15727164D02*
X7877920Y-15727164D01*
X7944586Y-15860498D02*
X7944586Y-15727164D01*
X7944586Y-15660498D02*
X7935062Y-15670021D01*
X7935062Y-15670021D02*
X7944586Y-15679545D01*
X7944586Y-15679545D02*
X7954110Y-15670021D01*
X7954110Y-15670021D02*
X7944586Y-15660498D01*
X7944586Y-15660498D02*
X7944586Y-15679545D01*
X8068396Y-15860498D02*
X8049348Y-15850974D01*
X8049348Y-15850974D02*
X8039824Y-15831926D01*
X8039824Y-15831926D02*
X8039824Y-15660498D01*
X8173158Y-15860498D02*
X8154110Y-15850974D01*
X8154110Y-15850974D02*
X8144586Y-15831926D01*
X8144586Y-15831926D02*
X8144586Y-15660498D01*
X8401729Y-15860498D02*
X8401729Y-15660498D01*
X8401729Y-15660498D02*
X8468396Y-15803355D01*
X8468396Y-15803355D02*
X8535063Y-15660498D01*
X8535063Y-15660498D02*
X8535063Y-15860498D01*
X8716015Y-15860498D02*
X8716015Y-15755736D01*
X8716015Y-15755736D02*
X8706491Y-15736688D01*
X8706491Y-15736688D02*
X8687444Y-15727164D01*
X8687444Y-15727164D02*
X8649348Y-15727164D01*
X8649348Y-15727164D02*
X8630301Y-15736688D01*
X8716015Y-15850974D02*
X8696967Y-15860498D01*
X8696967Y-15860498D02*
X8649348Y-15860498D01*
X8649348Y-15860498D02*
X8630301Y-15850974D01*
X8630301Y-15850974D02*
X8620777Y-15831926D01*
X8620777Y-15831926D02*
X8620777Y-15812878D01*
X8620777Y-15812878D02*
X8630301Y-15793831D01*
X8630301Y-15793831D02*
X8649348Y-15784307D01*
X8649348Y-15784307D02*
X8696967Y-15784307D01*
X8696967Y-15784307D02*
X8716015Y-15774783D01*
X8811253Y-15727164D02*
X8811253Y-15927164D01*
X8811253Y-15736688D02*
X8830301Y-15727164D01*
X8830301Y-15727164D02*
X8868396Y-15727164D01*
X8868396Y-15727164D02*
X8887444Y-15736688D01*
X8887444Y-15736688D02*
X8896967Y-15746212D01*
X8896967Y-15746212D02*
X8906491Y-15765259D01*
X8906491Y-15765259D02*
X8906491Y-15822402D01*
X8906491Y-15822402D02*
X8896967Y-15841450D01*
X8896967Y-15841450D02*
X8887444Y-15850974D01*
X8887444Y-15850974D02*
X8868396Y-15860498D01*
X8868396Y-15860498D02*
X8830301Y-15860498D01*
X8830301Y-15860498D02*
X8811253Y-15850974D01*
X8992205Y-15841450D02*
X9001729Y-15850974D01*
X9001729Y-15850974D02*
X8992205Y-15860498D01*
X8992205Y-15860498D02*
X8982682Y-15850974D01*
X8982682Y-15850974D02*
X8992205Y-15841450D01*
X8992205Y-15841450D02*
X8992205Y-15860498D01*
X8992205Y-15736688D02*
X9001729Y-15746212D01*
X9001729Y-15746212D02*
X8992205Y-15755736D01*
X8992205Y-15755736D02*
X8982682Y-15746212D01*
X8982682Y-15746212D02*
X8992205Y-15736688D01*
X8992205Y-15736688D02*
X8992205Y-15755736D01*
D12*
X7233000Y-16125514D02*
X7360000Y-16252514D01*
X7360000Y-16125514D02*
X7233000Y-16252514D01*
D11*
X7725539Y-16280498D02*
X7611253Y-16280498D01*
X7668396Y-16280498D02*
X7668396Y-16080498D01*
X7668396Y-16080498D02*
X7649348Y-16109069D01*
X7649348Y-16109069D02*
X7630301Y-16128117D01*
X7630301Y-16128117D02*
X7611253Y-16137640D01*
X7811253Y-16261450D02*
X7820777Y-16270974D01*
X7820777Y-16270974D02*
X7811253Y-16280498D01*
X7811253Y-16280498D02*
X7801729Y-16270974D01*
X7801729Y-16270974D02*
X7811253Y-16261450D01*
X7811253Y-16261450D02*
X7811253Y-16280498D01*
X7896967Y-16099545D02*
X7906491Y-16090021D01*
X7906491Y-16090021D02*
X7925539Y-16080498D01*
X7925539Y-16080498D02*
X7973158Y-16080498D01*
X7973158Y-16080498D02*
X7992205Y-16090021D01*
X7992205Y-16090021D02*
X8001729Y-16099545D01*
X8001729Y-16099545D02*
X8011253Y-16118593D01*
X8011253Y-16118593D02*
X8011253Y-16137640D01*
X8011253Y-16137640D02*
X8001729Y-16166212D01*
X8001729Y-16166212D02*
X7887443Y-16280498D01*
X7887443Y-16280498D02*
X8011253Y-16280498D01*
X8077920Y-16080498D02*
X8211253Y-16080498D01*
X8211253Y-16080498D02*
X8125539Y-16280498D01*
X8325539Y-16080498D02*
X8344586Y-16080498D01*
X8344586Y-16080498D02*
X8363634Y-16090021D01*
X8363634Y-16090021D02*
X8373158Y-16099545D01*
X8373158Y-16099545D02*
X8382682Y-16118593D01*
X8382682Y-16118593D02*
X8392205Y-16156688D01*
X8392205Y-16156688D02*
X8392205Y-16204307D01*
X8392205Y-16204307D02*
X8382682Y-16242402D01*
X8382682Y-16242402D02*
X8373158Y-16261450D01*
X8373158Y-16261450D02*
X8363634Y-16270974D01*
X8363634Y-16270974D02*
X8344586Y-16280498D01*
X8344586Y-16280498D02*
X8325539Y-16280498D01*
X8325539Y-16280498D02*
X8306491Y-16270974D01*
X8306491Y-16270974D02*
X8296967Y-16261450D01*
X8296967Y-16261450D02*
X8287443Y-16242402D01*
X8287443Y-16242402D02*
X8277920Y-16204307D01*
X8277920Y-16204307D02*
X8277920Y-16156688D01*
X8277920Y-16156688D02*
X8287443Y-16118593D01*
X8287443Y-16118593D02*
X8296967Y-16099545D01*
X8296967Y-16099545D02*
X8306491Y-16090021D01*
X8306491Y-16090021D02*
X8325539Y-16080498D01*
X8477920Y-16280498D02*
X8477920Y-16147164D01*
X8477920Y-16166212D02*
X8487444Y-16156688D01*
X8487444Y-16156688D02*
X8506491Y-16147164D01*
X8506491Y-16147164D02*
X8535063Y-16147164D01*
X8535063Y-16147164D02*
X8554110Y-16156688D01*
X8554110Y-16156688D02*
X8563634Y-16175736D01*
X8563634Y-16175736D02*
X8563634Y-16280498D01*
X8563634Y-16175736D02*
X8573158Y-16156688D01*
X8573158Y-16156688D02*
X8592205Y-16147164D01*
X8592205Y-16147164D02*
X8620777Y-16147164D01*
X8620777Y-16147164D02*
X8639825Y-16156688D01*
X8639825Y-16156688D02*
X8649348Y-16175736D01*
X8649348Y-16175736D02*
X8649348Y-16280498D01*
X8744586Y-16280498D02*
X8744586Y-16147164D01*
X8744586Y-16166212D02*
X8754110Y-16156688D01*
X8754110Y-16156688D02*
X8773158Y-16147164D01*
X8773158Y-16147164D02*
X8801729Y-16147164D01*
X8801729Y-16147164D02*
X8820777Y-16156688D01*
X8820777Y-16156688D02*
X8830301Y-16175736D01*
X8830301Y-16175736D02*
X8830301Y-16280498D01*
X8830301Y-16175736D02*
X8839825Y-16156688D01*
X8839825Y-16156688D02*
X8858872Y-16147164D01*
X8858872Y-16147164D02*
X8887444Y-16147164D01*
X8887444Y-16147164D02*
X8906491Y-16156688D01*
X8906491Y-16156688D02*
X8916015Y-16175736D01*
X8916015Y-16175736D02*
X8916015Y-16280498D01*
X9306491Y-16070974D02*
X9135063Y-16328117D01*
X9563634Y-16080498D02*
X9582682Y-16080498D01*
X9582682Y-16080498D02*
X9601729Y-16090021D01*
X9601729Y-16090021D02*
X9611253Y-16099545D01*
X9611253Y-16099545D02*
X9620777Y-16118593D01*
X9620777Y-16118593D02*
X9630301Y-16156688D01*
X9630301Y-16156688D02*
X9630301Y-16204307D01*
X9630301Y-16204307D02*
X9620777Y-16242402D01*
X9620777Y-16242402D02*
X9611253Y-16261450D01*
X9611253Y-16261450D02*
X9601729Y-16270974D01*
X9601729Y-16270974D02*
X9582682Y-16280498D01*
X9582682Y-16280498D02*
X9563634Y-16280498D01*
X9563634Y-16280498D02*
X9544587Y-16270974D01*
X9544587Y-16270974D02*
X9535063Y-16261450D01*
X9535063Y-16261450D02*
X9525539Y-16242402D01*
X9525539Y-16242402D02*
X9516015Y-16204307D01*
X9516015Y-16204307D02*
X9516015Y-16156688D01*
X9516015Y-16156688D02*
X9525539Y-16118593D01*
X9525539Y-16118593D02*
X9535063Y-16099545D01*
X9535063Y-16099545D02*
X9544587Y-16090021D01*
X9544587Y-16090021D02*
X9563634Y-16080498D01*
X9716015Y-16261450D02*
X9725539Y-16270974D01*
X9725539Y-16270974D02*
X9716015Y-16280498D01*
X9716015Y-16280498D02*
X9706491Y-16270974D01*
X9706491Y-16270974D02*
X9716015Y-16261450D01*
X9716015Y-16261450D02*
X9716015Y-16280498D01*
X9849348Y-16080498D02*
X9868396Y-16080498D01*
X9868396Y-16080498D02*
X9887444Y-16090021D01*
X9887444Y-16090021D02*
X9896968Y-16099545D01*
X9896968Y-16099545D02*
X9906491Y-16118593D01*
X9906491Y-16118593D02*
X9916015Y-16156688D01*
X9916015Y-16156688D02*
X9916015Y-16204307D01*
X9916015Y-16204307D02*
X9906491Y-16242402D01*
X9906491Y-16242402D02*
X9896968Y-16261450D01*
X9896968Y-16261450D02*
X9887444Y-16270974D01*
X9887444Y-16270974D02*
X9868396Y-16280498D01*
X9868396Y-16280498D02*
X9849348Y-16280498D01*
X9849348Y-16280498D02*
X9830301Y-16270974D01*
X9830301Y-16270974D02*
X9820777Y-16261450D01*
X9820777Y-16261450D02*
X9811253Y-16242402D01*
X9811253Y-16242402D02*
X9801729Y-16204307D01*
X9801729Y-16204307D02*
X9801729Y-16156688D01*
X9801729Y-16156688D02*
X9811253Y-16118593D01*
X9811253Y-16118593D02*
X9820777Y-16099545D01*
X9820777Y-16099545D02*
X9830301Y-16090021D01*
X9830301Y-16090021D02*
X9849348Y-16080498D01*
X10096968Y-16080498D02*
X10001729Y-16080498D01*
X10001729Y-16080498D02*
X9992206Y-16175736D01*
X9992206Y-16175736D02*
X10001729Y-16166212D01*
X10001729Y-16166212D02*
X10020777Y-16156688D01*
X10020777Y-16156688D02*
X10068396Y-16156688D01*
X10068396Y-16156688D02*
X10087444Y-16166212D01*
X10087444Y-16166212D02*
X10096968Y-16175736D01*
X10096968Y-16175736D02*
X10106491Y-16194783D01*
X10106491Y-16194783D02*
X10106491Y-16242402D01*
X10106491Y-16242402D02*
X10096968Y-16261450D01*
X10096968Y-16261450D02*
X10087444Y-16270974D01*
X10087444Y-16270974D02*
X10068396Y-16280498D01*
X10068396Y-16280498D02*
X10020777Y-16280498D01*
X10020777Y-16280498D02*
X10001729Y-16270974D01*
X10001729Y-16270974D02*
X9992206Y-16261450D01*
X10230301Y-16080498D02*
X10249349Y-16080498D01*
X10249349Y-16080498D02*
X10268396Y-16090021D01*
X10268396Y-16090021D02*
X10277920Y-16099545D01*
X10277920Y-16099545D02*
X10287444Y-16118593D01*
X10287444Y-16118593D02*
X10296968Y-16156688D01*
X10296968Y-16156688D02*
X10296968Y-16204307D01*
X10296968Y-16204307D02*
X10287444Y-16242402D01*
X10287444Y-16242402D02*
X10277920Y-16261450D01*
X10277920Y-16261450D02*
X10268396Y-16270974D01*
X10268396Y-16270974D02*
X10249349Y-16280498D01*
X10249349Y-16280498D02*
X10230301Y-16280498D01*
X10230301Y-16280498D02*
X10211253Y-16270974D01*
X10211253Y-16270974D02*
X10201729Y-16261450D01*
X10201729Y-16261450D02*
X10192206Y-16242402D01*
X10192206Y-16242402D02*
X10182682Y-16204307D01*
X10182682Y-16204307D02*
X10182682Y-16156688D01*
X10182682Y-16156688D02*
X10192206Y-16118593D01*
X10192206Y-16118593D02*
X10201729Y-16099545D01*
X10201729Y-16099545D02*
X10211253Y-16090021D01*
X10211253Y-16090021D02*
X10230301Y-16080498D01*
X10420777Y-16080498D02*
X10439825Y-16080498D01*
X10439825Y-16080498D02*
X10458872Y-16090021D01*
X10458872Y-16090021D02*
X10468396Y-16099545D01*
X10468396Y-16099545D02*
X10477920Y-16118593D01*
X10477920Y-16118593D02*
X10487444Y-16156688D01*
X10487444Y-16156688D02*
X10487444Y-16204307D01*
X10487444Y-16204307D02*
X10477920Y-16242402D01*
X10477920Y-16242402D02*
X10468396Y-16261450D01*
X10468396Y-16261450D02*
X10458872Y-16270974D01*
X10458872Y-16270974D02*
X10439825Y-16280498D01*
X10439825Y-16280498D02*
X10420777Y-16280498D01*
X10420777Y-16280498D02*
X10401729Y-16270974D01*
X10401729Y-16270974D02*
X10392206Y-16261450D01*
X10392206Y-16261450D02*
X10382682Y-16242402D01*
X10382682Y-16242402D02*
X10373158Y-16204307D01*
X10373158Y-16204307D02*
X10373158Y-16156688D01*
X10373158Y-16156688D02*
X10382682Y-16118593D01*
X10382682Y-16118593D02*
X10392206Y-16099545D01*
X10392206Y-16099545D02*
X10401729Y-16090021D01*
X10401729Y-16090021D02*
X10420777Y-16080498D01*
X10563634Y-16080498D02*
X10563634Y-16118593D01*
X10639825Y-16080498D02*
X10639825Y-16118593D01*
X10935063Y-16356688D02*
X10925539Y-16347164D01*
X10925539Y-16347164D02*
X10906491Y-16318593D01*
X10906491Y-16318593D02*
X10896968Y-16299545D01*
X10896968Y-16299545D02*
X10887444Y-16270974D01*
X10887444Y-16270974D02*
X10877920Y-16223355D01*
X10877920Y-16223355D02*
X10877920Y-16185259D01*
X10877920Y-16185259D02*
X10887444Y-16137640D01*
X10887444Y-16137640D02*
X10896968Y-16109069D01*
X10896968Y-16109069D02*
X10906491Y-16090021D01*
X10906491Y-16090021D02*
X10925539Y-16061450D01*
X10925539Y-16061450D02*
X10935063Y-16051926D01*
X11039825Y-16166212D02*
X11020777Y-16156688D01*
X11020777Y-16156688D02*
X11011253Y-16147164D01*
X11011253Y-16147164D02*
X11001730Y-16128117D01*
X11001730Y-16128117D02*
X11001730Y-16118593D01*
X11001730Y-16118593D02*
X11011253Y-16099545D01*
X11011253Y-16099545D02*
X11020777Y-16090021D01*
X11020777Y-16090021D02*
X11039825Y-16080498D01*
X11039825Y-16080498D02*
X11077920Y-16080498D01*
X11077920Y-16080498D02*
X11096968Y-16090021D01*
X11096968Y-16090021D02*
X11106491Y-16099545D01*
X11106491Y-16099545D02*
X11116015Y-16118593D01*
X11116015Y-16118593D02*
X11116015Y-16128117D01*
X11116015Y-16128117D02*
X11106491Y-16147164D01*
X11106491Y-16147164D02*
X11096968Y-16156688D01*
X11096968Y-16156688D02*
X11077920Y-16166212D01*
X11077920Y-16166212D02*
X11039825Y-16166212D01*
X11039825Y-16166212D02*
X11020777Y-16175736D01*
X11020777Y-16175736D02*
X11011253Y-16185259D01*
X11011253Y-16185259D02*
X11001730Y-16204307D01*
X11001730Y-16204307D02*
X11001730Y-16242402D01*
X11001730Y-16242402D02*
X11011253Y-16261450D01*
X11011253Y-16261450D02*
X11020777Y-16270974D01*
X11020777Y-16270974D02*
X11039825Y-16280498D01*
X11039825Y-16280498D02*
X11077920Y-16280498D01*
X11077920Y-16280498D02*
X11096968Y-16270974D01*
X11096968Y-16270974D02*
X11106491Y-16261450D01*
X11106491Y-16261450D02*
X11116015Y-16242402D01*
X11116015Y-16242402D02*
X11116015Y-16204307D01*
X11116015Y-16204307D02*
X11106491Y-16185259D01*
X11106491Y-16185259D02*
X11096968Y-16175736D01*
X11096968Y-16175736D02*
X11077920Y-16166212D01*
X11354110Y-16280498D02*
X11354110Y-16080498D01*
X11439825Y-16280498D02*
X11439825Y-16175736D01*
X11439825Y-16175736D02*
X11430301Y-16156688D01*
X11430301Y-16156688D02*
X11411253Y-16147164D01*
X11411253Y-16147164D02*
X11382682Y-16147164D01*
X11382682Y-16147164D02*
X11363634Y-16156688D01*
X11363634Y-16156688D02*
X11354110Y-16166212D01*
X11563634Y-16280498D02*
X11544587Y-16270974D01*
X11544587Y-16270974D02*
X11535063Y-16261450D01*
X11535063Y-16261450D02*
X11525539Y-16242402D01*
X11525539Y-16242402D02*
X11525539Y-16185259D01*
X11525539Y-16185259D02*
X11535063Y-16166212D01*
X11535063Y-16166212D02*
X11544587Y-16156688D01*
X11544587Y-16156688D02*
X11563634Y-16147164D01*
X11563634Y-16147164D02*
X11592206Y-16147164D01*
X11592206Y-16147164D02*
X11611253Y-16156688D01*
X11611253Y-16156688D02*
X11620777Y-16166212D01*
X11620777Y-16166212D02*
X11630301Y-16185259D01*
X11630301Y-16185259D02*
X11630301Y-16242402D01*
X11630301Y-16242402D02*
X11620777Y-16261450D01*
X11620777Y-16261450D02*
X11611253Y-16270974D01*
X11611253Y-16270974D02*
X11592206Y-16280498D01*
X11592206Y-16280498D02*
X11563634Y-16280498D01*
X11744587Y-16280498D02*
X11725539Y-16270974D01*
X11725539Y-16270974D02*
X11716015Y-16251926D01*
X11716015Y-16251926D02*
X11716015Y-16080498D01*
X11896968Y-16270974D02*
X11877920Y-16280498D01*
X11877920Y-16280498D02*
X11839825Y-16280498D01*
X11839825Y-16280498D02*
X11820777Y-16270974D01*
X11820777Y-16270974D02*
X11811253Y-16251926D01*
X11811253Y-16251926D02*
X11811253Y-16175736D01*
X11811253Y-16175736D02*
X11820777Y-16156688D01*
X11820777Y-16156688D02*
X11839825Y-16147164D01*
X11839825Y-16147164D02*
X11877920Y-16147164D01*
X11877920Y-16147164D02*
X11896968Y-16156688D01*
X11896968Y-16156688D02*
X11906491Y-16175736D01*
X11906491Y-16175736D02*
X11906491Y-16194783D01*
X11906491Y-16194783D02*
X11811253Y-16213831D01*
X11982682Y-16270974D02*
X12001730Y-16280498D01*
X12001730Y-16280498D02*
X12039825Y-16280498D01*
X12039825Y-16280498D02*
X12058872Y-16270974D01*
X12058872Y-16270974D02*
X12068396Y-16251926D01*
X12068396Y-16251926D02*
X12068396Y-16242402D01*
X12068396Y-16242402D02*
X12058872Y-16223355D01*
X12058872Y-16223355D02*
X12039825Y-16213831D01*
X12039825Y-16213831D02*
X12011253Y-16213831D01*
X12011253Y-16213831D02*
X11992206Y-16204307D01*
X11992206Y-16204307D02*
X11982682Y-16185259D01*
X11982682Y-16185259D02*
X11982682Y-16175736D01*
X11982682Y-16175736D02*
X11992206Y-16156688D01*
X11992206Y-16156688D02*
X12011253Y-16147164D01*
X12011253Y-16147164D02*
X12039825Y-16147164D01*
X12039825Y-16147164D02*
X12058872Y-16156688D01*
X12135063Y-16356688D02*
X12144587Y-16347164D01*
X12144587Y-16347164D02*
X12163634Y-16318593D01*
X12163634Y-16318593D02*
X12173158Y-16299545D01*
X12173158Y-16299545D02*
X12182682Y-16270974D01*
X12182682Y-16270974D02*
X12192206Y-16223355D01*
X12192206Y-16223355D02*
X12192206Y-16185259D01*
X12192206Y-16185259D02*
X12182682Y-16137640D01*
X12182682Y-16137640D02*
X12173158Y-16109069D01*
X12173158Y-16109069D02*
X12163634Y-16090021D01*
X12163634Y-16090021D02*
X12144587Y-16061450D01*
X12144587Y-16061450D02*
X12135063Y-16051926D01*
X12496968Y-16356688D02*
X12487444Y-16347164D01*
X12487444Y-16347164D02*
X12468396Y-16318593D01*
X12468396Y-16318593D02*
X12458872Y-16299545D01*
X12458872Y-16299545D02*
X12449349Y-16270974D01*
X12449349Y-16270974D02*
X12439825Y-16223355D01*
X12439825Y-16223355D02*
X12439825Y-16185259D01*
X12439825Y-16185259D02*
X12449349Y-16137640D01*
X12449349Y-16137640D02*
X12458872Y-16109069D01*
X12458872Y-16109069D02*
X12468396Y-16090021D01*
X12468396Y-16090021D02*
X12487444Y-16061450D01*
X12487444Y-16061450D02*
X12496968Y-16051926D01*
X12573158Y-16147164D02*
X12573158Y-16280498D01*
X12573158Y-16166212D02*
X12582682Y-16156688D01*
X12582682Y-16156688D02*
X12601730Y-16147164D01*
X12601730Y-16147164D02*
X12630301Y-16147164D01*
X12630301Y-16147164D02*
X12649349Y-16156688D01*
X12649349Y-16156688D02*
X12658872Y-16175736D01*
X12658872Y-16175736D02*
X12658872Y-16280498D01*
X12782682Y-16280498D02*
X12763634Y-16270974D01*
X12763634Y-16270974D02*
X12754111Y-16261450D01*
X12754111Y-16261450D02*
X12744587Y-16242402D01*
X12744587Y-16242402D02*
X12744587Y-16185259D01*
X12744587Y-16185259D02*
X12754111Y-16166212D01*
X12754111Y-16166212D02*
X12763634Y-16156688D01*
X12763634Y-16156688D02*
X12782682Y-16147164D01*
X12782682Y-16147164D02*
X12811253Y-16147164D01*
X12811253Y-16147164D02*
X12830301Y-16156688D01*
X12830301Y-16156688D02*
X12839825Y-16166212D01*
X12839825Y-16166212D02*
X12849349Y-16185259D01*
X12849349Y-16185259D02*
X12849349Y-16242402D01*
X12849349Y-16242402D02*
X12839825Y-16261450D01*
X12839825Y-16261450D02*
X12830301Y-16270974D01*
X12830301Y-16270974D02*
X12811253Y-16280498D01*
X12811253Y-16280498D02*
X12782682Y-16280498D01*
X12906492Y-16147164D02*
X12982682Y-16147164D01*
X12935063Y-16080498D02*
X12935063Y-16251926D01*
X12935063Y-16251926D02*
X12944587Y-16270974D01*
X12944587Y-16270974D02*
X12963634Y-16280498D01*
X12963634Y-16280498D02*
X12982682Y-16280498D01*
X13201730Y-16147164D02*
X13201730Y-16347164D01*
X13201730Y-16156688D02*
X13220777Y-16147164D01*
X13220777Y-16147164D02*
X13258873Y-16147164D01*
X13258873Y-16147164D02*
X13277920Y-16156688D01*
X13277920Y-16156688D02*
X13287444Y-16166212D01*
X13287444Y-16166212D02*
X13296968Y-16185259D01*
X13296968Y-16185259D02*
X13296968Y-16242402D01*
X13296968Y-16242402D02*
X13287444Y-16261450D01*
X13287444Y-16261450D02*
X13277920Y-16270974D01*
X13277920Y-16270974D02*
X13258873Y-16280498D01*
X13258873Y-16280498D02*
X13220777Y-16280498D01*
X13220777Y-16280498D02*
X13201730Y-16270974D01*
X13411253Y-16280498D02*
X13392206Y-16270974D01*
X13392206Y-16270974D02*
X13382682Y-16251926D01*
X13382682Y-16251926D02*
X13382682Y-16080498D01*
X13573158Y-16280498D02*
X13573158Y-16175736D01*
X13573158Y-16175736D02*
X13563634Y-16156688D01*
X13563634Y-16156688D02*
X13544587Y-16147164D01*
X13544587Y-16147164D02*
X13506492Y-16147164D01*
X13506492Y-16147164D02*
X13487444Y-16156688D01*
X13573158Y-16270974D02*
X13554111Y-16280498D01*
X13554111Y-16280498D02*
X13506492Y-16280498D01*
X13506492Y-16280498D02*
X13487444Y-16270974D01*
X13487444Y-16270974D02*
X13477920Y-16251926D01*
X13477920Y-16251926D02*
X13477920Y-16232878D01*
X13477920Y-16232878D02*
X13487444Y-16213831D01*
X13487444Y-16213831D02*
X13506492Y-16204307D01*
X13506492Y-16204307D02*
X13554111Y-16204307D01*
X13554111Y-16204307D02*
X13573158Y-16194783D01*
X13639825Y-16147164D02*
X13716015Y-16147164D01*
X13668396Y-16080498D02*
X13668396Y-16251926D01*
X13668396Y-16251926D02*
X13677920Y-16270974D01*
X13677920Y-16270974D02*
X13696968Y-16280498D01*
X13696968Y-16280498D02*
X13716015Y-16280498D01*
X13858873Y-16270974D02*
X13839825Y-16280498D01*
X13839825Y-16280498D02*
X13801730Y-16280498D01*
X13801730Y-16280498D02*
X13782682Y-16270974D01*
X13782682Y-16270974D02*
X13773158Y-16251926D01*
X13773158Y-16251926D02*
X13773158Y-16175736D01*
X13773158Y-16175736D02*
X13782682Y-16156688D01*
X13782682Y-16156688D02*
X13801730Y-16147164D01*
X13801730Y-16147164D02*
X13839825Y-16147164D01*
X13839825Y-16147164D02*
X13858873Y-16156688D01*
X13858873Y-16156688D02*
X13868396Y-16175736D01*
X13868396Y-16175736D02*
X13868396Y-16194783D01*
X13868396Y-16194783D02*
X13773158Y-16213831D01*
X14039825Y-16280498D02*
X14039825Y-16080498D01*
X14039825Y-16270974D02*
X14020777Y-16280498D01*
X14020777Y-16280498D02*
X13982682Y-16280498D01*
X13982682Y-16280498D02*
X13963634Y-16270974D01*
X13963634Y-16270974D02*
X13954111Y-16261450D01*
X13954111Y-16261450D02*
X13944587Y-16242402D01*
X13944587Y-16242402D02*
X13944587Y-16185259D01*
X13944587Y-16185259D02*
X13954111Y-16166212D01*
X13954111Y-16166212D02*
X13963634Y-16156688D01*
X13963634Y-16156688D02*
X13982682Y-16147164D01*
X13982682Y-16147164D02*
X14020777Y-16147164D01*
X14020777Y-16147164D02*
X14039825Y-16156688D01*
X14116015Y-16356688D02*
X14125539Y-16347164D01*
X14125539Y-16347164D02*
X14144587Y-16318593D01*
X14144587Y-16318593D02*
X14154111Y-16299545D01*
X14154111Y-16299545D02*
X14163634Y-16270974D01*
X14163634Y-16270974D02*
X14173158Y-16223355D01*
X14173158Y-16223355D02*
X14173158Y-16185259D01*
X14173158Y-16185259D02*
X14163634Y-16137640D01*
X14163634Y-16137640D02*
X14154111Y-16109069D01*
X14154111Y-16109069D02*
X14144587Y-16090021D01*
X14144587Y-16090021D02*
X14125539Y-16061450D01*
X14125539Y-16061450D02*
X14116015Y-16051926D01*
D13*
X7360000Y-16453014D02*
G75*
G02*
X7200000Y-16453014I-80000J0D01*
G01*
X7200000Y-16453014D02*
G75*
G02*
X7360000Y-16453014I80000J0D01*
G01*
D11*
X7725539Y-16544498D02*
X7611253Y-16544498D01*
X7668396Y-16544498D02*
X7668396Y-16344498D01*
X7668396Y-16344498D02*
X7649348Y-16373069D01*
X7649348Y-16373069D02*
X7630301Y-16392117D01*
X7630301Y-16392117D02*
X7611253Y-16401640D01*
X7811253Y-16525450D02*
X7820777Y-16534974D01*
X7820777Y-16534974D02*
X7811253Y-16544498D01*
X7811253Y-16544498D02*
X7801729Y-16534974D01*
X7801729Y-16534974D02*
X7811253Y-16525450D01*
X7811253Y-16525450D02*
X7811253Y-16544498D01*
X7992205Y-16344498D02*
X7954110Y-16344498D01*
X7954110Y-16344498D02*
X7935062Y-16354021D01*
X7935062Y-16354021D02*
X7925539Y-16363545D01*
X7925539Y-16363545D02*
X7906491Y-16392117D01*
X7906491Y-16392117D02*
X7896967Y-16430212D01*
X7896967Y-16430212D02*
X7896967Y-16506402D01*
X7896967Y-16506402D02*
X7906491Y-16525450D01*
X7906491Y-16525450D02*
X7916015Y-16534974D01*
X7916015Y-16534974D02*
X7935062Y-16544498D01*
X7935062Y-16544498D02*
X7973158Y-16544498D01*
X7973158Y-16544498D02*
X7992205Y-16534974D01*
X7992205Y-16534974D02*
X8001729Y-16525450D01*
X8001729Y-16525450D02*
X8011253Y-16506402D01*
X8011253Y-16506402D02*
X8011253Y-16458783D01*
X8011253Y-16458783D02*
X8001729Y-16439736D01*
X8001729Y-16439736D02*
X7992205Y-16430212D01*
X7992205Y-16430212D02*
X7973158Y-16420688D01*
X7973158Y-16420688D02*
X7935062Y-16420688D01*
X7935062Y-16420688D02*
X7916015Y-16430212D01*
X7916015Y-16430212D02*
X7906491Y-16439736D01*
X7906491Y-16439736D02*
X7896967Y-16458783D01*
X8135062Y-16344498D02*
X8154110Y-16344498D01*
X8154110Y-16344498D02*
X8173158Y-16354021D01*
X8173158Y-16354021D02*
X8182682Y-16363545D01*
X8182682Y-16363545D02*
X8192205Y-16382593D01*
X8192205Y-16382593D02*
X8201729Y-16420688D01*
X8201729Y-16420688D02*
X8201729Y-16468307D01*
X8201729Y-16468307D02*
X8192205Y-16506402D01*
X8192205Y-16506402D02*
X8182682Y-16525450D01*
X8182682Y-16525450D02*
X8173158Y-16534974D01*
X8173158Y-16534974D02*
X8154110Y-16544498D01*
X8154110Y-16544498D02*
X8135062Y-16544498D01*
X8135062Y-16544498D02*
X8116015Y-16534974D01*
X8116015Y-16534974D02*
X8106491Y-16525450D01*
X8106491Y-16525450D02*
X8096967Y-16506402D01*
X8096967Y-16506402D02*
X8087443Y-16468307D01*
X8087443Y-16468307D02*
X8087443Y-16420688D01*
X8087443Y-16420688D02*
X8096967Y-16382593D01*
X8096967Y-16382593D02*
X8106491Y-16363545D01*
X8106491Y-16363545D02*
X8116015Y-16354021D01*
X8116015Y-16354021D02*
X8135062Y-16344498D01*
X8325539Y-16344498D02*
X8344586Y-16344498D01*
X8344586Y-16344498D02*
X8363634Y-16354021D01*
X8363634Y-16354021D02*
X8373158Y-16363545D01*
X8373158Y-16363545D02*
X8382682Y-16382593D01*
X8382682Y-16382593D02*
X8392205Y-16420688D01*
X8392205Y-16420688D02*
X8392205Y-16468307D01*
X8392205Y-16468307D02*
X8382682Y-16506402D01*
X8382682Y-16506402D02*
X8373158Y-16525450D01*
X8373158Y-16525450D02*
X8363634Y-16534974D01*
X8363634Y-16534974D02*
X8344586Y-16544498D01*
X8344586Y-16544498D02*
X8325539Y-16544498D01*
X8325539Y-16544498D02*
X8306491Y-16534974D01*
X8306491Y-16534974D02*
X8296967Y-16525450D01*
X8296967Y-16525450D02*
X8287443Y-16506402D01*
X8287443Y-16506402D02*
X8277920Y-16468307D01*
X8277920Y-16468307D02*
X8277920Y-16420688D01*
X8277920Y-16420688D02*
X8287443Y-16382593D01*
X8287443Y-16382593D02*
X8296967Y-16363545D01*
X8296967Y-16363545D02*
X8306491Y-16354021D01*
X8306491Y-16354021D02*
X8325539Y-16344498D01*
X8477920Y-16544498D02*
X8477920Y-16411164D01*
X8477920Y-16430212D02*
X8487444Y-16420688D01*
X8487444Y-16420688D02*
X8506491Y-16411164D01*
X8506491Y-16411164D02*
X8535063Y-16411164D01*
X8535063Y-16411164D02*
X8554110Y-16420688D01*
X8554110Y-16420688D02*
X8563634Y-16439736D01*
X8563634Y-16439736D02*
X8563634Y-16544498D01*
X8563634Y-16439736D02*
X8573158Y-16420688D01*
X8573158Y-16420688D02*
X8592205Y-16411164D01*
X8592205Y-16411164D02*
X8620777Y-16411164D01*
X8620777Y-16411164D02*
X8639825Y-16420688D01*
X8639825Y-16420688D02*
X8649348Y-16439736D01*
X8649348Y-16439736D02*
X8649348Y-16544498D01*
X8744586Y-16544498D02*
X8744586Y-16411164D01*
X8744586Y-16430212D02*
X8754110Y-16420688D01*
X8754110Y-16420688D02*
X8773158Y-16411164D01*
X8773158Y-16411164D02*
X8801729Y-16411164D01*
X8801729Y-16411164D02*
X8820777Y-16420688D01*
X8820777Y-16420688D02*
X8830301Y-16439736D01*
X8830301Y-16439736D02*
X8830301Y-16544498D01*
X8830301Y-16439736D02*
X8839825Y-16420688D01*
X8839825Y-16420688D02*
X8858872Y-16411164D01*
X8858872Y-16411164D02*
X8887444Y-16411164D01*
X8887444Y-16411164D02*
X8906491Y-16420688D01*
X8906491Y-16420688D02*
X8916015Y-16439736D01*
X8916015Y-16439736D02*
X8916015Y-16544498D01*
X9306491Y-16334974D02*
X9135063Y-16592117D01*
X9563634Y-16344498D02*
X9582682Y-16344498D01*
X9582682Y-16344498D02*
X9601729Y-16354021D01*
X9601729Y-16354021D02*
X9611253Y-16363545D01*
X9611253Y-16363545D02*
X9620777Y-16382593D01*
X9620777Y-16382593D02*
X9630301Y-16420688D01*
X9630301Y-16420688D02*
X9630301Y-16468307D01*
X9630301Y-16468307D02*
X9620777Y-16506402D01*
X9620777Y-16506402D02*
X9611253Y-16525450D01*
X9611253Y-16525450D02*
X9601729Y-16534974D01*
X9601729Y-16534974D02*
X9582682Y-16544498D01*
X9582682Y-16544498D02*
X9563634Y-16544498D01*
X9563634Y-16544498D02*
X9544587Y-16534974D01*
X9544587Y-16534974D02*
X9535063Y-16525450D01*
X9535063Y-16525450D02*
X9525539Y-16506402D01*
X9525539Y-16506402D02*
X9516015Y-16468307D01*
X9516015Y-16468307D02*
X9516015Y-16420688D01*
X9516015Y-16420688D02*
X9525539Y-16382593D01*
X9525539Y-16382593D02*
X9535063Y-16363545D01*
X9535063Y-16363545D02*
X9544587Y-16354021D01*
X9544587Y-16354021D02*
X9563634Y-16344498D01*
X9716015Y-16525450D02*
X9725539Y-16534974D01*
X9725539Y-16534974D02*
X9716015Y-16544498D01*
X9716015Y-16544498D02*
X9706491Y-16534974D01*
X9706491Y-16534974D02*
X9716015Y-16525450D01*
X9716015Y-16525450D02*
X9716015Y-16544498D01*
X9849348Y-16344498D02*
X9868396Y-16344498D01*
X9868396Y-16344498D02*
X9887444Y-16354021D01*
X9887444Y-16354021D02*
X9896968Y-16363545D01*
X9896968Y-16363545D02*
X9906491Y-16382593D01*
X9906491Y-16382593D02*
X9916015Y-16420688D01*
X9916015Y-16420688D02*
X9916015Y-16468307D01*
X9916015Y-16468307D02*
X9906491Y-16506402D01*
X9906491Y-16506402D02*
X9896968Y-16525450D01*
X9896968Y-16525450D02*
X9887444Y-16534974D01*
X9887444Y-16534974D02*
X9868396Y-16544498D01*
X9868396Y-16544498D02*
X9849348Y-16544498D01*
X9849348Y-16544498D02*
X9830301Y-16534974D01*
X9830301Y-16534974D02*
X9820777Y-16525450D01*
X9820777Y-16525450D02*
X9811253Y-16506402D01*
X9811253Y-16506402D02*
X9801729Y-16468307D01*
X9801729Y-16468307D02*
X9801729Y-16420688D01*
X9801729Y-16420688D02*
X9811253Y-16382593D01*
X9811253Y-16382593D02*
X9820777Y-16363545D01*
X9820777Y-16363545D02*
X9830301Y-16354021D01*
X9830301Y-16354021D02*
X9849348Y-16344498D01*
X10087444Y-16344498D02*
X10049348Y-16344498D01*
X10049348Y-16344498D02*
X10030301Y-16354021D01*
X10030301Y-16354021D02*
X10020777Y-16363545D01*
X10020777Y-16363545D02*
X10001729Y-16392117D01*
X10001729Y-16392117D02*
X9992206Y-16430212D01*
X9992206Y-16430212D02*
X9992206Y-16506402D01*
X9992206Y-16506402D02*
X10001729Y-16525450D01*
X10001729Y-16525450D02*
X10011253Y-16534974D01*
X10011253Y-16534974D02*
X10030301Y-16544498D01*
X10030301Y-16544498D02*
X10068396Y-16544498D01*
X10068396Y-16544498D02*
X10087444Y-16534974D01*
X10087444Y-16534974D02*
X10096968Y-16525450D01*
X10096968Y-16525450D02*
X10106491Y-16506402D01*
X10106491Y-16506402D02*
X10106491Y-16458783D01*
X10106491Y-16458783D02*
X10096968Y-16439736D01*
X10096968Y-16439736D02*
X10087444Y-16430212D01*
X10087444Y-16430212D02*
X10068396Y-16420688D01*
X10068396Y-16420688D02*
X10030301Y-16420688D01*
X10030301Y-16420688D02*
X10011253Y-16430212D01*
X10011253Y-16430212D02*
X10001729Y-16439736D01*
X10001729Y-16439736D02*
X9992206Y-16458783D01*
X10173158Y-16344498D02*
X10296968Y-16344498D01*
X10296968Y-16344498D02*
X10230301Y-16420688D01*
X10230301Y-16420688D02*
X10258872Y-16420688D01*
X10258872Y-16420688D02*
X10277920Y-16430212D01*
X10277920Y-16430212D02*
X10287444Y-16439736D01*
X10287444Y-16439736D02*
X10296968Y-16458783D01*
X10296968Y-16458783D02*
X10296968Y-16506402D01*
X10296968Y-16506402D02*
X10287444Y-16525450D01*
X10287444Y-16525450D02*
X10277920Y-16534974D01*
X10277920Y-16534974D02*
X10258872Y-16544498D01*
X10258872Y-16544498D02*
X10201729Y-16544498D01*
X10201729Y-16544498D02*
X10182682Y-16534974D01*
X10182682Y-16534974D02*
X10173158Y-16525450D01*
X10420777Y-16344498D02*
X10439825Y-16344498D01*
X10439825Y-16344498D02*
X10458872Y-16354021D01*
X10458872Y-16354021D02*
X10468396Y-16363545D01*
X10468396Y-16363545D02*
X10477920Y-16382593D01*
X10477920Y-16382593D02*
X10487444Y-16420688D01*
X10487444Y-16420688D02*
X10487444Y-16468307D01*
X10487444Y-16468307D02*
X10477920Y-16506402D01*
X10477920Y-16506402D02*
X10468396Y-16525450D01*
X10468396Y-16525450D02*
X10458872Y-16534974D01*
X10458872Y-16534974D02*
X10439825Y-16544498D01*
X10439825Y-16544498D02*
X10420777Y-16544498D01*
X10420777Y-16544498D02*
X10401729Y-16534974D01*
X10401729Y-16534974D02*
X10392206Y-16525450D01*
X10392206Y-16525450D02*
X10382682Y-16506402D01*
X10382682Y-16506402D02*
X10373158Y-16468307D01*
X10373158Y-16468307D02*
X10373158Y-16420688D01*
X10373158Y-16420688D02*
X10382682Y-16382593D01*
X10382682Y-16382593D02*
X10392206Y-16363545D01*
X10392206Y-16363545D02*
X10401729Y-16354021D01*
X10401729Y-16354021D02*
X10420777Y-16344498D01*
X10563634Y-16344498D02*
X10563634Y-16382593D01*
X10639825Y-16344498D02*
X10639825Y-16382593D01*
X10935063Y-16620688D02*
X10925539Y-16611164D01*
X10925539Y-16611164D02*
X10906491Y-16582593D01*
X10906491Y-16582593D02*
X10896968Y-16563545D01*
X10896968Y-16563545D02*
X10887444Y-16534974D01*
X10887444Y-16534974D02*
X10877920Y-16487355D01*
X10877920Y-16487355D02*
X10877920Y-16449259D01*
X10877920Y-16449259D02*
X10887444Y-16401640D01*
X10887444Y-16401640D02*
X10896968Y-16373069D01*
X10896968Y-16373069D02*
X10906491Y-16354021D01*
X10906491Y-16354021D02*
X10925539Y-16325450D01*
X10925539Y-16325450D02*
X10935063Y-16315926D01*
X11116015Y-16544498D02*
X11001730Y-16544498D01*
X11058872Y-16544498D02*
X11058872Y-16344498D01*
X11058872Y-16344498D02*
X11039825Y-16373069D01*
X11039825Y-16373069D02*
X11020777Y-16392117D01*
X11020777Y-16392117D02*
X11001730Y-16401640D01*
X11354110Y-16544498D02*
X11354110Y-16344498D01*
X11439825Y-16544498D02*
X11439825Y-16439736D01*
X11439825Y-16439736D02*
X11430301Y-16420688D01*
X11430301Y-16420688D02*
X11411253Y-16411164D01*
X11411253Y-16411164D02*
X11382682Y-16411164D01*
X11382682Y-16411164D02*
X11363634Y-16420688D01*
X11363634Y-16420688D02*
X11354110Y-16430212D01*
X11563634Y-16544498D02*
X11544587Y-16534974D01*
X11544587Y-16534974D02*
X11535063Y-16525450D01*
X11535063Y-16525450D02*
X11525539Y-16506402D01*
X11525539Y-16506402D02*
X11525539Y-16449259D01*
X11525539Y-16449259D02*
X11535063Y-16430212D01*
X11535063Y-16430212D02*
X11544587Y-16420688D01*
X11544587Y-16420688D02*
X11563634Y-16411164D01*
X11563634Y-16411164D02*
X11592206Y-16411164D01*
X11592206Y-16411164D02*
X11611253Y-16420688D01*
X11611253Y-16420688D02*
X11620777Y-16430212D01*
X11620777Y-16430212D02*
X11630301Y-16449259D01*
X11630301Y-16449259D02*
X11630301Y-16506402D01*
X11630301Y-16506402D02*
X11620777Y-16525450D01*
X11620777Y-16525450D02*
X11611253Y-16534974D01*
X11611253Y-16534974D02*
X11592206Y-16544498D01*
X11592206Y-16544498D02*
X11563634Y-16544498D01*
X11744587Y-16544498D02*
X11725539Y-16534974D01*
X11725539Y-16534974D02*
X11716015Y-16515926D01*
X11716015Y-16515926D02*
X11716015Y-16344498D01*
X11896968Y-16534974D02*
X11877920Y-16544498D01*
X11877920Y-16544498D02*
X11839825Y-16544498D01*
X11839825Y-16544498D02*
X11820777Y-16534974D01*
X11820777Y-16534974D02*
X11811253Y-16515926D01*
X11811253Y-16515926D02*
X11811253Y-16439736D01*
X11811253Y-16439736D02*
X11820777Y-16420688D01*
X11820777Y-16420688D02*
X11839825Y-16411164D01*
X11839825Y-16411164D02*
X11877920Y-16411164D01*
X11877920Y-16411164D02*
X11896968Y-16420688D01*
X11896968Y-16420688D02*
X11906491Y-16439736D01*
X11906491Y-16439736D02*
X11906491Y-16458783D01*
X11906491Y-16458783D02*
X11811253Y-16477831D01*
X11973158Y-16620688D02*
X11982682Y-16611164D01*
X11982682Y-16611164D02*
X12001730Y-16582593D01*
X12001730Y-16582593D02*
X12011253Y-16563545D01*
X12011253Y-16563545D02*
X12020777Y-16534974D01*
X12020777Y-16534974D02*
X12030301Y-16487355D01*
X12030301Y-16487355D02*
X12030301Y-16449259D01*
X12030301Y-16449259D02*
X12020777Y-16401640D01*
X12020777Y-16401640D02*
X12011253Y-16373069D01*
X12011253Y-16373069D02*
X12001730Y-16354021D01*
X12001730Y-16354021D02*
X11982682Y-16325450D01*
X11982682Y-16325450D02*
X11973158Y-16315926D01*
X12335063Y-16620688D02*
X12325539Y-16611164D01*
X12325539Y-16611164D02*
X12306491Y-16582593D01*
X12306491Y-16582593D02*
X12296968Y-16563545D01*
X12296968Y-16563545D02*
X12287444Y-16534974D01*
X12287444Y-16534974D02*
X12277920Y-16487355D01*
X12277920Y-16487355D02*
X12277920Y-16449259D01*
X12277920Y-16449259D02*
X12287444Y-16401640D01*
X12287444Y-16401640D02*
X12296968Y-16373069D01*
X12296968Y-16373069D02*
X12306491Y-16354021D01*
X12306491Y-16354021D02*
X12325539Y-16325450D01*
X12325539Y-16325450D02*
X12335063Y-16315926D01*
X12411253Y-16411164D02*
X12411253Y-16544498D01*
X12411253Y-16430212D02*
X12420777Y-16420688D01*
X12420777Y-16420688D02*
X12439825Y-16411164D01*
X12439825Y-16411164D02*
X12468396Y-16411164D01*
X12468396Y-16411164D02*
X12487444Y-16420688D01*
X12487444Y-16420688D02*
X12496968Y-16439736D01*
X12496968Y-16439736D02*
X12496968Y-16544498D01*
X12620777Y-16544498D02*
X12601730Y-16534974D01*
X12601730Y-16534974D02*
X12592206Y-16525450D01*
X12592206Y-16525450D02*
X12582682Y-16506402D01*
X12582682Y-16506402D02*
X12582682Y-16449259D01*
X12582682Y-16449259D02*
X12592206Y-16430212D01*
X12592206Y-16430212D02*
X12601730Y-16420688D01*
X12601730Y-16420688D02*
X12620777Y-16411164D01*
X12620777Y-16411164D02*
X12649349Y-16411164D01*
X12649349Y-16411164D02*
X12668396Y-16420688D01*
X12668396Y-16420688D02*
X12677920Y-16430212D01*
X12677920Y-16430212D02*
X12687444Y-16449259D01*
X12687444Y-16449259D02*
X12687444Y-16506402D01*
X12687444Y-16506402D02*
X12677920Y-16525450D01*
X12677920Y-16525450D02*
X12668396Y-16534974D01*
X12668396Y-16534974D02*
X12649349Y-16544498D01*
X12649349Y-16544498D02*
X12620777Y-16544498D01*
X12744587Y-16411164D02*
X12820777Y-16411164D01*
X12773158Y-16344498D02*
X12773158Y-16515926D01*
X12773158Y-16515926D02*
X12782682Y-16534974D01*
X12782682Y-16534974D02*
X12801730Y-16544498D01*
X12801730Y-16544498D02*
X12820777Y-16544498D01*
X13039825Y-16411164D02*
X13039825Y-16611164D01*
X13039825Y-16420688D02*
X13058872Y-16411164D01*
X13058872Y-16411164D02*
X13096968Y-16411164D01*
X13096968Y-16411164D02*
X13116015Y-16420688D01*
X13116015Y-16420688D02*
X13125539Y-16430212D01*
X13125539Y-16430212D02*
X13135063Y-16449259D01*
X13135063Y-16449259D02*
X13135063Y-16506402D01*
X13135063Y-16506402D02*
X13125539Y-16525450D01*
X13125539Y-16525450D02*
X13116015Y-16534974D01*
X13116015Y-16534974D02*
X13096968Y-16544498D01*
X13096968Y-16544498D02*
X13058872Y-16544498D01*
X13058872Y-16544498D02*
X13039825Y-16534974D01*
X13249349Y-16544498D02*
X13230301Y-16534974D01*
X13230301Y-16534974D02*
X13220777Y-16515926D01*
X13220777Y-16515926D02*
X13220777Y-16344498D01*
X13411253Y-16544498D02*
X13411253Y-16439736D01*
X13411253Y-16439736D02*
X13401730Y-16420688D01*
X13401730Y-16420688D02*
X13382682Y-16411164D01*
X13382682Y-16411164D02*
X13344587Y-16411164D01*
X13344587Y-16411164D02*
X13325539Y-16420688D01*
X13411253Y-16534974D02*
X13392206Y-16544498D01*
X13392206Y-16544498D02*
X13344587Y-16544498D01*
X13344587Y-16544498D02*
X13325539Y-16534974D01*
X13325539Y-16534974D02*
X13316015Y-16515926D01*
X13316015Y-16515926D02*
X13316015Y-16496878D01*
X13316015Y-16496878D02*
X13325539Y-16477831D01*
X13325539Y-16477831D02*
X13344587Y-16468307D01*
X13344587Y-16468307D02*
X13392206Y-16468307D01*
X13392206Y-16468307D02*
X13411253Y-16458783D01*
X13477920Y-16411164D02*
X13554111Y-16411164D01*
X13506492Y-16344498D02*
X13506492Y-16515926D01*
X13506492Y-16515926D02*
X13516015Y-16534974D01*
X13516015Y-16534974D02*
X13535063Y-16544498D01*
X13535063Y-16544498D02*
X13554111Y-16544498D01*
X13696968Y-16534974D02*
X13677920Y-16544498D01*
X13677920Y-16544498D02*
X13639825Y-16544498D01*
X13639825Y-16544498D02*
X13620777Y-16534974D01*
X13620777Y-16534974D02*
X13611253Y-16515926D01*
X13611253Y-16515926D02*
X13611253Y-16439736D01*
X13611253Y-16439736D02*
X13620777Y-16420688D01*
X13620777Y-16420688D02*
X13639825Y-16411164D01*
X13639825Y-16411164D02*
X13677920Y-16411164D01*
X13677920Y-16411164D02*
X13696968Y-16420688D01*
X13696968Y-16420688D02*
X13706492Y-16439736D01*
X13706492Y-16439736D02*
X13706492Y-16458783D01*
X13706492Y-16458783D02*
X13611253Y-16477831D01*
X13877920Y-16544498D02*
X13877920Y-16344498D01*
X13877920Y-16534974D02*
X13858873Y-16544498D01*
X13858873Y-16544498D02*
X13820777Y-16544498D01*
X13820777Y-16544498D02*
X13801730Y-16534974D01*
X13801730Y-16534974D02*
X13792206Y-16525450D01*
X13792206Y-16525450D02*
X13782682Y-16506402D01*
X13782682Y-16506402D02*
X13782682Y-16449259D01*
X13782682Y-16449259D02*
X13792206Y-16430212D01*
X13792206Y-16430212D02*
X13801730Y-16420688D01*
X13801730Y-16420688D02*
X13820777Y-16411164D01*
X13820777Y-16411164D02*
X13858873Y-16411164D01*
X13858873Y-16411164D02*
X13877920Y-16420688D01*
X13954111Y-16620688D02*
X13963634Y-16611164D01*
X13963634Y-16611164D02*
X13982682Y-16582593D01*
X13982682Y-16582593D02*
X13992206Y-16563545D01*
X13992206Y-16563545D02*
X14001730Y-16534974D01*
X14001730Y-16534974D02*
X14011253Y-16487355D01*
X14011253Y-16487355D02*
X14011253Y-16449259D01*
X14011253Y-16449259D02*
X14001730Y-16401640D01*
X14001730Y-16401640D02*
X13992206Y-16373069D01*
X13992206Y-16373069D02*
X13982682Y-16354021D01*
X13982682Y-16354021D02*
X13963634Y-16325450D01*
X13963634Y-16325450D02*
X13954111Y-16315926D01*
X7260000Y-16633014D02*
X7260000Y-16833014D01*
X7160000Y-16733014D02*
X7360000Y-16733014D01*
X7601729Y-16624498D02*
X7725539Y-16624498D01*
X7725539Y-16624498D02*
X7658872Y-16700688D01*
X7658872Y-16700688D02*
X7687443Y-16700688D01*
X7687443Y-16700688D02*
X7706491Y-16710212D01*
X7706491Y-16710212D02*
X7716015Y-16719736D01*
X7716015Y-16719736D02*
X7725539Y-16738783D01*
X7725539Y-16738783D02*
X7725539Y-16786402D01*
X7725539Y-16786402D02*
X7716015Y-16805450D01*
X7716015Y-16805450D02*
X7706491Y-16814974D01*
X7706491Y-16814974D02*
X7687443Y-16824498D01*
X7687443Y-16824498D02*
X7630301Y-16824498D01*
X7630301Y-16824498D02*
X7611253Y-16814974D01*
X7611253Y-16814974D02*
X7601729Y-16805450D01*
X7811253Y-16805450D02*
X7820777Y-16814974D01*
X7820777Y-16814974D02*
X7811253Y-16824498D01*
X7811253Y-16824498D02*
X7801729Y-16814974D01*
X7801729Y-16814974D02*
X7811253Y-16805450D01*
X7811253Y-16805450D02*
X7811253Y-16824498D01*
X7944586Y-16624498D02*
X7963634Y-16624498D01*
X7963634Y-16624498D02*
X7982682Y-16634021D01*
X7982682Y-16634021D02*
X7992205Y-16643545D01*
X7992205Y-16643545D02*
X8001729Y-16662593D01*
X8001729Y-16662593D02*
X8011253Y-16700688D01*
X8011253Y-16700688D02*
X8011253Y-16748307D01*
X8011253Y-16748307D02*
X8001729Y-16786402D01*
X8001729Y-16786402D02*
X7992205Y-16805450D01*
X7992205Y-16805450D02*
X7982682Y-16814974D01*
X7982682Y-16814974D02*
X7963634Y-16824498D01*
X7963634Y-16824498D02*
X7944586Y-16824498D01*
X7944586Y-16824498D02*
X7925539Y-16814974D01*
X7925539Y-16814974D02*
X7916015Y-16805450D01*
X7916015Y-16805450D02*
X7906491Y-16786402D01*
X7906491Y-16786402D02*
X7896967Y-16748307D01*
X7896967Y-16748307D02*
X7896967Y-16700688D01*
X7896967Y-16700688D02*
X7906491Y-16662593D01*
X7906491Y-16662593D02*
X7916015Y-16643545D01*
X7916015Y-16643545D02*
X7925539Y-16634021D01*
X7925539Y-16634021D02*
X7944586Y-16624498D01*
X8135062Y-16624498D02*
X8154110Y-16624498D01*
X8154110Y-16624498D02*
X8173158Y-16634021D01*
X8173158Y-16634021D02*
X8182682Y-16643545D01*
X8182682Y-16643545D02*
X8192205Y-16662593D01*
X8192205Y-16662593D02*
X8201729Y-16700688D01*
X8201729Y-16700688D02*
X8201729Y-16748307D01*
X8201729Y-16748307D02*
X8192205Y-16786402D01*
X8192205Y-16786402D02*
X8182682Y-16805450D01*
X8182682Y-16805450D02*
X8173158Y-16814974D01*
X8173158Y-16814974D02*
X8154110Y-16824498D01*
X8154110Y-16824498D02*
X8135062Y-16824498D01*
X8135062Y-16824498D02*
X8116015Y-16814974D01*
X8116015Y-16814974D02*
X8106491Y-16805450D01*
X8106491Y-16805450D02*
X8096967Y-16786402D01*
X8096967Y-16786402D02*
X8087443Y-16748307D01*
X8087443Y-16748307D02*
X8087443Y-16700688D01*
X8087443Y-16700688D02*
X8096967Y-16662593D01*
X8096967Y-16662593D02*
X8106491Y-16643545D01*
X8106491Y-16643545D02*
X8116015Y-16634021D01*
X8116015Y-16634021D02*
X8135062Y-16624498D01*
X8325539Y-16624498D02*
X8344586Y-16624498D01*
X8344586Y-16624498D02*
X8363634Y-16634021D01*
X8363634Y-16634021D02*
X8373158Y-16643545D01*
X8373158Y-16643545D02*
X8382682Y-16662593D01*
X8382682Y-16662593D02*
X8392205Y-16700688D01*
X8392205Y-16700688D02*
X8392205Y-16748307D01*
X8392205Y-16748307D02*
X8382682Y-16786402D01*
X8382682Y-16786402D02*
X8373158Y-16805450D01*
X8373158Y-16805450D02*
X8363634Y-16814974D01*
X8363634Y-16814974D02*
X8344586Y-16824498D01*
X8344586Y-16824498D02*
X8325539Y-16824498D01*
X8325539Y-16824498D02*
X8306491Y-16814974D01*
X8306491Y-16814974D02*
X8296967Y-16805450D01*
X8296967Y-16805450D02*
X8287443Y-16786402D01*
X8287443Y-16786402D02*
X8277920Y-16748307D01*
X8277920Y-16748307D02*
X8277920Y-16700688D01*
X8277920Y-16700688D02*
X8287443Y-16662593D01*
X8287443Y-16662593D02*
X8296967Y-16643545D01*
X8296967Y-16643545D02*
X8306491Y-16634021D01*
X8306491Y-16634021D02*
X8325539Y-16624498D01*
X8477920Y-16824498D02*
X8477920Y-16691164D01*
X8477920Y-16710212D02*
X8487444Y-16700688D01*
X8487444Y-16700688D02*
X8506491Y-16691164D01*
X8506491Y-16691164D02*
X8535063Y-16691164D01*
X8535063Y-16691164D02*
X8554110Y-16700688D01*
X8554110Y-16700688D02*
X8563634Y-16719736D01*
X8563634Y-16719736D02*
X8563634Y-16824498D01*
X8563634Y-16719736D02*
X8573158Y-16700688D01*
X8573158Y-16700688D02*
X8592205Y-16691164D01*
X8592205Y-16691164D02*
X8620777Y-16691164D01*
X8620777Y-16691164D02*
X8639825Y-16700688D01*
X8639825Y-16700688D02*
X8649348Y-16719736D01*
X8649348Y-16719736D02*
X8649348Y-16824498D01*
X8744586Y-16824498D02*
X8744586Y-16691164D01*
X8744586Y-16710212D02*
X8754110Y-16700688D01*
X8754110Y-16700688D02*
X8773158Y-16691164D01*
X8773158Y-16691164D02*
X8801729Y-16691164D01*
X8801729Y-16691164D02*
X8820777Y-16700688D01*
X8820777Y-16700688D02*
X8830301Y-16719736D01*
X8830301Y-16719736D02*
X8830301Y-16824498D01*
X8830301Y-16719736D02*
X8839825Y-16700688D01*
X8839825Y-16700688D02*
X8858872Y-16691164D01*
X8858872Y-16691164D02*
X8887444Y-16691164D01*
X8887444Y-16691164D02*
X8906491Y-16700688D01*
X8906491Y-16700688D02*
X8916015Y-16719736D01*
X8916015Y-16719736D02*
X8916015Y-16824498D01*
X9306491Y-16614974D02*
X9135063Y-16872117D01*
X9563634Y-16624498D02*
X9582682Y-16624498D01*
X9582682Y-16624498D02*
X9601729Y-16634021D01*
X9601729Y-16634021D02*
X9611253Y-16643545D01*
X9611253Y-16643545D02*
X9620777Y-16662593D01*
X9620777Y-16662593D02*
X9630301Y-16700688D01*
X9630301Y-16700688D02*
X9630301Y-16748307D01*
X9630301Y-16748307D02*
X9620777Y-16786402D01*
X9620777Y-16786402D02*
X9611253Y-16805450D01*
X9611253Y-16805450D02*
X9601729Y-16814974D01*
X9601729Y-16814974D02*
X9582682Y-16824498D01*
X9582682Y-16824498D02*
X9563634Y-16824498D01*
X9563634Y-16824498D02*
X9544587Y-16814974D01*
X9544587Y-16814974D02*
X9535063Y-16805450D01*
X9535063Y-16805450D02*
X9525539Y-16786402D01*
X9525539Y-16786402D02*
X9516015Y-16748307D01*
X9516015Y-16748307D02*
X9516015Y-16700688D01*
X9516015Y-16700688D02*
X9525539Y-16662593D01*
X9525539Y-16662593D02*
X9535063Y-16643545D01*
X9535063Y-16643545D02*
X9544587Y-16634021D01*
X9544587Y-16634021D02*
X9563634Y-16624498D01*
X9716015Y-16805450D02*
X9725539Y-16814974D01*
X9725539Y-16814974D02*
X9716015Y-16824498D01*
X9716015Y-16824498D02*
X9706491Y-16814974D01*
X9706491Y-16814974D02*
X9716015Y-16805450D01*
X9716015Y-16805450D02*
X9716015Y-16824498D01*
X9916015Y-16824498D02*
X9801729Y-16824498D01*
X9858872Y-16824498D02*
X9858872Y-16624498D01*
X9858872Y-16624498D02*
X9839825Y-16653069D01*
X9839825Y-16653069D02*
X9820777Y-16672117D01*
X9820777Y-16672117D02*
X9801729Y-16681640D01*
X10106491Y-16824498D02*
X9992206Y-16824498D01*
X10049348Y-16824498D02*
X10049348Y-16624498D01*
X10049348Y-16624498D02*
X10030301Y-16653069D01*
X10030301Y-16653069D02*
X10011253Y-16672117D01*
X10011253Y-16672117D02*
X9992206Y-16681640D01*
X10220777Y-16710212D02*
X10201729Y-16700688D01*
X10201729Y-16700688D02*
X10192206Y-16691164D01*
X10192206Y-16691164D02*
X10182682Y-16672117D01*
X10182682Y-16672117D02*
X10182682Y-16662593D01*
X10182682Y-16662593D02*
X10192206Y-16643545D01*
X10192206Y-16643545D02*
X10201729Y-16634021D01*
X10201729Y-16634021D02*
X10220777Y-16624498D01*
X10220777Y-16624498D02*
X10258872Y-16624498D01*
X10258872Y-16624498D02*
X10277920Y-16634021D01*
X10277920Y-16634021D02*
X10287444Y-16643545D01*
X10287444Y-16643545D02*
X10296968Y-16662593D01*
X10296968Y-16662593D02*
X10296968Y-16672117D01*
X10296968Y-16672117D02*
X10287444Y-16691164D01*
X10287444Y-16691164D02*
X10277920Y-16700688D01*
X10277920Y-16700688D02*
X10258872Y-16710212D01*
X10258872Y-16710212D02*
X10220777Y-16710212D01*
X10220777Y-16710212D02*
X10201729Y-16719736D01*
X10201729Y-16719736D02*
X10192206Y-16729259D01*
X10192206Y-16729259D02*
X10182682Y-16748307D01*
X10182682Y-16748307D02*
X10182682Y-16786402D01*
X10182682Y-16786402D02*
X10192206Y-16805450D01*
X10192206Y-16805450D02*
X10201729Y-16814974D01*
X10201729Y-16814974D02*
X10220777Y-16824498D01*
X10220777Y-16824498D02*
X10258872Y-16824498D01*
X10258872Y-16824498D02*
X10277920Y-16814974D01*
X10277920Y-16814974D02*
X10287444Y-16805450D01*
X10287444Y-16805450D02*
X10296968Y-16786402D01*
X10296968Y-16786402D02*
X10296968Y-16748307D01*
X10296968Y-16748307D02*
X10287444Y-16729259D01*
X10287444Y-16729259D02*
X10277920Y-16719736D01*
X10277920Y-16719736D02*
X10258872Y-16710212D01*
X10487444Y-16824498D02*
X10373158Y-16824498D01*
X10430301Y-16824498D02*
X10430301Y-16624498D01*
X10430301Y-16624498D02*
X10411253Y-16653069D01*
X10411253Y-16653069D02*
X10392206Y-16672117D01*
X10392206Y-16672117D02*
X10373158Y-16681640D01*
X10563634Y-16624498D02*
X10563634Y-16662593D01*
X10639825Y-16624498D02*
X10639825Y-16662593D01*
X10935063Y-16900688D02*
X10925539Y-16891164D01*
X10925539Y-16891164D02*
X10906491Y-16862593D01*
X10906491Y-16862593D02*
X10896968Y-16843545D01*
X10896968Y-16843545D02*
X10887444Y-16814974D01*
X10887444Y-16814974D02*
X10877920Y-16767355D01*
X10877920Y-16767355D02*
X10877920Y-16729259D01*
X10877920Y-16729259D02*
X10887444Y-16681640D01*
X10887444Y-16681640D02*
X10896968Y-16653069D01*
X10896968Y-16653069D02*
X10906491Y-16634021D01*
X10906491Y-16634021D02*
X10925539Y-16605450D01*
X10925539Y-16605450D02*
X10935063Y-16595926D01*
X11116015Y-16824498D02*
X11001730Y-16824498D01*
X11058872Y-16824498D02*
X11058872Y-16624498D01*
X11058872Y-16624498D02*
X11039825Y-16653069D01*
X11039825Y-16653069D02*
X11020777Y-16672117D01*
X11020777Y-16672117D02*
X11001730Y-16681640D01*
X11354110Y-16824498D02*
X11354110Y-16624498D01*
X11439825Y-16824498D02*
X11439825Y-16719736D01*
X11439825Y-16719736D02*
X11430301Y-16700688D01*
X11430301Y-16700688D02*
X11411253Y-16691164D01*
X11411253Y-16691164D02*
X11382682Y-16691164D01*
X11382682Y-16691164D02*
X11363634Y-16700688D01*
X11363634Y-16700688D02*
X11354110Y-16710212D01*
X11563634Y-16824498D02*
X11544587Y-16814974D01*
X11544587Y-16814974D02*
X11535063Y-16805450D01*
X11535063Y-16805450D02*
X11525539Y-16786402D01*
X11525539Y-16786402D02*
X11525539Y-16729259D01*
X11525539Y-16729259D02*
X11535063Y-16710212D01*
X11535063Y-16710212D02*
X11544587Y-16700688D01*
X11544587Y-16700688D02*
X11563634Y-16691164D01*
X11563634Y-16691164D02*
X11592206Y-16691164D01*
X11592206Y-16691164D02*
X11611253Y-16700688D01*
X11611253Y-16700688D02*
X11620777Y-16710212D01*
X11620777Y-16710212D02*
X11630301Y-16729259D01*
X11630301Y-16729259D02*
X11630301Y-16786402D01*
X11630301Y-16786402D02*
X11620777Y-16805450D01*
X11620777Y-16805450D02*
X11611253Y-16814974D01*
X11611253Y-16814974D02*
X11592206Y-16824498D01*
X11592206Y-16824498D02*
X11563634Y-16824498D01*
X11744587Y-16824498D02*
X11725539Y-16814974D01*
X11725539Y-16814974D02*
X11716015Y-16795926D01*
X11716015Y-16795926D02*
X11716015Y-16624498D01*
X11896968Y-16814974D02*
X11877920Y-16824498D01*
X11877920Y-16824498D02*
X11839825Y-16824498D01*
X11839825Y-16824498D02*
X11820777Y-16814974D01*
X11820777Y-16814974D02*
X11811253Y-16795926D01*
X11811253Y-16795926D02*
X11811253Y-16719736D01*
X11811253Y-16719736D02*
X11820777Y-16700688D01*
X11820777Y-16700688D02*
X11839825Y-16691164D01*
X11839825Y-16691164D02*
X11877920Y-16691164D01*
X11877920Y-16691164D02*
X11896968Y-16700688D01*
X11896968Y-16700688D02*
X11906491Y-16719736D01*
X11906491Y-16719736D02*
X11906491Y-16738783D01*
X11906491Y-16738783D02*
X11811253Y-16757831D01*
X11973158Y-16900688D02*
X11982682Y-16891164D01*
X11982682Y-16891164D02*
X12001730Y-16862593D01*
X12001730Y-16862593D02*
X12011253Y-16843545D01*
X12011253Y-16843545D02*
X12020777Y-16814974D01*
X12020777Y-16814974D02*
X12030301Y-16767355D01*
X12030301Y-16767355D02*
X12030301Y-16729259D01*
X12030301Y-16729259D02*
X12020777Y-16681640D01*
X12020777Y-16681640D02*
X12011253Y-16653069D01*
X12011253Y-16653069D02*
X12001730Y-16634021D01*
X12001730Y-16634021D02*
X11982682Y-16605450D01*
X11982682Y-16605450D02*
X11973158Y-16595926D01*
X12335063Y-16900688D02*
X12325539Y-16891164D01*
X12325539Y-16891164D02*
X12306491Y-16862593D01*
X12306491Y-16862593D02*
X12296968Y-16843545D01*
X12296968Y-16843545D02*
X12287444Y-16814974D01*
X12287444Y-16814974D02*
X12277920Y-16767355D01*
X12277920Y-16767355D02*
X12277920Y-16729259D01*
X12277920Y-16729259D02*
X12287444Y-16681640D01*
X12287444Y-16681640D02*
X12296968Y-16653069D01*
X12296968Y-16653069D02*
X12306491Y-16634021D01*
X12306491Y-16634021D02*
X12325539Y-16605450D01*
X12325539Y-16605450D02*
X12335063Y-16595926D01*
X12411253Y-16691164D02*
X12411253Y-16824498D01*
X12411253Y-16710212D02*
X12420777Y-16700688D01*
X12420777Y-16700688D02*
X12439825Y-16691164D01*
X12439825Y-16691164D02*
X12468396Y-16691164D01*
X12468396Y-16691164D02*
X12487444Y-16700688D01*
X12487444Y-16700688D02*
X12496968Y-16719736D01*
X12496968Y-16719736D02*
X12496968Y-16824498D01*
X12620777Y-16824498D02*
X12601730Y-16814974D01*
X12601730Y-16814974D02*
X12592206Y-16805450D01*
X12592206Y-16805450D02*
X12582682Y-16786402D01*
X12582682Y-16786402D02*
X12582682Y-16729259D01*
X12582682Y-16729259D02*
X12592206Y-16710212D01*
X12592206Y-16710212D02*
X12601730Y-16700688D01*
X12601730Y-16700688D02*
X12620777Y-16691164D01*
X12620777Y-16691164D02*
X12649349Y-16691164D01*
X12649349Y-16691164D02*
X12668396Y-16700688D01*
X12668396Y-16700688D02*
X12677920Y-16710212D01*
X12677920Y-16710212D02*
X12687444Y-16729259D01*
X12687444Y-16729259D02*
X12687444Y-16786402D01*
X12687444Y-16786402D02*
X12677920Y-16805450D01*
X12677920Y-16805450D02*
X12668396Y-16814974D01*
X12668396Y-16814974D02*
X12649349Y-16824498D01*
X12649349Y-16824498D02*
X12620777Y-16824498D01*
X12744587Y-16691164D02*
X12820777Y-16691164D01*
X12773158Y-16624498D02*
X12773158Y-16795926D01*
X12773158Y-16795926D02*
X12782682Y-16814974D01*
X12782682Y-16814974D02*
X12801730Y-16824498D01*
X12801730Y-16824498D02*
X12820777Y-16824498D01*
X13039825Y-16691164D02*
X13039825Y-16891164D01*
X13039825Y-16700688D02*
X13058872Y-16691164D01*
X13058872Y-16691164D02*
X13096968Y-16691164D01*
X13096968Y-16691164D02*
X13116015Y-16700688D01*
X13116015Y-16700688D02*
X13125539Y-16710212D01*
X13125539Y-16710212D02*
X13135063Y-16729259D01*
X13135063Y-16729259D02*
X13135063Y-16786402D01*
X13135063Y-16786402D02*
X13125539Y-16805450D01*
X13125539Y-16805450D02*
X13116015Y-16814974D01*
X13116015Y-16814974D02*
X13096968Y-16824498D01*
X13096968Y-16824498D02*
X13058872Y-16824498D01*
X13058872Y-16824498D02*
X13039825Y-16814974D01*
X13249349Y-16824498D02*
X13230301Y-16814974D01*
X13230301Y-16814974D02*
X13220777Y-16795926D01*
X13220777Y-16795926D02*
X13220777Y-16624498D01*
X13411253Y-16824498D02*
X13411253Y-16719736D01*
X13411253Y-16719736D02*
X13401730Y-16700688D01*
X13401730Y-16700688D02*
X13382682Y-16691164D01*
X13382682Y-16691164D02*
X13344587Y-16691164D01*
X13344587Y-16691164D02*
X13325539Y-16700688D01*
X13411253Y-16814974D02*
X13392206Y-16824498D01*
X13392206Y-16824498D02*
X13344587Y-16824498D01*
X13344587Y-16824498D02*
X13325539Y-16814974D01*
X13325539Y-16814974D02*
X13316015Y-16795926D01*
X13316015Y-16795926D02*
X13316015Y-16776878D01*
X13316015Y-16776878D02*
X13325539Y-16757831D01*
X13325539Y-16757831D02*
X13344587Y-16748307D01*
X13344587Y-16748307D02*
X13392206Y-16748307D01*
X13392206Y-16748307D02*
X13411253Y-16738783D01*
X13477920Y-16691164D02*
X13554111Y-16691164D01*
X13506492Y-16624498D02*
X13506492Y-16795926D01*
X13506492Y-16795926D02*
X13516015Y-16814974D01*
X13516015Y-16814974D02*
X13535063Y-16824498D01*
X13535063Y-16824498D02*
X13554111Y-16824498D01*
X13696968Y-16814974D02*
X13677920Y-16824498D01*
X13677920Y-16824498D02*
X13639825Y-16824498D01*
X13639825Y-16824498D02*
X13620777Y-16814974D01*
X13620777Y-16814974D02*
X13611253Y-16795926D01*
X13611253Y-16795926D02*
X13611253Y-16719736D01*
X13611253Y-16719736D02*
X13620777Y-16700688D01*
X13620777Y-16700688D02*
X13639825Y-16691164D01*
X13639825Y-16691164D02*
X13677920Y-16691164D01*
X13677920Y-16691164D02*
X13696968Y-16700688D01*
X13696968Y-16700688D02*
X13706492Y-16719736D01*
X13706492Y-16719736D02*
X13706492Y-16738783D01*
X13706492Y-16738783D02*
X13611253Y-16757831D01*
X13877920Y-16824498D02*
X13877920Y-16624498D01*
X13877920Y-16814974D02*
X13858873Y-16824498D01*
X13858873Y-16824498D02*
X13820777Y-16824498D01*
X13820777Y-16824498D02*
X13801730Y-16814974D01*
X13801730Y-16814974D02*
X13792206Y-16805450D01*
X13792206Y-16805450D02*
X13782682Y-16786402D01*
X13782682Y-16786402D02*
X13782682Y-16729259D01*
X13782682Y-16729259D02*
X13792206Y-16710212D01*
X13792206Y-16710212D02*
X13801730Y-16700688D01*
X13801730Y-16700688D02*
X13820777Y-16691164D01*
X13820777Y-16691164D02*
X13858873Y-16691164D01*
X13858873Y-16691164D02*
X13877920Y-16700688D01*
X13954111Y-16900688D02*
X13963634Y-16891164D01*
X13963634Y-16891164D02*
X13982682Y-16862593D01*
X13982682Y-16862593D02*
X13992206Y-16843545D01*
X13992206Y-16843545D02*
X14001730Y-16814974D01*
X14001730Y-16814974D02*
X14011253Y-16767355D01*
X14011253Y-16767355D02*
X14011253Y-16729259D01*
X14011253Y-16729259D02*
X14001730Y-16681640D01*
X14001730Y-16681640D02*
X13992206Y-16653069D01*
X13992206Y-16653069D02*
X13982682Y-16634021D01*
X13982682Y-16634021D02*
X13963634Y-16605450D01*
X13963634Y-16605450D02*
X13954111Y-16595926D01*
M02*
